solid square
facet normal 0 0 1
  outer loop
    vertex 0.2803799576698711 0.1407656257949007 0
    vertex 0.4726466671970152 0.1601003905347104 0
    vertex 0.3123396842794416 0.333919239283564 0
  endloop
endfacet
facet normal 0 0 1
  outer loop
    vertex 1.719620042330129 0.3592343742050993 0
    vertex 1.528648401778463 0.3362648890263177 0
    vertex 1.687660315720558 0.166080760716436 0
  endloop
endfacet
facet normal 0 0 1
  outer loop
    vertex 1.687660315720558 0.166080760716436 0
    vertex 1.528648401778463 0.3362648890263177 0
    vertex 1.464610052620094 0.1654792799932581 0
  endloop
endfacet
facet normal 0 0 1
  outer loop
    vertex 0.3123396842794416 0.333919239283564 0
    vertex 0.4726466671970152 0.1601003905347104 0
    vertex 0.4999999999999979 0.3267949192431124 0
  endloop
endfacet
facet normal 0 0 1
  outer loop
    vertex 1.3 0.3267949192431127 0
    vertex 1.292922010524019 0.1330958559986518 0
    vertex 1.464610052620094 0.1654792799932581 0
  endloop
endfacet
facet normal 0 -0 1
  outer loop
    vertex 1.464610052620094 0.1654792799932581 0
    vertex 1.528648401778463 0.3362648890263177 0
    vertex 1.3 0.3267949192431127 0
  endloop
endfacet
facet normal 0 0 1
  outer loop
    vertex 0.4999999999999979 0.3267949192431124 0
    vertex 0.4726466671970152 0.1601003905347104 0
    vertex 0.6775123625056165 0.1879298702104488 0
  endloop
endfacet
facet normal -0 0 1
  outer loop
    vertex 1.100000000000001 0.1732050807568883 0
    vertex 1.292922010524019 0.1330958559986518 0
    vertex 1.3 0.3267949192431127 0
  endloop
endfacet
facet normal 0 0 1
  outer loop
    vertex 1.3 0.3267949192431127 0
    vertex 1.110416556297714 0.3632366536255395 0
    vertex 1.100000000000001 0.1732050807568883 0
  endloop
endfacet
facet normal 0 0 1
  outer loop
    vertex 0.6775123625056165 0.1879298702104488 0
    vertex 0.6567725009165976 0.3575574736815523 0
    vertex 0.4999999999999979 0.3267949192431124 0
  endloop
endfacet
facet normal -0 0 1
  outer loop
    vertex 0.7999999999999992 0.5 0
    vertex 0.9494777815865294 0.3341849808515761 0
    vertex 0.9999999999999998 0.5 0
  endloop
endfacet
facet normal 0 0 1
  outer loop
    vertex 0.7944363363067006 0.3046855083023338 0
    vertex 0.9494777815865294 0.3341849808515761 0
    vertex 0.7999999999999992 0.5 0
  endloop
endfacet
facet normal 0 0 1
  outer loop
    vertex 1.600000000000003 0 0
    vertex 1.464610052620094 0.1654792799932581 0
    vertex 1.400000000000002 0 0
  endloop
endfacet
facet normal -0 0 1
  outer loop
    vertex 0.3999999999999975 0.5 0
    vertex 0.4999999999999979 0.3267949192431124 0
    vertex 0.5999999999999983 0.5 0
  endloop
endfacet
facet normal 0 0 1
  outer loop
    vertex 1 0 0
    vertex 0.8920137969147617 0.1639826424246948 0
    vertex 0.7999999999999995 0 0
  endloop
endfacet
facet normal 0 0 1
  outer loop
    vertex 0.8920137969147617 0.1639826424246948 0
    vertex 0.6775123625056165 0.1879298702104488 0
    vertex 0.7999999999999995 0 0
  endloop
endfacet
facet normal 0 0 1
  outer loop
    vertex 1.200000000000001 0 0
    vertex 1.100000000000001 0.1732050807568883 0
    vertex 1 0 0
  endloop
endfacet
facet normal 0 -0 1
  outer loop
    vertex 1 0 0
    vertex 1.100000000000001 0.1732050807568883 0
    vertex 0.8920137969147617 0.1639826424246948 0
  endloop
endfacet
facet normal 0 0 1
  outer loop
    vertex 0.7999999999999995 0 0
    vertex 0.6775123625056165 0.1879298702104488 0
    vertex 0.5999999999999999 0 0
  endloop
endfacet
facet normal -0 0 1
  outer loop
    vertex 1.200000000000001 0.5 0
    vertex 1.3 0.3267949192431127 0
    vertex 1.4 0.5 0
  endloop
endfacet
facet normal 0 0 1
  outer loop
    vertex 1.800000000000001 0 0
    vertex 1.687660315720558 0.166080760716436 0
    vertex 1.600000000000003 0 0
  endloop
endfacet
facet normal -0 0 1
  outer loop
    vertex 0.1999999999999986 0.5 0
    vertex 0.3123396842794416 0.333919239283564 0
    vertex 0.3999999999999975 0.5 0
  endloop
endfacet
facet normal 0 -0 1
  outer loop
    vertex 1.200000000000001 0 0
    vertex 1.292922010524019 0.1330958559986518 0
    vertex 1.100000000000001 0.1732050807568883 0
  endloop
endfacet
facet normal 0 0 1
  outer loop
    vertex 0.6775123625056165 0.1879298702104488 0
    vertex 0.4726466671970152 0.1601003905347104 0
    vertex 0.5999999999999999 0 0
  endloop
endfacet
facet normal 0 0 1
  outer loop
    vertex 1.200000000000001 0.5 0
    vertex 1.110416556297714 0.3632366536255395 0
    vertex 1.3 0.3267949192431127 0
  endloop
endfacet
facet normal 0 0 1
  outer loop
    vertex 1.464610052620094 0.1654792799932581 0
    vertex 1.292922010524019 0.1330958559986518 0
    vertex 1.400000000000002 0 0
  endloop
endfacet
facet normal 0 0 1
  outer loop
    vertex 1.3 0.3267949192431127 0
    vertex 1.528648401778463 0.3362648890263177 0
    vertex 1.4 0.5 0
  endloop
endfacet
facet normal 0 -0 1
  outer loop
    vertex 1.600000000000003 0 0
    vertex 1.687660315720558 0.166080760716436 0
    vertex 1.464610052620094 0.1654792799932581 0
  endloop
endfacet
facet normal 0 0 1
  outer loop
    vertex 0.3999999999999975 0.5 0
    vertex 0.3123396842794416 0.333919239283564 0
    vertex 0.4999999999999979 0.3267949192431124 0
  endloop
endfacet
facet normal 0 0 1
  outer loop
    vertex 0 0.1666666666666663 0
    vertex 0.1437485240471659 0.2478139927715564 0
    vertex 0 0.3333333333333334 0
  endloop
endfacet
facet normal 0 0 1
  outer loop
    vertex 2 0.3333333333333337 0
    vertex 1.856251475952834 0.2521860072284436 0
    vertex 2 0.1666666666666666 0
  endloop
endfacet
facet normal -0 0 1
  outer loop
    vertex 0.5999999999999983 0.5 0
    vertex 0.6567725009165976 0.3575574736815523 0
    vertex 0.7999999999999992 0.5 0
  endloop
endfacet
facet normal -0 0 1
  outer loop
    vertex 1.8 0.5 0
    vertex 1.873808462307382 0.3852368214355249 0
    vertex 2 0.5 0
  endloop
endfacet
facet normal 0 0 1
  outer loop
    vertex 0.2000000000000001 0 0
    vertex 0.1261915376926183 0.1147631785644751 0
    vertex 0 0 0
  endloop
endfacet
facet normal 0 0 1
  outer loop
    vertex 2 0 0
    vertex 1.868782358334679 0.1169866869223093 0
    vertex 1.800000000000001 0 0
  endloop
endfacet
facet normal -0 0 1
  outer loop
    vertex 0 0.5 0
    vertex 0.1312176416653212 0.3830133130776908 0
    vertex 0.1999999999999986 0.5 0
  endloop
endfacet
facet normal 0 0 1
  outer loop
    vertex 1.6 0.5 0
    vertex 1.528648401778463 0.3362648890263177 0
    vertex 1.719620042330129 0.3592343742050993 0
  endloop
endfacet
facet normal 0 -0 1
  outer loop
    vertex 0.4000000000000002 0 0
    vertex 0.4726466671970152 0.1601003905347104 0
    vertex 0.2803799576698711 0.1407656257949007 0
  endloop
endfacet
facet normal -0 0 1
  outer loop
    vertex 1.6 0.5 0
    vertex 1.719620042330129 0.3592343742050993 0
    vertex 1.8 0.5 0
  endloop
endfacet
facet normal 0 0 1
  outer loop
    vertex 0.4000000000000002 0 0
    vertex 0.2803799576698711 0.1407656257949007 0
    vertex 0.2000000000000001 0 0
  endloop
endfacet
facet normal 0 0 1
  outer loop
    vertex 1.100000000000001 0.1732050807568883 0
    vertex 0.9494777815865294 0.3341849808515761 0
    vertex 0.8920137969147617 0.1639826424246948 0
  endloop
endfacet
facet normal 0 0 1
  outer loop
    vertex 1.856251475952834 0.2521860072284436 0
    vertex 1.719620042330129 0.3592343742050993 0
    vertex 1.687660315720558 0.166080760716436 0
  endloop
endfacet
facet normal -0 0 1
  outer loop
    vertex 0.1437485240471659 0.2478139927715564 0
    vertex 0.2803799576698711 0.1407656257949007 0
    vertex 0.3123396842794416 0.333919239283564 0
  endloop
endfacet
facet normal 0 -0 1
  outer loop
    vertex 1.800000000000001 0 0
    vertex 1.868782358334679 0.1169866869223093 0
    vertex 1.687660315720558 0.166080760716436 0
  endloop
endfacet
facet normal 0 0 1
  outer loop
    vertex 0.1999999999999986 0.5 0
    vertex 0.1312176416653212 0.3830133130776908 0
    vertex 0.3123396842794416 0.333919239283564 0
  endloop
endfacet
facet normal -0 0 1
  outer loop
    vertex 1.4 0.5 0
    vertex 1.528648401778463 0.3362648890263177 0
    vertex 1.6 0.5 0
  endloop
endfacet
facet normal -0 0 1
  outer loop
    vertex 0.9999999999999998 0.5 0
    vertex 1.110416556297714 0.3632366536255395 0
    vertex 1.200000000000001 0.5 0
  endloop
endfacet
facet normal 0 0 1
  outer loop
    vertex 1.400000000000002 0 0
    vertex 1.292922010524019 0.1330958559986518 0
    vertex 1.200000000000001 0 0
  endloop
endfacet
facet normal 0 0 1
  outer loop
    vertex 0.5999999999999999 0 0
    vertex 0.4726466671970152 0.1601003905347104 0
    vertex 0.4000000000000002 0 0
  endloop
endfacet
facet normal 0 0 1
  outer loop
    vertex 0.8920137969147617 0.1639826424246948 0
    vertex 0.7944363363067006 0.3046855083023338 0
    vertex 0.6775123625056165 0.1879298702104488 0
  endloop
endfacet
facet normal 0 0 1
  outer loop
    vertex 0.7999999999999992 0.5 0
    vertex 0.6567725009165976 0.3575574736815523 0
    vertex 0.7944363363067006 0.3046855083023338 0
  endloop
endfacet
facet normal -0 0 1
  outer loop
    vertex 1.687660315720558 0.166080760716436 0
    vertex 1.868782358334679 0.1169866869223093 0
    vertex 1.856251475952834 0.2521860072284436 0
  endloop
endfacet
facet normal 0 0 1
  outer loop
    vertex 0.3123396842794416 0.333919239283564 0
    vertex 0.1312176416653212 0.3830133130776908 0
    vertex 0.1437485240471659 0.2478139927715564 0
  endloop
endfacet
facet normal 0 0 1
  outer loop
    vertex 2 0.1666666666666666 0
    vertex 1.868782358334679 0.1169866869223093 0
    vertex 2 0 0
  endloop
endfacet
facet normal 0 0 1
  outer loop
    vertex 0 0.3333333333333334 0
    vertex 0.1312176416653212 0.3830133130776908 0
    vertex 0 0.5 0
  endloop
endfacet
facet normal 0 0 1
  outer loop
    vertex 0 0 0
    vertex 0.1261915376926183 0.1147631785644751 0
    vertex 0 0.1666666666666663 0
  endloop
endfacet
facet normal 0 0 1
  outer loop
    vertex 2 0.5 0
    vertex 1.873808462307382 0.3852368214355249 0
    vertex 2 0.3333333333333337 0
  endloop
endfacet
facet normal 0 0 1
  outer loop
    vertex 1.110416556297714 0.3632366536255395 0
    vertex 0.9494777815865294 0.3341849808515761 0
    vertex 1.100000000000001 0.1732050807568883 0
  endloop
endfacet
facet normal 0 0 1
  outer loop
    vertex 0.9999999999999998 0.5 0
    vertex 0.9494777815865294 0.3341849808515761 0
    vertex 1.110416556297714 0.3632366536255395 0
  endloop
endfacet
facet normal 0 0 1
  outer loop
    vertex 0.7944363363067006 0.3046855083023338 0
    vertex 0.6567725009165976 0.3575574736815523 0
    vertex 0.6775123625056165 0.1879298702104488 0
  endloop
endfacet
facet normal 0 0 1
  outer loop
    vertex 0.4999999999999979 0.3267949192431124 0
    vertex 0.6567725009165976 0.3575574736815523 0
    vertex 0.5999999999999983 0.5 0
  endloop
endfacet
facet normal 0 -0 1
  outer loop
    vertex 1.856251475952834 0.2521860072284436 0
    vertex 1.873808462307382 0.3852368214355249 0
    vertex 1.719620042330129 0.3592343742050993 0
  endloop
endfacet
facet normal 0 0 1
  outer loop
    vertex 0.1437485240471659 0.2478139927715564 0
    vertex 0.1261915376926183 0.1147631785644751 0
    vertex 0.2803799576698711 0.1407656257949007 0
  endloop
endfacet
facet normal 0 0 1
  outer loop
    vertex 0.2803799576698711 0.1407656257949007 0
    vertex 0.1261915376926183 0.1147631785644751 0
    vertex 0.2000000000000001 0 0
  endloop
endfacet
facet normal 0 0 1
  outer loop
    vertex 1.719620042330129 0.3592343742050993 0
    vertex 1.873808462307382 0.3852368214355249 0
    vertex 1.8 0.5 0
  endloop
endfacet
facet normal 0 0 1
  outer loop
    vertex 2 0.3333333333333337 0
    vertex 1.873808462307382 0.3852368214355249 0
    vertex 1.856251475952834 0.2521860072284436 0
  endloop
endfacet
facet normal 0 0 1
  outer loop
    vertex 1.856251475952834 0.2521860072284436 0
    vertex 1.868782358334679 0.1169866869223093 0
    vertex 2 0.1666666666666666 0
  endloop
endfacet
facet normal 0 0 1
  outer loop
    vertex 0.1437485240471659 0.2478139927715564 0
    vertex 0.1312176416653212 0.3830133130776908 0
    vertex 0 0.3333333333333334 0
  endloop
endfacet
facet normal -0 0 1
  outer loop
    vertex 0 0.1666666666666663 0
    vertex 0.1261915376926183 0.1147631785644751 0
    vertex 0.1437485240471659 0.2478139927715564 0
  endloop
endfacet
facet normal 0 -0 1
  outer loop
    vertex 0.8920137969147617 0.1639826424246948 0
    vertex 0.9494777815865294 0.3341849808515761 0
    vertex 0.7944363363067006 0.3046855083023338 0
  endloop
endfacet
endsolid square
