solid square
facet normal -0 0 1
  outer loop
    vertex 0.7646672502010368 0.229066006106814 0
    vertex 0.8959004857786097 0.1879321779033213 0
    vertex 0.8917468245269455 0.3124999999999996 0
  endloop
endfacet
facet normal 0 0 1
  outer loop
    vertex 0.8917468245269455 0.3124999999999996 0
    vertex 0.7819074654780986 0.3451910717748128 0
    vertex 0.7646672502010368 0.229066006106814 0
  endloop
endfacet
facet normal 0 -0 1
  outer loop
    vertex 0.8787408590474761 0.5688788296333868 0
    vertex 0.891746824526945 0.6874999999999991 0
    vertex 0.7558138451570435 0.6422638761822286 0
  endloop
endfacet
facet normal 0 0 1
  outer loop
    vertex 0.1182626851017918 0.669225973923011 0
    vertex 0.1875710532781786 0.5449975168824133 0
    vertex 0.2499999999999989 0.6495190528383259 0
  endloop
endfacet
facet normal 0 0 1
  outer loop
    vertex 0.7558138451570435 0.6422638761822286 0
    vertex 0.7774226411965254 0.5265527835888375 0
    vertex 0.8787408590474761 0.5688788296333868 0
  endloop
endfacet
facet normal 0 0 1
  outer loop
    vertex 0.1182626851017918 0.669225973923011 0
    vertex 0.08453570123751109 0.5625000000000009 0
    vertex 0.1875710532781786 0.5449975168824133 0
  endloop
endfacet
facet normal 0 0 1
  outer loop
    vertex 1 0.4999999999999988 0
    vertex 0.8628769461960453 0.4382017528180521 0
    vertex 1 0.3749999999999994 0
  endloop
endfacet
facet normal 0 0 1
  outer loop
    vertex 0.1094851921887064 0.2033420655976694 0
    vertex 0.2375681941678717 0.2131232466900194 0
    vertex 0.1778732193721209 0.3232140480521861 0
  endloop
endfacet
facet normal 0 -0 1
  outer loop
    vertex 0.3098918535636471 0.1070150426096389 0
    vertex 0.3714895616679679 0.2148949910804582 0
    vertex 0.2375681941678717 0.2131232466900194 0
  endloop
endfacet
facet normal 0 0 1
  outer loop
    vertex 0.1778732193721209 0.3232140480521861 0
    vertex 0.07733755452579327 0.3125000000000011 0
    vertex 0.1094851921887064 0.2033420655976694 0
  endloop
endfacet
facet normal 0 0 1
  outer loop
    vertex 0.8787408590474761 0.5688788296333868 0
    vertex 0.8628769461960453 0.4382017528180521 0
    vertex 1 0.4999999999999988 0
  endloop
endfacet
facet normal 0 0 1
  outer loop
    vertex 1 0.3749999999999994 0
    vertex 0.8628769461960453 0.4382017528180521 0
    vertex 0.8917468245269455 0.3124999999999996 0
  endloop
endfacet
facet normal 0 0 1
  outer loop
    vertex 0.1107249391757801 0.4359051368937709 0
    vertex 0.1778732193721209 0.3232140480521861 0
    vertex 0.2499999999999993 0.433012701892217 0
  endloop
endfacet
facet normal -0 0 1
  outer loop
    vertex 0.1107249391757801 0.4359051368937709 0
    vertex 0.2499999999999993 0.433012701892217 0
    vertex 0.1875710532781786 0.5449975168824133 0
  endloop
endfacet
facet normal 0 0 1
  outer loop
    vertex 0.4350399505186864 0.3232496269229517 0
    vertex 0.3724746634145926 0.4316192480461928 0
    vertex 0.301484014301639 0.3178829819971146 0
  endloop
endfacet
facet normal 0 0 1
  outer loop
    vertex 0.2375681941678717 0.2131232466900194 0
    vertex 0.3714895616679679 0.2148949910804582 0
    vertex 0.301484014301639 0.3178829819971146 0
  endloop
endfacet
facet normal 0 -0 1
  outer loop
    vertex 0.8119703288398898 0.1058465056319792 0
    vertex 0.8959004857786097 0.1879321779033213 0
    vertex 0.7646672502010368 0.229066006106814 0
  endloop
endfacet
facet normal -0 0 1
  outer loop
    vertex 0.7774226411965254 0.5265527835888375 0
    vertex 0.8628769461960453 0.4382017528180521 0
    vertex 0.8787408590474761 0.5688788296333868 0
  endloop
endfacet
facet normal 0 -0 1
  outer loop
    vertex 0.301484014301639 0.3178829819971146 0
    vertex 0.3724746634145926 0.4316192480461928 0
    vertex 0.2499999999999993 0.433012701892217 0
  endloop
endfacet
facet normal -0 0 1
  outer loop
    vertex 0.301484014301639 0.3178829819971146 0
    vertex 0.3714895616679679 0.2148949910804582 0
    vertex 0.4350399505186864 0.3232496269229517 0
  endloop
endfacet
facet normal 0 0 1
  outer loop
    vertex 0.7774226411965254 0.5265527835888375 0
    vertex 0.7301718800130685 0.43455349184306 0
    vertex 0.8628769461960453 0.4382017528180521 0
  endloop
endfacet
facet normal 0 0 1
  outer loop
    vertex 0.8628769461960453 0.4382017528180521 0
    vertex 0.7301718800130685 0.43455349184306 0
    vertex 0.7819074654780986 0.3451910717748128 0
  endloop
endfacet
facet normal 0 0 1
  outer loop
    vertex 0.891746824526945 0.6874999999999991 0
    vertex 0.7923273839860845 0.7437108155792401 0
    vertex 0.7558138451570435 0.6422638761822286 0
  endloop
endfacet
facet normal 0 0 1
  outer loop
    vertex 0.2499999999999989 0.6495190528383259 0
    vertex 0.2010889394410991 0.7499266504670595 0
    vertex 0.1182626851017918 0.669225973923011 0
  endloop
endfacet
facet normal -0 0 1
  outer loop
    vertex 0.1778732193721209 0.3232140480521861 0
    vertex 0.301484014301639 0.3178829819971146 0
    vertex 0.2499999999999993 0.433012701892217 0
  endloop
endfacet
facet normal -0 0 1
  outer loop
    vertex 0.103415783057214 0.8066379931605242 0
    vertex 0.2010889394410991 0.7499266504670595 0
    vertex 0.1875000000000007 0.8917468245269449 0
  endloop
endfacet
facet normal 0 -0 1
  outer loop
    vertex 0.2010889394410991 0.7499266504670595 0
    vertex 0.2601608324359393 0.8246932292153027 0
    vertex 0.1875000000000007 0.8917468245269449 0
  endloop
endfacet
facet normal 0 0 1
  outer loop
    vertex 0.7819074654780986 0.3451910717748128 0
    vertex 0.6739266620600561 0.3223988573944038 0
    vertex 0.7646672502010368 0.229066006106814 0
  endloop
endfacet
facet normal 0 0 1
  outer loop
    vertex 0.8628769461960453 0.4382017528180521 0
    vertex 0.7819074654780986 0.3451910717748128 0
    vertex 0.8917468245269455 0.3124999999999996 0
  endloop
endfacet
facet normal 0 0 1
  outer loop
    vertex 0.1778732193721209 0.3232140480521861 0
    vertex 0.2375681941678717 0.2131232466900194 0
    vertex 0.301484014301639 0.3178829819971146 0
  endloop
endfacet
facet normal 0 0 1
  outer loop
    vertex 0.2375681941678717 0.2131232466900194 0
    vertex 0.1911333561284869 0.1028269135594175 0
    vertex 0.3098918535636471 0.1070150426096389 0
  endloop
endfacet
facet normal 0 0 1
  outer loop
    vertex 1 0.6249999999999988 0
    vertex 0.891746824526945 0.6874999999999991 0
    vertex 0.8787408590474761 0.5688788296333868 0
  endloop
endfacet
facet normal 0 0 1
  outer loop
    vertex 0.687411721473314 0.1078520638328755 0
    vertex 0.6222382678779044 0.2148535068271494 0
    vertex 0.5624999999999989 0.1082531754730547 0
  endloop
endfacet
facet normal 0 -0 1
  outer loop
    vertex 0.687411721473314 0.1078520638328755 0
    vertex 0.7646672502010368 0.229066006106814 0
    vertex 0.6222382678779044 0.2148535068271494 0
  endloop
endfacet
facet normal 0 -0 1
  outer loop
    vertex 0.6249999999999988 0 0
    vertex 0.687411721473314 0.1078520638328755 0
    vertex 0.5624999999999989 0.1082531754730547 0
  endloop
endfacet
facet normal 0 0 1
  outer loop
    vertex 0.7499999999999991 0 0
    vertex 0.687411721473314 0.1078520638328755 0
    vertex 0.6249999999999988 0 0
  endloop
endfacet
facet normal 0 0 1
  outer loop
    vertex 1 0.7499999999999991 0
    vertex 0.891746824526945 0.6874999999999991 0
    vertex 1 0.6249999999999988 0
  endloop
endfacet
facet normal 0 0 1
  outer loop
    vertex 0.3750000000000012 1 0
    vertex 0.3125000000000009 0.891746824526945 0
    vertex 0.4375000000000012 0.8917468245269454 0
  endloop
endfacet
facet normal 0 0 1
  outer loop
    vertex 0.8119703288398898 0.1058465056319792 0
    vertex 0.687411721473314 0.1078520638328755 0
    vertex 0.7499999999999991 0 0
  endloop
endfacet
facet normal 0 -0 1
  outer loop
    vertex 0.3749999999999994 0 0
    vertex 0.4369885941461045 0.1080009076591809 0
    vertex 0.3098918535636471 0.1070150426096389 0
  endloop
endfacet
facet normal -0 0 1
  outer loop
    vertex 0.2500000000000009 1 0
    vertex 0.3125000000000009 0.891746824526945 0
    vertex 0.3750000000000012 1 0
  endloop
endfacet
facet normal 0 0 1
  outer loop
    vertex 0.6249999999999988 0 0
    vertex 0.5624999999999989 0.1082531754730547 0
    vertex 0.4999999999999988 0 0
  endloop
endfacet
facet normal 0 0 1
  outer loop
    vertex 0.879230463236312 0.8130906423764597 0
    vertex 0.891746824526945 0.6874999999999991 0
    vertex 1 0.7499999999999991 0
  endloop
endfacet
facet normal 0 0 1
  outer loop
    vertex 0.8119703288398898 0.1058465056319792 0
    vertex 0.7646672502010368 0.229066006106814 0
    vertex 0.687411721473314 0.1078520638328755 0
  endloop
endfacet
facet normal 0 0 1
  outer loop
    vertex 0.5624999999999989 0.1082531754730547 0
    vertex 0.4369885941461045 0.1080009076591809 0
    vertex 0.4999999999999988 0 0
  endloop
endfacet
facet normal 0 0 1
  outer loop
    vertex 1 0.6249999999999988 0
    vertex 0.8787408590474761 0.5688788296333868 0
    vertex 1 0.4999999999999988 0
  endloop
endfacet
facet normal 0 0 1
  outer loop
    vertex 0.4365001961261518 0.5415315810733968 0
    vertex 0.3724746634145926 0.4316192480461928 0
    vertex 0.4995115585047765 0.4327221170255846 0
  endloop
endfacet
facet normal 0 0 1
  outer loop
    vertex 1 0.3749999999999994 0
    vertex 0.8917468245269455 0.3124999999999996 0
    vertex 1 0.2499999999999998 0
  endloop
endfacet
facet normal 0 0 1
  outer loop
    vertex 0.4999999999999988 0 0
    vertex 0.4369885941461045 0.1080009076591809 0
    vertex 0.3749999999999994 0 0
  endloop
endfacet
facet normal -0 0 1
  outer loop
    vertex 0.1250000000000006 1 0
    vertex 0.1875000000000007 0.8917468245269449 0
    vertex 0.2500000000000009 1 0
  endloop
endfacet
facet normal 0 0 1
  outer loop
    vertex 0.1875000000000007 0.8917468245269449 0
    vertex 0.3125000000000009 0.891746824526945 0
    vertex 0.2500000000000009 1 0
  endloop
endfacet
facet normal 0 0 1
  outer loop
    vertex 0.4995397113129832 0.2162308769262824 0
    vertex 0.3714895616679679 0.2148949910804582 0
    vertex 0.4369885941461045 0.1080009076591809 0
  endloop
endfacet
facet normal 0 0 1
  outer loop
    vertex 0 0.3750000000000012 0
    vertex 0.1107249391757801 0.4359051368937709 0
    vertex 0 0.5000000000000011 0
  endloop
endfacet
facet normal 0 0 1
  outer loop
    vertex 0.4350399505186864 0.3232496269229517 0
    vertex 0.3714895616679679 0.2148949910804582 0
    vertex 0.4995397113129832 0.2162308769262824 0
  endloop
endfacet
facet normal 0 0 1
  outer loop
    vertex 0.4995115585047765 0.4327221170255846 0
    vertex 0.3724746634145926 0.4316192480461928 0
    vertex 0.4350399505186864 0.3232496269229517 0
  endloop
endfacet
facet normal -0 0 1
  outer loop
    vertex 0.6204622660663316 0.6518781417959358 0
    vertex 0.7558138451570435 0.6422638761822286 0
    vertex 0.685881360403847 0.7503445567222475 0
  endloop
endfacet
facet normal 0 0 1
  outer loop
    vertex 0 0.1250000000000006 0
    vertex 0.1094851921887064 0.2033420655976694 0
    vertex 0 0.2500000000000009 0
  endloop
endfacet
facet normal 0 0 1
  outer loop
    vertex 0.6222382678779044 0.2148535068271494 0
    vertex 0.4995397113129832 0.2162308769262824 0
    vertex 0.5624999999999989 0.1082531754730547 0
  endloop
endfacet
facet normal 0 0 1
  outer loop
    vertex 0.4369885941461045 0.1080009076591809 0
    vertex 0.3714895616679679 0.2148949910804582 0
    vertex 0.3098918535636471 0.1070150426096389 0
  endloop
endfacet
facet normal 0 0 1
  outer loop
    vertex 0.6222382678779044 0.2148535068271494 0
    vertex 0.5592159774975001 0.3228521478837691 0
    vertex 0.4995397113129832 0.2162308769262824 0
  endloop
endfacet
facet normal 0 0 1
  outer loop
    vertex 0.3748733700916652 0.6495569611339231 0
    vertex 0.2499999999999989 0.6495190528383259 0
    vertex 0.3123122610363022 0.5413164793658919 0
  endloop
endfacet
facet normal 0 0 1
  outer loop
    vertex 0.3749999999999994 0 0
    vertex 0.3098918535636471 0.1070150426096389 0
    vertex 0.2499999999999998 0 0
  endloop
endfacet
facet normal -0 0 1
  outer loop
    vertex 0.3750000000000012 1 0
    vertex 0.4375000000000012 0.8917468245269454 0
    vertex 0.5000000000000011 1 0
  endloop
endfacet
facet normal -0 0 1
  outer loop
    vertex 0.3123122610363022 0.5413164793658919 0
    vertex 0.3724746634145926 0.4316192480461928 0
    vertex 0.4365001961261518 0.5415315810733968 0
  endloop
endfacet
facet normal 0 0 1
  outer loop
    vertex 1 0.8749999999999994 0
    vertex 0.879230463236312 0.8130906423764597 0
    vertex 1 0.7499999999999991 0
  endloop
endfacet
facet normal 0 0 1
  outer loop
    vertex 0.4995397113129832 0.2162308769262824 0
    vertex 0.4369885941461045 0.1080009076591809 0
    vertex 0.5624999999999989 0.1082531754730547 0
  endloop
endfacet
facet normal 0 0 1
  outer loop
    vertex 0.5624999999999973 0.757772228311381 0
    vertex 0.4374999999999979 0.7577722283113806 0
    vertex 0.4989149690630471 0.6498774713089112 0
  endloop
endfacet
facet normal 0 0 1
  outer loop
    vertex 0.8749999999999994 0 0
    vertex 0.8119703288398898 0.1058465056319792 0
    vertex 0.7499999999999991 0 0
  endloop
endfacet
facet normal 0 0 1
  outer loop
    vertex 0.5592159774975001 0.3228521478837691 0
    vertex 0.4995115585047765 0.4327221170255846 0
    vertex 0.4350399505186864 0.3232496269229517 0
  endloop
endfacet
facet normal 0 -0 1
  outer loop
    vertex 0.5592159774975001 0.3228521478837691 0
    vertex 0.6130571419252585 0.4327008212914639 0
    vertex 0.4995115585047765 0.4327221170255846 0
  endloop
endfacet
facet normal 0 0 1
  outer loop
    vertex 0.6130571419252585 0.4327008212914639 0
    vertex 0.55698961825214 0.5431506844806554 0
    vertex 0.4995115585047765 0.4327221170255846 0
  endloop
endfacet
facet normal -0 0 1
  outer loop
    vertex 0.6250000000000007 1 0
    vertex 0.6871891340151978 0.8955068139135627 0
    vertex 0.7500000000000002 1 0
  endloop
endfacet
facet normal -0 0 1
  outer loop
    vertex 0.5000000000000011 1 0
    vertex 0.5625000000000009 0.8917468245269455 0
    vertex 0.6250000000000007 1 0
  endloop
endfacet
facet normal 0 0 1
  outer loop
    vertex 0.4375000000000012 0.8917468245269454 0
    vertex 0.5625000000000009 0.8917468245269455 0
    vertex 0.5000000000000011 1 0
  endloop
endfacet
facet normal 0 0 1
  outer loop
    vertex 0.5592159774975001 0.3228521478837691 0
    vertex 0.4350399505186864 0.3232496269229517 0
    vertex 0.4995397113129832 0.2162308769262824 0
  endloop
endfacet
facet normal 0 0 1
  outer loop
    vertex 0.4989149690630471 0.6498774713089112 0
    vertex 0.3748733700916652 0.6495569611339231 0
    vertex 0.4365001961261518 0.5415315810733968 0
  endloop
endfacet
facet normal -0 0 1
  outer loop
    vertex 0.2499999999999993 0.433012701892217 0
    vertex 0.3724746634145926 0.4316192480461928 0
    vertex 0.3123122610363022 0.5413164793658919 0
  endloop
endfacet
facet normal 0 0 1
  outer loop
    vertex 0 0.6250000000000007 0
    vertex 0.1182626851017918 0.669225973923011 0
    vertex 0 0.7500000000000002 0
  endloop
endfacet
facet normal 0 -0 1
  outer loop
    vertex 0.55698961825214 0.5431506844806554 0
    vertex 0.6204622660663316 0.6518781417959358 0
    vertex 0.4989149690630471 0.6498774713089112 0
  endloop
endfacet
facet normal 0 0 1
  outer loop
    vertex 0.3748733700916652 0.6495569611339231 0
    vertex 0.3123122610363022 0.5413164793658919 0
    vertex 0.4365001961261518 0.5415315810733968 0
  endloop
endfacet
facet normal 0 0 1
  outer loop
    vertex 0.4989149690630471 0.6498774713089112 0
    vertex 0.4374999999999979 0.7577722283113806 0
    vertex 0.3748733700916652 0.6495569611339231 0
  endloop
endfacet
facet normal 0 0 1
  outer loop
    vertex 0.2499999999999989 0.6495190528383259 0
    vertex 0.1875710532781786 0.5449975168824133 0
    vertex 0.3123122610363022 0.5413164793658919 0
  endloop
endfacet
facet normal 0 0 1
  outer loop
    vertex 0.55698961825214 0.5431506844806554 0
    vertex 0.4365001961261518 0.5415315810733968 0
    vertex 0.4995115585047765 0.4327221170255846 0
  endloop
endfacet
facet normal 0 0 1
  outer loop
    vertex 0.1875710532781786 0.5449975168824133 0
    vertex 0.2499999999999993 0.433012701892217 0
    vertex 0.3123122610363022 0.5413164793658919 0
  endloop
endfacet
facet normal 0 0 1
  outer loop
    vertex 0.6250000000000007 1 0
    vertex 0.5625000000000009 0.8917468245269455 0
    vertex 0.6871891340151978 0.8955068139135627 0
  endloop
endfacet
facet normal 0 0 1
  outer loop
    vertex 0.6204622660663316 0.6518781417959358 0
    vertex 0.5624999999999973 0.757772228311381 0
    vertex 0.4989149690630471 0.6498774713089112 0
  endloop
endfacet
facet normal 0 -0 1
  outer loop
    vertex 0.6204622660663316 0.6518781417959358 0
    vertex 0.685881360403847 0.7503445567222475 0
    vertex 0.5624999999999973 0.757772228311381 0
  endloop
endfacet
facet normal 0 -0 1
  outer loop
    vertex 0.3748733700916652 0.6495569611339231 0
    vertex 0.4374999999999979 0.7577722283113806 0
    vertex 0.3133176815799774 0.7523710733550598 0
  endloop
endfacet
facet normal 0 0 1
  outer loop
    vertex 0.55698961825214 0.5431506844806554 0
    vertex 0.4989149690630471 0.6498774713089112 0
    vertex 0.4365001961261518 0.5415315810733968 0
  endloop
endfacet
facet normal 0 0 1
  outer loop
    vertex 0.3748733700916652 0.6495569611339231 0
    vertex 0.3133176815799774 0.7523710733550598 0
    vertex 0.2499999999999989 0.6495190528383259 0
  endloop
endfacet
facet normal 0 0 1
  outer loop
    vertex 0.7558138451570435 0.6422638761822286 0
    vertex 0.6718404232224279 0.5422756641907901 0
    vertex 0.7774226411965254 0.5265527835888375 0
  endloop
endfacet
facet normal 0 0 1
  outer loop
    vertex 0.8081462788186125 0.9070743513265296 0
    vertex 0.7489644266062752 0.8253550026152658 0
    vertex 0.879230463236312 0.8130906423764597 0
  endloop
endfacet
facet normal 0 0 1
  outer loop
    vertex 0.879230463236312 0.8130906423764597 0
    vertex 0.7489644266062752 0.8253550026152658 0
    vertex 0.7923273839860845 0.7437108155792401 0
  endloop
endfacet
facet normal -0 0 1
  outer loop
    vertex 0.7500000000000002 1 0
    vertex 0.8081462788186125 0.9070743513265296 0
    vertex 0.8750000000000001 1 0
  endloop
endfacet
facet normal 0 0 1
  outer loop
    vertex 0 0.7500000000000002 0
    vertex 0.103415783057214 0.8066379931605242 0
    vertex 0 0.8750000000000001 0
  endloop
endfacet
facet normal 0 0 1
  outer loop
    vertex 1 0.2499999999999998 0
    vertex 0.8959004857786097 0.1879321779033213 0
    vertex 1 0.1249999999999998 0
  endloop
endfacet
facet normal 0 0 1
  outer loop
    vertex 0.1875710532781786 0.5449975168824133 0
    vertex 0.08453570123751109 0.5625000000000009 0
    vertex 0.1107249391757801 0.4359051368937709 0
  endloop
endfacet
facet normal 0 0 1
  outer loop
    vertex 0.2499999999999998 0 0
    vertex 0.1911333561284869 0.1028269135594175 0
    vertex 0.1249999999999998 0 0
  endloop
endfacet
facet normal 0 0 1
  outer loop
    vertex 0.3098918535636471 0.1070150426096389 0
    vertex 0.1911333561284869 0.1028269135594175 0
    vertex 0.2499999999999998 0 0
  endloop
endfacet
facet normal 0 0 1
  outer loop
    vertex 0.1107249391757801 0.4359051368937709 0
    vertex 0.07733755452579327 0.3125000000000011 0
    vertex 0.1778732193721209 0.3232140480521861 0
  endloop
endfacet
facet normal 0 0 1
  outer loop
    vertex 0.8917468245269455 0.3124999999999996 0
    vertex 0.8959004857786097 0.1879321779033213 0
    vertex 1 0.2499999999999998 0
  endloop
endfacet
facet normal 0 0 1
  outer loop
    vertex 0.1182626851017918 0.669225973923011 0
    vertex 0.103415783057214 0.8066379931605242 0
    vertex 0 0.7500000000000002 0
  endloop
endfacet
facet normal 0 0 1
  outer loop
    vertex 0.6871891340151978 0.8955068139135627 0
    vertex 0.8081462788186125 0.9070743513265296 0
    vertex 0.7500000000000002 1 0
  endloop
endfacet
facet normal 0 0 1
  outer loop
    vertex 0.6130571419252585 0.4327008212914639 0
    vertex 0.7301718800130685 0.43455349184306 0
    vertex 0.6718404232224279 0.5422756641907901 0
  endloop
endfacet
facet normal -0 0 1
  outer loop
    vertex 0.1094851921887064 0.2033420655976694 0
    vertex 0.1911333561284869 0.1028269135594175 0
    vertex 0.2375681941678717 0.2131232466900194 0
  endloop
endfacet
facet normal 0 0 1
  outer loop
    vertex 0.7646672502010368 0.229066006106814 0
    vertex 0.6739266620600561 0.3223988573944038 0
    vertex 0.6222382678779044 0.2148535068271494 0
  endloop
endfacet
facet normal -0 0 1
  outer loop
    vertex 0.5592159774975001 0.3228521478837691 0
    vertex 0.6739266620600561 0.3223988573944038 0
    vertex 0.6130571419252585 0.4327008212914639 0
  endloop
endfacet
facet normal 0 0 1
  outer loop
    vertex 0.1107249391757801 0.4359051368937709 0
    vertex 0.08453570123751109 0.5625000000000009 0
    vertex 0 0.5000000000000011 0
  endloop
endfacet
facet normal -0 0 1
  outer loop
    vertex 0 0.6250000000000007 0
    vertex 0.08453570123751109 0.5625000000000009 0
    vertex 0.1182626851017918 0.669225973923011 0
  endloop
endfacet
facet normal 0 -0 1
  outer loop
    vertex 0.6130571419252585 0.4327008212914639 0
    vertex 0.6718404232224279 0.5422756641907901 0
    vertex 0.55698961825214 0.5431506844806554 0
  endloop
endfacet
facet normal 0 0 1
  outer loop
    vertex 0.6204622660663316 0.6518781417959358 0
    vertex 0.6718404232224279 0.5422756641907901 0
    vertex 0.7558138451570435 0.6422638761822286 0
  endloop
endfacet
facet normal 0 0 1
  outer loop
    vertex 0.1094851921887064 0.2033420655976694 0
    vertex 0.07733755452579327 0.3125000000000011 0
    vertex 0 0.2500000000000009 0
  endloop
endfacet
facet normal -0 0 1
  outer loop
    vertex 0 0.3750000000000012 0
    vertex 0.07733755452579327 0.3125000000000011 0
    vertex 0.1107249391757801 0.4359051368937709 0
  endloop
endfacet
facet normal 0 0 1
  outer loop
    vertex 0 0 0
    vertex 0.09150635094610993 0.09150635094611009 0
    vertex 0 0.1250000000000006 0
  endloop
endfacet
facet normal -0 0 1
  outer loop
    vertex 0 1 0
    vertex 0.09150635094611009 0.9084936490538901 0
    vertex 0.1250000000000006 1 0
  endloop
endfacet
facet normal 0 0 1
  outer loop
    vertex 1 1 0
    vertex 0.9084936490538901 0.90849364905389 0
    vertex 1 0.8749999999999994 0
  endloop
endfacet
facet normal 0 0 1
  outer loop
    vertex 0.1249999999999998 0 0
    vertex 0.09150635094610993 0.09150635094611009 0
    vertex 0 0 0
  endloop
endfacet
facet normal 0 0 1
  outer loop
    vertex 1 0 0
    vertex 0.90849364905389 0.09150635094610993 0
    vertex 0.8749999999999994 0 0
  endloop
endfacet
facet normal 0 0 1
  outer loop
    vertex 1 0.1249999999999998 0
    vertex 0.90849364905389 0.09150635094610993 0
    vertex 1 0 0
  endloop
endfacet
facet normal 0 0 1
  outer loop
    vertex 0 0.8750000000000001 0
    vertex 0.09150635094611009 0.9084936490538901 0
    vertex 0 1 0
  endloop
endfacet
facet normal -0 0 1
  outer loop
    vertex 0.8750000000000001 1 0
    vertex 0.9084936490538901 0.90849364905389 0
    vertex 1 1 0
  endloop
endfacet
facet normal 0 -0 1
  outer loop
    vertex 0.6739266620600561 0.3223988573944038 0
    vertex 0.7301718800130685 0.43455349184306 0
    vertex 0.6130571419252585 0.4327008212914639 0
  endloop
endfacet
facet normal 0 -0 1
  outer loop
    vertex 0.7558138451570435 0.6422638761822286 0
    vertex 0.7923273839860845 0.7437108155792401 0
    vertex 0.685881360403847 0.7503445567222475 0
  endloop
endfacet
facet normal 0 0 1
  outer loop
    vertex 0.879230463236312 0.8130906423764597 0
    vertex 0.7923273839860845 0.7437108155792401 0
    vertex 0.891746824526945 0.6874999999999991 0
  endloop
endfacet
facet normal 0 0 1
  outer loop
    vertex 0.3133176815799774 0.7523710733550598 0
    vertex 0.2010889394410991 0.7499266504670595 0
    vertex 0.2499999999999989 0.6495190528383259 0
  endloop
endfacet
facet normal 0 0 1
  outer loop
    vertex 0.6718404232224279 0.5422756641907901 0
    vertex 0.7301718800130685 0.43455349184306 0
    vertex 0.7774226411965254 0.5265527835888375 0
  endloop
endfacet
facet normal 0 -0 1
  outer loop
    vertex 0.6222382678779044 0.2148535068271494 0
    vertex 0.6739266620600561 0.3223988573944038 0
    vertex 0.5592159774975001 0.3228521478837691 0
  endloop
endfacet
facet normal 0 -0 1
  outer loop
    vertex 0.1182626851017918 0.669225973923011 0
    vertex 0.2010889394410991 0.7499266504670595 0
    vertex 0.103415783057214 0.8066379931605242 0
  endloop
endfacet
facet normal 0 0 1
  outer loop
    vertex 0 0.5000000000000011 0
    vertex 0.08453570123751109 0.5625000000000009 0
    vertex 0 0.6250000000000007 0
  endloop
endfacet
facet normal -0 0 1
  outer loop
    vertex 0.55698961825214 0.5431506844806554 0
    vertex 0.6718404232224279 0.5422756641907901 0
    vertex 0.6204622660663316 0.6518781417959358 0
  endloop
endfacet
facet normal 0 0 1
  outer loop
    vertex 0.7819074654780986 0.3451910717748128 0
    vertex 0.7301718800130685 0.43455349184306 0
    vertex 0.6739266620600561 0.3223988573944038 0
  endloop
endfacet
facet normal 0 0 1
  outer loop
    vertex 0.8959004857786097 0.1879321779033213 0
    vertex 0.90849364905389 0.09150635094610993 0
    vertex 1 0.1249999999999998 0
  endloop
endfacet
facet normal 0 0 1
  outer loop
    vertex 0.8081462788186125 0.9070743513265296 0
    vertex 0.9084936490538901 0.90849364905389 0
    vertex 0.8750000000000001 1 0
  endloop
endfacet
facet normal 0 0 1
  outer loop
    vertex 0.103415783057214 0.8066379931605242 0
    vertex 0.09150635094611009 0.9084936490538901 0
    vertex 0 0.8750000000000001 0
  endloop
endfacet
facet normal 0 0 1
  outer loop
    vertex 0 0.2500000000000009 0
    vertex 0.07733755452579327 0.3125000000000011 0
    vertex 0 0.3750000000000012 0
  endloop
endfacet
facet normal 0 0 1
  outer loop
    vertex 0.1250000000000006 1 0
    vertex 0.09150635094611009 0.9084936490538901 0
    vertex 0.1875000000000007 0.8917468245269449 0
  endloop
endfacet
facet normal 0 -0 1
  outer loop
    vertex 0.8749999999999994 0 0
    vertex 0.90849364905389 0.09150635094610993 0
    vertex 0.8119703288398898 0.1058465056319792 0
  endloop
endfacet
facet normal 0 0 1
  outer loop
    vertex 1 0.8749999999999994 0
    vertex 0.9084936490538901 0.90849364905389 0
    vertex 0.879230463236312 0.8130906423764597 0
  endloop
endfacet
facet normal -0 0 1
  outer loop
    vertex 0 0.1250000000000006 0
    vertex 0.09150635094610993 0.09150635094611009 0
    vertex 0.1094851921887064 0.2033420655976694 0
  endloop
endfacet
facet normal 0 0 1
  outer loop
    vertex 0.1911333561284869 0.1028269135594175 0
    vertex 0.09150635094610993 0.09150635094611009 0
    vertex 0.1249999999999998 0 0
  endloop
endfacet
facet normal 0 0 1
  outer loop
    vertex 0.3750000000000013 0.8247595264191645 0
    vertex 0.2601608324359393 0.8246932292153027 0
    vertex 0.3133176815799774 0.7523710733550598 0
  endloop
endfacet
facet normal 0 0 1
  outer loop
    vertex 0.4999999999999999 0.8247595264191637 0
    vertex 0.6250000000000007 0.8247595264191652 0
    vertex 0.5625000000000009 0.8917468245269455 0
  endloop
endfacet
facet normal 0 -0 1
  outer loop
    vertex 0.5624999999999973 0.757772228311381 0
    vertex 0.6250000000000007 0.8247595264191652 0
    vertex 0.4999999999999999 0.8247595264191637 0
  endloop
endfacet
facet normal -0 0 1
  outer loop
    vertex 0.4375000000000012 0.8917468245269454 0
    vertex 0.4999999999999999 0.8247595264191637 0
    vertex 0.5625000000000009 0.8917468245269455 0
  endloop
endfacet
facet normal -0 0 1
  outer loop
    vertex 0.3125000000000009 0.891746824526945 0
    vertex 0.3750000000000013 0.8247595264191645 0
    vertex 0.4375000000000012 0.8917468245269454 0
  endloop
endfacet
facet normal 0 0 1
  outer loop
    vertex 0.685881360403847 0.7503445567222475 0
    vertex 0.6250000000000007 0.8247595264191652 0
    vertex 0.5624999999999973 0.757772228311381 0
  endloop
endfacet
facet normal 0 0 1
  outer loop
    vertex 0.4374999999999979 0.7577722283113806 0
    vertex 0.3750000000000013 0.8247595264191645 0
    vertex 0.3133176815799774 0.7523710733550598 0
  endloop
endfacet
facet normal -0 0 1
  outer loop
    vertex 0.5625000000000009 0.8917468245269455 0
    vertex 0.6250000000000007 0.8247595264191652 0
    vertex 0.6871891340151978 0.8955068139135627 0
  endloop
endfacet
facet normal 0 0 1
  outer loop
    vertex 0.5624999999999973 0.757772228311381 0
    vertex 0.4999999999999999 0.8247595264191637 0
    vertex 0.4374999999999979 0.7577722283113806 0
  endloop
endfacet
facet normal 0 -0 1
  outer loop
    vertex 0.4374999999999979 0.7577722283113806 0
    vertex 0.4999999999999999 0.8247595264191637 0
    vertex 0.3750000000000013 0.8247595264191645 0
  endloop
endfacet
facet normal -0 0 1
  outer loop
    vertex 0.3750000000000013 0.8247595264191645 0
    vertex 0.4999999999999999 0.8247595264191637 0
    vertex 0.4375000000000012 0.8917468245269454 0
  endloop
endfacet
facet normal 0 0 1
  outer loop
    vertex 0.3125000000000009 0.891746824526945 0
    vertex 0.2601608324359393 0.8246932292153027 0
    vertex 0.3750000000000013 0.8247595264191645 0
  endloop
endfacet
facet normal -0 0 1
  outer loop
    vertex 0.1875000000000007 0.8917468245269449 0
    vertex 0.2601608324359393 0.8246932292153027 0
    vertex 0.3125000000000009 0.891746824526945 0
  endloop
endfacet
facet normal -0 0 1
  outer loop
    vertex 0.8119703288398898 0.1058465056319792 0
    vertex 0.90849364905389 0.09150635094610993 0
    vertex 0.8959004857786097 0.1879321779033213 0
  endloop
endfacet
facet normal 0 -0 1
  outer loop
    vertex 0.879230463236312 0.8130906423764597 0
    vertex 0.9084936490538901 0.90849364905389 0
    vertex 0.8081462788186125 0.9070743513265296 0
  endloop
endfacet
facet normal 0 0 1
  outer loop
    vertex 0.1875000000000007 0.8917468245269449 0
    vertex 0.09150635094611009 0.9084936490538901 0
    vertex 0.103415783057214 0.8066379931605242 0
  endloop
endfacet
facet normal 0 -0 1
  outer loop
    vertex 0.685881360403847 0.7503445567222475 0
    vertex 0.7489644266062752 0.8253550026152658 0
    vertex 0.6250000000000007 0.8247595264191652 0
  endloop
endfacet
facet normal 0 0 1
  outer loop
    vertex 0.6250000000000007 0.8247595264191652 0
    vertex 0.7489644266062752 0.8253550026152658 0
    vertex 0.6871891340151978 0.8955068139135627 0
  endloop
endfacet
facet normal 0 0 1
  outer loop
    vertex 0.1094851921887064 0.2033420655976694 0
    vertex 0.09150635094610993 0.09150635094611009 0
    vertex 0.1911333561284869 0.1028269135594175 0
  endloop
endfacet
facet normal -0 0 1
  outer loop
    vertex 0.6871891340151978 0.8955068139135627 0
    vertex 0.7489644266062752 0.8253550026152658 0
    vertex 0.8081462788186125 0.9070743513265296 0
  endloop
endfacet
facet normal 0 0 1
  outer loop
    vertex 0.3133176815799774 0.7523710733550598 0
    vertex 0.2601608324359393 0.8246932292153027 0
    vertex 0.2010889394410991 0.7499266504670595 0
  endloop
endfacet
facet normal 0 0 1
  outer loop
    vertex 0.7923273839860845 0.7437108155792401 0
    vertex 0.7489644266062752 0.8253550026152658 0
    vertex 0.685881360403847 0.7503445567222475 0
  endloop
endfacet
endsolid square
