solid Visualization Toolkit generated SLA File
 facet normal 0.82542991988569003 0.27605052872414426 0.49240385147622845
  outer loop
   vertex 3.0509922504425049 3.434272289276123 -0.94721639156341553
   vertex 1.3897864818572998 3.612332820892334 1.737683892250061
   vertex 2.1141219139099121 1.7562119960784912 1.5640357732772827
  endloop
 endfacet
 facet normal 0.27748090637749795 0.018420547948019277 0.96055454296422793
  outer loop
   vertex 3.0103967189788818 3.2103228569030762 1.2772382497787476
   vertex 1.3897864818572998 3.612332820892334 1.737683892250061
   vertex 2.1141219139099121 1.7562119960784912 1.5640357732772827
  endloop
 endfacet
 facet normal -0.84731856218248724 0.52973319074702907 0.037868203046542599
  outer loop
   vertex 3.0103967189788818 3.2103228569030762 1.2772382497787476
   vertex 3.0509922504425049 3.434272289276123 -0.94721639156341553
   vertex 2.1141219139099121 1.7562119960784912 1.5640357732772827
  endloop
 endfacet
 facet normal 0.26655822291611597 0.9584742323714075 0.10136004970324117
  outer loop
   vertex 3.0103967189788818 3.2103228569030762 1.2772382497787476
   vertex 3.0509922504425049 3.434272289276123 -0.94721639156341553
   vertex 1.3897864818572998 3.612332820892334 1.737683892250061
  endloop
 endfacet
endsolid
