solid Visualization Toolkit generated SLA File
 facet normal 0.70710678118654746 -0 0.70710678118654746
  outer loop
   vertex 0 0 5
   vertex 5 -5 0
   vertex 5 5 0
  endloop
 endfacet
 facet normal 0 -0.70710678118654746 0.70710678118654746
  outer loop
   vertex 0 0 5
   vertex -5 -5 0
   vertex 5 -5 0
  endloop
 endfacet
 facet normal -0.70710678118654746 0 0.70710678118654746
  outer loop
   vertex 0 0 5
   vertex -5 5 0
   vertex -5 -5 0
  endloop
 endfacet
 facet normal 0 0.70710678118654746 0.70710678118654746
  outer loop
   vertex 0 0 5
   vertex 5 5 0
   vertex -5 5 0
  endloop
 endfacet
 facet normal -0 -0 -1
  outer loop
   vertex -5 5 0
   vertex 5 5 0
   vertex 5 -5 0
  endloop
 endfacet
 facet normal 0 0 -1
  outer loop
   vertex -5 5 0
   vertex 5 -5 0
   vertex -5 -5 0
  endloop
 endfacet
endsolid
