solid newmesh.stl
facet normal 7439498463348596307048004054941696.000000 3321323491275465474913887217254400.000000 -28199964609911141317133325041664.000000
  outer loop
    vertex 0.000000 56794384074539008.000000 -73883101167616000.000000
    vertex 25635555983228928.000000 0.000000 -12922850902016.000000
    vertex 70601668844060672.000000 -100720367525429248.000000 0.000000
  endloop
endfacet
facet normal -7617547665378894695845920394706944.000000 -3400003555837336210390719580340224.000000 6333629295094416112156767797903360.000000
  outer loop
    vertex -13971022881488896.000000 229568853829484544.000000 75588271903604736.000000
    vertex 25635555983228928.000000 0.000000 -12922850902016.000000
    vertex 70601668844060672.000000 -100720367525429248.000000 0.000000
  endloop
endfacet
facet normal -36309063602569160529493990490243072.000000 -11585150443048695618418713129123840.000000 9997523291166177550367458789949440.000000
  outer loop
    vertex -13971022881488896.000000 229568853829484544.000000 75588271903604736.000000
    vertex 0.000000 56794384074539008.000000 -73883101167616000.000000
    vertex 70601668844060672.000000 -100720367525429248.000000 0.000000
  endloop
endfacet
facet normal -21252016235901630241219791141470208.000000 -4863823705420903754459175056310272.000000 3635694031461850296893557667004416.000000
  outer loop
    vertex -13971022881488896.000000 229568853829484544.000000 75588271903604736.000000
    vertex 0.000000 56794384074539008.000000 -73883101167616000.000000
    vertex 25635555983228928.000000 0.000000 -12922850902016.000000
  endloop
endfacet
endsolid newmesh.stl
