solid Visualization Toolkit generated SLA File
 facet normal 0.70710678118654746 -0 0.70710678118654746
  outer loop
   vertex 0 0 10
   vertex 10 -10 0
   vertex 10 10 0
  endloop
 endfacet
 facet normal 0 -0.70710678118654746 0.70710678118654746
  outer loop
   vertex 0 0 10
   vertex -10 -10 0
   vertex 10 -10 0
  endloop
 endfacet
 facet normal -0.70710678118654746 0 0.70710678118654746
  outer loop
   vertex 0 0 10
   vertex -10 10 0
   vertex -10 -10 0
  endloop
 endfacet
 facet normal 0 0.70710678118654746 0.70710678118654746
  outer loop
   vertex 0 0 10
   vertex 10 10 0
   vertex -10 10 0
  endloop
 endfacet
 facet normal -0 -0 -1
  outer loop
   vertex -10 10 0
   vertex 10 10 0
   vertex 10 -10 0
  endloop
 endfacet
 facet normal 0 0 -1
  outer loop
   vertex -10 10 0
   vertex 10 -10 0
   vertex -10 -10 0
  endloop
 endfacet
endsolid
