solid Visualization Toolkit generated SLA File
 facet normal 0.85355339496137927 -0.14644662347014542 0.4999999884240971
  outer loop
   vertex 3.2677669525146484 2.2677669525146484 1.0857864618301392
   vertex 1.621320366859436 1.621320366859436 3.7071068286895752
   vertex 1.9142135381698608 -0.085786439478397369 2.7071068286895752
  endloop
 endfacet
 facet normal 0.53983461263604771 -0.35459261243096413 0.76344133383611901
  outer loop
   vertex 3.6213202476501465 1.621320366859436 2.2928931713104248
   vertex 1.621320366859436 1.621320366859436 3.7071068286895752
   vertex 1.9142135381698608 -0.085786439478397369 2.7071068286895752
  endloop
 endfacet
 facet normal -0.54057765796448687 0.66546773758294864 0.51471204177273921
  outer loop
   vertex 3.6213202476501465 1.621320366859436 2.2928931713104248
   vertex 3.2677669525146484 2.2677669525146484 1.0857864618301392
   vertex 1.9142135381698608 -0.085786439478397369 2.7071068286895752
  endloop
 endfacet
 facet normal 0.275645800597352 0.8786684336947882 0.38982198019274455
  outer loop
   vertex 3.6213202476501465 1.621320366859436 2.2928931713104248
   vertex 3.2677669525146484 2.2677669525146484 1.0857864618301392
   vertex 1.621320366859436 1.621320366859436 3.7071068286895752
  endloop
 endfacet
endsolid
