solid Created by Gmsh
facet normal -0 0 1
  outer loop
    vertex -0.4097603375960761 0.3624758528271287 0
    vertex 0.04151750358605667 0.1826818465757722 0
    vertex 1.713906794265085e-15 0.5895103488218096 0
  endloop
endfacet
facet normal 0 -0 1
  outer loop
    vertex -0.02587283300265666 -0.6183255765964899 0
    vertex 0.1069963661892989 -0.2457920721829816 0
    vertex -0.4056345809298747 -0.3880680022346014 0
  endloop
endfacet
facet normal 0 0 1
  outer loop
    vertex -0.4056345809298747 -0.3880680022346014 0
    vertex 0.1069963661892989 -0.2457920721829816 0
    vertex -0.2970831192908765 -0.007045728644377844 0
  endloop
endfacet
facet normal 0 0 1
  outer loop
    vertex -0.9009688679024177 0.433883739117561 0
    vertex -0.646777647660214 -0.0075911160237771 0
    vertex -0.4097603375960761 0.3624758528271287 0
  endloop
endfacet
facet normal 0 0 1
  outer loop
    vertex -0.4097603375960761 0.3624758528271287 0
    vertex -0.2970831192908765 -0.007045728644377844 0
    vertex 0.04151750358605667 0.1826818465757722 0
  endloop
endfacet
facet normal -0 0 1
  outer loop
    vertex -1 2.342910729165048e-15 0
    vertex -0.646777647660214 -0.0075911160237771 0
    vertex -0.9009688679024177 0.433883739117561 0
  endloop
endfacet
facet normal 0 0 1
  outer loop
    vertex 1.713906794265085e-15 0.5895103488218096 0
    vertex 0.04151750358605667 0.1826818465757722 0
    vertex 0.4608977499496387 0.3675536905805823 0
  endloop
endfacet
facet normal 0 0 1
  outer loop
    vertex 0.4608977499496387 0.3675536905805823 0
    vertex 0.3261440805391161 0.6758386707251343 0
    vertex 1.713906794265085e-15 0.5895103488218096 0
  endloop
endfacet
facet normal 0 0 1
  outer loop
    vertex 1.713906794265085e-15 0.5895103488218096 0
    vertex -0.3144272781619066 0.677527969127056 0
    vertex -0.4097603375960761 0.3624758528271287 0
  endloop
endfacet
facet normal 0 0 1
  outer loop
    vertex -0.4056345809298747 -0.3880680022346014 0
    vertex -0.320013145093902 -0.6830897008421657 0
    vertex -0.02587283300265666 -0.6183255765964899 0
  endloop
endfacet
facet normal -0 0 1
  outer loop
    vertex -0.9009688679024177 0.433883739117561 0
    vertex -0.4097603375960761 0.3624758528271287 0
    vertex -0.6234898018587307 0.781831482468032 0
  endloop
endfacet
facet normal 0 0 1
  outer loop
    vertex 0.2225209339563125 -0.9749279121818241 0
    vertex -0.02587283300265666 -0.6183255765964899 0
    vertex -0.2225209339563172 -0.974927912181823 0
  endloop
endfacet
facet normal 0 0 1
  outer loop
    vertex 0.9009688679024186 -0.4338837391175591 0
    vertex 0.5135837287157777 -0.3734059417388124 0
    vertex 0.6234898018587319 -0.781831482468031 0
  endloop
endfacet
facet normal 0 0 1
  outer loop
    vertex -0.2225209339563106 0.9749279121818245 0
    vertex 1.713906794265085e-15 0.5895103488218096 0
    vertex 0.2225209339563168 0.9749279121818231 0
  endloop
endfacet
facet normal 0 -0 1
  outer loop
    vertex -0.6234898018587365 -0.7818314824680275 0
    vertex -0.4056345809298747 -0.3880680022346014 0
    vertex -0.9009688679024199 -0.4338837391175564 0
  endloop
endfacet
facet normal 0 0 1
  outer loop
    vertex 0.6234898018587344 0.7818314824680291 0
    vertex 0.4608977499496387 0.3675536905805823 0
    vertex 0.9009688679024195 0.4338837391175574 0
  endloop
endfacet
facet normal -0 0 1
  outer loop
    vertex -0.2970831192908765 -0.007045728644377844 0
    vertex 0.1069963661892989 -0.2457920721829816 0
    vertex 0.04151750358605667 0.1826818465757722 0
  endloop
endfacet
facet normal 0 0 1
  outer loop
    vertex -0.4097603375960761 0.3624758528271287 0
    vertex -0.646777647660214 -0.0075911160237771 0
    vertex -0.2970831192908765 -0.007045728644377844 0
  endloop
endfacet
facet normal 0 -0 1
  outer loop
    vertex -0.9009688679024199 -0.4338837391175564 0
    vertex -0.646777647660214 -0.0075911160237771 0
    vertex -1 2.342910729165048e-15 0
  endloop
endfacet
facet normal 0 0 1
  outer loop
    vertex -0.4056345809298747 -0.3880680022346014 0
    vertex -0.646777647660214 -0.0075911160237771 0
    vertex -0.9009688679024199 -0.4338837391175564 0
  endloop
endfacet
facet normal -0 0 1
  outer loop
    vertex 0.04151750358605667 0.1826818465757722 0
    vertex 0.4227666746245958 -0.004980935514440232 0
    vertex 0.4608977499496387 0.3675536905805823 0
  endloop
endfacet
facet normal -0 0 1
  outer loop
    vertex -0.02587283300265666 -0.6183255765964899 0
    vertex 0.3165923818846963 -0.6632346090161899 0
    vertex 0.1069963661892989 -0.2457920721829816 0
  endloop
endfacet
facet normal 0 0 1
  outer loop
    vertex 0.1069963661892989 -0.2457920721829816 0
    vertex 0.3165923818846963 -0.6632346090161899 0
    vertex 0.5135837287157777 -0.3734059417388124 0
  endloop
endfacet
facet normal 0 0 1
  outer loop
    vertex 0.9009688679024186 -0.4338837391175591 0
    vertex 0.7123315549710021 -0.1455590289372988 0
    vertex 0.5135837287157777 -0.3734059417388124 0
  endloop
endfacet
facet normal 0 0 1
  outer loop
    vertex 1 0 0
    vertex 0.7123315549710021 -0.1455590289372988 0
    vertex 0.9009688679024186 -0.4338837391175591 0
  endloop
endfacet
facet normal -0 0 1
  outer loop
    vertex 0.4608977499496387 0.3675536905805823 0
    vertex 0.7173807906469835 0.1589054736215522 0
    vertex 0.9009688679024195 0.4338837391175574 0
  endloop
endfacet
facet normal 0 0 1
  outer loop
    vertex 0.2225209339563168 0.9749279121818231 0
    vertex 0.3261440805391161 0.6758386707251343 0
    vertex 0.6234898018587344 0.7818314824680291 0
  endloop
endfacet
facet normal 0 0 1
  outer loop
    vertex 0.5135837287157777 -0.3734059417388124 0
    vertex 0.3165923818846963 -0.6632346090161899 0
    vertex 0.6234898018587319 -0.781831482468031 0
  endloop
endfacet
facet normal -0 0 1
  outer loop
    vertex -0.6234898018587307 0.781831482468032 0
    vertex -0.3144272781619066 0.677527969127056 0
    vertex -0.2225209339563106 0.9749279121818245 0
  endloop
endfacet
facet normal 0 0 1
  outer loop
    vertex -0.6234898018587365 -0.7818314824680275 0
    vertex -0.320013145093902 -0.6830897008421657 0
    vertex -0.4056345809298747 -0.3880680022346014 0
  endloop
endfacet
facet normal 0 0 1
  outer loop
    vertex 0.9009688679024195 0.4338837391175574 0
    vertex 0.7173807906469835 0.1589054736215522 0
    vertex 1 0 0
  endloop
endfacet
facet normal 0 0 1
  outer loop
    vertex 1.713906794265085e-15 0.5895103488218096 0
    vertex 0.3261440805391161 0.6758386707251343 0
    vertex 0.2225209339563168 0.9749279121818231 0
  endloop
endfacet
facet normal 0 0 1
  outer loop
    vertex 0.6234898018587344 0.7818314824680291 0
    vertex 0.3261440805391161 0.6758386707251343 0
    vertex 0.4608977499496387 0.3675536905805823 0
  endloop
endfacet
facet normal 0 0 1
  outer loop
    vertex 0.6234898018587319 -0.781831482468031 0
    vertex 0.3165923818846963 -0.6632346090161899 0
    vertex 0.2225209339563125 -0.9749279121818241 0
  endloop
endfacet
facet normal 0 -0 1
  outer loop
    vertex -0.4097603375960761 0.3624758528271287 0
    vertex -0.3144272781619066 0.677527969127056 0
    vertex -0.6234898018587307 0.781831482468032 0
  endloop
endfacet
facet normal 0 0 1
  outer loop
    vertex -0.2225209339563106 0.9749279121818245 0
    vertex -0.3144272781619066 0.677527969127056 0
    vertex 1.713906794265085e-15 0.5895103488218096 0
  endloop
endfacet
facet normal 0 0 1
  outer loop
    vertex -0.2225209339563172 -0.974927912181823 0
    vertex -0.320013145093902 -0.6830897008421657 0
    vertex -0.6234898018587365 -0.7818314824680275 0
  endloop
endfacet
facet normal 0 0 1
  outer loop
    vertex -0.02587283300265666 -0.6183255765964899 0
    vertex -0.320013145093902 -0.6830897008421657 0
    vertex -0.2225209339563172 -0.974927912181823 0
  endloop
endfacet
facet normal 0 -0 1
  outer loop
    vertex 0.2225209339563125 -0.9749279121818241 0
    vertex 0.3165923818846963 -0.6632346090161899 0
    vertex -0.02587283300265666 -0.6183255765964899 0
  endloop
endfacet
facet normal 0 0 1
  outer loop
    vertex 0.04151750358605667 0.1826818465757722 0
    vertex 0.1069963661892989 -0.2457920721829816 0
    vertex 0.4227666746245958 -0.004980935514440232 0
  endloop
endfacet
facet normal 0 0 1
  outer loop
    vertex 0.4227666746245958 -0.004980935514440232 0
    vertex 0.1069963661892989 -0.2457920721829816 0
    vertex 0.5135837287157777 -0.3734059417388124 0
  endloop
endfacet
facet normal 0 0 1
  outer loop
    vertex -0.2970831192908765 -0.007045728644377844 0
    vertex -0.646777647660214 -0.0075911160237771 0
    vertex -0.4056345809298747 -0.3880680022346014 0
  endloop
endfacet
facet normal 0 0 1
  outer loop
    vertex 0.4227666746245958 -0.004980935514440232 0
    vertex 0.7173807906469835 0.1589054736215522 0
    vertex 0.4608977499496387 0.3675536905805823 0
  endloop
endfacet
facet normal 0 -0 1
  outer loop
    vertex 0.5135837287157777 -0.3734059417388124 0
    vertex 0.7123315549710021 -0.1455590289372988 0
    vertex 0.4227666746245958 -0.004980935514440232 0
  endloop
endfacet
facet normal 0 -0 1
  outer loop
    vertex 0.7123315549710021 -0.1455590289372988 0
    vertex 0.7173807906469835 0.1589054736215522 0
    vertex 0.4227666746245958 -0.004980935514440232 0
  endloop
endfacet
facet normal 0 0 1
  outer loop
    vertex 1 0 0
    vertex 0.7173807906469835 0.1589054736215522 0
    vertex 0.7123315549710021 -0.1455590289372988 0
  endloop
endfacet
facet normal 0.660827 0.749467 0.0400807
  outer loop
    vertex 0.8170283700099461 0.5765974701634501 0.7388290173283949
    vertex 0.7679974866952768 0.6404528557432921 0.3531935023960316
    vertex 0.47700233174725 0.8789020283897896 0.6922032807106875
  endloop
endfacet
facet normal -0.999905 -0.0129093 -0.00479152
  outer loop
    vertex -0.9754012433106607 -0.2204368720246621 0.253380712184666
    vertex -0.9772499964605454 -0.2120906514155299 0.6166962784487505
    vertex -0.9809497896646548 0.194261447942893 0.2939848940957848
  endloop
endfacet
facet normal -0.997634 0.0369526 0.0579676
  outer loop
    vertex -0.9772499964605454 -0.2120906514155299 0.6166962784487505
    vertex -0.9555728057861306 0.2947551744109373 0.6666666666666746
    vertex -0.9809497896646548 0.194261447942893 0.2939848940957848
  endloop
endfacet
facet normal -0.590449 0.803733 -0.0733651
  outer loop
    vertex -0.3653410243663618 0.9308737486442172 0.3333333333333695
    vertex -0.7683291217331198 0.6400549669339444 0.3906277035283319
    vertex -0.4861251305166632 0.8738892135048683 0.6811355535308554
  endloop
endfacet
facet normal -0.64239 0.766344 0.00718536
  outer loop
    vertex -0.4861251305166632 0.8738892135048683 0.6811355535308554
    vertex -0.7683291217331198 0.6400549669339444 0.3906277035283319
    vertex -0.7771560258952968 0.629307962300358 0.7476859847451724
  endloop
endfacet
facet normal 0.584667 0.808517 -0.0668268
  outer loop
    vertex 0.7679974866952768 0.6404528557432921 0.3531935023960316
    vertex 0.3622126593729355 0.9320954829790701 0.3314812593443685
    vertex 0.47700233174725 0.8789020283897896 0.6922032807106875
  endloop
endfacet
facet normal 0.886665 -0.462248 -0.0123077
  outer loop
    vertex 0.9545774924824272 -0.2979627675498429 0.5168746809598315
    vertex 0.7839152229433717 -0.6208678790512873 0.349663238676471
    vertex 0.9598747160290723 -0.2804291880816043 0.2399742505939271
  endloop
endfacet
facet normal 0.882609 0.46969 -0.0198031
  outer loop
    vertex 0.7679974866952768 0.6404528557432921 0.3531935023960316
    vertex 0.9556335509759559 0.2945581712482021 0.5120533435427438
    vertex 0.9636707723614861 0.2670929472977839 0.2188447875150631
  endloop
endfacet
facet normal 0.894732 -0.442124 0.0630938
  outer loop
    vertex 0.7839152229433717 -0.6208678790512873 0.349663238676471
    vertex 0.9009688679024186 -0.4338837391175591 0
    vertex 0.9598747160290723 -0.2804291880816043 0.2399742505939271
  endloop
endfacet
facet normal 0.894386 0.440218 0.0792551
  outer loop
    vertex 0.9009688679024195 0.4338837391175574 0
    vertex 0.7679974866952768 0.6404528557432921 0.3531935023960316
    vertex 0.9636707723614861 0.2670929472977839 0.2188447875150631
  endloop
endfacet
facet normal 0.969084 -0.221187 0.10933
  outer loop
    vertex 1 0 1
    vertex 0.9009688679024186 -0.4338837391175591 1
    vertex 0.9629390763429437 -0.269718993123952 0.7828302634139264
  endloop
endfacet
facet normal 0.970372 -0.221481 -0.0965658
  outer loop
    vertex 0.9009688679024186 -0.4338837391175591 0
    vertex 1 0 0
    vertex 0.9598747160290723 -0.2804291880816043 0.2399742505939271
  endloop
endfacet
facet normal 0.96911 0.221193 -0.109082
  outer loop
    vertex 1 0 0
    vertex 0.9009688679024195 0.4338837391175574 0
    vertex 0.9636707723614861 0.2670929472977839 0.2188447875150631
  endloop
endfacet
facet normal 0.969032 0.221175 0.109808
  outer loop
    vertex 0.9009688679024195 0.4338837391175574 1
    vertex 1 0 1
    vertex 0.9631091241474731 0.2691111573010071 0.7835098055075611
  endloop
endfacet
facet normal 0.901906 -0.431578 0.0174767
  outer loop
    vertex 0.8172639885643986 -0.5762634579737036 0.7306099694431332
    vertex 0.9545774924824272 -0.2979627675498429 0.5168746809598315
    vertex 0.9629390763429437 -0.269718993123952 0.7828302634139264
  endloop
endfacet
facet normal 0.902263 0.430907 0.0155471
  outer loop
    vertex 0.9556335509759559 0.2945581712482021 0.5120533435427438
    vertex 0.8170283700099461 0.5765974701634501 0.7388290173283949
    vertex 0.9631091241474731 0.2691111573010071 0.7835098055075611
  endloop
endfacet
facet normal -0.896187 0.439922 -0.0576012
  outer loop
    vertex -0.9555728057861306 0.2947551744109373 0.6666666666666746
    vertex -0.7683291217331198 0.6400549669339444 0.3906277035283319
    vertex -0.9809497896646548 0.194261447942893 0.2939848940957848
  endloop
endfacet
facet normal -0.881576 0.471981 -0.00758756
  outer loop
    vertex -0.7683291217331198 0.6400549669339444 0.3906277035283319
    vertex -0.9555728057861306 0.2947551744109373 0.6666666666666746
    vertex -0.7771560258952968 0.629307962300358 0.7476859847451724
  endloop
endfacet
facet normal -0.186174 0.982517 3.45981e-05
  outer loop
    vertex -0.3653410243663618 0.9308737486442172 0.3333333333333695
    vertex -0.0004797812438039472 0.9999998849049724 0.6284583596251524
    vertex -0.0005483214150509136 0.9999998496718016 0.2606407289866431
  endloop
endfacet
facet normal -0.248358 -0.968668 0
  outer loop
    vertex -0.05314617673384382 -0.9985867433020403 0.3667838762085608
    vertex -0.4338837391175615 -0.9009688679024175 0.6153987928272745
    vertex -0.4338837391175615 -0.9009688679024175 0.265606075301805
  endloop
endfacet
facet normal 0.183998 0.982927 -3.43809e-05
  outer loop
    vertex -0.0004797812438039472 0.9999998849049724 0.6284583596251524
    vertex 0.3622126593729355 0.9320954829790701 0.3314812593443685
    vertex -0.0005483214150509136 0.9999998496718016 0.2606407289866431
  endloop
endfacet
facet normal -0.62349 -0.781831 -0
  outer loop
    vertex -0.4338837391175615 -0.9009688679024175 0.6153987928272745
    vertex -0.7818314824680316 -0.6234898018587314 0.3846012071728425
    vertex -0.4338837391175615 -0.9009688679024175 0.265606075301805
  endloop
endfacet
facet normal -0.62349 -0.781831 0
  outer loop
    vertex -0.7818314824680316 -0.6234898018587314 0.3846012071728425
    vertex -0.4338837391175615 -0.9009688679024175 0.6153987928272745
    vertex -0.7818314824680316 -0.6234898018587314 0.7343939246982619
  endloop
endfacet
facet normal 0.236787 0.969209 0.0675723
  outer loop
    vertex 0.3622126593729355 0.9320954829790701 0.3314812593443685
    vertex -0.0004797812438039472 0.9999998849049724 0.6284583596251524
    vertex 0.47700233174725 0.8789020283897896 0.6922032807106875
  endloop
endfacet
facet normal -0.24312 0.967167 0.074032
  outer loop
    vertex -0.0004797812438039472 0.9999998849049724 0.6284583596251524
    vertex -0.3653410243663618 0.9308737486442172 0.3333333333333695
    vertex -0.4861251305166632 0.8738892135048683 0.6811355535308554
  endloop
endfacet
facet normal -0.903274 -0.429064 0
  outer loop
    vertex -0.9772499964605454 -0.2120906514155299 0.6166962784487505
    vertex -0.7818314824680316 -0.6234898018587314 0.3846012071728425
    vertex -0.7818314824680316 -0.6234898018587314 0.7343939246982619
  endloop
endfacet
facet normal -0.902094 -0.431506 0.00532236
  outer loop
    vertex -0.7818314824680316 -0.6234898018587314 0.3846012071728425
    vertex -0.9772499964605454 -0.2120906514155299 0.6166962784487505
    vertex -0.9754012433106607 -0.2204368720246621 0.253380712184666
  endloop
endfacet
facet normal 0.779906 0.621954 -0.0701354
  outer loop
    vertex 0.9009688679024195 0.4338837391175574 0
    vertex 0.6234898018587344 0.7818314824680291 0
    vertex 0.7679974866952768 0.6404528557432921 0.3531935023960316
  endloop
endfacet
facet normal 0.77983 -0.621894 -0.071504
  outer loop
    vertex 0.6234898018587319 -0.781831482468031 0
    vertex 0.9009688679024186 -0.4338837391175591 0
    vertex 0.7839152229433717 -0.6208678790512873 0.349663238676471
  endloop
endfacet
facet normal -0.780255 0.622233 -0.0634713
  outer loop
    vertex -0.6234898018587307 0.781831482468032 0
    vertex -0.9009688679024177 0.433883739117561 0
    vertex -0.7683291217331198 0.6400549669339444 0.3906277035283319
  endloop
endfacet
facet normal 0.188727 -0.978871 0.0787026
  outer loop
    vertex 0.2225209339563125 -0.9749279121818241 0
    vertex 0.4153956981294485 -0.9096408159133736 0.3495051248204203
    vertex -0.05314617673384382 -0.9985867433020403 0.3667838762085608
  endloop
endfacet
facet normal -0.972858 -0.222049 0.065123
  outer loop
    vertex -0.9009688679024199 -0.4338837391175564 1
    vertex -1 2.342910729165048e-15 1
    vertex -0.9772499964605454 -0.2120906514155299 0.6166962784487505
  endloop
endfacet
facet normal -0.432918 0.898964 -0.0666789
  outer loop
    vertex -0.2225209339563106 0.9749279121818245 0
    vertex -0.6234898018587307 0.781831482468032 0
    vertex -0.3653410243663618 0.9308737486442172 0.3333333333333695
  endloop
endfacet
facet normal -2.48947e-15 -0.997926 -0.0643697
  outer loop
    vertex -0.2225209339563172 -0.974927912181823 0
    vertex 0.2225209339563125 -0.9749279121818241 0
    vertex -0.05314617673384382 -0.9985867433020403 0.3667838762085608
  endloop
endfacet
facet normal -0.972758 0.222026 0.0666789
  outer loop
    vertex -1 2.342910729165048e-15 1
    vertex -0.9009688679024177 0.433883739117561 1
    vertex -0.9555728057861306 0.2947551744109373 0.6666666666666746
  endloop
endfacet
facet normal -0.994862 0.0511616 -0.0873564
  outer loop
    vertex -1 2.342910729165048e-15 1
    vertex -0.9555728057861306 0.2947551744109373 0.6666666666666746
    vertex -0.9772499964605454 -0.2120906514155299 0.6166962784487505
  endloop
endfacet
facet normal -0.780175 -0.622169 -0.0650518
  outer loop
    vertex -0.9009688679024199 -0.4338837391175564 0
    vertex -0.6234898018587365 -0.7818314824680275 0
    vertex -0.7818314824680316 -0.6234898018587314 0.3846012071728425
  endloop
endfacet
facet normal 0.43293 0.898988 -0.0662809
  outer loop
    vertex 0.6234898018587344 0.7818314824680291 0
    vertex 0.2225209339563168 0.9749279121818231 0
    vertex 0.3622126593729355 0.9320954829790701 0.3314812593443685
  endloop
endfacet
facet normal 0.43279 -0.898698 -0.0709601
  outer loop
    vertex 0.2225209339563125 -0.9749279121818241 0
    vertex 0.6234898018587319 -0.781831482468031 0
    vertex 0.4153956981294485 -0.9096408159133736 0.3495051248204203
  endloop
endfacet
facet normal -0.432965 -0.899061 0.0650518
  outer loop
    vertex -0.2225209339563172 -0.974927912181823 1
    vertex -0.6234898018587365 -0.7818314824680275 1
    vertex -0.4338837391175615 -0.9009688679024175 0.6153987928272745
  endloop
endfacet
facet normal 3.23568e-15 0.997731 0.0673278
  outer loop
    vertex -0.2225209339563106 0.9749279121818245 1
    vertex 0.2225209339563168 0.9749279121818231 1
    vertex -0.0004797812438039472 0.9999998849049724 0.6284583596251524
  endloop
endfacet
facet normal -0.575538 0.813662 0.0819133
  outer loop
    vertex -0.3653410243663618 0.9308737486442172 0.3333333333333695
    vertex -0.6234898018587307 0.781831482468032 0
    vertex -0.7683291217331198 0.6400549669339444 0.3906277035283319
  endloop
endfacet
facet normal -0.249141 -0.968466 -0.00127778
  outer loop
    vertex -0.4338837391175615 -0.9009688679024175 0.6153987928272745
    vertex -0.05314617673384382 -0.9985867433020403 0.3667838762085608
    vertex -0.05548563080698879 -0.9984594857949673 0.7264779903020832
  endloop
endfacet
facet normal 0.578235 0.811101 0.0880903
  outer loop
    vertex 0.6234898018587344 0.7818314824680291 0
    vertex 0.3622126593729355 0.9320954829790701 0.3314812593443685
    vertex 0.7679974866952768 0.6404528557432921 0.3531935023960316
  endloop
endfacet
facet normal 0.614838 -0.784673 0.079128
  outer loop
    vertex 0.4153956981294485 -0.9096408159133736 0.3495051248204203
    vertex 0.6234898018587319 -0.781831482468031 0
    vertex 0.7839152229433717 -0.6208678790512873 0.349663238676471
  endloop
endfacet
facet normal 0.885227 0.463784 -0.0357548
  outer loop
    vertex 0.9556335509759559 0.2945581712482021 0.5120533435427438
    vertex 0.7679974866952768 0.6404528557432921 0.3531935023960316
    vertex 0.8170283700099461 0.5765974701634501 0.7388290173283949
  endloop
endfacet
facet normal 0.888993 -0.457277 -0.0242822
  outer loop
    vertex 0.7839152229433717 -0.6208678790512873 0.349663238676471
    vertex 0.9545774924824272 -0.2979627675498429 0.5168746809598315
    vertex 0.8172639885643986 -0.5762634579737036 0.7306099694431332
  endloop
endfacet
facet normal -2.48547e-15 -0.99632 0.0857151
  outer loop
    vertex 0.2225209339563125 -0.9749279121818241 1
    vertex -0.2225209339563172 -0.974927912181823 1
    vertex -0.05548563080698879 -0.9984594857949673 0.7264779903020832
  endloop
endfacet
facet normal -0.906372 0.412807 0.0898864
  outer loop
    vertex -0.7683291217331198 0.6400549669339444 0.3906277035283319
    vertex -0.9009688679024177 0.433883739117561 0
    vertex -0.9809497896646548 0.194261447942893 0.2939848940957848
  endloop
endfacet
facet normal -0.175353 0.98298 0.0547815
  outer loop
    vertex -0.2225209339563106 0.9749279121818245 0
    vertex -0.3653410243663618 0.9308737486442172 0.3333333333333695
    vertex -0.0005483214150509136 0.9999998496718016 0.2606407289866431
  endloop
endfacet
facet normal -0.262647 -0.963076 0.0591643
  outer loop
    vertex -0.2225209339563172 -0.974927912181823 0
    vertex -0.05314617673384382 -0.9985867433020403 0.3667838762085608
    vertex -0.4338837391175615 -0.9009688679024175 0.265606075301805
  endloop
endfacet
facet normal 0.173539 0.983349 0.0539315
  outer loop
    vertex 0.3622126593729355 0.9320954829790701 0.3314812593443685
    vertex 0.2225209339563168 0.9749279121818231 0
    vertex -0.0005483214150509136 0.9999998496718016 0.2606407289866431
  endloop
endfacet
facet normal -0.605442 -0.792168 0.0768757
  outer loop
    vertex -0.7818314824680316 -0.6234898018587314 0.3846012071728425
    vertex -0.6234898018587365 -0.7818314824680275 0
    vertex -0.4338837391175615 -0.9009688679024175 0.265606075301805
  endloop
endfacet
facet normal -0.891127 -0.446467 -0.0809986
  outer loop
    vertex -0.9009688679024199 -0.4338837391175564 1
    vertex -0.9772499964605454 -0.2120906514155299 0.6166962784487505
    vertex -0.7818314824680316 -0.6234898018587314 0.7343939246982619
  endloop
endfacet
facet normal -0.908409 -0.410553 0.0789965
  outer loop
    vertex -0.9009688679024199 -0.4338837391175564 0
    vertex -0.7818314824680316 -0.6234898018587314 0.3846012071728425
    vertex -0.9754012433106607 -0.2204368720246621 0.253380712184666
  endloop
endfacet
facet normal -0.8751 0.480548 -0.0572221
  outer loop
    vertex -0.9555728057861306 0.2947551744109373 0.6666666666666746
    vertex -0.9009688679024177 0.433883739117561 1
    vertex -0.7771560258952968 0.629307962300358 0.7476859847451724
  endloop
endfacet
facet normal -0.637583 -0.766536 -0.0768757
  outer loop
    vertex -0.4338837391175615 -0.9009688679024175 0.6153987928272745
    vertex -0.6234898018587365 -0.7818314824680275 1
    vertex -0.7818314824680316 -0.6234898018587314 0.7343939246982619
  endloop
endfacet
facet normal -0.259469 0.961532 -0.090179
  outer loop
    vertex -0.2225209339563106 0.9749279121818245 1
    vertex -0.0004797812438039472 0.9999998849049724 0.6284583596251524
    vertex -0.4861251305166632 0.8738892135048683 0.6811355535308554
  endloop
endfacet
facet normal 0.255973 0.962608 -0.0886783
  outer loop
    vertex -0.0004797812438039472 0.9999998849049724 0.6284583596251524
    vertex 0.2225209339563168 0.9749279121818231 1
    vertex 0.47700233174725 0.8789020283897896 0.6922032807106875
  endloop
endfacet
facet normal 0.433201 -0.899551 0.0560882
  outer loop
    vertex 0.6234898018587319 -0.781831482468031 1
    vertex 0.2225209339563125 -0.9749279121818241 1
    vertex 0.5379428413542766 -0.8429813161842246 0.6799976025691008
  endloop
endfacet
facet normal 0.90549 -0.420209 -0.0592626
  outer loop
    vertex 0.9009688679024186 -0.4338837391175591 1
    vertex 0.8172639885643986 -0.5762634579737036 0.7306099694431332
    vertex 0.9629390763429437 -0.269718993123952 0.7828302634139264
  endloop
endfacet
facet normal 0.904974 0.421108 -0.0607498
  outer loop
    vertex 0.8170283700099461 0.5765974701634501 0.7388290173283949
    vertex 0.9009688679024195 0.4338837391175574 1
    vertex 0.9631091241474731 0.2691111573010071 0.7835098055075611
  endloop
endfacet
facet normal 0.988579 -0.150703 0
  outer loop
    vertex 1 0 0.3333333333333332
    vertex 1 0 0.6666666666666665
    vertex 0.9545774924824272 -0.2979627675498429 0.5168746809598315
  endloop
endfacet
facet normal 0.988846 0.14894 0
  outer loop
    vertex 1 0 0.6666666666666665
    vertex 1 0 0.3333333333333332
    vertex 0.9556335509759559 0.2945581712482021 0.5120533435427438
  endloop
endfacet
facet normal 0.615308 -0.785192 -0.0697861
  outer loop
    vertex 0.4153956981294485 -0.9096408159133736 0.3495051248204203
    vertex 0.7839152229433717 -0.6208678790512873 0.349663238676471
    vertex 0.5379428413542766 -0.8429813161842246 0.6799976025691008
  endloop
endfacet
facet normal 0.0843423 -0.996437 0
  outer loop
    vertex 0.2225209339563125 -0.9749279121818241 0.6502072824745806
    vertex 0.2225209339563125 -0.9749279121818241 1
    vertex -0.05548563080698879 -0.9984594857949673 0.7264779903020832
  endloop
endfacet
facet normal 0.385913 -0.922535 0
  outer loop
    vertex 0.2225209339563125 -0.9749279121818241 1
    vertex 0.2225209339563125 -0.9749279121818241 0.6502072824745806
    vertex 0.5379428413542766 -0.8429813161842246 0.6799976025691008
  endloop
endfacet
facet normal 0.778916 -0.621165 0.0862771
  outer loop
    vertex 0.9009688679024186 -0.4338837391175591 1
    vertex 0.6234898018587319 -0.781831482468031 1
    vertex 0.8172639885643986 -0.5762634579737036 0.7306099694431332
  endloop
endfacet
facet normal 0.778725 0.621012 0.0890621
  outer loop
    vertex 0.6234898018587344 0.7818314824680291 1
    vertex 0.9009688679024195 0.4338837391175574 1
    vertex 0.8170283700099461 0.5765974701634501 0.7388290173283949
  endloop
endfacet
facet normal 0.66852 0.738802 -0.0851661
  outer loop
    vertex 0.6234898018587344 0.7818314824680291 1
    vertex 0.8170283700099461 0.5765974701634501 0.7388290173283949
    vertex 0.47700233174725 0.8789020283897896 0.6922032807106875
  endloop
endfacet
facet normal 0.688048 -0.725245 0.0246847
  outer loop
    vertex 0.7839152229433717 -0.6208678790512873 0.349663238676471
    vertex 0.8172639885643986 -0.5762634579737036 0.7306099694431332
    vertex 0.5379428413542766 -0.8429813161842246 0.6799976025691008
  endloop
endfacet
facet normal -0.431963 -0.896981 -0.093978
  outer loop
    vertex -0.6234898018587365 -0.7818314824680275 0
    vertex -0.2225209339563172 -0.974927912181823 0
    vertex -0.4338837391175615 -0.9009688679024175 0.265606075301805
  endloop
endfacet
facet normal 3.22814e-15 0.995405 -0.0957515
  outer loop
    vertex 0.2225209339563168 0.9749279121818231 0
    vertex -0.2225209339563106 0.9749279121818245 0
    vertex -0.0005483214150509136 0.9999998496718016 0.2606407289866431
  endloop
endfacet
facet normal -0.970191 -0.22144 -0.0984605
  outer loop
    vertex -1 2.342910729165048e-15 0
    vertex -0.9009688679024199 -0.4338837391175564 0
    vertex -0.9754012433106607 -0.2204368720246621 0.253380712184666
  endloop
endfacet
facet normal -0.432726 0.898565 0.0730046
  outer loop
    vertex -0.6234898018587307 0.781831482468032 1
    vertex -0.2225209339563106 0.9749279121818245 1
    vertex -0.4861251305166632 0.8738892135048683 0.6811355535308554
  endloop
endfacet
facet normal -0.996694 -0.0210192 0.078475
  outer loop
    vertex -1 2.342910729165048e-15 0
    vertex -0.9754012433106607 -0.2204368720246621 0.253380712184666
    vertex -0.9809497896646548 0.194261447942893 0.2939848940957848
  endloop
endfacet
facet normal -0.778371 -0.62073 0.093978
  outer loop
    vertex -0.6234898018587365 -0.7818314824680275 1
    vertex -0.9009688679024199 -0.4338837391175564 1
    vertex -0.7818314824680316 -0.6234898018587314 0.7343939246982619
  endloop
endfacet
facet normal 0.432582 0.898265 0.0774124
  outer loop
    vertex 0.2225209339563168 0.9749279121818231 1
    vertex 0.6234898018587344 0.7818314824680291 1
    vertex 0.47700233174725 0.8789020283897896 0.6922032807106875
  endloop
endfacet
facet normal -0.971517 0.221743 -0.0835703
  outer loop
    vertex -0.9009688679024177 0.433883739117561 0
    vertex -1 2.342910729165048e-15 0
    vertex -0.9809497896646548 0.194261447942893 0.2939848940957848
  endloop
endfacet
facet normal 0.182248 -0.978597 -0.095572
  outer loop
    vertex -0.05314617673384382 -0.9985867433020403 0.3667838762085608
    vertex 0.4153956981294485 -0.9096408159133736 0.3495051248204203
    vertex 0.2225209339563125 -0.9749279121818241 0.6502072824745806
  endloop
endfacet
facet normal -0.650365 0.757121 -0.0615884
  outer loop
    vertex -0.6234898018587307 0.781831482468032 1
    vertex -0.4861251305166632 0.8738892135048683 0.6811355535308554
    vertex -0.7771560258952968 0.629307962300358 0.7476859847451724
  endloop
endfacet
facet normal -0.778008 0.620441 0.0987728
  outer loop
    vertex -0.9009688679024177 0.433883739117561 1
    vertex -0.6234898018587307 0.781831482468032 1
    vertex -0.7771560258952968 0.629307962300358 0.7476859847451724
  endloop
endfacet
facet normal -0.23287 -0.970735 -0.0586959
  outer loop
    vertex -0.2225209339563172 -0.974927912181823 1
    vertex -0.4338837391175615 -0.9009688679024175 0.6153987928272745
    vertex -0.05548563080698879 -0.9984594857949673 0.7264779903020832
  endloop
endfacet
facet normal 0.990734 0.135814 0
  outer loop
    vertex 1 0 1
    vertex 1 0 0.6666666666666665
    vertex 0.9631091241474731 0.2691111573010071 0.7835098055075611
  endloop
endfacet
facet normal 0.990876 0.134776 0
  outer loop
    vertex 1 0 0.3333333333333332
    vertex 1 0 0
    vertex 0.9636707723614861 0.2670929472977839 0.2188447875150631
  endloop
endfacet
facet normal 0.990691 -0.136127 0
  outer loop
    vertex 1 0 0.6666666666666665
    vertex 1 0 1
    vertex 0.9629390763429437 -0.269718993123952 0.7828302634139264
  endloop
endfacet
facet normal 0.989918 -0.141643 0
  outer loop
    vertex 1 0 0
    vertex 1 0 0.3333333333333332
    vertex 0.9598747160290723 -0.2804291880816043 0.2399742505939271
  endloop
endfacet
facet normal 0.989617 -0.142846 -0.0159435
  outer loop
    vertex 0.9545774924824272 -0.2979627675498429 0.5168746809598315
    vertex 1 0 0.6666666666666665
    vertex 0.9629390763429437 -0.269718993123952 0.7828302634139264
  endloop
endfacet
facet normal 0.98941 -0.144819 0.0097578
  outer loop
    vertex 1 0 0.3333333333333332
    vertex 0.9545774924824272 -0.2979627675498429 0.5168746809598315
    vertex 0.9598747160290723 -0.2804291880816043 0.2399742505939271
  endloop
endfacet
facet normal 0.989804 0.141752 -0.0139698
  outer loop
    vertex 1 0 0.6666666666666665
    vertex 0.9556335509759559 0.2945581712482021 0.5120533435427438
    vertex 0.9631091241474731 0.2691111573010071 0.7835098055075611
  endloop
endfacet
facet normal 0.989963 0.140637 0.0139625
  outer loop
    vertex 0.9556335509759559 0.2945581712482021 0.5120533435427438
    vertex 1 0 0.3333333333333332
    vertex 0.9636707723614861 0.2670929472977839 0.2188447875150631
  endloop
endfacet
facet normal 0.0845882 -0.996416 0.000902688
  outer loop
    vertex -0.05314617673384382 -0.9985867433020403 0.3667838762085608
    vertex 0.2225209339563125 -0.9749279121818241 0.6502072824745806
    vertex -0.05548563080698879 -0.9984594857949673 0.7264779903020832
  endloop
endfacet
facet normal 0.381945 -0.92311 0.0445633
  outer loop
    vertex 0.2225209339563125 -0.9749279121818241 0.6502072824745806
    vertex 0.4153956981294485 -0.9096408159133736 0.3495051248204203
    vertex 0.5379428413542766 -0.8429813161842246 0.6799976025691008
  endloop
endfacet
facet normal 0.694367 -0.717989 -0.0484249
  outer loop
    vertex 0.8172639885643986 -0.5762634579737036 0.7306099694431332
    vertex 0.6234898018587319 -0.781831482468031 1
    vertex 0.5379428413542766 -0.8429813161842246 0.6799976025691008
  endloop
endfacet
facet normal -0 0 1
  outer loop
    vertex -0.4097603375960761 0.3624758528271287 1
    vertex 0.04151750358605667 0.1826818465757722 1
    vertex 1.713906794265085e-15 0.5895103488218096 1
  endloop
endfacet
facet normal 0 -0 1
  outer loop
    vertex -0.02587283300265666 -0.6183255765964899 1
    vertex 0.1069963661892989 -0.2457920721829816 1
    vertex -0.4056345809298747 -0.3880680022346014 1
  endloop
endfacet
facet normal 0 0 1
  outer loop
    vertex -0.4056345809298747 -0.3880680022346014 1
    vertex 0.1069963661892989 -0.2457920721829816 1
    vertex -0.2970831192908765 -0.007045728644377844 1
  endloop
endfacet
facet normal 0 0 1
  outer loop
    vertex -0.9009688679024177 0.433883739117561 1
    vertex -0.646777647660214 -0.0075911160237771 1
    vertex -0.4097603375960761 0.3624758528271287 1
  endloop
endfacet
facet normal 0 0 1
  outer loop
    vertex -0.4097603375960761 0.3624758528271287 1
    vertex -0.2970831192908765 -0.007045728644377844 1
    vertex 0.04151750358605667 0.1826818465757722 1
  endloop
endfacet
facet normal -0 0 1
  outer loop
    vertex -1 2.342910729165048e-15 1
    vertex -0.646777647660214 -0.0075911160237771 1
    vertex -0.9009688679024177 0.433883739117561 1
  endloop
endfacet
facet normal 0 0 1
  outer loop
    vertex 1.713906794265085e-15 0.5895103488218096 1
    vertex 0.04151750358605667 0.1826818465757722 1
    vertex 0.4608977499496387 0.3675536905805823 1
  endloop
endfacet
facet normal 0 0 1
  outer loop
    vertex 0.4608977499496387 0.3675536905805823 1
    vertex 0.3261440805391161 0.6758386707251343 1
    vertex 1.713906794265085e-15 0.5895103488218096 1
  endloop
endfacet
facet normal 0 0 1
  outer loop
    vertex 1.713906794265085e-15 0.5895103488218096 1
    vertex -0.3144272781619066 0.677527969127056 1
    vertex -0.4097603375960761 0.3624758528271287 1
  endloop
endfacet
facet normal 0 0 1
  outer loop
    vertex -0.4056345809298747 -0.3880680022346014 1
    vertex -0.320013145093902 -0.6830897008421657 1
    vertex -0.02587283300265666 -0.6183255765964899 1
  endloop
endfacet
facet normal -0 0 1
  outer loop
    vertex -0.9009688679024177 0.433883739117561 1
    vertex -0.4097603375960761 0.3624758528271287 1
    vertex -0.6234898018587307 0.781831482468032 1
  endloop
endfacet
facet normal 0 0 1
  outer loop
    vertex 0.2225209339563125 -0.9749279121818241 1
    vertex -0.02587283300265666 -0.6183255765964899 1
    vertex -0.2225209339563172 -0.974927912181823 1
  endloop
endfacet
facet normal 0 0 1
  outer loop
    vertex 0.9009688679024186 -0.4338837391175591 1
    vertex 0.5135837287157777 -0.3734059417388124 1
    vertex 0.6234898018587319 -0.781831482468031 1
  endloop
endfacet
facet normal 0 0 1
  outer loop
    vertex -0.2225209339563106 0.9749279121818245 1
    vertex 1.713906794265085e-15 0.5895103488218096 1
    vertex 0.2225209339563168 0.9749279121818231 1
  endloop
endfacet
facet normal 0 -0 1
  outer loop
    vertex -0.6234898018587365 -0.7818314824680275 1
    vertex -0.4056345809298747 -0.3880680022346014 1
    vertex -0.9009688679024199 -0.4338837391175564 1
  endloop
endfacet
facet normal 0 0 1
  outer loop
    vertex 0.6234898018587344 0.7818314824680291 1
    vertex 0.4608977499496387 0.3675536905805823 1
    vertex 0.9009688679024195 0.4338837391175574 1
  endloop
endfacet
facet normal -0 0 1
  outer loop
    vertex -0.2970831192908765 -0.007045728644377844 1
    vertex 0.1069963661892989 -0.2457920721829816 1
    vertex 0.04151750358605667 0.1826818465757722 1
  endloop
endfacet
facet normal 0 0 1
  outer loop
    vertex -0.4097603375960761 0.3624758528271287 1
    vertex -0.646777647660214 -0.0075911160237771 1
    vertex -0.2970831192908765 -0.007045728644377844 1
  endloop
endfacet
facet normal 0 -0 1
  outer loop
    vertex -0.9009688679024199 -0.4338837391175564 1
    vertex -0.646777647660214 -0.0075911160237771 1
    vertex -1 2.342910729165048e-15 1
  endloop
endfacet
facet normal 0 0 1
  outer loop
    vertex -0.4056345809298747 -0.3880680022346014 1
    vertex -0.646777647660214 -0.0075911160237771 1
    vertex -0.9009688679024199 -0.4338837391175564 1
  endloop
endfacet
facet normal -0 0 1
  outer loop
    vertex 0.04151750358605667 0.1826818465757722 1
    vertex 0.4227666746245958 -0.004980935514440232 1
    vertex 0.4608977499496387 0.3675536905805823 1
  endloop
endfacet
facet normal -0 0 1
  outer loop
    vertex -0.02587283300265666 -0.6183255765964899 1
    vertex 0.3165923818846963 -0.6632346090161899 1
    vertex 0.1069963661892989 -0.2457920721829816 1
  endloop
endfacet
facet normal 0 0 1
  outer loop
    vertex 0.1069963661892989 -0.2457920721829816 1
    vertex 0.3165923818846963 -0.6632346090161899 1
    vertex 0.5135837287157777 -0.3734059417388124 1
  endloop
endfacet
facet normal 0 0 1
  outer loop
    vertex 0.9009688679024186 -0.4338837391175591 1
    vertex 0.7123315549710021 -0.1455590289372988 1
    vertex 0.5135837287157777 -0.3734059417388124 1
  endloop
endfacet
facet normal 0 0 1
  outer loop
    vertex 1 0 1
    vertex 0.7123315549710021 -0.1455590289372988 1
    vertex 0.9009688679024186 -0.4338837391175591 1
  endloop
endfacet
facet normal -0 0 1
  outer loop
    vertex 0.4608977499496387 0.3675536905805823 1
    vertex 0.7173807906469835 0.1589054736215522 1
    vertex 0.9009688679024195 0.4338837391175574 1
  endloop
endfacet
facet normal 0 0 1
  outer loop
    vertex 0.2225209339563168 0.9749279121818231 1
    vertex 0.3261440805391161 0.6758386707251343 1
    vertex 0.6234898018587344 0.7818314824680291 1
  endloop
endfacet
facet normal 0 0 1
  outer loop
    vertex 0.5135837287157777 -0.3734059417388124 1
    vertex 0.3165923818846963 -0.6632346090161899 1
    vertex 0.6234898018587319 -0.781831482468031 1
  endloop
endfacet
facet normal -0 0 1
  outer loop
    vertex -0.6234898018587307 0.781831482468032 1
    vertex -0.3144272781619066 0.677527969127056 1
    vertex -0.2225209339563106 0.9749279121818245 1
  endloop
endfacet
facet normal 0 0 1
  outer loop
    vertex -0.6234898018587365 -0.7818314824680275 1
    vertex -0.320013145093902 -0.6830897008421657 1
    vertex -0.4056345809298747 -0.3880680022346014 1
  endloop
endfacet
facet normal 0 0 1
  outer loop
    vertex 0.9009688679024195 0.4338837391175574 1
    vertex 0.7173807906469835 0.1589054736215522 1
    vertex 1 0 1
  endloop
endfacet
facet normal 0 0 1
  outer loop
    vertex 1.713906794265085e-15 0.5895103488218096 1
    vertex 0.3261440805391161 0.6758386707251343 1
    vertex 0.2225209339563168 0.9749279121818231 1
  endloop
endfacet
facet normal 0 0 1
  outer loop
    vertex 0.6234898018587344 0.7818314824680291 1
    vertex 0.3261440805391161 0.6758386707251343 1
    vertex 0.4608977499496387 0.3675536905805823 1
  endloop
endfacet
facet normal 0 0 1
  outer loop
    vertex 0.6234898018587319 -0.781831482468031 1
    vertex 0.3165923818846963 -0.6632346090161899 1
    vertex 0.2225209339563125 -0.9749279121818241 1
  endloop
endfacet
facet normal 0 -0 1
  outer loop
    vertex -0.4097603375960761 0.3624758528271287 1
    vertex -0.3144272781619066 0.677527969127056 1
    vertex -0.6234898018587307 0.781831482468032 1
  endloop
endfacet
facet normal 0 0 1
  outer loop
    vertex -0.2225209339563106 0.9749279121818245 1
    vertex -0.3144272781619066 0.677527969127056 1
    vertex 1.713906794265085e-15 0.5895103488218096 1
  endloop
endfacet
facet normal 0 0 1
  outer loop
    vertex -0.2225209339563172 -0.974927912181823 1
    vertex -0.320013145093902 -0.6830897008421657 1
    vertex -0.6234898018587365 -0.7818314824680275 1
  endloop
endfacet
facet normal 0 0 1
  outer loop
    vertex -0.02587283300265666 -0.6183255765964899 1
    vertex -0.320013145093902 -0.6830897008421657 1
    vertex -0.2225209339563172 -0.974927912181823 1
  endloop
endfacet
facet normal 0 -0 1
  outer loop
    vertex 0.2225209339563125 -0.9749279121818241 1
    vertex 0.3165923818846963 -0.6632346090161899 1
    vertex -0.02587283300265666 -0.6183255765964899 1
  endloop
endfacet
facet normal 0 0 1
  outer loop
    vertex 0.04151750358605667 0.1826818465757722 1
    vertex 0.1069963661892989 -0.2457920721829816 1
    vertex 0.4227666746245958 -0.004980935514440232 1
  endloop
endfacet
facet normal 0 0 1
  outer loop
    vertex 0.4227666746245958 -0.004980935514440232 1
    vertex 0.1069963661892989 -0.2457920721829816 1
    vertex 0.5135837287157777 -0.3734059417388124 1
  endloop
endfacet
facet normal 0 0 1
  outer loop
    vertex -0.2970831192908765 -0.007045728644377844 1
    vertex -0.646777647660214 -0.0075911160237771 1
    vertex -0.4056345809298747 -0.3880680022346014 1
  endloop
endfacet
facet normal 0 0 1
  outer loop
    vertex 0.4227666746245958 -0.004980935514440232 1
    vertex 0.7173807906469835 0.1589054736215522 1
    vertex 0.4608977499496387 0.3675536905805823 1
  endloop
endfacet
facet normal 0 -0 1
  outer loop
    vertex 0.5135837287157777 -0.3734059417388124 1
    vertex 0.7123315549710021 -0.1455590289372988 1
    vertex 0.4227666746245958 -0.004980935514440232 1
  endloop
endfacet
facet normal 0 -0 1
  outer loop
    vertex 0.7123315549710021 -0.1455590289372988 1
    vertex 0.7173807906469835 0.1589054736215522 1
    vertex 0.4227666746245958 -0.004980935514440232 1
  endloop
endfacet
facet normal 0 0 1
  outer loop
    vertex 1 0 1
    vertex 0.7173807906469835 0.1589054736215522 1
    vertex 0.7123315549710021 -0.1455590289372988 1
  endloop
endfacet
endsolid Created by Gmsh
