solid Created by Gmsh
facet normal 0 0 1
  outer loop
    vertex 0 1 0
    vertex -0.4330127018885577 0.2500000000024981 0
    vertex 0.4330127018914091 0.2499999999975595 0
  endloop
endfacet
facet normal 0 0 1
  outer loop
    vertex 0.4330127018914091 0.2499999999975595 0
    vertex -1.993849529924319e-12 -0.5 0
    vertex 0.86602540378 -0.5 0
  endloop
endfacet
facet normal 0 0 1
  outer loop
    vertex -0.4330127018885577 0.2500000000024981 0
    vertex -0.86602540378 -0.5 0
    vertex -1.993849529924319e-12 -0.5 0
  endloop
endfacet
facet normal 0 0 1
  outer loop
    vertex -0.4330127018885577 0.2500000000024981 0
    vertex -1.993849529924319e-12 -0.5 0
    vertex 0.4330127018914091 0.2499999999975595 0
  endloop
endfacet
facet normal -0.866025 0.5 0
  outer loop
    vertex 0 1 0
    vertex -0.2445988510880344 0.5763423624403792 0.5000000001463338
    vertex 0 1 1
  endloop
endfacet
facet normal -0.866025 0.5 -6.40988e-17
  outer loop
    vertex -0.4330127018885577 0.2500000000024981 0
    vertex -0.2445988510880344 0.5763423624403792 0.5000000001463338
    vertex 0 1 0
  endloop
endfacet
facet normal -0.866025 0.5 0
  outer loop
    vertex -0.86602540378 -0.5 1
    vertex -0.6193204865843622 -0.07269454893789229 0.5000000001367937
    vertex -0.86602540378 -0.5 0
  endloop
endfacet
facet normal -0.866025 0.5 -1.92296e-16
  outer loop
    vertex -0.86602540378 -0.5 0
    vertex -0.6193204865843622 -0.07269454893789229 0.5000000001367937
    vertex -0.4330127018885577 0.2500000000024981 0
  endloop
endfacet
facet normal -0.866025 0.5 6.40988e-17
  outer loop
    vertex 0 1 1
    vertex -0.2445988510880344 0.5763423624403792 0.5000000001463338
    vertex -0.4330127018885577 0.2500000000024981 1
  endloop
endfacet
facet normal -0.866025 0.5 1.92296e-16
  outer loop
    vertex -0.4330127018885577 0.2500000000024981 1
    vertex -0.6193204865843622 -0.07269454893789229 0.5000000001367937
    vertex -0.86602540378 -0.5 1
  endloop
endfacet
facet normal -0.866025 0.5 -7.40699e-17
  outer loop
    vertex -0.6193204865843622 -0.07269454893789229 0.5000000001367937
    vertex -0.2445988510880344 0.5763423624403792 0.5000000001463338
    vertex -0.4330127018885577 0.2500000000024981 0
  endloop
endfacet
facet normal -0.866025 0.5 1.29622e-16
  outer loop
    vertex -0.4330127018885577 0.2500000000024981 1
    vertex -0.2445988510880344 0.5763423624403792 0.5000000001463338
    vertex -0.6193204865843622 -0.07269454893789229 0.5000000001367937
  endloop
endfacet
facet normal 0 -1 -0
  outer loop
    vertex 0.86602540378 -0.5 1
    vertex 0.3726155693047041 -0.5 0.5000000001367937
    vertex 0.86602540378 -0.5 0
  endloop
endfacet
facet normal 0 -1 0
  outer loop
    vertex 0.86602540378 -0.5 0
    vertex 0.3726155693047041 -0.5 0.5000000001367937
    vertex -1.993849529924319e-12 -0.5 0
  endloop
endfacet
facet normal 0 -1 0
  outer loop
    vertex -0.86602540378 -0.5 0
    vertex -0.3768277013689233 -0.5 0.5000000001463338
    vertex -0.86602540378 -0.5 1
  endloop
endfacet
facet normal 0 -1 0
  outer loop
    vertex -1.993849529924319e-12 -0.5 0
    vertex -0.3768277013689233 -0.5 0.5000000001463338
    vertex -0.86602540378 -0.5 0
  endloop
endfacet
facet normal 0 -1 0
  outer loop
    vertex -0.86602540378 -0.5 1
    vertex -0.3768277013689233 -0.5 0.5000000001463338
    vertex -1.993849529924319e-12 -0.5 1
  endloop
endfacet
facet normal 0 -1 0
  outer loop
    vertex -1.993849529924319e-12 -0.5 1
    vertex 0.3726155693047041 -0.5 0.5000000001367937
    vertex 0.86602540378 -0.5 1
  endloop
endfacet
facet normal -0 -1 0
  outer loop
    vertex 0.3726155693047041 -0.5 0.5000000001367937
    vertex -0.3768277013689233 -0.5 0.5000000001463338
    vertex -1.993849529924319e-12 -0.5 0
  endloop
endfacet
facet normal 0 -1 -0
  outer loop
    vertex -1.993849529924319e-12 -0.5 1
    vertex -0.3768277013689233 -0.5 0.5000000001463338
    vertex 0.3726155693047041 -0.5 0.5000000001367937
  endloop
endfacet
facet normal 0.866025 0.5 0
  outer loop
    vertex 0 1 1
    vertex 0.2467049171762632 0.5726945489714503 0.5000000001367937
    vertex 0 1 0
  endloop
endfacet
facet normal 0.866025 0.5 0
  outer loop
    vertex 0 1 0
    vertex 0.2467049171762632 0.5726945489714503 0.5000000001367937
    vertex 0.4330127018914091 0.2499999999975595 0
  endloop
endfacet
facet normal 0.866025 0.5 -0
  outer loop
    vertex 0.86602540378 -0.5 0
    vertex 0.6214265525331724 -0.07634236216534113 0.5000000001463338
    vertex 0.86602540378 -0.5 1
  endloop
endfacet
facet normal 0.866025 0.5 6.40988e-17
  outer loop
    vertex 0.4330127018914091 0.2499999999975595 0
    vertex 0.6214265525331724 -0.07634236216534113 0.5000000001463338
    vertex 0.86602540378 -0.5 0
  endloop
endfacet
facet normal 0.866025 0.5 0
  outer loop
    vertex 0.4330127018914091 0.2499999999975595 1
    vertex 0.2467049171762632 0.5726945489714503 0.5000000001367937
    vertex 0 1 1
  endloop
endfacet
facet normal 0.866025 0.5 -6.40988e-17
  outer loop
    vertex 0.86602540378 -0.5 1
    vertex 0.6214265525331724 -0.07634236216534113 0.5000000001463338
    vertex 0.4330127018914091 0.2499999999975595 1
  endloop
endfacet
facet normal 0.866025 0.5 7.40699e-17
  outer loop
    vertex 0.2467049171762632 0.5726945489714503 0.5000000001367937
    vertex 0.6214265525331724 -0.07634236216534113 0.5000000001463338
    vertex 0.4330127018914091 0.2499999999975595 0
  endloop
endfacet
facet normal 0.866025 0.5 -3.70349e-17
  outer loop
    vertex 0.4330127018914091 0.2499999999975595 1
    vertex 0.6214265525331724 -0.07634236216534113 0.5000000001463338
    vertex 0.2467049171762632 0.5726945489714503 0.5000000001367937
  endloop
endfacet
facet normal 0 0 1
  outer loop
    vertex 0 1 1
    vertex -0.4330127018885577 0.2500000000024981 1
    vertex 0.4330127018914091 0.2499999999975595 1
  endloop
endfacet
facet normal 0 0 1
  outer loop
    vertex -0.4330127018885577 0.2500000000024981 1
    vertex -0.86602540378 -0.5 1
    vertex -1.993849529924319e-12 -0.5 1
  endloop
endfacet
facet normal 0 0 1
  outer loop
    vertex 0.4330127018914091 0.2499999999975595 1
    vertex -1.993849529924319e-12 -0.5 1
    vertex 0.86602540378 -0.5 1
  endloop
endfacet
facet normal 0 0 1
  outer loop
    vertex 0.4330127018914091 0.2499999999975595 1
    vertex -0.4330127018885577 0.2500000000024981 1
    vertex -1.993849529924319e-12 -0.5 1
  endloop
endfacet
endsolid Created by Gmsh
