solid cube.stl
facet normal 0.222918 0.000000 0.000000
  outer loop
    vertex -2.242982 -0.362903 -0.153566
    vertex -2.242982 0.362903 -0.153566
    vertex -2.242982 -0.362903 0.153566
  endloop
endfacet
facet normal -0.222918 -0.000000 -0.000000
  outer loop
    vertex -2.242982 0.362903 0.153566
    vertex -2.242982 0.362903 -0.153566
    vertex -2.242982 -0.362903 0.153566
  endloop
endfacet
facet normal 0.222918 0.000000 0.000000
  outer loop
    vertex 2.242982 -0.362903 -0.153566
    vertex 2.242982 0.362903 -0.153566
    vertex 2.242982 -0.362903 0.153566
  endloop
endfacet
facet normal -0.222918 -0.000000 -0.000000
  outer loop
    vertex 2.242982 0.362903 0.153566
    vertex 2.242982 0.362903 -0.153566
    vertex 2.242982 -0.362903 0.153566
  endloop
endfacet
facet normal 0.000000 -1.377779 0.000000
  outer loop
    vertex -2.242982 -0.362903 -0.153566
    vertex 2.242982 -0.362903 -0.153566
    vertex -2.242982 -0.362903 0.153566
  endloop
endfacet
facet normal 0.000000 1.377779 0.000000
  outer loop
    vertex 2.242982 -0.362903 0.153566
    vertex 2.242982 -0.362903 -0.153566
    vertex -2.242982 -0.362903 0.153566
  endloop
endfacet
facet normal 0.000000 -1.377779 0.000000
  outer loop
    vertex -2.242982 0.362903 -0.153566
    vertex 2.242982 0.362903 -0.153566
    vertex -2.242982 0.362903 0.153566
  endloop
endfacet
facet normal 0.000000 1.377779 0.000000
  outer loop
    vertex 2.242982 0.362903 0.153566
    vertex 2.242982 0.362903 -0.153566
    vertex -2.242982 0.362903 0.153566
  endloop
endfacet
facet normal 0.000000 0.000000 3.255939
  outer loop
    vertex -2.242982 -0.362903 -0.153566
    vertex 2.242982 -0.362903 -0.153566
    vertex -2.242982 0.362903 -0.153566
  endloop
endfacet
facet normal -0.000000 -0.000000 -3.255939
  outer loop
    vertex 2.242982 0.362903 -0.153566
    vertex 2.242982 -0.362903 -0.153566
    vertex -2.242982 0.362903 -0.153566
  endloop
endfacet
facet normal 0.000000 0.000000 3.255939
  outer loop
    vertex -2.242982 -0.362903 0.153566
    vertex 2.242982 -0.362903 0.153566
    vertex -2.242982 0.362903 0.153566
  endloop
endfacet
facet normal -0.000000 -0.000000 -3.255939
  outer loop
    vertex 2.242982 0.362903 0.153566
    vertex 2.242982 -0.362903 0.153566
    vertex -2.242982 0.362903 0.153566
  endloop
endfacet
endsolid cube.stl
