solid
facet normal -0.0 0.0 1.0
 outer loop
  vertex -1.0 0.25 0.5
  vertex 1.0 -0.25 0.5
  vertex 1.0 0.25 0.5
 endloop
endfacet
facet normal 0.0 0.0 1.0
 outer loop
  vertex 1.0 -0.25 0.5
  vertex -1.0 0.25 0.5
  vertex -1.0 -0.25 0.5
 endloop
endfacet
facet normal 0.0 0.0 -1.0
 outer loop
  vertex -1.0 -0.25 -0.5
  vertex 1.0 0.25 -0.5
  vertex 1.0 -0.25 -0.5
 endloop
endfacet
facet normal -0.0 0.0 -1.0
 outer loop
  vertex 1.0 0.25 -0.5
  vertex -1.0 -0.25 -0.5
  vertex -1.0 0.25 -0.5
 endloop
endfacet
facet normal 0.0 -1.0 0.0
 outer loop
  vertex -1.0 -0.25 -0.5
  vertex 1.0 -0.25 0.5
  vertex -1.0 -0.25 0.5
 endloop
endfacet
facet normal 0.0 -1.0 -0.0
 outer loop
  vertex 1.0 -0.25 0.5
  vertex -1.0 -0.25 -0.5
  vertex 1.0 -0.25 -0.5
 endloop
endfacet
facet normal 1.0 -0.0 0.0
 outer loop
  vertex 1.0 -0.25 0.5
  vertex 1.0 0.25 -0.5
  vertex 1.0 0.25 0.5
 endloop
endfacet
facet normal 1.0 0.0 0.0
 outer loop
  vertex 1.0 0.25 -0.5
  vertex 1.0 -0.25 0.5
  vertex 1.0 -0.25 -0.5
 endloop
endfacet
facet normal 0.0 1.0 -0.0
 outer loop
  vertex 1.0 0.25 -0.5
  vertex -1.0 0.25 0.5
  vertex 1.0 0.25 0.5
 endloop
endfacet
facet normal 0.0 1.0 0.0
 outer loop
  vertex -1.0 0.25 0.5
  vertex 1.0 0.25 -0.5
  vertex -1.0 0.25 -0.5
 endloop
endfacet
facet normal -1.0 0.0 0.0
 outer loop
  vertex -1.0 -0.25 -0.5
  vertex -1.0 0.25 0.5
  vertex -1.0 0.25 -0.5
 endloop
endfacet
facet normal -1.0 -0.0 0.0
 outer loop
  vertex -1.0 0.25 0.5
  vertex -1.0 -0.25 -0.5
  vertex -1.0 -0.25 0.5
 endloop
endfacet
endsolid
