solid cube.stl
facet normal 0.745577 0.000000 0.000000
  outer loop
    vertex -0.670621 -1.022124 -0.182360
    vertex -0.670621 1.022124 -0.182360
    vertex -0.670621 -1.022124 0.182360
  endloop
endfacet
facet normal -0.745577 -0.000000 -0.000000
  outer loop
    vertex -0.670621 1.022124 0.182360
    vertex -0.670621 1.022124 -0.182360
    vertex -0.670621 -1.022124 0.182360
  endloop
endfacet
facet normal 0.745577 0.000000 0.000000
  outer loop
    vertex 0.670621 -1.022124 -0.182360
    vertex 0.670621 1.022124 -0.182360
    vertex 0.670621 -1.022124 0.182360
  endloop
endfacet
facet normal -0.745577 -0.000000 -0.000000
  outer loop
    vertex 0.670621 1.022124 0.182360
    vertex 0.670621 1.022124 -0.182360
    vertex 0.670621 -1.022124 0.182360
  endloop
endfacet
facet normal 0.000000 -0.489178 0.000000
  outer loop
    vertex -0.670621 -1.022124 -0.182360
    vertex 0.670621 -1.022124 -0.182360
    vertex -0.670621 -1.022124 0.182360
  endloop
endfacet
facet normal 0.000000 0.489178 0.000000
  outer loop
    vertex 0.670621 -1.022124 0.182360
    vertex 0.670621 -1.022124 -0.182360
    vertex -0.670621 -1.022124 0.182360
  endloop
endfacet
facet normal 0.000000 -0.489178 0.000000
  outer loop
    vertex -0.670621 1.022124 -0.182360
    vertex 0.670621 1.022124 -0.182360
    vertex -0.670621 1.022124 0.182360
  endloop
endfacet
facet normal 0.000000 0.489178 0.000000
  outer loop
    vertex 0.670621 1.022124 0.182360
    vertex 0.670621 1.022124 -0.182360
    vertex -0.670621 1.022124 0.182360
  endloop
endfacet
facet normal 0.000000 0.000000 2.741831
  outer loop
    vertex -0.670621 -1.022124 -0.182360
    vertex 0.670621 -1.022124 -0.182360
    vertex -0.670621 1.022124 -0.182360
  endloop
endfacet
facet normal -0.000000 -0.000000 -2.741831
  outer loop
    vertex 0.670621 1.022124 -0.182360
    vertex 0.670621 -1.022124 -0.182360
    vertex -0.670621 1.022124 -0.182360
  endloop
endfacet
facet normal 0.000000 0.000000 2.741831
  outer loop
    vertex -0.670621 -1.022124 0.182360
    vertex 0.670621 -1.022124 0.182360
    vertex -0.670621 1.022124 0.182360
  endloop
endfacet
facet normal -0.000000 -0.000000 -2.741831
  outer loop
    vertex 0.670621 1.022124 0.182360
    vertex 0.670621 -1.022124 0.182360
    vertex -0.670621 1.022124 0.182360
  endloop
endfacet
endsolid cube.stl
