solid Created by Gmsh
facet normal -0.357407 -0.862856 0.357407
  outer loop
    vertex 0.3535533913963003 0.3535533897902473 -0.04999999999999995
    vertex 6.938893903907228e-18 0.5 -0.05
    vertex 8.053697773613614e-17 0.3535533914030716 -0.4035533897834759
  endloop
endfacet
facet normal -0.862856 -0.357407 0.357407
  outer loop
    vertex 0.3535533913971552 0 -0.4035533897893923
    vertex 0.5 0 -0.04999999999999993
    vertex 0.3535533913963003 0.3535533897902473 -0.04999999999999995
  endloop
endfacet
facet normal -0.232103 -0.372233 0.89865
  outer loop
    vertex 1.110223024625157e-16 0 -0.55
    vertex 0.274235525658956 0.2742355256596372 -0.3655784418060564
    vertex 8.053697773613614e-17 0.3535533914030716 -0.4035533897834759
  endloop
endfacet
facet normal -0.372233 -0.232103 0.89865
  outer loop
    vertex 0.3535533913971552 0 -0.4035533897893923
    vertex 0.274235525658956 0.2742355256596372 -0.3655784418060564
    vertex 1.110223024625157e-16 0 -0.55
  endloop
endfacet
facet normal -0.303276 -0.903354 0.303276
  outer loop
    vertex 8.053697773613614e-17 0.3535533914030716 -0.4035533897834759
    vertex 0.274235525658956 0.2742355256596372 -0.3655784418060564
    vertex 0.3535533913963003 0.3535533897902473 -0.04999999999999995
  endloop
endfacet
facet normal -0.903354 -0.303276 0.303276
  outer loop
    vertex 0.3535533913963003 0.3535533897902473 -0.04999999999999995
    vertex 0.274235525658956 0.2742355256596372 -0.3655784418060564
    vertex 0.3535533913971552 0 -0.4035533897893923
  endloop
endfacet
facet normal 0.862856 -0.357407 -0.357407
  outer loop
    vertex 0.3535533913971552 0 -0.4035533897893923
    vertex 0.5 0 -0.04999999999999993
    vertex 0.3535533913963003 -0.3535533897902473 -0.04999999999999995
  endloop
endfacet
facet normal 0.372233 -0.89865 -0.232103
  outer loop
    vertex 6.938893903907228e-18 -0.5 -0.05
    vertex 0.2742355283477608 -0.3155784371320948 -0.3242355283494263
    vertex 0.3535533913963003 -0.3535533897902473 -0.04999999999999995
  endloop
endfacet
facet normal 0.232103 -0.89865 -0.372233
  outer loop
    vertex 8.053697807483023e-17 -0.3535533897760395 -0.403553391410508
    vertex 0.2742355283477608 -0.3155784371320948 -0.3242355283494263
    vertex 6.938893903907228e-18 -0.5 -0.05
  endloop
endfacet
facet normal 0.357407 -0.357407 -0.862856
  outer loop
    vertex 0.3535533913971552 0 -0.4035533897893923
    vertex 8.053697807483023e-17 -0.3535533897760395 -0.403553391410508
    vertex 1.110223024625157e-16 0 -0.55
  endloop
endfacet
facet normal 0.903354 -0.303276 -0.303276
  outer loop
    vertex 0.3535533913963003 -0.3535533897902473 -0.04999999999999995
    vertex 0.2742355283477608 -0.3155784371320948 -0.3242355283494263
    vertex 0.3535533913971552 0 -0.4035533897893923
  endloop
endfacet
facet normal 0.303276 -0.303276 -0.903354
  outer loop
    vertex 0.3535533913971552 0 -0.4035533897893923
    vertex 0.2742355283477608 -0.3155784371320948 -0.3242355283494263
    vertex 8.053697807483023e-17 -0.3535533897760395 -0.403553391410508
  endloop
endfacet
facet normal -0.232103 -0.89865 -0.372233
  outer loop
    vertex 6.938893903907228e-18 -0.5 -0.05
    vertex -0.2742355248961504 -0.3155784429665959 -0.3242355250869439
    vertex 8.053697807483023e-17 -0.3535533897760395 -0.403553391410508
  endloop
endfacet
facet normal -0.372233 -0.89865 -0.232103
  outer loop
    vertex -0.353553389778959 -0.3535533914075886 -0.05000000000000003
    vertex -0.2742355248961504 -0.3155784429665959 -0.3242355250869439
    vertex 6.938893903907228e-18 -0.5 -0.05
  endloop
endfacet
facet normal -0.862856 -0.357407 -0.357407
  outer loop
    vertex -0.353553389778959 -0.3535533914075886 -0.05000000000000003
    vertex -0.5 0 -0.05000000000000004
    vertex -0.3535533898807219 0 -0.4035533913058256
  endloop
endfacet
facet normal -0.357407 -0.357407 -0.862856
  outer loop
    vertex -0.3535533898807219 0 -0.4035533913058256
    vertex 1.110223024625157e-16 0 -0.55
    vertex 8.053697807483023e-17 -0.3535533897760395 -0.403553391410508
  endloop
endfacet
facet normal -0.303276 -0.303276 -0.903354
  outer loop
    vertex 8.053697807483023e-17 -0.3535533897760395 -0.403553391410508
    vertex -0.2742355248961504 -0.3155784429665959 -0.3242355250869439
    vertex -0.3535533898807219 0 -0.4035533913058256
  endloop
endfacet
facet normal -0.903354 -0.303276 -0.303276
  outer loop
    vertex -0.3535533898807219 0 -0.4035533913058256
    vertex -0.2742355248961504 -0.3155784429665959 -0.3242355250869439
    vertex -0.353553389778959 -0.3535533914075886 -0.05000000000000003
  endloop
endfacet
facet normal -0.357407 0.862856 -0.357407
  outer loop
    vertex -0.353553389778959 0.3535533914075886 -0.05000000000000003
    vertex 6.938893903907228e-18 0.5 -0.05
    vertex 8.053697773613614e-17 0.3535533914030716 -0.4035533897834759
  endloop
endfacet
facet normal -0.89865 0.232103 -0.372233
  outer loop
    vertex -0.5 0 -0.05000000000000004
    vertex -0.3155784410620629 0.2742355260933263 -0.3242355260814226
    vertex -0.3535533898807219 0 -0.4035533913058256
  endloop
endfacet
facet normal -0.89865 0.372233 -0.232103
  outer loop
    vertex -0.353553389778959 0.3535533914075886 -0.05000000000000003
    vertex -0.3155784410620629 0.2742355260933263 -0.3242355260814226
    vertex -0.5 0 -0.05000000000000004
  endloop
endfacet
facet normal -0.357407 0.357407 -0.862856
  outer loop
    vertex 8.053697773613614e-17 0.3535533914030716 -0.4035533897834759
    vertex 1.110223024625157e-16 0 -0.55
    vertex -0.3535533898807219 0 -0.4035533913058256
  endloop
endfacet
facet normal -0.303276 0.303276 -0.903354
  outer loop
    vertex -0.3535533898807219 0 -0.4035533913058256
    vertex -0.3155784410620629 0.2742355260933263 -0.3242355260814226
    vertex 8.053697773613614e-17 0.3535533914030716 -0.4035533897834759
  endloop
endfacet
facet normal -0.303276 0.903354 -0.303276
  outer loop
    vertex 8.053697773613614e-17 0.3535533914030716 -0.4035533897834759
    vertex -0.3155784410620629 0.2742355260933263 -0.3242355260814226
    vertex -0.353553389778959 0.3535533914075886 -0.05000000000000003
  endloop
endfacet
facet normal -1.13737e-16 5.70865e-17 1
  outer loop
    vertex 0.3535533913963003 0.3535533897902473 -0.04999999999999995
    vertex 6.938893903907228e-18 0.5 -0.05
    vertex 0.2238415077158823 0.09512012887446936 -0.04999999999999995
  endloop
endfacet
facet normal -1.17046e-16 9.30482e-17 1
  outer loop
    vertex 6.938893903907228e-18 0.5 -0.05
    vertex -0.353553389778959 0.3535533914075886 -0.05000000000000003
    vertex -0.07523727353853149 0.1816388467643419 -0.04999999999999998
  endloop
endfacet
facet normal -6.916e-17 8.17314e-17 1
  outer loop
    vertex 6.938893903907228e-18 0.5 -0.05
    vertex -0.07523727353853149 0.1816388467643419 -0.04999999999999998
    vertex 0.2238415077158823 0.09512012887446936 -0.04999999999999995
  endloop
endfacet
facet normal -6.42687e-17 3.22575e-17 1
  outer loop
    vertex 0.5 0 -0.04999999999999993
    vertex 0.3535533913963003 0.3535533897902473 -0.04999999999999995
    vertex 0.2238415077158823 0.09512012887446936 -0.04999999999999995
  endloop
endfacet
facet normal -8.37157e-17 -2.42023e-17 1
  outer loop
    vertex 0.3535533913963003 -0.3535533897902473 -0.04999999999999995
    vertex 0.5 0 -0.04999999999999993
    vertex 0.2238415077158823 0.09512012887446936 -0.04999999999999995
  endloop
endfacet
facet normal -1.21459e-16 -3.84443e-17 1
  outer loop
    vertex 6.938893903907228e-18 -0.5 -0.05
    vertex 0.3535533913963003 -0.3535533897902473 -0.04999999999999995
    vertex 0.05566322360124581 -0.1343829087177363 -0.04999999999999998
  endloop
endfacet
facet normal -9.26378e-17 -3.41206e-17 1
  outer loop
    vertex -0.353553389778959 -0.3535533914075886 -0.05000000000000003
    vertex 6.938893903907228e-18 -0.5 -0.05
    vertex -0.2255399360664263 -0.09101975982259412 -0.05000000000000001
  endloop
endfacet
facet normal -1.05017e-16 -4.09474e-17 1
  outer loop
    vertex 6.938893903907228e-18 -0.5 -0.05
    vertex 0.05566322360124581 -0.1343829087177363 -0.04999999999999998
    vertex -0.2255399360664263 -0.09101975982259412 -0.05000000000000001
  endloop
endfacet
facet normal -1.31449e-16 -1.51958e-17 1
  outer loop
    vertex -0.5 0 -0.05000000000000004
    vertex -0.353553389778959 -0.3535533914075886 -0.05000000000000003
    vertex -0.2255399360664263 -0.09101975982259412 -0.05000000000000001
  endloop
endfacet
facet normal -1.22588e-16 1.15252e-17 1
  outer loop
    vertex -0.353553389778959 0.3535533914075886 -0.05000000000000003
    vertex -0.5 0 -0.05000000000000004
    vertex -0.2255399360664263 -0.09101975982259412 -0.05000000000000001
  endloop
endfacet
facet normal -1.18347e-16 -3.42141e-17 1
  outer loop
    vertex 0.05566322360124581 -0.1343829087177363 -0.04999999999999998
    vertex 0.3535533913963003 -0.3535533897902473 -0.04999999999999995
    vertex 0.2238415077158823 0.09512012887446936 -0.04999999999999995
  endloop
endfacet
facet normal -1.77098e-16 -4.17092e-18 1
  outer loop
    vertex -0.07523727353853149 0.1816388467643419 -0.04999999999999998
    vertex -0.353553389778959 0.3535533914075886 -0.05000000000000003
    vertex -0.2255399360664263 -0.09101975982259412 -0.05000000000000001
  endloop
endfacet
facet normal -1.05438e-16 -4.36737e-17 1
  outer loop
    vertex -0.07523727353853149 0.1816388467643419 -0.04999999999999998
    vertex 0.05566322360124581 -0.1343829087177363 -0.04999999999999998
    vertex 0.2238415077158823 0.09512012887446936 -0.04999999999999995
  endloop
endfacet
facet normal -1.05438e-16 -4.36737e-17 1
  outer loop
    vertex 0.05566322360124581 -0.1343829087177363 -0.04999999999999998
    vertex -0.07523727353853149 0.1816388467643419 -0.04999999999999998
    vertex -0.2255399360664263 -0.09101975982259412 -0.05000000000000001
  endloop
endfacet
facet normal -0.372233 -0.89865 0.232103
  outer loop
    vertex -6.938893903907228e-18 -0.5 0.05
    vertex -0.2742355270025563 -0.3155784394700419 0.3242355270042218
    vertex -0.3535533913963003 -0.3535533897902473 0.04999999999999995
  endloop
endfacet
facet normal -0.232103 -0.89865 0.372233
  outer loop
    vertex -8.053697807483023e-17 -0.3535533897760395 0.403553391410508
    vertex -0.2742355270025563 -0.3155784394700419 0.3242355270042218
    vertex -6.938893903907228e-18 -0.5 0.05
  endloop
endfacet
facet normal -0.862856 -0.357407 0.357407
  outer loop
    vertex -0.3535533897612215 0 0.403553391425326
    vertex -0.5 0 0.04999999999999993
    vertex -0.3535533913963003 -0.3535533897902473 0.04999999999999995
  endloop
endfacet
facet normal -0.357407 -0.357407 0.862856
  outer loop
    vertex -8.053697807483023e-17 -0.3535533897760395 0.403553391410508
    vertex -1.110223024625157e-16 0 0.55
    vertex -0.3535533897612215 0 0.403553391425326
  endloop
endfacet
facet normal -0.903354 -0.303276 0.303276
  outer loop
    vertex -0.3535533913963003 -0.3535533897902473 0.04999999999999995
    vertex -0.2742355270025563 -0.3155784394700419 0.3242355270042218
    vertex -0.3535533897612215 0 0.403553391425326
  endloop
endfacet
facet normal -0.303276 -0.303276 0.903354
  outer loop
    vertex -0.3535533897612215 0 0.403553391425326
    vertex -0.2742355270025563 -0.3155784394700419 0.3242355270042218
    vertex -8.053697807483023e-17 -0.3535533897760395 0.403553391410508
  endloop
endfacet
facet normal -0.862856 0.357407 -0.357407
  outer loop
    vertex 0.3535533914000321 -0.3535533897865155 0.05000000000000003
    vertex 0.3535533898807219 0 0.4035533913058256
    vertex 0.5 0 0.05000000000000004
  endloop
endfacet
facet normal -0.357407 0.862856 -0.357407
  outer loop
    vertex 0.3535533914000321 -0.3535533897865155 0.05000000000000003
    vertex -6.938893903907228e-18 -0.5 0.05
    vertex -8.053697807483023e-17 -0.3535533897760395 0.403553391410508
  endloop
endfacet
facet normal -0.372233 0.232103 -0.89865
  outer loop
    vertex 0.3535533898807219 0 0.4035533913058256
    vertex 0.2742355258692765 -0.2742355258570356 0.3655784414517516
    vertex -1.110223024625157e-16 0 0.55
  endloop
endfacet
facet normal -0.232103 0.372233 -0.89865
  outer loop
    vertex -1.110223024625157e-16 0 0.55
    vertex 0.2742355258692765 -0.2742355258570356 0.3655784414517516
    vertex -8.053697807483023e-17 -0.3535533897760395 0.403553391410508
  endloop
endfacet
facet normal -0.903354 0.303276 -0.303276
  outer loop
    vertex 0.3535533914000321 -0.3535533897865155 0.05000000000000003
    vertex 0.2742355258692765 -0.2742355258570356 0.3655784414517516
    vertex 0.3535533898807219 0 0.4035533913058256
  endloop
endfacet
facet normal -0.303276 0.903354 -0.303276
  outer loop
    vertex -8.053697807483023e-17 -0.3535533897760395 0.403553391410508
    vertex 0.2742355258692765 -0.2742355258570356 0.3655784414517516
    vertex 0.3535533914000321 -0.3535533897865155 0.05000000000000003
  endloop
endfacet
facet normal -0.357407 -0.862856 -0.357407
  outer loop
    vertex 0.353553389778959 0.3535533914075886 0.05000000000000003
    vertex -8.053697773613614e-17 0.3535533914030716 0.4035533897834759
    vertex -6.938893903907228e-18 0.5 0.05
  endloop
endfacet
facet normal -0.862856 -0.357407 -0.357407
  outer loop
    vertex 0.353553389778959 0.3535533914075886 0.05000000000000003
    vertex 0.5 0 0.05000000000000004
    vertex 0.3535533898807219 0 0.4035533913058256
  endloop
endfacet
facet normal -0.281085 -0.678598 -0.678598
  outer loop
    vertex 0.3535533898807219 0 0.4035533913058256
    vertex -1.110223024625157e-16 0 0.55
    vertex 0.353553389778959 0.3535533914075886 0.05000000000000003
  endloop
endfacet
facet normal -0.678598 -0.281085 -0.678598
  outer loop
    vertex 0.353553389778959 0.3535533914075886 0.05000000000000003
    vertex -1.110223024625157e-16 0 0.55
    vertex -8.053697773613614e-17 0.3535533914030716 0.4035533897834759
  endloop
endfacet
facet normal -0.357407 0.862856 0.357407
  outer loop
    vertex -8.053697773613614e-17 0.3535533914030716 0.4035533897834759
    vertex -6.938893903907228e-18 0.5 0.05
    vertex -0.3535533913963003 0.3535533897902473 0.04999999999999995
  endloop
endfacet
facet normal -0.862856 0.357407 0.357407
  outer loop
    vertex -0.3535533913963003 0.3535533897902473 0.04999999999999995
    vertex -0.5 0 0.04999999999999993
    vertex -0.3535533897612215 0 0.403553391425326
  endloop
endfacet
facet normal -0.372233 0.232103 0.89865
  outer loop
    vertex -1.110223024625157e-16 0 0.55
    vertex -0.2742355257274502 0.2742355259194448 0.3655784415207642
    vertex -0.3535533897612215 0 0.403553391425326
  endloop
endfacet
facet normal -0.232103 0.372233 0.89865
  outer loop
    vertex -8.053697773613614e-17 0.3535533914030716 0.4035533897834759
    vertex -0.2742355257274502 0.2742355259194448 0.3655784415207642
    vertex -1.110223024625157e-16 0 0.55
  endloop
endfacet
facet normal -0.903354 0.303276 0.303276
  outer loop
    vertex -0.3535533897612215 0 0.403553391425326
    vertex -0.2742355257274502 0.2742355259194448 0.3655784415207642
    vertex -0.3535533913963003 0.3535533897902473 0.04999999999999995
  endloop
endfacet
facet normal -0.303276 0.903354 0.303276
  outer loop
    vertex -0.3535533913963003 0.3535533897902473 0.04999999999999995
    vertex -0.2742355257274502 0.2742355259194448 0.3655784415207642
    vertex -8.053697773613614e-17 0.3535533914030716 0.4035533897834759
  endloop
endfacet
facet normal -7.78109e-17 1.67473e-18 1
  outer loop
    vertex 0.353553389778959 0.3535533914075886 0.05000000000000003
    vertex -6.938893903907228e-18 0.5 0.05
    vertex -0.09512012936275681 0.2238415075357046 0.05
  endloop
endfacet
facet normal -1.48106e-16 2.58872e-17 1
  outer loop
    vertex -6.938893903907228e-18 0.5 0.05
    vertex -0.3535533913963003 0.3535533897902473 0.04999999999999995
    vertex -0.09512012936275681 0.2238415075357046 0.05
  endloop
endfacet
facet normal -9.49016e-17 -5.72277e-20 1
  outer loop
    vertex 0.5 0 0.05000000000000004
    vertex 0.353553389778959 0.3535533914075886 0.05000000000000003
    vertex 0.1343829086030228 0.05566322357346488 0.05000000000000001
  endloop
endfacet
facet normal -8.18913e-17 -5.33182e-18 1
  outer loop
    vertex 0.3535533914000321 -0.3535533897865155 0.05000000000000003
    vertex 0.5 0 0.05000000000000004
    vertex 0.09101975981515027 -0.2255399360674849 0.05000000000000001
  endloop
endfacet
facet normal -9.27162e-17 1.42974e-17 1
  outer loop
    vertex 0.5 0 0.05000000000000004
    vertex 0.1343829086030228 0.05566322357346488 0.05000000000000001
    vertex 0.09101975981515027 -0.2255399360674849 0.05000000000000001
  endloop
endfacet
facet normal -1.29998e-16 1.78295e-17 1
  outer loop
    vertex -0.3535533913963003 -0.3535533897902473 0.04999999999999995
    vertex -6.938893903907228e-18 -0.5 0.05
    vertex 0.09101975981515027 -0.2255399360674849 0.05000000000000001
  endloop
endfacet
facet normal -7.8866e-17 8.72526e-19 1
  outer loop
    vertex -6.938893903907228e-18 -0.5 0.05
    vertex 0.3535533914000321 -0.3535533897865155 0.05000000000000003
    vertex 0.09101975981515027 -0.2255399360674849 0.05000000000000001
  endloop
endfacet
facet normal -1.57837e-16 6.49967e-18 1
  outer loop
    vertex -0.3535533913963003 0.3535533897902473 0.04999999999999995
    vertex -0.5 0 0.04999999999999993
    vertex -0.09512012936275681 0.2238415075357046 0.05
  endloop
endfacet
facet normal -1.77862e-16 -1.47942e-17 1
  outer loop
    vertex -0.5 0 0.04999999999999993
    vertex -0.3535533913963003 -0.3535533897902473 0.04999999999999995
    vertex -0.1816388467645584 -0.07523727354201837 0.04999999999999999
  endloop
endfacet
facet normal -1.6834e-16 2.54971e-17 1
  outer loop
    vertex -0.5 0 0.04999999999999993
    vertex -0.1816388467645584 -0.07523727354201837 0.04999999999999999
    vertex -0.09512012936275681 0.2238415075357046 0.05
  endloop
endfacet
facet normal -7.25575e-17 -1.64967e-17 1
  outer loop
    vertex 0.1343829086030228 0.05566322357346488 0.05000000000000001
    vertex 0.353553389778959 0.3535533914075886 0.05000000000000003
    vertex -0.09512012936275681 0.2238415075357046 0.05
  endloop
endfacet
facet normal -1.08217e-16 -5.78136e-17 1
  outer loop
    vertex -0.1816388467645584 -0.07523727354201837 0.04999999999999999
    vertex -0.3535533913963003 -0.3535533897902473 0.04999999999999995
    vertex 0.09101975981515027 -0.2255399360674849 0.05000000000000001
  endloop
endfacet
facet normal -6.39202e-17 -4.7098e-18 1
  outer loop
    vertex -0.1816388467645584 -0.07523727354201837 0.04999999999999999
    vertex 0.1343829086030228 0.05566322357346488 0.05000000000000001
    vertex -0.09512012936275681 0.2238415075357046 0.05
  endloop
endfacet
facet normal -7.03656e-17 1.08508e-17 1
  outer loop
    vertex 0.1343829086030228 0.05566322357346488 0.05000000000000001
    vertex -0.1816388467645584 -0.07523727354201837 0.04999999999999999
    vertex 0.09101975981515027 -0.2255399360674849 0.05000000000000001
  endloop
endfacet
endsolid Created by Gmsh
