solid STL generated by MeshLab
  facet normal  1.860271e-01  6.861776e-01  7.032455e-01
    outer loop
      vertex  -6.097388e+01  6.096986e+00  4.040943e+00
      vertex  -5.992734e+01  5.045855e+00  4.789727e+00
      vertex  -5.853861e+01  4.900174e+00  4.564516e+00
    endloop
  endfacet
  facet normal  2.175479e-01  7.273861e-01  6.508321e-01
    outer loop
      vertex  -5.853861e+01  4.900174e+00  4.564516e+00
      vertex  -5.943735e+01  6.065961e+00  3.562015e+00
      vertex  -6.097388e+01  6.096986e+00  4.040943e+00
    endloop
  endfacet
  facet normal  1.968998e-01  7.220911e-01  6.631854e-01
    outer loop
      vertex  -5.853861e+01  4.900174e+00  4.564516e+00
      vertex  -5.756038e+01  5.516081e+00  3.603466e+00
      vertex  -5.943735e+01  6.065961e+00  3.562015e+00
    endloop
  endfacet
  facet normal  2.075396e-01  7.139115e-01  6.687732e-01
    outer loop
      vertex  -5.601202e+01  4.432804e+00  4.279356e+00
      vertex  -5.756038e+01  5.516081e+00  3.603466e+00
      vertex  -5.853861e+01  4.900174e+00  4.564516e+00
    endloop
  endfacet
  facet normal  1.819644e-01  8.651993e-01  4.672464e-01
    outer loop
      vertex  -5.902315e+01  4.619650e+00  5.272659e+00
      vertex  -5.746406e+01  4.555815e+00  4.783690e+00
      vertex  -5.853861e+01  4.900174e+00  4.564516e+00
    endloop
  endfacet
  facet normal  2.096902e-01  8.990166e-01  3.844464e-01
    outer loop
      vertex  -5.746406e+01  4.555815e+00  4.783690e+00
      vertex  -5.601202e+01  4.432804e+00  4.279356e+00
      vertex  -5.853861e+01  4.900174e+00  4.564516e+00
    endloop
  endfacet
  facet normal  3.004858e-01  2.066646e-01  9.311273e-01
    outer loop
      vertex  -5.902315e+01  4.619650e+00  5.272659e+00
      vertex  -5.772646e+01  4.032670e+00  4.984482e+00
      vertex  -5.746406e+01  4.555815e+00  4.783690e+00
    endloop
  endfacet
  facet normal  1.881599e-01 -6.544564e-02  9.799554e-01
    outer loop
      vertex  -5.902315e+01  4.619650e+00  5.272659e+00
      vertex  -5.887613e+01  3.692337e+00  5.182501e+00
      vertex  -5.772646e+01  4.032670e+00  4.984482e+00
    endloop
  endfacet
  facet normal  1.660239e-01  8.726357e-01  4.592852e-01
    outer loop
      vertex  -5.853861e+01  4.900174e+00  4.564516e+00
      vertex  -5.992734e+01  5.045855e+00  4.789727e+00
      vertex  -5.902315e+01  4.619650e+00  5.272659e+00
    endloop
  endfacet
  facet normal  2.639745e-01  9.370275e-01  2.286856e-01
    outer loop
      vertex  -5.943735e+01  6.065961e+00  3.562015e+00
      vertex  -5.834077e+01  5.842735e+00  3.210885e+00
      vertex  -5.970942e+01  6.204898e+00  3.306788e+00
    endloop
  endfacet
  facet normal  2.677302e-01  9.322252e-01  2.434676e-01
    outer loop
      vertex  -5.756038e+01  5.516081e+00  3.603466e+00
      vertex  -5.834077e+01  5.842735e+00  3.210885e+00
      vertex  -5.943735e+01  6.065961e+00  3.562015e+00
    endloop
  endfacet
  facet normal  1.538124e-01  2.858799e-01  9.458406e-01
    outer loop
      vertex  -5.772646e+01  4.032670e+00  4.984482e+00
      vertex  -5.617442e+01  4.335877e+00  4.640446e+00
      vertex  -5.746406e+01  4.555815e+00  4.783690e+00
    endloop
  endfacet
  facet normal  2.229331e-01 -3.577804e-02  9.741769e-01
    outer loop
      vertex  -5.772646e+01  4.032670e+00  4.984482e+00
      vertex  -5.637124e+01  3.692338e+00  4.661851e+00
      vertex  -5.617442e+01  4.335877e+00  4.640446e+00
    endloop
  endfacet
  facet normal  5.806100e-02  7.999386e-01  5.972664e-01
    outer loop
      vertex  -5.992734e+01  5.045855e+00  4.789727e+00
      vertex  -6.185624e+01  4.355259e+00  5.902175e+00
      vertex  -5.902315e+01  4.619650e+00  5.272659e+00
    endloop
  endfacet
  facet normal  1.265309e-01  7.294500e-01  6.722295e-01
    outer loop
      vertex  -5.992734e+01  5.045855e+00  4.789727e+00
      vertex  -6.176876e+01  5.285302e+00  4.876500e+00
      vertex  -6.185624e+01  4.355259e+00  5.902175e+00
    endloop
  endfacet
  facet normal  1.315116e-01  9.227971e-01  3.621464e-01
    outer loop
      vertex  -5.943735e+01  6.065961e+00  3.562015e+00
      vertex  -5.970942e+01  6.204898e+00  3.306788e+00
      vertex  -6.097388e+01  6.096986e+00  4.040943e+00
    endloop
  endfacet
  facet normal  2.031077e-01  8.808155e-01 -4.276813e-01
    outer loop
      vertex  -5.834077e+01  5.842735e+00  3.210885e+00
      vertex  -5.794055e+01  5.516825e+00  2.729736e+00
      vertex  -5.970942e+01  6.204898e+00  3.306788e+00
    endloop
  endfacet
  facet normal  2.205068e-01  7.233981e-01  6.542720e-01
    outer loop
      vertex  -5.601202e+01  4.432804e+00  4.279356e+00
      vertex  -5.606407e+01  4.886165e+00  3.795639e+00
      vertex  -5.756038e+01  5.516081e+00  3.603466e+00
    endloop
  endfacet
  facet normal  1.944351e-01  9.219643e-01  3.349280e-01
    outer loop
      vertex  -5.746406e+01  4.555815e+00  4.783690e+00
      vertex  -5.617442e+01  4.335877e+00  4.640446e+00
      vertex  -5.601202e+01  4.432804e+00  4.279356e+00
    endloop
  endfacet
  facet normal  2.021062e-01 -1.169816e-01  9.723520e-01
    outer loop
      vertex  -5.887613e+01  3.692337e+00  5.182501e+00
      vertex  -5.637124e+01  3.692338e+00  4.661851e+00
      vertex  -5.772646e+01  4.032670e+00  4.984482e+00
    endloop
  endfacet
  facet normal  1.201095e-01  6.525486e-01  7.481673e-01
    outer loop
      vertex  -5.992734e+01  5.045855e+00  4.789727e+00
      vertex  -6.097388e+01  6.096986e+00  4.040943e+00
      vertex  -6.176876e+01  5.285302e+00  4.876500e+00
    endloop
  endfacet
  facet normal  2.216214e-01  5.856079e-01  7.797098e-01
    outer loop
      vertex  -6.097388e+01  6.096986e+00  4.040943e+00
      vertex  -6.202344e+01  5.980572e+00  4.426700e+00
      vertex  -6.176876e+01  5.285302e+00  4.876500e+00
    endloop
  endfacet
  facet normal  2.098096e-01  9.544243e-01 -2.122597e-01
    outer loop
      vertex  -5.931683e+01  6.019838e+00  2.862732e+00
      vertex  -6.152221e+01  6.458558e+00  2.655502e+00
      vertex  -5.970942e+01  6.204898e+00  3.306788e+00
    endloop
  endfacet
  facet normal  3.334974e-01  9.378507e-01 -9.599812e-02
    outer loop
      vertex  -5.970942e+01  6.204898e+00  3.306788e+00
      vertex  -5.794055e+01  5.516825e+00  2.729736e+00
      vertex  -5.931683e+01  6.019838e+00  2.862732e+00
    endloop
  endfacet
  facet normal  2.218642e-01  7.664160e-01 -6.028124e-01
    outer loop
      vertex  -5.794055e+01  5.516825e+00  2.729736e+00
      vertex  -6.084501e+01  6.050601e+00  2.339396e+00
      vertex  -5.931683e+01  6.019838e+00  2.862732e+00
    endloop
  endfacet
  facet normal  2.854407e-01  9.349815e-01  2.105551e-01
    outer loop
      vertex  -5.756038e+01  5.516081e+00  3.603466e+00
      vertex  -5.586926e+01  5.087965e+00  3.211957e+00
      vertex  -5.834077e+01  5.842735e+00  3.210885e+00
    endloop
  endfacet
  facet normal  3.110384e-01  8.613693e-01  4.016195e-01
    outer loop
      vertex  -5.606407e+01  4.886165e+00  3.795639e+00
      vertex  -5.586926e+01  5.087965e+00  3.211957e+00
      vertex  -5.756038e+01  5.516081e+00  3.603466e+00
    endloop
  endfacet
  facet normal  8.066943e-08 -1.000000e+00 -6.981701e-08
    outer loop
      vertex  -5.887613e+01  3.692337e+00  5.182501e+00
      vertex  -5.846406e+01  3.692338e+00  2.243722e+00
      vertex  -5.637124e+01  3.692338e+00  4.661851e+00
    endloop
  endfacet
  facet normal -1.292946e-07 -1.000000e+00 -9.925813e-08
    outer loop
      vertex  -5.887613e+01  3.692337e+00  5.182501e+00
      vertex  -6.025696e+01  3.692338e+00  2.177165e+00
      vertex  -5.846406e+01  3.692338e+00  2.243722e+00
    endloop
  endfacet
  facet normal  2.218115e-01 -5.946104e-02  9.732749e-01
    outer loop
      vertex  -5.902315e+01  4.619650e+00  5.272659e+00
      vertex  -6.185624e+01  4.355259e+00  5.902175e+00
      vertex  -5.887613e+01  3.692337e+00  5.182501e+00
    endloop
  endfacet
  facet normal  1.717772e-01  7.109650e-01  6.819246e-01
    outer loop
      vertex  -6.097388e+01  6.096986e+00  4.040943e+00
      vertex  -6.184474e+01  6.334755e+00  4.012420e+00
      vertex  -6.202344e+01  5.980572e+00  4.426700e+00
    endloop
  endfacet
  facet normal  2.141307e-01  8.433998e-01  4.927727e-01
    outer loop
      vertex  -5.970942e+01  6.204898e+00  3.306788e+00
      vertex  -6.184474e+01  6.334755e+00  4.012420e+00
      vertex  -6.097388e+01  6.096986e+00  4.040943e+00
    endloop
  endfacet
  facet normal  2.050056e-01  5.003536e-01 -8.412008e-01
    outer loop
      vertex  -5.794055e+01  5.516825e+00  2.729736e+00
      vertex  -5.644514e+01  4.638296e+00  2.571620e+00
      vertex  -6.084501e+01  6.050601e+00  2.339396e+00
    endloop
  endfacet
  facet normal  1.928482e-01  4.820784e-01 -8.546403e-01
    outer loop
      vertex  -5.794055e+01  5.516825e+00  2.729736e+00
      vertex  -5.576548e+01  4.810868e+00  2.822328e+00
      vertex  -5.644514e+01  4.638296e+00  2.571620e+00
    endloop
  endfacet
  facet normal  2.708889e-01  8.864994e-01 -3.751506e-01
    outer loop
      vertex  -5.834077e+01  5.842735e+00  3.210885e+00
      vertex  -5.586926e+01  5.087965e+00  3.211957e+00
      vertex  -5.794055e+01  5.516825e+00  2.729736e+00
    endloop
  endfacet
  facet normal  2.860319e-01  8.152242e-01 -5.035824e-01
    outer loop
      vertex  -5.586926e+01  5.087965e+00  3.211957e+00
      vertex  -5.576548e+01  4.810868e+00  2.822328e+00
      vertex  -5.794055e+01  5.516825e+00  2.729736e+00
    endloop
  endfacet
  facet normal  1.937450e-01  9.221993e-01  3.346807e-01
    outer loop
      vertex  -5.617442e+01  4.335877e+00  4.640446e+00
      vertex  -5.474963e+01  4.167017e+00  4.280931e+00
      vertex  -5.601202e+01  4.432804e+00  4.279356e+00
    endloop
  endfacet
  facet normal  2.398713e-01 -4.109951e-02  9.699343e-01
    outer loop
      vertex  -5.637124e+01  3.692338e+00  4.661851e+00
      vertex  -5.474963e+01  4.167017e+00  4.280931e+00
      vertex  -5.617442e+01  4.335877e+00  4.640446e+00
    endloop
  endfacet
  facet normal  1.632722e-02  7.400061e-01  6.724019e-01
    outer loop
      vertex  -6.176876e+01  5.285302e+00  4.876500e+00
      vertex  -6.255262e+01  5.041667e+00  5.163664e+00
      vertex  -6.185624e+01  4.355259e+00  5.902175e+00
    endloop
  endfacet
  facet normal  1.202562e-01  5.706069e-01  8.123708e-01
    outer loop
      vertex  -6.176876e+01  5.285302e+00  4.876500e+00
      vertex  -6.372079e+01  6.100364e+00  4.592964e+00
      vertex  -6.255262e+01  5.041667e+00  5.163664e+00
    endloop
  endfacet
  facet normal  2.114628e-01  7.933516e-01 -5.708562e-01
    outer loop
      vertex  -5.931683e+01  6.019838e+00  2.862732e+00
      vertex  -6.084501e+01  6.050601e+00  2.339396e+00
      vertex  -6.152221e+01  6.458558e+00  2.655502e+00
    endloop
  endfacet
  facet normal  2.218800e-01  5.599881e-01 -7.982371e-01
    outer loop
      vertex  -6.084501e+01  6.050601e+00  2.339396e+00
      vertex  -5.644514e+01  4.638296e+00  2.571620e+00
      vertex  -6.030687e+01  5.477174e+00  2.086704e+00
    endloop
  endfacet
  facet normal -6.176718e-08 -1.000000e+00 -1.302841e-07
    outer loop
      vertex  -6.025696e+01  3.692338e+00  2.177165e+00
      vertex  -5.887613e+01  3.692337e+00  5.182501e+00
      vertex  -6.429903e+01  3.692338e+00  5.923487e+00
    endloop
  endfacet
  facet normal  2.315727e-01 -1.495880e-02  9.727026e-01
    outer loop
      vertex  -6.185624e+01  4.355259e+00  5.902175e+00
      vertex  -6.228288e+01  3.718278e+00  5.993948e+00
      vertex  -5.887613e+01  3.692337e+00  5.182501e+00
    endloop
  endfacet
  facet normal  4.617690e-02  7.530318e-01  6.563619e-01
    outer loop
      vertex  -6.255262e+01  5.041667e+00  5.163664e+00
      vertex  -6.322005e+01  4.233465e+00  6.137855e+00
      vertex  -6.185624e+01  4.355259e+00  5.902175e+00
    endloop
  endfacet
  facet normal  1.198514e-01  5.698443e-01  8.129656e-01
    outer loop
      vertex  -6.176876e+01  5.285302e+00  4.876500e+00
      vertex  -6.202344e+01  5.980572e+00  4.426700e+00
      vertex  -6.372079e+01  6.100364e+00  4.592964e+00
    endloop
  endfacet
  facet normal  1.174985e-01  7.292184e-01  6.741176e-01
    outer loop
      vertex  -6.184474e+01  6.334755e+00  4.012420e+00
      vertex  -6.372079e+01  6.100364e+00  4.592964e+00
      vertex  -6.202344e+01  5.980572e+00  4.426700e+00
    endloop
  endfacet
  facet normal  1.426176e-01  9.562034e-01  2.556075e-01
    outer loop
      vertex  -5.970942e+01  6.204898e+00  3.306788e+00
      vertex  -6.394576e+01  6.657913e+00  3.975792e+00
      vertex  -6.184474e+01  6.334755e+00  4.012420e+00
    endloop
  endfacet
  facet normal  1.557070e-01  9.182020e-01  3.642257e-01
    outer loop
      vertex  -5.970942e+01  6.204898e+00  3.306788e+00
      vertex  -6.364330e+01  6.869464e+00  3.313177e+00
      vertex  -6.394576e+01  6.657913e+00  3.975792e+00
    endloop
  endfacet
  facet normal  1.659283e-01  9.829681e-01 -7.900336e-02
    outer loop
      vertex  -6.152221e+01  6.458558e+00  2.655502e+00
      vertex  -6.364330e+01  6.869464e+00  3.313177e+00
      vertex  -5.970942e+01  6.204898e+00  3.306788e+00
    endloop
  endfacet
  facet normal  1.339503e-01  7.362920e-01 -6.632733e-01
    outer loop
      vertex  -6.084501e+01  6.050601e+00  2.339396e+00
      vertex  -6.234804e+01  6.095438e+00  2.085629e+00
      vertex  -6.152221e+01  6.458558e+00  2.655502e+00
    endloop
  endfacet
  facet normal  1.764859e-01  2.643701e-01 -9.481356e-01
    outer loop
      vertex  -5.644514e+01  4.638296e+00  2.571620e+00
      vertex  -5.844347e+01  4.394931e+00  2.131793e+00
      vertex  -6.030687e+01  5.477174e+00  2.086704e+00
    endloop
  endfacet
  facet normal  1.526996e-01  7.292195e-01  6.670246e-01
    outer loop
      vertex  -5.474963e+01  4.167017e+00  4.280931e+00
      vertex  -5.606407e+01  4.886165e+00  3.795639e+00
      vertex  -5.601202e+01  4.432804e+00  4.279356e+00
    endloop
  endfacet
  facet normal  1.021640e-02 -9.971485e-01  7.476901e-02
    outer loop
      vertex  -6.228288e+01  3.718278e+00  5.993948e+00
      vertex  -6.429903e+01  3.692338e+00  5.923487e+00
      vertex  -5.887613e+01  3.692337e+00  5.182501e+00
    endloop
  endfacet
  facet normal  1.676360e-01  2.969389e-02  9.854017e-01
    outer loop
      vertex  -6.322005e+01  4.233465e+00  6.137855e+00
      vertex  -6.228288e+01  3.718278e+00  5.993948e+00
      vertex  -6.185624e+01  4.355259e+00  5.902175e+00
    endloop
  endfacet
  facet normal  1.008968e-01 -9.314235e-02  9.905273e-01
    outer loop
      vertex  -6.322005e+01  4.233465e+00  6.137855e+00
      vertex  -6.370521e+01  3.707908e+00  6.137855e+00
      vertex  -6.228288e+01  3.718278e+00  5.993948e+00
    endloop
  endfacet
  facet normal  1.051375e-01  7.566904e-01  6.452641e-01
    outer loop
      vertex  -6.184474e+01  6.334755e+00  4.012420e+00
      vertex  -6.394576e+01  6.657913e+00  3.975792e+00
      vertex  -6.372079e+01  6.100364e+00  4.592964e+00
    endloop
  endfacet
  facet normal  1.573947e-01  5.181698e-01 -8.406705e-01
    outer loop
      vertex  -6.030687e+01  5.477174e+00  2.086704e+00
      vertex  -6.234804e+01  6.095438e+00  2.085629e+00
      vertex  -6.084501e+01  6.050601e+00  2.339396e+00
    endloop
  endfacet
  facet normal  1.670795e-01  2.734009e-01 -9.472784e-01
    outer loop
      vertex  -6.030687e+01  5.477174e+00  2.086704e+00
      vertex  -6.005179e+01  4.652718e+00  1.893741e+00
      vertex  -6.204157e+01  5.352613e+00  1.744790e+00
    endloop
  endfacet
  facet normal  1.840588e-01  2.776275e-01 -9.428920e-01
    outer loop
      vertex  -6.030687e+01  5.477174e+00  2.086704e+00
      vertex  -5.844347e+01  4.394931e+00  2.131793e+00
      vertex  -6.005179e+01  4.652718e+00  1.893741e+00
    endloop
  endfacet
  facet normal  1.958188e-01  1.449110e-01 -9.698741e-01
    outer loop
      vertex  -5.644514e+01  4.638296e+00  2.571620e+00
      vertex  -5.632729e+01  3.693794e+00  2.454293e+00
      vertex  -5.844347e+01  4.394931e+00  2.131793e+00
    endloop
  endfacet
  facet normal  3.070270e-01  1.549517e-01 -9.390018e-01
    outer loop
      vertex  -5.576548e+01  4.810868e+00  2.822328e+00
      vertex  -5.632729e+01  3.693794e+00  2.454293e+00
      vertex  -5.644514e+01  4.638296e+00  2.571620e+00
    endloop
  endfacet
  facet normal  2.683868e-01  8.792468e-01  3.935651e-01
    outer loop
      vertex  -5.606407e+01  4.886165e+00  3.795639e+00
      vertex  -5.406382e+01  4.339602e+00  3.652646e+00
      vertex  -5.586926e+01  5.087965e+00  3.211957e+00
    endloop
  endfacet
  facet normal  2.605002e-01  8.200254e-01  5.096056e-01
    outer loop
      vertex  -5.474963e+01  4.167017e+00  4.280931e+00
      vertex  -5.406382e+01  4.339602e+00  3.652646e+00
      vertex  -5.606407e+01  4.886165e+00  3.795639e+00
    endloop
  endfacet
  facet normal  2.277969e-01  3.173871e-03  9.737035e-01
    outer loop
      vertex  -5.637124e+01  3.692338e+00  4.661851e+00
      vertex  -5.377338e+01  3.692338e+00  4.054086e+00
      vertex  -5.474963e+01  4.167017e+00  4.280931e+00
    endloop
  endfacet
  facet normal -1.550512e-04 -9.999998e-01 -6.627567e-04
    outer loop
      vertex  -5.377338e+01  3.692338e+00  4.054086e+00
      vertex  -5.637124e+01  3.692338e+00  4.661851e+00
      vertex  -5.632729e+01  3.693794e+00  2.454293e+00
    endloop
  endfacet
  facet normal  7.450723e-04 -9.999995e-01 -6.448380e-04
    outer loop
      vertex  -5.637124e+01  3.692338e+00  4.661851e+00
      vertex  -5.846406e+01  3.692338e+00  2.243722e+00
      vertex  -5.632729e+01  3.693794e+00  2.454293e+00
    endloop
  endfacet
  facet normal  1.618363e-01  9.825267e-01 -9.192501e-02
    outer loop
      vertex  -6.152221e+01  6.458558e+00  2.655502e+00
      vertex  -6.328767e+01  6.767153e+00  2.845738e+00
      vertex  -6.364330e+01  6.869464e+00  3.313177e+00
    endloop
  endfacet
  facet normal  1.397966e-01  4.600078e-01 -8.768408e-01
    outer loop
      vertex  -6.030687e+01  5.477174e+00  2.086704e+00
      vertex  -6.204157e+01  5.352613e+00  1.744790e+00
      vertex  -6.234804e+01  6.095438e+00  2.085629e+00
    endloop
  endfacet
  facet normal  1.051631e-01  8.816846e-02 -9.905388e-01
    outer loop
      vertex  -6.005179e+01  4.652718e+00  1.893741e+00
      vertex  -6.013530e+01  3.869897e+00  1.815197e+00
      vertex  -6.204157e+01  5.352613e+00  1.744790e+00
    endloop
  endfacet
  facet normal  1.619880e-01  8.139367e-02 -9.834301e-01
    outer loop
      vertex  -6.005179e+01  4.652718e+00  1.893741e+00
      vertex  -5.879765e+01  3.692338e+00  2.020834e+00
      vertex  -6.013530e+01  3.869897e+00  1.815197e+00
    endloop
  endfacet
  facet normal  1.578880e-01  7.589319e-02 -9.845362e-01
    outer loop
      vertex  -5.844347e+01  4.394931e+00  2.131793e+00
      vertex  -5.879765e+01  3.692338e+00  2.020834e+00
      vertex  -6.005179e+01  4.652718e+00  1.893741e+00
    endloop
  endfacet
  facet normal  5.495064e-01 -1.471231e-01 -8.224339e-01
    outer loop
      vertex  -5.844347e+01  4.394931e+00  2.131793e+00
      vertex  -5.846406e+01  3.692338e+00  2.243722e+00
      vertex  -5.879765e+01  3.692338e+00  2.020834e+00
    endloop
  endfacet
  facet normal  9.692587e-02 -1.593536e-01 -9.824519e-01
    outer loop
      vertex  -5.632729e+01  3.693794e+00  2.454293e+00
      vertex  -5.846406e+01  3.692338e+00  2.243722e+00
      vertex  -5.844347e+01  4.394931e+00  2.131793e+00
    endloop
  endfacet
  facet normal  1.722006e-01  2.290411e-01 -9.580643e-01
    outer loop
      vertex  -5.576548e+01  4.810868e+00  2.822328e+00
      vertex  -5.403200e+01  3.910426e+00  2.918635e+00
      vertex  -5.632729e+01  3.693794e+00  2.454293e+00
    endloop
  endfacet
  facet normal  3.057458e-01  8.124813e-01 -4.963805e-01
    outer loop
      vertex  -5.586926e+01  5.087965e+00  3.211957e+00
      vertex  -5.343211e+01  4.086720e+00  3.074269e+00
      vertex  -5.576548e+01  4.810868e+00  2.822328e+00
    endloop
  endfacet
  facet normal  3.805303e-01  9.246992e-01  1.131371e-02
    outer loop
      vertex  -5.406382e+01  4.339602e+00  3.652646e+00
      vertex  -5.343211e+01  4.086720e+00  3.074269e+00
      vertex  -5.586926e+01  5.087965e+00  3.211957e+00
    endloop
  endfacet
  facet normal  4.478745e-01  6.077119e-01  6.558161e-01
    outer loop
      vertex  -5.474963e+01  4.167017e+00  4.280931e+00
      vertex  -5.377338e+01  3.692338e+00  4.054086e+00
      vertex  -5.406382e+01  4.339602e+00  3.652646e+00
    endloop
  endfacet
  facet normal -1.408024e-07 -1.000000e+00  2.107357e-07
    outer loop
      vertex  -5.846406e+01  3.692338e+00  2.243722e+00
      vertex  -6.025696e+01  3.692338e+00  2.177165e+00
      vertex  -5.879765e+01  3.692338e+00  2.020834e+00
    endloop
  endfacet
  facet normal -4.852691e-02 -8.901965e-01 -4.529850e-01
    outer loop
      vertex  -6.025696e+01  3.692338e+00  2.177165e+00
      vertex  -6.013530e+01  3.869897e+00  1.815197e+00
      vertex  -5.879765e+01  3.692338e+00  2.020834e+00
    endloop
  endfacet
  facet normal  1.142434e-02 -9.990970e-01  4.092290e-02
    outer loop
      vertex  -6.228288e+01  3.718278e+00  5.993948e+00
      vertex  -6.370521e+01  3.707908e+00  6.137855e+00
      vertex  -6.429903e+01  3.692338e+00  5.923487e+00
    endloop
  endfacet
  facet normal -1.012713e-01  7.986612e-01  5.931985e-01
    outer loop
      vertex  -6.255262e+01  5.041667e+00  5.163664e+00
      vertex  -6.527535e+01  4.014528e+00  6.081739e+00
      vertex  -6.322005e+01  4.233465e+00  6.137855e+00
    endloop
  endfacet
  facet normal  2.574612e-02  4.962139e-01  8.678185e-01
    outer loop
      vertex  -6.372079e+01  6.100364e+00  4.592964e+00
      vertex  -6.480473e+01  5.713060e+00  4.846580e+00
      vertex  -6.255262e+01  5.041667e+00  5.163664e+00
    endloop
  endfacet
  facet normal -4.711938e-02  9.677020e-01 -2.476544e-01
    outer loop
      vertex  -6.328767e+01  6.767153e+00  2.845738e+00
      vertex  -6.454685e+01  6.610198e+00  2.472015e+00
      vertex  -6.364330e+01  6.869464e+00  3.313177e+00
    endloop
  endfacet
  facet normal  9.248662e-02  8.494062e-01 -5.195724e-01
    outer loop
      vertex  -6.152221e+01  6.458558e+00  2.655502e+00
      vertex  -6.320988e+01  6.395200e+00  2.251510e+00
      vertex  -6.328767e+01  6.767153e+00  2.845738e+00
    endloop
  endfacet
  facet normal  1.302486e-01  7.397746e-01 -6.601279e-01
    outer loop
      vertex  -6.234804e+01  6.095438e+00  2.085629e+00
      vertex  -6.320988e+01  6.395200e+00  2.251510e+00
      vertex  -6.152221e+01  6.458558e+00  2.655502e+00
    endloop
  endfacet
  facet normal  1.773389e-01  2.393021e-01 -9.546127e-01
    outer loop
      vertex  -5.343211e+01  4.086720e+00  3.074269e+00
      vertex  -5.403200e+01  3.910426e+00  2.918635e+00
      vertex  -5.576548e+01  4.810868e+00  2.822328e+00
    endloop
  endfacet
  facet normal  1.401249e-01  5.665177e-01  8.120484e-01
    outer loop
      vertex  -5.377338e+01  3.692338e+00  4.054086e+00
      vertex  -5.207080e+01  3.751015e+00  3.719357e+00
      vertex  -5.406382e+01  4.339602e+00  3.652646e+00
    endloop
  endfacet
  facet normal  1.350503e-01 -9.669023e-01 -2.164745e-01
    outer loop
      vertex  -5.403200e+01  3.910426e+00  2.918635e+00
      vertex  -5.377338e+01  3.692338e+00  4.054086e+00
      vertex  -5.632729e+01  3.693794e+00  2.454293e+00
    endloop
  endfacet
  facet normal  1.257609e-01 -9.067330e-01 -4.025165e-01
    outer loop
      vertex  -6.025696e+01  3.692338e+00  2.177165e+00
      vertex  -6.201798e+01  3.692338e+00  1.626957e+00
      vertex  -6.013530e+01  3.869897e+00  1.815197e+00
    endloop
  endfacet
  facet normal  1.161243e-07 -1.000000e+00  6.165102e-08
    outer loop
      vertex  -6.025696e+01  3.692338e+00  2.177165e+00
      vertex  -6.429903e+01  3.692338e+00  5.923487e+00
      vertex  -6.201798e+01  3.692338e+00  1.626957e+00
    endloop
  endfacet
  facet normal  1.228747e-02  4.604189e-01  8.876168e-01
    outer loop
      vertex  -6.255262e+01  5.041667e+00  5.163664e+00
      vertex  -6.480473e+01  5.713060e+00  4.846580e+00
      vertex  -6.450417e+01  4.792312e+00  5.320024e+00
    endloop
  endfacet
  facet normal  4.998876e-02  8.495090e-01 -5.252005e-01
    outer loop
      vertex  -6.328767e+01  6.767153e+00  2.845738e+00
      vertex  -6.320988e+01  6.395200e+00  2.251510e+00
      vertex  -6.454685e+01  6.610198e+00  2.472015e+00
    endloop
  endfacet
  facet normal  1.291172e-01  1.192553e-01 -9.844323e-01
    outer loop
      vertex  -6.013530e+01  3.869897e+00  1.815197e+00
      vertex  -6.245168e+01  4.017978e+00  1.529321e+00
      vertex  -6.204157e+01  5.352613e+00  1.744790e+00
    endloop
  endfacet
  facet normal -3.304325e-01  3.050370e-01  8.931779e-01
    outer loop
      vertex  -6.322005e+01  4.233465e+00  6.137855e+00
      vertex  -6.429903e+01  3.692338e+00  5.923487e+00
      vertex  -6.370521e+01  3.707908e+00  6.137855e+00
    endloop
  endfacet
  facet normal  2.627842e-01 -7.596447e-01  5.948819e-01
    outer loop
      vertex  -6.322005e+01  4.233465e+00  6.137855e+00
      vertex  -6.475106e+01  3.703840e+00  6.137855e+00
      vertex  -6.429903e+01  3.692338e+00  5.923487e+00
    endloop
  endfacet
  facet normal -3.587225e-02  7.171673e-01  6.959772e-01
    outer loop
      vertex  -6.255262e+01  5.041667e+00  5.163664e+00
      vertex  -6.450417e+01  4.792312e+00  5.320024e+00
      vertex  -6.527535e+01  4.014528e+00  6.081739e+00
    endloop
  endfacet
  facet normal -1.774132e-01  4.036103e-01  8.975652e-01
    outer loop
      vertex  -6.480473e+01  5.713060e+00  4.846580e+00
      vertex  -6.554014e+01  5.818502e+00  4.653803e+00
      vertex  -6.450417e+01  4.792312e+00  5.320024e+00
    endloop
  endfacet
  facet normal -2.780495e-02  7.366909e-01  6.756577e-01
    outer loop
      vertex  -6.394576e+01  6.657913e+00  3.975792e+00
      vertex  -6.517180e+01  6.579218e+00  4.011141e+00
      vertex  -6.372079e+01  6.100364e+00  4.592964e+00
    endloop
  endfacet
  facet normal -5.337874e-02  9.580711e-01  2.815144e-01
    outer loop
      vertex  -6.364330e+01  6.869464e+00  3.313177e+00
      vertex  -6.517180e+01  6.579218e+00  4.011141e+00
      vertex  -6.394576e+01  6.657913e+00  3.975792e+00
    endloop
  endfacet
  facet normal -1.331823e-01  9.840932e-01  1.175711e-01
    outer loop
      vertex  -6.364330e+01  6.869464e+00  3.313177e+00
      vertex  -6.596712e+01  6.526492e+00  3.551544e+00
      vertex  -6.517180e+01  6.579218e+00  4.011141e+00
    endloop
  endfacet
  facet normal -1.579644e-01  9.785898e-01 -1.319441e-01
    outer loop
      vertex  -6.454685e+01  6.610198e+00  2.472015e+00
      vertex  -6.596712e+01  6.526492e+00  3.551544e+00
      vertex  -6.364330e+01  6.869464e+00  3.313177e+00
    endloop
  endfacet
  facet normal -1.604560e-01  9.777274e-01 -1.352890e-01
    outer loop
      vertex  -6.454685e+01  6.610198e+00  2.472015e+00
      vertex  -6.614706e+01  6.426285e+00  3.040772e+00
      vertex  -6.596712e+01  6.526492e+00  3.551544e+00
    endloop
  endfacet
  facet normal  3.431205e-02  5.576159e-01 -8.293896e-01
    outer loop
      vertex  -6.234804e+01  6.095438e+00  2.085629e+00
      vertex  -6.431918e+01  5.541351e+00  1.631558e+00
      vertex  -6.320988e+01  6.395200e+00  2.251510e+00
    endloop
  endfacet
  facet normal  8.110446e-02  4.431111e-01 -8.927904e-01
    outer loop
      vertex  -6.204157e+01  5.352613e+00  1.744790e+00
      vertex  -6.431918e+01  5.541351e+00  1.631558e+00
      vertex  -6.234804e+01  6.095438e+00  2.085629e+00
    endloop
  endfacet
  facet normal  1.120108e-01 -1.455499e-01 -9.829897e-01
    outer loop
      vertex  -6.201798e+01  3.692338e+00  1.626957e+00
      vertex  -6.245168e+01  4.017978e+00  1.529321e+00
      vertex  -6.013530e+01  3.869897e+00  1.815197e+00
    endloop
  endfacet
  facet normal  2.059414e-01  1.525565e-01 -9.665995e-01
    outer loop
      vertex  -5.343211e+01  4.086720e+00  3.074269e+00
      vertex  -5.303960e+01  3.692338e+00  3.095653e+00
      vertex  -5.403200e+01  3.910426e+00  2.918635e+00
    endloop
  endfacet
  facet normal  2.848967e-01  9.527459e-01 -1.054006e-01
    outer loop
      vertex  -5.406382e+01  4.339602e+00  3.652646e+00
      vertex  -5.207080e+01  3.751015e+00  3.719357e+00
      vertex  -5.343211e+01  4.086720e+00  3.074269e+00
    endloop
  endfacet
  facet normal  4.051773e-02 -9.986972e-01  3.102084e-02
    outer loop
      vertex  -5.377338e+01  3.692338e+00  4.054086e+00
      vertex  -5.303960e+01  3.692338e+00  3.095653e+00
      vertex  -5.207080e+01  3.751015e+00  3.719357e+00
    endloop
  endfacet
  facet normal -1.878634e-01 -9.716070e-01 -1.438304e-01
    outer loop
      vertex  -5.377338e+01  3.692338e+00  4.054086e+00
      vertex  -5.403200e+01  3.910426e+00  2.918635e+00
      vertex  -5.303960e+01  3.692338e+00  3.095653e+00
    endloop
  endfacet
  facet normal -3.916650e-02  1.132207e-01  9.927976e-01
    outer loop
      vertex  -6.322005e+01  4.233465e+00  6.137855e+00
      vertex  -6.527535e+01  4.014528e+00  6.081739e+00
      vertex  -6.475106e+01  3.703840e+00  6.137855e+00
    endloop
  endfacet
  facet normal -7.042041e-02  6.768836e-01  7.327139e-01
    outer loop
      vertex  -6.372079e+01  6.100364e+00  4.592964e+00
      vertex  -6.517180e+01  6.579218e+00  4.011141e+00
      vertex  -6.480473e+01  5.713060e+00  4.846580e+00
    endloop
  endfacet
  facet normal  6.895379e-02  2.531855e-01 -9.649573e-01
    outer loop
      vertex  -6.204157e+01  5.352613e+00  1.744790e+00
      vertex  -6.364461e+01  4.798585e+00  1.484874e+00
      vertex  -6.431918e+01  5.541351e+00  1.631558e+00
    endloop
  endfacet
  facet normal  4.710635e-01  4.269835e-01 -7.718706e-01
    outer loop
      vertex  -5.343211e+01  4.086720e+00  3.074269e+00
      vertex  -5.207080e+01  3.751015e+00  3.719357e+00
      vertex  -5.303960e+01  3.692338e+00  3.095653e+00
    endloop
  endfacet
  facet normal  0.000000e+00 -1.000000e+00  0.000000e+00
    outer loop
      vertex  -6.429903e+01  3.692338e+00  5.923487e+00
      vertex  -6.291399e+01  3.692338e+00  1.819569e+00
      vertex  -6.201798e+01  3.692338e+00  1.626957e+00
    endloop
  endfacet
  facet normal -4.389033e-03 -9.990063e-01  4.435176e-02
    outer loop
      vertex  -6.429903e+01  3.692338e+00  5.923487e+00
      vertex  -6.475106e+01  3.703840e+00  6.137855e+00
      vertex  -6.652779e+01  3.692338e+00  5.702929e+00
    endloop
  endfacet
  facet normal  4.782863e-04  9.995968e-01 -2.839140e-02
    outer loop
      vertex  -6.475106e+01  3.703840e+00  6.137855e+00
      vertex  -6.557320e+01  3.692338e+00  5.719011e+00
      vertex  -6.652779e+01  3.692338e+00  5.702929e+00
    endloop
  endfacet
  facet normal -3.847129e-01 -5.102891e-01  7.691560e-01
    outer loop
      vertex  -6.527535e+01  4.014528e+00  6.081739e+00
      vertex  -6.557320e+01  3.692338e+00  5.719011e+00
      vertex  -6.475106e+01  3.703840e+00  6.137855e+00
    endloop
  endfacet
  facet normal -1.824693e-01  3.991443e-01  8.985481e-01
    outer loop
      vertex  -6.554014e+01  5.818502e+00  4.653803e+00
      vertex  -6.626675e+01  4.391424e+00  5.140171e+00
      vertex  -6.450417e+01  4.792312e+00  5.320024e+00
    endloop
  endfacet
  facet normal -9.712293e-02  6.693170e-01  7.366016e-01
    outer loop
      vertex  -6.480473e+01  5.713060e+00  4.846580e+00
      vertex  -6.517180e+01  6.579218e+00  4.011141e+00
      vertex  -6.554014e+01  5.818502e+00  4.653803e+00
    endloop
  endfacet
  facet normal -2.093830e-01  9.348225e-01 -2.868201e-01
    outer loop
      vertex  -6.454685e+01  6.610198e+00  2.472015e+00
      vertex  -6.542916e+01  6.355945e+00  2.287435e+00
      vertex  -6.614706e+01  6.426285e+00  3.040772e+00
    endloop
  endfacet
  facet normal -2.375252e-02  6.399849e-01 -7.680203e-01
    outer loop
      vertex  -6.454685e+01  6.610198e+00  2.472015e+00
      vertex  -6.320988e+01  6.395200e+00  2.251510e+00
      vertex  -6.542916e+01  6.355945e+00  2.287435e+00
    endloop
  endfacet
  facet normal  1.172466e-01  1.230669e-01 -9.854480e-01
    outer loop
      vertex  -6.204157e+01  5.352613e+00  1.744790e+00
      vertex  -6.245168e+01  4.017978e+00  1.529321e+00
      vertex  -6.364461e+01  4.798585e+00  1.484874e+00
    endloop
  endfacet
  facet normal -1.823482e-01 -4.971878e-01 -8.482650e-01
    outer loop
      vertex  -6.201798e+01  3.692338e+00  1.626957e+00
      vertex  -6.291399e+01  3.692338e+00  1.819569e+00
      vertex  -6.245168e+01  4.017978e+00  1.529321e+00
    endloop
  endfacet
  facet normal  1.538547e-01 -7.701648e-01 -6.190112e-01
    outer loop
      vertex  -6.291399e+01  3.692338e+00  1.819569e+00
      vertex  -6.453170e+01  3.723032e+00  1.379300e+00
      vertex  -6.245168e+01  4.017978e+00  1.529321e+00
    endloop
  endfacet
  facet normal  0.000000e+00 -1.000000e+00 -0.000000e+00
    outer loop
      vertex  -6.429903e+01  3.692338e+00  5.923487e+00
      vertex  -6.640755e+01  3.692338e+00  1.576472e+00
      vertex  -6.291399e+01  3.692338e+00  1.819569e+00
    endloop
  endfacet
  facet normal -2.373256e-01  7.895544e-01  5.659332e-01
    outer loop
      vertex  -6.450417e+01  4.792312e+00  5.320024e+00
      vertex  -6.626675e+01  4.391424e+00  5.140171e+00
      vertex  -6.527535e+01  4.014528e+00  6.081739e+00
    endloop
  endfacet
  facet normal -3.758162e-01  4.646182e-01  8.018055e-01
    outer loop
      vertex  -6.670245e+01  5.211840e+00  4.460551e+00
      vertex  -6.626675e+01  4.391424e+00  5.140171e+00
      vertex  -6.554014e+01  5.818502e+00  4.653803e+00
    endloop
  endfacet
  facet normal -4.463938e-01  6.642588e-01  5.995772e-01
    outer loop
      vertex  -6.554014e+01  5.818502e+00  4.653803e+00
      vertex  -6.596712e+01  6.526492e+00  3.551544e+00
      vertex  -6.670245e+01  5.211840e+00  4.460551e+00
    endloop
  endfacet
  facet normal -3.928609e-01  6.970032e-01  5.998724e-01
    outer loop
      vertex  -6.517180e+01  6.579218e+00  4.011141e+00
      vertex  -6.596712e+01  6.526492e+00  3.551544e+00
      vertex  -6.554014e+01  5.818502e+00  4.653803e+00
    endloop
  endfacet
  facet normal -2.278809e-02  4.917140e-01 -8.704585e-01
    outer loop
      vertex  -6.320988e+01  6.395200e+00  2.251510e+00
      vertex  -6.607522e+01  5.529569e+00  1.837536e+00
      vertex  -6.542916e+01  6.355945e+00  2.287435e+00
    endloop
  endfacet
  facet normal -9.184668e-02  6.604278e-01 -7.452511e-01
    outer loop
      vertex  -6.431918e+01  5.541351e+00  1.631558e+00
      vertex  -6.607522e+01  5.529569e+00  1.837536e+00
      vertex  -6.320988e+01  6.395200e+00  2.251510e+00
    endloop
  endfacet
  facet normal  6.570941e-02  4.365616e-02 -9.968834e-01
    outer loop
      vertex  -6.245168e+01  4.017978e+00  1.529321e+00
      vertex  -6.453170e+01  3.723032e+00  1.379300e+00
      vertex  -6.364461e+01  4.798585e+00  1.484874e+00
    endloop
  endfacet
  facet normal  6.489143e-03 -9.956210e-01 -9.325572e-02
    outer loop
      vertex  -6.291399e+01  3.692338e+00  1.819569e+00
      vertex  -6.640755e+01  3.692338e+00  1.576472e+00
      vertex  -6.453170e+01  3.723032e+00  1.379300e+00
    endloop
  endfacet
  facet normal -1.127363e-02 -7.429878e-01  6.692100e-01
    outer loop
      vertex  -6.527535e+01  4.014528e+00  6.081739e+00
      vertex  -6.652779e+01  3.692338e+00  5.702929e+00
      vertex  -6.557320e+01  3.692338e+00  5.719011e+00
    endloop
  endfacet
  facet normal -3.677931e-01  6.625723e-01  6.524768e-01
    outer loop
      vertex  -6.626675e+01  4.391424e+00  5.140171e+00
      vertex  -6.652779e+01  3.692338e+00  5.702929e+00
      vertex  -6.527535e+01  4.014528e+00  6.081739e+00
    endloop
  endfacet
  facet normal  5.642267e-02  6.131952e-01  7.879137e-01
    outer loop
      vertex  -6.626675e+01  4.391424e+00  5.140171e+00
      vertex  -6.692562e+01  3.773805e+00  5.668015e+00
      vertex  -6.652779e+01  3.692338e+00  5.702929e+00
    endloop
  endfacet
  facet normal -5.590007e-01  8.284530e-01  3.440551e-02
    outer loop
      vertex  -6.596712e+01  6.526492e+00  3.551544e+00
      vertex  -6.614706e+01  6.426285e+00  3.040772e+00
      vertex  -6.688534e+01  5.915963e+00  3.333807e+00
    endloop
  endfacet
  facet normal -5.662764e-02  1.436853e-01 -9.880019e-01
    outer loop
      vertex  -6.364461e+01  4.798585e+00  1.484874e+00
      vertex  -6.453170e+01  3.723032e+00  1.379300e+00
      vertex  -6.431918e+01  5.541351e+00  1.631558e+00
    endloop
  endfacet
  facet normal -4.689229e-01  8.070121e-01  3.589468e-01
    outer loop
      vertex  -6.626675e+01  4.391424e+00  5.140171e+00
      vertex  -6.689385e+01  4.169832e+00  4.819139e+00
      vertex  -6.692562e+01  3.773805e+00  5.668015e+00
    endloop
  endfacet
  facet normal -5.229301e-01  3.616687e-01  7.718419e-01
    outer loop
      vertex  -6.670245e+01  5.211840e+00  4.460551e+00
      vertex  -6.689385e+01  4.169832e+00  4.819139e+00
      vertex  -6.626675e+01  4.391424e+00  5.140171e+00
    endloop
  endfacet
  facet normal -7.029721e-01  3.434476e-01  6.227952e-01
    outer loop
      vertex  -6.670245e+01  5.211840e+00  4.460551e+00
      vertex  -6.758369e+01  4.458866e+00  3.881098e+00
      vertex  -6.689385e+01  4.169832e+00  4.819139e+00
    endloop
  endfacet
  facet normal -5.638488e-01  6.593001e-01  4.973911e-01
    outer loop
      vertex  -6.596712e+01  6.526492e+00  3.551544e+00
      vertex  -6.731277e+01  5.197999e+00  3.787030e+00
      vertex  -6.670245e+01  5.211840e+00  4.460551e+00
    endloop
  endfacet
  facet normal -5.565160e-01  6.544374e-01  5.118608e-01
    outer loop
      vertex  -6.688534e+01  5.915963e+00  3.333807e+00
      vertex  -6.731277e+01  5.197999e+00  3.787030e+00
      vertex  -6.596712e+01  6.526492e+00  3.551544e+00
    endloop
  endfacet
  facet normal -3.814284e-01  8.132766e-01 -4.394242e-01
    outer loop
      vertex  -6.614706e+01  6.426285e+00  3.040772e+00
      vertex  -6.542916e+01  6.355945e+00  2.287435e+00
      vertex  -6.660086e+01  5.910083e+00  2.479300e+00
    endloop
  endfacet
  facet normal -3.563755e-01  6.460799e-01 -6.749647e-01
    outer loop
      vertex  -6.542916e+01  6.355945e+00  2.287435e+00
      vertex  -6.607522e+01  5.529569e+00  1.837536e+00
      vertex  -6.660086e+01  5.910083e+00  2.479300e+00
    endloop
  endfacet
  facet normal -1.093480e-01  4.016064e-01 -9.092608e-01
    outer loop
      vertex  -6.431918e+01  5.541351e+00  1.631558e+00
      vertex  -6.543823e+01  4.942258e+00  1.501526e+00
      vertex  -6.607522e+01  5.529569e+00  1.837536e+00
    endloop
  endfacet
  facet normal  4.428912e-02  1.321997e-01 -9.902331e-01
    outer loop
      vertex  -6.431918e+01  5.541351e+00  1.631558e+00
      vertex  -6.453170e+01  3.723032e+00  1.379300e+00
      vertex  -6.543823e+01  4.942258e+00  1.501526e+00
    endloop
  endfacet
  facet normal -1.477017e-01 -1.067765e-02 -9.889744e-01
    outer loop
      vertex  -6.453170e+01  3.723032e+00  1.379300e+00
      vertex  -6.619634e+01  4.790321e+00  1.616389e+00
      vertex  -6.543823e+01  4.942258e+00  1.501526e+00
    endloop
  endfacet
  facet normal -2.112047e-01 -9.651563e-01  1.544863e-01
    outer loop
      vertex  -6.692562e+01  3.773805e+00  5.668015e+00
      vertex  -6.730520e+01  3.692440e+00  4.640744e+00
      vertex  -6.652779e+01  3.692338e+00  5.702929e+00
    endloop
  endfacet
  facet normal -7.779430e-01  5.800688e-01  2.415058e-01
    outer loop
      vertex  -6.689385e+01  4.169832e+00  4.819139e+00
      vertex  -6.730520e+01  3.692440e+00  4.640744e+00
      vertex  -6.692562e+01  3.773805e+00  5.668015e+00
    endloop
  endfacet
  facet normal -7.011178e-01  3.369615e-01  6.284033e-01
    outer loop
      vertex  -6.670245e+01  5.211840e+00  4.460551e+00
      vertex  -6.731277e+01  5.197999e+00  3.787030e+00
      vertex  -6.758369e+01  4.458866e+00  3.881098e+00
    endloop
  endfacet
  facet normal -8.497374e-01  5.262212e-01  3.221127e-02
    outer loop
      vertex  -6.688534e+01  5.915963e+00  3.333807e+00
      vertex  -6.765767e+01  4.682951e+00  3.102774e+00
      vertex  -6.731277e+01  5.197999e+00  3.787030e+00
    endloop
  endfacet
  facet normal -6.107813e-01  7.638290e-01 -2.085942e-01
    outer loop
      vertex  -6.660086e+01  5.910083e+00  2.479300e+00
      vertex  -6.688534e+01  5.915963e+00  3.333807e+00
      vertex  -6.614706e+01  6.426285e+00  3.040772e+00
    endloop
  endfacet
  facet normal -7.790512e-01  5.690050e-01 -2.632729e-01
    outer loop
      vertex  -6.660086e+01  5.910083e+00  2.479300e+00
      vertex  -6.717377e+01  5.073993e+00  2.367592e+00
      vertex  -6.688534e+01  5.915963e+00  3.333807e+00
    endloop
  endfacet
  facet normal -4.756975e-01  5.286148e-01 -7.030492e-01
    outer loop
      vertex  -6.607522e+01  5.529569e+00  1.837536e+00
      vertex  -6.664346e+01  5.165358e+00  1.948176e+00
      vertex  -6.660086e+01  5.910083e+00  2.479300e+00
    endloop
  endfacet
  facet normal -3.753590e-01  3.215588e-01 -8.693133e-01
    outer loop
      vertex  -6.619634e+01  4.790321e+00  1.616389e+00
      vertex  -6.664346e+01  5.165358e+00  1.948176e+00
      vertex  -6.607522e+01  5.529569e+00  1.837536e+00
    endloop
  endfacet
  facet normal -2.030068e-01  3.110161e-01 -9.284704e-01
    outer loop
      vertex  -6.607522e+01  5.529569e+00  1.837536e+00
      vertex  -6.543823e+01  4.942258e+00  1.501526e+00
      vertex  -6.619634e+01  4.790321e+00  1.616389e+00
    endloop
  endfacet
  facet normal -1.052803e-01  5.634657e-02 -9.928449e-01
    outer loop
      vertex  -6.453170e+01  3.723032e+00  1.379300e+00
      vertex  -6.640755e+01  3.692338e+00  1.576472e+00
      vertex  -6.619634e+01  4.790321e+00  1.616389e+00
    endloop
  endfacet
  facet normal  0.000000e+00 -1.000000e+00  0.000000e+00
    outer loop
      vertex  -6.429903e+01  3.692338e+00  5.923487e+00
      vertex  -6.652779e+01  3.692338e+00  5.702929e+00
      vertex  -6.640755e+01  3.692338e+00  1.576472e+00
    endloop
  endfacet
  facet normal  1.559879e-01 -9.811281e-01 -1.142605e-01
    outer loop
      vertex  -6.652779e+01  3.692338e+00  5.702929e+00
      vertex  -6.730520e+01  3.692440e+00  4.640744e+00
      vertex  -6.780653e+01  3.755045e+00  3.418746e+00
    endloop
  endfacet
  facet normal -6.929516e-01  3.646639e-01  6.219633e-01
    outer loop
      vertex  -6.689385e+01  4.169832e+00  4.819139e+00
      vertex  -6.758369e+01  4.458866e+00  3.881098e+00
      vertex  -6.730520e+01  3.692440e+00  4.640744e+00
    endloop
  endfacet
  facet normal -9.136997e-01  3.591157e-01  1.902333e-01
    outer loop
      vertex  -6.765767e+01  4.682951e+00  3.102774e+00
      vertex  -6.758369e+01  4.458866e+00  3.881098e+00
      vertex  -6.731277e+01  5.197999e+00  3.787030e+00
    endloop
  endfacet
  facet normal -5.909925e-01  4.905286e-01 -6.403980e-01
    outer loop
      vertex  -6.660086e+01  5.910083e+00  2.479300e+00
      vertex  -6.664346e+01  5.165358e+00  1.948176e+00
      vertex  -6.717377e+01  5.073993e+00  2.367592e+00
    endloop
  endfacet
  facet normal -9.817387e-02 -9.947850e-01  2.765034e-02
    outer loop
      vertex  -6.780653e+01  3.755045e+00  3.418746e+00
      vertex  -6.748247e+01  3.692338e+00  2.313323e+00
      vertex  -6.652779e+01  3.692338e+00  5.702929e+00
    endloop
  endfacet
  facet normal -9.235889e-01  4.209196e-02  3.810668e-01
    outer loop
      vertex  -6.758369e+01  4.458866e+00  3.881098e+00
      vertex  -6.780653e+01  3.755045e+00  3.418746e+00
      vertex  -6.730520e+01  3.692440e+00  4.640744e+00
    endloop
  endfacet
  facet normal -9.666425e-01  2.066209e-01  1.513608e-01
    outer loop
      vertex  -6.765767e+01  4.682951e+00  3.102774e+00
      vertex  -6.780653e+01  3.755045e+00  3.418746e+00
      vertex  -6.758369e+01  4.458866e+00  3.881098e+00
    endloop
  endfacet
  facet normal -9.571825e-01  5.690908e-02 -2.838361e-01
    outer loop
      vertex  -6.765767e+01  4.682951e+00  3.102774e+00
      vertex  -6.748247e+01  3.692338e+00  2.313323e+00
      vertex  -6.780653e+01  3.755045e+00  3.418746e+00
    endloop
  endfacet
  facet normal -4.868892e-01  1.763503e-01 -8.554762e-01
    outer loop
      vertex  -6.619634e+01  4.790321e+00  1.616389e+00
      vertex  -6.717550e+01  4.131718e+00  2.037903e+00
      vertex  -6.664346e+01  5.165358e+00  1.948176e+00
    endloop
  endfacet
  facet normal -8.642735e-01  2.110331e-01 -4.566139e-01
    outer loop
      vertex  -6.765767e+01  4.682951e+00  3.102774e+00
      vertex  -6.717377e+01  5.073993e+00  2.367592e+00
      vertex  -6.748247e+01  3.692338e+00  2.313323e+00
    endloop
  endfacet
  facet normal -8.026608e-01  5.472218e-01 -2.372428e-01
    outer loop
      vertex  -6.717377e+01  5.073993e+00  2.367592e+00
      vertex  -6.765767e+01  4.682951e+00  3.102774e+00
      vertex  -6.688534e+01  5.915963e+00  3.333807e+00
    endloop
  endfacet
  facet normal -6.262489e-01  2.584945e-01 -7.355222e-01
    outer loop
      vertex  -6.664346e+01  5.165358e+00  1.948176e+00
      vertex  -6.717550e+01  4.131718e+00  2.037903e+00
      vertex  -6.717377e+01  5.073993e+00  2.367592e+00
    endloop
  endfacet
  facet normal -4.597621e-01  1.204277e-01 -8.798386e-01
    outer loop
      vertex  -6.619634e+01  4.790321e+00  1.616389e+00
      vertex  -6.640755e+01  3.692338e+00  1.576472e+00
      vertex  -6.717550e+01  4.131718e+00  2.037903e+00
    endloop
  endfacet
  facet normal -2.263234e-07 -1.000000e+00 -6.594749e-09
    outer loop
      vertex  -6.652779e+01  3.692338e+00  5.702929e+00
      vertex  -6.748247e+01  3.692338e+00  2.313323e+00
      vertex  -6.640755e+01  3.692338e+00  1.576472e+00
    endloop
  endfacet
  facet normal -7.975312e-01  2.005346e-01 -5.689725e-01
    outer loop
      vertex  -6.717377e+01  5.073993e+00  2.367592e+00
      vertex  -6.717550e+01  4.131718e+00  2.037903e+00
      vertex  -6.748247e+01  3.692338e+00  2.313323e+00
    endloop
  endfacet
  facet normal -5.612455e-01 -1.211082e-01 -8.187407e-01
    outer loop
      vertex  -6.748247e+01  3.692338e+00  2.313323e+00
      vertex  -6.717550e+01  4.131718e+00  2.037903e+00
      vertex  -6.640755e+01  3.692338e+00  1.576472e+00
    endloop
  endfacet
endsolid vcg
