solid STL generated by MeshLab
  facet normal  2.618867e-01  7.957401e-01  5.460889e-01
    outer loop
      vertex  -5.957096e+01  4.744713e+00  5.324485e+00
      vertex  -5.467067e+01  4.710680e+00  3.024052e+00
      vertex  -6.156525e+01  6.897113e+00  3.144487e+00
    endloop
  endfacet
  facet normal  6.811003e-03  7.146885e-01  6.994098e-01
    outer loop
      vertex  -6.156525e+01  6.897113e+00  3.144487e+00
      vertex  -6.456758e+01  3.747359e+00  6.392285e+00
      vertex  -5.957096e+01  4.744713e+00  5.324485e+00
    endloop
  endfacet
  facet normal  0.000000e+00 -1.000000e+00  0.000000e+00
    outer loop
      vertex  -6.201798e+01  3.692338e+00  1.626957e+00
      vertex  -5.377338e+01  3.692338e+00  4.054086e+00
      vertex  -6.652779e+01  3.692338e+00  5.702929e+00
    endloop
  endfacet
  facet normal  2.116181e-01 -1.390026e-02  9.772536e-01
    outer loop
      vertex  -5.957096e+01  4.744713e+00  5.324485e+00
      vertex  -6.456758e+01  3.747359e+00  6.392285e+00
      vertex  -5.377338e+01  3.692338e+00  4.054086e+00
    endloop
  endfacet
  facet normal -5.125408e-02  7.401787e-01  6.704540e-01
    outer loop
      vertex  -6.478512e+01  7.081350e+00  2.694941e+00
      vertex  -6.456758e+01  3.747359e+00  6.392285e+00
      vertex  -6.156525e+01  6.897113e+00  3.144487e+00
    endloop
  endfacet
  facet normal  7.531753e-03 -9.982730e-01  5.826088e-02
    outer loop
      vertex  -6.456758e+01  3.747359e+00  6.392285e+00
      vertex  -6.652779e+01  3.692338e+00  5.702929e+00
      vertex  -5.377338e+01  3.692338e+00  4.054086e+00
    endloop
  endfacet
  facet normal  1.858629e-01  6.277286e-01 -7.559178e-01
    outer loop
      vertex  -6.204157e+01  5.352613e+00  1.744790e+00
      vertex  -6.156525e+01  6.897113e+00  3.144487e+00
      vertex  -5.467067e+01  4.710680e+00  3.024052e+00
    endloop
  endfacet
  facet normal  1.890752e-01  3.231283e-01 -9.272749e-01
    outer loop
      vertex  -5.467067e+01  4.710680e+00  3.024052e+00
      vertex  -5.348721e+01  3.832085e+00  2.959198e+00
      vertex  -6.204157e+01  5.352613e+00  1.744790e+00
    endloop
  endfacet
  facet normal  3.462684e-02 -9.924545e-01 -1.176222e-01
    outer loop
      vertex  -5.377338e+01  3.692338e+00  4.054086e+00
      vertex  -6.201798e+01  3.692338e+00  1.626957e+00
      vertex  -5.348721e+01  3.832085e+00  2.959198e+00
    endloop
  endfacet
  facet normal  1.527435e-01  7.212237e-02 -9.856307e-01
    outer loop
      vertex  -5.348721e+01  3.832085e+00  2.959198e+00
      vertex  -6.201798e+01  3.692338e+00  1.626957e+00
      vertex  -6.204157e+01  5.352613e+00  1.744790e+00
    endloop
  endfacet
  facet normal  2.644703e-01  7.910274e-01  5.516621e-01
    outer loop
      vertex  -5.957096e+01  4.744713e+00  5.324485e+00
      vertex  -5.377338e+01  3.692338e+00  4.054086e+00
      vertex  -5.467067e+01  4.710680e+00  3.024052e+00
    endloop
  endfacet
  facet normal  5.857816e-01  7.704776e-01  2.514442e-01
    outer loop
      vertex  -5.377338e+01  3.692338e+00  4.054086e+00
      vertex  -5.348721e+01  3.832085e+00  2.959198e+00
      vertex  -5.467067e+01  4.710680e+00  3.024052e+00
    endloop
  endfacet
  facet normal -2.790110e-04  7.078990e-02 -9.974912e-01
    outer loop
      vertex  -6.201798e+01  3.692338e+00  1.626957e+00
      vertex  -6.688765e+01  3.708472e+00  1.629464e+00
      vertex  -6.204157e+01  5.352613e+00  1.744790e+00
    endloop
  endfacet
  facet normal  1.420307e-01  6.403030e-01 -7.548770e-01
    outer loop
      vertex  -6.156525e+01  6.897113e+00  3.144487e+00
      vertex  -6.204157e+01  5.352613e+00  1.744790e+00
      vertex  -6.478512e+01  7.081350e+00  2.694941e+00
    endloop
  endfacet
  facet normal -3.314964e-03 -9.999878e-01 -3.667800e-03
    outer loop
      vertex  -6.652779e+01  3.692338e+00  5.702929e+00
      vertex  -6.688765e+01  3.708472e+00  1.629464e+00
      vertex  -6.201798e+01  3.692338e+00  1.626957e+00
    endloop
  endfacet
  facet normal -1.990116e-01  7.219492e-01  6.627094e-01
    outer loop
      vertex  -6.478512e+01  7.081350e+00  2.694941e+00
      vertex  -6.688534e+01  5.915963e+00  3.333807e+00
      vertex  -6.456758e+01  3.747359e+00  6.392285e+00
    endloop
  endfacet
  facet normal -2.588852e-01  6.844812e-01  6.815159e-01
    outer loop
      vertex  -6.688534e+01  5.915963e+00  3.333807e+00
      vertex  -6.652779e+01  3.692338e+00  5.702929e+00
      vertex  -6.456758e+01  3.747359e+00  6.392285e+00
    endloop
  endfacet
  facet normal -5.017205e-01  5.289686e-01 -6.844478e-01
    outer loop
      vertex  -6.688534e+01  5.915963e+00  3.333807e+00
      vertex  -6.478512e+01  7.081350e+00  2.694941e+00
      vertex  -6.688765e+01  3.708472e+00  1.629464e+00
    endloop
  endfacet
  facet normal -9.830584e-02  3.549671e-01 -9.296958e-01
    outer loop
      vertex  -6.204157e+01  5.352613e+00  1.744790e+00
      vertex  -6.688765e+01  3.708472e+00  1.629464e+00
      vertex  -6.478512e+01  7.081350e+00  2.694941e+00
    endloop
  endfacet
  facet normal -8.087791e-01  3.629701e-01  4.627409e-01
    outer loop
      vertex  -6.688534e+01  5.915963e+00  3.333807e+00
      vertex  -6.780653e+01  3.755045e+00  3.418746e+00
      vertex  -6.652779e+01  3.692338e+00  5.702929e+00
    endloop
  endfacet
  facet normal -8.335416e-01  3.381656e-01 -4.368667e-01
    outer loop
      vertex  -6.688765e+01  3.708472e+00  1.629464e+00
      vertex  -6.780653e+01  3.755045e+00  3.418746e+00
      vertex  -6.688534e+01  5.915963e+00  3.333807e+00
    endloop
  endfacet
  facet normal -4.976388e-02 -9.987609e-01  4.405103e-04
    outer loop
      vertex  -6.652779e+01  3.692338e+00  5.702929e+00
      vertex  -6.780653e+01  3.755045e+00  3.418746e+00
      vertex  -6.688765e+01  3.708472e+00  1.629464e+00
    endloop
  endfacet
endsolid vcg
