solid STL generated by MeshLab
  facet normal  1.909190e-01  7.383006e-01  6.468866e-01
    outer loop
      vertex  -5.880378e+01  5.318830e+00  4.164958e+00
      vertex  -5.935056e+01  4.897800e+00  4.806860e+00
      vertex  -5.853861e+01  4.900174e+00  4.564516e+00
    endloop
  endfacet
  facet normal  1.733534e-01  7.493000e-01  6.391386e-01
    outer loop
      vertex  -5.880378e+01  5.318830e+00  4.164958e+00
      vertex  -5.992734e+01  5.045855e+00  4.789727e+00
      vertex  -5.935056e+01  4.897800e+00  4.806860e+00
    endloop
  endfacet
  facet normal  2.110939e-01  6.977814e-01  6.845002e-01
    outer loop
      vertex  -6.097388e+01  6.096986e+00  4.040943e+00
      vertex  -5.992734e+01  5.045855e+00  4.789727e+00
      vertex  -5.880378e+01  5.318830e+00  4.164958e+00
    endloop
  endfacet
  facet normal  2.200642e-01  7.188067e-01  6.594609e-01
    outer loop
      vertex  -5.880378e+01  5.318830e+00  4.164958e+00
      vertex  -5.943735e+01  6.065961e+00  3.562015e+00
      vertex  -6.097388e+01  6.096986e+00  4.040943e+00
    endloop
  endfacet
  facet normal  2.204882e-01  7.428845e-01  6.320661e-01
    outer loop
      vertex  -5.853861e+01  4.900174e+00  4.564516e+00
      vertex  -5.716360e+01  4.757953e+00  4.252018e+00
      vertex  -5.880378e+01  5.318830e+00  4.164958e+00
    endloop
  endfacet
  facet normal  1.387165e-01  8.699237e-01  4.732764e-01
    outer loop
      vertex  -5.935056e+01  4.897800e+00  4.806860e+00
      vertex  -5.830184e+01  4.577633e+00  5.087976e+00
      vertex  -5.853861e+01  4.900174e+00  4.564516e+00
    endloop
  endfacet
  facet normal  1.597795e-01  8.929257e-01  4.208969e-01
    outer loop
      vertex  -5.902315e+01  4.619650e+00  5.272659e+00
      vertex  -5.830184e+01  4.577633e+00  5.087976e+00
      vertex  -5.935056e+01  4.897800e+00  4.806860e+00
    endloop
  endfacet
  facet normal  2.517040e-01  8.262967e-02  9.642705e-01
    outer loop
      vertex  -5.902315e+01  4.619650e+00  5.272659e+00
      vertex  -5.772646e+01  4.032670e+00  4.984482e+00
      vertex  -5.830184e+01  4.577633e+00  5.087976e+00
    endloop
  endfacet
  facet normal  1.117801e-01  8.858088e-01  4.503864e-01
    outer loop
      vertex  -5.935056e+01  4.897800e+00  4.806860e+00
      vertex  -5.942255e+01  4.684498e+00  5.244244e+00
      vertex  -5.902315e+01  4.619650e+00  5.272659e+00
    endloop
  endfacet
  facet normal  1.930922e-01  7.101405e-01  6.770642e-01
    outer loop
      vertex  -5.880378e+01  5.318830e+00  4.164958e+00
      vertex  -5.756038e+01  5.516081e+00  3.603466e+00
      vertex  -5.943735e+01  6.065961e+00  3.562015e+00
    endloop
  endfacet
  facet normal  2.011963e-01  6.954378e-01  6.898451e-01
    outer loop
      vertex  -5.716360e+01  4.757953e+00  4.252018e+00
      vertex  -5.756038e+01  5.516081e+00  3.603466e+00
      vertex  -5.880378e+01  5.318830e+00  4.164958e+00
    endloop
  endfacet
  facet normal  1.870903e-01  8.718689e-01  4.525946e-01
    outer loop
      vertex  -5.830184e+01  4.577633e+00  5.087976e+00
      vertex  -5.746406e+01  4.555815e+00  4.783690e+00
      vertex  -5.853861e+01  4.900174e+00  4.564516e+00
    endloop
  endfacet
  facet normal  2.167612e-01 -4.310932e-04  9.762246e-01
    outer loop
      vertex  -5.902315e+01  4.619650e+00  5.272659e+00
      vertex  -5.955501e+01  4.124317e+00  5.390535e+00
      vertex  -5.772646e+01  4.032670e+00  4.984482e+00
    endloop
  endfacet
  facet normal -2.672842e-02  2.584978e-01  9.656420e-01
    outer loop
      vertex  -5.942255e+01  4.684498e+00  5.244244e+00
      vertex  -5.955501e+01  4.124317e+00  5.390535e+00
      vertex  -5.902315e+01  4.619650e+00  5.272659e+00
    endloop
  endfacet
  facet normal  1.742030e-01  7.521892e-01  6.355035e-01
    outer loop
      vertex  -5.992734e+01  5.045855e+00  4.789727e+00
      vertex  -6.049983e+01  4.689836e+00  5.368044e+00
      vertex  -5.935056e+01  4.897800e+00  4.806860e+00
    endloop
  endfacet
  facet normal  1.909811e-01  8.768102e-01  4.412824e-01
    outer loop
      vertex  -5.746406e+01  4.555815e+00  4.783690e+00
      vertex  -5.716360e+01  4.757953e+00  4.252018e+00
      vertex  -5.853861e+01  4.900174e+00  4.564516e+00
    endloop
  endfacet
  facet normal  3.398015e-01  1.835963e-01  9.224030e-01
    outer loop
      vertex  -5.830184e+01  4.577633e+00  5.087976e+00
      vertex  -5.772646e+01  4.032670e+00  4.984482e+00
      vertex  -5.746406e+01  4.555815e+00  4.783690e+00
    endloop
  endfacet
  facet normal  2.167100e-01 -1.496762e-03  9.762349e-01
    outer loop
      vertex  -5.955501e+01  4.124317e+00  5.390535e+00
      vertex  -5.809467e+01  3.804695e+00  5.065871e+00
      vertex  -5.772646e+01  4.032670e+00  4.984482e+00
    endloop
  endfacet
  facet normal  1.720997e-01 -1.945872e-01  9.656695e-01
    outer loop
      vertex  -5.955501e+01  4.124317e+00  5.390535e+00
      vertex  -5.887613e+01  3.692337e+00  5.182501e+00
      vertex  -5.809467e+01  3.804695e+00  5.065871e+00
    endloop
  endfacet
  facet normal  5.557076e-02  8.937908e-01  4.450278e-01
    outer loop
      vertex  -5.935056e+01  4.897800e+00  4.806860e+00
      vertex  -6.049983e+01  4.689836e+00  5.368044e+00
      vertex  -5.942255e+01  4.684498e+00  5.244244e+00
    endloop
  endfacet
  facet normal  2.639745e-01  9.370275e-01  2.286856e-01
    outer loop
      vertex  -5.943735e+01  6.065961e+00  3.562015e+00
      vertex  -5.834077e+01  5.842735e+00  3.210885e+00
      vertex  -5.970942e+01  6.204898e+00  3.306788e+00
    endloop
  endfacet
  facet normal  2.677302e-01  9.322252e-01  2.434676e-01
    outer loop
      vertex  -5.756038e+01  5.516081e+00  3.603466e+00
      vertex  -5.834077e+01  5.842735e+00  3.210885e+00
      vertex  -5.943735e+01  6.065961e+00  3.562015e+00
    endloop
  endfacet
  facet normal  1.538124e-01  2.858799e-01  9.458406e-01
    outer loop
      vertex  -5.772646e+01  4.032670e+00  4.984482e+00
      vertex  -5.617442e+01  4.335877e+00  4.640446e+00
      vertex  -5.746406e+01  4.555815e+00  4.783690e+00
    endloop
  endfacet
  facet normal  2.229331e-01 -3.577804e-02  9.741769e-01
    outer loop
      vertex  -5.772646e+01  4.032670e+00  4.984482e+00
      vertex  -5.637124e+01  3.692338e+00  4.661851e+00
      vertex  -5.617442e+01  4.335877e+00  4.640446e+00
    endloop
  endfacet
  facet normal  2.409193e-01 -8.690406e-02  9.666465e-01
    outer loop
      vertex  -5.955501e+01  4.124317e+00  5.390535e+00
      vertex  -6.020440e+01  3.692338e+00  5.513548e+00
      vertex  -5.887613e+01  3.692337e+00  5.182501e+00
    endloop
  endfacet
  facet normal  2.814047e-01  1.796257e-01  9.426272e-01
    outer loop
      vertex  -5.942255e+01  4.684498e+00  5.244244e+00
      vertex  -6.028043e+01  4.413215e+00  5.552045e+00
      vertex  -5.955501e+01  4.124317e+00  5.390535e+00
    endloop
  endfacet
  facet normal  9.410176e-02  6.020486e-01  7.928948e-01
    outer loop
      vertex  -6.049983e+01  4.689836e+00  5.368044e+00
      vertex  -6.028043e+01  4.413215e+00  5.552045e+00
      vertex  -5.942255e+01  4.684498e+00  5.244244e+00
    endloop
  endfacet
  facet normal  1.471216e-01  6.260583e-01  7.657717e-01
    outer loop
      vertex  -6.049983e+01  4.689836e+00  5.368044e+00
      vertex  -6.185624e+01  4.355259e+00  5.902175e+00
      vertex  -6.028043e+01  4.413215e+00  5.552045e+00
    endloop
  endfacet
  facet normal  7.365263e-02  7.502767e-01  6.570083e-01
    outer loop
      vertex  -6.049983e+01  4.689836e+00  5.368044e+00
      vertex  -6.181514e+01  4.895391e+00  5.280759e+00
      vertex  -6.185624e+01  4.355259e+00  5.902175e+00
    endloop
  endfacet
  facet normal  1.315116e-01  9.227971e-01  3.621464e-01
    outer loop
      vertex  -5.943735e+01  6.065961e+00  3.562015e+00
      vertex  -5.970942e+01  6.204898e+00  3.306788e+00
      vertex  -6.097388e+01  6.096986e+00  4.040943e+00
    endloop
  endfacet
  facet normal  2.031077e-01  8.808155e-01 -4.276813e-01
    outer loop
      vertex  -5.834077e+01  5.842735e+00  3.210885e+00
      vertex  -5.794055e+01  5.516825e+00  2.729736e+00
      vertex  -5.970942e+01  6.204898e+00  3.306788e+00
    endloop
  endfacet
  facet normal  2.429147e-01  9.263401e-01  2.879002e-01
    outer loop
      vertex  -5.756038e+01  5.516081e+00  3.603466e+00
      vertex  -5.711065e+01  5.449945e+00  3.436801e+00
      vertex  -5.834077e+01  5.842735e+00  3.210885e+00
    endloop
  endfacet
  facet normal  3.268489e-01  7.394382e-01  5.885584e-01
    outer loop
      vertex  -5.736464e+01  5.248298e+00  3.831193e+00
      vertex  -5.711065e+01  5.449945e+00  3.436801e+00
      vertex  -5.756038e+01  5.516081e+00  3.603466e+00
    endloop
  endfacet
  facet normal  1.736077e-01  8.270416e-01  5.346610e-01
    outer loop
      vertex  -5.736464e+01  5.248298e+00  3.831193e+00
      vertex  -5.684911e+01  5.233097e+00  3.687312e+00
      vertex  -5.711065e+01  5.449945e+00  3.436801e+00
    endloop
  endfacet
  facet normal -2.666458e-01 -7.300332e-01 -6.292468e-01
    outer loop
      vertex  -5.756038e+01  5.516081e+00  3.603466e+00
      vertex  -5.666244e+01  4.862106e+00  3.981680e+00
      vertex  -5.736464e+01  5.248298e+00  3.831193e+00
    endloop
  endfacet
  facet normal  2.219535e-01  6.983150e-01  6.805093e-01
    outer loop
      vertex  -5.716360e+01  4.757953e+00  4.252018e+00
      vertex  -5.666244e+01  4.862106e+00  3.981680e+00
      vertex  -5.756038e+01  5.516081e+00  3.603466e+00
    endloop
  endfacet
  facet normal  1.983420e-01  8.736723e-01  4.442491e-01
    outer loop
      vertex  -5.746406e+01  4.555815e+00  4.783690e+00
      vertex  -5.617442e+01  4.335877e+00  4.640446e+00
      vertex  -5.716360e+01  4.757953e+00  4.252018e+00
    endloop
  endfacet
  facet normal  8.869375e-02 -4.761775e-01  8.748648e-01
    outer loop
      vertex  -5.772646e+01  4.032670e+00  4.984482e+00
      vertex  -5.766005e+01  3.692338e+00  4.792511e+00
      vertex  -5.637124e+01  3.692338e+00  4.661851e+00
    endloop
  endfacet
  facet normal  4.189544e-01 -3.827136e-01  8.234121e-01
    outer loop
      vertex  -5.809467e+01  3.804695e+00  5.065871e+00
      vertex  -5.766005e+01  3.692338e+00  4.792511e+00
      vertex  -5.772646e+01  4.032670e+00  4.984482e+00
    endloop
  endfacet
  facet normal  2.018275e-01 -7.504588e-01  6.293467e-01
    outer loop
      vertex  -5.887613e+01  3.692337e+00  5.182501e+00
      vertex  -5.766005e+01  3.692338e+00  4.792511e+00
      vertex  -5.809467e+01  3.804695e+00  5.065871e+00
    endloop
  endfacet
  facet normal -1.965342e-07 -1.000000e+00 -6.836436e-08
    outer loop
      vertex  -5.887613e+01  3.692337e+00  5.182501e+00
      vertex  -6.020440e+01  3.692338e+00  5.513548e+00
      vertex  -6.025696e+01  3.692338e+00  2.177165e+00
    endloop
  endfacet
  facet normal  2.056129e-01 -3.055051e-02  9.781564e-01
    outer loop
      vertex  -5.955501e+01  4.124317e+00  5.390535e+00
      vertex  -6.028043e+01  4.413215e+00  5.552045e+00
      vertex  -6.020440e+01  3.692338e+00  5.513548e+00
    endloop
  endfacet
  facet normal  8.744378e-02  8.073405e-01  5.835708e-01
    outer loop
      vertex  -6.049983e+01  4.689836e+00  5.368044e+00
      vertex  -5.992734e+01  5.045855e+00  4.789727e+00
      vertex  -6.181514e+01  4.895391e+00  5.280759e+00
    endloop
  endfacet
  facet normal  1.201095e-01  6.525486e-01  7.481673e-01
    outer loop
      vertex  -5.992734e+01  5.045855e+00  4.789727e+00
      vertex  -6.097388e+01  6.096986e+00  4.040943e+00
      vertex  -6.176876e+01  5.285302e+00  4.876500e+00
    endloop
  endfacet
  facet normal  2.216214e-01  5.856079e-01  7.797098e-01
    outer loop
      vertex  -6.097388e+01  6.096986e+00  4.040943e+00
      vertex  -6.202344e+01  5.980572e+00  4.426700e+00
      vertex  -6.176876e+01  5.285302e+00  4.876500e+00
    endloop
  endfacet
  facet normal  2.098096e-01  9.544243e-01 -2.122597e-01
    outer loop
      vertex  -5.931683e+01  6.019838e+00  2.862732e+00
      vertex  -6.152221e+01  6.458558e+00  2.655502e+00
      vertex  -5.970942e+01  6.204898e+00  3.306788e+00
    endloop
  endfacet
  facet normal  3.334974e-01  9.378507e-01 -9.599812e-02
    outer loop
      vertex  -5.970942e+01  6.204898e+00  3.306788e+00
      vertex  -5.794055e+01  5.516825e+00  2.729736e+00
      vertex  -5.931683e+01  6.019838e+00  2.862732e+00
    endloop
  endfacet
  facet normal  2.362263e-01  7.943127e-01 -5.597003e-01
    outer loop
      vertex  -5.794055e+01  5.516825e+00  2.729736e+00
      vertex  -5.877174e+01  5.664524e+00  2.588535e+00
      vertex  -5.931683e+01  6.019838e+00  2.862732e+00
    endloop
  endfacet
  facet normal  2.978002e-01  9.539115e-01  3.698351e-02
    outer loop
      vertex  -5.711065e+01  5.449945e+00  3.436801e+00
      vertex  -5.668971e+01  5.329935e+00  3.142732e+00
      vertex  -5.834077e+01  5.842735e+00  3.210885e+00
    endloop
  endfacet
  facet normal  4.391873e-01  8.535395e-01  2.803299e-01
    outer loop
      vertex  -5.684911e+01  5.233097e+00  3.687312e+00
      vertex  -5.668971e+01  5.329935e+00  3.142732e+00
      vertex  -5.711065e+01  5.449945e+00  3.436801e+00
    endloop
  endfacet
  facet normal  2.175009e-01  6.715032e-01  7.083620e-01
    outer loop
      vertex  -5.736464e+01  5.248298e+00  3.831193e+00
      vertex  -5.666244e+01  4.862106e+00  3.981680e+00
      vertex  -5.684911e+01  5.233097e+00  3.687312e+00
    endloop
  endfacet
  facet normal  2.032212e-07 -1.000000e+00  2.234764e-08
    outer loop
      vertex  -5.887613e+01  3.692337e+00  5.182501e+00
      vertex  -5.739421e+01  3.692338e+00  2.375108e+00
      vertex  -5.766005e+01  3.692338e+00  4.792511e+00
    endloop
  endfacet
  facet normal -7.468523e-08 -1.000000e+00 -1.243488e-07
    outer loop
      vertex  -5.887613e+01  3.692337e+00  5.182501e+00
      vertex  -6.025696e+01  3.692338e+00  2.177165e+00
      vertex  -5.739421e+01  3.692338e+00  2.375108e+00
    endloop
  endfacet
  facet normal  2.178293e-01 -2.912297e-02  9.755523e-01
    outer loop
      vertex  -6.028043e+01  4.413215e+00  5.552045e+00
      vertex  -6.185624e+01  4.355259e+00  5.902175e+00
      vertex  -6.020440e+01  3.692338e+00  5.513548e+00
    endloop
  endfacet
  facet normal  1.247339e-01  7.069537e-01  6.961738e-01
    outer loop
      vertex  -5.992734e+01  5.045855e+00  4.789727e+00
      vertex  -6.176876e+01  5.285302e+00  4.876500e+00
      vertex  -6.181514e+01  4.895391e+00  5.280759e+00
    endloop
  endfacet
  facet normal  1.717772e-01  7.109650e-01  6.819246e-01
    outer loop
      vertex  -6.097388e+01  6.096986e+00  4.040943e+00
      vertex  -6.184474e+01  6.334755e+00  4.012420e+00
      vertex  -6.202344e+01  5.980572e+00  4.426700e+00
    endloop
  endfacet
  facet normal  2.141307e-01  8.433998e-01  4.927727e-01
    outer loop
      vertex  -5.970942e+01  6.204898e+00  3.306788e+00
      vertex  -6.184474e+01  6.334755e+00  4.012420e+00
      vertex  -6.097388e+01  6.096986e+00  4.040943e+00
    endloop
  endfacet
  facet normal  2.020939e-01  8.690134e-01  4.516345e-01
    outer loop
      vertex  -5.970942e+01  6.204898e+00  3.306788e+00
      vertex  -6.180648e+01  6.615139e+00  3.455796e+00
      vertex  -6.184474e+01  6.334755e+00  4.012420e+00
    endloop
  endfacet
  facet normal  2.029500e-01  9.604133e-01 -1.908341e-01
    outer loop
      vertex  -5.970942e+01  6.204898e+00  3.306788e+00
      vertex  -6.152221e+01  6.458558e+00  2.655502e+00
      vertex  -6.210533e+01  6.636566e+00  2.931223e+00
    endloop
  endfacet
  facet normal  2.158874e-01  7.821968e-01 -5.844321e-01
    outer loop
      vertex  -5.877174e+01  5.664524e+00  2.588535e+00
      vertex  -6.084501e+01  6.050601e+00  2.339396e+00
      vertex  -5.931683e+01  6.019838e+00  2.862732e+00
    endloop
  endfacet
  facet normal  1.994328e-01  5.457969e-01 -8.138379e-01
    outer loop
      vertex  -5.877174e+01  5.664524e+00  2.588535e+00
      vertex  -6.030687e+01  5.477174e+00  2.086704e+00
      vertex  -6.084501e+01  6.050601e+00  2.339396e+00
    endloop
  endfacet
  facet normal  2.349156e-01  5.677544e-01 -7.889674e-01
    outer loop
      vertex  -5.794055e+01  5.516825e+00  2.729736e+00
      vertex  -5.844709e+01  5.195093e+00  2.347391e+00
      vertex  -5.877174e+01  5.664524e+00  2.588535e+00
    endloop
  endfacet
  facet normal  2.158036e-01  5.872838e-01 -7.800810e-01
    outer loop
      vertex  -5.794055e+01  5.516825e+00  2.729736e+00
      vertex  -5.654700e+01  5.059216e+00  2.770741e+00
      vertex  -5.844709e+01  5.195093e+00  2.347391e+00
    endloop
  endfacet
  facet normal  2.593075e-01  8.859847e-01 -3.844354e-01
    outer loop
      vertex  -5.834077e+01  5.842735e+00  3.210885e+00
      vertex  -5.668971e+01  5.329935e+00  3.142732e+00
      vertex  -5.794055e+01  5.516825e+00  2.729736e+00
    endloop
  endfacet
  facet normal  2.849201e-01  8.237411e-01 -4.901748e-01
    outer loop
      vertex  -5.668971e+01  5.329935e+00  3.142732e+00
      vertex  -5.654700e+01  5.059216e+00  2.770741e+00
      vertex  -5.794055e+01  5.516825e+00  2.729736e+00
    endloop
  endfacet
  facet normal  2.557295e-01  9.361448e-01  2.413200e-01
    outer loop
      vertex  -5.684911e+01  5.233097e+00  3.687312e+00
      vertex  -5.586926e+01  5.087965e+00  3.211957e+00
      vertex  -5.668971e+01  5.329935e+00  3.142732e+00
    endloop
  endfacet
  facet normal  3.226418e-01  8.561227e-01  4.036783e-01
    outer loop
      vertex  -5.684911e+01  5.233097e+00  3.687312e+00
      vertex  -5.606407e+01  4.886165e+00  3.795639e+00
      vertex  -5.586926e+01  5.087965e+00  3.211957e+00
    endloop
  endfacet
  facet normal  1.962612e-01  6.681818e-01  7.176452e-01
    outer loop
      vertex  -5.666244e+01  4.862106e+00  3.981680e+00
      vertex  -5.606407e+01  4.886165e+00  3.795639e+00
      vertex  -5.684911e+01  5.233097e+00  3.687312e+00
    endloop
  endfacet
  facet normal  1.768423e-01  7.275544e-01  6.628661e-01
    outer loop
      vertex  -5.666244e+01  4.862106e+00  3.981680e+00
      vertex  -5.601202e+01  4.432804e+00  4.279356e+00
      vertex  -5.606407e+01  4.886165e+00  3.795639e+00
    endloop
  endfacet
  facet normal  1.936520e-01  7.400156e-01  6.441085e-01
    outer loop
      vertex  -5.716360e+01  4.757953e+00  4.252018e+00
      vertex  -5.601202e+01  4.432804e+00  4.279356e+00
      vertex  -5.666244e+01  4.862106e+00  3.981680e+00
    endloop
  endfacet
  facet normal  2.464487e-01  9.025400e-01  3.531070e-01
    outer loop
      vertex  -5.617442e+01  4.335877e+00  4.640446e+00
      vertex  -5.601202e+01  4.432804e+00  4.279356e+00
      vertex  -5.716360e+01  4.757953e+00  4.252018e+00
    endloop
  endfacet
  facet normal  2.232380e-01  9.116280e-01  3.451075e-01
    outer loop
      vertex  -5.617442e+01  4.335877e+00  4.640446e+00
      vertex  -5.555184e+01  4.236484e+00  4.500278e+00
      vertex  -5.601202e+01  4.432804e+00  4.279356e+00
    endloop
  endfacet
  facet normal  2.144851e-01 -3.312819e-02  9.761653e-01
    outer loop
      vertex  -5.637124e+01  3.692338e+00  4.661851e+00
      vertex  -5.555184e+01  4.236484e+00  4.500278e+00
      vertex  -5.617442e+01  4.335877e+00  4.640446e+00
    endloop
  endfacet
  facet normal  2.776379e-01 -1.356817e-01  9.510561e-01
    outer loop
      vertex  -5.637124e+01  3.692338e+00  4.661851e+00
      vertex  -5.545191e+01  3.692337e+00  4.393475e+00
      vertex  -5.555184e+01  4.236484e+00  4.500278e+00
    endloop
  endfacet
  facet normal -6.701258e-05 -9.999998e-01 -6.610042e-04
    outer loop
      vertex  -5.766005e+01  3.692338e+00  4.792511e+00
      vertex  -5.632729e+01  3.693794e+00  2.454293e+00
      vertex  -5.637124e+01  3.692338e+00  4.661851e+00
    endloop
  endfacet
  facet normal -3.091027e-02  7.553944e-01  6.545409e-01
    outer loop
      vertex  -6.181514e+01  4.895391e+00  5.280759e+00
      vertex  -6.293499e+01  4.407943e+00  5.790431e+00
      vertex  -6.185624e+01  4.355259e+00  5.902175e+00
    endloop
  endfacet
  facet normal  2.397699e-02  6.956404e-01  7.179900e-01
    outer loop
      vertex  -6.181514e+01  4.895391e+00  5.280759e+00
      vertex  -6.255262e+01  5.041667e+00  5.163664e+00
      vertex  -6.293499e+01  4.407943e+00  5.790431e+00
    endloop
  endfacet
  facet normal  3.185676e-02  7.175702e-01  6.957573e-01
    outer loop
      vertex  -6.176876e+01  5.285302e+00  4.876500e+00
      vertex  -6.255262e+01  5.041667e+00  5.163664e+00
      vertex  -6.181514e+01  4.895391e+00  5.280759e+00
    endloop
  endfacet
  facet normal  1.202562e-01  5.706069e-01  8.123708e-01
    outer loop
      vertex  -6.176876e+01  5.285302e+00  4.876500e+00
      vertex  -6.372079e+01  6.100364e+00  4.592964e+00
      vertex  -6.255262e+01  5.041667e+00  5.163664e+00
    endloop
  endfacet
  facet normal  1.870091e-01  9.801043e-01 -6.650688e-02
    outer loop
      vertex  -5.970942e+01  6.204898e+00  3.306788e+00
      vertex  -6.210533e+01  6.636566e+00  2.931223e+00
      vertex  -6.180648e+01  6.615139e+00  3.455796e+00
    endloop
  endfacet
  facet normal  2.114628e-01  7.933516e-01 -5.708562e-01
    outer loop
      vertex  -5.931683e+01  6.019838e+00  2.862732e+00
      vertex  -6.084501e+01  6.050601e+00  2.339396e+00
      vertex  -6.152221e+01  6.458558e+00  2.655502e+00
    endloop
  endfacet
  facet normal  1.973120e-01  5.524710e-01 -8.098419e-01
    outer loop
      vertex  -5.877174e+01  5.664524e+00  2.588535e+00
      vertex  -5.844709e+01  5.195093e+00  2.347391e+00
      vertex  -6.030687e+01  5.477174e+00  2.086704e+00
    endloop
  endfacet
  facet normal  2.242864e-01  4.605543e-01 -8.588279e-01
    outer loop
      vertex  -5.654700e+01  5.059216e+00  2.770741e+00
      vertex  -5.644514e+01  4.638296e+00  2.571620e+00
      vertex  -5.844709e+01  5.195093e+00  2.347391e+00
    endloop
  endfacet
  facet normal  2.843344e-01  8.237889e-01 -4.904343e-01
    outer loop
      vertex  -5.668971e+01  5.329935e+00  3.142732e+00
      vertex  -5.586926e+01  5.087965e+00  3.211957e+00
      vertex  -5.654700e+01  5.059216e+00  2.770741e+00
    endloop
  endfacet
  facet normal  8.693294e-02  9.322125e-01  3.513155e-01
    outer loop
      vertex  -5.606407e+01  4.886165e+00  3.795639e+00
      vertex  -5.553136e+01  4.963700e+00  3.458081e+00
      vertex  -5.586926e+01  5.087965e+00  3.211957e+00
    endloop
  endfacet
  facet normal  2.479631e-01  7.200145e-01  6.481462e-01
    outer loop
      vertex  -5.601202e+01  4.432804e+00  4.279356e+00
      vertex  -5.488221e+01  4.671978e+00  3.581426e+00
      vertex  -5.606407e+01  4.886165e+00  3.795639e+00
    endloop
  endfacet
  facet normal  3.753274e-02 -1.858247e-01  9.818658e-01
    outer loop
      vertex  -5.545191e+01  3.692337e+00  4.393475e+00
      vertex  -5.500384e+01  3.701022e+00  4.377991e+00
      vertex  -5.555184e+01  4.236484e+00  4.500278e+00
    endloop
  endfacet
  facet normal -1.939613e-04 -9.999998e-01 -6.635314e-04
    outer loop
      vertex  -5.632729e+01  3.693794e+00  2.454293e+00
      vertex  -5.545191e+01  3.692337e+00  4.393475e+00
      vertex  -5.637124e+01  3.692338e+00  4.661851e+00
    endloop
  endfacet
  facet normal  9.563130e-10 -1.000000e+00 -7.147526e-08
    outer loop
      vertex  -6.025696e+01  3.692338e+00  2.177165e+00
      vertex  -6.020440e+01  3.692338e+00  5.513548e+00
      vertex  -6.199512e+01  3.692338e+00  5.489589e+00
    endloop
  endfacet
  facet normal  2.250593e-01 -1.036759e-02  9.742899e-01
    outer loop
      vertex  -6.185624e+01  4.355259e+00  5.902175e+00
      vertex  -6.228288e+01  3.718278e+00  5.993948e+00
      vertex  -6.020440e+01  3.692338e+00  5.513548e+00
    endloop
  endfacet
  facet normal -4.553623e-02  6.593519e-01  7.504543e-01
    outer loop
      vertex  -6.293499e+01  4.407943e+00  5.790431e+00
      vertex  -6.289280e+01  4.020723e+00  6.133203e+00
      vertex  -6.185624e+01  4.355259e+00  5.902175e+00
    endloop
  endfacet
  facet normal  1.198514e-01  5.698443e-01  8.129656e-01
    outer loop
      vertex  -6.176876e+01  5.285302e+00  4.876500e+00
      vertex  -6.202344e+01  5.980572e+00  4.426700e+00
      vertex  -6.372079e+01  6.100364e+00  4.592964e+00
    endloop
  endfacet
  facet normal  1.167053e-01  7.294662e-01  6.739873e-01
    outer loop
      vertex  -6.184474e+01  6.334755e+00  4.012420e+00
      vertex  -6.387280e+01  6.356538e+00  4.340016e+00
      vertex  -6.202344e+01  5.980572e+00  4.426700e+00
    endloop
  endfacet
  facet normal  2.674836e-01  8.530383e-01  4.480827e-01
    outer loop
      vertex  -6.180648e+01  6.615139e+00  3.455796e+00
      vertex  -6.223080e+01  6.617957e+00  3.703734e+00
      vertex  -6.184474e+01  6.334755e+00  4.012420e+00
    endloop
  endfacet
  facet normal  1.276016e-01  9.699079e-01  2.073555e-01
    outer loop
      vertex  -6.180648e+01  6.615139e+00  3.455796e+00
      vertex  -6.226509e+01  6.716739e+00  3.262783e+00
      vertex  -6.223080e+01  6.617957e+00  3.703734e+00
    endloop
  endfacet
  facet normal  2.580658e-01  9.600936e-01 -1.078061e-01
    outer loop
      vertex  -6.210533e+01  6.636566e+00  2.931223e+00
      vertex  -6.226509e+01  6.716739e+00  3.262783e+00
      vertex  -6.180648e+01  6.615139e+00  3.455796e+00
    endloop
  endfacet
  facet normal  7.718541e-02  9.040416e-01 -4.204178e-01
    outer loop
      vertex  -6.152221e+01  6.458558e+00  2.655502e+00
      vertex  -6.191444e+01  6.398085e+00  2.453456e+00
      vertex  -6.210533e+01  6.636566e+00  2.931223e+00
    endloop
  endfacet
  facet normal  1.888260e-01  7.778754e-01 -5.993784e-01
    outer loop
      vertex  -6.084501e+01  6.050601e+00  2.339396e+00
      vertex  -6.191444e+01  6.398085e+00  2.453456e+00
      vertex  -6.152221e+01  6.458558e+00  2.655502e+00
    endloop
  endfacet
  facet normal  1.423091e-01  6.754661e-01 -7.235287e-01
    outer loop
      vertex  -6.084501e+01  6.050601e+00  2.339396e+00
      vertex  -6.234804e+01  6.095438e+00  2.085629e+00
      vertex  -6.191444e+01  6.398085e+00  2.453456e+00
    endloop
  endfacet
  facet normal  1.702750e-01  5.267776e-01 -8.327736e-01
    outer loop
      vertex  -6.084501e+01  6.050601e+00  2.339396e+00
      vertex  -6.030687e+01  5.477174e+00  2.086704e+00
      vertex  -6.175500e+01  5.695560e+00  1.928750e+00
    endloop
  endfacet
  facet normal  1.545292e-01  3.589268e-01 -9.204848e-01
    outer loop
      vertex  -6.030687e+01  5.477174e+00  2.086704e+00
      vertex  -6.068858e+01  5.199247e+00  1.914249e+00
      vertex  -6.175500e+01  5.695560e+00  1.928750e+00
    endloop
  endfacet
  facet normal  1.722736e-01  2.570009e-01 -9.509324e-01
    outer loop
      vertex  -5.844709e+01  5.195093e+00  2.347391e+00
      vertex  -5.844347e+01  4.394931e+00  2.131793e+00
      vertex  -6.030687e+01  5.477174e+00  2.086704e+00
    endloop
  endfacet
  facet normal  1.778165e-01  2.567679e-01 -9.499745e-01
    outer loop
      vertex  -5.844709e+01  5.195093e+00  2.347391e+00
      vertex  -5.644514e+01  4.638296e+00  2.571620e+00
      vertex  -5.844347e+01  4.394931e+00  2.131793e+00
    endloop
  endfacet
  facet normal  1.967306e-01  1.387246e-01 -9.705939e-01
    outer loop
      vertex  -5.644514e+01  4.638296e+00  2.571620e+00
      vertex  -5.772362e+01  4.073696e+00  2.231787e+00
      vertex  -5.844347e+01  4.394931e+00  2.131793e+00
    endloop
  endfacet
  facet normal  2.027879e-01  4.584113e-01 -8.652954e-01
    outer loop
      vertex  -5.654700e+01  5.059216e+00  2.770741e+00
      vertex  -5.576548e+01  4.810868e+00  2.822328e+00
      vertex  -5.644514e+01  4.638296e+00  2.571620e+00
    endloop
  endfacet
  facet normal  2.919106e-01  8.144463e-01 -5.014632e-01
    outer loop
      vertex  -5.586926e+01  5.087965e+00  3.211957e+00
      vertex  -5.576548e+01  4.810868e+00  2.822328e+00
      vertex  -5.654700e+01  5.059216e+00  2.770741e+00
    endloop
  endfacet
  facet normal  5.507838e-01  7.424562e-01 -3.813083e-01
    outer loop
      vertex  -5.553136e+01  4.963700e+00  3.458081e+00
      vertex  -5.576548e+01  4.810868e+00  2.822328e+00
      vertex  -5.586926e+01  5.087965e+00  3.211957e+00
    endloop
  endfacet
  facet normal  2.453082e-01  7.858803e-01  5.676408e-01
    outer loop
      vertex  -5.606407e+01  4.886165e+00  3.795639e+00
      vertex  -5.488221e+01  4.671978e+00  3.581426e+00
      vertex  -5.553136e+01  4.963700e+00  3.458081e+00
    endloop
  endfacet
  facet normal  1.264737e-01  8.575500e-01  4.986104e-01
    outer loop
      vertex  -5.555184e+01  4.236484e+00  4.500278e+00
      vertex  -5.488221e+01  4.671978e+00  3.581426e+00
      vertex  -5.601202e+01  4.432804e+00  4.279356e+00
    endloop
  endfacet
  facet normal  2.187900e-01  8.103746e-01  5.435291e-01
    outer loop
      vertex  -5.555184e+01  4.236484e+00  4.500278e+00
      vertex  -5.474963e+01  4.167017e+00  4.280931e+00
      vertex  -5.488221e+01  4.671978e+00  3.581426e+00
    endloop
  endfacet
  facet normal  2.677314e-01  5.431154e-02  9.619616e-01
    outer loop
      vertex  -5.500384e+01  3.701022e+00  4.377991e+00
      vertex  -5.474963e+01  4.167017e+00  4.280931e+00
      vertex  -5.555184e+01  4.236484e+00  4.500278e+00
    endloop
  endfacet
  facet normal  2.015045e-02 -9.995438e-01  2.249925e-02
    outer loop
      vertex  -5.545191e+01  3.692337e+00  4.393475e+00
      vertex  -5.415726e+01  3.692337e+00  3.233982e+00
      vertex  -5.500384e+01  3.701022e+00  4.377991e+00
    endloop
  endfacet
  facet normal -6.820405e-04 -9.986997e-01  5.097599e-02
    outer loop
      vertex  -6.228288e+01  3.718278e+00  5.993948e+00
      vertex  -6.199512e+01  3.692338e+00  5.489589e+00
      vertex  -6.020440e+01  3.692338e+00  5.513548e+00
    endloop
  endfacet
  facet normal  2.195275e-01 -6.475977e-03  9.755848e-01
    outer loop
      vertex  -6.289280e+01  4.020723e+00  6.133203e+00
      vertex  -6.228288e+01  3.718278e+00  5.993948e+00
      vertex  -6.185624e+01  4.355259e+00  5.902175e+00
    endloop
  endfacet
  facet normal  9.938475e-02 -2.437640e-01  9.647289e-01
    outer loop
      vertex  -6.289280e+01  4.020723e+00  6.133203e+00
      vertex  -6.370521e+01  3.707908e+00  6.137855e+00
      vertex  -6.228288e+01  3.718278e+00  5.993948e+00
    endloop
  endfacet
  facet normal  1.173950e-01  7.321566e-01  6.709435e-01
    outer loop
      vertex  -6.202344e+01  5.980572e+00  4.426700e+00
      vertex  -6.387280e+01  6.356538e+00  4.340016e+00
      vertex  -6.372079e+01  6.100364e+00  4.592964e+00
    endloop
  endfacet
  facet normal  1.050893e-01  7.947778e-01  5.977327e-01
    outer loop
      vertex  -6.184474e+01  6.334755e+00  4.012420e+00
      vertex  -6.223080e+01  6.617957e+00  3.703734e+00
      vertex  -6.387280e+01  6.356538e+00  4.340016e+00
    endloop
  endfacet
  facet normal  1.548613e-01  5.512934e-01 -8.198131e-01
    outer loop
      vertex  -6.175500e+01  5.695560e+00  1.928750e+00
      vertex  -6.234804e+01  6.095438e+00  2.085629e+00
      vertex  -6.084501e+01  6.050601e+00  2.339396e+00
    endloop
  endfacet
  facet normal  2.145364e-01  2.850233e-01 -9.342033e-01
    outer loop
      vertex  -6.030687e+01  5.477174e+00  2.086704e+00
      vertex  -6.005179e+01  4.652718e+00  1.893741e+00
      vertex  -6.068858e+01  5.199247e+00  1.914249e+00
    endloop
  endfacet
  facet normal  1.840588e-01  2.776275e-01 -9.428920e-01
    outer loop
      vertex  -6.030687e+01  5.477174e+00  2.086704e+00
      vertex  -5.844347e+01  4.394931e+00  2.131793e+00
      vertex  -6.005179e+01  4.652718e+00  1.893741e+00
    endloop
  endfacet
  facet normal  1.939911e-01  1.447318e-01 -9.702681e-01
    outer loop
      vertex  -5.644514e+01  4.638296e+00  2.571620e+00
      vertex  -5.632729e+01  3.693794e+00  2.454293e+00
      vertex  -5.772362e+01  4.073696e+00  2.231787e+00
    endloop
  endfacet
  facet normal  2.916446e-01  2.078048e-01 -9.336812e-01
    outer loop
      vertex  -5.576548e+01  4.810868e+00  2.822328e+00
      vertex  -5.616022e+01  4.171062e+00  2.556626e+00
      vertex  -5.644514e+01  4.638296e+00  2.571620e+00
    endloop
  endfacet
  facet normal  1.167951e-01  9.550148e-01 -2.725902e-01
    outer loop
      vertex  -5.553136e+01  4.963700e+00  3.458081e+00
      vertex  -5.500796e+01  4.819108e+00  3.175764e+00
      vertex  -5.576548e+01  4.810868e+00  2.822328e+00
    endloop
  endfacet
  facet normal  3.660549e-01  9.054356e-01  2.149190e-01
    outer loop
      vertex  -5.488221e+01  4.671978e+00  3.581426e+00
      vertex  -5.500796e+01  4.819108e+00  3.175764e+00
      vertex  -5.553136e+01  4.963700e+00  3.458081e+00
    endloop
  endfacet
  facet normal  3.503366e-01  9.100634e-01  2.214700e-01
    outer loop
      vertex  -5.488221e+01  4.671978e+00  3.581426e+00
      vertex  -5.406382e+01  4.339602e+00  3.652646e+00
      vertex  -5.500796e+01  4.819108e+00  3.175764e+00
    endloop
  endfacet
  facet normal  2.802165e-01  8.027466e-01  5.263808e-01
    outer loop
      vertex  -5.474963e+01  4.167017e+00  4.280931e+00
      vertex  -5.406382e+01  4.339602e+00  3.652646e+00
      vertex  -5.488221e+01  4.671978e+00  3.581426e+00
    endloop
  endfacet
  facet normal  2.544852e-01  6.218589e-02  9.650752e-01
    outer loop
      vertex  -5.500384e+01  3.701022e+00  4.377991e+00
      vertex  -5.377338e+01  3.692338e+00  4.054086e+00
      vertex  -5.474963e+01  4.167017e+00  4.280931e+00
    endloop
  endfacet
  facet normal -0.000000e+00 -1.000000e+00  0.000000e+00
    outer loop
      vertex  -5.415726e+01  3.692337e+00  3.233982e+00
      vertex  -5.545191e+01  3.692337e+00  4.393475e+00
      vertex  -5.542287e+01  3.692337e+00  2.658750e+00
    endloop
  endfacet
  facet normal -1.604345e-03 -9.999987e-01 -2.685508e-05
    outer loop
      vertex  -5.632729e+01  3.693794e+00  2.454293e+00
      vertex  -5.542287e+01  3.692337e+00  2.658750e+00
      vertex  -5.545191e+01  3.692337e+00  4.393475e+00
    endloop
  endfacet
  facet normal  1.353868e-03 -9.999991e-01  1.488809e-04
    outer loop
      vertex  -5.766005e+01  3.692338e+00  4.792511e+00
      vertex  -5.739421e+01  3.692338e+00  2.375108e+00
      vertex  -5.632729e+01  3.693794e+00  2.454293e+00
    endloop
  endfacet
  facet normal  8.883450e-03 -8.200708e-03  9.999269e-01
    outer loop
      vertex  -6.289280e+01  4.020723e+00  6.133203e+00
      vertex  -6.322005e+01  4.233465e+00  6.137855e+00
      vertex  -6.370521e+01  3.707908e+00  6.137855e+00
    endloop
  endfacet
  facet normal  4.172414e-01  6.274342e-01  6.574465e-01
    outer loop
      vertex  -6.293499e+01  4.407943e+00  5.790431e+00
      vertex  -6.322005e+01  4.233465e+00  6.137855e+00
      vertex  -6.289280e+01  4.020723e+00  6.133203e+00
    endloop
  endfacet
  facet normal  1.163273e-01  7.765374e-01  6.192396e-01
    outer loop
      vertex  -6.223080e+01  6.617957e+00  3.703734e+00
      vertex  -6.394576e+01  6.657913e+00  3.975792e+00
      vertex  -6.387280e+01  6.356538e+00  4.340016e+00
    endloop
  endfacet
  facet normal  7.489919e-02  9.395385e-01  3.341518e-01
    outer loop
      vertex  -6.223080e+01  6.617957e+00  3.703734e+00
      vertex  -6.364330e+01  6.869464e+00  3.313177e+00
      vertex  -6.394576e+01  6.657913e+00  3.975792e+00
    endloop
  endfacet
  facet normal  1.152488e-01  9.711862e-01  2.086025e-01
    outer loop
      vertex  -6.226509e+01  6.716739e+00  3.262783e+00
      vertex  -6.364330e+01  6.869464e+00  3.313177e+00
      vertex  -6.223080e+01  6.617957e+00  3.703734e+00
    endloop
  endfacet
  facet normal  1.207315e-01  9.766011e-01 -1.779727e-01
    outer loop
      vertex  -6.210533e+01  6.636566e+00  2.931223e+00
      vertex  -6.328767e+01  6.767153e+00  2.845738e+00
      vertex  -6.226509e+01  6.716739e+00  3.262783e+00
    endloop
  endfacet
  facet normal  5.584025e-02  4.353257e-01 -8.985396e-01
    outer loop
      vertex  -6.175500e+01  5.695560e+00  1.928750e+00
      vertex  -6.204157e+01  5.352613e+00  1.744790e+00
      vertex  -6.234804e+01  6.095438e+00  2.085629e+00
    endloop
  endfacet
  facet normal  1.561633e-01  3.623903e-01 -9.188506e-01
    outer loop
      vertex  -6.068858e+01  5.199247e+00  1.914249e+00
      vertex  -6.204157e+01  5.352613e+00  1.744790e+00
      vertex  -6.175500e+01  5.695560e+00  1.928750e+00
    endloop
  endfacet
  facet normal  8.550863e-02  1.366641e-01 -9.869201e-01
    outer loop
      vertex  -6.005179e+01  4.652718e+00  1.893741e+00
      vertex  -6.066742e+01  4.076676e+00  1.760635e+00
      vertex  -6.068858e+01  5.199247e+00  1.914249e+00
    endloop
  endfacet
  facet normal  1.341708e-01  8.475198e-02 -9.873273e-01
    outer loop
      vertex  -6.005179e+01  4.652718e+00  1.893741e+00
      vertex  -6.013530e+01  3.869897e+00  1.815197e+00
      vertex  -6.066742e+01  4.076676e+00  1.760635e+00
    endloop
  endfacet
  facet normal  1.619880e-01  8.139367e-02 -9.834301e-01
    outer loop
      vertex  -6.005179e+01  4.652718e+00  1.893741e+00
      vertex  -5.879765e+01  3.692338e+00  2.020834e+00
      vertex  -6.013530e+01  3.869897e+00  1.815197e+00
    endloop
  endfacet
  facet normal  1.578880e-01  7.589319e-02 -9.845362e-01
    outer loop
      vertex  -5.844347e+01  4.394931e+00  2.131793e+00
      vertex  -5.879765e+01  3.692338e+00  2.020834e+00
      vertex  -6.005179e+01  4.652718e+00  1.893741e+00
    endloop
  endfacet
  facet normal  5.495064e-01 -1.471231e-01 -8.224339e-01
    outer loop
      vertex  -5.844347e+01  4.394931e+00  2.131793e+00
      vertex  -5.846406e+01  3.692338e+00  2.243722e+00
      vertex  -5.879765e+01  3.692338e+00  2.020834e+00
    endloop
  endfacet
  facet normal  7.108901e-02 -2.965152e-01 -9.523786e-01
    outer loop
      vertex  -5.632729e+01  3.693794e+00  2.454293e+00
      vertex  -5.739421e+01  3.692338e+00  2.375108e+00
      vertex  -5.772362e+01  4.073696e+00  2.231787e+00
    endloop
  endfacet
  facet normal  1.846749e-01  1.438120e-01 -9.722208e-01
    outer loop
      vertex  -5.644514e+01  4.638296e+00  2.571620e+00
      vertex  -5.616022e+01  4.171062e+00  2.556626e+00
      vertex  -5.632729e+01  3.693794e+00  2.454293e+00
    endloop
  endfacet
  facet normal  2.188068e-01  1.307383e-01 -9.669701e-01
    outer loop
      vertex  -5.616022e+01  4.171062e+00  2.556626e+00
      vertex  -5.542287e+01  3.692337e+00  2.658750e+00
      vertex  -5.632729e+01  3.693794e+00  2.454293e+00
    endloop
  endfacet
  facet normal  1.592159e-01  2.932499e-01 -9.426849e-01
    outer loop
      vertex  -5.576548e+01  4.810868e+00  2.822328e+00
      vertex  -5.493977e+01  4.478105e+00  2.858272e+00
      vertex  -5.616022e+01  4.171062e+00  2.556626e+00
    endloop
  endfacet
  facet normal  1.916674e-01  1.850574e-01 -9.638555e-01
    outer loop
      vertex  -5.493977e+01  4.478105e+00  2.858272e+00
      vertex  -5.483681e+01  3.728241e+00  2.734772e+00
      vertex  -5.616022e+01  4.171062e+00  2.556626e+00
    endloop
  endfacet
  facet normal  3.034872e-01  6.810905e-01 -6.663416e-01
    outer loop
      vertex  -5.500796e+01  4.819108e+00  3.175764e+00
      vertex  -5.493977e+01  4.478105e+00  2.858272e+00
      vertex  -5.576548e+01  4.810868e+00  2.822328e+00
    endloop
  endfacet
  facet normal  2.206316e-01  6.879037e-01 -6.914552e-01
    outer loop
      vertex  -5.500796e+01  4.819108e+00  3.175764e+00
      vertex  -5.424069e+01  4.530397e+00  3.133359e+00
      vertex  -5.493977e+01  4.478105e+00  2.858272e+00
    endloop
  endfacet
  facet normal  3.543622e-01  9.103433e-01  2.137814e-01
    outer loop
      vertex  -5.406382e+01  4.339602e+00  3.652646e+00
      vertex  -5.424069e+01  4.530397e+00  3.133359e+00
      vertex  -5.500796e+01  4.819108e+00  3.175764e+00
    endloop
  endfacet
  facet normal  4.478745e-01  6.077119e-01  6.558161e-01
    outer loop
      vertex  -5.474963e+01  4.167017e+00  4.280931e+00
      vertex  -5.377338e+01  3.692338e+00  4.054086e+00
      vertex  -5.406382e+01  4.339602e+00  3.652646e+00
    endloop
  endfacet
  facet normal -2.258263e-01  4.382629e-01  8.700162e-01
    outer loop
      vertex  -5.377338e+01  3.692338e+00  4.054086e+00
      vertex  -5.350250e+01  3.949697e+00  3.994756e+00
      vertex  -5.406382e+01  4.339602e+00  3.652646e+00
    endloop
  endfacet
  facet normal  0.000000e+00  1.000000e+00  0.000000e+00
    outer loop
      vertex  -5.739421e+01  3.692338e+00  2.375108e+00
      vertex  -5.879765e+01  3.692338e+00  2.020834e+00
      vertex  -5.846406e+01  3.692338e+00  2.243722e+00
    endloop
  endfacet
  facet normal -1.147012e-07 -1.000000e+00  4.543828e-07
    outer loop
      vertex  -5.739421e+01  3.692338e+00  2.375108e+00
      vertex  -6.025696e+01  3.692338e+00  2.177165e+00
      vertex  -5.879765e+01  3.692338e+00  2.020834e+00
    endloop
  endfacet
  facet normal -4.852691e-02 -8.901965e-01 -4.529850e-01
    outer loop
      vertex  -6.025696e+01  3.692338e+00  2.177165e+00
      vertex  -6.013530e+01  3.869897e+00  1.815197e+00
      vertex  -5.879765e+01  3.692338e+00  2.020834e+00
    endloop
  endfacet
  facet normal  1.323542e-02 -9.981767e-01  5.888948e-02
    outer loop
      vertex  -6.228288e+01  3.718278e+00  5.993948e+00
      vertex  -6.370521e+01  3.707908e+00  6.137855e+00
      vertex  -6.199512e+01  3.692338e+00  5.489589e+00
    endloop
  endfacet
  facet normal -5.812544e-02  9.104404e-01  4.095359e-01
    outer loop
      vertex  -6.293499e+01  4.407943e+00  5.790431e+00
      vertex  -6.413585e+01  4.342733e+00  5.764960e+00
      vertex  -6.322005e+01  4.233465e+00  6.137855e+00
    endloop
  endfacet
  facet normal  2.574612e-02  4.962139e-01  8.678185e-01
    outer loop
      vertex  -6.372079e+01  6.100364e+00  4.592964e+00
      vertex  -6.480473e+01  5.713060e+00  4.846580e+00
      vertex  -6.255262e+01  5.041667e+00  5.163664e+00
    endloop
  endfacet
  facet normal  1.041843e-01  9.851652e-01 -1.363643e-01
    outer loop
      vertex  -6.226509e+01  6.716739e+00  3.262783e+00
      vertex  -6.328767e+01  6.767153e+00  2.845738e+00
      vertex  -6.364330e+01  6.869464e+00  3.313177e+00
    endloop
  endfacet
  facet normal  2.925226e-02  9.808739e-01 -1.924336e-01
    outer loop
      vertex  -6.328767e+01  6.767153e+00  2.845738e+00
      vertex  -6.439442e+01  6.851979e+00  3.109874e+00
      vertex  -6.364330e+01  6.869464e+00  3.313177e+00
    endloop
  endfacet
  facet normal  1.291631e-01  9.068940e-01 -4.010736e-01
    outer loop
      vertex  -6.191444e+01  6.398085e+00  2.453456e+00
      vertex  -6.328767e+01  6.767153e+00  2.845738e+00
      vertex  -6.210533e+01  6.636566e+00  2.931223e+00
    endloop
  endfacet
  facet normal  7.939024e-02  8.496045e-01 -5.214110e-01
    outer loop
      vertex  -6.191444e+01  6.398085e+00  2.453456e+00
      vertex  -6.320988e+01  6.395200e+00  2.251510e+00
      vertex  -6.328767e+01  6.767153e+00  2.845738e+00
    endloop
  endfacet
  facet normal  1.082839e-01  7.012556e-01 -7.046384e-01
    outer loop
      vertex  -6.234804e+01  6.095438e+00  2.085629e+00
      vertex  -6.320988e+01  6.395200e+00  2.251510e+00
      vertex  -6.191444e+01  6.398085e+00  2.453456e+00
    endloop
  endfacet
  facet normal  1.505403e-01  1.499931e-01 -9.771590e-01
    outer loop
      vertex  -6.066742e+01  4.076676e+00  1.760635e+00
      vertex  -6.266514e+01  4.909263e+00  1.580669e+00
      vertex  -6.204157e+01  5.352613e+00  1.744790e+00
    endloop
  endfacet
  facet normal  1.383651e-01  1.368345e-01 -9.808829e-01
    outer loop
      vertex  -6.204157e+01  5.352613e+00  1.744790e+00
      vertex  -6.068858e+01  5.199247e+00  1.914249e+00
      vertex  -6.066742e+01  4.076676e+00  1.760635e+00
    endloop
  endfacet
  facet normal  1.305938e-01  7.521660e-02 -9.885786e-01
    outer loop
      vertex  -6.013530e+01  3.869897e+00  1.815197e+00
      vertex  -6.100006e+01  3.697910e+00  1.687873e+00
      vertex  -6.066742e+01  4.076676e+00  1.760635e+00
    endloop
  endfacet
  facet normal  6.594431e-02 -1.588669e-01 -9.850953e-01
    outer loop
      vertex  -5.772362e+01  4.073696e+00  2.231787e+00
      vertex  -5.846406e+01  3.692338e+00  2.243722e+00
      vertex  -5.844347e+01  4.394931e+00  2.131793e+00
    endloop
  endfacet
  facet normal  1.177454e-01 -2.586195e-01 -9.587763e-01
    outer loop
      vertex  -5.772362e+01  4.073696e+00  2.231787e+00
      vertex  -5.739421e+01  3.692338e+00  2.375108e+00
      vertex  -5.846406e+01  3.692338e+00  2.243722e+00
    endloop
  endfacet
  facet normal  1.293699e-01 -1.225367e-02 -9.915206e-01
    outer loop
      vertex  -5.616022e+01  4.171062e+00  2.556626e+00
      vertex  -5.483681e+01  3.728241e+00  2.734772e+00
      vertex  -5.542287e+01  3.692337e+00  2.658750e+00
    endloop
  endfacet
  facet normal  1.791963e-01  1.837800e-01 -9.664955e-01
    outer loop
      vertex  -5.493977e+01  4.478105e+00  2.858272e+00
      vertex  -5.403200e+01  3.910426e+00  2.918635e+00
      vertex  -5.483681e+01  3.728241e+00  2.734772e+00
    endloop
  endfacet
  facet normal  3.089814e-01  4.024593e-01 -8.617174e-01
    outer loop
      vertex  -5.424069e+01  4.530397e+00  3.133359e+00
      vertex  -5.403200e+01  3.910426e+00  2.918635e+00
      vertex  -5.493977e+01  4.478105e+00  2.858272e+00
    endloop
  endfacet
  facet normal  2.629274e-01  9.311685e-01  2.525756e-01
    outer loop
      vertex  -5.406382e+01  4.339602e+00  3.652646e+00
      vertex  -5.324089e+01  4.124861e+00  3.587666e+00
      vertex  -5.424069e+01  4.530397e+00  3.133359e+00
    endloop
  endfacet
  facet normal  2.542380e-01  8.183120e-01  5.154884e-01
    outer loop
      vertex  -5.350250e+01  3.949697e+00  3.994756e+00
      vertex  -5.324089e+01  4.124861e+00  3.587666e+00
      vertex  -5.406382e+01  4.339602e+00  3.652646e+00
    endloop
  endfacet
  facet normal  1.330421e-01  8.755721e-02  9.872353e-01
    outer loop
      vertex  -5.377338e+01  3.692338e+00  4.054086e+00
      vertex  -5.320058e+01  3.712999e+00  3.975061e+00
      vertex  -5.350250e+01  3.949697e+00  3.994756e+00
    endloop
  endfacet
  facet normal -6.283234e-03 -9.999759e-01  2.941367e-03
    outer loop
      vertex  -5.500384e+01  3.701022e+00  4.377991e+00
      vertex  -5.415726e+01  3.692337e+00  3.233982e+00
      vertex  -5.377338e+01  3.692338e+00  4.054086e+00
    endloop
  endfacet
  facet normal  8.394840e-02 -9.792029e-01 -1.847008e-01
    outer loop
      vertex  -5.483681e+01  3.728241e+00  2.734772e+00
      vertex  -5.415726e+01  3.692337e+00  3.233982e+00
      vertex  -5.542287e+01  3.692337e+00  2.658750e+00
    endloop
  endfacet
  facet normal  2.948390e-01 -8.366969e-01 -4.615283e-01
    outer loop
      vertex  -5.483681e+01  3.728241e+00  2.734772e+00
      vertex  -5.403200e+01  3.910426e+00  2.918635e+00
      vertex  -5.415726e+01  3.692337e+00  3.233982e+00
    endloop
  endfacet
  facet normal  2.329489e-01 -9.017745e-01 -3.640570e-01
    outer loop
      vertex  -6.025696e+01  3.692338e+00  2.177165e+00
      vertex  -6.100006e+01  3.697910e+00  1.687873e+00
      vertex  -6.013530e+01  3.869897e+00  1.815197e+00
    endloop
  endfacet
  facet normal -5.573223e-03 -9.999802e-01 -2.924568e-03
    outer loop
      vertex  -6.025696e+01  3.692338e+00  2.177165e+00
      vertex  -6.199512e+01  3.692338e+00  5.489589e+00
      vertex  -6.100006e+01  3.697910e+00  1.687873e+00
    endloop
  endfacet
  facet normal  0.000000e+00  0.000000e+00  1.000000e+00
    outer loop
      vertex  -6.322005e+01  4.233465e+00  6.137855e+00
      vertex  -6.409190e+01  3.969817e+00  6.137855e+00
      vertex  -6.370521e+01  3.707908e+00  6.137855e+00
    endloop
  endfacet
  facet normal -1.078579e-01  8.508526e-01  5.142145e-01
    outer loop
      vertex  -6.413585e+01  4.342733e+00  5.764960e+00
      vertex  -6.443491e+01  4.188393e+00  5.957612e+00
      vertex  -6.322005e+01  4.233465e+00  6.137855e+00
    endloop
  endfacet
  facet normal -5.372037e-02  7.183760e-01  6.935776e-01
    outer loop
      vertex  -6.293499e+01  4.407943e+00  5.790431e+00
      vertex  -6.255262e+01  5.041667e+00  5.163664e+00
      vertex  -6.413585e+01  4.342733e+00  5.764960e+00
    endloop
  endfacet
  facet normal  1.228747e-02  4.604189e-01  8.876168e-01
    outer loop
      vertex  -6.255262e+01  5.041667e+00  5.163664e+00
      vertex  -6.480473e+01  5.713060e+00  4.846580e+00
      vertex  -6.450417e+01  4.792312e+00  5.320024e+00
    endloop
  endfacet
  facet normal -7.163960e-02  6.789590e-01  7.306726e-01
    outer loop
      vertex  -6.372079e+01  6.100364e+00  4.592964e+00
      vertex  -6.387280e+01  6.356538e+00  4.340016e+00
      vertex  -6.480473e+01  5.713060e+00  4.846580e+00
    endloop
  endfacet
  facet normal  5.829526e-02  9.429904e-01  3.276748e-01
    outer loop
      vertex  -6.364330e+01  6.869464e+00  3.313177e+00
      vertex  -6.451821e+01  6.822393e+00  3.604289e+00
      vertex  -6.394576e+01  6.657913e+00  3.975792e+00
    endloop
  endfacet
  facet normal -1.223706e-02  9.359736e-01 -3.518575e-01
    outer loop
      vertex  -6.328767e+01  6.767153e+00  2.845738e+00
      vertex  -6.454685e+01  6.610198e+00  2.472015e+00
      vertex  -6.439442e+01  6.851979e+00  3.109874e+00
    endloop
  endfacet
  facet normal  4.998876e-02  8.495090e-01 -5.252005e-01
    outer loop
      vertex  -6.328767e+01  6.767153e+00  2.845738e+00
      vertex  -6.320988e+01  6.395200e+00  2.251510e+00
      vertex  -6.454685e+01  6.610198e+00  2.472015e+00
    endloop
  endfacet
  facet normal  5.901641e-02  6.078656e-01 -7.918438e-01
    outer loop
      vertex  -6.234804e+01  6.095438e+00  2.085629e+00
      vertex  -6.458672e+01  6.213778e+00  2.009623e+00
      vertex  -6.320988e+01  6.395200e+00  2.251510e+00
    endloop
  endfacet
  facet normal  1.252654e-01  8.693855e-02 -9.883068e-01
    outer loop
      vertex  -6.066742e+01  4.076676e+00  1.760635e+00
      vertex  -6.245168e+01  4.017978e+00  1.529321e+00
      vertex  -6.266514e+01  4.909263e+00  1.580669e+00
    endloop
  endfacet
  facet normal  5.840373e-02  1.386240e-01 -9.886215e-01
    outer loop
      vertex  -6.100006e+01  3.697910e+00  1.687873e+00
      vertex  -6.201798e+01  3.692338e+00  1.626957e+00
      vertex  -6.066742e+01  4.076676e+00  1.760635e+00
    endloop
  endfacet
  facet normal  4.546367e-01  8.596057e-01 -2.332028e-01
    outer loop
      vertex  -5.324089e+01  4.124861e+00  3.587666e+00
      vertex  -5.343211e+01  4.086720e+00  3.074269e+00
      vertex  -5.424069e+01  4.530397e+00  3.133359e+00
    endloop
  endfacet
  facet normal  1.079919e-01  9.876401e-01 -1.135988e-01
    outer loop
      vertex  -5.324089e+01  4.124861e+00  3.587666e+00
      vertex  -5.281734e+01  4.049532e+00  3.335390e+00
      vertex  -5.343211e+01  4.086720e+00  3.074269e+00
    endloop
  endfacet
  facet normal  2.688328e-01  8.099442e-01  5.212671e-01
    outer loop
      vertex  -5.350250e+01  3.949697e+00  3.994756e+00
      vertex  -5.288668e+01  3.943080e+00  3.687442e+00
      vertex  -5.324089e+01  4.124861e+00  3.587666e+00
    endloop
  endfacet
  facet normal  4.031041e-01  4.477710e-01  7.981280e-01
    outer loop
      vertex  -5.320058e+01  3.712999e+00  3.975061e+00
      vertex  -5.288668e+01  3.943080e+00  3.687442e+00
      vertex  -5.350250e+01  3.949697e+00  3.994756e+00
    endloop
  endfacet
  facet normal  1.362038e-01  6.957708e-01  7.052315e-01
    outer loop
      vertex  -5.320058e+01  3.712999e+00  3.975061e+00
      vertex  -5.207080e+01  3.751015e+00  3.719357e+00
      vertex  -5.288668e+01  3.943080e+00  3.687442e+00
    endloop
  endfacet
  facet normal  4.320444e-07 -1.000000e+00  8.848482e-08
    outer loop
      vertex  -5.415726e+01  3.692337e+00  3.233982e+00
      vertex  -5.360546e+01  3.692338e+00  3.234188e+00
      vertex  -5.377338e+01  3.692338e+00  4.054086e+00
    endloop
  endfacet
  facet normal -2.954108e-01 -4.361556e-01  8.500004e-01
    outer loop
      vertex  -6.409190e+01  3.969817e+00  6.137855e+00
      vertex  -6.429903e+01  3.692338e+00  5.923487e+00
      vertex  -6.370521e+01  3.707908e+00  6.137855e+00
    endloop
  endfacet
  facet normal  2.866913e-01 -7.104935e-01  6.426561e-01
    outer loop
      vertex  -6.409190e+01  3.969817e+00  6.137855e+00
      vertex  -6.475106e+01  3.703840e+00  6.137855e+00
      vertex  -6.429903e+01  3.692338e+00  5.923487e+00
    endloop
  endfacet
  facet normal -1.460173e-01  4.828644e-01  8.634356e-01
    outer loop
      vertex  -6.322005e+01  4.233465e+00  6.137855e+00
      vertex  -6.443491e+01  4.188393e+00  5.957612e+00
      vertex  -6.409190e+01  3.969817e+00  6.137855e+00
    endloop
  endfacet
  facet normal -1.351401e-02  6.234431e-01  7.817519e-01
    outer loop
      vertex  -6.443491e+01  4.188393e+00  5.957612e+00
      vertex  -6.527535e+01  4.014528e+00  6.081739e+00
      vertex  -6.409190e+01  3.969817e+00  6.137855e+00
    endloop
  endfacet
  facet normal -3.031358e-02  6.904485e-01  7.227461e-01
    outer loop
      vertex  -6.255262e+01  5.041667e+00  5.163664e+00
      vertex  -6.450417e+01  4.792312e+00  5.320024e+00
      vertex  -6.413585e+01  4.342733e+00  5.764960e+00
    endloop
  endfacet
  facet normal -1.396148e-01  6.364034e-01  7.586161e-01
    outer loop
      vertex  -6.450417e+01  4.792312e+00  5.320024e+00
      vertex  -6.528431e+01  4.401876e+00  5.503983e+00
      vertex  -6.413585e+01  4.342733e+00  5.764960e+00
    endloop
  endfacet
  facet normal -1.774132e-01  4.036103e-01  8.975652e-01
    outer loop
      vertex  -6.480473e+01  5.713060e+00  4.846580e+00
      vertex  -6.554014e+01  5.818502e+00  4.653803e+00
      vertex  -6.450417e+01  4.792312e+00  5.320024e+00
    endloop
  endfacet
  facet normal  1.430283e-02  6.056229e-01  7.956232e-01
    outer loop
      vertex  -6.387280e+01  6.356538e+00  4.340016e+00
      vertex  -6.474947e+01  6.362085e+00  4.351553e+00
      vertex  -6.480473e+01  5.713060e+00  4.846580e+00
    endloop
  endfacet
  facet normal -3.075706e-02  7.670485e-01  6.408514e-01
    outer loop
      vertex  -6.394576e+01  6.657913e+00  3.975792e+00
      vertex  -6.517180e+01  6.579218e+00  4.011141e+00
      vertex  -6.387280e+01  6.356538e+00  4.340016e+00
    endloop
  endfacet
  facet normal -4.366449e-02  8.868757e-01  4.599401e-01
    outer loop
      vertex  -6.451821e+01  6.822393e+00  3.604289e+00
      vertex  -6.517180e+01  6.579218e+00  4.011141e+00
      vertex  -6.394576e+01  6.657913e+00  3.975792e+00
    endloop
  endfacet
  facet normal -1.726285e-01  9.425403e-01  2.860369e-01
    outer loop
      vertex  -6.451821e+01  6.822393e+00  3.604289e+00
      vertex  -6.495174e+01  6.804003e+00  3.403244e+00
      vertex  -6.517180e+01  6.579218e+00  4.011141e+00
    endloop
  endfacet
  facet normal -3.689709e-02  9.980431e-01  5.048509e-02
    outer loop
      vertex  -6.364330e+01  6.869464e+00  3.313177e+00
      vertex  -6.439442e+01  6.851979e+00  3.109874e+00
      vertex  -6.451821e+01  6.822393e+00  3.604289e+00
    endloop
  endfacet
  facet normal -6.268623e-02  9.970642e-01  4.396967e-02
    outer loop
      vertex  -6.439442e+01  6.851979e+00  3.109874e+00
      vertex  -6.495174e+01  6.804003e+00  3.403244e+00
      vertex  -6.451821e+01  6.822393e+00  3.604289e+00
    endloop
  endfacet
  facet normal -1.661994e-01  9.735917e-01 -1.565146e-01
    outer loop
      vertex  -6.439442e+01  6.851979e+00  3.109874e+00
      vertex  -6.555319e+01  6.610263e+00  2.836759e+00
      vertex  -6.495174e+01  6.804003e+00  3.403244e+00
    endloop
  endfacet
  facet normal  5.597487e-02  5.061504e-01 -8.606269e-01
    outer loop
      vertex  -6.234804e+01  6.095438e+00  2.085629e+00
      vertex  -6.431918e+01  5.541351e+00  1.631558e+00
      vertex  -6.458672e+01  6.213778e+00  2.009623e+00
    endloop
  endfacet
  facet normal  8.110446e-02  4.431111e-01 -8.927904e-01
    outer loop
      vertex  -6.204157e+01  5.352613e+00  1.744790e+00
      vertex  -6.431918e+01  5.541351e+00  1.631558e+00
      vertex  -6.234804e+01  6.095438e+00  2.085629e+00
    endloop
  endfacet
  facet normal  6.936187e-02  2.590647e-01 -9.633662e-01
    outer loop
      vertex  -6.204157e+01  5.352613e+00  1.744790e+00
      vertex  -6.266514e+01  4.909263e+00  1.580669e+00
      vertex  -6.431918e+01  5.541351e+00  1.631558e+00
    endloop
  endfacet
  facet normal  1.315161e-01 -1.198867e-01 -9.840380e-01
    outer loop
      vertex  -6.201798e+01  3.692338e+00  1.626957e+00
      vertex  -6.245168e+01  4.017978e+00  1.529321e+00
      vertex  -6.066742e+01  4.076676e+00  1.760635e+00
    endloop
  endfacet
  facet normal  1.322760e-01  3.638610e-01 -9.220132e-01
    outer loop
      vertex  -5.424069e+01  4.530397e+00  3.133359e+00
      vertex  -5.343211e+01  4.086720e+00  3.074269e+00
      vertex  -5.403200e+01  3.910426e+00  2.918635e+00
    endloop
  endfacet
  facet normal  3.497837e-01 -4.799801e-01 -8.045313e-01
    outer loop
      vertex  -5.343211e+01  4.086720e+00  3.074269e+00
      vertex  -5.360546e+01  3.692338e+00  3.234188e+00
      vertex  -5.403200e+01  3.910426e+00  2.918635e+00
    endloop
  endfacet
  facet normal  3.852799e-01  3.368751e-01 -8.591127e-01
    outer loop
      vertex  -5.281734e+01  4.049532e+00  3.335390e+00
      vertex  -5.303960e+01  3.692338e+00  3.095653e+00
      vertex  -5.343211e+01  4.086720e+00  3.074269e+00
    endloop
  endfacet
  facet normal  3.542371e-01  8.735143e-01  3.338992e-01
    outer loop
      vertex  -5.324089e+01  4.124861e+00  3.587666e+00
      vertex  -5.288668e+01  3.943080e+00  3.687442e+00
      vertex  -5.281734e+01  4.049532e+00  3.335390e+00
    endloop
  endfacet
  facet normal  2.052082e-01  9.248978e-01  3.200839e-01
    outer loop
      vertex  -5.288668e+01  3.943080e+00  3.687442e+00
      vertex  -5.207080e+01  3.751015e+00  3.719357e+00
      vertex  -5.281734e+01  4.049532e+00  3.335390e+00
    endloop
  endfacet
  facet normal  3.709253e-02 -9.992830e-01  7.596732e-03
    outer loop
      vertex  -5.377338e+01  3.692338e+00  4.054086e+00
      vertex  -5.360546e+01  3.692338e+00  3.234188e+00
      vertex  -5.320058e+01  3.712999e+00  3.975061e+00
    endloop
  endfacet
  facet normal  2.124324e-04 -8.225106e-01 -5.687498e-01
    outer loop
      vertex  -5.415726e+01  3.692337e+00  3.233982e+00
      vertex  -5.403200e+01  3.910426e+00  2.918635e+00
      vertex  -5.360546e+01  3.692338e+00  3.234188e+00
    endloop
  endfacet
  facet normal  5.476539e-03 -9.999850e-01 -3.241366e-05
    outer loop
      vertex  -6.100006e+01  3.697910e+00  1.687873e+00
      vertex  -6.199512e+01  3.692338e+00  5.489589e+00
      vertex  -6.201798e+01  3.692338e+00  1.626957e+00
    endloop
  endfacet
  facet normal  8.979001e-03 -9.988225e-01  4.767679e-02
    outer loop
      vertex  -6.370521e+01  3.707908e+00  6.137855e+00
      vertex  -6.429903e+01  3.692338e+00  5.923487e+00
      vertex  -6.199512e+01  3.692338e+00  5.489589e+00
    endloop
  endfacet
  facet normal -4.306897e-02  1.067358e-01  9.933542e-01
    outer loop
      vertex  -6.409190e+01  3.969817e+00  6.137855e+00
      vertex  -6.527535e+01  4.014528e+00  6.081739e+00
      vertex  -6.475106e+01  3.703840e+00  6.137855e+00
    endloop
  endfacet
  facet normal -9.706520e-02  8.448352e-01  5.261480e-01
    outer loop
      vertex  -6.443491e+01  4.188393e+00  5.957612e+00
      vertex  -6.413585e+01  4.342733e+00  5.764960e+00
      vertex  -6.527535e+01  4.014528e+00  6.081739e+00
    endloop
  endfacet
  facet normal -1.114749e-01  5.970472e-01  7.944230e-01
    outer loop
      vertex  -6.450417e+01  4.792312e+00  5.320024e+00
      vertex  -6.568571e+01  4.873651e+00  5.093098e+00
      vertex  -6.528431e+01  4.401876e+00  5.503983e+00
    endloop
  endfacet
  facet normal -1.408368e-01  4.351524e-01  8.892736e-01
    outer loop
      vertex  -6.554014e+01  5.818502e+00  4.653803e+00
      vertex  -6.568571e+01  4.873651e+00  5.093098e+00
      vertex  -6.450417e+01  4.792312e+00  5.320024e+00
    endloop
  endfacet
  facet normal -1.184279e-01  6.085414e-01  7.846350e-01
    outer loop
      vertex  -6.480473e+01  5.713060e+00  4.846580e+00
      vertex  -6.474947e+01  6.362085e+00  4.351553e+00
      vertex  -6.554014e+01  5.818502e+00  4.653803e+00
    endloop
  endfacet
  facet normal  1.231111e-02  8.498834e-01  5.268270e-01
    outer loop
      vertex  -6.387280e+01  6.356538e+00  4.340016e+00
      vertex  -6.517180e+01  6.579218e+00  4.011141e+00
      vertex  -6.474947e+01  6.362085e+00  4.351553e+00
    endloop
  endfacet
  facet normal -2.692557e-01  9.621007e-01 -4.316791e-02
    outer loop
      vertex  -6.555319e+01  6.610263e+00  2.836759e+00
      vertex  -6.596712e+01  6.526492e+00  3.551544e+00
      vertex  -6.495174e+01  6.804003e+00  3.403244e+00
    endloop
  endfacet
  facet normal  1.451751e-02  7.584888e-01 -6.515244e-01
    outer loop
      vertex  -6.320988e+01  6.395200e+00  2.251510e+00
      vertex  -6.458672e+01  6.213778e+00  2.009623e+00
      vertex  -6.454685e+01  6.610198e+00  2.472015e+00
    endloop
  endfacet
  facet normal  6.611947e-02  2.507748e-01 -9.657847e-01
    outer loop
      vertex  -6.266514e+01  4.909263e+00  1.580669e+00
      vertex  -6.364461e+01  4.798585e+00  1.484874e+00
      vertex  -6.431918e+01  5.541351e+00  1.631558e+00
    endloop
  endfacet
  facet normal  1.990120e-01 -2.865719e-02 -9.795779e-01
    outer loop
      vertex  -6.201798e+01  3.692338e+00  1.626957e+00
      vertex  -6.267825e+01  3.714018e+00  1.492182e+00
      vertex  -6.245168e+01  4.017978e+00  1.529321e+00
    endloop
  endfacet
  facet normal -1.678878e-02 -9.968042e-01 -7.809969e-02
    outer loop
      vertex  -6.201798e+01  3.692338e+00  1.626957e+00
      vertex  -6.291399e+01  3.692338e+00  1.819569e+00
      vertex  -6.267825e+01  3.714018e+00  1.492182e+00
    endloop
  endfacet
  facet normal -2.284265e-01 -2.779380e-01 -9.330444e-01
    outer loop
      vertex  -5.303960e+01  3.692338e+00  3.095653e+00
      vertex  -5.360546e+01  3.692338e+00  3.234188e+00
      vertex  -5.343211e+01  4.086720e+00  3.074269e+00
    endloop
  endfacet
  facet normal  1.788186e-01  4.691679e-01 -8.648152e-01
    outer loop
      vertex  -5.281734e+01  4.049532e+00  3.335390e+00
      vertex  -5.203793e+01  3.692338e+00  3.302769e+00
      vertex  -5.303960e+01  3.692338e+00  3.095653e+00
    endloop
  endfacet
  facet normal  4.114306e-01  9.064547e-01 -9.520890e-02
    outer loop
      vertex  -5.207080e+01  3.751015e+00  3.719357e+00
      vertex  -5.203793e+01  3.692338e+00  3.302769e+00
      vertex  -5.281734e+01  4.049532e+00  3.335390e+00
    endloop
  endfacet
  facet normal  3.553884e-02 -9.993326e-01  8.447210e-03
    outer loop
      vertex  -5.360546e+01  3.692338e+00  3.234188e+00
      vertex  -5.207080e+01  3.751015e+00  3.719357e+00
      vertex  -5.320058e+01  3.712999e+00  3.975061e+00
    endloop
  endfacet
  facet normal  1.664586e-02 -9.975470e-01  6.799266e-02
    outer loop
      vertex  -5.360546e+01  3.692338e+00  3.234188e+00
      vertex  -5.303960e+01  3.692338e+00  3.095653e+00
      vertex  -5.207080e+01  3.751015e+00  3.719357e+00
    endloop
  endfacet
  facet normal -2.837399e-02 -9.901335e-01  1.372243e-01
    outer loop
      vertex  -5.303960e+01  3.692338e+00  3.095653e+00
      vertex  -5.203793e+01  3.692338e+00  3.302769e+00
      vertex  -5.207080e+01  3.751015e+00  3.719357e+00
    endloop
  endfacet
  facet normal  0.000000e+00 -1.000000e+00  0.000000e+00
    outer loop
      vertex  -6.199512e+01  3.692338e+00  5.489589e+00
      vertex  -6.291399e+01  3.692338e+00  1.819569e+00
      vertex  -6.201798e+01  3.692338e+00  1.626957e+00
    endloop
  endfacet
  facet normal -1.313622e-02 -9.995773e-01  2.593767e-02
    outer loop
      vertex  -6.429903e+01  3.692338e+00  5.923487e+00
      vertex  -6.475106e+01  3.703840e+00  6.137855e+00
      vertex  -6.671101e+01  3.692338e+00  4.701932e+00
    endloop
  endfacet
  facet normal  3.249506e-02 -9.988106e-01 -3.635257e-02
    outer loop
      vertex  -6.475106e+01  3.703840e+00  6.137855e+00
      vertex  -6.557320e+01  3.692338e+00  5.719011e+00
      vertex  -6.671101e+01  3.692338e+00  4.701932e+00
    endloop
  endfacet
  facet normal -3.847129e-01 -5.102891e-01  7.691560e-01
    outer loop
      vertex  -6.527535e+01  4.014528e+00  6.081739e+00
      vertex  -6.557320e+01  3.692338e+00  5.719011e+00
      vertex  -6.475106e+01  3.703840e+00  6.137855e+00
    endloop
  endfacet
  facet normal -5.321757e-02 -7.244939e-01  6.872238e-01
    outer loop
      vertex  -6.527535e+01  4.014528e+00  6.081739e+00
      vertex  -6.607433e+01  3.902626e+00  5.901897e+00
      vertex  -6.557320e+01  3.692338e+00  5.719011e+00
    endloop
  endfacet
  facet normal -8.370829e-02  8.270867e-01  5.558062e-01
    outer loop
      vertex  -6.413585e+01  4.342733e+00  5.764960e+00
      vertex  -6.528431e+01  4.401876e+00  5.503983e+00
      vertex  -6.527535e+01  4.014528e+00  6.081739e+00
    endloop
  endfacet
  facet normal -2.352253e-01  8.056059e-01  5.437537e-01
    outer loop
      vertex  -6.528431e+01  4.401876e+00  5.503983e+00
      vertex  -6.607433e+01  3.902626e+00  5.901897e+00
      vertex  -6.527535e+01  4.014528e+00  6.081739e+00
    endloop
  endfacet
  facet normal -2.198557e-01  5.275927e-01  8.205544e-01
    outer loop
      vertex  -6.568571e+01  4.873651e+00  5.093098e+00
      vertex  -6.593726e+01  4.332134e+00  5.373876e+00
      vertex  -6.528431e+01  4.401876e+00  5.503983e+00
    endloop
  endfacet
  facet normal -3.611128e-01  4.383176e-01  8.230888e-01
    outer loop
      vertex  -6.554014e+01  5.818502e+00  4.653803e+00
      vertex  -6.606474e+01  5.930318e+00  4.364099e+00
      vertex  -6.568571e+01  4.873651e+00  5.093098e+00
    endloop
  endfacet
  facet normal -2.070245e-01  6.879209e-01  6.956333e-01
    outer loop
      vertex  -6.474947e+01  6.362085e+00  4.351553e+00
      vertex  -6.517180e+01  6.579218e+00  4.011141e+00
      vertex  -6.554014e+01  5.818502e+00  4.653803e+00
    endloop
  endfacet
  facet normal -2.173008e-01  9.384878e-01  2.683674e-01
    outer loop
      vertex  -6.495174e+01  6.804003e+00  3.403244e+00
      vertex  -6.596712e+01  6.526492e+00  3.551544e+00
      vertex  -6.517180e+01  6.579218e+00  4.011141e+00
    endloop
  endfacet
  facet normal -1.184826e-01  9.375452e-01 -3.270640e-01
    outer loop
      vertex  -6.439442e+01  6.851979e+00  3.109874e+00
      vertex  -6.454685e+01  6.610198e+00  2.472015e+00
      vertex  -6.555319e+01  6.610263e+00  2.836759e+00
    endloop
  endfacet
  facet normal -1.609955e-01  8.812690e-01 -4.443484e-01
    outer loop
      vertex  -6.454685e+01  6.610198e+00  2.472015e+00
      vertex  -6.542916e+01  6.355945e+00  2.287435e+00
      vertex  -6.555319e+01  6.610263e+00  2.836759e+00
    endloop
  endfacet
  facet normal -8.422526e-02  7.600665e-01 -6.443641e-01
    outer loop
      vertex  -6.454685e+01  6.610198e+00  2.472015e+00
      vertex  -6.458672e+01  6.213778e+00  2.009623e+00
      vertex  -6.542916e+01  6.355945e+00  2.287435e+00
    endloop
  endfacet
  facet normal  8.911781e-02  7.121054e-02 -9.934722e-01
    outer loop
      vertex  -6.266514e+01  4.909263e+00  1.580669e+00
      vertex  -6.316991e+01  3.851398e+00  1.459563e+00
      vertex  -6.364461e+01  4.798585e+00  1.484874e+00
    endloop
  endfacet
  facet normal  7.887629e-02  7.615449e-02 -9.939713e-01
    outer loop
      vertex  -6.245168e+01  4.017978e+00  1.529321e+00
      vertex  -6.316991e+01  3.851398e+00  1.459563e+00
      vertex  -6.266514e+01  4.909263e+00  1.580669e+00
    endloop
  endfacet
  facet normal  8.272874e-02  5.987917e-02 -9.947715e-01
    outer loop
      vertex  -6.267825e+01  3.714018e+00  1.492182e+00
      vertex  -6.316991e+01  3.851398e+00  1.459563e+00
      vertex  -6.245168e+01  4.017978e+00  1.529321e+00
    endloop
  endfacet
  facet normal -2.464886e-01 -9.390421e-01 -2.396736e-01
    outer loop
      vertex  -6.267825e+01  3.714018e+00  1.492182e+00
      vertex  -6.291399e+01  3.692338e+00  1.819569e+00
      vertex  -6.316991e+01  3.851398e+00  1.459563e+00
    endloop
  endfacet
  facet normal  1.694480e-01 -8.512913e-01 -4.965788e-01
    outer loop
      vertex  -6.291399e+01  3.692338e+00  1.819569e+00
      vertex  -6.384525e+01  3.746988e+00  1.408106e+00
      vertex  -6.316991e+01  3.851398e+00  1.459563e+00
    endloop
  endfacet
  facet normal  0.000000e+00 -1.000000e+00  0.000000e+00
    outer loop
      vertex  -6.199512e+01  3.692338e+00  5.489589e+00
      vertex  -6.489242e+01  3.692338e+00  1.757406e+00
      vertex  -6.291399e+01  3.692338e+00  1.819569e+00
    endloop
  endfacet
  facet normal  0.000000e+00 -1.000000e+00 -0.000000e+00
    outer loop
      vertex  -6.429903e+01  3.692338e+00  5.923487e+00
      vertex  -6.489242e+01  3.692338e+00  1.757406e+00
      vertex  -6.199512e+01  3.692338e+00  5.489589e+00
    endloop
  endfacet
  facet normal -2.567405e-01 -9.055499e-01  3.377330e-01
    outer loop
      vertex  -6.607433e+01  3.902626e+00  5.901897e+00
      vertex  -6.599886e+01  3.692337e+00  5.395423e+00
      vertex  -6.557320e+01  3.692338e+00  5.719011e+00
    endloop
  endfacet
  facet normal -2.006584e-01  7.848340e-01  5.863206e-01
    outer loop
      vertex  -6.528431e+01  4.401876e+00  5.503983e+00
      vertex  -6.593726e+01  4.332134e+00  5.373876e+00
      vertex  -6.607433e+01  3.902626e+00  5.901897e+00
    endloop
  endfacet
  facet normal -4.429582e-01  7.483383e-01  4.937386e-01
    outer loop
      vertex  -6.593726e+01  4.332134e+00  5.373876e+00
      vertex  -6.629777e+01  4.109091e+00  5.388506e+00
      vertex  -6.607433e+01  3.902626e+00  5.901897e+00
    endloop
  endfacet
  facet normal -3.665029e-01  6.368687e-01  6.782875e-01
    outer loop
      vertex  -6.593726e+01  4.332134e+00  5.373876e+00
      vertex  -6.626675e+01  4.391424e+00  5.140171e+00
      vertex  -6.629777e+01  4.109091e+00  5.388506e+00
    endloop
  endfacet
  facet normal -4.086026e-01  5.625003e-01  7.187750e-01
    outer loop
      vertex  -6.568571e+01  4.873651e+00  5.093098e+00
      vertex  -6.626675e+01  4.391424e+00  5.140171e+00
      vertex  -6.593726e+01  4.332134e+00  5.373876e+00
    endloop
  endfacet
  facet normal -3.145203e-01  4.600279e-01  8.303320e-01
    outer loop
      vertex  -6.606474e+01  5.930318e+00  4.364099e+00
      vertex  -6.626675e+01  4.391424e+00  5.140171e+00
      vertex  -6.568571e+01  4.873651e+00  5.093098e+00
    endloop
  endfacet
  facet normal -2.089698e-01  7.236890e-01  6.577277e-01
    outer loop
      vertex  -6.554014e+01  5.818502e+00  4.653803e+00
      vertex  -6.604181e+01  6.310677e+00  3.952881e+00
      vertex  -6.606474e+01  5.930318e+00  4.364099e+00
    endloop
  endfacet
  facet normal -2.590611e-01  6.934350e-01  6.723356e-01
    outer loop
      vertex  -6.517180e+01  6.579218e+00  4.011141e+00
      vertex  -6.604181e+01  6.310677e+00  3.952881e+00
      vertex  -6.554014e+01  5.818502e+00  4.653803e+00
    endloop
  endfacet
  facet normal -2.939852e-01  8.635679e-01  4.096623e-01
    outer loop
      vertex  -6.517180e+01  6.579218e+00  4.011141e+00
      vertex  -6.596712e+01  6.526492e+00  3.551544e+00
      vertex  -6.604181e+01  6.310677e+00  3.952881e+00
    endloop
  endfacet
  facet normal -5.764713e-01  7.595882e-01  3.011755e-01
    outer loop
      vertex  -6.596712e+01  6.526492e+00  3.551544e+00
      vertex  -6.688534e+01  5.915963e+00  3.333807e+00
      vertex  -6.604181e+01  6.310677e+00  3.952881e+00
    endloop
  endfacet
  facet normal -3.180410e-01  9.452316e-01 -7.339602e-02
    outer loop
      vertex  -6.596712e+01  6.526492e+00  3.551544e+00
      vertex  -6.555319e+01  6.610263e+00  2.836759e+00
      vertex  -6.614706e+01  6.426285e+00  3.040772e+00
    endloop
  endfacet
  facet normal -1.399272e-01  6.427115e-01 -7.532213e-01
    outer loop
      vertex  -6.458672e+01  6.213778e+00  2.009623e+00
      vertex  -6.486875e+01  5.956059e+00  1.842111e+00
      vertex  -6.542916e+01  6.355945e+00  2.287435e+00
    endloop
  endfacet
  facet normal  5.067381e-02  5.047033e-01 -8.618044e-01
    outer loop
      vertex  -6.431918e+01  5.541351e+00  1.631558e+00
      vertex  -6.486875e+01  5.956059e+00  1.842111e+00
      vertex  -6.458672e+01  6.213778e+00  2.009623e+00
    endloop
  endfacet
  facet normal  6.661119e-02  5.999786e-02 -9.959735e-01
    outer loop
      vertex  -6.316991e+01  3.851398e+00  1.459563e+00
      vertex  -6.384525e+01  3.746988e+00  1.408106e+00
      vertex  -6.364461e+01  4.798585e+00  1.484874e+00
    endloop
  endfacet
  facet normal  4.447530e-03 -9.899214e-01 -1.415480e-01
    outer loop
      vertex  -6.291399e+01  3.692338e+00  1.819569e+00
      vertex  -6.489242e+01  3.692338e+00  1.757406e+00
      vertex  -6.384525e+01  3.746988e+00  1.408106e+00
    endloop
  endfacet
  facet normal  3.744833e-06 -1.000000e+00 -4.189386e-06
    outer loop
      vertex  -6.557320e+01  3.692338e+00  5.719011e+00
      vertex  -6.599886e+01  3.692337e+00  5.395423e+00
      vertex  -6.671101e+01  3.692338e+00  4.701932e+00
    endloop
  endfacet
  facet normal  2.339134e-01 -8.850996e-01  4.023471e-01
    outer loop
      vertex  -6.607433e+01  3.902626e+00  5.901897e+00
      vertex  -6.652779e+01  3.692338e+00  5.702929e+00
      vertex  -6.599886e+01  3.692337e+00  5.395423e+00
    endloop
  endfacet
  facet normal -5.355060e-01  6.767429e-01  5.052251e-01
    outer loop
      vertex  -6.629777e+01  4.109091e+00  5.388506e+00
      vertex  -6.652779e+01  3.692338e+00  5.702929e+00
      vertex  -6.607433e+01  3.902626e+00  5.901897e+00
    endloop
  endfacet
  facet normal  4.857119e-02  5.843424e-01  8.100523e-01
    outer loop
      vertex  -6.629777e+01  4.109091e+00  5.388506e+00
      vertex  -6.692562e+01  3.773805e+00  5.668015e+00
      vertex  -6.652779e+01  3.692338e+00  5.702929e+00
    endloop
  endfacet
  facet normal -3.914173e-01  4.548075e-01  7.999641e-01
    outer loop
      vertex  -6.606474e+01  5.930318e+00  4.364099e+00
      vertex  -6.670245e+01  5.211840e+00  4.460551e+00
      vertex  -6.626675e+01  4.391424e+00  5.140171e+00
    endloop
  endfacet
  facet normal -5.590007e-01  8.284530e-01  3.440551e-02
    outer loop
      vertex  -6.596712e+01  6.526492e+00  3.551544e+00
      vertex  -6.614706e+01  6.426285e+00  3.040772e+00
      vertex  -6.688534e+01  5.915963e+00  3.333807e+00
    endloop
  endfacet
  facet normal -3.979685e-01  8.127280e-01 -4.255517e-01
    outer loop
      vertex  -6.555319e+01  6.610263e+00  2.836759e+00
      vertex  -6.660086e+01  5.910083e+00  2.479300e+00
      vertex  -6.614706e+01  6.426285e+00  3.040772e+00
    endloop
  endfacet
  facet normal -2.043445e-01  5.864622e-01 -7.837763e-01
    outer loop
      vertex  -6.486875e+01  5.956059e+00  1.842111e+00
      vertex  -6.607522e+01  5.529569e+00  1.837536e+00
      vertex  -6.542916e+01  6.355945e+00  2.287435e+00
    endloop
  endfacet
  facet normal -1.122385e-01  3.275657e-01 -9.381381e-01
    outer loop
      vertex  -6.486875e+01  5.956059e+00  1.842111e+00
      vertex  -6.431918e+01  5.541351e+00  1.631558e+00
      vertex  -6.607522e+01  5.529569e+00  1.837536e+00
    endloop
  endfacet
  facet normal -5.662764e-02  1.436853e-01 -9.880019e-01
    outer loop
      vertex  -6.364461e+01  4.798585e+00  1.484874e+00
      vertex  -6.453170e+01  3.723032e+00  1.379300e+00
      vertex  -6.431918e+01  5.541351e+00  1.631558e+00
    endloop
  endfacet
  facet normal  3.956474e-02  6.523949e-02 -9.970850e-01
    outer loop
      vertex  -6.384525e+01  3.746988e+00  1.408106e+00
      vertex  -6.453170e+01  3.723032e+00  1.379300e+00
      vertex  -6.364461e+01  4.798585e+00  1.484874e+00
    endloop
  endfacet
  facet normal  3.676723e-02 -9.982663e-01 -4.596249e-02
    outer loop
      vertex  -6.489242e+01  3.692338e+00  1.757406e+00
      vertex  -6.453170e+01  3.723032e+00  1.379300e+00
      vertex  -6.384525e+01  3.746988e+00  1.408106e+00
    endloop
  endfacet
  facet normal -4.074029e-07 -1.000000e+00  7.456993e-08
    outer loop
      vertex  -6.599886e+01  3.692337e+00  5.395423e+00
      vertex  -6.652779e+01  3.692338e+00  5.702929e+00
      vertex  -6.671101e+01  3.692338e+00  4.701932e+00
    endloop
  endfacet
  facet normal -2.036175e-01 -9.783408e-01  3.726960e-02
    outer loop
      vertex  -6.652779e+01  3.692338e+00  5.702929e+00
      vertex  -6.692562e+01  3.773805e+00  5.668015e+00
      vertex  -6.671101e+01  3.692338e+00  4.701932e+00
    endloop
  endfacet
  facet normal -2.892449e-01  8.715954e-01  3.958013e-01
    outer loop
      vertex  -6.629777e+01  4.109091e+00  5.388506e+00
      vertex  -6.689385e+01  4.169832e+00  4.819139e+00
      vertex  -6.692562e+01  3.773805e+00  5.668015e+00
    endloop
  endfacet
  facet normal -4.452888e-01  6.184393e-01  6.474958e-01
    outer loop
      vertex  -6.626675e+01  4.391424e+00  5.140171e+00
      vertex  -6.697578e+01  4.477505e+00  4.570347e+00
      vertex  -6.629777e+01  4.109091e+00  5.388506e+00
    endloop
  endfacet
  facet normal -5.682679e-01  3.245715e-01  7.561250e-01
    outer loop
      vertex  -6.670245e+01  5.211840e+00  4.460551e+00
      vertex  -6.697578e+01  4.477505e+00  4.570347e+00
      vertex  -6.626675e+01  4.391424e+00  5.140171e+00
    endloop
  endfacet
  facet normal -7.060129e-01  3.544592e-01  6.131104e-01
    outer loop
      vertex  -6.670245e+01  5.211840e+00  4.460551e+00
      vertex  -6.758369e+01  4.458866e+00  3.881098e+00
      vertex  -6.697578e+01  4.477505e+00  4.570347e+00
    endloop
  endfacet
  facet normal -5.227486e-01  5.512771e-01  6.502517e-01
    outer loop
      vertex  -6.606474e+01  5.930318e+00  4.364099e+00
      vertex  -6.686139e+01  5.602722e+00  4.001394e+00
      vertex  -6.670245e+01  5.211840e+00  4.460551e+00
    endloop
  endfacet
  facet normal -5.204309e-01  6.411366e-01  5.639997e-01
    outer loop
      vertex  -6.604181e+01  6.310677e+00  3.952881e+00
      vertex  -6.686139e+01  5.602722e+00  4.001394e+00
      vertex  -6.606474e+01  5.930318e+00  4.364099e+00
    endloop
  endfacet
  facet normal -5.981718e-01  7.170113e-01  3.578902e-01
    outer loop
      vertex  -6.688534e+01  5.915963e+00  3.333807e+00
      vertex  -6.686139e+01  5.602722e+00  4.001394e+00
      vertex  -6.604181e+01  6.310677e+00  3.952881e+00
    endloop
  endfacet
  facet normal -3.806853e-01  8.033772e-01 -4.578905e-01
    outer loop
      vertex  -6.555319e+01  6.610263e+00  2.836759e+00
      vertex  -6.542916e+01  6.355945e+00  2.287435e+00
      vertex  -6.660086e+01  5.910083e+00  2.479300e+00
    endloop
  endfacet
  facet normal -3.563755e-01  6.460799e-01 -6.749647e-01
    outer loop
      vertex  -6.542916e+01  6.355945e+00  2.287435e+00
      vertex  -6.607522e+01  5.529569e+00  1.837536e+00
      vertex  -6.660086e+01  5.910083e+00  2.479300e+00
    endloop
  endfacet
  facet normal -1.093480e-01  4.016064e-01 -9.092608e-01
    outer loop
      vertex  -6.431918e+01  5.541351e+00  1.631558e+00
      vertex  -6.543823e+01  4.942258e+00  1.501526e+00
      vertex  -6.607522e+01  5.529569e+00  1.837536e+00
    endloop
  endfacet
  facet normal  4.428912e-02  1.321997e-01 -9.902331e-01
    outer loop
      vertex  -6.431918e+01  5.541351e+00  1.631558e+00
      vertex  -6.453170e+01  3.723032e+00  1.379300e+00
      vertex  -6.543823e+01  4.942258e+00  1.501526e+00
    endloop
  endfacet
  facet normal -4.413479e-02  6.710897e-02 -9.967690e-01
    outer loop
      vertex  -6.453170e+01  3.723032e+00  1.379300e+00
      vertex  -6.583723e+01  4.163177e+00  1.466740e+00
      vertex  -6.543823e+01  4.942258e+00  1.501526e+00
    endloop
  endfacet
  facet normal -2.076455e-01 -9.775302e-01  3.630646e-02
    outer loop
      vertex  -6.692562e+01  3.773805e+00  5.668015e+00
      vertex  -6.709071e+01  3.784898e+00  5.022481e+00
      vertex  -6.671101e+01  3.692338e+00  4.701932e+00
    endloop
  endfacet
  facet normal -2.580704e-02 -9.681612e-01  2.489937e-01
    outer loop
      vertex  -6.709071e+01  3.784898e+00  5.022481e+00
      vertex  -6.730520e+01  3.692440e+00  4.640744e+00
      vertex  -6.671101e+01  3.692338e+00  4.701932e+00
    endloop
  endfacet
  facet normal -8.173309e-01  5.332563e-01  2.181923e-01
    outer loop
      vertex  -6.689385e+01  4.169832e+00  4.819139e+00
      vertex  -6.709071e+01  3.784898e+00  5.022481e+00
      vertex  -6.692562e+01  3.773805e+00  5.668015e+00
    endloop
  endfacet
  facet normal -7.751650e-01  5.554397e-01  3.010085e-01
    outer loop
      vertex  -6.689385e+01  4.169832e+00  4.819139e+00
      vertex  -6.730520e+01  3.692440e+00  4.640744e+00
      vertex  -6.709071e+01  3.784898e+00  5.022481e+00
    endloop
  endfacet
  facet normal -6.147820e-01  3.904244e-01  6.852824e-01
    outer loop
      vertex  -6.629777e+01  4.109091e+00  5.388506e+00
      vertex  -6.697578e+01  4.477505e+00  4.570347e+00
      vertex  -6.689385e+01  4.169832e+00  4.819139e+00
    endloop
  endfacet
  facet normal -7.011178e-01  3.369615e-01  6.284033e-01
    outer loop
      vertex  -6.670245e+01  5.211840e+00  4.460551e+00
      vertex  -6.731277e+01  5.197999e+00  3.787030e+00
      vertex  -6.758369e+01  4.458866e+00  3.881098e+00
    endloop
  endfacet
  facet normal -6.726769e-01  4.320806e-01  6.006764e-01
    outer loop
      vertex  -6.686139e+01  5.602722e+00  4.001394e+00
      vertex  -6.731277e+01  5.197999e+00  3.787030e+00
      vertex  -6.670245e+01  5.211840e+00  4.460551e+00
    endloop
  endfacet
  facet normal -7.121799e-01  6.253464e-01  3.189696e-01
    outer loop
      vertex  -6.686139e+01  5.602722e+00  4.001394e+00
      vertex  -6.688534e+01  5.915963e+00  3.333807e+00
      vertex  -6.731277e+01  5.197999e+00  3.787030e+00
    endloop
  endfacet
  facet normal -8.497374e-01  5.262212e-01  3.221127e-02
    outer loop
      vertex  -6.688534e+01  5.915963e+00  3.333807e+00
      vertex  -6.765767e+01  4.682951e+00  3.102774e+00
      vertex  -6.731277e+01  5.197999e+00  3.787030e+00
    endloop
  endfacet
  facet normal -6.215468e-01  7.136075e-01 -3.231778e-01
    outer loop
      vertex  -6.614706e+01  6.426285e+00  3.040772e+00
      vertex  -6.722415e+01  5.412320e+00  2.873333e+00
      vertex  -6.688534e+01  5.915963e+00  3.333807e+00
    endloop
  endfacet
  facet normal -6.683750e-01  7.318944e-01 -1.326856e-01
    outer loop
      vertex  -6.660086e+01  5.910083e+00  2.479300e+00
      vertex  -6.722415e+01  5.412320e+00  2.873333e+00
      vertex  -6.614706e+01  6.426285e+00  3.040772e+00
    endloop
  endfacet
  facet normal -7.135674e-01  5.473797e-01 -4.372608e-01
    outer loop
      vertex  -6.660086e+01  5.910083e+00  2.479300e+00
      vertex  -6.717377e+01  5.073993e+00  2.367592e+00
      vertex  -6.722415e+01  5.412320e+00  2.873333e+00
    endloop
  endfacet
  facet normal -4.756975e-01  5.286148e-01 -7.030492e-01
    outer loop
      vertex  -6.607522e+01  5.529569e+00  1.837536e+00
      vertex  -6.664346e+01  5.165358e+00  1.948176e+00
      vertex  -6.660086e+01  5.910083e+00  2.479300e+00
    endloop
  endfacet
  facet normal -3.753590e-01  3.215588e-01 -8.693133e-01
    outer loop
      vertex  -6.619634e+01  4.790321e+00  1.616389e+00
      vertex  -6.664346e+01  5.165358e+00  1.948176e+00
      vertex  -6.607522e+01  5.529569e+00  1.837536e+00
    endloop
  endfacet
  facet normal -2.030068e-01  3.110161e-01 -9.284704e-01
    outer loop
      vertex  -6.607522e+01  5.529569e+00  1.837536e+00
      vertex  -6.543823e+01  4.942258e+00  1.501526e+00
      vertex  -6.619634e+01  4.790321e+00  1.616389e+00
    endloop
  endfacet
  facet normal -7.539468e-02 -2.560134e-02 -9.968250e-01
    outer loop
      vertex  -6.453170e+01  3.723032e+00  1.379300e+00
      vertex  -6.567133e+01  3.692338e+00  1.466284e+00
      vertex  -6.583723e+01  4.163177e+00  1.466740e+00
    endloop
  endfacet
  facet normal  2.232081e-02 -9.979655e-01 -5.972015e-02
    outer loop
      vertex  -6.453170e+01  3.723032e+00  1.379300e+00
      vertex  -6.489242e+01  3.692338e+00  1.757406e+00
      vertex  -6.567133e+01  3.692338e+00  1.466284e+00
    endloop
  endfacet
  facet normal  0.000000e+00 -1.000000e+00  0.000000e+00
    outer loop
      vertex  -6.429903e+01  3.692338e+00  5.923487e+00
      vertex  -6.671101e+01  3.692338e+00  4.701932e+00
      vertex  -6.489242e+01  3.692338e+00  1.757406e+00
    endloop
  endfacet
  facet normal  1.591795e-03 -9.998521e-01 -1.712514e-02
    outer loop
      vertex  -6.671101e+01  3.692338e+00  4.701932e+00
      vertex  -6.730520e+01  3.692440e+00  4.640744e+00
      vertex  -6.772354e+01  3.705979e+00  3.811337e+00
    endloop
  endfacet
  facet normal -6.795768e-01  3.432873e-01  6.483279e-01
    outer loop
      vertex  -6.689385e+01  4.169832e+00  4.819139e+00
      vertex  -6.697578e+01  4.477505e+00  4.570347e+00
      vertex  -6.730520e+01  3.692440e+00  4.640744e+00
    endloop
  endfacet
  facet normal -7.067809e-01  3.516119e-01  6.138648e-01
    outer loop
      vertex  -6.697578e+01  4.477505e+00  4.570347e+00
      vertex  -6.758369e+01  4.458866e+00  3.881098e+00
      vertex  -6.730520e+01  3.692440e+00  4.640744e+00
    endloop
  endfacet
  facet normal -9.136997e-01  3.591157e-01  1.902333e-01
    outer loop
      vertex  -6.765767e+01  4.682951e+00  3.102774e+00
      vertex  -6.758369e+01  4.458866e+00  3.881098e+00
      vertex  -6.731277e+01  5.197999e+00  3.787030e+00
    endloop
  endfacet
  facet normal -8.507664e-01  5.227371e-01  5.424508e-02
    outer loop
      vertex  -6.688534e+01  5.915963e+00  3.333807e+00
      vertex  -6.722415e+01  5.412320e+00  2.873333e+00
      vertex  -6.765767e+01  4.682951e+00  3.102774e+00
    endloop
  endfacet
  facet normal -5.909925e-01  4.905286e-01 -6.403980e-01
    outer loop
      vertex  -6.660086e+01  5.910083e+00  2.479300e+00
      vertex  -6.664346e+01  5.165358e+00  1.948176e+00
      vertex  -6.717377e+01  5.073993e+00  2.367592e+00
    endloop
  endfacet
  facet normal -1.744608e-01  1.329118e-01 -9.756526e-01
    outer loop
      vertex  -6.543823e+01  4.942258e+00  1.501526e+00
      vertex  -6.583723e+01  4.163177e+00  1.466740e+00
      vertex  -6.619634e+01  4.790321e+00  1.616389e+00
    endloop
  endfacet
  facet normal -0.000000e+00 -1.000000e+00  0.000000e+00
    outer loop
      vertex  -6.489242e+01  3.692338e+00  1.757406e+00
      vertex  -6.671101e+01  3.692338e+00  4.701932e+00
      vertex  -6.567133e+01  3.692338e+00  1.466284e+00
    endloop
  endfacet
  facet normal  0.000000e+00 -1.000000e+00  0.000000e+00
    outer loop
      vertex  -6.671101e+01  3.692338e+00  4.701932e+00
      vertex  -6.640755e+01  3.692338e+00  1.576472e+00
      vertex  -6.567133e+01  3.692338e+00  1.466284e+00
    endloop
  endfacet
  facet normal -2.726589e-02 -9.995051e-01  1.568883e-02
    outer loop
      vertex  -6.772354e+01  3.705979e+00  3.811337e+00
      vertex  -6.766960e+01  3.692338e+00  3.035985e+00
      vertex  -6.671101e+01  3.692338e+00  4.701932e+00
    endloop
  endfacet
  facet normal -8.852803e-01  1.228790e-01  4.485305e-01
    outer loop
      vertex  -6.758369e+01  4.458866e+00  3.881098e+00
      vertex  -6.772354e+01  3.705979e+00  3.811337e+00
      vertex  -6.730520e+01  3.692440e+00  4.640744e+00
    endloop
  endfacet
  facet normal -9.619075e-01  1.580009e-01  2.230911e-01
    outer loop
      vertex  -6.758369e+01  4.458866e+00  3.881098e+00
      vertex  -6.780653e+01  3.755045e+00  3.418746e+00
      vertex  -6.772354e+01  3.705979e+00  3.811337e+00
    endloop
  endfacet
  facet normal -9.666425e-01  2.066209e-01  1.513608e-01
    outer loop
      vertex  -6.765767e+01  4.682951e+00  3.102774e+00
      vertex  -6.780653e+01  3.755045e+00  3.418746e+00
      vertex  -6.758369e+01  4.458866e+00  3.881098e+00
    endloop
  endfacet
  facet normal -9.830616e-01  1.070588e-01 -1.487555e-01
    outer loop
      vertex  -6.765767e+01  4.682951e+00  3.102774e+00
      vertex  -6.766455e+01  4.080915e+00  2.714969e+00
      vertex  -6.780653e+01  3.755045e+00  3.418746e+00
    endloop
  endfacet
  facet normal -4.868892e-01  1.763503e-01 -8.554762e-01
    outer loop
      vertex  -6.619634e+01  4.790321e+00  1.616389e+00
      vertex  -6.717550e+01  4.131718e+00  2.037903e+00
      vertex  -6.664346e+01  5.165358e+00  1.948176e+00
    endloop
  endfacet
  facet normal -2.547196e-01  8.402126e-02 -9.633578e-01
    outer loop
      vertex  -6.583723e+01  4.163177e+00  1.466740e+00
      vertex  -6.640755e+01  3.692338e+00  1.576472e+00
      vertex  -6.619634e+01  4.790321e+00  1.616389e+00
    endloop
  endfacet
  facet normal -1.478232e-01 -5.113173e-02 -9.876912e-01
    outer loop
      vertex  -6.640755e+01  3.692338e+00  1.576472e+00
      vertex  -6.583723e+01  4.163177e+00  1.466740e+00
      vertex  -6.567133e+01  3.692338e+00  1.466284e+00
    endloop
  endfacet
  facet normal -4.524578e-01 -8.916460e-01 -1.578870e-02
    outer loop
      vertex  -6.772354e+01  3.705979e+00  3.811337e+00
      vertex  -6.780653e+01  3.755045e+00  3.418746e+00
      vertex  -6.766960e+01  3.692338e+00  3.035985e+00
    endloop
  endfacet
  facet normal -8.635215e-01  2.800390e-01 -4.194148e-01
    outer loop
      vertex  -6.765767e+01  4.682951e+00  3.102774e+00
      vertex  -6.717377e+01  5.073993e+00  2.367592e+00
      vertex  -6.766455e+01  4.080915e+00  2.714969e+00
    endloop
  endfacet
  facet normal -8.496851e-01  3.952322e-01 -3.490368e-01
    outer loop
      vertex  -6.717377e+01  5.073993e+00  2.367592e+00
      vertex  -6.765767e+01  4.682951e+00  3.102774e+00
      vertex  -6.722415e+01  5.412320e+00  2.873333e+00
    endloop
  endfacet
  facet normal -6.262489e-01  2.584945e-01 -7.355222e-01
    outer loop
      vertex  -6.664346e+01  5.165358e+00  1.948176e+00
      vertex  -6.717550e+01  4.131718e+00  2.037903e+00
      vertex  -6.717377e+01  5.073993e+00  2.367592e+00
    endloop
  endfacet
  facet normal -4.597621e-01  1.204277e-01 -8.798386e-01
    outer loop
      vertex  -6.619634e+01  4.790321e+00  1.616389e+00
      vertex  -6.640755e+01  3.692338e+00  1.576472e+00
      vertex  -6.717550e+01  4.131718e+00  2.037903e+00
    endloop
  endfacet
  facet normal -6.378411e-01 -4.964729e-01 -5.887897e-01
    outer loop
      vertex  -6.640755e+01  3.692338e+00  1.576472e+00
      vertex  -6.678816e+01  3.692338e+00  1.988787e+00
      vertex  -6.717550e+01  4.131718e+00  2.037903e+00
    endloop
  endfacet
  facet normal  0.000000e+00 -1.000000e+00 -0.000000e+00
    outer loop
      vertex  -6.671101e+01  3.692338e+00  4.701932e+00
      vertex  -6.678816e+01  3.692338e+00  1.988787e+00
      vertex  -6.640755e+01  3.692338e+00  1.576472e+00
    endloop
  endfacet
  facet normal -3.388873e-07 -1.000000e+00  9.636281e-09
    outer loop
      vertex  -6.671101e+01  3.692338e+00  4.701932e+00
      vertex  -6.748247e+01  3.692338e+00  2.313323e+00
      vertex  -6.678816e+01  3.692338e+00  1.988787e+00
    endloop
  endfacet
  facet normal -9.275140e-01 -2.308274e-01 -2.940008e-01
    outer loop
      vertex  -6.780653e+01  3.755045e+00  3.418746e+00
      vertex  -6.766455e+01  4.080915e+00  2.714969e+00
      vertex  -6.766960e+01  3.692338e+00  3.035985e+00
    endloop
  endfacet
  facet normal -8.014842e-01  1.988033e-01 -5.640038e-01
    outer loop
      vertex  -6.717377e+01  5.073993e+00  2.367592e+00
      vertex  -6.717550e+01  4.131718e+00  2.037903e+00
      vertex  -6.766455e+01  4.080915e+00  2.714969e+00
    endloop
  endfacet
  facet normal -8.004593e-01  2.065220e-01 -5.626842e-01
    outer loop
      vertex  -6.748247e+01  3.692338e+00  2.313323e+00
      vertex  -6.766455e+01  4.080915e+00  2.714969e+00
      vertex  -6.717550e+01  4.131718e+00  2.037903e+00
    endloop
  endfacet
  facet normal -9.502596e-01 -1.909349e-01 -2.460704e-01
    outer loop
      vertex  -6.748247e+01  3.692338e+00  2.313323e+00
      vertex  -6.766960e+01  3.692338e+00  3.035985e+00
      vertex  -6.766455e+01  4.080915e+00  2.714969e+00
    endloop
  endfacet
  facet normal  3.954172e-07 -1.000000e+00 -2.275235e-07
    outer loop
      vertex  -6.748247e+01  3.692338e+00  2.313323e+00
      vertex  -6.671101e+01  3.692338e+00  4.701932e+00
      vertex  -6.766960e+01  3.692338e+00  3.035985e+00
    endloop
  endfacet
  facet normal -4.086015e-01 -2.624868e-01 -8.741542e-01
    outer loop
      vertex  -6.748247e+01  3.692338e+00  2.313323e+00
      vertex  -6.717550e+01  4.131718e+00  2.037903e+00
      vertex  -6.678816e+01  3.692338e+00  1.988787e+00
    endloop
  endfacet
endsolid vcg
