solid
facet normal 0.9906859386597596 -0.13616670276477702 0.0
 outer loop
  vertex 0.8002207279205322 -0.22421133518218994 0.05000000074505806
  vertex 0.8310378789901733 -2.035455906454546e-16 0.0
  vertex 0.8310378789901733 -2.035455906454546e-16 0.05000000074505806
 endloop
endfacet
facet normal 0.9906859386597596 0.13616670276477677 -0.0
 outer loop
  vertex 0.8310378789901733 -2.035455906454546e-16 0.0
  vertex 0.8002207279205322 0.22421133518218994 0.0
  vertex 0.8310378789901733 -2.035455906454546e-16 0.05000000074505806
 endloop
endfacet
facet normal 0.9906859386597596 0.13616670276477677 0.0
 outer loop
  vertex 0.8310378789901733 -2.035455906454546e-16 0.05000000074505806
  vertex 0.8002207279205322 0.22421133518218994 0.0
  vertex 0.8002207279205322 0.22421133518218994 0.05000000074505806
 endloop
endfacet
facet normal 0.9906859386597596 -0.13616670276477702 0.0
 outer loop
  vertex 0.8002207279205322 -0.22421133518218994 0.05000000074505806
  vertex 0.8002207279205322 -0.22421133518218994 0.0
  vertex 0.8310378789901733 -2.035455906454546e-16 0.0
 endloop
endfacet
facet normal 0.9172114035580846 0.39840085489743676 -0.0
 outer loop
  vertex 0.8002207279205322 0.22421133518218994 0.0
  vertex 0.7100549340248108 0.4317939579486847 0.05000000074505806
  vertex 0.8002207279205322 0.22421133518218994 0.05000000074505806
 endloop
endfacet
facet normal 0.7757112372832181 0.6310880099895251 0.0
 outer loop
  vertex 0.7100549340248108 0.4317939579486847 0.05000000074505806
  vertex 0.5672275424003601 0.6073523759841919 0.0
  vertex 0.5672275424003601 0.6073523759841919 0.05000000074505806
 endloop
endfacet
facet normal 0.9172114035580846 0.39840085489743676 0.0
 outer loop
  vertex 0.8002207279205322 0.22421133518218994 0.0
  vertex 0.7100549340248108 0.4317939579486847 0.0
  vertex 0.7100549340248108 0.4317939579486847 0.05000000074505806
 endloop
endfacet
facet normal 0.7757112372832181 0.6310880099895251 0.0
 outer loop
  vertex 0.7100549340248108 0.4317939579486847 0.05000000074505806
  vertex 0.7100549340248108 0.4317939579486847 0.0
  vertex 0.5672275424003601 0.6073523759841919 0.0
 endloop
endfacet
facet normal 0.5766803851218358 0.8169698485352633 0.0
 outer loop
  vertex 0.5672275424003601 0.6073523759841919 0.05000000074505806
  vertex 0.3823314905166626 0.7378662824630737 0.0
  vertex 0.3823314905166626 0.7378662824630737 0.05000000074505806
 endloop
endfacet
facet normal 0.5766803851218358 0.8169698485352633 0.0
 outer loop
  vertex 0.5672275424003601 0.6073523759841919 0.05000000074505806
  vertex 0.5672275424003601 0.6073523759841919 0.0
  vertex 0.3823314905166626 0.7378662824630737 0.0
 endloop
endfacet
facet normal 0.3348795012724673 0.9422609615321562 -0.0
 outer loop
  vertex 0.3823314905166626 0.7378662824630737 0.0
  vertex 0.16907966136932373 0.8136559724807739 0.05000000074505806
  vertex 0.3823314905166626 0.7378662824630737 0.05000000074505806
 endloop
endfacet
facet normal 0.06824242034317123 0.9976687687131968 0.0
 outer loop
  vertex 0.16907966136932373 0.8136559724807739 0.05000000074505806
  vertex 0.16907966136932373 0.8136559724807739 0.0
  vertex -0.056712035089731216 0.8291005492210388 0.05000000074505806
 endloop
endfacet
facet normal 0.3348795012724673 0.9422609615321562 0.0
 outer loop
  vertex 0.3823314905166626 0.7378662824630737 0.0
  vertex 0.16907966136932373 0.8136559724807739 0.0
  vertex 0.16907966136932373 0.8136559724807739 0.05000000074505806
 endloop
endfacet
facet normal -0.2034559947201428 0.9790840914918579 0.0
 outer loop
  vertex -0.056712035089731216 0.8291005492210388 0.05000000074505806
  vertex -0.27829766273498535 0.783054530620575 0.0
  vertex -0.27829766273498535 0.783054530620575 0.05000000074505806
 endloop
endfacet
facet normal 0.06824242034317123 0.9976687687131968 0.0
 outer loop
  vertex 0.16907966136932373 0.8136559724807739 0.0
  vertex -0.056712035089731216 0.8291005492210388 0.0
  vertex -0.056712035089731216 0.8291005492210388 0.05000000074505806
 endloop
endfacet
facet normal -0.2034559947201428 0.9790840914918579 0.0
 outer loop
  vertex -0.056712035089731216 0.8291005492210388 0.05000000074505806
  vertex -0.056712035089731216 0.8291005492210388 0.0
  vertex -0.27829766273498535 0.783054530620575 0.0
 endloop
endfacet
facet normal -0.4600651984317382 0.8878851351340247 0.0
 outer loop
  vertex -0.27829766273498535 0.783054530620575 0.05000000074505806
  vertex -0.4792431890964508 0.6789329051971436 0.0
  vertex -0.4792431890964508 0.6789329051971436 0.05000000074505806
 endloop
endfacet
facet normal -0.4600651984317382 0.8878851351340247 0.0
 outer loop
  vertex -0.27829766273498535 0.783054530620575 0.0
  vertex -0.4792431890964508 0.6789329051971436 0.0
  vertex -0.27829766273498535 0.783054530620575 0.05000000074505806
 endloop
endfacet
facet normal -0.6825529731015041 0.7308361231564142 0.0
 outer loop
  vertex -0.4792431890964508 0.6789329051971436 0.05000000074505806
  vertex -0.4792431890964508 0.6789329051971436 0.0
  vertex -0.6446455121040344 0.5244579911231995 0.05000000074505806
 endloop
endfacet
facet normal -0.8544194307076177 0.519583907015287 0.0
 outer loop
  vertex -0.6446455121040344 0.5244579911231995 0.05000000074505806
  vertex -0.6446455121040344 0.5244579911231995 0.0
  vertex -0.7622373700141907 0.3310863971710205 0.05000000074505806
 endloop
endfacet
facet normal -0.6825529731015041 0.7308361231564142 0.0
 outer loop
  vertex -0.4792431890964508 0.6789329051971436 0.0
  vertex -0.6446455121040344 0.5244579911231995 0.0
  vertex -0.6446455121040344 0.5244579911231995 0.05000000074505806
 endloop
endfacet
facet normal -0.9629173115144308 0.2697966849051715 0.0
 outer loop
  vertex -0.7622373700141907 0.3310863971710205 0.05000000074505806
  vertex -0.7622373700141907 0.3310863971710205 0.0
  vertex -0.8232975602149963 0.1131596490740776 0.05000000074505806
 endloop
endfacet
facet normal -0.8544194307076177 0.519583907015287 0.0
 outer loop
  vertex -0.6446455121040344 0.5244579911231995 0.0
  vertex -0.7622373700141907 0.3310863971710205 0.0
  vertex -0.7622373700141907 0.3310863971710205 0.05000000074505806
 endloop
endfacet
facet normal -1.0 -0.0 -0.0
 outer loop
  vertex -0.8232975602149963 0.1131596490740776 0.05000000074505806
  vertex -0.8232975602149963 0.1131596490740776 0.0
  vertex -0.8232975602149963 -0.1131596490740776 0.05000000074505806
 endloop
endfacet
facet normal -0.9629173115144308 0.2697966849051715 0.0
 outer loop
  vertex -0.7622373700141907 0.3310863971710205 0.0
  vertex -0.8232975602149963 0.1131596490740776 0.0
  vertex -0.8232975602149963 0.1131596490740776 0.05000000074505806
 endloop
endfacet
facet normal -0.9629173115144308 -0.2697966849051715 -0.0
 outer loop
  vertex -0.8232975602149963 -0.1131596490740776 0.05000000074505806
  vertex -0.8232975602149963 -0.1131596490740776 0.0
  vertex -0.7622373700141907 -0.3310863971710205 0.05000000074505806
 endloop
endfacet
facet normal -1.0 0.0 0.0
 outer loop
  vertex -0.8232975602149963 0.1131596490740776 0.0
  vertex -0.8232975602149963 -0.1131596490740776 0.0
  vertex -0.8232975602149963 -0.1131596490740776 0.05000000074505806
 endloop
endfacet
facet normal -0.8544194307076177 -0.519583907015287 0.0
 outer loop
  vertex -0.7622373700141907 -0.3310863971710205 0.05000000074505806
  vertex -0.6446455121040344 -0.5244579911231995 0.0
  vertex -0.6446455121040344 -0.5244579911231995 0.05000000074505806
 endloop
endfacet
facet normal -0.9629173115144308 -0.2697966849051715 0.0
 outer loop
  vertex -0.8232975602149963 -0.1131596490740776 0.0
  vertex -0.7622373700141907 -0.3310863971710205 0.0
  vertex -0.7622373700141907 -0.3310863971710205 0.05000000074505806
 endloop
endfacet
facet normal -0.8544194307076177 -0.519583907015287 -0.0
 outer loop
  vertex -0.7622373700141907 -0.3310863971710205 0.05000000074505806
  vertex -0.7622373700141907 -0.3310863971710205 0.0
  vertex -0.6446455121040344 -0.5244579911231995 0.0
 endloop
endfacet
facet normal -0.6825529731015041 -0.7308361231564142 0.0
 outer loop
  vertex -0.6446455121040344 -0.5244579911231995 0.05000000074505806
  vertex -0.4792431890964508 -0.6789329051971436 0.0
  vertex -0.4792431890964508 -0.6789329051971436 0.05000000074505806
 endloop
endfacet
facet normal -0.6825529731015041 -0.7308361231564142 0.0
 outer loop
  vertex -0.6446455121040344 -0.5244579911231995 0.0
  vertex -0.4792431890964508 -0.6789329051971436 0.0
  vertex -0.6446455121040344 -0.5244579911231995 0.05000000074505806
 endloop
endfacet
facet normal -0.4600651984317382 -0.8878851351340247 0.0
 outer loop
  vertex -0.4792431890964508 -0.6789329051971436 0.0
  vertex -0.27829766273498535 -0.783054530620575 0.05000000074505806
  vertex -0.4792431890964508 -0.6789329051971436 0.05000000074505806
 endloop
endfacet
facet normal -0.2034559947201428 -0.9790840914918579 0.0
 outer loop
  vertex -0.27829766273498535 -0.783054530620575 0.05000000074505806
  vertex -0.056712035089731216 -0.8291005492210388 0.0
  vertex -0.056712035089731216 -0.8291005492210388 0.05000000074505806
 endloop
endfacet
facet normal -0.4600651984317382 -0.8878851351340247 0.0
 outer loop
  vertex -0.4792431890964508 -0.6789329051971436 0.0
  vertex -0.27829766273498535 -0.783054530620575 0.0
  vertex -0.27829766273498535 -0.783054530620575 0.05000000074505806
 endloop
endfacet
facet normal -0.2034559947201428 -0.9790840914918579 -0.0
 outer loop
  vertex -0.27829766273498535 -0.783054530620575 0.05000000074505806
  vertex -0.27829766273498535 -0.783054530620575 0.0
  vertex -0.056712035089731216 -0.8291005492210388 0.0
 endloop
endfacet
facet normal 0.06824242034317123 -0.9976687687131968 0.0
 outer loop
  vertex -0.056712035089731216 -0.8291005492210388 0.05000000074505806
  vertex 0.16907966136932373 -0.8136559724807739 0.0
  vertex 0.16907966136932373 -0.8136559724807739 0.05000000074505806
 endloop
endfacet
facet normal 0.06824242034317123 -0.9976687687131968 0.0
 outer loop
  vertex -0.056712035089731216 -0.8291005492210388 0.0
  vertex 0.16907966136932373 -0.8136559724807739 0.0
  vertex -0.056712035089731216 -0.8291005492210388 0.05000000074505806
 endloop
endfacet
facet normal 0.3348795012724673 -0.9422609615321562 0.0
 outer loop
  vertex 0.16907966136932373 -0.8136559724807739 0.05000000074505806
  vertex 0.3823314905166626 -0.7378662824630737 0.0
  vertex 0.3823314905166626 -0.7378662824630737 0.05000000074505806
 endloop
endfacet
facet normal 0.3348795012724673 -0.9422609615321562 0.0
 outer loop
  vertex 0.16907966136932373 -0.8136559724807739 0.0
  vertex 0.3823314905166626 -0.7378662824630737 0.0
  vertex 0.16907966136932373 -0.8136559724807739 0.05000000074505806
 endloop
endfacet
facet normal 0.5766803851218358 -0.8169698485352633 0.0
 outer loop
  vertex 0.3823314905166626 -0.7378662824630737 0.0
  vertex 0.5672275424003601 -0.6073523759841919 0.05000000074505806
  vertex 0.3823314905166626 -0.7378662824630737 0.05000000074505806
 endloop
endfacet
facet normal 0.7757112372832181 -0.6310880099895251 0.0
 outer loop
  vertex 0.5672275424003601 -0.6073523759841919 0.05000000074505806
  vertex 0.5672275424003601 -0.6073523759841919 0.0
  vertex 0.7100549340248108 -0.4317939579486847 0.05000000074505806
 endloop
endfacet
facet normal 0.5766803851218358 -0.8169698485352633 0.0
 outer loop
  vertex 0.3823314905166626 -0.7378662824630737 0.0
  vertex 0.5672275424003601 -0.6073523759841919 0.0
  vertex 0.5672275424003601 -0.6073523759841919 0.05000000074505806
 endloop
endfacet
facet normal 0.9172114035580846 -0.39840085489743676 0.0
 outer loop
  vertex 0.7100549340248108 -0.4317939579486847 0.0
  vertex 0.8002207279205322 -0.22421133518218994 0.05000000074505806
  vertex 0.7100549340248108 -0.4317939579486847 0.05000000074505806
 endloop
endfacet
facet normal 0.7757112372832181 -0.6310880099895251 0.0
 outer loop
  vertex 0.5672275424003601 -0.6073523759841919 0.0
  vertex 0.7100549340248108 -0.4317939579486847 0.0
  vertex 0.7100549340248108 -0.4317939579486847 0.05000000074505806
 endloop
endfacet
facet normal 0.9172114035580846 -0.39840085489743676 0.0
 outer loop
  vertex 0.7100549340248108 -0.4317939579486847 0.0
  vertex 0.8002207279205322 -0.22421133518218994 0.0
  vertex 0.8002207279205322 -0.22421133518218994 0.05000000074505806
 endloop
endfacet
facet normal 0.0 0.0 1.0
 outer loop
  vertex 0.8002207279205322 0.22421133518218994 0.05000000074505806
  vertex 0.6214566230773926 0.0854172483086586 0.05000000074505806
  vertex 0.8310378789901733 -2.035455906454546e-16 0.05000000074505806
 endloop
endfacet
facet normal 0.0 0.0 1.0
 outer loop
  vertex 0.8310378789901733 -2.035455906454546e-16 0.05000000074505806
  vertex 0.6319468021392822 -0.1022803783416748 0.05000000074505806
  vertex 0.8002207279205322 -0.22421133518218994 0.05000000074505806
 endloop
endfacet
facet normal 0.0 0.0 1.0
 outer loop
  vertex 0.6214566230773926 0.0854172483086586 0.05000000074505806
  vertex 0.6319468021392822 -0.1022803783416748 0.05000000074505806
  vertex 0.8310378789901733 -2.035455906454546e-16 0.05000000074505806
 endloop
endfacet
facet normal 0.0 0.0 1.0
 outer loop
  vertex 0.7100549340248108 0.4317939579486847 0.05000000074505806
  vertex 0.607998251914978 0.26243510842323303 0.05000000074505806
  vertex 0.8002207279205322 0.22421133518218994 0.05000000074505806
 endloop
endfacet
facet normal 0.0 0.0 1.0
 outer loop
  vertex 0.8002207279205322 0.22421133518218994 0.05000000074505806
  vertex 0.607998251914978 0.26243510842323303 0.05000000074505806
  vertex 0.6214566230773926 0.0854172483086586 0.05000000074505806
 endloop
endfacet
facet normal 0.0 0.0 1.0
 outer loop
  vertex 0.5672275424003601 0.6073523759841919 0.05000000074505806
  vertex 0.48990458250045776 0.3947439193725586 0.05000000074505806
  vertex 0.7100549340248108 0.4317939579486847 0.05000000074505806
 endloop
endfacet
facet normal -0.0 0.0 1.0
 outer loop
  vertex 0.48990458250045776 0.3947439193725586 0.05000000074505806
  vertex 0.607998251914978 0.26243510842323303 0.05000000074505806
  vertex 0.7100549340248108 0.4317939579486847 0.05000000074505806
 endloop
endfacet
facet normal 0.0 0.0 1.0
 outer loop
  vertex 0.3823314905166626 0.7378662824630737 0.05000000074505806
  vertex 0.34650227427482605 0.5399900674819946 0.05000000074505806
  vertex 0.5672275424003601 0.6073523759841919 0.05000000074505806
 endloop
endfacet
facet normal -0.0 0.0 1.0
 outer loop
  vertex 0.34650227427482605 0.5399900674819946 0.05000000074505806
  vertex 0.48990458250045776 0.3947439193725586 0.05000000074505806
  vertex 0.5672275424003601 0.6073523759841919 0.05000000074505806
 endloop
endfacet
facet normal 0.0 0.0 1.0
 outer loop
  vertex 0.16907966136932373 0.8136559724807739 0.05000000074505806
  vertex 0.230255588889122 0.666159451007843 0.05000000074505806
  vertex 0.3823314905166626 0.7378662824630737 0.05000000074505806
 endloop
endfacet
facet normal 0.0 0.0 1.0
 outer loop
  vertex 0.3823314905166626 0.7378662824630737 0.05000000074505806
  vertex 0.230255588889122 0.666159451007843 0.05000000074505806
  vertex 0.34650227427482605 0.5399900674819946 0.05000000074505806
 endloop
endfacet
facet normal 0.0 0.0 1.0
 outer loop
  vertex -0.056712035089731216 0.8291005492210388 0.05000000074505806
  vertex 0.05397653952240944 0.7028111815452576 0.05000000074505806
  vertex 0.16907966136932373 0.8136559724807739 0.05000000074505806
 endloop
endfacet
facet normal -0.0 0.0 1.0
 outer loop
  vertex 0.05397653952240944 0.7028111815452576 0.05000000074505806
  vertex 0.230255588889122 0.666159451007843 0.05000000074505806
  vertex 0.16907966136932373 0.8136559724807739 0.05000000074505806
 endloop
endfacet
facet normal -0.0 0.0 1.0
 outer loop
  vertex -0.27829766273498535 0.783054530620575 0.05000000074505806
  vertex -0.10574278980493546 0.6431679725646973 0.05000000074505806
  vertex -0.056712035089731216 0.8291005492210388 0.05000000074505806
 endloop
endfacet
facet normal 0.0 0.0 1.0
 outer loop
  vertex -0.10574278980493546 0.6431679725646973 0.05000000074505806
  vertex 0.05397653952240944 0.7028111815452576 0.05000000074505806
  vertex -0.056712035089731216 0.8291005492210388 0.05000000074505806
 endloop
endfacet
facet normal -0.0 0.0 1.0
 outer loop
  vertex -0.4792431890964508 0.6789329051971436 0.05000000074505806
  vertex -0.26574432849884033 0.5951920747756958 0.05000000074505806
  vertex -0.27829766273498535 0.783054530620575 0.05000000074505806
 endloop
endfacet
facet normal 0.0 0.0 1.0
 outer loop
  vertex -0.27829766273498535 0.783054530620575 0.05000000074505806
  vertex -0.26574432849884033 0.5951920747756958 0.05000000074505806
  vertex -0.10574278980493546 0.6431679725646973 0.05000000074505806
 endloop
endfacet
facet normal -0.0 0.0 1.0
 outer loop
  vertex -0.6446455121040344 0.5244579911231995 0.05000000074505806
  vertex -0.365559846162796 0.4163406193256378 0.05000000074505806
  vertex -0.4792431890964508 0.6789329051971436 0.05000000074505806
 endloop
endfacet
facet normal 0.0 0.0 1.0
 outer loop
  vertex -0.4792431890964508 0.6789329051971436 0.05000000074505806
  vertex -0.365559846162796 0.4163406193256378 0.05000000074505806
  vertex -0.26574432849884033 0.5951920747756958 0.05000000074505806
 endloop
endfacet
facet normal -0.0 0.0 1.0
 outer loop
  vertex -0.7622373700141907 0.3310863971710205 0.05000000074505806
  vertex -0.545952320098877 0.3032246232032776 0.05000000074505806
  vertex -0.6446455121040344 0.5244579911231995 0.05000000074505806
 endloop
endfacet
facet normal 0.0 -0.0 1.0
 outer loop
  vertex -0.545952320098877 0.3032246232032776 0.05000000074505806
  vertex -0.365559846162796 0.4163406193256378 0.05000000074505806
  vertex -0.6446455121040344 0.5244579911231995 0.05000000074505806
 endloop
endfacet
facet normal 0.0 0.0 1.0
 outer loop
  vertex -0.8232975602149963 0.1131596490740776 0.05000000074505806
  vertex -0.6473488211631775 0.17299066483974457 0.05000000074505806
  vertex -0.7622373700141907 0.3310863971710205 0.05000000074505806
 endloop
endfacet
facet normal 0.0 0.0 1.0
 outer loop
  vertex -0.7622373700141907 0.3310863971710205 0.05000000074505806
  vertex -0.6473488211631775 0.17299066483974457 0.05000000074505806
  vertex -0.545952320098877 0.3032246232032776 0.05000000074505806
 endloop
endfacet
facet normal 0.0 0.0 1.0
 outer loop
  vertex -0.8232975602149963 -0.1131596490740776 0.05000000074505806
  vertex -0.6319459676742554 0.003190299030393362 0.05000000074505806
  vertex -0.8232975602149963 0.1131596490740776 0.05000000074505806
 endloop
endfacet
facet normal 0.0 0.0 1.0
 outer loop
  vertex -0.6319459676742554 0.003190299030393362 0.05000000074505806
  vertex -0.6473488211631775 0.17299066483974457 0.05000000074505806
  vertex -0.8232975602149963 0.1131596490740776 0.05000000074505806
 endloop
endfacet
facet normal 0.0 -0.0 1.0
 outer loop
  vertex -0.7622373700141907 -0.3310863971710205 0.05000000074505806
  vertex -0.6023827195167542 -0.19254478812217712 0.05000000074505806
  vertex -0.8232975602149963 -0.1131596490740776 0.05000000074505806
 endloop
endfacet
facet normal -0.0 0.0 1.0
 outer loop
  vertex -0.8232975602149963 -0.1131596490740776 0.05000000074505806
  vertex -0.6023827195167542 -0.19254478812217712 0.05000000074505806
  vertex -0.6319459676742554 0.003190299030393362 0.05000000074505806
 endloop
endfacet
facet normal 0.0 -0.0 1.0
 outer loop
  vertex -0.6446455121040344 -0.5244579911231995 0.05000000074505806
  vertex -0.5745183825492859 -0.3615933656692505 0.05000000074505806
  vertex -0.7622373700141907 -0.3310863971710205 0.05000000074505806
 endloop
endfacet
facet normal -0.0 0.0 1.0
 outer loop
  vertex -0.7622373700141907 -0.3310863971710205 0.05000000074505806
  vertex -0.5745183825492859 -0.3615933656692505 0.05000000074505806
  vertex -0.6023827195167542 -0.19254478812217712 0.05000000074505806
 endloop
endfacet
facet normal 0.0 -0.0 1.0
 outer loop
  vertex -0.4792431890964508 -0.6789329051971436 0.05000000074505806
  vertex -0.4472656548023224 -0.47891953587532043 0.05000000074505806
  vertex -0.6446455121040344 -0.5244579911231995 0.05000000074505806
 endloop
endfacet
facet normal 0.0 0.0 1.0
 outer loop
  vertex -0.4472656548023224 -0.47891953587532043 0.05000000074505806
  vertex -0.5745183825492859 -0.3615933656692505 0.05000000074505806
  vertex -0.6446455121040344 -0.5244579911231995 0.05000000074505806
 endloop
endfacet
facet normal 0.0 0.0 1.0
 outer loop
  vertex -0.27829766273498535 -0.783054530620575 0.05000000074505806
  vertex -0.3195006847381592 -0.6028769612312317 0.05000000074505806
  vertex -0.4792431890964508 -0.6789329051971436 0.05000000074505806
 endloop
endfacet
facet normal 0.0 0.0 1.0
 outer loop
  vertex -0.4792431890964508 -0.6789329051971436 0.05000000074505806
  vertex -0.3195006847381592 -0.6028769612312317 0.05000000074505806
  vertex -0.4472656548023224 -0.47891953587532043 0.05000000074505806
 endloop
endfacet
facet normal 0.0 0.0 1.0
 outer loop
  vertex -0.056712035089731216 -0.8291005492210388 0.05000000074505806
  vertex -0.15217287838459015 -0.6340909004211426 0.05000000074505806
  vertex -0.27829766273498535 -0.783054530620575 0.05000000074505806
 endloop
endfacet
facet normal 0.0 0.0 1.0
 outer loop
  vertex -0.15217287838459015 -0.6340909004211426 0.05000000074505806
  vertex -0.3195006847381592 -0.6028769612312317 0.05000000074505806
  vertex -0.27829766273498535 -0.783054530620575 0.05000000074505806
 endloop
endfacet
facet normal 0.0 0.0 1.0
 outer loop
  vertex 0.16907966136932373 -0.8136559724807739 0.05000000074505806
  vertex 0.0428084172308445 -0.625836968421936 0.05000000074505806
  vertex -0.056712035089731216 -0.8291005492210388 0.05000000074505806
 endloop
endfacet
facet normal 0.0 0.0 1.0
 outer loop
  vertex 0.0428084172308445 -0.625836968421936 0.05000000074505806
  vertex -0.15217287838459015 -0.6340909004211426 0.05000000074505806
  vertex -0.056712035089731216 -0.8291005492210388 0.05000000074505806
 endloop
endfacet
facet normal 0.0 0.0 1.0
 outer loop
  vertex 0.3823314905166626 -0.7378662824630737 0.05000000074505806
  vertex 0.23840969800949097 -0.5849376320838928 0.05000000074505806
  vertex 0.16907966136932373 -0.8136559724807739 0.05000000074505806
 endloop
endfacet
facet normal 0.0 -0.0 1.0
 outer loop
  vertex 0.16907966136932373 -0.8136559724807739 0.05000000074505806
  vertex 0.23840969800949097 -0.5849376320838928 0.05000000074505806
  vertex 0.0428084172308445 -0.625836968421936 0.05000000074505806
 endloop
endfacet
facet normal 0.0 0.0 1.0
 outer loop
  vertex 0.5672275424003601 -0.6073523759841919 0.05000000074505806
  vertex 0.4030294120311737 -0.5444725155830383 0.05000000074505806
  vertex 0.3823314905166626 -0.7378662824630737 0.05000000074505806
 endloop
endfacet
facet normal 0.0 -0.0 1.0
 outer loop
  vertex 0.3823314905166626 -0.7378662824630737 0.05000000074505806
  vertex 0.4030294120311737 -0.5444725155830383 0.05000000074505806
  vertex 0.23840969800949097 -0.5849376320838928 0.05000000074505806
 endloop
endfacet
facet normal 0.0 0.0 1.0
 outer loop
  vertex 0.7100549340248108 -0.4317939579486847 0.05000000074505806
  vertex 0.4946937561035156 -0.3977562189102173 0.05000000074505806
  vertex 0.5672275424003601 -0.6073523759841919 0.05000000074505806
 endloop
endfacet
facet normal 0.0 0.0 1.0
 outer loop
  vertex 0.4946937561035156 -0.3977562189102173 0.05000000074505806
  vertex 0.4030294120311737 -0.5444725155830383 0.05000000074505806
  vertex 0.5672275424003601 -0.6073523759841919 0.05000000074505806
 endloop
endfacet
facet normal 0.0 0.0 1.0
 outer loop
  vertex 0.8002207279205322 -0.22421133518218994 0.05000000074505806
  vertex 0.6214566230773926 -0.2699367105960846 0.05000000074505806
  vertex 0.7100549340248108 -0.4317939579486847 0.05000000074505806
 endloop
endfacet
facet normal 0.0 0.0 1.0
 outer loop
  vertex 0.7100549340248108 -0.4317939579486847 0.05000000074505806
  vertex 0.6214566230773926 -0.2699367105960846 0.05000000074505806
  vertex 0.4946937561035156 -0.3977562189102173 0.05000000074505806
 endloop
endfacet
facet normal 0.0 0.0 1.0
 outer loop
  vertex 0.8002207279205322 -0.22421133518218994 0.05000000074505806
  vertex 0.6319468021392822 -0.1022803783416748 0.05000000074505806
  vertex 0.6214566230773926 -0.2699367105960846 0.05000000074505806
 endloop
endfacet
facet normal -0.0 0.0 1.0
 outer loop
  vertex -0.545952320098877 0.3032246232032776 0.05000000074505806
  vertex -0.3689296543598175 0.24645471572875977 0.05000000074505806
  vertex -0.365559846162796 0.4163406193256378 0.05000000074505806
 endloop
endfacet
facet normal -0.0 0.0 1.0
 outer loop
  vertex -0.6473488211631775 0.17299066483974457 0.05000000074505806
  vertex -0.47331079840660095 0.11429236084222794 0.05000000074505806
  vertex -0.545952320098877 0.3032246232032776 0.05000000074505806
 endloop
endfacet
facet normal 0.0 -0.0 1.0
 outer loop
  vertex -0.47331079840660095 0.11429236084222794 0.05000000074505806
  vertex -0.3689296543598175 0.24645471572875977 0.05000000074505806
  vertex -0.545952320098877 0.3032246232032776 0.05000000074505806
 endloop
endfacet
facet normal 0.0 -0.0 1.0
 outer loop
  vertex 0.4946937561035156 -0.3977562189102173 0.05000000074505806
  vertex 0.6214566230773926 -0.2699367105960846 0.05000000074505806
  vertex 0.43929004669189453 -0.19382977485656738 0.05000000074505806
 endloop
endfacet
facet normal 0.0 0.0 1.0
 outer loop
  vertex 0.43929004669189453 -0.19382977485656738 0.05000000074505806
  vertex 0.31307968497276306 -0.380842387676239 0.05000000074505806
  vertex 0.4946937561035156 -0.3977562189102173 0.05000000074505806
 endloop
endfacet
facet normal 0.0 0.0 1.0
 outer loop
  vertex 0.31307968497276306 -0.380842387676239 0.05000000074505806
  vertex 0.4030294120311737 -0.5444725155830383 0.05000000074505806
  vertex 0.4946937561035156 -0.3977562189102173 0.05000000074505806
 endloop
endfacet
facet normal 0.0 0.0 1.0
 outer loop
  vertex 0.34650227427482605 0.5399900674819946 0.05000000074505806
  vertex 0.10914711654186249 0.542314887046814 0.05000000074505806
  vertex 0.26363489031791687 0.3590903580188751 0.05000000074505806
 endloop
endfacet
facet normal 0.0 0.0 1.0
 outer loop
  vertex 0.26363489031791687 0.3590903580188751 0.05000000074505806
  vertex 0.48990458250045776 0.3947439193725586 0.05000000074505806
  vertex 0.34650227427482605 0.5399900674819946 0.05000000074505806
 endloop
endfacet
facet normal 0.0 0.0 1.0
 outer loop
  vertex 0.34650227427482605 0.5399900674819946 0.05000000074505806
  vertex 0.230255588889122 0.666159451007843 0.05000000074505806
  vertex 0.10914711654186249 0.542314887046814 0.05000000074505806
 endloop
endfacet
facet normal 0.0 0.0 1.0
 outer loop
  vertex -0.41606056690216064 -0.2809581756591797 0.05000000074505806
  vertex -0.5745183825492859 -0.3615933656692505 0.05000000074505806
  vertex -0.4472656548023224 -0.47891953587532043 0.05000000074505806
 endloop
endfacet
facet normal 0.0 0.0 1.0
 outer loop
  vertex -0.4472656548023224 -0.47891953587532043 0.05000000074505806
  vertex -0.2603429853916168 -0.4442109167575836 0.05000000074505806
  vertex -0.41606056690216064 -0.2809581756591797 0.05000000074505806
 endloop
endfacet
facet normal 0.0 -0.0 1.0
 outer loop
  vertex -0.3195006847381592 -0.6028769612312317 0.05000000074505806
  vertex -0.2603429853916168 -0.4442109167575836 0.05000000074505806
  vertex -0.4472656548023224 -0.47891953587532043 0.05000000074505806
 endloop
endfacet
facet normal 0.0 0.0 1.0
 outer loop
  vertex 0.10914711654186249 0.542314887046814 0.05000000074505806
  vertex 0.05397653952240944 0.7028111815452576 0.05000000074505806
  vertex -0.10574278980493546 0.6431679725646973 0.05000000074505806
 endloop
endfacet
facet normal 0.0 0.0 1.0
 outer loop
  vertex -0.10574278980493546 0.6431679725646973 0.05000000074505806
  vertex -0.10829730331897736 0.45848652720451355 0.05000000074505806
  vertex 0.10914711654186249 0.542314887046814 0.05000000074505806
 endloop
endfacet
facet normal -0.0 0.0 1.0
 outer loop
  vertex -0.26574432849884033 0.5951920747756958 0.05000000074505806
  vertex -0.10829730331897736 0.45848652720451355 0.05000000074505806
  vertex -0.10574278980493546 0.6431679725646973 0.05000000074505806
 endloop
endfacet
facet normal 0.0 0.0 1.0
 outer loop
  vertex 0.41835442185401917 0.1760091781616211 0.05000000074505806
  vertex 0.47821903228759766 -0.011121686547994614 0.05000000074505806
  vertex 0.6214566230773926 0.0854172483086586 0.05000000074505806
 endloop
endfacet
facet normal 0.0 0.0 1.0
 outer loop
  vertex 0.6214566230773926 0.0854172483086586 0.05000000074505806
  vertex 0.607998251914978 0.26243510842323303 0.05000000074505806
  vertex 0.41835442185401917 0.1760091781616211 0.05000000074505806
 endloop
endfacet
facet normal 0.0 0.0 1.0
 outer loop
  vertex 0.6214566230773926 0.0854172483086586 0.05000000074505806
  vertex 0.47821903228759766 -0.011121686547994614 0.05000000074505806
  vertex 0.6319468021392822 -0.1022803783416748 0.05000000074505806
 endloop
endfacet
facet normal 0.0 0.0 1.0
 outer loop
  vertex 0.0428084172308445 -0.625836968421936 0.05000000074505806
  vertex -0.08005465567111969 -0.4438331723213196 0.05000000074505806
  vertex -0.15217287838459015 -0.6340909004211426 0.05000000074505806
 endloop
endfacet
facet normal 0.0 -0.0 1.0
 outer loop
  vertex 0.0428084172308445 -0.625836968421936 0.05000000074505806
  vertex 0.12147507071495056 -0.41460874676704407 0.05000000074505806
  vertex -0.08005465567111969 -0.4438331723213196 0.05000000074505806
 endloop
endfacet
facet normal 0.0 0.0 1.0
 outer loop
  vertex 0.0428084172308445 -0.625836968421936 0.05000000074505806
  vertex 0.23840969800949097 -0.5849376320838928 0.05000000074505806
  vertex 0.12147507071495056 -0.41460874676704407 0.05000000074505806
 endloop
endfacet
facet normal 0.0 0.0 1.0
 outer loop
  vertex -0.4014187455177307 -0.08095266669988632 0.05000000074505806
  vertex -0.47331079840660095 0.11429236084222794 0.05000000074505806
  vertex -0.6319459676742554 0.003190299030393362 0.05000000074505806
 endloop
endfacet
facet normal 0.0 0.0 1.0
 outer loop
  vertex -0.6319459676742554 0.003190299030393362 0.05000000074505806
  vertex -0.6023827195167542 -0.19254478812217712 0.05000000074505806
  vertex -0.4014187455177307 -0.08095266669988632 0.05000000074505806
 endloop
endfacet
facet normal 0.0 -0.0 1.0
 outer loop
  vertex -0.6319459676742554 0.003190299030393362 0.05000000074505806
  vertex -0.47331079840660095 0.11429236084222794 0.05000000074505806
  vertex -0.6473488211631775 0.17299066483974457 0.05000000074505806
 endloop
endfacet
facet normal 0.0 0.0 1.0
 outer loop
  vertex -0.08005465567111969 -0.4438331723213196 0.05000000074505806
  vertex -0.2603429853916168 -0.4442109167575836 0.05000000074505806
  vertex -0.15217287838459015 -0.6340909004211426 0.05000000074505806
 endloop
endfacet
facet normal 0.0 0.0 1.0
 outer loop
  vertex -0.15217287838459015 -0.6340909004211426 0.05000000074505806
  vertex -0.2603429853916168 -0.4442109167575836 0.05000000074505806
  vertex -0.3195006847381592 -0.6028769612312317 0.05000000074505806
 endloop
endfacet
facet normal 0.0 0.0 1.0
 outer loop
  vertex 0.12147507071495056 -0.41460874676704407 0.05000000074505806
  vertex -0.004221403505653143 -0.24178878962993622 0.05000000074505806
  vertex -0.08005465567111969 -0.4438331723213196 0.05000000074505806
 endloop
endfacet
facet normal 0.0 0.0 1.0
 outer loop
  vertex -0.004221403505653143 -0.24178878962993622 0.05000000074505806
  vertex -0.21949532628059387 -0.2628365755081177 0.05000000074505806
  vertex -0.08005465567111969 -0.4438331723213196 0.05000000074505806
 endloop
endfacet
facet normal 0.0 0.0 1.0
 outer loop
  vertex -0.21949532628059387 -0.2628365755081177 0.05000000074505806
  vertex -0.2603429853916168 -0.4442109167575836 0.05000000074505806
  vertex -0.08005465567111969 -0.4438331723213196 0.05000000074505806
 endloop
endfacet
facet normal 0.0 -0.0 1.0
 outer loop
  vertex 0.12147507071495056 -0.41460874676704407 0.05000000074505806
  vertex 0.208573117852211 -0.20704768598079681 0.05000000074505806
  vertex -0.004221403505653143 -0.24178878962993622 0.05000000074505806
 endloop
endfacet
facet normal 0.0 0.0 1.0
 outer loop
  vertex 0.12147507071495056 -0.41460874676704407 0.05000000074505806
  vertex 0.31307968497276306 -0.380842387676239 0.05000000074505806
  vertex 0.208573117852211 -0.20704768598079681 0.05000000074505806
 endloop
endfacet
facet normal 0.0 -0.0 1.0
 outer loop
  vertex 0.23840969800949097 -0.5849376320838928 0.05000000074505806
  vertex 0.31307968497276306 -0.380842387676239 0.05000000074505806
  vertex 0.12147507071495056 -0.41460874676704407 0.05000000074505806
 endloop
endfacet
facet normal 0.0 0.0 1.0
 outer loop
  vertex 0.208573117852211 -0.20704768598079681 0.05000000074505806
  vertex 0.07947680354118347 -0.03239201009273529 0.05000000074505806
  vertex -0.004221403505653143 -0.24178878962993622 0.05000000074505806
 endloop
endfacet
facet normal 0.0 0.0 1.0
 outer loop
  vertex 0.07947680354118347 -0.03239201009273529 0.05000000074505806
  vertex -0.14288310706615448 -0.0642203539609909 0.05000000074505806
  vertex -0.004221403505653143 -0.24178878962993622 0.05000000074505806
 endloop
endfacet
facet normal 0.0 0.0 1.0
 outer loop
  vertex -0.14288310706615448 -0.0642203539609909 0.05000000074505806
  vertex -0.21949532628059387 -0.2628365755081177 0.05000000074505806
  vertex -0.004221403505653143 -0.24178878962993622 0.05000000074505806
 endloop
endfacet
facet normal 0.0 -0.0 1.0
 outer loop
  vertex 0.208573117852211 -0.20704768598079681 0.05000000074505806
  vertex 0.2931569218635559 -0.00833592563867569 0.05000000074505806
  vertex 0.07947680354118347 -0.03239201009273529 0.05000000074505806
 endloop
endfacet
facet normal 0.0 0.0 1.0
 outer loop
  vertex 0.208573117852211 -0.20704768598079681 0.05000000074505806
  vertex 0.43929004669189453 -0.19382977485656738 0.05000000074505806
  vertex 0.2931569218635559 -0.00833592563867569 0.05000000074505806
 endloop
endfacet
facet normal -0.0 0.0 1.0
 outer loop
  vertex 0.208573117852211 -0.20704768598079681 0.05000000074505806
  vertex 0.31307968497276306 -0.380842387676239 0.05000000074505806
  vertex 0.43929004669189453 -0.19382977485656738 0.05000000074505806
 endloop
endfacet
facet normal 0.0 0.0 1.0
 outer loop
  vertex 0.07947680354118347 -0.03239201009273529 0.05000000074505806
  vertex -0.05769820883870125 0.14548863470554352 0.05000000074505806
  vertex -0.14288310706615448 -0.0642203539609909 0.05000000074505806
 endloop
endfacet
facet normal 0.0 -0.0 1.0
 outer loop
  vertex 0.07947680354118347 -0.03239201009273529 0.05000000074505806
  vertex 0.16224682331085205 0.17304256558418274 0.05000000074505806
  vertex -0.05769820883870125 0.14548863470554352 0.05000000074505806
 endloop
endfacet
facet normal 0.0 0.0 1.0
 outer loop
  vertex 0.07947680354118347 -0.03239201009273529 0.05000000074505806
  vertex 0.2931569218635559 -0.00833592563867569 0.05000000074505806
  vertex 0.16224682331085205 0.17304256558418274 0.05000000074505806
 endloop
endfacet
facet normal 0.0 0.0 1.0
 outer loop
  vertex -0.05769820883870125 0.14548863470554352 0.05000000074505806
  vertex -0.26908448338508606 0.11247096210718155 0.05000000074505806
  vertex -0.14288310706615448 -0.0642203539609909 0.05000000074505806
 endloop
endfacet
facet normal 0.0 0.0 1.0
 outer loop
  vertex -0.26908448338508606 0.11247096210718155 0.05000000074505806
  vertex -0.4014187455177307 -0.08095266669988632 0.05000000074505806
  vertex -0.14288310706615448 -0.0642203539609909 0.05000000074505806
 endloop
endfacet
facet normal -0.0 0.0 1.0
 outer loop
  vertex -0.4014187455177307 -0.08095266669988632 0.05000000074505806
  vertex -0.21949532628059387 -0.2628365755081177 0.05000000074505806
  vertex -0.14288310706615448 -0.0642203539609909 0.05000000074505806
 endloop
endfacet
facet normal 0.0 0.0 1.0
 outer loop
  vertex 0.16224682331085205 0.17304256558418274 0.05000000074505806
  vertex 0.025311684235930443 0.33653587102890015 0.05000000074505806
  vertex -0.05769820883870125 0.14548863470554352 0.05000000074505806
 endloop
endfacet
facet normal 0.0 0.0 1.0
 outer loop
  vertex -0.05769820883870125 0.14548863470554352 0.05000000074505806
  vertex -0.19074077904224396 0.28594499826431274 0.05000000074505806
  vertex -0.26908448338508606 0.11247096210718155 0.05000000074505806
 endloop
endfacet
facet normal 0.0 0.0 1.0
 outer loop
  vertex 0.025311684235930443 0.33653587102890015 0.05000000074505806
  vertex -0.19074077904224396 0.28594499826431274 0.05000000074505806
  vertex -0.05769820883870125 0.14548863470554352 0.05000000074505806
 endloop
endfacet
facet normal 0.0 -0.0 1.0
 outer loop
  vertex 0.16224682331085205 0.17304256558418274 0.05000000074505806
  vertex 0.26363489031791687 0.3590903580188751 0.05000000074505806
  vertex 0.025311684235930443 0.33653587102890015 0.05000000074505806
 endloop
endfacet
facet normal 0.0 -0.0 1.0
 outer loop
  vertex 0.2931569218635559 -0.00833592563867569 0.05000000074505806
  vertex 0.41835442185401917 0.1760091781616211 0.05000000074505806
  vertex 0.16224682331085205 0.17304256558418274 0.05000000074505806
 endloop
endfacet
facet normal 0.0 0.0 1.0
 outer loop
  vertex 0.41835442185401917 0.1760091781616211 0.05000000074505806
  vertex 0.26363489031791687 0.3590903580188751 0.05000000074505806
  vertex 0.16224682331085205 0.17304256558418274 0.05000000074505806
 endloop
endfacet
facet normal 0.0 0.0 1.0
 outer loop
  vertex -0.26908448338508606 0.11247096210718155 0.05000000074505806
  vertex -0.47331079840660095 0.11429236084222794 0.05000000074505806
  vertex -0.4014187455177307 -0.08095266669988632 0.05000000074505806
 endloop
endfacet
facet normal 0.0 0.0 1.0
 outer loop
  vertex -0.19074077904224396 0.28594499826431274 0.05000000074505806
  vertex -0.3689296543598175 0.24645471572875977 0.05000000074505806
  vertex -0.26908448338508606 0.11247096210718155 0.05000000074505806
 endloop
endfacet
facet normal 0.0 0.0 1.0
 outer loop
  vertex -0.26908448338508606 0.11247096210718155 0.05000000074505806
  vertex -0.3689296543598175 0.24645471572875977 0.05000000074505806
  vertex -0.47331079840660095 0.11429236084222794 0.05000000074505806
 endloop
endfacet
facet normal 0.0 0.0 1.0
 outer loop
  vertex 0.025311684235930443 0.33653587102890015 0.05000000074505806
  vertex -0.10829730331897736 0.45848652720451355 0.05000000074505806
  vertex -0.19074077904224396 0.28594499826431274 0.05000000074505806
 endloop
endfacet
facet normal 0.0 0.0 1.0
 outer loop
  vertex 0.26363489031791687 0.3590903580188751 0.05000000074505806
  vertex 0.10914711654186249 0.542314887046814 0.05000000074505806
  vertex 0.025311684235930443 0.33653587102890015 0.05000000074505806
 endloop
endfacet
facet normal 0.0 0.0 1.0
 outer loop
  vertex 0.10914711654186249 0.542314887046814 0.05000000074505806
  vertex -0.10829730331897736 0.45848652720451355 0.05000000074505806
  vertex 0.025311684235930443 0.33653587102890015 0.05000000074505806
 endloop
endfacet
facet normal 0.0 0.0 1.0
 outer loop
  vertex -0.4014187455177307 -0.08095266669988632 0.05000000074505806
  vertex -0.41606056690216064 -0.2809581756591797 0.05000000074505806
  vertex -0.21949532628059387 -0.2628365755081177 0.05000000074505806
 endloop
endfacet
facet normal 0.0 0.0 1.0
 outer loop
  vertex -0.4014187455177307 -0.08095266669988632 0.05000000074505806
  vertex -0.6023827195167542 -0.19254478812217712 0.05000000074505806
  vertex -0.41606056690216064 -0.2809581756591797 0.05000000074505806
 endloop
endfacet
facet normal -0.0 0.0 1.0
 outer loop
  vertex -0.41606056690216064 -0.2809581756591797 0.05000000074505806
  vertex -0.2603429853916168 -0.4442109167575836 0.05000000074505806
  vertex -0.21949532628059387 -0.2628365755081177 0.05000000074505806
 endloop
endfacet
facet normal -0.0 0.0 1.0
 outer loop
  vertex 0.2931569218635559 -0.00833592563867569 0.05000000074505806
  vertex 0.47821903228759766 -0.011121686547994614 0.05000000074505806
  vertex 0.41835442185401917 0.1760091781616211 0.05000000074505806
 endloop
endfacet
facet normal 0.0 -0.0 1.0
 outer loop
  vertex 0.43929004669189453 -0.19382977485656738 0.05000000074505806
  vertex 0.47821903228759766 -0.011121686547994614 0.05000000074505806
  vertex 0.2931569218635559 -0.00833592563867569 0.05000000074505806
 endloop
endfacet
facet normal 0.0 -0.0 1.0
 outer loop
  vertex 0.41835442185401917 0.1760091781616211 0.05000000074505806
  vertex 0.48990458250045776 0.3947439193725586 0.05000000074505806
  vertex 0.26363489031791687 0.3590903580188751 0.05000000074505806
 endloop
endfacet
facet normal 0.0 0.0 1.0
 outer loop
  vertex 0.41835442185401917 0.1760091781616211 0.05000000074505806
  vertex 0.607998251914978 0.26243510842323303 0.05000000074505806
  vertex 0.48990458250045776 0.3947439193725586 0.05000000074505806
 endloop
endfacet
facet normal 0.0 0.0 1.0
 outer loop
  vertex -0.365559846162796 0.4163406193256378 0.05000000074505806
  vertex -0.3689296543598175 0.24645471572875977 0.05000000074505806
  vertex -0.19074077904224396 0.28594499826431274 0.05000000074505806
 endloop
endfacet
facet normal 0.0 -0.0 1.0
 outer loop
  vertex -0.19074077904224396 0.28594499826431274 0.05000000074505806
  vertex -0.10829730331897736 0.45848652720451355 0.05000000074505806
  vertex -0.365559846162796 0.4163406193256378 0.05000000074505806
 endloop
endfacet
facet normal 0.0 -0.0 1.0
 outer loop
  vertex 0.6214566230773926 -0.2699367105960846 0.05000000074505806
  vertex 0.6319468021392822 -0.1022803783416748 0.05000000074505806
  vertex 0.43929004669189453 -0.19382977485656738 0.05000000074505806
 endloop
endfacet
facet normal 0.0 0.0 1.0
 outer loop
  vertex 0.6319468021392822 -0.1022803783416748 0.05000000074505806
  vertex 0.47821903228759766 -0.011121686547994614 0.05000000074505806
  vertex 0.43929004669189453 -0.19382977485656738 0.05000000074505806
 endloop
endfacet
facet normal 0.0 0.0 1.0
 outer loop
  vertex 0.23840969800949097 -0.5849376320838928 0.05000000074505806
  vertex 0.4030294120311737 -0.5444725155830383 0.05000000074505806
  vertex 0.31307968497276306 -0.380842387676239 0.05000000074505806
 endloop
endfacet
facet normal 0.0 -0.0 1.0
 outer loop
  vertex 0.10914711654186249 0.542314887046814 0.05000000074505806
  vertex 0.230255588889122 0.666159451007843 0.05000000074505806
  vertex 0.05397653952240944 0.7028111815452576 0.05000000074505806
 endloop
endfacet
facet normal 0.0 0.0 1.0
 outer loop
  vertex -0.6023827195167542 -0.19254478812217712 0.05000000074505806
  vertex -0.5745183825492859 -0.3615933656692505 0.05000000074505806
  vertex -0.41606056690216064 -0.2809581756591797 0.05000000074505806
 endloop
endfacet
facet normal 0.0 0.0 1.0
 outer loop
  vertex -0.365559846162796 0.4163406193256378 0.05000000074505806
  vertex -0.10829730331897736 0.45848652720451355 0.05000000074505806
  vertex -0.26574432849884033 0.5951920747756958 0.05000000074505806
 endloop
endfacet
facet normal 0.0 -0.0 -1.0
 outer loop
  vertex 0.8002207279205322 0.22421133518218994 0.0
  vertex 0.8310378789901733 -2.035455906454546e-16 0.0
  vertex 0.6742395162582397 0.09784746915102005 0.0
 endloop
endfacet
facet normal 0.0 0.0 -1.0
 outer loop
  vertex 0.8310378789901733 -2.035455906454546e-16 0.0
  vertex 0.8002207279205322 -0.22421133518218994 0.0
  vertex 0.6484386920928955 -0.06895756721496582 0.0
 endloop
endfacet
facet normal -0.0 0.0 -1.0
 outer loop
  vertex 0.8310378789901733 -2.035455906454546e-16 0.0
  vertex 0.6484386920928955 -0.06895756721496582 0.0
  vertex 0.6742395162582397 0.09784746915102005 0.0
 endloop
endfacet
facet normal 0.0 -0.0 -1.0
 outer loop
  vertex 0.7100549340248108 0.4317939579486847 0.0
  vertex 0.8002207279205322 0.22421133518218994 0.0
  vertex 0.6036926507949829 0.2675058841705322 0.0
 endloop
endfacet
facet normal 0.0 0.0 -1.0
 outer loop
  vertex 0.6036926507949829 0.2675058841705322 0.0
  vertex 0.8002207279205322 0.22421133518218994 0.0
  vertex 0.6742395162582397 0.09784746915102005 0.0
 endloop
endfacet
facet normal 0.0 -0.0 -1.0
 outer loop
  vertex 0.5672275424003601 0.6073523759841919 0.0
  vertex 0.7100549340248108 0.4317939579486847 0.0
  vertex 0.5304396748542786 0.42691969871520996 0.0
 endloop
endfacet
facet normal 0.0 0.0 -1.0
 outer loop
  vertex 0.7100549340248108 0.4317939579486847 0.0
  vertex 0.6036926507949829 0.2675058841705322 0.0
  vertex 0.5304396748542786 0.42691969871520996 0.0
 endloop
endfacet
facet normal 0.0 -0.0 -1.0
 outer loop
  vertex 0.3823314905166626 0.7378662824630737 0.0
  vertex 0.5672275424003601 0.6073523759841919 0.0
  vertex 0.34479692578315735 0.5089550018310547 0.0
 endloop
endfacet
facet normal 0.0 0.0 -1.0
 outer loop
  vertex 0.34479692578315735 0.5089550018310547 0.0
  vertex 0.5672275424003601 0.6073523759841919 0.0
  vertex 0.5304396748542786 0.42691969871520996 0.0
 endloop
endfacet
facet normal 0.0 0.0 -1.0
 outer loop
  vertex 0.16907966136932373 0.8136559724807739 0.0
  vertex 0.3823314905166626 0.7378662824630737 0.0
  vertex 0.21439959108829498 0.6424564719200134 0.0
 endloop
endfacet
facet normal 0.0 0.0 -1.0
 outer loop
  vertex 0.3823314905166626 0.7378662824630737 0.0
  vertex 0.34479692578315735 0.5089550018310547 0.0
  vertex 0.21439959108829498 0.6424564719200134 0.0
 endloop
endfacet
facet normal 0.0 0.0 -1.0
 outer loop
  vertex -0.056712035089731216 0.8291005492210388 0.0
  vertex 0.16907966136932373 0.8136559724807739 0.0
  vertex 0.05123738944530487 0.6811055541038513 0.0
 endloop
endfacet
facet normal 0.0 -0.0 -1.0
 outer loop
  vertex 0.16907966136932373 0.8136559724807739 0.0
  vertex 0.21439959108829498 0.6424564719200134 0.0
  vertex 0.05123738944530487 0.6811055541038513 0.0
 endloop
endfacet
facet normal 0.0 0.0 -1.0
 outer loop
  vertex -0.27829766273498535 0.783054530620575 0.0
  vertex -0.056712035089731216 0.8291005492210388 0.0
  vertex -0.1201367899775505 0.6232583522796631 0.0
 endloop
endfacet
facet normal 0.0 0.0 -1.0
 outer loop
  vertex -0.1201367899775505 0.6232583522796631 0.0
  vertex -0.056712035089731216 0.8291005492210388 0.0
  vertex 0.05123738944530487 0.6811055541038513 0.0
 endloop
endfacet
facet normal 0.0 0.0 -1.0
 outer loop
  vertex -0.4792431890964508 0.6789329051971436 0.0
  vertex -0.27829766273498535 0.783054530620575 0.0
  vertex -0.31171709299087524 0.6015866994857788 0.0
 endloop
endfacet
facet normal 0.0 -0.0 -1.0
 outer loop
  vertex -0.27829766273498535 0.783054530620575 0.0
  vertex -0.1201367899775505 0.6232583522796631 0.0
  vertex -0.31171709299087524 0.6015866994857788 0.0
 endloop
endfacet
facet normal 0.0 0.0 -1.0
 outer loop
  vertex -0.6446455121040344 0.5244579911231995 0.0
  vertex -0.4792431890964508 0.6789329051971436 0.0
  vertex -0.4570285677909851 0.514290452003479 0.0
 endloop
endfacet
facet normal 0.0 0.0 -1.0
 outer loop
  vertex -0.4792431890964508 0.6789329051971436 0.0
  vertex -0.31171709299087524 0.6015866994857788 0.0
  vertex -0.4570285677909851 0.514290452003479 0.0
 endloop
endfacet
facet normal 0.0 0.0 -1.0
 outer loop
  vertex -0.7622373700141907 0.3310863971710205 0.0
  vertex -0.6446455121040344 0.5244579911231995 0.0
  vertex -0.5393710136413574 0.32706955075263977 0.0
 endloop
endfacet
facet normal 0.0 0.0 -1.0
 outer loop
  vertex -0.5393710136413574 0.32706955075263977 0.0
  vertex -0.6446455121040344 0.5244579911231995 0.0
  vertex -0.4570285677909851 0.514290452003479 0.0
 endloop
endfacet
facet normal 0.0 0.0 -1.0
 outer loop
  vertex -0.8232975602149963 0.1131596490740776 0.0
  vertex -0.7622373700141907 0.3310863971710205 0.0
  vertex -0.6776732206344604 0.1853289008140564 0.0
 endloop
endfacet
facet normal 0.0 0.0 -1.0
 outer loop
  vertex -0.7622373700141907 0.3310863971710205 0.0
  vertex -0.5393710136413574 0.32706955075263977 0.0
  vertex -0.6776732206344604 0.1853289008140564 0.0
 endloop
endfacet
facet normal 0.0 0.0 -1.0
 outer loop
  vertex -0.8232975602149963 -0.1131596490740776 0.0
  vertex -0.8232975602149963 0.1131596490740776 0.0
  vertex -0.7008918523788452 0.012485546059906483 0.0
 endloop
endfacet
facet normal 0.0 0.0 -1.0
 outer loop
  vertex -0.8232975602149963 0.1131596490740776 0.0
  vertex -0.6776732206344604 0.1853289008140564 0.0
  vertex -0.7008918523788452 0.012485546059906483 0.0
 endloop
endfacet
facet normal 0.0 0.0 -1.0
 outer loop
  vertex -0.7622373700141907 -0.3310863971710205 0.0
  vertex -0.8232975602149963 -0.1131596490740776 0.0
  vertex -0.6248521208763123 -0.14566341042518616 0.0
 endloop
endfacet
facet normal 0.0 0.0 -1.0
 outer loop
  vertex -0.6248521208763123 -0.14566341042518616 0.0
  vertex -0.8232975602149963 -0.1131596490740776 0.0
  vertex -0.7008918523788452 0.012485546059906483 0.0
 endloop
endfacet
facet normal 0.0 0.0 -1.0
 outer loop
  vertex -0.6446455121040344 -0.5244579911231995 0.0
  vertex -0.7622373700141907 -0.3310863971710205 0.0
  vertex -0.5360189080238342 -0.32942163944244385 0.0
 endloop
endfacet
facet normal 0.0 0.0 -1.0
 outer loop
  vertex -0.7622373700141907 -0.3310863971710205 0.0
  vertex -0.6248521208763123 -0.14566341042518616 0.0
  vertex -0.5360189080238342 -0.32942163944244385 0.0
 endloop
endfacet
facet normal 0.0 0.0 -1.0
 outer loop
  vertex -0.4792431890964508 -0.6789329051971436 0.0
  vertex -0.6446455121040344 -0.5244579911231995 0.0
  vertex -0.450894832611084 -0.4850054383277893 0.0
 endloop
endfacet
facet normal 0.0 0.0 -1.0
 outer loop
  vertex -0.6446455121040344 -0.5244579911231995 0.0
  vertex -0.5360189080238342 -0.32942163944244385 0.0
  vertex -0.450894832611084 -0.4850054383277893 0.0
 endloop
endfacet
facet normal 0.0 0.0 -1.0
 outer loop
  vertex -0.27829766273498535 -0.783054530620575 0.0
  vertex -0.4792431890964508 -0.6789329051971436 0.0
  vertex -0.2885984778404236 -0.5569697618484497 0.0
 endloop
endfacet
facet normal -0.0 0.0 -1.0
 outer loop
  vertex -0.2885984778404236 -0.5569697618484497 0.0
  vertex -0.4792431890964508 -0.6789329051971436 0.0
  vertex -0.450894832611084 -0.4850054383277893 0.0
 endloop
endfacet
facet normal 0.0 0.0 -1.0
 outer loop
  vertex -0.056712035089731216 -0.8291005492210388 0.0
  vertex -0.27829766273498535 -0.783054530620575 0.0
  vertex -0.11526251584291458 -0.6297023892402649 0.0
 endloop
endfacet
facet normal 0.0 0.0 -1.0
 outer loop
  vertex -0.27829766273498535 -0.783054530620575 0.0
  vertex -0.2885984778404236 -0.5569697618484497 0.0
  vertex -0.11526251584291458 -0.6297023892402649 0.0
 endloop
endfacet
facet normal -0.0 0.0 -1.0
 outer loop
  vertex 0.16907966136932373 -0.8136559724807739 0.0
  vertex -0.056712035089731216 -0.8291005492210388 0.0
  vertex 0.046237654983997345 -0.6759705543518066 0.0
 endloop
endfacet
facet normal -0.0 0.0 -1.0
 outer loop
  vertex 0.046237654983997345 -0.6759705543518066 0.0
  vertex -0.056712035089731216 -0.8291005492210388 0.0
  vertex -0.11526251584291458 -0.6297023892402649 0.0
 endloop
endfacet
facet normal -0.0 0.0 -1.0
 outer loop
  vertex 0.3823314905166626 -0.7378662824630737 0.0
  vertex 0.16907966136932373 -0.8136559724807739 0.0
  vertex 0.20912286639213562 -0.5993322134017944 0.0
 endloop
endfacet
facet normal 0.0 0.0 -1.0
 outer loop
  vertex 0.20912286639213562 -0.5993322134017944 0.0
  vertex 0.16907966136932373 -0.8136559724807739 0.0
  vertex 0.046237654983997345 -0.6759705543518066 0.0
 endloop
endfacet
facet normal -0.0 0.0 -1.0
 outer loop
  vertex 0.5672275424003601 -0.6073523759841919 0.0
  vertex 0.3823314905166626 -0.7378662824630737 0.0
  vertex 0.3780680000782013 -0.5620916485786438 0.0
 endloop
endfacet
facet normal 0.0 0.0 -1.0
 outer loop
  vertex 0.3823314905166626 -0.7378662824630737 0.0
  vertex 0.20912286639213562 -0.5993322134017944 0.0
  vertex 0.3780680000782013 -0.5620916485786438 0.0
 endloop
endfacet
facet normal -0.0 0.0 -1.0
 outer loop
  vertex 0.7100549340248108 -0.4317939579486847 0.0
  vertex 0.5672275424003601 -0.6073523759841919 0.0
  vertex 0.4713253378868103 -0.420527845621109 0.0
 endloop
endfacet
facet normal 0.0 -0.0 -1.0
 outer loop
  vertex 0.4713253378868103 -0.420527845621109 0.0
  vertex 0.5672275424003601 -0.6073523759841919 0.0
  vertex 0.3780680000782013 -0.5620916485786438 0.0
 endloop
endfacet
facet normal 0.0 0.0 -1.0
 outer loop
  vertex 0.8002207279205322 -0.22421133518218994 0.0
  vertex 0.7100549340248108 -0.4317939579486847 0.0
  vertex 0.5753660202026367 -0.24991673231124878 0.0
 endloop
endfacet
facet normal 0.0 -0.0 -1.0
 outer loop
  vertex 0.5753660202026367 -0.24991673231124878 0.0
  vertex 0.7100549340248108 -0.4317939579486847 0.0
  vertex 0.4713253378868103 -0.420527845621109 0.0
 endloop
endfacet
facet normal -0.0 0.0 -1.0
 outer loop
  vertex 0.8002207279205322 -0.22421133518218994 0.0
  vertex 0.5753660202026367 -0.24991673231124878 0.0
  vertex 0.6484386920928955 -0.06895756721496582 0.0
 endloop
endfacet
facet normal -0.0 0.0 -1.0
 outer loop
  vertex -0.4266584515571594 -0.1281547099351883 0.0
  vertex -0.6248521208763123 -0.14566341042518616 0.0
  vertex -0.5282110571861267 0.08269285410642624 0.0
 endloop
endfacet
facet normal 0.0 0.0 -1.0
 outer loop
  vertex -0.6248521208763123 -0.14566341042518616 0.0
  vertex -0.4266584515571594 -0.1281547099351883 0.0
  vertex -0.5360189080238342 -0.32942163944244385 0.0
 endloop
endfacet
facet normal 0.0 0.0 -1.0
 outer loop
  vertex -0.5282110571861267 0.08269285410642624 0.0
  vertex -0.6248521208763123 -0.14566341042518616 0.0
  vertex -0.7008918523788452 0.012485546059906483 0.0
 endloop
endfacet
facet normal 0.0 0.0 -1.0
 outer loop
  vertex 0.6036926507949829 0.2675058841705322 0.0
  vertex 0.4142259359359741 0.29981544613838196 0.0
  vertex 0.5304396748542786 0.42691969871520996 0.0
 endloop
endfacet
facet normal 0.0 0.0 -1.0
 outer loop
  vertex 0.4142259359359741 0.29981544613838196 0.0
  vertex 0.6036926507949829 0.2675058841705322 0.0
  vertex 0.5060570240020752 0.09672748297452927 0.0
 endloop
endfacet
facet normal 0.0 -0.0 -1.0
 outer loop
  vertex 0.6036926507949829 0.2675058841705322 0.0
  vertex 0.6742395162582397 0.09784746915102005 0.0
  vertex 0.5060570240020752 0.09672748297452927 0.0
 endloop
endfacet
facet normal 0.0 0.0 -1.0
 outer loop
  vertex 0.035511214286088943 -0.47882720828056335 0.0
  vertex 0.20912286639213562 -0.5993322134017944 0.0
  vertex 0.046237654983997345 -0.6759705543518066 0.0
 endloop
endfacet
facet normal 0.0 0.0 -1.0
 outer loop
  vertex 0.20912286639213562 -0.5993322134017944 0.0
  vertex 0.035511214286088943 -0.47882720828056335 0.0
  vertex 0.2540047764778137 -0.42253828048706055 0.0
 endloop
endfacet
facet normal 0.0 0.0 -1.0
 outer loop
  vertex 0.20912286639213562 -0.5993322134017944 0.0
  vertex 0.2540047764778137 -0.42253828048706055 0.0
  vertex 0.3780680000782013 -0.5620916485786438 0.0
 endloop
endfacet
facet normal 0.0 0.0 -1.0
 outer loop
  vertex 0.09060311317443848 0.504538357257843 0.0
  vertex -0.1201367899775505 0.6232583522796631 0.0
  vertex 0.05123738944530487 0.6811055541038513 0.0
 endloop
endfacet
facet normal 0.0 -0.0 -1.0
 outer loop
  vertex -0.1201367899775505 0.6232583522796631 0.0
  vertex 0.09060311317443848 0.504538357257843 0.0
  vertex -0.1399165689945221 0.445771723985672 0.0
 endloop
endfacet
facet normal 0.0 0.0 -1.0
 outer loop
  vertex -0.31171709299087524 0.6015866994857788 0.0
  vertex -0.1201367899775505 0.6232583522796631 0.0
  vertex -0.1399165689945221 0.445771723985672 0.0
 endloop
endfacet
facet normal 0.0 -0.0 -1.0
 outer loop
  vertex -0.5393710136413574 0.32706955075263977 0.0
  vertex -0.5282110571861267 0.08269285410642624 0.0
  vertex -0.6776732206344604 0.1853289008140564 0.0
 endloop
endfacet
facet normal 0.0 0.0 -1.0
 outer loop
  vertex -0.5282110571861267 0.08269285410642624 0.0
  vertex -0.5393710136413574 0.32706955075263977 0.0
  vertex -0.3903926908969879 0.2334115356206894 0.0
 endloop
endfacet
facet normal 0.0 0.0 -1.0
 outer loop
  vertex -0.5393710136413574 0.32706955075263977 0.0
  vertex -0.4570285677909851 0.514290452003479 0.0
  vertex -0.3430861830711365 0.40049511194229126 0.0
 endloop
endfacet
facet normal 0.0 0.0 -1.0
 outer loop
  vertex -0.5393710136413574 0.32706955075263977 0.0
  vertex -0.3430861830711365 0.40049511194229126 0.0
  vertex -0.3903926908969879 0.2334115356206894 0.0
 endloop
endfacet
facet normal 0.0 0.0 -1.0
 outer loop
  vertex -0.2885984778404236 -0.5569697618484497 0.0
  vertex -0.3059680759906769 -0.33524489402770996 0.0
  vertex -0.14971579611301422 -0.45429161190986633 0.0
 endloop
endfacet
facet normal 0.0 -0.0 -1.0
 outer loop
  vertex -0.3059680759906769 -0.33524489402770996 0.0
  vertex -0.2885984778404236 -0.5569697618484497 0.0
  vertex -0.450894832611084 -0.4850054383277893 0.0
 endloop
endfacet
facet normal 0.0 0.0 -1.0
 outer loop
  vertex -0.11526251584291458 -0.6297023892402649 0.0
  vertex -0.2885984778404236 -0.5569697618484497 0.0
  vertex -0.14971579611301422 -0.45429161190986633 0.0
 endloop
endfacet
facet normal 0.0 0.0 -1.0
 outer loop
  vertex 0.6484386920928955 -0.06895756721496582 0.0
  vertex 0.5753660202026367 -0.24991673231124878 0.0
  vertex 0.4450153410434723 -0.07319830358028412 0.0
 endloop
endfacet
facet normal 0.0 -0.0 -1.0
 outer loop
  vertex 0.4450153410434723 -0.07319830358028412 0.0
  vertex 0.5753660202026367 -0.24991673231124878 0.0
  vertex 0.3499900698661804 -0.25330522656440735 0.0
 endloop
endfacet
facet normal 0.0 0.0 -1.0
 outer loop
  vertex 0.3499900698661804 -0.25330522656440735 0.0
  vertex 0.5753660202026367 -0.24991673231124878 0.0
  vertex 0.4713253378868103 -0.420527845621109 0.0
 endloop
endfacet
facet normal 0.0 0.0 -1.0
 outer loop
  vertex 0.34479692578315735 0.5089550018310547 0.0
  vertex 0.21136973798274994 0.3116593658924103 0.0
  vertex 0.09060311317443848 0.504538357257843 0.0
 endloop
endfacet
facet normal 0.0 0.0 -1.0
 outer loop
  vertex 0.21136973798274994 0.3116593658924103 0.0
  vertex 0.34479692578315735 0.5089550018310547 0.0
  vertex 0.4142259359359741 0.29981544613838196 0.0
 endloop
endfacet
facet normal -0.0 0.0 -1.0
 outer loop
  vertex 0.34479692578315735 0.5089550018310547 0.0
  vertex 0.09060311317443848 0.504538357257843 0.0
  vertex 0.21439959108829498 0.6424564719200134 0.0
 endloop
endfacet
facet normal 0.0 0.0 -1.0
 outer loop
  vertex 0.4142259359359741 0.29981544613838196 0.0
  vertex 0.34479692578315735 0.5089550018310547 0.0
  vertex 0.5304396748542786 0.42691969871520996 0.0
 endloop
endfacet
facet normal -0.0 0.0 -1.0
 outer loop
  vertex 0.6484386920928955 -0.06895756721496582 0.0
  vertex 0.4450153410434723 -0.07319830358028412 0.0
  vertex 0.5060570240020752 0.09672748297452927 0.0
 endloop
endfacet
facet normal 0.0 0.0 -1.0
 outer loop
  vertex 0.6742395162582397 0.09784746915102005 0.0
  vertex 0.6484386920928955 -0.06895756721496582 0.0
  vertex 0.5060570240020752 0.09672748297452927 0.0
 endloop
endfacet
facet normal 0.0 0.0 -1.0
 outer loop
  vertex 0.4450153410434723 -0.07319830358028412 0.0
  vertex 0.3499900698661804 -0.25330522656440735 0.0
  vertex 0.22924180328845978 -0.0769924744963646 0.0
 endloop
endfacet
facet normal -0.0 0.0 -1.0
 outer loop
  vertex 0.4450153410434723 -0.07319830358028412 0.0
  vertex 0.22924180328845978 -0.0769924744963646 0.0
  vertex 0.3163478970527649 0.11580981314182281 0.0
 endloop
endfacet
facet normal 0.0 0.0 -1.0
 outer loop
  vertex 0.4450153410434723 -0.07319830358028412 0.0
  vertex 0.3163478970527649 0.11580981314182281 0.0
  vertex 0.5060570240020752 0.09672748297452927 0.0
 endloop
endfacet
facet normal 0.0 -0.0 -1.0
 outer loop
  vertex 0.22924180328845978 -0.0769924744963646 0.0
  vertex 0.3499900698661804 -0.25330522656440735 0.0
  vertex 0.12521979212760925 -0.26586395502090454 0.0
 endloop
endfacet
facet normal 0.0 0.0 -1.0
 outer loop
  vertex 0.12521979212760925 -0.26586395502090454 0.0
  vertex 0.3499900698661804 -0.25330522656440735 0.0
  vertex 0.2540047764778137 -0.42253828048706055 0.0
 endloop
endfacet
facet normal 0.0 -0.0 -1.0
 outer loop
  vertex 0.3499900698661804 -0.25330522656440735 0.0
  vertex 0.4713253378868103 -0.420527845621109 0.0
  vertex 0.2540047764778137 -0.42253828048706055 0.0
 endloop
endfacet
facet normal 0.0 0.0 -1.0
 outer loop
  vertex 0.22924180328845978 -0.0769924744963646 0.0
  vertex 0.12521979212760925 -0.26586395502090454 0.0
  vertex 0.003888010745868087 -0.08572928607463837 0.0
 endloop
endfacet
facet normal -0.0 0.0 -1.0
 outer loop
  vertex 0.22924180328845978 -0.0769924744963646 0.0
  vertex 0.003888010745868087 -0.08572928607463837 0.0
  vertex 0.10835939645767212 0.11312758177518845 0.0
 endloop
endfacet
facet normal 0.0 0.0 -1.0
 outer loop
  vertex 0.22924180328845978 -0.0769924744963646 0.0
  vertex 0.10835939645767212 0.11312758177518845 0.0
  vertex 0.3163478970527649 0.11580981314182281 0.0
 endloop
endfacet
facet normal 0.0 -0.0 -1.0
 outer loop
  vertex 0.003888010745868087 -0.08572928607463837 0.0
  vertex 0.12521979212760925 -0.26586395502090454 0.0
  vertex -0.09036154299974442 -0.2790050208568573 0.0
 endloop
endfacet
facet normal 0.0 0.0 -1.0
 outer loop
  vertex -0.09036154299974442 -0.2790050208568573 0.0
  vertex 0.12521979212760925 -0.26586395502090454 0.0
  vertex 0.035511214286088943 -0.47882720828056335 0.0
 endloop
endfacet
facet normal 0.0 0.0 -1.0
 outer loop
  vertex 0.035511214286088943 -0.47882720828056335 0.0
  vertex 0.12521979212760925 -0.26586395502090454 0.0
  vertex 0.2540047764778137 -0.42253828048706055 0.0
 endloop
endfacet
facet normal 0.0 0.0 -1.0
 outer loop
  vertex 0.10835939645767212 0.11312758177518845 0.0
  vertex 0.003888010745868087 -0.08572928607463837 0.0
  vertex -0.11776888370513916 0.10308950394392014 0.0
 endloop
endfacet
facet normal 0.0 -0.0 -1.0
 outer loop
  vertex -0.11776888370513916 0.10308950394392014 0.0
  vertex 0.003888010745868087 -0.08572928607463837 0.0
  vertex -0.21741335093975067 -0.09491421282291412 0.0
 endloop
endfacet
facet normal 0.0 0.0 -1.0
 outer loop
  vertex -0.21741335093975067 -0.09491421282291412 0.0
  vertex 0.003888010745868087 -0.08572928607463837 0.0
  vertex -0.09036154299974442 -0.2790050208568573 0.0
 endloop
endfacet
facet normal -0.0 0.0 -1.0
 outer loop
  vertex 0.10835939645767212 0.11312758177518845 0.0
  vertex -0.11776888370513916 0.10308950394392014 0.0
  vertex -0.013126461766660213 0.2940014898777008 0.0
 endloop
endfacet
facet normal 0.0 0.0 -1.0
 outer loop
  vertex 0.10835939645767212 0.11312758177518845 0.0
  vertex -0.013126461766660213 0.2940014898777008 0.0
  vertex 0.21136973798274994 0.3116593658924103 0.0
 endloop
endfacet
facet normal 0.0 0.0 -1.0
 outer loop
  vertex 0.10835939645767212 0.11312758177518845 0.0
  vertex 0.21136973798274994 0.3116593658924103 0.0
  vertex 0.3163478970527649 0.11580981314182281 0.0
 endloop
endfacet
facet normal 0.0 0.0 -1.0
 outer loop
  vertex -0.11776888370513916 0.10308950394392014 0.0
  vertex -0.21741335093975067 -0.09491421282291412 0.0
  vertex -0.32558494806289673 0.0888526663184166 0.0
 endloop
endfacet
facet normal 0.0 0.0 -1.0
 outer loop
  vertex -0.013126461766660213 0.2940014898777008 0.0
  vertex -0.11776888370513916 0.10308950394392014 0.0
  vertex -0.21571020781993866 0.26794740557670593 0.0
 endloop
endfacet
facet normal -0.0 0.0 -1.0
 outer loop
  vertex -0.11776888370513916 0.10308950394392014 0.0
  vertex -0.32558494806289673 0.0888526663184166 0.0
  vertex -0.21571020781993866 0.26794740557670593 0.0
 endloop
endfacet
facet normal 0.0 -0.0 -1.0
 outer loop
  vertex -0.32558494806289673 0.0888526663184166 0.0
  vertex -0.21741335093975067 -0.09491421282291412 0.0
  vertex -0.4266584515571594 -0.1281547099351883 0.0
 endloop
endfacet
facet normal 0.0 -0.0 -1.0
 outer loop
  vertex -0.21741335093975067 -0.09491421282291412 0.0
  vertex -0.09036154299974442 -0.2790050208568573 0.0
  vertex -0.3059680759906769 -0.33524489402770996 0.0
 endloop
endfacet
facet normal 0.0 0.0 -1.0
 outer loop
  vertex -0.21741335093975067 -0.09491421282291412 0.0
  vertex -0.3059680759906769 -0.33524489402770996 0.0
  vertex -0.4266584515571594 -0.1281547099351883 0.0
 endloop
endfacet
facet normal -0.0 0.0 -1.0
 outer loop
  vertex 0.21136973798274994 0.3116593658924103 0.0
  vertex -0.013126461766660213 0.2940014898777008 0.0
  vertex 0.09060311317443848 0.504538357257843 0.0
 endloop
endfacet
facet normal 0.0 0.0 -1.0
 outer loop
  vertex 0.09060311317443848 0.504538357257843 0.0
  vertex -0.013126461766660213 0.2940014898777008 0.0
  vertex -0.1399165689945221 0.445771723985672 0.0
 endloop
endfacet
facet normal -0.0 0.0 -1.0
 outer loop
  vertex -0.013126461766660213 0.2940014898777008 0.0
  vertex -0.21571020781993866 0.26794740557670593 0.0
  vertex -0.1399165689945221 0.445771723985672 0.0
 endloop
endfacet
facet normal 0.0 0.0 -1.0
 outer loop
  vertex -0.21571020781993866 0.26794740557670593 0.0
  vertex -0.32558494806289673 0.0888526663184166 0.0
  vertex -0.3903926908969879 0.2334115356206894 0.0
 endloop
endfacet
facet normal 0.0 0.0 -1.0
 outer loop
  vertex -0.32558494806289673 0.0888526663184166 0.0
  vertex -0.4266584515571594 -0.1281547099351883 0.0
  vertex -0.5282110571861267 0.08269285410642624 0.0
 endloop
endfacet
facet normal -0.0 0.0 -1.0
 outer loop
  vertex -0.32558494806289673 0.0888526663184166 0.0
  vertex -0.5282110571861267 0.08269285410642624 0.0
  vertex -0.3903926908969879 0.2334115356206894 0.0
 endloop
endfacet
facet normal 0.0 0.0 -1.0
 outer loop
  vertex 0.3163478970527649 0.11580981314182281 0.0
  vertex 0.21136973798274994 0.3116593658924103 0.0
  vertex 0.4142259359359741 0.29981544613838196 0.0
 endloop
endfacet
facet normal -0.0 0.0 -1.0
 outer loop
  vertex 0.21439959108829498 0.6424564719200134 0.0
  vertex 0.09060311317443848 0.504538357257843 0.0
  vertex 0.05123738944530487 0.6811055541038513 0.0
 endloop
endfacet
facet normal 0.0 0.0 -1.0
 outer loop
  vertex 0.3163478970527649 0.11580981314182281 0.0
  vertex 0.4142259359359741 0.29981544613838196 0.0
  vertex 0.5060570240020752 0.09672748297452927 0.0
 endloop
endfacet
facet normal 0.0 0.0 -1.0
 outer loop
  vertex -0.3059680759906769 -0.33524489402770996 0.0
  vertex -0.09036154299974442 -0.2790050208568573 0.0
  vertex -0.14971579611301422 -0.45429161190986633 0.0
 endloop
endfacet
facet normal 0.0 -0.0 -1.0
 outer loop
  vertex -0.09036154299974442 -0.2790050208568573 0.0
  vertex 0.035511214286088943 -0.47882720828056335 0.0
  vertex -0.14971579611301422 -0.45429161190986633 0.0
 endloop
endfacet
facet normal 0.0 -0.0 -1.0
 outer loop
  vertex -0.4266584515571594 -0.1281547099351883 0.0
  vertex -0.3059680759906769 -0.33524489402770996 0.0
  vertex -0.5360189080238342 -0.32942163944244385 0.0
 endloop
endfacet
facet normal 0.0 0.0 -1.0
 outer loop
  vertex -0.5360189080238342 -0.32942163944244385 0.0
  vertex -0.3059680759906769 -0.33524489402770996 0.0
  vertex -0.450894832611084 -0.4850054383277893 0.0
 endloop
endfacet
facet normal 0.0 0.0 -1.0
 outer loop
  vertex -0.1399165689945221 0.445771723985672 0.0
  vertex -0.21571020781993866 0.26794740557670593 0.0
  vertex -0.3430861830711365 0.40049511194229126 0.0
 endloop
endfacet
facet normal 0.0 -0.0 -1.0
 outer loop
  vertex -0.3430861830711365 0.40049511194229126 0.0
  vertex -0.21571020781993866 0.26794740557670593 0.0
  vertex -0.3903926908969879 0.2334115356206894 0.0
 endloop
endfacet
facet normal 0.0 -0.0 -1.0
 outer loop
  vertex 0.035511214286088943 -0.47882720828056335 0.0
  vertex 0.046237654983997345 -0.6759705543518066 0.0
  vertex -0.11526251584291458 -0.6297023892402649 0.0
 endloop
endfacet
facet normal -0.0 0.0 -1.0
 outer loop
  vertex 0.035511214286088943 -0.47882720828056335 0.0
  vertex -0.11526251584291458 -0.6297023892402649 0.0
  vertex -0.14971579611301422 -0.45429161190986633 0.0
 endloop
endfacet
facet normal 0.0 0.0 -1.0
 outer loop
  vertex 0.2540047764778137 -0.42253828048706055 0.0
  vertex 0.4713253378868103 -0.420527845621109 0.0
  vertex 0.3780680000782013 -0.5620916485786438 0.0
 endloop
endfacet
facet normal 0.0 -0.0 -1.0
 outer loop
  vertex -0.6776732206344604 0.1853289008140564 0.0
  vertex -0.5282110571861267 0.08269285410642624 0.0
  vertex -0.7008918523788452 0.012485546059906483 0.0
 endloop
endfacet
facet normal 0.0 0.0 -1.0
 outer loop
  vertex -0.4570285677909851 0.514290452003479 0.0
  vertex -0.31171709299087524 0.6015866994857788 0.0
  vertex -0.3430861830711365 0.40049511194229126 0.0
 endloop
endfacet
facet normal 0.0 -0.0 -1.0
 outer loop
  vertex -0.31171709299087524 0.6015866994857788 0.0
  vertex -0.1399165689945221 0.445771723985672 0.0
  vertex -0.3430861830711365 0.40049511194229126 0.0
 endloop
endfacet
endsolid
