solid Created by Gmsh
facet normal 0.990686 -0.136167 0
  outer loop
    vertex 0.4814586436738994 -0.1348983855785131 0.026
    vertex 0.5 -1.224646799147353e-16 -0.024
    vertex 0.5 -1.224646799147353e-16 0.026
  endloop
endfacet
facet normal 0.990686 0.136167 -0
  outer loop
    vertex 0.5 -1.224646799147353e-16 -0.024
    vertex 0.4814586436738997 0.1348983855785119 -0.024
    vertex 0.5 -1.224646799147353e-16 0.026
  endloop
endfacet
facet normal 0.990686 0.136167 0
  outer loop
    vertex 0.5 -1.224646799147353e-16 0.026
    vertex 0.4814586436738997 0.1348983855785119 -0.024
    vertex 0.4814586436738997 0.1348983855785119 0.026
  endloop
endfacet
facet normal 0.990686 -0.136167 0
  outer loop
    vertex 0.4814586436738994 -0.1348983855785131 0.026
    vertex 0.4814586436738994 -0.1348983855785131 -0.024
    vertex 0.5 -1.224646799147353e-16 -0.024
  endloop
endfacet
facet normal 0.917211 0.398401 -0
  outer loop
    vertex 0.4814586436738997 0.1348983855785119 -0.024
    vertex 0.4272097022732446 0.2597919750177163 0.026
    vertex 0.4814586436738997 0.1348983855785119 0.026
  endloop
endfacet
facet normal 0.775711 0.631088 0
  outer loop
    vertex 0.4272097022732446 0.2597919750177163 0.026
    vertex 0.3412765716093275 0.3654179821390617 -0.024
    vertex 0.3412765716093275 0.3654179821390617 0.026
  endloop
endfacet
facet normal 0.917211 0.398401 0
  outer loop
    vertex 0.4814586436738997 0.1348983855785119 -0.024
    vertex 0.4272097022732446 0.2597919750177163 -0.024
    vertex 0.4272097022732446 0.2597919750177163 0.026
  endloop
endfacet
facet normal 0.775711 0.631088 0
  outer loop
    vertex 0.4272097022732446 0.2597919750177163 0.026
    vertex 0.4272097022732446 0.2597919750177163 -0.024
    vertex 0.3412765716093275 0.3654179821390617 -0.024
  endloop
endfacet
facet normal 0.57668 0.81697 0
  outer loop
    vertex 0.3412765716093275 0.3654179821390617 0.026
    vertex 0.2300325188655767 0.4439426092011873 -0.024
    vertex 0.2300325188655767 0.4439426092011873 0.026
  endloop
endfacet
facet normal 0.57668 0.81697 0
  outer loop
    vertex 0.3412765716093275 0.3654179821390617 0.026
    vertex 0.3412765716093275 0.3654179821390617 -0.024
    vertex 0.2300325188655767 0.4439426092011873 -0.024
  endloop
endfacet
facet normal 0.33488 0.942261 -0
  outer loop
    vertex 0.2300325188655767 0.4439426092011873 -0.024
    vertex 0.1017280065263179 0.4895420438411612 0.026
    vertex 0.2300325188655767 0.4439426092011873 0.026
  endloop
endfacet
facet normal 0.0682424 0.997669 0
  outer loop
    vertex 0.1017280065263179 0.4895420438411612 0.026
    vertex 0.1017280065263179 0.4895420438411612 -0.024
    vertex -0.034121206682334 0.4988343845952697 0.026
  endloop
endfacet
facet normal 0.33488 0.942261 0
  outer loop
    vertex 0.2300325188655767 0.4439426092011873 -0.024
    vertex 0.1017280065263179 0.4895420438411612 -0.024
    vertex 0.1017280065263179 0.4895420438411612 0.026
  endloop
endfacet
facet normal -0.203456 0.979084 0
  outer loop
    vertex -0.034121206682334 0.4988343845952697 0.026
    vertex -0.1674398060854912 0.4711304610594109 -0.024
    vertex -0.1674398060854912 0.4711304610594109 0.026
  endloop
endfacet
facet normal 0.0682424 0.997669 0
  outer loop
    vertex 0.1017280065263179 0.4895420438411612 -0.024
    vertex -0.034121206682334 0.4988343845952697 -0.024
    vertex -0.034121206682334 0.4988343845952697 0.026
  endloop
endfacet
facet normal -0.203456 0.979084 0
  outer loop
    vertex -0.034121206682334 0.4988343845952697 0.026
    vertex -0.034121206682334 0.4988343845952697 -0.024
    vertex -0.1674398060854912 0.4711304610594109 -0.024
  endloop
endfacet
facet normal -0.460065 0.887885 0
  outer loop
    vertex -0.1674398060854912 0.4711304610594109 0.026
    vertex -0.2883401610574317 0.4084849465052223 -0.024
    vertex -0.2883401610574317 0.4084849465052223 0.026
  endloop
endfacet
facet normal -0.460065 0.887885 0
  outer loop
    vertex -0.1674398060854912 0.4711304610594109 -0.024
    vertex -0.2883401610574317 0.4084849465052223 -0.024
    vertex -0.1674398060854912 0.4711304610594109 0.026
  endloop
endfacet
facet normal -0.682553 0.730836 0
  outer loop
    vertex -0.2883401610574317 0.4084849465052223 0.026
    vertex -0.2883401610574317 0.4084849465052223 -0.024
    vertex -0.3878556453522081 0.3155439721630285 0.026
  endloop
endfacet
facet normal -0.854419 0.519584 0
  outer loop
    vertex -0.3878556453522081 0.3155439721630285 0.026
    vertex -0.3878556453522081 0.3155439721630285 -0.024
    vertex -0.4586056507527253 0.1992005449231236 0.026
  endloop
endfacet
facet normal -0.682553 0.730836 0
  outer loop
    vertex -0.2883401610574317 0.4084849465052223 -0.024
    vertex -0.3878556453522081 0.3155439721630285 -0.024
    vertex -0.3878556453522081 0.3155439721630285 0.026
  endloop
endfacet
facet normal -0.962917 0.269797 0
  outer loop
    vertex -0.4586056507527253 0.1992005449231236 0.026
    vertex -0.4586056507527253 0.1992005449231236 -0.024
    vertex -0.4953429730181649 0.06808332454812685 0.026
  endloop
endfacet
facet normal -0.854419 0.519584 0
  outer loop
    vertex -0.3878556453522081 0.3155439721630285 -0.024
    vertex -0.4586056507527253 0.1992005449231236 -0.024
    vertex -0.4586056507527253 0.1992005449231236 0.026
  endloop
endfacet
facet normal -1 7.74574e-15 0
  outer loop
    vertex -0.4953429730181649 0.06808332454812685 0.026
    vertex -0.4953429730181649 0.06808332454812685 -0.024
    vertex -0.4953429730181659 -0.06808332454811925 0.026
  endloop
endfacet
facet normal -0.962917 0.269797 0
  outer loop
    vertex -0.4586056507527253 0.1992005449231236 -0.024
    vertex -0.4953429730181649 0.06808332454812685 -0.024
    vertex -0.4953429730181649 0.06808332454812685 0.026
  endloop
endfacet
facet normal -0.962917 -0.269797 -0
  outer loop
    vertex -0.4953429730181659 -0.06808332454811925 0.026
    vertex -0.4953429730181659 -0.06808332454811925 -0.024
    vertex -0.4586056507527284 -0.1992005449231165 0.026
  endloop
endfacet
facet normal -1 7.74574e-15 0
  outer loop
    vertex -0.4953429730181649 0.06808332454812685 -0.024
    vertex -0.4953429730181659 -0.06808332454811925 -0.024
    vertex -0.4953429730181659 -0.06808332454811925 0.026
  endloop
endfacet
facet normal -0.854419 -0.519584 0
  outer loop
    vertex -0.4586056507527284 -0.1992005449231165 0.026
    vertex -0.387855645352213 -0.3155439721630226 -0.024
    vertex -0.387855645352213 -0.3155439721630226 0.026
  endloop
endfacet
facet normal -0.962917 -0.269797 0
  outer loop
    vertex -0.4953429730181659 -0.06808332454811925 -0.024
    vertex -0.4586056507527284 -0.1992005449231165 -0.024
    vertex -0.4586056507527284 -0.1992005449231165 0.026
  endloop
endfacet
facet normal -0.854419 -0.519584 -0
  outer loop
    vertex -0.4586056507527284 -0.1992005449231165 0.026
    vertex -0.4586056507527284 -0.1992005449231165 -0.024
    vertex -0.387855645352213 -0.3155439721630226 -0.024
  endloop
endfacet
facet normal -0.682553 -0.730836 0
  outer loop
    vertex -0.387855645352213 -0.3155439721630226 0.026
    vertex -0.288340161057438 -0.4084849465052179 -0.024
    vertex -0.288340161057438 -0.4084849465052179 0.026
  endloop
endfacet
facet normal -0.682553 -0.730836 0
  outer loop
    vertex -0.387855645352213 -0.3155439721630226 -0.024
    vertex -0.288340161057438 -0.4084849465052179 -0.024
    vertex -0.387855645352213 -0.3155439721630226 0.026
  endloop
endfacet
facet normal -0.460065 -0.887885 0
  outer loop
    vertex -0.288340161057438 -0.4084849465052179 -0.024
    vertex -0.1674398060854986 -0.4711304610594083 0.026
    vertex -0.288340161057438 -0.4084849465052179 0.026
  endloop
endfacet
facet normal -0.203456 -0.979084 0
  outer loop
    vertex -0.1674398060854986 -0.4711304610594083 0.026
    vertex -0.03412120668234143 -0.4988343845952692 -0.024
    vertex -0.03412120668234143 -0.4988343845952692 0.026
  endloop
endfacet
facet normal -0.460065 -0.887885 0
  outer loop
    vertex -0.288340161057438 -0.4084849465052179 -0.024
    vertex -0.1674398060854986 -0.4711304610594083 -0.024
    vertex -0.1674398060854986 -0.4711304610594083 0.026
  endloop
endfacet
facet normal -0.203456 -0.979084 -0
  outer loop
    vertex -0.1674398060854986 -0.4711304610594083 0.026
    vertex -0.1674398060854986 -0.4711304610594083 -0.024
    vertex -0.03412120668234143 -0.4988343845952692 -0.024
  endloop
endfacet
facet normal 0.0682424 -0.997669 0
  outer loop
    vertex -0.03412120668234143 -0.4988343845952692 0.026
    vertex 0.1017280065263119 -0.4895420438411625 -0.024
    vertex 0.1017280065263119 -0.4895420438411625 0.026
  endloop
endfacet
facet normal 0.0682424 -0.997669 0
  outer loop
    vertex -0.03412120668234143 -0.4988343845952692 -0.024
    vertex 0.1017280065263119 -0.4895420438411625 -0.024
    vertex -0.03412120668234143 -0.4988343845952692 0.026
  endloop
endfacet
facet normal 0.33488 -0.942261 0
  outer loop
    vertex 0.1017280065263119 -0.4895420438411625 0.026
    vertex 0.2300325188655726 -0.4439426092011894 -0.024
    vertex 0.2300325188655726 -0.4439426092011894 0.026
  endloop
endfacet
facet normal 0.33488 -0.942261 0
  outer loop
    vertex 0.1017280065263119 -0.4895420438411625 -0.024
    vertex 0.2300325188655726 -0.4439426092011894 -0.024
    vertex 0.1017280065263119 -0.4895420438411625 0.026
  endloop
endfacet
facet normal 0.57668 -0.81697 0
  outer loop
    vertex 0.2300325188655726 -0.4439426092011894 -0.024
    vertex 0.3412765716093251 -0.3654179821390638 0.026
    vertex 0.2300325188655726 -0.4439426092011894 0.026
  endloop
endfacet
facet normal 0.775711 -0.631088 0
  outer loop
    vertex 0.3412765716093251 -0.3654179821390638 0.026
    vertex 0.3412765716093251 -0.3654179821390638 -0.024
    vertex 0.4272097022732431 -0.2597919750177187 0.026
  endloop
endfacet
facet normal 0.57668 -0.81697 0
  outer loop
    vertex 0.2300325188655726 -0.4439426092011894 -0.024
    vertex 0.3412765716093251 -0.3654179821390638 -0.024
    vertex 0.3412765716093251 -0.3654179821390638 0.026
  endloop
endfacet
facet normal 0.917211 -0.398401 0
  outer loop
    vertex 0.4272097022732431 -0.2597919750177187 -0.024
    vertex 0.4814586436738994 -0.1348983855785131 0.026
    vertex 0.4272097022732431 -0.2597919750177187 0.026
  endloop
endfacet
facet normal 0.775711 -0.631088 0
  outer loop
    vertex 0.3412765716093251 -0.3654179821390638 -0.024
    vertex 0.4272097022732431 -0.2597919750177187 -0.024
    vertex 0.4272097022732431 -0.2597919750177187 0.026
  endloop
endfacet
facet normal 0.917211 -0.398401 0
  outer loop
    vertex 0.4272097022732431 -0.2597919750177187 -0.024
    vertex 0.4814586436738994 -0.1348983855785131 -0.024
    vertex 0.4814586436738994 -0.1348983855785131 0.026
  endloop
endfacet
facet normal 0 0 1
  outer loop
    vertex 0.4814586436738997 0.1348983855785119 0.026
    vertex 0.3739038929964502 0.05139190719023382 0.026
    vertex 0.5 -1.224646799147353e-16 0.026
  endloop
endfacet
facet normal 0 0 1
  outer loop
    vertex 0.5 -1.224646799147353e-16 0.026
    vertex 0.3802154057343922 -0.06153773273552844 0.026
    vertex 0.4814586436738994 -0.1348983855785131 0.026
  endloop
endfacet
facet normal 0 0 1
  outer loop
    vertex 0.3739038929964502 0.05139190719023382 0.026
    vertex 0.3802154057343922 -0.06153773273552844 0.026
    vertex 0.5 -1.224646799147353e-16 0.026
  endloop
endfacet
facet normal 0 0 1
  outer loop
    vertex 0.4272097022732446 0.2597919750177163 0.026
    vertex 0.3658065694159034 0.157896003224311 0.026
    vertex 0.4814586436738997 0.1348983855785119 0.026
  endloop
endfacet
facet normal 0 0 1
  outer loop
    vertex 0.4814586436738997 0.1348983855785119 0.026
    vertex 0.3658065694159034 0.157896003224311 0.026
    vertex 0.3739038929964502 0.05139190719023382 0.026
  endloop
endfacet
facet normal 0 0 1
  outer loop
    vertex 0.3412765716093275 0.3654179821390617 0.026
    vertex 0.2947546405346917 0.2375005450216287 0.026
    vertex 0.4272097022732446 0.2597919750177163 0.026
  endloop
endfacet
facet normal -0 0 1
  outer loop
    vertex 0.2947546405346917 0.2375005450216287 0.026
    vertex 0.3658065694159034 0.157896003224311 0.026
    vertex 0.4272097022732446 0.2597919750177163 0.026
  endloop
endfacet
facet normal 0 0 1
  outer loop
    vertex 0.2300325188655767 0.4439426092011873 0.026
    vertex 0.2084755976581663 0.3248889377485008 0.026
    vertex 0.3412765716093275 0.3654179821390617 0.026
  endloop
endfacet
facet normal -0 0 1
  outer loop
    vertex 0.2084755976581663 0.3248889377485008 0.026
    vertex 0.2947546405346917 0.2375005450216287 0.026
    vertex 0.3412765716093275 0.3654179821390617 0.026
  endloop
endfacet
facet normal 0 0 1
  outer loop
    vertex 0.1017280065263179 0.4895420438411612 0.026
    vertex 0.1385349499308259 0.4007996634652607 0.026
    vertex 0.2300325188655767 0.4439426092011873 0.026
  endloop
endfacet
facet normal 0 0 1
  outer loop
    vertex 0.2300325188655767 0.4439426092011873 0.026
    vertex 0.1385349499308259 0.4007996634652607 0.026
    vertex 0.2084755976581663 0.3248889377485008 0.026
  endloop
endfacet
facet normal 0 0 1
  outer loop
    vertex -0.034121206682334 0.4988343845952697 0.026
    vertex 0.03247537920934119 0.4228514675211901 0.026
    vertex 0.1017280065263179 0.4895420438411612 0.026
  endloop
endfacet
facet normal -0 0 1
  outer loop
    vertex 0.03247537920934119 0.4228514675211901 0.026
    vertex 0.1385349499308259 0.4007996634652607 0.026
    vertex 0.1017280065263179 0.4895420438411612 0.026
  endloop
endfacet
facet normal -0 0 1
  outer loop
    vertex -0.1674398060854912 0.4711304610594109 0.026
    vertex -0.06362091718391466 0.3869666636209788 0.026
    vertex -0.034121206682334 0.4988343845952697 0.026
  endloop
endfacet
facet normal 0 0 1
  outer loop
    vertex -0.06362091718391466 0.3869666636209788 0.026
    vertex 0.03247537920934119 0.4228514675211901 0.026
    vertex -0.034121206682334 0.4988343845952697 0.026
  endloop
endfacet
facet normal -0 0 1
  outer loop
    vertex -0.2883401610574317 0.4084849465052223 0.026
    vertex -0.1598869935311746 0.3581016421834117 0.026
    vertex -0.1674398060854912 0.4711304610594109 0.026
  endloop
endfacet
facet normal 0 0 1
  outer loop
    vertex -0.1674398060854912 0.4711304610594109 0.026
    vertex -0.1598869935311746 0.3581016421834117 0.026
    vertex -0.06362091718391466 0.3869666636209788 0.026
  endloop
endfacet
facet normal -0 0 1
  outer loop
    vertex -0.3878556453522081 0.3155439721630285 0.026
    vertex -0.2199417289469818 0.2504943683832745 0.026
    vertex -0.2883401610574317 0.4084849465052223 0.026
  endloop
endfacet
facet normal 0 0 1
  outer loop
    vertex -0.2883401610574317 0.4084849465052223 0.026
    vertex -0.2199417289469818 0.2504943683832745 0.026
    vertex -0.1598869935311746 0.3581016421834117 0.026
  endloop
endfacet
facet normal -0 0 1
  outer loop
    vertex -0.4586056507527253 0.1992005449231236 0.026
    vertex -0.3284761900926469 0.1824372975892602 0.026
    vertex -0.3878556453522081 0.3155439721630285 0.026
  endloop
endfacet
facet normal 0 -0 1
  outer loop
    vertex -0.3284761900926469 0.1824372975892602 0.026
    vertex -0.2199417289469818 0.2504943683832745 0.026
    vertex -0.3878556453522081 0.3155439721630285 0.026
  endloop
endfacet
facet normal 0 0 1
  outer loop
    vertex -0.4953429730181649 0.06808332454812685 0.026
    vertex -0.3894821225838256 0.1040810917049924 0.026
    vertex -0.4586056507527253 0.1992005449231236 0.026
  endloop
endfacet
facet normal 0 0 1
  outer loop
    vertex -0.4586056507527253 0.1992005449231236 0.026
    vertex -0.3894821225838256 0.1040810917049924 0.026
    vertex -0.3284761900926469 0.1824372975892602 0.026
  endloop
endfacet
facet normal 0 0 1
  outer loop
    vertex -0.4953429730181659 -0.06808332454811925 0.026
    vertex -0.3802149088055285 0.001919466650494183 0.026
    vertex -0.4953429730181649 0.06808332454812685 0.026
  endloop
endfacet
facet normal 0 0 1
  outer loop
    vertex -0.3802149088055285 0.001919466650494183 0.026
    vertex -0.3894821225838256 0.1040810917049924 0.026
    vertex -0.4953429730181649 0.06808332454812685 0.026
  endloop
endfacet
facet normal 0 -0 1
  outer loop
    vertex -0.4586056507527284 -0.1992005449231165 0.026
    vertex -0.3624279445355699 -0.1158459678792607 0.026
    vertex -0.4953429730181659 -0.06808332454811925 0.026
  endloop
endfacet
facet normal -0 0 1
  outer loop
    vertex -0.4953429730181659 -0.06808332454811925 0.026
    vertex -0.3624279445355699 -0.1158459678792607 0.026
    vertex -0.3802149088055285 0.001919466650494183 0.026
  endloop
endfacet
facet normal 0 -0 1
  outer loop
    vertex -0.387855645352213 -0.3155439721630226 0.026
    vertex -0.3456631464177077 -0.2175552892436929 0.026
    vertex -0.4586056507527284 -0.1992005449231165 0.026
  endloop
endfacet
facet normal -0 0 1
  outer loop
    vertex -0.4586056507527284 -0.1992005449231165 0.026
    vertex -0.3456631464177077 -0.2175552892436929 0.026
    vertex -0.3624279445355699 -0.1158459678792607 0.026
  endloop
endfacet
facet normal 0 -0 1
  outer loop
    vertex -0.288340161057438 -0.4084849465052179 0.026
    vertex -0.2691006337674036 -0.2881454290728136 0.026
    vertex -0.387855645352213 -0.3155439721630226 0.026
  endloop
endfacet
facet normal 0 0 1
  outer loop
    vertex -0.2691006337674036 -0.2881454290728136 0.026
    vertex -0.3456631464177077 -0.2175552892436929 0.026
    vertex -0.387855645352213 -0.3155439721630226 0.026
  endloop
endfacet
facet normal 0 0 1
  outer loop
    vertex -0.1674398060854986 -0.4711304610594083 0.026
    vertex -0.192229909613072 -0.3627253224282992 0.026
    vertex -0.288340161057438 -0.4084849465052179 0.026
  endloop
endfacet
facet normal 0 0 1
  outer loop
    vertex -0.288340161057438 -0.4084849465052179 0.026
    vertex -0.192229909613072 -0.3627253224282992 0.026
    vertex -0.2691006337674036 -0.2881454290728136 0.026
  endloop
endfacet
facet normal 0 0 1
  outer loop
    vertex -0.03412120668234143 -0.4988343845952692 0.026
    vertex -0.09155591522555917 -0.3815054105261813 0.026
    vertex -0.1674398060854986 -0.4711304610594083 0.026
  endloop
endfacet
facet normal 0 0 1
  outer loop
    vertex -0.09155591522555917 -0.3815054105261813 0.026
    vertex -0.192229909613072 -0.3627253224282992 0.026
    vertex -0.1674398060854986 -0.4711304610594083 0.026
  endloop
endfacet
facet normal 0 0 1
  outer loop
    vertex 0.1017280065263119 -0.4895420438411625 0.026
    vertex 0.02575599676830736 -0.3765393444953939 0.026
    vertex -0.03412120668234143 -0.4988343845952692 0.026
  endloop
endfacet
facet normal 0 0 1
  outer loop
    vertex 0.02575599676830736 -0.3765393444953939 0.026
    vertex -0.09155591522555917 -0.3815054105261813 0.026
    vertex -0.03412120668234143 -0.4988343845952692 0.026
  endloop
endfacet
facet normal 0 0 1
  outer loop
    vertex 0.2300325188655726 -0.4439426092011894 0.026
    vertex 0.1434409360789222 -0.3519319921509085 0.026
    vertex 0.1017280065263119 -0.4895420438411625 0.026
  endloop
endfacet
facet normal 0 -0 1
  outer loop
    vertex 0.1017280065263119 -0.4895420438411625 0.026
    vertex 0.1434409360789222 -0.3519319921509085 0.026
    vertex 0.02575599676830736 -0.3765393444953939 0.026
  endloop
endfacet
facet normal 0 0 1
  outer loop
    vertex 0.3412765716093251 -0.3654179821390638 0.026
    vertex 0.2424855729142625 -0.3275858566540298 0.026
    vertex 0.2300325188655726 -0.4439426092011894 0.026
  endloop
endfacet
facet normal 0 -0 1
  outer loop
    vertex 0.2300325188655726 -0.4439426092011894 0.026
    vertex 0.2424855729142625 -0.3275858566540298 0.026
    vertex 0.1434409360789222 -0.3519319921509085 0.026
  endloop
endfacet
facet normal 0 0 1
  outer loop
    vertex 0.4272097022732431 -0.2597919750177187 0.026
    vertex 0.2976360865657683 -0.2393129096798372 0.026
    vertex 0.3412765716093251 -0.3654179821390638 0.026
  endloop
endfacet
facet normal 0 0 1
  outer loop
    vertex 0.2976360865657683 -0.2393129096798372 0.026
    vertex 0.2424855729142625 -0.3275858566540298 0.026
    vertex 0.3412765716093251 -0.3654179821390638 0.026
  endloop
endfacet
facet normal 0 0 1
  outer loop
    vertex 0.4814586436738994 -0.1348983855785131 0.026
    vertex 0.3739038929964492 -0.1624093796304509 0.026
    vertex 0.4272097022732431 -0.2597919750177187 0.026
  endloop
endfacet
facet normal 0 0 1
  outer loop
    vertex 0.4272097022732431 -0.2597919750177187 0.026
    vertex 0.3739038929964492 -0.1624093796304509 0.026
    vertex 0.2976360865657683 -0.2393129096798372 0.026
  endloop
endfacet
facet normal 0 0 1
  outer loop
    vertex 0.4814586436738994 -0.1348983855785131 0.026
    vertex 0.3802154057343922 -0.06153773273552844 0.026
    vertex 0.3739038929964492 -0.1624093796304509 0.026
  endloop
endfacet
facet normal -0 0 1
  outer loop
    vertex -0.3284761900926469 0.1824372975892602 0.026
    vertex -0.2219692016362786 0.1482812696841072 0.026
    vertex -0.2199417289469818 0.2504943683832745 0.026
  endloop
endfacet
facet normal -0 0 1
  outer loop
    vertex -0.3894821225838256 0.1040810917049924 0.026
    vertex -0.2847708902500622 0.06876482481395728 0.026
    vertex -0.3284761900926469 0.1824372975892602 0.026
  endloop
endfacet
facet normal 0 -0 1
  outer loop
    vertex -0.2847708902500622 0.06876482481395728 0.026
    vertex -0.2219692016362786 0.1482812696841072 0.026
    vertex -0.3284761900926469 0.1824372975892602 0.026
  endloop
endfacet
facet normal 0 -0 1
  outer loop
    vertex 0.2976360865657683 -0.2393129096798372 0.026
    vertex 0.3739038929964492 -0.1624093796304509 0.026
    vertex 0.2643020510850254 -0.1166190945056204 0.026
  endloop
endfacet
facet normal 0 0 1
  outer loop
    vertex 0.2643020510850254 -0.1166190945056204 0.026
    vertex 0.188366666101899 -0.2291365884854761 0.026
    vertex 0.2976360865657683 -0.2393129096798372 0.026
  endloop
endfacet
facet normal 0 0 1
  outer loop
    vertex 0.188366666101899 -0.2291365884854761 0.026
    vertex 0.2424855729142625 -0.3275858566540298 0.026
    vertex 0.2976360865657683 -0.2393129096798372 0.026
  endloop
endfacet
facet normal 0 0 1
  outer loop
    vertex 0.2084755976581663 0.3248889377485008 0.026
    vertex 0.06566915969685405 0.3262876900916573 0.026
    vertex 0.1586178577985953 0.216049322463845 0.026
  endloop
endfacet
facet normal 0 0 1
  outer loop
    vertex 0.1586178577985953 0.216049322463845 0.026
    vertex 0.2947546405346917 0.2375005450216287 0.026
    vertex 0.2084755976581663 0.3248889377485008 0.026
  endloop
endfacet
facet normal 0 0 1
  outer loop
    vertex 0.2084755976581663 0.3248889377485008 0.026
    vertex 0.1385349499308259 0.4007996634652607 0.026
    vertex 0.06566915969685405 0.3262876900916573 0.026
  endloop
endfacet
facet normal 0 0 1
  outer loop
    vertex -0.2503258576806235 -0.1690405321802515 0.026
    vertex -0.3456631464177077 -0.2175552892436929 0.026
    vertex -0.2691006337674036 -0.2881454290728136 0.026
  endloop
endfacet
facet normal 0 0 1
  outer loop
    vertex -0.2691006337674036 -0.2881454290728136 0.026
    vertex -0.1566372504582482 -0.267262735907195 0.026
    vertex -0.2503258576806235 -0.1690405321802515 0.026
  endloop
endfacet
facet normal 0 -0 1
  outer loop
    vertex -0.192229909613072 -0.3627253224282992 0.026
    vertex -0.1566372504582482 -0.267262735907195 0.026
    vertex -0.2691006337674036 -0.2881454290728136 0.026
  endloop
endfacet
facet normal 0 0 1
  outer loop
    vertex 0.06566915969685405 0.3262876900916573 0.026
    vertex 0.03247537920934119 0.4228514675211901 0.026
    vertex -0.06362091718391466 0.3869666636209788 0.026
  endloop
endfacet
facet normal 0 0 1
  outer loop
    vertex -0.06362091718391466 0.3869666636209788 0.026
    vertex -0.06515786394775097 0.2758517648162011 0.026
    vertex 0.06566915969685405 0.3262876900916573 0.026
  endloop
endfacet
facet normal -0 0 1
  outer loop
    vertex -0.1598869935311746 0.3581016421834117 0.026
    vertex -0.06515786394775097 0.2758517648162011 0.026
    vertex -0.06362091718391466 0.3869666636209788 0.026
  endloop
endfacet
facet normal 0 0 1
  outer loop
    vertex 0.2517059676012308 0.1058972033134641 0.026
    vertex 0.2877239536545291 -0.006691443888820092 0.026
    vertex 0.3739038929964502 0.05139190719023382 0.026
  endloop
endfacet
facet normal 0 0 1
  outer loop
    vertex 0.3739038929964502 0.05139190719023382 0.026
    vertex 0.3658065694159034 0.157896003224311 0.026
    vertex 0.2517059676012308 0.1058972033134641 0.026
  endloop
endfacet
facet normal 0 0 1
  outer loop
    vertex 0.3739038929964502 0.05139190719023382 0.026
    vertex 0.2877239536545291 -0.006691443888820092 0.026
    vertex 0.3802154057343922 -0.06153773273552844 0.026
  endloop
endfacet
facet normal 0 0 1
  outer loop
    vertex 0.02575599676830736 -0.3765393444953939 0.026
    vertex -0.0481654678399934 -0.2670354612815996 0.026
    vertex -0.09155591522555917 -0.3815054105261813 0.026
  endloop
endfacet
facet normal 0 -0 1
  outer loop
    vertex 0.02575599676830736 -0.3765393444953939 0.026
    vertex 0.07308636192673904 -0.2494523606272492 0.026
    vertex -0.0481654678399934 -0.2670354612815996 0.026
  endloop
endfacet
facet normal 0 0 1
  outer loop
    vertex 0.02575599676830736 -0.3765393444953939 0.026
    vertex 0.1434409360789222 -0.3519319921509085 0.026
    vertex 0.07308636192673904 -0.2494523606272492 0.026
  endloop
endfacet
facet normal 0 0 1
  outer loop
    vertex -0.2415165033610199 -0.04870576217485979 0.026
    vertex -0.2847708902500622 0.06876482481395728 0.026
    vertex -0.3802149088055285 0.001919466650494183 0.026
  endloop
endfacet
facet normal 0 0 1
  outer loop
    vertex -0.3802149088055285 0.001919466650494183 0.026
    vertex -0.3624279445355699 -0.1158459678792607 0.026
    vertex -0.2415165033610199 -0.04870576217485979 0.026
  endloop
endfacet
facet normal 0 -0 1
  outer loop
    vertex -0.3802149088055285 0.001919466650494183 0.026
    vertex -0.2847708902500622 0.06876482481395728 0.026
    vertex -0.3894821225838256 0.1040810917049924 0.026
  endloop
endfacet
facet normal 0 0 1
  outer loop
    vertex -0.0481654678399934 -0.2670354612815996 0.026
    vertex -0.1566372504582482 -0.267262735907195 0.026
    vertex -0.09155591522555917 -0.3815054105261813 0.026
  endloop
endfacet
facet normal 0 0 1
  outer loop
    vertex -0.09155591522555917 -0.3815054105261813 0.026
    vertex -0.1566372504582482 -0.267262735907195 0.026
    vertex -0.192229909613072 -0.3627253224282992 0.026
  endloop
endfacet
facet normal 0 0 1
  outer loop
    vertex 0.07308636192673904 -0.2494523606272492 0.026
    vertex -0.002539838106722582 -0.1454739906629802 0.026
    vertex -0.0481654678399934 -0.2670354612815996 0.026
  endloop
endfacet
facet normal 0 0 1
  outer loop
    vertex -0.002539838106722582 -0.1454739906629802 0.026
    vertex -0.1320609672526815 -0.1581375283281547 0.026
    vertex -0.0481654678399934 -0.2670354612815996 0.026
  endloop
endfacet
facet normal 0 0 1
  outer loop
    vertex -0.1320609672526815 -0.1581375283281547 0.026
    vertex -0.1566372504582482 -0.267262735907195 0.026
    vertex -0.0481654678399934 -0.2670354612815996 0.026
  endloop
endfacet
facet normal 0 -0 1
  outer loop
    vertex 0.07308636192673904 -0.2494523606272492 0.026
    vertex 0.125489539198846 -0.1245717505272957 0.026
    vertex -0.002539838106722582 -0.1454739906629802 0.026
  endloop
endfacet
facet normal 0 0 1
  outer loop
    vertex 0.07308636192673904 -0.2494523606272492 0.026
    vertex 0.188366666101899 -0.2291365884854761 0.026
    vertex 0.125489539198846 -0.1245717505272957 0.026
  endloop
endfacet
facet normal 0 -0 1
  outer loop
    vertex 0.1434409360789222 -0.3519319921509085 0.026
    vertex 0.188366666101899 -0.2291365884854761 0.026
    vertex 0.07308636192673904 -0.2494523606272492 0.026
  endloop
endfacet
facet normal 0 0 1
  outer loop
    vertex 0.125489539198846 -0.1245717505272957 0.026
    vertex 0.04781779738178124 -0.01948888769570348 0.026
    vertex -0.002539838106722582 -0.1454739906629802 0.026
  endloop
endfacet
facet normal 0 0 1
  outer loop
    vertex 0.04781779738178124 -0.01948888769570348 0.026
    vertex -0.08596665900497411 -0.03863864504542251 0.026
    vertex -0.002539838106722582 -0.1454739906629802 0.026
  endloop
endfacet
facet normal 0 0 1
  outer loop
    vertex -0.08596665900497411 -0.03863864504542251 0.026
    vertex -0.1320609672526815 -0.1581375283281547 0.026
    vertex -0.002539838106722582 -0.1454739906629802 0.026
  endloop
endfacet
facet normal 0 -0 1
  outer loop
    vertex 0.125489539198846 -0.1245717505272957 0.026
    vertex 0.1763799865522918 -0.005015370509252876 0.026
    vertex 0.04781779738178124 -0.01948888769570348 0.026
  endloop
endfacet
facet normal 0 0 1
  outer loop
    vertex 0.125489539198846 -0.1245717505272957 0.026
    vertex 0.2643020510850254 -0.1166190945056204 0.026
    vertex 0.1763799865522918 -0.005015370509252876 0.026
  endloop
endfacet
facet normal -0 0 1
  outer loop
    vertex 0.125489539198846 -0.1245717505272957 0.026
    vertex 0.188366666101899 -0.2291365884854761 0.026
    vertex 0.2643020510850254 -0.1166190945056204 0.026
  endloop
endfacet
facet normal 0 0 1
  outer loop
    vertex 0.04781779738178124 -0.01948888769570348 0.026
    vertex -0.03471454485397078 0.08753429266124405 0.026
    vertex -0.08596665900497411 -0.03863864504542251 0.026
  endloop
endfacet
facet normal 0 -0 1
  outer loop
    vertex 0.04781779738178124 -0.01948888769570348 0.026
    vertex 0.0976169865379778 0.1041123221688599 0.026
    vertex -0.03471454485397078 0.08753429266124405 0.026
  endloop
endfacet
facet normal 0 0 1
  outer loop
    vertex 0.04781779738178124 -0.01948888769570348 0.026
    vertex 0.1763799865522918 -0.005015370509252876 0.026
    vertex 0.0976169865379778 0.1041123221688599 0.026
  endloop
endfacet
facet normal 0 0 1
  outer loop
    vertex -0.03471454485397078 0.08753429266124405 0.026
    vertex -0.1618966245197918 0.06766897503175595 0.026
    vertex -0.08596665900497411 -0.03863864504542251 0.026
  endloop
endfacet
facet normal 0 0 1
  outer loop
    vertex -0.1618966245197918 0.06766897503175595 0.026
    vertex -0.2415165033610199 -0.04870576217485979 0.026
    vertex -0.08596665900497411 -0.03863864504542251 0.026
  endloop
endfacet
facet normal -0 0 1
  outer loop
    vertex -0.2415165033610199 -0.04870576217485979 0.026
    vertex -0.1320609672526815 -0.1581375283281547 0.026
    vertex -0.08596665900497411 -0.03863864504542251 0.026
  endloop
endfacet
facet normal 0 0 1
  outer loop
    vertex 0.0976169865379778 0.1041123221688599 0.026
    vertex 0.01522895875930649 0.202479262648105 0.026
    vertex -0.03471454485397078 0.08753429266124405 0.026
  endloop
endfacet
facet normal 0 0 1
  outer loop
    vertex -0.03471454485397078 0.08753429266124405 0.026
    vertex -0.1147605743719104 0.1720408826022881 0.026
    vertex -0.1618966245197918 0.06766897503175595 0.026
  endloop
endfacet
facet normal 0 0 1
  outer loop
    vertex 0.01522895875930649 0.202479262648105 0.026
    vertex -0.1147605743719104 0.1720408826022881 0.026
    vertex -0.03471454485397078 0.08753429266124405 0.026
  endloop
endfacet
facet normal 0 -0 1
  outer loop
    vertex 0.0976169865379778 0.1041123221688599 0.026
    vertex 0.1586178577985953 0.216049322463845 0.026
    vertex 0.01522895875930649 0.202479262648105 0.026
  endloop
endfacet
facet normal 0 -0 1
  outer loop
    vertex 0.1763799865522918 -0.005015370509252876 0.026
    vertex 0.2517059676012308 0.1058972033134641 0.026
    vertex 0.0976169865379778 0.1041123221688599 0.026
  endloop
endfacet
facet normal 0 0 1
  outer loop
    vertex 0.2517059676012308 0.1058972033134641 0.026
    vertex 0.1586178577985953 0.216049322463845 0.026
    vertex 0.0976169865379778 0.1041123221688599 0.026
  endloop
endfacet
facet normal 0 0 1
  outer loop
    vertex -0.1618966245197918 0.06766897503175595 0.026
    vertex -0.2847708902500622 0.06876482481395728 0.026
    vertex -0.2415165033610199 -0.04870576217485979 0.026
  endloop
endfacet
facet normal 0 0 1
  outer loop
    vertex -0.1147605743719104 0.1720408826022881 0.026
    vertex -0.2219692016362786 0.1482812696841072 0.026
    vertex -0.1618966245197918 0.06766897503175595 0.026
  endloop
endfacet
facet normal 0 0 1
  outer loop
    vertex -0.1618966245197918 0.06766897503175595 0.026
    vertex -0.2219692016362786 0.1482812696841072 0.026
    vertex -0.2847708902500622 0.06876482481395728 0.026
  endloop
endfacet
facet normal 0 0 1
  outer loop
    vertex 0.01522895875930649 0.202479262648105 0.026
    vertex -0.06515786394775097 0.2758517648162011 0.026
    vertex -0.1147605743719104 0.1720408826022881 0.026
  endloop
endfacet
facet normal 0 0 1
  outer loop
    vertex 0.1586178577985953 0.216049322463845 0.026
    vertex 0.06566915969685405 0.3262876900916573 0.026
    vertex 0.01522895875930649 0.202479262648105 0.026
  endloop
endfacet
facet normal 0 0 1
  outer loop
    vertex 0.06566915969685405 0.3262876900916573 0.026
    vertex -0.06515786394775097 0.2758517648162011 0.026
    vertex 0.01522895875930649 0.202479262648105 0.026
  endloop
endfacet
facet normal 0 0 1
  outer loop
    vertex -0.2415165033610199 -0.04870576217485979 0.026
    vertex -0.2503258576806235 -0.1690405321802515 0.026
    vertex -0.1320609672526815 -0.1581375283281547 0.026
  endloop
endfacet
facet normal 0 0 1
  outer loop
    vertex -0.2415165033610199 -0.04870576217485979 0.026
    vertex -0.3624279445355699 -0.1158459678792607 0.026
    vertex -0.2503258576806235 -0.1690405321802515 0.026
  endloop
endfacet
facet normal -0 0 1
  outer loop
    vertex -0.2503258576806235 -0.1690405321802515 0.026
    vertex -0.1566372504582482 -0.267262735907195 0.026
    vertex -0.1320609672526815 -0.1581375283281547 0.026
  endloop
endfacet
facet normal -0 0 1
  outer loop
    vertex 0.1763799865522918 -0.005015370509252876 0.026
    vertex 0.2877239536545291 -0.006691443888820092 0.026
    vertex 0.2517059676012308 0.1058972033134641 0.026
  endloop
endfacet
facet normal 0 -0 1
  outer loop
    vertex 0.2643020510850254 -0.1166190945056204 0.026
    vertex 0.2877239536545291 -0.006691443888820092 0.026
    vertex 0.1763799865522918 -0.005015370509252876 0.026
  endloop
endfacet
facet normal 0 -0 1
  outer loop
    vertex 0.2517059676012308 0.1058972033134641 0.026
    vertex 0.2947546405346917 0.2375005450216287 0.026
    vertex 0.1586178577985953 0.216049322463845 0.026
  endloop
endfacet
facet normal 0 0 1
  outer loop
    vertex 0.2517059676012308 0.1058972033134641 0.026
    vertex 0.3658065694159034 0.157896003224311 0.026
    vertex 0.2947546405346917 0.2375005450216287 0.026
  endloop
endfacet
facet normal 0 0 1
  outer loop
    vertex -0.2199417289469818 0.2504943683832745 0.026
    vertex -0.2219692016362786 0.1482812696841072 0.026
    vertex -0.1147605743719104 0.1720408826022881 0.026
  endloop
endfacet
facet normal 0 -0 1
  outer loop
    vertex -0.1147605743719104 0.1720408826022881 0.026
    vertex -0.06515786394775097 0.2758517648162011 0.026
    vertex -0.2199417289469818 0.2504943683832745 0.026
  endloop
endfacet
facet normal 0 -0 1
  outer loop
    vertex 0.3739038929964492 -0.1624093796304509 0.026
    vertex 0.3802154057343922 -0.06153773273552844 0.026
    vertex 0.2643020510850254 -0.1166190945056204 0.026
  endloop
endfacet
facet normal 0 0 1
  outer loop
    vertex 0.3802154057343922 -0.06153773273552844 0.026
    vertex 0.2877239536545291 -0.006691443888820092 0.026
    vertex 0.2643020510850254 -0.1166190945056204 0.026
  endloop
endfacet
facet normal 0 0 1
  outer loop
    vertex 0.1434409360789222 -0.3519319921509085 0.026
    vertex 0.2424855729142625 -0.3275858566540298 0.026
    vertex 0.188366666101899 -0.2291365884854761 0.026
  endloop
endfacet
facet normal 0 -0 1
  outer loop
    vertex 0.06566915969685405 0.3262876900916573 0.026
    vertex 0.1385349499308259 0.4007996634652607 0.026
    vertex 0.03247537920934119 0.4228514675211901 0.026
  endloop
endfacet
facet normal 0 0 1
  outer loop
    vertex -0.3624279445355699 -0.1158459678792607 0.026
    vertex -0.3456631464177077 -0.2175552892436929 0.026
    vertex -0.2503258576806235 -0.1690405321802515 0.026
  endloop
endfacet
facet normal 0 0 1
  outer loop
    vertex -0.2199417289469818 0.2504943683832745 0.026
    vertex -0.06515786394775097 0.2758517648162011 0.026
    vertex -0.1598869935311746 0.3581016421834117 0.026
  endloop
endfacet
facet normal 0 -0 -1
  outer loop
    vertex 0.4814586436738997 0.1348983855785119 -0.024
    vertex 0.5 -1.224646799147353e-16 -0.024
    vertex 0.4056611162522665 0.05887063811319999 -0.024
  endloop
endfacet
facet normal 0 0 -1
  outer loop
    vertex 0.5 -1.224646799147353e-16 -0.024
    vertex 0.4814586436738994 -0.1348983855785131 -0.024
    vertex 0.3901378492984129 -0.04148882281227746 -0.024
  endloop
endfacet
facet normal -0 0 -1
  outer loop
    vertex 0.5 -1.224646799147353e-16 -0.024
    vertex 0.3901378492984129 -0.04148882281227746 -0.024
    vertex 0.4056611162522665 0.05887063811319999 -0.024
  endloop
endfacet
facet normal 0 -0 -1
  outer loop
    vertex 0.4272097022732446 0.2597919750177163 -0.024
    vertex 0.4814586436738997 0.1348983855785119 -0.024
    vertex 0.3632160761955647 0.1609468577326512 -0.024
  endloop
endfacet
facet normal 0 0 -1
  outer loop
    vertex 0.3632160761955647 0.1609468577326512 -0.024
    vertex 0.4814586436738997 0.1348983855785119 -0.024
    vertex 0.4056611162522665 0.05887063811319999 -0.024
  endloop
endfacet
facet normal 0 -0 -1
  outer loop
    vertex 0.3412765716093275 0.3654179821390617 -0.024
    vertex 0.4272097022732446 0.2597919750177163 -0.024
    vertex 0.319142884740496 0.2568593319100397 -0.024
  endloop
endfacet
facet normal 0 0 -1
  outer loop
    vertex 0.4272097022732446 0.2597919750177163 -0.024
    vertex 0.3632160761955647 0.1609468577326512 -0.024
    vertex 0.319142884740496 0.2568593319100397 -0.024
  endloop
endfacet
facet normal 0 -0 -1
  outer loop
    vertex 0.2300325188655767 0.4439426092011873 -0.024
    vertex 0.3412765716093275 0.3654179821390617 -0.024
    vertex 0.2074495853976304 0.3062164754066314 -0.024
  endloop
endfacet
facet normal 0 0 -1
  outer loop
    vertex 0.2074495853976304 0.3062164754066314 -0.024
    vertex 0.3412765716093275 0.3654179821390617 -0.024
    vertex 0.319142884740496 0.2568593319100397 -0.024
  endloop
endfacet
facet normal 0 0 -1
  outer loop
    vertex 0.1017280065263179 0.4895420438411612 -0.024
    vertex 0.2300325188655767 0.4439426092011873 -0.024
    vertex 0.1289950809030658 0.3865386355586424 -0.024
  endloop
endfacet
facet normal 0 0 -1
  outer loop
    vertex 0.2300325188655767 0.4439426092011873 -0.024
    vertex 0.2074495853976304 0.3062164754066314 -0.024
    vertex 0.1289950809030658 0.3865386355586424 -0.024
  endloop
endfacet
facet normal 0 0 -1
  outer loop
    vertex -0.034121206682334 0.4988343845952697 -0.024
    vertex 0.1017280065263179 0.4895420438411612 -0.024
    vertex 0.0308273473709157 0.4097921291067965 -0.024
  endloop
endfacet
facet normal 0 -0 -1
  outer loop
    vertex 0.1017280065263179 0.4895420438411612 -0.024
    vertex 0.1289950809030658 0.3865386355586424 -0.024
    vertex 0.0308273473709157 0.4097921291067965 -0.024
  endloop
endfacet
facet normal 0 0 -1
  outer loop
    vertex -0.1674398060854912 0.4711304610594109 -0.024
    vertex -0.034121206682334 0.4988343845952697 -0.024
    vertex -0.07228117646863524 0.3749879168757483 -0.024
  endloop
endfacet
facet normal 0 0 -1
  outer loop
    vertex -0.07228117646863524 0.3749879168757483 -0.024
    vertex -0.034121206682334 0.4988343845952697 -0.024
    vertex 0.0308273473709157 0.4097921291067965 -0.024
  endloop
endfacet
facet normal 0 0 -1
  outer loop
    vertex -0.2883401610574317 0.4084849465052223 -0.024
    vertex -0.1674398060854912 0.4711304610594109 -0.024
    vertex -0.187546869905432 0.3619490287022794 -0.024
  endloop
endfacet
facet normal 0 -0 -1
  outer loop
    vertex -0.1674398060854912 0.4711304610594109 -0.024
    vertex -0.07228117646863524 0.3749879168757483 -0.024
    vertex -0.187546869905432 0.3619490287022794 -0.024
  endloop
endfacet
facet normal 0 0 -1
  outer loop
    vertex -0.3878556453522081 0.3155439721630285 -0.024
    vertex -0.2883401610574317 0.4084849465052223 -0.024
    vertex -0.2749745589121576 0.3094266059408606 -0.024
  endloop
endfacet
facet normal 0 0 -1
  outer loop
    vertex -0.2883401610574317 0.4084849465052223 -0.024
    vertex -0.187546869905432 0.3619490287022794 -0.024
    vertex -0.2749745589121576 0.3094266059408606 -0.024
  endloop
endfacet
facet normal 0 0 -1
  outer loop
    vertex -0.4586056507527253 0.1992005449231236 -0.024
    vertex -0.3878556453522081 0.3155439721630285 -0.024
    vertex -0.3245164793813966 0.1967837855671976 -0.024
  endloop
endfacet
facet normal 0 0 -1
  outer loop
    vertex -0.3245164793813966 0.1967837855671976 -0.024
    vertex -0.3878556453522081 0.3155439721630285 -0.024
    vertex -0.2749745589121576 0.3094266059408606 -0.024
  endloop
endfacet
facet normal 0 0 -1
  outer loop
    vertex -0.4953429730181649 0.06808332454812685 -0.024
    vertex -0.4586056507527253 0.1992005449231236 -0.024
    vertex -0.4077270453458199 0.111504480557835 -0.024
  endloop
endfacet
facet normal 0 0 -1
  outer loop
    vertex -0.4586056507527253 0.1992005449231236 -0.024
    vertex -0.3245164793813966 0.1967837855671976 -0.024
    vertex -0.4077270453458199 0.111504480557835 -0.024
  endloop
endfacet
facet normal 0 0 -1
  outer loop
    vertex -0.4953429730181659 -0.06808332454811925 -0.024
    vertex -0.4953429730181649 0.06808332454812685 -0.024
    vertex -0.4216966847197821 0.007512019309961289 -0.024
  endloop
endfacet
facet normal 0 0 -1
  outer loop
    vertex -0.4953429730181649 0.06808332454812685 -0.024
    vertex -0.4077270453458199 0.111504480557835 -0.024
    vertex -0.4216966847197821 0.007512019309961289 -0.024
  endloop
endfacet
facet normal 0 0 -1
  outer loop
    vertex -0.4586056507527284 -0.1992005449231165 -0.024
    vertex -0.4953429730181659 -0.06808332454811925 -0.024
    vertex -0.3759468188651415 -0.08763944830399562 -0.024
  endloop
endfacet
facet normal 0 0 -1
  outer loop
    vertex -0.3759468188651415 -0.08763944830399562 -0.024
    vertex -0.4953429730181659 -0.06808332454811925 -0.024
    vertex -0.4216966847197821 0.007512019309961289 -0.024
  endloop
endfacet
facet normal 0 0 -1
  outer loop
    vertex -0.387855645352213 -0.3155439721630226 -0.024
    vertex -0.4586056507527284 -0.1992005449231165 -0.024
    vertex -0.3224996612747172 -0.1981989329778083 -0.024
  endloop
endfacet
facet normal 0 0 -1
  outer loop
    vertex -0.4586056507527284 -0.1992005449231165 -0.024
    vertex -0.3759468188651415 -0.08763944830399562 -0.024
    vertex -0.3224996612747172 -0.1981989329778083 -0.024
  endloop
endfacet
facet normal 0 0 -1
  outer loop
    vertex -0.288340161057438 -0.4084849465052179 -0.024
    vertex -0.387855645352213 -0.3155439721630226 -0.024
    vertex -0.27128415232675 -0.2918070614883109 -0.024
  endloop
endfacet
facet normal 0 0 -1
  outer loop
    vertex -0.387855645352213 -0.3155439721630226 -0.024
    vertex -0.3224996612747172 -0.1981989329778083 -0.024
    vertex -0.27128415232675 -0.2918070614883109 -0.024
  endloop
endfacet
facet normal 0 0 -1
  outer loop
    vertex -0.1674398060854986 -0.4711304610594083 -0.024
    vertex -0.288340161057438 -0.4084849465052179 -0.024
    vertex -0.1736373765343916 -0.3351049250500573 -0.024
  endloop
endfacet
facet normal -0 0 -1
  outer loop
    vertex -0.1736373765343916 -0.3351049250500573 -0.024
    vertex -0.288340161057438 -0.4084849465052179 -0.024
    vertex -0.27128415232675 -0.2918070614883109 -0.024
  endloop
endfacet
facet normal 0 0 -1
  outer loop
    vertex -0.03412120668234143 -0.4988343845952692 -0.024
    vertex -0.1674398060854986 -0.4711304610594083 -0.024
    vertex -0.06934853128233973 -0.3788650179394546 -0.024
  endloop
endfacet
facet normal 0 0 -1
  outer loop
    vertex -0.1674398060854986 -0.4711304610594083 -0.024
    vertex -0.1736373765343916 -0.3351049250500573 -0.024
    vertex -0.06934853128233973 -0.3788650179394546 -0.024
  endloop
endfacet
facet normal -0 0 -1
  outer loop
    vertex 0.1017280065263119 -0.4895420438411625 -0.024
    vertex -0.03412120668234143 -0.4988343845952692 -0.024
    vertex 0.02781922113545561 -0.4067026170622269 -0.024
  endloop
endfacet
facet normal -0 0 -1
  outer loop
    vertex 0.02781922113545561 -0.4067026170622269 -0.024
    vertex -0.03412120668234143 -0.4988343845952692 -0.024
    vertex -0.06934853128233973 -0.3788650179394546 -0.024
  endloop
endfacet
facet normal -0 0 -1
  outer loop
    vertex 0.2300325188655726 -0.4439426092011894 -0.024
    vertex 0.1017280065263119 -0.4895420438411625 -0.024
    vertex 0.1258202935241564 -0.3605925792583246 -0.024
  endloop
endfacet
facet normal 0 0 -1
  outer loop
    vertex 0.1258202935241564 -0.3605925792583246 -0.024
    vertex 0.1017280065263119 -0.4895420438411625 -0.024
    vertex 0.02781922113545561 -0.4067026170622269 -0.024
  endloop
endfacet
facet normal -0 0 -1
  outer loop
    vertex 0.3412765716093251 -0.3654179821390638 -0.024
    vertex 0.2300325188655726 -0.4439426092011894 -0.024
    vertex 0.2274673534148585 -0.3381865272638404 -0.024
  endloop
endfacet
facet normal 0 0 -1
  outer loop
    vertex 0.2300325188655726 -0.4439426092011894 -0.024
    vertex 0.1258202935241564 -0.3605925792583246 -0.024
    vertex 0.2274673534148585 -0.3381865272638404 -0.024
  endloop
endfacet
facet normal -0 0 -1
  outer loop
    vertex 0.4272097022732431 -0.2597919750177187 -0.024
    vertex 0.3412765716093251 -0.3654179821390638 -0.024
    vertex 0.2835763184036721 -0.2530136377413748 -0.024
  endloop
endfacet
facet normal 0 -0 -1
  outer loop
    vertex 0.2835763184036721 -0.2530136377413748 -0.024
    vertex 0.3412765716093251 -0.3654179821390638 -0.024
    vertex 0.2274673534148585 -0.3381865272638404 -0.024
  endloop
endfacet
facet normal 0 0 -1
  outer loop
    vertex 0.4814586436738994 -0.1348983855785131 -0.024
    vertex 0.4272097022732431 -0.2597919750177187 -0.024
    vertex 0.3461731517493958 -0.1503642189167344 -0.024
  endloop
endfacet
facet normal 0 -0 -1
  outer loop
    vertex 0.3461731517493958 -0.1503642189167344 -0.024
    vertex 0.4272097022732431 -0.2597919750177187 -0.024
    vertex 0.2835763184036721 -0.2530136377413748 -0.024
  endloop
endfacet
facet normal -0 0 -1
  outer loop
    vertex 0.4814586436738994 -0.1348983855785131 -0.024
    vertex 0.3461731517493958 -0.1503642189167344 -0.024
    vertex 0.3901378492984129 -0.04148882281227746 -0.024
  endloop
endfacet
facet normal -0 0 -1
  outer loop
    vertex -0.2567021638910572 -0.07710521945572568 -0.024
    vertex -0.3759468188651415 -0.08763944830399562 -0.024
    vertex -0.3178020161347869 0.0497527569837582 -0.024
  endloop
endfacet
facet normal 0 0 -1
  outer loop
    vertex -0.3759468188651415 -0.08763944830399562 -0.024
    vertex -0.2567021638910572 -0.07710521945572568 -0.024
    vertex -0.3224996612747172 -0.1981989329778083 -0.024
  endloop
endfacet
facet normal 0 0 -1
  outer loop
    vertex -0.3178020161347869 0.0497527569837582 -0.024
    vertex -0.3759468188651415 -0.08763944830399562 -0.024
    vertex -0.4216966847197821 0.007512019309961289 -0.024
  endloop
endfacet
facet normal 0 0 -1
  outer loop
    vertex 0.3632160761955647 0.1609468577326512 -0.024
    vertex 0.249222040551056 0.180386145902079 -0.024
    vertex 0.319142884740496 0.2568593319100397 -0.024
  endloop
endfacet
facet normal 0 0 -1
  outer loop
    vertex 0.249222040551056 0.180386145902079 -0.024
    vertex 0.3632160761955647 0.1609468577326512 -0.024
    vertex 0.3044728988778331 0.05819679601748581 -0.024
  endloop
endfacet
facet normal 0 -0 -1
  outer loop
    vertex 0.3632160761955647 0.1609468577326512 -0.024
    vertex 0.4056611162522665 0.05887063811319999 -0.024
    vertex 0.3044728988778331 0.05819679601748581 -0.024
  endloop
endfacet
facet normal 0 0 -1
  outer loop
    vertex 0.0213655810883526 -0.2880898710232152 -0.024
    vertex 0.1258202935241564 -0.3605925792583246 -0.024
    vertex 0.02781922113545561 -0.4067026170622269 -0.024
  endloop
endfacet
facet normal 0 0 -1
  outer loop
    vertex 0.1258202935241564 -0.3605925792583246 -0.024
    vertex 0.0213655810883526 -0.2880898710232152 -0.024
    vertex 0.1528238205781042 -0.2542232352711877 -0.024
  endloop
endfacet
facet normal 0 0 -1
  outer loop
    vertex 0.1258202935241564 -0.3605925792583246 -0.024
    vertex 0.1528238205781042 -0.2542232352711877 -0.024
    vertex 0.2274673534148585 -0.3381865272638404 -0.024
  endloop
endfacet
facet normal 0 0 -1
  outer loop
    vertex 0.05451201890771474 0.3035591396248849 -0.024
    vertex -0.07228117646863524 0.3749879168757483 -0.024
    vertex 0.0308273473709157 0.4097921291067965 -0.024
  endloop
endfacet
facet normal 0 -0 -1
  outer loop
    vertex -0.07228117646863524 0.3749879168757483 -0.024
    vertex 0.05451201890771474 0.3035591396248849 -0.024
    vertex -0.08418182565002288 0.2682018111870766 -0.024
  endloop
endfacet
facet normal 0 0 -1
  outer loop
    vertex -0.187546869905432 0.3619490287022794 -0.024
    vertex -0.07228117646863524 0.3749879168757483 -0.024
    vertex -0.08418182565002288 0.2682018111870766 -0.024
  endloop
endfacet
facet normal 0 -0 -1
  outer loop
    vertex -0.3245164793813966 0.1967837855671976 -0.024
    vertex -0.3178020161347869 0.0497527569837582 -0.024
    vertex -0.4077270453458199 0.111504480557835 -0.024
  endloop
endfacet
facet normal 0 0 -1
  outer loop
    vertex -0.3178020161347869 0.0497527569837582 -0.024
    vertex -0.3245164793813966 0.1967837855671976 -0.024
    vertex -0.2348825892246815 0.1404337362664033 -0.024
  endloop
endfacet
facet normal 0 0 -1
  outer loop
    vertex -0.3245164793813966 0.1967837855671976 -0.024
    vertex -0.2749745589121576 0.3094266059408606 -0.024
    vertex -0.2064203004391493 0.2409607844282781 -0.024
  endloop
endfacet
facet normal 0 0 -1
  outer loop
    vertex -0.3245164793813966 0.1967837855671976 -0.024
    vertex -0.2064203004391493 0.2409607844282781 -0.024
    vertex -0.2348825892246815 0.1404337362664033 -0.024
  endloop
endfacet
facet normal 0 0 -1
  outer loop
    vertex -0.1736373765343916 -0.3351049250500573 -0.024
    vertex -0.1840879174149901 -0.2017025307454486 -0.024
    vertex -0.0900776006156149 -0.2733278488465509 -0.024
  endloop
endfacet
facet normal 0 -0 -1
  outer loop
    vertex -0.1840879174149901 -0.2017025307454486 -0.024
    vertex -0.1736373765343916 -0.3351049250500573 -0.024
    vertex -0.27128415232675 -0.2918070614883109 -0.024
  endloop
endfacet
facet normal 0 0 -1
  outer loop
    vertex -0.06934853128233973 -0.3788650179394546 -0.024
    vertex -0.1736373765343916 -0.3351049250500573 -0.024
    vertex -0.0900776006156149 -0.2733278488465509 -0.024
  endloop
endfacet
facet normal 0 0 -1
  outer loop
    vertex 0.3901378492984129 -0.04148882281227746 -0.024
    vertex 0.3461731517493958 -0.1503642189167344 -0.024
    vertex 0.2677467131759144 -0.04404029356868953 -0.024
  endloop
endfacet
facet normal 0 -0 -1
  outer loop
    vertex 0.2677467131759144 -0.04404029356868953 -0.024
    vertex 0.3461731517493958 -0.1503642189167344 -0.024
    vertex 0.210574078812331 -0.1524029325653922 -0.024
  endloop
endfacet
facet normal 0 0 -1
  outer loop
    vertex 0.210574078812331 -0.1524029325653922 -0.024
    vertex 0.3461731517493958 -0.1503642189167344 -0.024
    vertex 0.2835763184036721 -0.2530136377413748 -0.024
  endloop
endfacet
facet normal 0 0 -1
  outer loop
    vertex 0.2074495853976304 0.3062164754066314 -0.024
    vertex 0.1271721474710832 0.1875121361808577 -0.024
    vertex 0.05451201890771474 0.3035591396248849 -0.024
  endloop
endfacet
facet normal 0 0 -1
  outer loop
    vertex 0.1271721474710832 0.1875121361808577 -0.024
    vertex 0.2074495853976304 0.3062164754066314 -0.024
    vertex 0.249222040551056 0.180386145902079 -0.024
  endloop
endfacet
facet normal -0 0 -1
  outer loop
    vertex 0.2074495853976304 0.3062164754066314 -0.024
    vertex 0.05451201890771474 0.3035591396248849 -0.024
    vertex 0.1289950809030658 0.3865386355586424 -0.024
  endloop
endfacet
facet normal 0 0 -1
  outer loop
    vertex 0.249222040551056 0.180386145902079 -0.024
    vertex 0.2074495853976304 0.3062164754066314 -0.024
    vertex 0.319142884740496 0.2568593319100397 -0.024
  endloop
endfacet
facet normal -0 0 -1
  outer loop
    vertex 0.3901378492984129 -0.04148882281227746 -0.024
    vertex 0.2677467131759144 -0.04404029356868953 -0.024
    vertex 0.3044728988778331 0.05819679601748581 -0.024
  endloop
endfacet
facet normal 0 0 -1
  outer loop
    vertex 0.4056611162522665 0.05887063811319999 -0.024
    vertex 0.3901378492984129 -0.04148882281227746 -0.024
    vertex 0.3044728988778331 0.05819679601748581 -0.024
  endloop
endfacet
facet normal 0 0 -1
  outer loop
    vertex 0.2677467131759144 -0.04404029356868953 -0.024
    vertex 0.210574078812331 -0.1524029325653922 -0.024
    vertex 0.1379249965865592 -0.04632308337771369 -0.024
  endloop
endfacet
facet normal -0 0 -1
  outer loop
    vertex 0.2677467131759144 -0.04404029356868953 -0.024
    vertex 0.1379249965865592 -0.04632308337771369 -0.024
    vertex 0.1903330048130836 0.06967781710238805 -0.024
  endloop
endfacet
facet normal 0 0 -1
  outer loop
    vertex 0.2677467131759144 -0.04404029356868953 -0.024
    vertex 0.1903330048130836 0.06967781710238805 -0.024
    vertex 0.3044728988778331 0.05819679601748581 -0.024
  endloop
endfacet
facet normal 0 -0 -1
  outer loop
    vertex 0.1379249965865592 -0.04632308337771369 -0.024
    vertex 0.210574078812331 -0.1524029325653922 -0.024
    vertex 0.0753393990522998 -0.159958992497105 -0.024
  endloop
endfacet
facet normal 0 0 -1
  outer loop
    vertex 0.0753393990522998 -0.159958992497105 -0.024
    vertex 0.210574078812331 -0.1524029325653922 -0.024
    vertex 0.1528238205781042 -0.2542232352711877 -0.024
  endloop
endfacet
facet normal 0 -0 -1
  outer loop
    vertex 0.210574078812331 -0.1524029325653922 -0.024
    vertex 0.2835763184036721 -0.2530136377413748 -0.024
    vertex 0.1528238205781042 -0.2542232352711877 -0.024
  endloop
endfacet
facet normal 0 0 -1
  outer loop
    vertex 0.1379249965865592 -0.04632308337771369 -0.024
    vertex 0.0753393990522998 -0.159958992497105 -0.024
    vertex 0.00233924999469856 -0.05157964541832289 -0.024
  endloop
endfacet
facet normal -0 0 -1
  outer loop
    vertex 0.1379249965865592 -0.04632308337771369 -0.024
    vertex 0.00233924999469856 -0.05157964541832289 -0.024
    vertex 0.06519521759985994 0.06806403738637196 -0.024
  endloop
endfacet
facet normal 0 0 -1
  outer loop
    vertex 0.1379249965865592 -0.04632308337771369 -0.024
    vertex 0.06519521759985994 0.06806403738637196 -0.024
    vertex 0.1903330048130836 0.06967781710238805 -0.024
  endloop
endfacet
facet normal 0 -0 -1
  outer loop
    vertex 0.00233924999469856 -0.05157964541832289 -0.024
    vertex 0.0753393990522998 -0.159958992497105 -0.024
    vertex -0.05436667823528415 -0.1678653922830521 -0.024
  endloop
endfacet
facet normal 0 0 -1
  outer loop
    vertex -0.05436667823528415 -0.1678653922830521 -0.024
    vertex 0.0753393990522998 -0.159958992497105 -0.024
    vertex 0.0213655810883526 -0.2880898710232152 -0.024
  endloop
endfacet
facet normal 0 0 -1
  outer loop
    vertex 0.0213655810883526 -0.2880898710232152 -0.024
    vertex 0.0753393990522998 -0.159958992497105 -0.024
    vertex 0.1528238205781042 -0.2542232352711877 -0.024
  endloop
endfacet
facet normal 0 0 -1
  outer loop
    vertex 0.06519521759985994 0.06806403738637196 -0.024
    vertex 0.00233924999469856 -0.05157964541832289 -0.024
    vertex -0.07085650202074467 0.06202455043120387 -0.024
  endloop
endfacet
facet normal 0 -0 -1
  outer loop
    vertex -0.07085650202074467 0.06202455043120387 -0.024
    vertex 0.00233924999469856 -0.05157964541832289 -0.024
    vertex -0.1308083216592908 -0.0571058258410188 -0.024
  endloop
endfacet
facet normal 0 0 -1
  outer loop
    vertex -0.1308083216592908 -0.0571058258410188 -0.024
    vertex 0.00233924999469856 -0.05157964541832289 -0.024
    vertex -0.05436667823528415 -0.1678653922830521 -0.024
  endloop
endfacet
facet normal -0 0 -1
  outer loop
    vertex 0.06519521759985994 0.06806403738637196 -0.024
    vertex -0.07085650202074467 0.06202455043120387 -0.024
    vertex -0.007897631187826874 0.176888132442396 -0.024
  endloop
endfacet
facet normal 0 0 -1
  outer loop
    vertex 0.06519521759985994 0.06806403738637196 -0.024
    vertex -0.007897631187826874 0.176888132442396 -0.024
    vertex 0.1271721474710832 0.1875121361808577 -0.024
  endloop
endfacet
facet normal 0 0 -1
  outer loop
    vertex 0.06519521759985994 0.06806403738637196 -0.024
    vertex 0.1271721474710832 0.1875121361808577 -0.024
    vertex 0.1903330048130836 0.06967781710238805 -0.024
  endloop
endfacet
facet normal 0 0 -1
  outer loop
    vertex -0.07085650202074467 0.06202455043120387 -0.024
    vertex -0.1308083216592908 -0.0571058258410188 -0.024
    vertex -0.1958905401332312 0.05345885380181054 -0.024
  endloop
endfacet
facet normal 0 0 -1
  outer loop
    vertex -0.007897631187826874 0.176888132442396 -0.024
    vertex -0.07085650202074467 0.06202455043120387 -0.024
    vertex -0.1297836100348437 0.1612125005509719 -0.024
  endloop
endfacet
facet normal -0 0 -1
  outer loop
    vertex -0.07085650202074467 0.06202455043120387 -0.024
    vertex -0.1958905401332312 0.05345885380181054 -0.024
    vertex -0.1297836100348437 0.1612125005509719 -0.024
  endloop
endfacet
facet normal 0 -0 -1
  outer loop
    vertex -0.1958905401332312 0.05345885380181054 -0.024
    vertex -0.1308083216592908 -0.0571058258410188 -0.024
    vertex -0.2567021638910572 -0.07710521945572568 -0.024
  endloop
endfacet
facet normal 0 -0 -1
  outer loop
    vertex -0.1308083216592908 -0.0571058258410188 -0.024
    vertex -0.05436667823528415 -0.1678653922830521 -0.024
    vertex -0.1840879174149901 -0.2017025307454486 -0.024
  endloop
endfacet
facet normal 0 0 -1
  outer loop
    vertex -0.1308083216592908 -0.0571058258410188 -0.024
    vertex -0.1840879174149901 -0.2017025307454486 -0.024
    vertex -0.2567021638910572 -0.07710521945572568 -0.024
  endloop
endfacet
facet normal -0 0 -1
  outer loop
    vertex 0.1271721474710832 0.1875121361808577 -0.024
    vertex -0.007897631187826874 0.176888132442396 -0.024
    vertex 0.05451201890771474 0.3035591396248849 -0.024
  endloop
endfacet
facet normal 0 0 -1
  outer loop
    vertex 0.05451201890771474 0.3035591396248849 -0.024
    vertex -0.007897631187826874 0.176888132442396 -0.024
    vertex -0.08418182565002288 0.2682018111870766 -0.024
  endloop
endfacet
facet normal -0 0 -1
  outer loop
    vertex -0.007897631187826874 0.176888132442396 -0.024
    vertex -0.1297836100348437 0.1612125005509719 -0.024
    vertex -0.08418182565002288 0.2682018111870766 -0.024
  endloop
endfacet
facet normal 0 0 -1
  outer loop
    vertex -0.1297836100348437 0.1612125005509719 -0.024
    vertex -0.1958905401332312 0.05345885380181054 -0.024
    vertex -0.2348825892246815 0.1404337362664033 -0.024
  endloop
endfacet
facet normal 0 0 -1
  outer loop
    vertex -0.1958905401332312 0.05345885380181054 -0.024
    vertex -0.2567021638910572 -0.07710521945572568 -0.024
    vertex -0.3178020161347869 0.0497527569837582 -0.024
  endloop
endfacet
facet normal -0 0 -1
  outer loop
    vertex -0.1958905401332312 0.05345885380181054 -0.024
    vertex -0.3178020161347869 0.0497527569837582 -0.024
    vertex -0.2348825892246815 0.1404337362664033 -0.024
  endloop
endfacet
facet normal 0 0 -1
  outer loop
    vertex 0.1903330048130836 0.06967781710238805 -0.024
    vertex 0.1271721474710832 0.1875121361808577 -0.024
    vertex 0.249222040551056 0.180386145902079 -0.024
  endloop
endfacet
facet normal -0 0 -1
  outer loop
    vertex 0.1289950809030658 0.3865386355586424 -0.024
    vertex 0.05451201890771474 0.3035591396248849 -0.024
    vertex 0.0308273473709157 0.4097921291067965 -0.024
  endloop
endfacet
facet normal 0 0 -1
  outer loop
    vertex 0.1903330048130836 0.06967781710238805 -0.024
    vertex 0.249222040551056 0.180386145902079 -0.024
    vertex 0.3044728988778331 0.05819679601748581 -0.024
  endloop
endfacet
facet normal 0 0 -1
  outer loop
    vertex -0.1840879174149901 -0.2017025307454486 -0.024
    vertex -0.05436667823528415 -0.1678653922830521 -0.024
    vertex -0.0900776006156149 -0.2733278488465509 -0.024
  endloop
endfacet
facet normal 0 -0 -1
  outer loop
    vertex -0.05436667823528415 -0.1678653922830521 -0.024
    vertex 0.0213655810883526 -0.2880898710232152 -0.024
    vertex -0.0900776006156149 -0.2733278488465509 -0.024
  endloop
endfacet
facet normal 0 -0 -1
  outer loop
    vertex -0.2567021638910572 -0.07710521945572568 -0.024
    vertex -0.1840879174149901 -0.2017025307454486 -0.024
    vertex -0.3224996612747172 -0.1981989329778083 -0.024
  endloop
endfacet
facet normal 0 0 -1
  outer loop
    vertex -0.3224996612747172 -0.1981989329778083 -0.024
    vertex -0.1840879174149901 -0.2017025307454486 -0.024
    vertex -0.27128415232675 -0.2918070614883109 -0.024
  endloop
endfacet
facet normal 0 0 -1
  outer loop
    vertex -0.08418182565002288 0.2682018111870766 -0.024
    vertex -0.1297836100348437 0.1612125005509719 -0.024
    vertex -0.2064203004391493 0.2409607844282781 -0.024
  endloop
endfacet
facet normal 0 -0 -1
  outer loop
    vertex -0.2064203004391493 0.2409607844282781 -0.024
    vertex -0.1297836100348437 0.1612125005509719 -0.024
    vertex -0.2348825892246815 0.1404337362664033 -0.024
  endloop
endfacet
facet normal 0 -0 -1
  outer loop
    vertex 0.0213655810883526 -0.2880898710232152 -0.024
    vertex 0.02781922113545561 -0.4067026170622269 -0.024
    vertex -0.06934853128233973 -0.3788650179394546 -0.024
  endloop
endfacet
facet normal -0 0 -1
  outer loop
    vertex 0.0213655810883526 -0.2880898710232152 -0.024
    vertex -0.06934853128233973 -0.3788650179394546 -0.024
    vertex -0.0900776006156149 -0.2733278488465509 -0.024
  endloop
endfacet
facet normal 0 0 -1
  outer loop
    vertex 0.1528238205781042 -0.2542232352711877 -0.024
    vertex 0.2835763184036721 -0.2530136377413748 -0.024
    vertex 0.2274673534148585 -0.3381865272638404 -0.024
  endloop
endfacet
facet normal 0 -0 -1
  outer loop
    vertex -0.4077270453458199 0.111504480557835 -0.024
    vertex -0.3178020161347869 0.0497527569837582 -0.024
    vertex -0.4216966847197821 0.007512019309961289 -0.024
  endloop
endfacet
facet normal 0 0 -1
  outer loop
    vertex -0.2749745589121576 0.3094266059408606 -0.024
    vertex -0.187546869905432 0.3619490287022794 -0.024
    vertex -0.2064203004391493 0.2409607844282781 -0.024
  endloop
endfacet
facet normal 0 -0 -1
  outer loop
    vertex -0.187546869905432 0.3619490287022794 -0.024
    vertex -0.08418182565002288 0.2682018111870766 -0.024
    vertex -0.2064203004391493 0.2409607844282781 -0.024
  endloop
endfacet
endsolid Created by Gmsh
