solid double_circle.stl
facet normal 0.000000 0.000000 -0.028174
  outer loop
    vertex 0.126027 0.282402 -0.004485
    vertex 0.146385 0.441735 -0.004485
    vertex 0.305875 0.306082 -0.004485
  endloop
endfacet
facet normal 0.000000 0.000000 -0.025071
  outer loop
    vertex -0.000000 0.388455 -0.004485
    vertex -0.034249 0.230782 -0.004485
    vertex -0.172972 0.324150 -0.004485
  endloop
endfacet
facet normal 0.000000 0.000000 -0.021132
  outer loop
    vertex 0.146385 0.441735 -0.004485
    vertex 0.302164 0.441735 -0.004485
    vertex 0.305875 0.306082 -0.004485
  endloop
endfacet
facet normal 0.000000 -0.000000 -0.018629
  outer loop
    vertex -0.146385 0.441735 -0.004485
    vertex -0.000000 0.388455 -0.004485
    vertex -0.172972 0.324150 -0.004485
  endloop
endfacet
facet normal 0.000000 0.000000 -0.025181
  outer loop
    vertex -0.533345 0.046240 -0.004485
    vertex -0.645773 0.153413 -0.004485
    vertex -0.456673 0.197123 -0.004485
  endloop
endfacet
facet normal 0.000000 0.000000 -0.018240
  outer loop
    vertex 0.228598 -0.344389 -0.004485
    vertex 0.124931 -0.273151 -0.004485
    vertex 0.301201 -0.218332 -0.004485
  endloop
endfacet
facet normal 0.000000 0.000000 -0.017651
  outer loop
    vertex 0.471215 -0.150125 -0.004485
    vertex 0.439499 -0.266668 -0.004485
    vertex 0.301201 -0.218332 -0.004485
  endloop
endfacet
facet normal 0.000000 0.000000 -0.025875
  outer loop
    vertex 0.124931 -0.273151 -0.004485
    vertex 0.176031 -0.110465 -0.004485
    vertex 0.301201 -0.218332 -0.004485
  endloop
endfacet
facet normal 0.000000 -0.000000 -0.025425
  outer loop
    vertex 0.325722 -0.058946 -0.004485
    vertex 0.471215 -0.150125 -0.004485
    vertex 0.301201 -0.218332 -0.004485
  endloop
endfacet
facet normal 0.000000 0.000000 -0.022107
  outer loop
    vertex -0.645773 0.153413 -0.004485
    vertex -0.567883 0.288322 -0.004485
    vertex -0.456673 0.197123 -0.004485
  endloop
endfacet
facet normal 0.000000 0.000000 -0.022010
  outer loop
    vertex -0.319821 0.128483 -0.004485
    vertex -0.321859 0.282127 -0.004485
    vertex -0.177263 0.180753 -0.004485
  endloop
endfacet
facet normal 0.000000 0.000000 -0.024163
  outer loop
    vertex 0.243722 0.185178 -0.004485
    vertex 0.408412 0.238425 -0.004485
    vertex 0.384470 0.083966 -0.004485
  endloop
endfacet
facet normal 0.000000 0.000000 -0.015655
  outer loop
    vertex 0.526439 0.053280 -0.004485
    vertex 0.384470 0.083966 -0.004485
    vertex 0.512265 0.166616 -0.004485
  endloop
endfacet
facet normal 0.000000 -0.000000 -0.025104
  outer loop
    vertex -0.448549 0.388455 -0.004485
    vertex -0.321859 0.282127 -0.004485
    vertex -0.456673 0.197123 -0.004485
  endloop
endfacet
facet normal 0.000000 0.000000 -0.022019
  outer loop
    vertex -0.567883 0.288322 -0.004485
    vertex -0.448549 0.388455 -0.004485
    vertex -0.456673 0.197123 -0.004485
  endloop
endfacet
facet normal 0.000000 0.000000 -0.017760
  outer loop
    vertex 0.384470 0.083966 -0.004485
    vertex 0.408412 0.238425 -0.004485
    vertex 0.512265 0.166616 -0.004485
  endloop
endfacet
facet normal 0.000000 0.000000 -0.020273
  outer loop
    vertex 0.243722 0.185178 -0.004485
    vertex 0.126027 0.282402 -0.004485
    vertex 0.305875 0.306082 -0.004485
  endloop
endfacet
facet normal -0.000000 0.000000 -0.020293
  outer loop
    vertex -0.034249 0.230782 -0.004485
    vertex -0.177263 0.180753 -0.004485
    vertex -0.172972 0.324150 -0.004485
  endloop
endfacet
facet normal 0.000000 0.000000 -0.022460
  outer loop
    vertex 0.176031 -0.110465 -0.004485
    vertex 0.124931 -0.273151 -0.004485
    vertex 0.024918 -0.152034 -0.004485
  endloop
endfacet
facet normal 0.000000 0.000000 -0.021170
  outer loop
    vertex -0.177263 0.180753 -0.004485
    vertex -0.321859 0.282127 -0.004485
    vertex -0.172972 0.324150 -0.004485
  endloop
endfacet
facet normal -0.000000 0.000000 -0.016602
  outer loop
    vertex 0.408412 0.238425 -0.004485
    vertex 0.243722 0.185178 -0.004485
    vertex 0.305875 0.306082 -0.004485
  endloop
endfacet
facet normal -0.000000 0.000000 -0.012909
  outer loop
    vertex 0.342412 -0.324579 -0.004485
    vertex 0.228598 -0.344389 -0.004485
    vertex 0.301201 -0.218332 -0.004485
  endloop
endfacet
facet normal -0.000000 0.000000 -0.012702
  outer loop
    vertex 0.439499 -0.266668 -0.004485
    vertex 0.342412 -0.324579 -0.004485
    vertex 0.301201 -0.218332 -0.004485
  endloop
endfacet
facet normal 0.000000 0.000000 -0.016425
  outer loop
    vertex 0.471215 -0.150125 -0.004485
    vertex 0.325722 -0.058946 -0.004485
    vertex 0.453631 -0.026212 -0.004485
  endloop
endfacet
facet normal 0.000000 -0.000000 -0.023503
  outer loop
    vertex -0.000000 0.388455 -0.004485
    vertex 0.126027 0.282402 -0.004485
    vertex -0.034249 0.230782 -0.004485
  endloop
endfacet
facet normal 0.000000 0.000000 -0.022239
  outer loop
    vertex -0.000000 0.388455 -0.004485
    vertex 0.146385 0.441735 -0.004485
    vertex 0.126027 0.282402 -0.004485
  endloop
endfacet
facet normal 0.000000 0.000000 -0.023535
  outer loop
    vertex 0.146385 -0.441735 -0.004485
    vertex -0.000000 -0.388455 -0.004485
    vertex 0.124931 -0.273151 -0.004485
  endloop
endfacet
facet normal -0.000000 0.000000 -0.019982
  outer loop
    vertex -0.000000 -0.388455 -0.004485
    vertex -0.146385 -0.441735 -0.004485
    vertex -0.122489 -0.296535 -0.004485
  endloop
endfacet
facet normal 0.000000 -0.000000 -0.021923
  outer loop
    vertex 0.448549 0.388455 -0.004485
    vertex 0.567883 0.288322 -0.004485
    vertex 0.408412 0.238425 -0.004485
  endloop
endfacet
facet normal -0.000000 0.000000 -0.023806
  outer loop
    vertex 0.645773 -0.153413 -0.004485
    vertex 0.567883 -0.288322 -0.004485
    vertex 0.471215 -0.150125 -0.004485
  endloop
endfacet
facet normal -0.000000 0.000000 -0.015005
  outer loop
    vertex 0.448549 -0.388455 -0.004485
    vertex 0.302164 -0.441735 -0.004485
    vertex 0.342412 -0.324579 -0.004485
  endloop
endfacet
facet normal 0.000000 0.000000 -0.021016
  outer loop
    vertex -0.448549 -0.388455 -0.004485
    vertex -0.567883 -0.288322 -0.004485
    vertex -0.421498 -0.235042 -0.004485
  endloop
endfacet
facet normal 0.000000 -0.000000 -0.020056
  outer loop
    vertex -0.055315 0.080636 -0.004485
    vertex 0.064583 -0.017763 -0.004485
    vertex -0.084913 -0.062346 -0.004485
  endloop
endfacet
facet normal 0.000000 -0.000000 -0.021016
  outer loop
    vertex 0.645773 0.153413 -0.004485
    vertex 0.672824 -0.000000 -0.004485
    vertex 0.526439 0.053280 -0.004485
  endloop
endfacet
facet normal 0.000000 0.000000 -0.020268
  outer loop
    vertex -0.201316 0.029757 -0.004485
    vertex -0.319821 0.128483 -0.004485
    vertex -0.177263 0.180753 -0.004485
  endloop
endfacet
facet normal 0.000000 0.000000 -0.019370
  outer loop
    vertex -0.055315 0.080636 -0.004485
    vertex -0.084913 -0.062346 -0.004485
    vertex -0.201316 0.029757 -0.004485
  endloop
endfacet
facet normal -0.000000 0.000000 -0.020822
  outer loop
    vertex -0.055315 0.080636 -0.004485
    vertex -0.201316 0.029757 -0.004485
    vertex -0.177263 0.180753 -0.004485
  endloop
endfacet
facet normal 0.000000 0.000000 -0.020147
  outer loop
    vertex -0.672824 0.000000 -0.004485
    vertex -0.645773 0.153413 -0.004485
    vertex -0.533345 0.046240 -0.004485
  endloop
endfacet
facet normal 0.000000 -0.000000 -0.021041
  outer loop
    vertex -0.034249 0.230782 -0.004485
    vertex 0.092199 0.133212 -0.004485
    vertex -0.055315 0.080636 -0.004485
  endloop
endfacet
facet normal 0.000000 0.000000 -0.020419
  outer loop
    vertex -0.034249 0.230782 -0.004485
    vertex -0.055315 0.080636 -0.004485
    vertex -0.177263 0.180753 -0.004485
  endloop
endfacet
facet normal 0.000000 -0.000000 -0.017882
  outer loop
    vertex -0.201316 0.029757 -0.004485
    vertex -0.084913 -0.062346 -0.004485
    vertex -0.228432 -0.102408 -0.004485
  endloop
endfacet
facet normal 0.000000 0.000000 -0.022315
  outer loop
    vertex -0.448549 0.388455 -0.004485
    vertex -0.302164 0.441735 -0.004485
    vertex -0.321859 0.282127 -0.004485
  endloop
endfacet
facet normal 0.000000 0.000000 -0.022165
  outer loop
    vertex -0.034249 0.230782 -0.004485
    vertex 0.126027 0.282402 -0.004485
    vertex 0.092199 0.133212 -0.004485
  endloop
endfacet
facet normal 0.000000 0.000000 -0.015279
  outer loop
    vertex -0.201316 0.029757 -0.004485
    vertex -0.228432 -0.102408 -0.004485
    vertex -0.326605 -0.017427 -0.004485
  endloop
endfacet
facet normal 0.000000 0.000000 -0.020819
  outer loop
    vertex -0.055315 0.080636 -0.004485
    vertex 0.092199 0.133212 -0.004485
    vertex 0.064583 -0.017763 -0.004485
  endloop
endfacet
facet normal -0.000000 0.000000 -0.017961
  outer loop
    vertex -0.201316 0.029757 -0.004485
    vertex -0.326605 -0.017427 -0.004485
    vertex -0.319821 0.128483 -0.004485
  endloop
endfacet
facet normal 0.000000 0.000000 -0.020848
  outer loop
    vertex 0.092199 0.133212 -0.004485
    vertex 0.126027 0.282402 -0.004485
    vertex 0.243722 0.185178 -0.004485
  endloop
endfacet
facet normal 0.000000 0.000000 -0.019486
  outer loop
    vertex 0.064583 -0.017763 -0.004485
    vertex 0.211617 0.034776 -0.004485
    vertex 0.176031 -0.110465 -0.004485
  endloop
endfacet
facet normal 0.000000 0.000000 -0.019908
  outer loop
    vertex 0.176031 -0.110465 -0.004485
    vertex 0.211617 0.034776 -0.004485
    vertex 0.325722 -0.058946 -0.004485
  endloop
endfacet
facet normal 0.000000 0.000000 -0.020748
  outer loop
    vertex 0.064583 -0.017763 -0.004485
    vertex 0.092199 0.133212 -0.004485
    vertex 0.211617 0.034776 -0.004485
  endloop
endfacet
facet normal 0.000000 0.000000 -0.021121
  outer loop
    vertex 0.092199 0.133212 -0.004485
    vertex 0.243722 0.185178 -0.004485
    vertex 0.211617 0.034776 -0.004485
  endloop
endfacet
facet normal 0.000000 0.000000 -0.021813
  outer loop
    vertex 0.325722 -0.058946 -0.004485
    vertex 0.211617 0.034776 -0.004485
    vertex 0.384470 0.083966 -0.004485
  endloop
endfacet
facet normal 0.000000 0.000000 -0.024418
  outer loop
    vertex 0.211617 0.034776 -0.004485
    vertex 0.243722 0.185178 -0.004485
    vertex 0.384470 0.083966 -0.004485
  endloop
endfacet
facet normal 0.000000 0.000000 -0.013520
  outer loop
    vertex 0.384470 0.083966 -0.004485
    vertex 0.526439 0.053280 -0.004485
    vertex 0.453631 -0.026212 -0.004485
  endloop
endfacet
facet normal 0.000000 -0.000000 -0.018641
  outer loop
    vertex 0.064583 -0.017763 -0.004485
    vertex 0.176031 -0.110465 -0.004485
    vertex 0.024918 -0.152034 -0.004485
  endloop
endfacet
facet normal 0.000000 0.000000 -0.018317
  outer loop
    vertex -0.302164 0.441735 -0.004485
    vertex -0.146385 0.441735 -0.004485
    vertex -0.172972 0.324150 -0.004485
  endloop
endfacet
facet normal 0.000000 0.000000 -0.022936
  outer loop
    vertex -0.321859 0.282127 -0.004485
    vertex -0.302164 0.441735 -0.004485
    vertex -0.172972 0.324150 -0.004485
  endloop
endfacet
facet normal 0.000000 0.000000 -0.018099
  outer loop
    vertex 0.448549 0.388455 -0.004485
    vertex 0.408412 0.238425 -0.004485
    vertex 0.305875 0.306082 -0.004485
  endloop
endfacet
facet normal 0.000000 0.000000 -0.019660
  outer loop
    vertex 0.302164 0.441735 -0.004485
    vertex 0.448549 0.388455 -0.004485
    vertex 0.305875 0.306082 -0.004485
  endloop
endfacet
facet normal 0.000000 -0.000000 -0.020887
  outer loop
    vertex -0.321859 0.282127 -0.004485
    vertex -0.319821 0.128483 -0.004485
    vertex -0.456673 0.197123 -0.004485
  endloop
endfacet
facet normal 0.000000 0.000000 -0.018305
  outer loop
    vertex -0.084913 -0.062346 -0.004485
    vertex 0.064583 -0.017763 -0.004485
    vertex 0.024918 -0.152034 -0.004485
  endloop
endfacet
facet normal 0.000000 0.000000 -0.016195
  outer loop
    vertex 0.024918 -0.152034 -0.004485
    vertex -0.012456 -0.264912 -0.004485
    vertex -0.126307 -0.175457 -0.004485
  endloop
endfacet
facet normal 0.000000 0.000000 -0.016357
  outer loop
    vertex 0.325722 -0.058946 -0.004485
    vertex 0.384470 0.083966 -0.004485
    vertex 0.453631 -0.026212 -0.004485
  endloop
endfacet
facet normal 0.000000 0.000000 -0.016479
  outer loop
    vertex -0.533345 0.046240 -0.004485
    vertex -0.456673 0.197123 -0.004485
    vertex -0.414078 0.066011 -0.004485
  endloop
endfacet
facet normal 0.000000 -0.000000 -0.016136
  outer loop
    vertex -0.084913 -0.062346 -0.004485
    vertex 0.024918 -0.152034 -0.004485
    vertex -0.126307 -0.175457 -0.004485
  endloop
endfacet
facet normal 0.000000 0.000000 -0.016530
  outer loop
    vertex -0.122489 -0.296535 -0.004485
    vertex -0.260989 -0.233890 -0.004485
    vertex -0.126307 -0.175457 -0.004485
  endloop
endfacet
facet normal 0.000000 0.000000 -0.016338
  outer loop
    vertex -0.448423 -0.076673 -0.004485
    vertex -0.533345 0.046240 -0.004485
    vertex -0.414078 0.066011 -0.004485
  endloop
endfacet
facet normal 0.000000 0.000000 -0.013976
  outer loop
    vertex -0.122489 -0.296535 -0.004485
    vertex -0.146385 -0.441735 -0.004485
    vertex -0.227369 -0.348956 -0.004485
  endloop
endfacet
facet normal 0.000000 0.000000 -0.012537
  outer loop
    vertex 0.342412 -0.324579 -0.004485
    vertex 0.302164 -0.441735 -0.004485
    vertex 0.228598 -0.344389 -0.004485
  endloop
endfacet
facet normal 0.000000 0.000000 -0.016633
  outer loop
    vertex 0.408412 0.238425 -0.004485
    vertex 0.567883 0.288322 -0.004485
    vertex 0.512265 0.166616 -0.004485
  endloop
endfacet
facet normal 0.000000 0.000000 -0.014453
  outer loop
    vertex -0.146385 -0.441735 -0.004485
    vertex -0.302164 -0.441735 -0.004485
    vertex -0.227369 -0.348956 -0.004485
  endloop
endfacet
facet normal 0.000000 0.000000 -0.015164
  outer loop
    vertex 0.302164 -0.441735 -0.004485
    vertex 0.146385 -0.441735 -0.004485
    vertex 0.228598 -0.344389 -0.004485
  endloop
endfacet
facet normal 0.000000 0.000000 -0.014666
  outer loop
    vertex 0.526439 0.053280 -0.004485
    vertex 0.672824 -0.000000 -0.004485
    vertex 0.560310 -0.059233 -0.004485
  endloop
endfacet
facet normal -0.000000 0.000000 -0.014944
  outer loop
    vertex 0.645773 0.153413 -0.004485
    vertex 0.526439 0.053280 -0.004485
    vertex 0.512265 0.166616 -0.004485
  endloop
endfacet
facet normal 0.000000 -0.000000 -0.015649
  outer loop
    vertex 0.471215 -0.150125 -0.004485
    vertex 0.567883 -0.288322 -0.004485
    vertex 0.439499 -0.266668 -0.004485
  endloop
endfacet
facet normal 0.000000 0.000000 -0.014460
  outer loop
    vertex -0.448549 -0.388455 -0.004485
    vertex -0.421498 -0.235042 -0.004485
    vertex -0.343609 -0.327868 -0.004485
  endloop
endfacet
facet normal 0.000000 0.000000 -0.015948
  outer loop
    vertex 0.146385 -0.441735 -0.004485
    vertex 0.124931 -0.273151 -0.004485
    vertex 0.228598 -0.344389 -0.004485
  endloop
endfacet
facet normal 0.000000 0.000000 -0.014460
  outer loop
    vertex -0.302164 -0.441735 -0.004485
    vertex -0.448549 -0.388455 -0.004485
    vertex -0.343609 -0.327868 -0.004485
  endloop
endfacet
facet normal 0.000000 -0.000000 -0.016983
  outer loop
    vertex 0.567883 0.288322 -0.004485
    vertex 0.645773 0.153413 -0.004485
    vertex 0.512265 0.166616 -0.004485
  endloop
endfacet
facet normal 0.000000 0.000000 -0.012348
  outer loop
    vertex 0.448549 -0.388455 -0.004485
    vertex 0.342412 -0.324579 -0.004485
    vertex 0.439499 -0.266668 -0.004485
  endloop
endfacet
facet normal 0.000000 0.000000 -0.014452
  outer loop
    vertex -0.645773 -0.153413 -0.004485
    vertex -0.672824 0.000000 -0.004485
    vertex -0.567149 -0.065048 -0.004485
  endloop
endfacet
facet normal -0.000000 0.000000 -0.014460
  outer loop
    vertex -0.421498 -0.235042 -0.004485
    vertex -0.567883 -0.288322 -0.004485
    vertex -0.526439 -0.174455 -0.004485
  endloop
endfacet
facet normal -0.000000 0.000000 -0.015440
  outer loop
    vertex 0.567883 -0.288322 -0.004485
    vertex 0.448549 -0.388455 -0.004485
    vertex 0.439499 -0.266668 -0.004485
  endloop
endfacet
facet normal 0.000000 0.000000 -0.016159
  outer loop
    vertex 0.645773 -0.153413 -0.004485
    vertex 0.471215 -0.150125 -0.004485
    vertex 0.560310 -0.059233 -0.004485
  endloop
endfacet
facet normal 0.000000 0.000000 -0.014460
  outer loop
    vertex -0.567883 -0.288322 -0.004485
    vertex -0.645773 -0.153413 -0.004485
    vertex -0.526439 -0.174455 -0.004485
  endloop
endfacet
facet normal 0.000000 0.000000 -0.015659
  outer loop
    vertex 0.672824 -0.000000 -0.004485
    vertex 0.645773 -0.153413 -0.004485
    vertex 0.560310 -0.059233 -0.004485
  endloop
endfacet
facet normal 0.000000 0.000000 -0.013959
  outer loop
    vertex -0.672824 0.000000 -0.004485
    vertex -0.533345 0.046240 -0.004485
    vertex -0.567149 -0.065048 -0.004485
  endloop
endfacet
facet normal -0.000000 0.000000 -0.016871
  outer loop
    vertex 0.124931 -0.273151 -0.004485
    vertex -0.000000 -0.388455 -0.004485
    vertex -0.012456 -0.264912 -0.004485
  endloop
endfacet
facet normal -0.000000 0.000000 -0.015016
  outer loop
    vertex -0.342728 -0.140652 -0.004485
    vertex -0.421498 -0.235042 -0.004485
    vertex -0.448423 -0.076673 -0.004485
  endloop
endfacet
facet normal 0.000000 0.000000 -0.015060
  outer loop
    vertex -0.421498 -0.235042 -0.004485
    vertex -0.342728 -0.140652 -0.004485
    vertex -0.260989 -0.233890 -0.004485
  endloop
endfacet
facet normal 0.000000 0.000000 -0.014988
  outer loop
    vertex -0.421498 -0.235042 -0.004485
    vertex -0.526439 -0.174455 -0.004485
    vertex -0.448423 -0.076673 -0.004485
  endloop
endfacet
facet normal 0.000000 0.000000 -0.014989
  outer loop
    vertex -0.343609 -0.327868 -0.004485
    vertex -0.421498 -0.235042 -0.004485
    vertex -0.260989 -0.233890 -0.004485
  endloop
endfacet
facet normal 0.000000 0.000000 -0.013606
  outer loop
    vertex -0.567149 -0.065048 -0.004485
    vertex -0.533345 0.046240 -0.004485
    vertex -0.448423 -0.076673 -0.004485
  endloop
endfacet
facet normal -0.000000 0.000000 -0.013831
  outer loop
    vertex -0.122489 -0.296535 -0.004485
    vertex -0.227369 -0.348956 -0.004485
    vertex -0.260989 -0.233890 -0.004485
  endloop
endfacet
facet normal 0.000000 -0.000000 -0.013468
  outer loop
    vertex -0.326605 -0.017427 -0.004485
    vertex -0.228432 -0.102408 -0.004485
    vertex -0.342728 -0.140652 -0.004485
  endloop
endfacet
facet normal 0.000000 0.000000 -0.022595
  outer loop
    vertex 0.176031 -0.110465 -0.004485
    vertex 0.325722 -0.058946 -0.004485
    vertex 0.301201 -0.218332 -0.004485
  endloop
endfacet
facet normal 0.000000 0.000000 -0.015019
  outer loop
    vertex -0.456673 0.197123 -0.004485
    vertex -0.319821 0.128483 -0.004485
    vertex -0.414078 0.066011 -0.004485
  endloop
endfacet
facet normal 0.000000 0.000000 -0.013988
  outer loop
    vertex -0.000000 -0.388455 -0.004485
    vertex -0.122489 -0.296535 -0.004485
    vertex -0.012456 -0.264912 -0.004485
  endloop
endfacet
facet normal -0.000000 0.000000 -0.013443
  outer loop
    vertex -0.012456 -0.264912 -0.004485
    vertex -0.122489 -0.296535 -0.004485
    vertex -0.126307 -0.175457 -0.004485
  endloop
endfacet
facet normal 0.000000 0.000000 -0.013329
  outer loop
    vertex -0.319821 0.128483 -0.004485
    vertex -0.326605 -0.017427 -0.004485
    vertex -0.414078 0.066011 -0.004485
  endloop
endfacet
facet normal 0.000000 0.000000 -0.014575
  outer loop
    vertex -0.228432 -0.102408 -0.004485
    vertex -0.084913 -0.062346 -0.004485
    vertex -0.126307 -0.175457 -0.004485
  endloop
endfacet
facet normal 0.000000 0.000000 -0.015806
  outer loop
    vertex -0.260989 -0.233890 -0.004485
    vertex -0.228432 -0.102408 -0.004485
    vertex -0.126307 -0.175457 -0.004485
  endloop
endfacet
facet normal -0.000000 0.000000 -0.015347
  outer loop
    vertex -0.326605 -0.017427 -0.004485
    vertex -0.448423 -0.076673 -0.004485
    vertex -0.414078 0.066011 -0.004485
  endloop
endfacet
facet normal 0.000000 -0.000000 -0.015816
  outer loop
    vertex 0.024918 -0.152034 -0.004485
    vertex 0.124931 -0.273151 -0.004485
    vertex -0.012456 -0.264912 -0.004485
  endloop
endfacet
facet normal 0.000000 0.000000 -0.012199
  outer loop
    vertex -0.526439 -0.174455 -0.004485
    vertex -0.645773 -0.153413 -0.004485
    vertex -0.567149 -0.065048 -0.004485
  endloop
endfacet
facet normal 0.000000 0.000000 -0.012362
  outer loop
    vertex -0.302164 -0.441735 -0.004485
    vertex -0.343609 -0.327868 -0.004485
    vertex -0.227369 -0.348956 -0.004485
  endloop
endfacet
facet normal -0.000000 0.000000 -0.012638
  outer loop
    vertex 0.560310 -0.059233 -0.004485
    vertex 0.471215 -0.150125 -0.004485
    vertex 0.453631 -0.026212 -0.004485
  endloop
endfacet
facet normal 0.000000 -0.000000 -0.010884
  outer loop
    vertex 0.526439 0.053280 -0.004485
    vertex 0.560310 -0.059233 -0.004485
    vertex 0.453631 -0.026212 -0.004485
  endloop
endfacet
facet normal 0.000000 0.000000 -0.014056
  outer loop
    vertex -0.326605 -0.017427 -0.004485
    vertex -0.342728 -0.140652 -0.004485
    vertex -0.448423 -0.076673 -0.004485
  endloop
endfacet
facet normal 0.000000 0.000000 -0.013783
  outer loop
    vertex -0.342728 -0.140652 -0.004485
    vertex -0.228432 -0.102408 -0.004485
    vertex -0.260989 -0.233890 -0.004485
  endloop
endfacet
facet normal 0.000000 0.000000 -0.012516
  outer loop
    vertex -0.526439 -0.174455 -0.004485
    vertex -0.567149 -0.065048 -0.004485
    vertex -0.448423 -0.076673 -0.004485
  endloop
endfacet
facet normal 0.000000 0.000000 -0.012666
  outer loop
    vertex -0.227369 -0.348956 -0.004485
    vertex -0.343609 -0.327868 -0.004485
    vertex -0.260989 -0.233890 -0.004485
  endloop
endfacet
facet normal -0.000239 0.000657 0.000000
  outer loop
    vertex 0.146385 0.441735 0.000000
    vertex -0.000000 0.388455 -0.004485
    vertex -0.000000 0.388455 0.000000
  endloop
endfacet
facet normal -0.000239 0.000657 0.000000
  outer loop
    vertex 0.146385 0.441735 -0.004485
    vertex -0.000000 0.388455 -0.004485
    vertex 0.146385 0.441735 0.000000
  endloop
endfacet
facet normal -0.000239 -0.000657 -0.000000
  outer loop
    vertex -0.000000 -0.388455 0.000000
    vertex -0.000000 -0.388455 -0.004485
    vertex 0.146385 -0.441735 0.000000
  endloop
endfacet
facet normal -0.000239 -0.000657 0.000000
  outer loop
    vertex -0.000000 -0.388455 -0.004485
    vertex 0.146385 -0.441735 -0.004485
    vertex 0.146385 -0.441735 0.000000
  endloop
endfacet
facet normal 0.000000 0.000699 -0.000000
  outer loop
    vertex 0.302164 0.441735 -0.004485
    vertex 0.146385 0.441735 -0.004485
    vertex 0.302164 0.441735 0.000000
  endloop
endfacet
facet normal 0.000000 0.000699 0.000000
  outer loop
    vertex 0.302164 0.441735 0.000000
    vertex 0.146385 0.441735 -0.004485
    vertex 0.146385 0.441735 0.000000
  endloop
endfacet
facet normal 0.000239 0.000657 -0.000000
  outer loop
    vertex 0.448549 0.388455 -0.004485
    vertex 0.302164 0.441735 -0.004485
    vertex 0.448549 0.388455 0.000000
  endloop
endfacet
facet normal 0.000239 0.000657 0.000000
  outer loop
    vertex 0.448549 0.388455 0.000000
    vertex 0.302164 0.441735 -0.004485
    vertex 0.302164 0.441735 0.000000
  endloop
endfacet
facet normal 0.000449 0.000535 -0.000000
  outer loop
    vertex 0.567883 0.288322 -0.004485
    vertex 0.448549 0.388455 -0.004485
    vertex 0.567883 0.288322 0.000000
  endloop
endfacet
facet normal 0.000449 0.000535 0.000000
  outer loop
    vertex 0.567883 0.288322 0.000000
    vertex 0.448549 0.388455 -0.004485
    vertex 0.448549 0.388455 0.000000
  endloop
endfacet
facet normal 0.000605 0.000349 0.000000
  outer loop
    vertex 0.645773 0.153413 -0.004485
    vertex 0.567883 0.288322 -0.004485
    vertex 0.567883 0.288322 0.000000
  endloop
endfacet
facet normal 0.000688 0.000121 0.000000
  outer loop
    vertex 0.672824 -0.000000 -0.004485
    vertex 0.645773 0.153413 -0.004485
    vertex 0.645773 0.153413 0.000000
  endloop
endfacet
facet normal 0.000605 0.000349 0.000000
  outer loop
    vertex 0.645773 0.153413 0.000000
    vertex 0.645773 0.153413 -0.004485
    vertex 0.567883 0.288322 0.000000
  endloop
endfacet
facet normal 0.000688 -0.000121 0.000000
  outer loop
    vertex 0.645773 -0.153413 -0.004485
    vertex 0.672824 -0.000000 -0.004485
    vertex 0.672824 -0.000000 0.000000
  endloop
endfacet
facet normal 0.000688 0.000121 0.000000
  outer loop
    vertex 0.672824 -0.000000 0.000000
    vertex 0.672824 -0.000000 -0.004485
    vertex 0.645773 0.153413 0.000000
  endloop
endfacet
facet normal 0.000605 -0.000349 0.000000
  outer loop
    vertex 0.567883 -0.288322 -0.004485
    vertex 0.645773 -0.153413 -0.004485
    vertex 0.567883 -0.288322 0.000000
  endloop
endfacet
facet normal 0.000688 -0.000121 0.000000
  outer loop
    vertex 0.645773 -0.153413 -0.004485
    vertex 0.672824 -0.000000 0.000000
    vertex 0.645773 -0.153413 0.000000
  endloop
endfacet
facet normal 0.000605 -0.000349 0.000000
  outer loop
    vertex 0.567883 -0.288322 0.000000
    vertex 0.645773 -0.153413 -0.004485
    vertex 0.645773 -0.153413 0.000000
  endloop
endfacet
facet normal 0.000449 -0.000535 0.000000
  outer loop
    vertex 0.448549 -0.388455 0.000000
    vertex 0.448549 -0.388455 -0.004485
    vertex 0.567883 -0.288322 -0.004485
  endloop
endfacet
facet normal 0.000449 -0.000535 0.000000
  outer loop
    vertex 0.448549 -0.388455 0.000000
    vertex 0.567883 -0.288322 -0.004485
    vertex 0.567883 -0.288322 0.000000
  endloop
endfacet
facet normal 0.000239 -0.000657 0.000000
  outer loop
    vertex 0.302164 -0.441735 -0.004485
    vertex 0.448549 -0.388455 -0.004485
    vertex 0.448549 -0.388455 0.000000
  endloop
endfacet
facet normal 0.000000 -0.000699 0.000000
  outer loop
    vertex 0.146385 -0.441735 -0.004485
    vertex 0.302164 -0.441735 -0.004485
    vertex 0.302164 -0.441735 0.000000
  endloop
endfacet
facet normal 0.000239 -0.000657 0.000000
  outer loop
    vertex 0.302164 -0.441735 0.000000
    vertex 0.302164 -0.441735 -0.004485
    vertex 0.448549 -0.388455 0.000000
  endloop
endfacet
facet normal 0.000000 -0.000699 0.000000
  outer loop
    vertex 0.146385 -0.441735 0.000000
    vertex 0.146385 -0.441735 -0.004485
    vertex 0.302164 -0.441735 0.000000
  endloop
endfacet
facet normal 0.000239 0.000657 0.000000
  outer loop
    vertex -0.000000 0.388455 0.000000
    vertex -0.000000 0.388455 -0.004485
    vertex -0.146385 0.441735 0.000000
  endloop
endfacet
facet normal 0.000239 0.000657 0.000000
  outer loop
    vertex -0.000000 0.388455 -0.004485
    vertex -0.146385 0.441735 -0.004485
    vertex -0.146385 0.441735 0.000000
  endloop
endfacet
facet normal 0.000239 -0.000657 0.000000
  outer loop
    vertex -0.146385 -0.441735 -0.004485
    vertex -0.000000 -0.388455 -0.004485
    vertex -0.000000 -0.388455 0.000000
  endloop
endfacet
facet normal 0.000239 -0.000657 0.000000
  outer loop
    vertex -0.146385 -0.441735 -0.004485
    vertex -0.000000 -0.388455 0.000000
    vertex -0.146385 -0.441735 0.000000
  endloop
endfacet
facet normal 0.000000 0.000699 -0.000000
  outer loop
    vertex -0.146385 0.441735 -0.004485
    vertex -0.302164 0.441735 -0.004485
    vertex -0.146385 0.441735 0.000000
  endloop
endfacet
facet normal -0.000239 0.000657 0.000000
  outer loop
    vertex -0.302164 0.441735 -0.004485
    vertex -0.448549 0.388455 -0.004485
    vertex -0.448549 0.388455 0.000000
  endloop
endfacet
facet normal 0.000000 0.000699 0.000000
  outer loop
    vertex -0.146385 0.441735 0.000000
    vertex -0.302164 0.441735 -0.004485
    vertex -0.302164 0.441735 0.000000
  endloop
endfacet
facet normal -0.000239 0.000657 0.000000
  outer loop
    vertex -0.302164 0.441735 0.000000
    vertex -0.302164 0.441735 -0.004485
    vertex -0.448549 0.388455 0.000000
  endloop
endfacet
facet normal -0.000449 0.000535 0.000000
  outer loop
    vertex -0.448549 0.388455 0.000000
    vertex -0.448549 0.388455 -0.004485
    vertex -0.567883 0.288322 -0.004485
  endloop
endfacet
facet normal -0.000605 0.000349 0.000000
  outer loop
    vertex -0.567883 0.288322 -0.004485
    vertex -0.645773 0.153413 -0.004485
    vertex -0.567883 0.288322 0.000000
  endloop
endfacet
facet normal -0.000449 0.000535 0.000000
  outer loop
    vertex -0.448549 0.388455 0.000000
    vertex -0.567883 0.288322 -0.004485
    vertex -0.567883 0.288322 0.000000
  endloop
endfacet
facet normal -0.000688 0.000121 0.000000
  outer loop
    vertex -0.645773 0.153413 -0.004485
    vertex -0.672824 0.000000 -0.004485
    vertex -0.672824 0.000000 0.000000
  endloop
endfacet
facet normal -0.000605 0.000349 0.000000
  outer loop
    vertex -0.567883 0.288322 0.000000
    vertex -0.645773 0.153413 -0.004485
    vertex -0.645773 0.153413 0.000000
  endloop
endfacet
facet normal -0.000688 0.000121 0.000000
  outer loop
    vertex -0.645773 0.153413 -0.004485
    vertex -0.672824 0.000000 0.000000
    vertex -0.645773 0.153413 0.000000
  endloop
endfacet
facet normal -0.000688 -0.000121 0.000000
  outer loop
    vertex -0.672824 0.000000 -0.004485
    vertex -0.645773 -0.153413 -0.004485
    vertex -0.645773 -0.153413 0.000000
  endloop
endfacet
facet normal -0.000688 -0.000121 -0.000000
  outer loop
    vertex -0.672824 0.000000 0.000000
    vertex -0.672824 0.000000 -0.004485
    vertex -0.645773 -0.153413 0.000000
  endloop
endfacet
facet normal -0.000605 -0.000349 0.000000
  outer loop
    vertex -0.645773 -0.153413 -0.004485
    vertex -0.567883 -0.288322 -0.004485
    vertex -0.645773 -0.153413 0.000000
  endloop
endfacet
facet normal -0.000449 -0.000535 0.000000
  outer loop
    vertex -0.567883 -0.288322 -0.004485
    vertex -0.448549 -0.388455 -0.004485
    vertex -0.448549 -0.388455 0.000000
  endloop
endfacet
facet normal -0.000605 -0.000349 0.000000
  outer loop
    vertex -0.645773 -0.153413 0.000000
    vertex -0.567883 -0.288322 -0.004485
    vertex -0.567883 -0.288322 0.000000
  endloop
endfacet
facet normal -0.000449 -0.000535 -0.000000
  outer loop
    vertex -0.567883 -0.288322 0.000000
    vertex -0.567883 -0.288322 -0.004485
    vertex -0.448549 -0.388455 0.000000
  endloop
endfacet
facet normal -0.000239 -0.000657 0.000000
  outer loop
    vertex -0.448549 -0.388455 -0.004485
    vertex -0.302164 -0.441735 -0.004485
    vertex -0.302164 -0.441735 0.000000
  endloop
endfacet
facet normal -0.000239 -0.000657 0.000000
  outer loop
    vertex -0.448549 -0.388455 -0.004485
    vertex -0.302164 -0.441735 0.000000
    vertex -0.448549 -0.388455 0.000000
  endloop
endfacet
facet normal 0.000000 -0.000699 0.000000
  outer loop
    vertex -0.302164 -0.441735 -0.004485
    vertex -0.146385 -0.441735 -0.004485
    vertex -0.146385 -0.441735 0.000000
  endloop
endfacet
facet normal 0.000000 -0.000699 0.000000
  outer loop
    vertex -0.302164 -0.441735 0.000000
    vertex -0.302164 -0.441735 -0.004485
    vertex -0.146385 -0.441735 0.000000
  endloop
endfacet
facet normal 0.000000 0.000000 0.028174
  outer loop
    vertex 0.126027 0.282402 0.000000
    vertex 0.305875 0.306082 0.000000
    vertex 0.146385 0.441735 0.000000
  endloop
endfacet
facet normal 0.000000 0.000000 0.025071
  outer loop
    vertex -0.000000 0.388455 0.000000
    vertex -0.172972 0.324150 0.000000
    vertex -0.034249 0.230782 0.000000
  endloop
endfacet
facet normal -0.000000 0.000000 0.021132
  outer loop
    vertex 0.146385 0.441735 0.000000
    vertex 0.305875 0.306082 0.000000
    vertex 0.302164 0.441735 0.000000
  endloop
endfacet
facet normal 0.000000 0.000000 0.018629
  outer loop
    vertex -0.146385 0.441735 0.000000
    vertex -0.172972 0.324150 0.000000
    vertex -0.000000 0.388455 0.000000
  endloop
endfacet
facet normal 0.000000 -0.000000 0.025181
  outer loop
    vertex -0.533345 0.046240 0.000000
    vertex -0.456673 0.197123 0.000000
    vertex -0.645773 0.153413 0.000000
  endloop
endfacet
facet normal 0.000000 -0.000000 0.018240
  outer loop
    vertex 0.228598 -0.344389 0.000000
    vertex 0.301201 -0.218332 0.000000
    vertex 0.124931 -0.273151 0.000000
  endloop
endfacet
facet normal 0.000000 0.000000 0.017651
  outer loop
    vertex 0.471215 -0.150125 0.000000
    vertex 0.301201 -0.218332 0.000000
    vertex 0.439499 -0.266668 0.000000
  endloop
endfacet
facet normal 0.000000 0.000000 0.025875
  outer loop
    vertex 0.124931 -0.273151 0.000000
    vertex 0.301201 -0.218332 0.000000
    vertex 0.176031 -0.110465 0.000000
  endloop
endfacet
facet normal 0.000000 0.000000 0.025425
  outer loop
    vertex 0.325722 -0.058946 0.000000
    vertex 0.301201 -0.218332 0.000000
    vertex 0.471215 -0.150125 0.000000
  endloop
endfacet
facet normal 0.000000 0.000000 0.022107
  outer loop
    vertex -0.645773 0.153413 0.000000
    vertex -0.456673 0.197123 0.000000
    vertex -0.567883 0.288322 0.000000
  endloop
endfacet
facet normal 0.000000 -0.000000 0.022010
  outer loop
    vertex -0.319821 0.128483 0.000000
    vertex -0.177263 0.180753 0.000000
    vertex -0.321859 0.282127 0.000000
  endloop
endfacet
facet normal -0.000000 0.000000 0.024163
  outer loop
    vertex 0.243722 0.185178 0.000000
    vertex 0.384470 0.083966 0.000000
    vertex 0.408412 0.238425 0.000000
  endloop
endfacet
facet normal 0.000000 0.000000 0.015655
  outer loop
    vertex 0.526439 0.053280 0.000000
    vertex 0.512265 0.166616 0.000000
    vertex 0.384470 0.083966 0.000000
  endloop
endfacet
facet normal 0.000000 0.000000 0.025104
  outer loop
    vertex -0.448549 0.388455 0.000000
    vertex -0.456673 0.197123 0.000000
    vertex -0.321859 0.282127 0.000000
  endloop
endfacet
facet normal -0.000000 0.000000 0.022019
  outer loop
    vertex -0.567883 0.288322 0.000000
    vertex -0.456673 0.197123 0.000000
    vertex -0.448549 0.388455 0.000000
  endloop
endfacet
facet normal 0.000000 0.000000 0.017760
  outer loop
    vertex 0.384470 0.083966 0.000000
    vertex 0.512265 0.166616 0.000000
    vertex 0.408412 0.238425 0.000000
  endloop
endfacet
facet normal 0.000000 -0.000000 0.020273
  outer loop
    vertex 0.243722 0.185178 0.000000
    vertex 0.305875 0.306082 0.000000
    vertex 0.126027 0.282402 0.000000
  endloop
endfacet
facet normal 0.000000 0.000000 0.020293
  outer loop
    vertex -0.034249 0.230782 0.000000
    vertex -0.172972 0.324150 0.000000
    vertex -0.177263 0.180753 0.000000
  endloop
endfacet
facet normal 0.000000 0.000000 0.022460
  outer loop
    vertex 0.176031 -0.110465 0.000000
    vertex 0.024918 -0.152034 0.000000
    vertex 0.124931 -0.273151 0.000000
  endloop
endfacet
facet normal 0.000000 -0.000000 0.021170
  outer loop
    vertex -0.177263 0.180753 0.000000
    vertex -0.172972 0.324150 0.000000
    vertex -0.321859 0.282127 0.000000
  endloop
endfacet
facet normal 0.000000 0.000000 0.016602
  outer loop
    vertex 0.408412 0.238425 0.000000
    vertex 0.305875 0.306082 0.000000
    vertex 0.243722 0.185178 0.000000
  endloop
endfacet
facet normal 0.000000 0.000000 0.012909
  outer loop
    vertex 0.342412 -0.324579 0.000000
    vertex 0.301201 -0.218332 0.000000
    vertex 0.228598 -0.344389 0.000000
  endloop
endfacet
facet normal 0.000000 0.000000 0.012702
  outer loop
    vertex 0.439499 -0.266668 0.000000
    vertex 0.301201 -0.218332 0.000000
    vertex 0.342412 -0.324579 0.000000
  endloop
endfacet
facet normal 0.000000 0.000000 0.016425
  outer loop
    vertex 0.471215 -0.150125 0.000000
    vertex 0.453631 -0.026212 0.000000
    vertex 0.325722 -0.058946 0.000000
  endloop
endfacet
facet normal 0.000000 0.000000 0.023503
  outer loop
    vertex -0.000000 0.388455 0.000000
    vertex -0.034249 0.230782 0.000000
    vertex 0.126027 0.282402 0.000000
  endloop
endfacet
facet normal -0.000000 0.000000 0.022239
  outer loop
    vertex -0.000000 0.388455 0.000000
    vertex 0.126027 0.282402 0.000000
    vertex 0.146385 0.441735 0.000000
  endloop
endfacet
facet normal 0.000000 0.000000 0.023535
  outer loop
    vertex 0.146385 -0.441735 0.000000
    vertex 0.124931 -0.273151 0.000000
    vertex -0.000000 -0.388455 0.000000
  endloop
endfacet
facet normal 0.000000 0.000000 0.019982
  outer loop
    vertex -0.000000 -0.388455 0.000000
    vertex -0.122489 -0.296535 0.000000
    vertex -0.146385 -0.441735 0.000000
  endloop
endfacet
facet normal 0.000000 0.000000 0.021923
  outer loop
    vertex 0.448549 0.388455 0.000000
    vertex 0.408412 0.238425 0.000000
    vertex 0.567883 0.288322 0.000000
  endloop
endfacet
facet normal 0.000000 0.000000 0.021016
  outer loop
    vertex 0.645773 0.153413 0.000000
    vertex 0.526439 0.053280 0.000000
    vertex 0.672824 -0.000000 0.000000
  endloop
endfacet
facet normal 0.000000 0.000000 0.023806
  outer loop
    vertex 0.645773 -0.153413 0.000000
    vertex 0.471215 -0.150125 0.000000
    vertex 0.567883 -0.288322 0.000000
  endloop
endfacet
facet normal 0.000000 0.000000 0.015005
  outer loop
    vertex 0.448549 -0.388455 0.000000
    vertex 0.342412 -0.324579 0.000000
    vertex 0.302164 -0.441735 0.000000
  endloop
endfacet
facet normal 0.000000 -0.000000 0.021016
  outer loop
    vertex -0.448549 -0.388455 0.000000
    vertex -0.421498 -0.235042 0.000000
    vertex -0.567883 -0.288322 0.000000
  endloop
endfacet
facet normal 0.000000 0.000000 0.019370
  outer loop
    vertex -0.055315 0.080636 0.000000
    vertex -0.201316 0.029757 0.000000
    vertex -0.084913 -0.062346 0.000000
  endloop
endfacet
facet normal 0.000000 0.000000 0.020056
  outer loop
    vertex -0.055315 0.080636 0.000000
    vertex -0.084913 -0.062346 0.000000
    vertex 0.064583 -0.017763 0.000000
  endloop
endfacet
facet normal 0.000000 0.000000 0.020822
  outer loop
    vertex -0.055315 0.080636 0.000000
    vertex -0.177263 0.180753 0.000000
    vertex -0.201316 0.029757 0.000000
  endloop
endfacet
facet normal 0.000000 -0.000000 0.020268
  outer loop
    vertex -0.201316 0.029757 0.000000
    vertex -0.177263 0.180753 0.000000
    vertex -0.319821 0.128483 0.000000
  endloop
endfacet
facet normal 0.000000 0.000000 0.020419
  outer loop
    vertex -0.034249 0.230782 0.000000
    vertex -0.177263 0.180753 0.000000
    vertex -0.055315 0.080636 0.000000
  endloop
endfacet
facet normal -0.000000 0.000000 0.022315
  outer loop
    vertex -0.448549 0.388455 0.000000
    vertex -0.321859 0.282127 0.000000
    vertex -0.302164 0.441735 0.000000
  endloop
endfacet
facet normal 0.000000 0.000000 0.020147
  outer loop
    vertex -0.672824 0.000000 0.000000
    vertex -0.533345 0.046240 0.000000
    vertex -0.645773 0.153413 0.000000
  endloop
endfacet
facet normal 0.000000 0.000000 0.017882
  outer loop
    vertex -0.201316 0.029757 0.000000
    vertex -0.228432 -0.102408 0.000000
    vertex -0.084913 -0.062346 0.000000
  endloop
endfacet
facet normal 0.000000 0.000000 0.017961
  outer loop
    vertex -0.201316 0.029757 0.000000
    vertex -0.319821 0.128483 0.000000
    vertex -0.326605 -0.017427 0.000000
  endloop
endfacet
facet normal 0.000000 0.000000 0.015279
  outer loop
    vertex -0.201316 0.029757 0.000000
    vertex -0.326605 -0.017427 0.000000
    vertex -0.228432 -0.102408 0.000000
  endloop
endfacet
facet normal 0.000000 0.000000 0.021041
  outer loop
    vertex -0.034249 0.230782 0.000000
    vertex -0.055315 0.080636 0.000000
    vertex 0.092199 0.133212 0.000000
  endloop
endfacet
facet normal -0.000000 0.000000 0.020819
  outer loop
    vertex -0.055315 0.080636 0.000000
    vertex 0.064583 -0.017763 0.000000
    vertex 0.092199 0.133212 0.000000
  endloop
endfacet
facet normal -0.000000 0.000000 0.022165
  outer loop
    vertex -0.034249 0.230782 0.000000
    vertex 0.092199 0.133212 0.000000
    vertex 0.126027 0.282402 0.000000
  endloop
endfacet
facet normal 0.000000 0.000000 0.019908
  outer loop
    vertex 0.176031 -0.110465 0.000000
    vertex 0.325722 -0.058946 0.000000
    vertex 0.211617 0.034776 0.000000
  endloop
endfacet
facet normal 0.000000 0.000000 0.020848
  outer loop
    vertex 0.092199 0.133212 0.000000
    vertex 0.243722 0.185178 0.000000
    vertex 0.126027 0.282402 0.000000
  endloop
endfacet
facet normal -0.000000 0.000000 0.019486
  outer loop
    vertex 0.064583 -0.017763 0.000000
    vertex 0.176031 -0.110465 0.000000
    vertex 0.211617 0.034776 0.000000
  endloop
endfacet
facet normal 0.000000 0.000000 0.020748
  outer loop
    vertex 0.064583 -0.017763 0.000000
    vertex 0.211617 0.034776 0.000000
    vertex 0.092199 0.133212 0.000000
  endloop
endfacet
facet normal -0.000000 0.000000 0.021121
  outer loop
    vertex 0.092199 0.133212 0.000000
    vertex 0.211617 0.034776 0.000000
    vertex 0.243722 0.185178 0.000000
  endloop
endfacet
facet normal 0.000000 -0.000000 0.021813
  outer loop
    vertex 0.325722 -0.058946 0.000000
    vertex 0.384470 0.083966 0.000000
    vertex 0.211617 0.034776 0.000000
  endloop
endfacet
facet normal 0.000000 0.000000 0.024418
  outer loop
    vertex 0.211617 0.034776 0.000000
    vertex 0.384470 0.083966 0.000000
    vertex 0.243722 0.185178 0.000000
  endloop
endfacet
facet normal 0.000000 0.000000 0.013520
  outer loop
    vertex 0.384470 0.083966 0.000000
    vertex 0.453631 -0.026212 0.000000
    vertex 0.526439 0.053280 0.000000
  endloop
endfacet
facet normal 0.000000 0.000000 0.018641
  outer loop
    vertex 0.064583 -0.017763 0.000000
    vertex 0.024918 -0.152034 0.000000
    vertex 0.176031 -0.110465 0.000000
  endloop
endfacet
facet normal -0.000000 0.000000 0.018317
  outer loop
    vertex -0.302164 0.441735 0.000000
    vertex -0.172972 0.324150 0.000000
    vertex -0.146385 0.441735 0.000000
  endloop
endfacet
facet normal 0.000000 0.000000 0.022936
  outer loop
    vertex -0.321859 0.282127 0.000000
    vertex -0.172972 0.324150 0.000000
    vertex -0.302164 0.441735 0.000000
  endloop
endfacet
facet normal 0.000000 0.000000 0.018099
  outer loop
    vertex 0.448549 0.388455 0.000000
    vertex 0.305875 0.306082 0.000000
    vertex 0.408412 0.238425 0.000000
  endloop
endfacet
facet normal 0.000000 0.000000 0.019660
  outer loop
    vertex 0.302164 0.441735 0.000000
    vertex 0.305875 0.306082 0.000000
    vertex 0.448549 0.388455 0.000000
  endloop
endfacet
facet normal 0.000000 0.000000 0.020887
  outer loop
    vertex -0.321859 0.282127 0.000000
    vertex -0.456673 0.197123 0.000000
    vertex -0.319821 0.128483 0.000000
  endloop
endfacet
facet normal -0.000000 0.000000 0.018305
  outer loop
    vertex -0.084913 -0.062346 0.000000
    vertex 0.024918 -0.152034 0.000000
    vertex 0.064583 -0.017763 0.000000
  endloop
endfacet
facet normal 0.000000 0.000000 0.016195
  outer loop
    vertex 0.024918 -0.152034 0.000000
    vertex -0.126307 -0.175457 0.000000
    vertex -0.012456 -0.264912 0.000000
  endloop
endfacet
facet normal 0.000000 0.000000 0.016357
  outer loop
    vertex 0.325722 -0.058946 0.000000
    vertex 0.453631 -0.026212 0.000000
    vertex 0.384470 0.083966 0.000000
  endloop
endfacet
facet normal 0.000000 0.000000 0.016479
  outer loop
    vertex -0.533345 0.046240 0.000000
    vertex -0.414078 0.066011 0.000000
    vertex -0.456673 0.197123 0.000000
  endloop
endfacet
facet normal 0.000000 0.000000 0.016136
  outer loop
    vertex -0.084913 -0.062346 0.000000
    vertex -0.126307 -0.175457 0.000000
    vertex 0.024918 -0.152034 0.000000
  endloop
endfacet
facet normal 0.000000 0.000000 0.016530
  outer loop
    vertex -0.122489 -0.296535 0.000000
    vertex -0.126307 -0.175457 0.000000
    vertex -0.260989 -0.233890 0.000000
  endloop
endfacet
facet normal 0.000000 -0.000000 0.016338
  outer loop
    vertex -0.448423 -0.076673 0.000000
    vertex -0.414078 0.066011 0.000000
    vertex -0.533345 0.046240 0.000000
  endloop
endfacet
facet normal 0.000000 0.000000 0.013976
  outer loop
    vertex -0.122489 -0.296535 0.000000
    vertex -0.227369 -0.348956 0.000000
    vertex -0.146385 -0.441735 0.000000
  endloop
endfacet
facet normal 0.000000 0.000000 0.014453
  outer loop
    vertex -0.146385 -0.441735 0.000000
    vertex -0.227369 -0.348956 0.000000
    vertex -0.302164 -0.441735 0.000000
  endloop
endfacet
facet normal -0.000000 0.000000 0.016633
  outer loop
    vertex 0.408412 0.238425 0.000000
    vertex 0.512265 0.166616 0.000000
    vertex 0.567883 0.288322 0.000000
  endloop
endfacet
facet normal 0.000000 0.000000 0.014944
  outer loop
    vertex 0.645773 0.153413 0.000000
    vertex 0.512265 0.166616 0.000000
    vertex 0.526439 0.053280 0.000000
  endloop
endfacet
facet normal 0.000000 0.000000 0.012537
  outer loop
    vertex 0.342412 -0.324579 0.000000
    vertex 0.228598 -0.344389 0.000000
    vertex 0.302164 -0.441735 0.000000
  endloop
endfacet
facet normal -0.000000 0.000000 0.013959
  outer loop
    vertex -0.672824 0.000000 0.000000
    vertex -0.567149 -0.065048 0.000000
    vertex -0.533345 0.046240 0.000000
  endloop
endfacet
facet normal 0.000000 0.000000 0.014460
  outer loop
    vertex -0.448549 -0.388455 0.000000
    vertex -0.343609 -0.327868 0.000000
    vertex -0.421498 -0.235042 0.000000
  endloop
endfacet
facet normal 0.000000 0.000000 0.014666
  outer loop
    vertex 0.526439 0.053280 0.000000
    vertex 0.560310 -0.059233 0.000000
    vertex 0.672824 -0.000000 0.000000
  endloop
endfacet
facet normal 0.000000 0.000000 0.015164
  outer loop
    vertex 0.302164 -0.441735 0.000000
    vertex 0.228598 -0.344389 0.000000
    vertex 0.146385 -0.441735 0.000000
  endloop
endfacet
facet normal 0.000000 -0.000000 0.015948
  outer loop
    vertex 0.146385 -0.441735 0.000000
    vertex 0.228598 -0.344389 0.000000
    vertex 0.124931 -0.273151 0.000000
  endloop
endfacet
facet normal 0.000000 -0.000000 0.014460
  outer loop
    vertex -0.567883 -0.288322 0.000000
    vertex -0.526439 -0.174455 0.000000
    vertex -0.645773 -0.153413 0.000000
  endloop
endfacet
facet normal 0.000000 0.000000 0.014460
  outer loop
    vertex -0.302164 -0.441735 0.000000
    vertex -0.343609 -0.327868 0.000000
    vertex -0.448549 -0.388455 0.000000
  endloop
endfacet
facet normal 0.000000 0.000000 0.015649
  outer loop
    vertex 0.471215 -0.150125 0.000000
    vertex 0.439499 -0.266668 0.000000
    vertex 0.567883 -0.288322 0.000000
  endloop
endfacet
facet normal 0.000000 0.000000 0.014460
  outer loop
    vertex -0.421498 -0.235042 0.000000
    vertex -0.526439 -0.174455 0.000000
    vertex -0.567883 -0.288322 0.000000
  endloop
endfacet
facet normal 0.000000 0.000000 0.016983
  outer loop
    vertex 0.567883 0.288322 0.000000
    vertex 0.512265 0.166616 0.000000
    vertex 0.645773 0.153413 0.000000
  endloop
endfacet
facet normal 0.000000 0.000000 0.012348
  outer loop
    vertex 0.448549 -0.388455 0.000000
    vertex 0.439499 -0.266668 0.000000
    vertex 0.342412 -0.324579 0.000000
  endloop
endfacet
facet normal 0.000000 -0.000000 0.014452
  outer loop
    vertex -0.645773 -0.153413 0.000000
    vertex -0.567149 -0.065048 0.000000
    vertex -0.672824 0.000000 0.000000
  endloop
endfacet
facet normal 0.000000 0.000000 0.015659
  outer loop
    vertex 0.672824 -0.000000 0.000000
    vertex 0.560310 -0.059233 0.000000
    vertex 0.645773 -0.153413 0.000000
  endloop
endfacet
facet normal 0.000000 0.000000 0.016159
  outer loop
    vertex 0.645773 -0.153413 0.000000
    vertex 0.560310 -0.059233 0.000000
    vertex 0.471215 -0.150125 0.000000
  endloop
endfacet
facet normal 0.000000 0.000000 0.015440
  outer loop
    vertex 0.567883 -0.288322 0.000000
    vertex 0.439499 -0.266668 0.000000
    vertex 0.448549 -0.388455 0.000000
  endloop
endfacet
facet normal 0.000000 0.000000 0.016871
  outer loop
    vertex 0.124931 -0.273151 0.000000
    vertex -0.012456 -0.264912 0.000000
    vertex -0.000000 -0.388455 0.000000
  endloop
endfacet
facet normal 0.000000 0.000000 0.015016
  outer loop
    vertex -0.342728 -0.140652 0.000000
    vertex -0.448423 -0.076673 0.000000
    vertex -0.421498 -0.235042 0.000000
  endloop
endfacet
facet normal 0.000000 0.000000 0.015060
  outer loop
    vertex -0.421498 -0.235042 0.000000
    vertex -0.260989 -0.233890 0.000000
    vertex -0.342728 -0.140652 0.000000
  endloop
endfacet
facet normal 0.000000 0.000000 0.014988
  outer loop
    vertex -0.421498 -0.235042 0.000000
    vertex -0.448423 -0.076673 0.000000
    vertex -0.526439 -0.174455 0.000000
  endloop
endfacet
facet normal -0.000000 0.000000 0.013606
  outer loop
    vertex -0.567149 -0.065048 0.000000
    vertex -0.448423 -0.076673 0.000000
    vertex -0.533345 0.046240 0.000000
  endloop
endfacet
facet normal 0.000000 -0.000000 0.014989
  outer loop
    vertex -0.343609 -0.327868 0.000000
    vertex -0.260989 -0.233890 0.000000
    vertex -0.421498 -0.235042 0.000000
  endloop
endfacet
facet normal 0.000000 0.000000 0.013831
  outer loop
    vertex -0.122489 -0.296535 0.000000
    vertex -0.260989 -0.233890 0.000000
    vertex -0.227369 -0.348956 0.000000
  endloop
endfacet
facet normal 0.000000 0.000000 0.013468
  outer loop
    vertex -0.326605 -0.017427 0.000000
    vertex -0.342728 -0.140652 0.000000
    vertex -0.228432 -0.102408 0.000000
  endloop
endfacet
facet normal -0.000000 0.000000 0.022595
  outer loop
    vertex 0.176031 -0.110465 0.000000
    vertex 0.301201 -0.218332 0.000000
    vertex 0.325722 -0.058946 0.000000
  endloop
endfacet
facet normal 0.000000 0.000000 0.015019
  outer loop
    vertex -0.456673 0.197123 0.000000
    vertex -0.414078 0.066011 0.000000
    vertex -0.319821 0.128483 0.000000
  endloop
endfacet
facet normal 0.000000 0.000000 0.013988
  outer loop
    vertex -0.000000 -0.388455 0.000000
    vertex -0.012456 -0.264912 0.000000
    vertex -0.122489 -0.296535 0.000000
  endloop
endfacet
facet normal 0.000000 0.000000 0.013443
  outer loop
    vertex -0.012456 -0.264912 0.000000
    vertex -0.126307 -0.175457 0.000000
    vertex -0.122489 -0.296535 0.000000
  endloop
endfacet
facet normal 0.000000 0.000000 0.013329
  outer loop
    vertex -0.319821 0.128483 0.000000
    vertex -0.414078 0.066011 0.000000
    vertex -0.326605 -0.017427 0.000000
  endloop
endfacet
facet normal -0.000000 0.000000 0.014575
  outer loop
    vertex -0.228432 -0.102408 0.000000
    vertex -0.126307 -0.175457 0.000000
    vertex -0.084913 -0.062346 0.000000
  endloop
endfacet
facet normal 0.000000 0.000000 0.015806
  outer loop
    vertex -0.260989 -0.233890 0.000000
    vertex -0.126307 -0.175457 0.000000
    vertex -0.228432 -0.102408 0.000000
  endloop
endfacet
facet normal 0.000000 0.000000 0.015347
  outer loop
    vertex -0.326605 -0.017427 0.000000
    vertex -0.414078 0.066011 0.000000
    vertex -0.448423 -0.076673 0.000000
  endloop
endfacet
facet normal 0.000000 0.000000 0.015816
  outer loop
    vertex 0.024918 -0.152034 0.000000
    vertex -0.012456 -0.264912 0.000000
    vertex 0.124931 -0.273151 0.000000
  endloop
endfacet
facet normal -0.000000 0.000000 0.012199
  outer loop
    vertex -0.645773 -0.153413 0.000000
    vertex -0.526439 -0.174455 0.000000
    vertex -0.567149 -0.065048 0.000000
  endloop
endfacet
facet normal 0.000000 -0.000000 0.012362
  outer loop
    vertex -0.302164 -0.441735 0.000000
    vertex -0.227369 -0.348956 0.000000
    vertex -0.343609 -0.327868 0.000000
  endloop
endfacet
facet normal 0.000000 0.000000 0.012638
  outer loop
    vertex 0.560310 -0.059233 0.000000
    vertex 0.453631 -0.026212 0.000000
    vertex 0.471215 -0.150125 0.000000
  endloop
endfacet
facet normal 0.000000 0.000000 0.010884
  outer loop
    vertex 0.526439 0.053280 0.000000
    vertex 0.453631 -0.026212 0.000000
    vertex 0.560310 -0.059233 0.000000
  endloop
endfacet
facet normal 0.000000 0.000000 0.014056
  outer loop
    vertex -0.326605 -0.017427 0.000000
    vertex -0.448423 -0.076673 0.000000
    vertex -0.342728 -0.140652 0.000000
  endloop
endfacet
facet normal -0.000000 0.000000 0.013783
  outer loop
    vertex -0.342728 -0.140652 0.000000
    vertex -0.260989 -0.233890 0.000000
    vertex -0.228432 -0.102408 0.000000
  endloop
endfacet
facet normal 0.000000 -0.000000 0.012516
  outer loop
    vertex -0.526439 -0.174455 0.000000
    vertex -0.448423 -0.076673 0.000000
    vertex -0.567149 -0.065048 0.000000
  endloop
endfacet
facet normal 0.000000 0.000000 0.012666
  outer loop
    vertex -0.227369 -0.348956 0.000000
    vertex -0.260989 -0.233890 0.000000
    vertex -0.343609 -0.327868 0.000000
  endloop
endfacet
endsolid double_circle.stl
