solid Created by Gmsh
facet normal 0.291563 0.331326 0.897337
  outer loop
    vertex 1.293892626146237 -7.19829327805997e-17 0.4045084971874736
    vertex 1.050810767566315 0.3486692305155606 0.3547506639754305
    vertex 1 0 0.5
  endloop
endfacet
facet normal 0.303531 -0.187592 0.934172
  outer loop
    vertex 1 0 0.5
    vertex 1.131432778036404 -0.2628655560689395 0.4045084971792319
    vertex 1.293892626146237 -7.19829327805997e-17 0.4045084971874736
  endloop
endfacet
facet normal -0.0851002 0.393696 0.915293
  outer loop
    vertex 1.050810767566315 0.3486692305155606 0.3547506639754305
    vertex 0.7684173603402161 0.1218697838711161 0.4260483972360584
    vertex 1 0 0.5
  endloop
endfacet
facet normal -0.0391634 -0.358419 0.932739
  outer loop
    vertex 1 0 0.5
    vertex 0.8044341924953511 -0.1944092392869864 0.4170839994712214
    vertex 1.131432778036404 -0.2628655560689395 0.4045084971792319
  endloop
endfacet
facet normal -0.334306 -0.0647192 0.94024
  outer loop
    vertex 1 0 0.5
    vertex 0.7684173603402161 0.1218697838711161 0.4260483972360584
    vertex 0.8044341924953511 -0.1944092392869864 0.4170839994712214
  endloop
endfacet
facet normal 0.303531 -0.187592 -0.934172
  outer loop
    vertex 1.293892626146237 -7.198293278059974e-17 -0.4045084971874735
    vertex 1.131432778029739 -0.262865556059394 -0.4045084971876005
    vertex 1 0 -0.5
  endloop
endfacet
facet normal 0.301485 0.219442 -0.927875
  outer loop
    vertex 1 0 -0.5
    vertex 1.190366855990796 0.272098928732214 -0.373794907834445
    vertex 1.293892626146237 -7.198293278059974e-17 -0.4045084971874735
  endloop
endfacet
facet normal -0.00620436 -0.344172 -0.938886
  outer loop
    vertex 1.131432778029739 -0.262865556059394 -0.4045084971876005
    vertex 0.8261603574436519 -0.1422832916802363 -0.4466936798125959
    vertex 1 0 -0.5
  endloop
endfacet
facet normal -0.421325 0.1819 -0.888481
  outer loop
    vertex 1 0 -0.5
    vertex 0.8261603574436519 -0.1422832916802363 -0.4466936798125959
    vertex 0.9407866247913445 0.2700060759678049 -0.4166419267630983
  endloop
endfacet
facet normal 0.157521 0.322682 -0.933308
  outer loop
    vertex 0.9407866247913445 0.2700060759678049 -0.4166419267630983
    vertex 1.190366855990796 0.272098928732214 -0.373794907834445
    vertex 1 0 -0.5
  endloop
endfacet
facet normal 0.794654 0.187592 -0.57735
  outer loop
    vertex 1.293892626146237 -7.198293278059974e-17 -0.4045084971874735
    vertex 1.344095480117794 0.2628655560595669 -0.2499999999999996
    vertex 1.475528258147577 -1.164708318489093e-16 -0.1545084971874734
  endloop
endfacet
facet normal 0.804628 -0.104025 -0.584596
  outer loop
    vertex 1.475528258147577 -1.164708318489093e-16 -0.1545084971874734
    vertex 1.366894136225971 -0.2105521875608571 -0.2665641932374572
    vertex 1.293892626146237 -7.198293278059974e-17 -0.4045084971874735
  endloop
endfacet
facet normal 0.606956 0.313368 -0.730346
  outer loop
    vertex 1.293892626146237 -7.198293278059974e-17 -0.4045084971874735
    vertex 1.190366855990796 0.272098928732214 -0.373794907834445
    vertex 1.344095480117794 0.2628655560595669 -0.2499999999999996
  endloop
endfacet
facet normal 0.530717 -0.328001 -0.781508
  outer loop
    vertex 1.293892626146237 -7.198293278059974e-17 -0.4045084971874735
    vertex 1.366894136225971 -0.2105521875608571 -0.2665641932374572
    vertex 1.131432778029739 -0.262865556059394 -0.4045084971876005
  endloop
endfacet
facet normal 0.98499 0.172612 -2.75404e-32
  outer loop
    vertex 1.475528258147577 -1.164708318489093e-16 -0.1545084971874734
    vertex 1.43161450673565 0.2505882928440614 0.03023946204615546
    vertex 1.475528258147577 -1.164708318489092e-16 0.154508497187474
  endloop
endfacet
facet normal 0.982247 -0.187592 2.99305e-32
  outer loop
    vertex 1.475528258147577 -1.164708318489092e-16 0.154508497187474
    vertex 1.425325404173084 -0.2628655560643178 3.053113320702586e-16
    vertex 1.475528258147577 -1.164708318489093e-16 -0.1545084971874734
  endloop
endfacet
facet normal 0.89753 0.352551 -0.264854
  outer loop
    vertex 1.344095480117794 0.2628655560595669 -0.2499999999999996
    vertex 1.43161450673565 0.2505882928440614 0.03023946204615546
    vertex 1.475528258147577 -1.164708318489093e-16 -0.1545084971874734
  endloop
endfacet
facet normal 0.907259 -0.328001 -0.263243
  outer loop
    vertex 1.425325404173084 -0.2628655560643178 3.053113320702586e-16
    vertex 1.366894136225971 -0.2105521875608571 -0.2665641932374572
    vertex 1.475528258147577 -1.164708318489093e-16 -0.1545084971874734
  endloop
endfacet
facet normal 0.795727 0.180512 0.57813
  outer loop
    vertex 1.475528258147577 -1.164708318489092e-16 0.154508497187474
    vertex 1.363925102081108 0.2558757058903625 0.2282238883429246
    vertex 1.293892626146237 -7.19829327805997e-17 0.4045084971874736
  endloop
endfacet
facet normal 0.799986 -0.148998 0.581224
  outer loop
    vertex 1.293892626146237 -7.19829327805997e-17 0.4045084971874736
    vertex 1.347450046419948 -0.2375627092785227 0.2698933574636918
    vertex 1.475528258147577 -1.164708318489092e-16 0.154508497187474
  endloop
endfacet
facet normal 0.902936 0.307254 0.300502
  outer loop
    vertex 1.475528258147577 -1.164708318489092e-16 0.154508497187474
    vertex 1.43161450673565 0.2505882928440614 0.03023946204615546
    vertex 1.363925102081108 0.2558757058903625 0.2282238883429246
  endloop
endfacet
facet normal 0.894138 -0.341214 0.289985
  outer loop
    vertex 1.475528258147577 -1.164708318489092e-16 0.154508497187474
    vertex 1.347450046419948 -0.2375627092785227 0.2698933574636918
    vertex 1.425325404173084 -0.2628655560643178 3.053113320702586e-16
  endloop
endfacet
facet normal 0.444418 0.42256 0.789896
  outer loop
    vertex 1.363925102081108 0.2558757058903625 0.2282238883429246
    vertex 1.050810767566315 0.3486692305155606 0.3547506639754305
    vertex 1.293892626146237 -7.19829327805997e-17 0.4045084971874736
  endloop
endfacet
facet normal 0.527215 -0.325837 0.784777
  outer loop
    vertex 1.131432778036404 -0.2628655560689395 0.4045084971792319
    vertex 1.347450046419948 -0.2375627092785227 0.2698933574636918
    vertex 1.293892626146237 -7.19829327805997e-17 0.4045084971874736
  endloop
endfacet
facet normal 0.684682 0.696256 0.215493
  outer loop
    vertex 1.43161450673565 0.2505882928440614 0.03023946204615546
    vertex 1.229728758165028 0.4401223289663445 0.05930458006929049
    vertex 1.363925102081108 0.2558757058903625 0.2282238883429246
  endloop
endfacet
facet normal 0.424163 0.760167 0.492171
  outer loop
    vertex 1.229728758165028 0.4401223289663445 0.05930458006929049
    vertex 1.050810767566315 0.3486692305155606 0.3547506639754305
    vertex 1.363925102081108 0.2558757058903625 0.2282238883429246
  endloop
endfacet
facet normal 0.660523 0.730296 -0.174288
  outer loop
    vertex 1.344095480117794 0.2628655560595669 -0.2499999999999996
    vertex 1.229728758165028 0.4401223289663445 0.05930458006929049
    vertex 1.43161450673565 0.2505882928440614 0.03023946204615546
  endloop
endfacet
facet normal 0.497787 0.819027 -0.285311
  outer loop
    vertex 1.344095480117794 0.2628655560595669 -0.2499999999999996
    vertex 1.059438034798564 0.449679294837984 -0.2103702731216988
    vertex 1.229728758165028 0.4401223289663445 0.05930458006929049
  endloop
endfacet
facet normal 0.433202 0.762151 -0.481105
  outer loop
    vertex 1.344095480117794 0.2628655560595669 -0.2499999999999996
    vertex 1.190366855990796 0.272098928732214 -0.373794907834445
    vertex 1.059438034798564 0.449679294837984 -0.2103702731216988
  endloop
endfacet
facet normal 0.137046 0.989226 -0.0514831
  outer loop
    vertex 1.059438034798564 0.449679294837984 -0.2103702731216988
    vertex 0.9068541231798924 0.485623888649359 0.07411669450595042
    vertex 1.229728758165028 0.4401223289663445 0.05930458006929049
  endloop
endfacet
facet normal 0.146242 0.916532 0.372267
  outer loop
    vertex 1.229728758165028 0.4401223289663445 0.05930458006929049
    vertex 0.9068541231798924 0.485623888649359 0.07411669450595042
    vertex 1.050810767566315 0.3486692305155606 0.3547506639754305
  endloop
endfacet
facet normal -0.193173 0.955184 -0.224294
  outer loop
    vertex 1.059438034798564 0.449679294837984 -0.2103702731216988
    vertex 0.7606704599071993 0.3924681166737549 -0.1966981154803583
    vertex 0.9068541231798924 0.485623888649359 0.07411669450595042
  endloop
endfacet
facet normal -0.178182 0.790454 -0.586032
  outer loop
    vertex 1.059438034798564 0.449679294837984 -0.2103702731216988
    vertex 0.9407866247913445 0.2700060759678049 -0.4166419267630983
    vertex 0.7606704599071993 0.3924681166737549 -0.1966981154803583
  endloop
endfacet
facet normal 0.112206 0.716423 -0.688584
  outer loop
    vertex 1.059438034798564 0.449679294837984 -0.2103702731216988
    vertex 1.190366855990796 0.272098928732214 -0.373794907834445
    vertex 0.9407866247913445 0.2700060759678049 -0.4166419267630983
  endloop
endfacet
facet normal -0.119876 0.866592 0.484406
  outer loop
    vertex 0.9068541231798924 0.485623888649359 0.07411669450595042
    vertex 0.7987841763223908 0.3421437218870757 0.3040556953503761
    vertex 1.050810767566315 0.3486692305155606 0.3547506639754305
  endloop
endfacet
facet normal -0.183602 0.495497 0.848983
  outer loop
    vertex 0.7987841763223908 0.3421437218870757 0.3040556953503761
    vertex 0.7684173603402161 0.1218697838711161 0.4260483972360584
    vertex 1.050810767566315 0.3486692305155606 0.3547506639754305
  endloop
endfacet
facet normal -0.4949 0.868377 -0.0315643
  outer loop
    vertex 0.7606704599071993 0.3924681166737549 -0.1966981154803583
    vertex 0.6310482432605483 0.3285442396448904 0.07702781182815245
    vertex 0.9068541231798924 0.485623888649359 0.07411669450595042
  endloop
endfacet
facet normal -0.470105 0.830941 0.297554
  outer loop
    vertex 0.6310482432605483 0.3285442396448904 0.07702781182815245
    vertex 0.7987841763223908 0.3421437218870757 0.3040556953503761
    vertex 0.9068541231798924 0.485623888649359 0.07411669450595042
  endloop
endfacet
facet normal -0.749104 0.629002 -0.207844
  outer loop
    vertex 0.7606704599071993 0.3924681166737549 -0.1966981154803583
    vertex 0.5584900873537672 0.1599350491257943 -0.1717258777710733
    vertex 0.6310482432605483 0.3285442396448904 0.07702781182815245
  endloop
endfacet
facet normal -0.691695 0.55131 -0.466492
  outer loop
    vertex 0.7606704599071993 0.3924681166737549 -0.1966981154803583
    vertex 0.6958683442272451 0.1770673956337807 -0.3551775237263652
    vertex 0.5584900873537672 0.1599350491257943 -0.1717258777710733
  endloop
endfacet
facet normal -0.40378 0.617869 -0.674685
  outer loop
    vertex 0.9407866247913445 0.2700060759678049 -0.4166419267630983
    vertex 0.6958683442272451 0.1770673956337807 -0.3551775237263652
    vertex 0.7606704599071993 0.3924681166737549 -0.1966981154803583
  endloop
endfacet
facet normal -0.921209 0.389035 0.00501062
  outer loop
    vertex 0.5584900873537672 0.1599350491257943 -0.1717258777710733
    vertex 0.5127675949268142 0.04814910380180294 0.1014211380811824
    vertex 0.6310482432605483 0.3285442396448904 0.07702781182815245
  endloop
endfacet
facet normal -0.882706 0.394562 0.255248
  outer loop
    vertex 0.5127675949268142 0.04814910380180294 0.1014211380811824
    vertex 0.6229201775469045 0.1844713384547674 0.2716268263398309
    vertex 0.6310482432605483 0.3285442396448904 0.07702781182815245
  endloop
endfacet
facet normal -0.643566 0.627758 0.437885
  outer loop
    vertex 0.6310482432605483 0.3285442396448904 0.07702781182815245
    vertex 0.6229201775469045 0.1844713384547674 0.2716268263398309
    vertex 0.7987841763223908 0.3421437218870757 0.3040556953503761
  endloop
endfacet
facet normal -0.988024 0.0399386 -0.149042
  outer loop
    vertex 0.5584900873537672 0.1599350491257943 -0.1717258777710733
    vertex 0.5399512778698057 -0.1458007542348179 -0.1307566951667619
    vertex 0.5127675949268142 0.04814910380180294 0.1014211380811824
  endloop
endfacet
facet normal -0.898803 -0.004237 -0.438333
  outer loop
    vertex 0.5584900873537672 0.1599350491257943 -0.1717258777710733
    vertex 0.6473499982915761 -0.04177937956370418 -0.3519836072011317
    vertex 0.5399512778698057 -0.1458007542348179 -0.1307566951667619
  endloop
endfacet
facet normal -0.796517 0.168112 -0.580774
  outer loop
    vertex 0.5584900873537672 0.1599350491257943 -0.1717258777710733
    vertex 0.6958683442272451 0.1770673956337807 -0.3551775237263652
    vertex 0.6473499982915761 -0.04177937956370418 -0.3519836072011317
  endloop
endfacet
facet normal -0.963198 -0.250787 0.0967222
  outer loop
    vertex 0.5399512778698057 -0.1458007542348179 -0.1307566951667619
    vertex 0.5959004224134066 -0.2506734680201584 0.1544873581400219
    vertex 0.5127675949268142 0.04814910380180294 0.1014211380811824
  endloop
endfacet
facet normal -0.909861 -0.187385 0.37019
  outer loop
    vertex 0.5959004224134066 -0.2506734680201584 0.1544873581400219
    vertex 0.6191386577346698 -0.03181540181693572 0.3223855117325807
    vertex 0.5127675949268142 0.04814910380180294 0.1014211380811824
  endloop
endfacet
facet normal -0.875577 0.124828 0.466672
  outer loop
    vertex 0.6191386577346698 -0.03181540181693572 0.3223855117325807
    vertex 0.6229201775469045 0.1844713384547674 0.2716268263398309
    vertex 0.5127675949268142 0.04814910380180294 0.1014211380811824
  endloop
endfacet
facet normal 0.568813 -0.821503 0.0398107
  outer loop
    vertex 1.148311396058769 -0.4464659540043108 0.1693277346276142
    vertex 1.220095108889064 -0.4134480400337564 -0.174982459793422
    vertex 1.425325404173084 -0.2628655560643178 3.053113320702586e-16
  endloop
endfacet
facet normal 0.636946 -0.728528 0.252086
  outer loop
    vertex 1.425325404173084 -0.2628655560643178 3.053113320702586e-16
    vertex 1.347450046419948 -0.2375627092785227 0.2698933574636918
    vertex 1.148311396058769 -0.4464659540043108 0.1693277346276142
  endloop
endfacet
facet normal 0.712222 -0.642708 -0.282252
  outer loop
    vertex 1.220095108889064 -0.4134480400337564 -0.174982459793422
    vertex 1.366894136225971 -0.2105521875608571 -0.2665641932374572
    vertex 1.425325404173084 -0.2628655560643178 3.053113320702586e-16
  endloop
endfacet
facet normal -0.820243 -0.569941 -0.0486579
  outer loop
    vertex 0.5399512778698057 -0.1458007542348179 -0.1307566951667619
    vertex 0.7141742333089204 -0.3998739152705786 -0.09167596730678461
    vertex 0.5959004224134066 -0.2506734680201584 0.1544873581400219
  endloop
endfacet
facet normal -0.763448 -0.570178 -0.303388
  outer loop
    vertex 0.5399512778698057 -0.1458007542348179 -0.1307566951667619
    vertex 0.6888884517969267 -0.2583229265794088 -0.2940728994282474
    vertex 0.7141742333089204 -0.3998739152705786 -0.09167596730678461
  endloop
endfacet
facet normal -0.798356 -0.293731 -0.52569
  outer loop
    vertex 0.6473499982915761 -0.04177937956370418 -0.3519836072011317
    vertex 0.6888884517969267 -0.2583229265794088 -0.2940728994282474
    vertex 0.5399512778698057 -0.1458007542348179 -0.1307566951667619
  endloop
endfacet
facet normal -0.606788 -0.774678 0.177992
  outer loop
    vertex 0.7141742333089204 -0.3998739152705786 -0.09167596730678461
    vertex 0.8414339411417816 -0.4352534199757873 0.1881788122439743
    vertex 0.5959004224134066 -0.2506734680201584 0.1544873581400219
  endloop
endfacet
facet normal -0.543957 -0.620473 0.564911
  outer loop
    vertex 0.8414339411417816 -0.4352534199757873 0.1881788122439743
    vertex 0.8044341924953511 -0.1944092392869864 0.4170839994712214
    vertex 0.5959004224134066 -0.2506734680201584 0.1544873581400219
  endloop
endfacet
facet normal -0.671988 -0.404526 0.620315
  outer loop
    vertex 0.5959004224134066 -0.2506734680201584 0.1544873581400219
    vertex 0.8044341924953511 -0.1944092392869864 0.4170839994712214
    vertex 0.6191386577346698 -0.03181540181693572 0.3223855117325807
  endloop
endfacet
facet normal -0.374465 -0.925711 0.0532529
  outer loop
    vertex 0.7141742333089204 -0.3998739152705786 -0.09167596730678461
    vertex 0.9570993176563292 -0.495705959354092 -0.04934706997671504
    vertex 0.8414339411417816 -0.4352534199757873 0.1881788122439743
  endloop
endfacet
facet normal -0.294058 -0.894339 -0.337175
  outer loop
    vertex 0.7141742333089204 -0.3998739152705786 -0.09167596730678461
    vertex 0.9047665902006181 -0.3799420226101041 -0.3107646329827868
    vertex 0.9570993176563292 -0.495705959354092 -0.04934706997671504
  endloop
endfacet
facet normal -0.460693 -0.753335 -0.469307
  outer loop
    vertex 0.7141742333089204 -0.3998739152705786 -0.09167596730678461
    vertex 0.6888884517969267 -0.2583229265794088 -0.2940728994282474
    vertex 0.9047665902006181 -0.3799420226101041 -0.3107646329827868
  endloop
endfacet
facet normal 0.00903644 -0.787896 0.615742
  outer loop
    vertex 0.8414339411417816 -0.4352534199757873 0.1881788122439743
    vertex 1.148311396058769 -0.4464659540043108 0.1693277346276142
    vertex 1.131432778036404 -0.2628655560689395 0.4045084971792319
  endloop
endfacet
facet normal -0.117865 -0.693564 0.710687
  outer loop
    vertex 1.131432778036404 -0.2628655560689395 0.4045084971792319
    vertex 0.8044341924953511 -0.1944092392869864 0.4170839994712214
    vertex 0.8414339411417816 -0.4352534199757873 0.1881788122439743
  endloop
endfacet
facet normal 0.437967 -0.693108 0.572526
  outer loop
    vertex 1.148311396058769 -0.4464659540043108 0.1693277346276142
    vertex 1.347450046419948 -0.2375627092785227 0.2698933574636918
    vertex 1.131432778036404 -0.2628655560689395 0.4045084971792319
  endloop
endfacet
facet normal -0.0209291 -0.971282 0.237009
  outer loop
    vertex 0.9570993176563292 -0.495705959354092 -0.04934706997671504
    vertex 1.148311396058769 -0.4464659540043108 0.1693277346276142
    vertex 0.8414339411417816 -0.4352534199757873 0.1881788122439743
  endloop
endfacet
facet normal 0.167715 -0.793319 -0.585249
  outer loop
    vertex 1.131432778029739 -0.262865556059394 -0.4045084971876005
    vertex 1.220095108889064 -0.4134480400337564 -0.174982459793422
    vertex 0.9047665902006181 -0.3799420226101041 -0.3107646329827868
  endloop
endfacet
facet normal -0.0860108 -0.515925 -0.852305
  outer loop
    vertex 0.9047665902006181 -0.3799420226101041 -0.3107646329827868
    vertex 0.8261603574436519 -0.1422832916802363 -0.4466936798125959
    vertex 1.131432778029739 -0.262865556059394 -0.4045084971876005
  endloop
endfacet
facet normal 0.492464 -0.628199 -0.602366
  outer loop
    vertex 1.131432778029739 -0.262865556059394 -0.4045084971876005
    vertex 1.366894136225971 -0.2105521875608571 -0.2665641932374572
    vertex 1.220095108889064 -0.4134480400337564 -0.174982459793422
  endloop
endfacet
facet normal -0.509873 -0.0823331 0.856301
  outer loop
    vertex 0.8044341924953511 -0.1944092392869864 0.4170839994712214
    vertex 0.7684173603402161 0.1218697838711161 0.4260483972360584
    vertex 0.6191386577346698 -0.03181540181693572 0.3223855117325807
  endloop
endfacet
facet normal -0.67882 0.178998 0.712154
  outer loop
    vertex 0.6191386577346698 -0.03181540181693572 0.3223855117325807
    vertex 0.7684173603402161 0.1218697838711161 0.4260483972360584
    vertex 0.6229201775469045 0.1844713384547674 0.2716268263398309
  endloop
endfacet
facet normal -0.575812 -0.312501 -0.755502
  outer loop
    vertex 0.8261603574436519 -0.1422832916802363 -0.4466936798125959
    vertex 0.6888884517969267 -0.2583229265794088 -0.2940728994282474
    vertex 0.6473499982915761 -0.04177937956370418 -0.3519836072011317
  endloop
endfacet
facet normal -0.430004 0.0822105 -0.899076
  outer loop
    vertex 0.6473499982915761 -0.04177937956370418 -0.3519836072011317
    vertex 0.6958683442272451 0.1770673956337807 -0.3551775237263652
    vertex 0.8261603574436519 -0.1422832916802363 -0.4466936798125959
  endloop
endfacet
facet normal 0.284109 -0.958236 -0.0326582
  outer loop
    vertex 0.9570993176563292 -0.495705959354092 -0.04934706997671504
    vertex 1.220095108889064 -0.4134480400337564 -0.174982459793422
    vertex 1.148311396058769 -0.4464659540043108 0.1693277346276142
  endloop
endfacet
facet normal 0.0836018 -0.904853 -0.417434
  outer loop
    vertex 0.9047665902006181 -0.3799420226101041 -0.3107646329827868
    vertex 1.220095108889064 -0.4134480400337564 -0.174982459793422
    vertex 0.9570993176563292 -0.495705959354092 -0.04934706997671504
  endloop
endfacet
facet normal -0.293998 0.150538 -0.943877
  outer loop
    vertex 0.8261603574436519 -0.1422832916802363 -0.4466936798125959
    vertex 0.6958683442272451 0.1770673956337807 -0.3551775237263652
    vertex 0.9407866247913445 0.2700060759678049 -0.4166419267630983
  endloop
endfacet
facet normal -0.368006 -0.550365 -0.749446
  outer loop
    vertex 0.9047665902006181 -0.3799420226101041 -0.3107646329827868
    vertex 0.6888884517969267 -0.2583229265794088 -0.2940728994282474
    vertex 0.8261603574436519 -0.1422832916802363 -0.4466936798125959
  endloop
endfacet
facet normal -0.543916 0.462689 0.700053
  outer loop
    vertex 0.6229201775469045 0.1844713384547674 0.2716268263398309
    vertex 0.7684173603402161 0.1218697838711161 0.4260483972360584
    vertex 0.7987841763223908 0.3421437218870757 0.3040556953503761
  endloop
endfacet
facet normal 0.291563 0.331326 0.897337
  outer loop
    vertex -0.7061073738537633 -7.19829327805997e-17 0.4045084971874736
    vertex -0.9491892324336854 0.3486692305155607 0.3547506639754304
    vertex -1 0 0.5
  endloop
endfacet
facet normal 0.303531 -0.187592 0.934172
  outer loop
    vertex -1 0 0.5
    vertex -0.8685672219635963 -0.2628655560689394 0.4045084971792319
    vertex -0.7061073738537633 -7.19829327805997e-17 0.4045084971874736
  endloop
endfacet
facet normal -0.0851002 0.393696 0.915293
  outer loop
    vertex -0.9491892324336854 0.3486692305155607 0.3547506639754304
    vertex -1.231582639659784 0.121869783871116 0.4260483972360583
    vertex -1 0 0.5
  endloop
endfacet
facet normal -0.0391634 -0.358419 0.932739
  outer loop
    vertex -1 0 0.5
    vertex -1.195565807504649 -0.1944092392869868 0.4170839994712211
    vertex -0.8685672219635963 -0.2628655560689394 0.4045084971792319
  endloop
endfacet
facet normal -0.334306 -0.0647192 0.94024
  outer loop
    vertex -1 0 0.5
    vertex -1.231582639659784 0.121869783871116 0.4260483972360583
    vertex -1.195565807504649 -0.1944092392869868 0.4170839994712211
  endloop
endfacet
facet normal 0.303531 -0.187592 -0.934172
  outer loop
    vertex -0.7061073738537631 -7.198293278059974e-17 -0.4045084971874735
    vertex -0.8685672219702607 -0.262865556059394 -0.4045084971876003
    vertex -1 0 -0.5
  endloop
endfacet
facet normal 0.301485 0.219442 -0.927875
  outer loop
    vertex -1 0 -0.5
    vertex -0.8096331440092042 0.2720989287322139 -0.373794907834445
    vertex -0.7061073738537631 -7.198293278059974e-17 -0.4045084971874735
  endloop
endfacet
facet normal -0.00620436 -0.344172 -0.938886
  outer loop
    vertex -0.8685672219702607 -0.262865556059394 -0.4045084971876003
    vertex -1.173839642556348 -0.1422832916802362 -0.446693679812596
    vertex -1 0 -0.5
  endloop
endfacet
facet normal -0.421325 0.1819 -0.888481
  outer loop
    vertex -1 0 -0.5
    vertex -1.173839642556348 -0.1422832916802362 -0.446693679812596
    vertex -1.059213375208655 0.2700060759678047 -0.4166419267630984
  endloop
endfacet
facet normal 0.157521 0.322682 -0.933308
  outer loop
    vertex -1.059213375208655 0.2700060759678047 -0.4166419267630984
    vertex -0.8096331440092042 0.2720989287322139 -0.373794907834445
    vertex -1 0 -0.5
  endloop
endfacet
facet normal 0.794654 0.187592 -0.57735
  outer loop
    vertex -0.7061073738537631 -7.198293278059974e-17 -0.4045084971874735
    vertex -0.6559045198822062 0.2628655560595668 -0.2499999999999996
    vertex -0.5244717418524232 -1.164708318489093e-16 -0.1545084971874734
  endloop
endfacet
facet normal 0.804628 -0.104025 -0.584596
  outer loop
    vertex -0.5244717418524232 -1.164708318489093e-16 -0.1545084971874734
    vertex -0.6331058637740293 -0.2105521875608578 -0.2665641932374568
    vertex -0.7061073738537631 -7.198293278059974e-17 -0.4045084971874735
  endloop
endfacet
facet normal 0.606956 0.313368 -0.730346
  outer loop
    vertex -0.7061073738537631 -7.198293278059974e-17 -0.4045084971874735
    vertex -0.8096331440092042 0.2720989287322139 -0.373794907834445
    vertex -0.6559045198822062 0.2628655560595668 -0.2499999999999996
  endloop
endfacet
facet normal 0.530717 -0.328001 -0.781508
  outer loop
    vertex -0.7061073738537631 -7.198293278059974e-17 -0.4045084971874735
    vertex -0.6331058637740293 -0.2105521875608578 -0.2665641932374568
    vertex -0.8685672219702607 -0.262865556059394 -0.4045084971876003
  endloop
endfacet
facet normal 0.98499 0.172612 3.53883e-16
  outer loop
    vertex -0.5244717418524232 -1.164708318489093e-16 -0.1545084971874734
    vertex -0.5683854932643504 0.2505882928440613 0.03023946204615537
    vertex -0.5244717418524233 -1.164708318489092e-16 0.154508497187474
  endloop
endfacet
facet normal 0.982247 -0.187592 3.52897e-16
  outer loop
    vertex -0.5244717418524233 -1.164708318489092e-16 0.154508497187474
    vertex -0.5746745958269164 -0.2628655560643178 2.872746681168576e-16
    vertex -0.5244717418524232 -1.164708318489093e-16 -0.1545084971874734
  endloop
endfacet
facet normal 0.89753 0.352551 -0.264854
  outer loop
    vertex -0.6559045198822062 0.2628655560595668 -0.2499999999999996
    vertex -0.5683854932643504 0.2505882928440613 0.03023946204615537
    vertex -0.5244717418524232 -1.164708318489093e-16 -0.1545084971874734
  endloop
endfacet
facet normal 0.907259 -0.328001 -0.263243
  outer loop
    vertex -0.5746745958269164 -0.2628655560643178 2.872746681168576e-16
    vertex -0.6331058637740293 -0.2105521875608578 -0.2665641932374568
    vertex -0.5244717418524232 -1.164708318489093e-16 -0.1545084971874734
  endloop
endfacet
facet normal 0.795727 0.180512 0.57813
  outer loop
    vertex -0.5244717418524233 -1.164708318489092e-16 0.154508497187474
    vertex -0.6360748979188919 0.2558757058903625 0.2282238883429246
    vertex -0.7061073738537633 -7.19829327805997e-17 0.4045084971874736
  endloop
endfacet
facet normal 0.799986 -0.148998 0.581224
  outer loop
    vertex -0.7061073738537633 -7.19829327805997e-17 0.4045084971874736
    vertex -0.6525499535800521 -0.2375627092785227 0.2698933574636919
    vertex -0.5244717418524233 -1.164708318489092e-16 0.154508497187474
  endloop
endfacet
facet normal 0.902936 0.307254 0.300502
  outer loop
    vertex -0.5244717418524233 -1.164708318489092e-16 0.154508497187474
    vertex -0.5683854932643504 0.2505882928440613 0.03023946204615537
    vertex -0.6360748979188919 0.2558757058903625 0.2282238883429246
  endloop
endfacet
facet normal 0.894138 -0.341214 0.289985
  outer loop
    vertex -0.5244717418524233 -1.164708318489092e-16 0.154508497187474
    vertex -0.6525499535800521 -0.2375627092785227 0.2698933574636919
    vertex -0.5746745958269164 -0.2628655560643178 2.872746681168576e-16
  endloop
endfacet
facet normal 0.444418 0.42256 0.789896
  outer loop
    vertex -0.6360748979188919 0.2558757058903625 0.2282238883429246
    vertex -0.9491892324336854 0.3486692305155607 0.3547506639754304
    vertex -0.7061073738537633 -7.19829327805997e-17 0.4045084971874736
  endloop
endfacet
facet normal 0.527215 -0.325837 0.784777
  outer loop
    vertex -0.8685672219635963 -0.2628655560689394 0.4045084971792319
    vertex -0.6525499535800521 -0.2375627092785227 0.2698933574636919
    vertex -0.7061073738537633 -7.19829327805997e-17 0.4045084971874736
  endloop
endfacet
facet normal 0.684682 0.696256 0.215493
  outer loop
    vertex -0.5683854932643504 0.2505882928440613 0.03023946204615537
    vertex -0.7702712418349716 0.4401223289663443 0.05930458006929043
    vertex -0.6360748979188919 0.2558757058903625 0.2282238883429246
  endloop
endfacet
facet normal 0.424163 0.760167 0.492171
  outer loop
    vertex -0.7702712418349716 0.4401223289663443 0.05930458006929043
    vertex -0.9491892324336854 0.3486692305155607 0.3547506639754304
    vertex -0.6360748979188919 0.2558757058903625 0.2282238883429246
  endloop
endfacet
facet normal 0.660523 0.730296 -0.174288
  outer loop
    vertex -0.6559045198822062 0.2628655560595668 -0.2499999999999996
    vertex -0.7702712418349716 0.4401223289663443 0.05930458006929043
    vertex -0.5683854932643504 0.2505882928440613 0.03023946204615537
  endloop
endfacet
facet normal 0.497787 0.819027 -0.285311
  outer loop
    vertex -0.6559045198822062 0.2628655560595668 -0.2499999999999996
    vertex -0.9405619652014361 0.4496792948379839 -0.210370273121699
    vertex -0.7702712418349716 0.4401223289663443 0.05930458006929043
  endloop
endfacet
facet normal 0.433202 0.762151 -0.481105
  outer loop
    vertex -0.6559045198822062 0.2628655560595668 -0.2499999999999996
    vertex -0.8096331440092042 0.2720989287322139 -0.373794907834445
    vertex -0.9405619652014361 0.4496792948379839 -0.210370273121699
  endloop
endfacet
facet normal 0.137046 0.989226 -0.0514831
  outer loop
    vertex -0.9405619652014361 0.4496792948379839 -0.210370273121699
    vertex -1.093145876820107 0.485623888649359 0.07411669450595031
    vertex -0.7702712418349716 0.4401223289663443 0.05930458006929043
  endloop
endfacet
facet normal 0.146242 0.916532 0.372267
  outer loop
    vertex -0.7702712418349716 0.4401223289663443 0.05930458006929043
    vertex -1.093145876820107 0.485623888649359 0.07411669450595031
    vertex -0.9491892324336854 0.3486692305155607 0.3547506639754304
  endloop
endfacet
facet normal -0.193173 0.955184 -0.224294
  outer loop
    vertex -0.9405619652014361 0.4496792948379839 -0.210370273121699
    vertex -1.239329540092801 0.3924681166737548 -0.1966981154803584
    vertex -1.093145876820107 0.485623888649359 0.07411669450595031
  endloop
endfacet
facet normal -0.178182 0.790454 -0.586032
  outer loop
    vertex -0.9405619652014361 0.4496792948379839 -0.210370273121699
    vertex -1.059213375208655 0.2700060759678047 -0.4166419267630984
    vertex -1.239329540092801 0.3924681166737548 -0.1966981154803584
  endloop
endfacet
facet normal 0.112206 0.716423 -0.688584
  outer loop
    vertex -0.9405619652014361 0.4496792948379839 -0.210370273121699
    vertex -0.8096331440092042 0.2720989287322139 -0.373794907834445
    vertex -1.059213375208655 0.2700060759678047 -0.4166419267630984
  endloop
endfacet
facet normal -0.119876 0.866592 0.484406
  outer loop
    vertex -1.093145876820107 0.485623888649359 0.07411669450595031
    vertex -1.201215823677609 0.3421437218870755 0.3040556953503761
    vertex -0.9491892324336854 0.3486692305155607 0.3547506639754304
  endloop
endfacet
facet normal -0.183602 0.495497 0.848983
  outer loop
    vertex -1.201215823677609 0.3421437218870755 0.3040556953503761
    vertex -1.231582639659784 0.121869783871116 0.4260483972360583
    vertex -0.9491892324336854 0.3486692305155607 0.3547506639754304
  endloop
endfacet
facet normal -0.4949 0.868377 -0.0315643
  outer loop
    vertex -1.239329540092801 0.3924681166737548 -0.1966981154803584
    vertex -1.368951756739452 0.3285442396448901 0.07702781182815238
    vertex -1.093145876820107 0.485623888649359 0.07411669450595031
  endloop
endfacet
facet normal -0.470105 0.830941 0.297554
  outer loop
    vertex -1.368951756739452 0.3285442396448901 0.07702781182815238
    vertex -1.201215823677609 0.3421437218870755 0.3040556953503761
    vertex -1.093145876820107 0.485623888649359 0.07411669450595031
  endloop
endfacet
facet normal -0.749104 0.629002 -0.207844
  outer loop
    vertex -1.239329540092801 0.3924681166737548 -0.1966981154803584
    vertex -1.441509912646233 0.159935049125794 -0.1717258777710736
    vertex -1.368951756739452 0.3285442396448901 0.07702781182815238
  endloop
endfacet
facet normal -0.691695 0.55131 -0.466492
  outer loop
    vertex -1.239329540092801 0.3924681166737548 -0.1966981154803584
    vertex -1.304131655772755 0.1770673956337806 -0.3551775237263654
    vertex -1.441509912646233 0.159935049125794 -0.1717258777710736
  endloop
endfacet
facet normal -0.40378 0.617869 -0.674685
  outer loop
    vertex -1.059213375208655 0.2700060759678047 -0.4166419267630984
    vertex -1.304131655772755 0.1770673956337806 -0.3551775237263654
    vertex -1.239329540092801 0.3924681166737548 -0.1966981154803584
  endloop
endfacet
facet normal -0.921209 0.389035 0.00501062
  outer loop
    vertex -1.441509912646233 0.159935049125794 -0.1717258777710736
    vertex -1.487232405073186 0.0481491038018023 0.1014211380811821
    vertex -1.368951756739452 0.3285442396448901 0.07702781182815238
  endloop
endfacet
facet normal -0.882706 0.394562 0.255248
  outer loop
    vertex -1.487232405073186 0.0481491038018023 0.1014211380811821
    vertex -1.377079822453096 0.1844713384547671 0.2716268263398308
    vertex -1.368951756739452 0.3285442396448901 0.07702781182815238
  endloop
endfacet
facet normal -0.643566 0.627758 0.437885
  outer loop
    vertex -1.368951756739452 0.3285442396448901 0.07702781182815238
    vertex -1.377079822453096 0.1844713384547671 0.2716268263398308
    vertex -1.201215823677609 0.3421437218870755 0.3040556953503761
  endloop
endfacet
facet normal -0.988024 0.0399386 -0.149042
  outer loop
    vertex -1.441509912646233 0.159935049125794 -0.1717258777710736
    vertex -1.460048722130194 -0.1458007542348182 -0.1307566951667624
    vertex -1.487232405073186 0.0481491038018023 0.1014211380811821
  endloop
endfacet
facet normal -0.898803 -0.004237 -0.438333
  outer loop
    vertex -1.441509912646233 0.159935049125794 -0.1717258777710736
    vertex -1.352650001708424 -0.0417793795637043 -0.3519836072011321
    vertex -1.460048722130194 -0.1458007542348182 -0.1307566951667624
  endloop
endfacet
facet normal -0.796517 0.168112 -0.580774
  outer loop
    vertex -1.441509912646233 0.159935049125794 -0.1717258777710736
    vertex -1.304131655772755 0.1770673956337806 -0.3551775237263654
    vertex -1.352650001708424 -0.0417793795637043 -0.3519836072011321
  endloop
endfacet
facet normal -0.963198 -0.250787 0.0967222
  outer loop
    vertex -1.460048722130194 -0.1458007542348182 -0.1307566951667624
    vertex -1.404099577586593 -0.2506734680201588 0.1544873581400214
    vertex -1.487232405073186 0.0481491038018023 0.1014211380811821
  endloop
endfacet
facet normal -0.909861 -0.187385 0.37019
  outer loop
    vertex -1.404099577586593 -0.2506734680201588 0.1544873581400214
    vertex -1.38086134226533 -0.03181540181693625 0.3223855117325805
    vertex -1.487232405073186 0.0481491038018023 0.1014211380811821
  endloop
endfacet
facet normal -0.875577 0.124828 0.466672
  outer loop
    vertex -1.38086134226533 -0.03181540181693625 0.3223855117325805
    vertex -1.377079822453096 0.1844713384547671 0.2716268263398308
    vertex -1.487232405073186 0.0481491038018023 0.1014211380811821
  endloop
endfacet
facet normal 0.568813 -0.821503 0.0398107
  outer loop
    vertex -0.8516886039412302 -0.4464659540043104 0.1693277346276142
    vertex -0.7799048911109359 -0.4134480400337561 -0.1749824597934221
    vertex -0.5746745958269164 -0.2628655560643178 2.872746681168576e-16
  endloop
endfacet
facet normal 0.636946 -0.728528 0.252086
  outer loop
    vertex -0.5746745958269164 -0.2628655560643178 2.872746681168576e-16
    vertex -0.6525499535800521 -0.2375627092785227 0.2698933574636919
    vertex -0.8516886039412302 -0.4464659540043104 0.1693277346276142
  endloop
endfacet
facet normal 0.712222 -0.642708 -0.282252
  outer loop
    vertex -0.7799048911109359 -0.4134480400337561 -0.1749824597934221
    vertex -0.6331058637740293 -0.2105521875608578 -0.2665641932374568
    vertex -0.5746745958269164 -0.2628655560643178 2.872746681168576e-16
  endloop
endfacet
facet normal -0.820243 -0.569941 -0.0486579
  outer loop
    vertex -1.460048722130194 -0.1458007542348182 -0.1307566951667624
    vertex -1.285825766691079 -0.3998739152705788 -0.09167596730678487
    vertex -1.404099577586593 -0.2506734680201588 0.1544873581400214
  endloop
endfacet
facet normal -0.763448 -0.570178 -0.303388
  outer loop
    vertex -1.460048722130194 -0.1458007542348182 -0.1307566951667624
    vertex -1.311111548203073 -0.2583229265794091 -0.2940728994282475
    vertex -1.285825766691079 -0.3998739152705788 -0.09167596730678487
  endloop
endfacet
facet normal -0.798356 -0.293731 -0.52569
  outer loop
    vertex -1.352650001708424 -0.0417793795637043 -0.3519836072011321
    vertex -1.311111548203073 -0.2583229265794091 -0.2940728994282475
    vertex -1.460048722130194 -0.1458007542348182 -0.1307566951667624
  endloop
endfacet
facet normal -0.606788 -0.774678 0.177992
  outer loop
    vertex -1.285825766691079 -0.3998739152705788 -0.09167596730678487
    vertex -1.158566058858218 -0.4352534199757876 0.1881788122439739
    vertex -1.404099577586593 -0.2506734680201588 0.1544873581400214
  endloop
endfacet
facet normal -0.543957 -0.620473 0.564911
  outer loop
    vertex -1.158566058858218 -0.4352534199757876 0.1881788122439739
    vertex -1.195565807504649 -0.1944092392869868 0.4170839994712211
    vertex -1.404099577586593 -0.2506734680201588 0.1544873581400214
  endloop
endfacet
facet normal -0.671988 -0.404526 0.620315
  outer loop
    vertex -1.404099577586593 -0.2506734680201588 0.1544873581400214
    vertex -1.195565807504649 -0.1944092392869868 0.4170839994712211
    vertex -1.38086134226533 -0.03181540181693625 0.3223855117325805
  endloop
endfacet
facet normal -0.374465 -0.925711 0.0532529
  outer loop
    vertex -1.285825766691079 -0.3998739152705788 -0.09167596730678487
    vertex -1.04290068234367 -0.495705959354092 -0.04934706997671526
    vertex -1.158566058858218 -0.4352534199757876 0.1881788122439739
  endloop
endfacet
facet normal -0.294058 -0.894339 -0.337175
  outer loop
    vertex -1.285825766691079 -0.3998739152705788 -0.09167596730678487
    vertex -1.095233409799382 -0.3799420226101038 -0.3107646329827871
    vertex -1.04290068234367 -0.495705959354092 -0.04934706997671526
  endloop
endfacet
facet normal -0.460693 -0.753335 -0.469307
  outer loop
    vertex -1.285825766691079 -0.3998739152705788 -0.09167596730678487
    vertex -1.311111548203073 -0.2583229265794091 -0.2940728994282475
    vertex -1.095233409799382 -0.3799420226101038 -0.3107646329827871
  endloop
endfacet
facet normal 0.00903644 -0.787896 0.615742
  outer loop
    vertex -1.158566058858218 -0.4352534199757876 0.1881788122439739
    vertex -0.8516886039412302 -0.4464659540043104 0.1693277346276142
    vertex -0.8685672219635963 -0.2628655560689394 0.4045084971792319
  endloop
endfacet
facet normal -0.117865 -0.693564 0.710687
  outer loop
    vertex -0.8685672219635963 -0.2628655560689394 0.4045084971792319
    vertex -1.195565807504649 -0.1944092392869868 0.4170839994712211
    vertex -1.158566058858218 -0.4352534199757876 0.1881788122439739
  endloop
endfacet
facet normal 0.437967 -0.693108 0.572526
  outer loop
    vertex -0.8516886039412302 -0.4464659540043104 0.1693277346276142
    vertex -0.6525499535800521 -0.2375627092785227 0.2698933574636919
    vertex -0.8685672219635963 -0.2628655560689394 0.4045084971792319
  endloop
endfacet
facet normal -0.0209291 -0.971282 0.237009
  outer loop
    vertex -1.04290068234367 -0.495705959354092 -0.04934706997671526
    vertex -0.8516886039412302 -0.4464659540043104 0.1693277346276142
    vertex -1.158566058858218 -0.4352534199757876 0.1881788122439739
  endloop
endfacet
facet normal 0.167715 -0.793319 -0.585249
  outer loop
    vertex -0.8685672219702607 -0.262865556059394 -0.4045084971876003
    vertex -0.7799048911109359 -0.4134480400337561 -0.1749824597934221
    vertex -1.095233409799382 -0.3799420226101038 -0.3107646329827871
  endloop
endfacet
facet normal -0.0860108 -0.515925 -0.852305
  outer loop
    vertex -1.095233409799382 -0.3799420226101038 -0.3107646329827871
    vertex -1.173839642556348 -0.1422832916802362 -0.446693679812596
    vertex -0.8685672219702607 -0.262865556059394 -0.4045084971876003
  endloop
endfacet
facet normal 0.492464 -0.628199 -0.602366
  outer loop
    vertex -0.8685672219702607 -0.262865556059394 -0.4045084971876003
    vertex -0.6331058637740293 -0.2105521875608578 -0.2665641932374568
    vertex -0.7799048911109359 -0.4134480400337561 -0.1749824597934221
  endloop
endfacet
facet normal -0.509873 -0.0823331 0.856301
  outer loop
    vertex -1.195565807504649 -0.1944092392869868 0.4170839994712211
    vertex -1.231582639659784 0.121869783871116 0.4260483972360583
    vertex -1.38086134226533 -0.03181540181693625 0.3223855117325805
  endloop
endfacet
facet normal -0.67882 0.178998 0.712154
  outer loop
    vertex -1.38086134226533 -0.03181540181693625 0.3223855117325805
    vertex -1.231582639659784 0.121869783871116 0.4260483972360583
    vertex -1.377079822453096 0.1844713384547671 0.2716268263398308
  endloop
endfacet
facet normal -0.575812 -0.312501 -0.755502
  outer loop
    vertex -1.173839642556348 -0.1422832916802362 -0.446693679812596
    vertex -1.311111548203073 -0.2583229265794091 -0.2940728994282475
    vertex -1.352650001708424 -0.0417793795637043 -0.3519836072011321
  endloop
endfacet
facet normal -0.430004 0.0822105 -0.899076
  outer loop
    vertex -1.352650001708424 -0.0417793795637043 -0.3519836072011321
    vertex -1.304131655772755 0.1770673956337806 -0.3551775237263654
    vertex -1.173839642556348 -0.1422832916802362 -0.446693679812596
  endloop
endfacet
facet normal 0.284109 -0.958236 -0.0326582
  outer loop
    vertex -1.04290068234367 -0.495705959354092 -0.04934706997671526
    vertex -0.7799048911109359 -0.4134480400337561 -0.1749824597934221
    vertex -0.8516886039412302 -0.4464659540043104 0.1693277346276142
  endloop
endfacet
facet normal 0.0836018 -0.904853 -0.417434
  outer loop
    vertex -1.095233409799382 -0.3799420226101038 -0.3107646329827871
    vertex -0.7799048911109359 -0.4134480400337561 -0.1749824597934221
    vertex -1.04290068234367 -0.495705959354092 -0.04934706997671526
  endloop
endfacet
facet normal -0.293998 0.150538 -0.943877
  outer loop
    vertex -1.173839642556348 -0.1422832916802362 -0.446693679812596
    vertex -1.304131655772755 0.1770673956337806 -0.3551775237263654
    vertex -1.059213375208655 0.2700060759678047 -0.4166419267630984
  endloop
endfacet
facet normal -0.368006 -0.550365 -0.749446
  outer loop
    vertex -1.095233409799382 -0.3799420226101038 -0.3107646329827871
    vertex -1.311111548203073 -0.2583229265794091 -0.2940728994282475
    vertex -1.173839642556348 -0.1422832916802362 -0.446693679812596
  endloop
endfacet
facet normal -0.543916 0.462689 0.700053
  outer loop
    vertex -1.377079822453096 0.1844713384547671 0.2716268263398308
    vertex -1.231582639659784 0.121869783871116 0.4260483972360583
    vertex -1.201215823677609 0.3421437218870755 0.3040556953503761
  endloop
endfacet
endsolid Created by Gmsh
