solid Created by Gmsh
facet normal 0.92388 0.382683 0
  outer loop
    vertex -0.6464466094067263 -8.659560562354933e-17 0.025
    vertex -0.7499999999999999 0.2499999999999998 -0.025
    vertex -0.7499999999999999 0.2499999999999998 0.025
  endloop
endfacet
facet normal 0.92388 0.382683 -0
  outer loop
    vertex -0.6464466094067263 -8.659560562354933e-17 -0.025
    vertex -0.7499999999999999 0.2499999999999998 -0.025
    vertex -0.6464466094067263 -8.659560562354933e-17 0.025
  endloop
endfacet
facet normal 0.92388 -0.382683 0
  outer loop
    vertex -0.7500000000000006 -0.2500000000000004 -0.025
    vertex -0.6464466094067263 -8.659560562354933e-17 -0.025
    vertex -0.7500000000000006 -0.2500000000000004 0.025
  endloop
endfacet
facet normal 0.92388 -0.382683 0
  outer loop
    vertex -0.7500000000000006 -0.2500000000000004 0.025
    vertex -0.6464466094067263 -8.659560562354933e-17 -0.025
    vertex -0.6464466094067263 -8.659560562354933e-17 0.025
  endloop
endfacet
facet normal 0.382683 0.92388 0
  outer loop
    vertex -0.7499999999999999 0.2499999999999998 0.025
    vertex -0.9999999999999994 0.3535533905932737 -0.025
    vertex -0.9999999999999994 0.3535533905932737 0.025
  endloop
endfacet
facet normal 0.382683 0.92388 -0
  outer loop
    vertex -0.7499999999999999 0.2499999999999998 -0.025
    vertex -0.9999999999999994 0.3535533905932737 -0.025
    vertex -0.7499999999999999 0.2499999999999998 0.025
  endloop
endfacet
facet normal -0.382683 0.92388 0
  outer loop
    vertex -0.9999999999999994 0.3535533905932737 -0.025
    vertex -1.249999999999999 0.2500000000000006 0.025
    vertex -0.9999999999999994 0.3535533905932737 0.025
  endloop
endfacet
facet normal -0.92388 0.382683 0
  outer loop
    vertex -1.249999999999999 0.2500000000000006 0.025
    vertex -1.249999999999999 0.2500000000000006 -0.025
    vertex -1.353553390593274 9.853532780220395e-16 0.025
  endloop
endfacet
facet normal -0.382683 0.92388 0
  outer loop
    vertex -0.9999999999999994 0.3535533905932737 -0.025
    vertex -1.249999999999999 0.2500000000000006 -0.025
    vertex -1.249999999999999 0.2500000000000006 0.025
  endloop
endfacet
facet normal -0.92388 -0.382683 0
  outer loop
    vertex -1.353553390593274 9.853532780220395e-16 0.025
    vertex -1.250000000000001 -0.2499999999999991 -0.025
    vertex -1.250000000000001 -0.2499999999999991 0.025
  endloop
endfacet
facet normal -0.92388 0.382683 0
  outer loop
    vertex -1.249999999999999 0.2500000000000006 -0.025
    vertex -1.353553390593274 9.853532780220395e-16 -0.025
    vertex -1.353553390593274 9.853532780220395e-16 0.025
  endloop
endfacet
facet normal -0.92388 -0.382683 0
  outer loop
    vertex -1.353553390593274 9.853532780220395e-16 -0.025
    vertex -1.250000000000001 -0.2499999999999991 -0.025
    vertex -1.353553390593274 9.853532780220395e-16 0.025
  endloop
endfacet
facet normal -0.382683 -0.92388 0
  outer loop
    vertex -1.250000000000001 -0.2499999999999991 0.025
    vertex -1.000000000000001 -0.3535533905932737 -0.025
    vertex -1.000000000000001 -0.3535533905932737 0.025
  endloop
endfacet
facet normal -0.382683 -0.92388 0
  outer loop
    vertex -1.250000000000001 -0.2499999999999991 -0.025
    vertex -1.000000000000001 -0.3535533905932737 -0.025
    vertex -1.250000000000001 -0.2499999999999991 0.025
  endloop
endfacet
facet normal 0.382683 -0.92388 0
  outer loop
    vertex -1.000000000000001 -0.3535533905932737 0.025
    vertex -0.7500000000000006 -0.2500000000000004 -0.025
    vertex -0.7500000000000006 -0.2500000000000004 0.025
  endloop
endfacet
facet normal 0.382683 -0.92388 0
  outer loop
    vertex -1.000000000000001 -0.3535533905932737 -0.025
    vertex -0.7500000000000006 -0.2500000000000004 -0.025
    vertex -1.000000000000001 -0.3535533905932737 0.025
  endloop
endfacet
facet normal -0 0 1
  outer loop
    vertex -1.353553390593274 9.853532780220395e-16 0.025
    vertex -1.158279847964724 -0.06726008833459078 0.025
    vertex -1.249999999999999 0.2500000000000006 0.025
  endloop
endfacet
facet normal 0 0 1
  outer loop
    vertex -1.000000000000001 -0.3535533905932737 0.025
    vertex -1.158279847964724 -0.06726008833459078 0.025
    vertex -1.250000000000001 -0.2499999999999991 0.025
  endloop
endfacet
facet normal 0 0 1
  outer loop
    vertex -0.9999999999999994 0.3535533905932737 0.025
    vertex -0.8405191816143726 0.06436068925643593 0.025
    vertex -0.7499999999999999 0.2499999999999998 0.025
  endloop
endfacet
facet normal 0 0 1
  outer loop
    vertex -0.6464466094067263 -8.659560562354933e-17 0.025
    vertex -0.8405191816143726 0.06436068925643593 0.025
    vertex -0.7500000000000006 -0.2500000000000004 0.025
  endloop
endfacet
facet normal 0 0 1
  outer loop
    vertex -1.249999999999999 0.2500000000000006 0.025
    vertex -1.158279847964724 -0.06726008833459078 0.025
    vertex -1.039359842682194 0.09502306601622502 0.025
  endloop
endfacet
facet normal -0 0 1
  outer loop
    vertex -1.039359842682194 0.09502306601622502 0.025
    vertex -0.8405191816143726 0.06436068925643593 0.025
    vertex -0.9999999999999994 0.3535533905932737 0.025
  endloop
endfacet
facet normal 0 0 1
  outer loop
    vertex -0.7500000000000006 -0.2500000000000004 0.025
    vertex -0.8405191816143726 0.06436068925643593 0.025
    vertex -0.9467992134109717 -0.1284380605121496 0.025
  endloop
endfacet
facet normal 0 0 1
  outer loop
    vertex -0.9467992134109717 -0.1284380605121496 0.025
    vertex -1.158279847964724 -0.06726008833459078 0.025
    vertex -1.000000000000001 -0.3535533905932737 0.025
  endloop
endfacet
facet normal -0 0 1
  outer loop
    vertex -1.249999999999999 0.2500000000000006 0.025
    vertex -1.039359842682194 0.09502306601622502 0.025
    vertex -0.9999999999999994 0.3535533905932737 0.025
  endloop
endfacet
facet normal 0 0 1
  outer loop
    vertex -0.7500000000000006 -0.2500000000000004 0.025
    vertex -0.9467992134109717 -0.1284380605121496 0.025
    vertex -1.000000000000001 -0.3535533905932737 0.025
  endloop
endfacet
facet normal 0 -0 1
  outer loop
    vertex -1.250000000000001 -0.2499999999999991 0.025
    vertex -1.158279847964724 -0.06726008833459078 0.025
    vertex -1.353553390593274 9.853532780220395e-16 0.025
  endloop
endfacet
facet normal 0 0 1
  outer loop
    vertex -0.7499999999999999 0.2499999999999998 0.025
    vertex -0.8405191816143726 0.06436068925643593 0.025
    vertex -0.6464466094067263 -8.659560562354933e-17 0.025
  endloop
endfacet
facet normal 0 -0 1
  outer loop
    vertex -0.9467992134109717 -0.1284380605121496 0.025
    vertex -0.8405191816143726 0.06436068925643593 0.025
    vertex -1.039359842682194 0.09502306601622502 0.025
  endloop
endfacet
facet normal 0 0 1
  outer loop
    vertex -1.039359842682194 0.09502306601622502 0.025
    vertex -1.158279847964724 -0.06726008833459078 0.025
    vertex -0.9467992134109717 -0.1284380605121496 0.025
  endloop
endfacet
facet normal 0 0 -1
  outer loop
    vertex -0.9606401573178056 0.0950230660162249 -0.025
    vertex -0.7499999999999999 0.2499999999999998 -0.025
    vertex -0.8417201520352766 -0.06726008833459146 -0.025
  endloop
endfacet
facet normal 0 -0 -1
  outer loop
    vertex -0.7499999999999999 0.2499999999999998 -0.025
    vertex -0.6464466094067263 -8.659560562354933e-17 -0.025
    vertex -0.8417201520352766 -0.06726008833459146 -0.025
  endloop
endfacet
facet normal 0 0 -1
  outer loop
    vertex -1.249999999999999 0.2500000000000006 -0.025
    vertex -0.9999999999999994 0.3535533905932737 -0.025
    vertex -1.159480818385627 0.06436068925643644 -0.025
  endloop
endfacet
facet normal 0 -0 -1
  outer loop
    vertex -0.9999999999999994 0.3535533905932737 -0.025
    vertex -0.9606401573178056 0.0950230660162249 -0.025
    vertex -1.159480818385627 0.06436068925643644 -0.025
  endloop
endfacet
facet normal 0 0 -1
  outer loop
    vertex -1.250000000000001 -0.2499999999999991 -0.025
    vertex -1.353553390593274 9.853532780220395e-16 -0.025
    vertex -1.159480818385627 0.06436068925643644 -0.025
  endloop
endfacet
facet normal -0 0 -1
  outer loop
    vertex -0.7500000000000006 -0.2500000000000004 -0.025
    vertex -1.000000000000001 -0.3535533905932737 -0.025
    vertex -0.8417201520352766 -0.06726008833459146 -0.025
  endloop
endfacet
facet normal 0 0 -1
  outer loop
    vertex -1.000000000000001 -0.3535533905932737 -0.025
    vertex -1.053200786589029 -0.1284380605121493 -0.025
    vertex -0.8417201520352766 -0.06726008833459146 -0.025
  endloop
endfacet
facet normal -0 0 -1
  outer loop
    vertex -1.053200786589029 -0.1284380605121493 -0.025
    vertex -1.250000000000001 -0.2499999999999991 -0.025
    vertex -1.159480818385627 0.06436068925643644 -0.025
  endloop
endfacet
facet normal 0 0 -1
  outer loop
    vertex -0.9999999999999994 0.3535533905932737 -0.025
    vertex -0.7499999999999999 0.2499999999999998 -0.025
    vertex -0.9606401573178056 0.0950230660162249 -0.025
  endloop
endfacet
facet normal 0 0 -1
  outer loop
    vertex -1.000000000000001 -0.3535533905932737 -0.025
    vertex -1.250000000000001 -0.2499999999999991 -0.025
    vertex -1.053200786589029 -0.1284380605121493 -0.025
  endloop
endfacet
facet normal 0 0 -1
  outer loop
    vertex -0.6464466094067263 -8.659560562354933e-17 -0.025
    vertex -0.7500000000000006 -0.2500000000000004 -0.025
    vertex -0.8417201520352766 -0.06726008833459146 -0.025
  endloop
endfacet
facet normal 0 0 -1
  outer loop
    vertex -1.353553390593274 9.853532780220395e-16 -0.025
    vertex -1.249999999999999 0.2500000000000006 -0.025
    vertex -1.159480818385627 0.06436068925643644 -0.025
  endloop
endfacet
facet normal 0 0 -1
  outer loop
    vertex -0.9606401573178056 0.0950230660162249 -0.025
    vertex -1.053200786589029 -0.1284380605121493 -0.025
    vertex -1.159480818385627 0.06436068925643644 -0.025
  endloop
endfacet
facet normal 0 0 -1
  outer loop
    vertex -1.053200786589029 -0.1284380605121493 -0.025
    vertex -0.9606401573178056 0.0950230660162249 -0.025
    vertex -0.8417201520352766 -0.06726008833459146 -0.025
  endloop
endfacet
facet normal 0.92388 0.382683 0
  outer loop
    vertex 1.353553390593274 -8.65956056235493e-17 0.025
    vertex 1.353553390593274 -8.65956056235493e-17 -0.025
    vertex 1.25 0.2499999999999998 0.025
  endloop
endfacet
facet normal 0.92388 -0.382683 0
  outer loop
    vertex 1.25 -0.2500000000000004 -0.025
    vertex 1.353553390593274 -8.65956056235493e-17 -0.025
    vertex 1.25 -0.2500000000000004 0.025
  endloop
endfacet
facet normal 0.92388 -0.382683 0
  outer loop
    vertex 1.25 -0.2500000000000004 0.025
    vertex 1.353553390593274 -8.65956056235493e-17 -0.025
    vertex 1.353553390593274 -8.65956056235493e-17 0.025
  endloop
endfacet
facet normal 0.382683 0.92388 -0
  outer loop
    vertex 1.25 0.2499999999999998 -0.025
    vertex 1.000000000000001 0.3535533905932737 0.025
    vertex 1.25 0.2499999999999998 0.025
  endloop
endfacet
facet normal 0.92388 0.382683 0
  outer loop
    vertex 1.353553390593274 -8.65956056235493e-17 -0.025
    vertex 1.25 0.2499999999999998 -0.025
    vertex 1.25 0.2499999999999998 0.025
  endloop
endfacet
facet normal -0.382683 0.92388 0
  outer loop
    vertex 1.000000000000001 0.3535533905932737 0.025
    vertex 0.7500000000000006 0.2500000000000006 -0.025
    vertex 0.7500000000000006 0.2500000000000006 0.025
  endloop
endfacet
facet normal 0.382683 0.92388 0
  outer loop
    vertex 1.25 0.2499999999999998 -0.025
    vertex 1.000000000000001 0.3535533905932737 -0.025
    vertex 1.000000000000001 0.3535533905932737 0.025
  endloop
endfacet
facet normal -0.382683 0.92388 0
  outer loop
    vertex 1.000000000000001 0.3535533905932737 0.025
    vertex 1.000000000000001 0.3535533905932737 -0.025
    vertex 0.7500000000000006 0.2500000000000006 -0.025
  endloop
endfacet
facet normal -0.92388 0.382683 0
  outer loop
    vertex 0.7500000000000006 0.2500000000000006 0.025
    vertex 0.6464466094067263 9.853532780220395e-16 -0.025
    vertex 0.6464466094067263 9.853532780220395e-16 0.025
  endloop
endfacet
facet normal -0.92388 0.382683 0
  outer loop
    vertex 0.7500000000000006 0.2500000000000006 -0.025
    vertex 0.6464466094067263 9.853532780220395e-16 -0.025
    vertex 0.7500000000000006 0.2500000000000006 0.025
  endloop
endfacet
facet normal -0.92388 -0.382683 -0
  outer loop
    vertex 0.6464466094067263 9.853532780220395e-16 0.025
    vertex 0.6464466094067263 9.853532780220395e-16 -0.025
    vertex 0.7499999999999991 -0.2499999999999991 0.025
  endloop
endfacet
facet normal -0.382683 -0.92388 -0
  outer loop
    vertex 0.7499999999999991 -0.2499999999999991 0.025
    vertex 0.7499999999999991 -0.2499999999999991 -0.025
    vertex 0.999999999999999 -0.3535533905932737 0.025
  endloop
endfacet
facet normal -0.92388 -0.382683 0
  outer loop
    vertex 0.6464466094067263 9.853532780220395e-16 -0.025
    vertex 0.7499999999999991 -0.2499999999999991 -0.025
    vertex 0.7499999999999991 -0.2499999999999991 0.025
  endloop
endfacet
facet normal 0.382683 -0.92388 0
  outer loop
    vertex 0.999999999999999 -0.3535533905932737 0.025
    vertex 0.999999999999999 -0.3535533905932737 -0.025
    vertex 1.25 -0.2500000000000004 0.025
  endloop
endfacet
facet normal -0.382683 -0.92388 0
  outer loop
    vertex 0.7499999999999991 -0.2499999999999991 -0.025
    vertex 0.999999999999999 -0.3535533905932737 -0.025
    vertex 0.999999999999999 -0.3535533905932737 0.025
  endloop
endfacet
facet normal 0.382683 -0.92388 0
  outer loop
    vertex 0.999999999999999 -0.3535533905932737 -0.025
    vertex 1.25 -0.2500000000000004 -0.025
    vertex 1.25 -0.2500000000000004 0.025
  endloop
endfacet
facet normal -0 0 1
  outer loop
    vertex 1.039359842682194 0.0950230660162249 0.025
    vertex 1.158279847964723 -0.06726008833459145 0.025
    vertex 1.25 0.2499999999999998 0.025
  endloop
endfacet
facet normal -0 0 1
  outer loop
    vertex 0.7500000000000006 0.2500000000000006 0.025
    vertex 0.8405191816143728 0.0643606892564364 0.025
    vertex 1.000000000000001 0.3535533905932737 0.025
  endloop
endfacet
facet normal 0 0 1
  outer loop
    vertex 1.25 0.2499999999999998 0.025
    vertex 1.158279847964723 -0.06726008833459145 0.025
    vertex 1.353553390593274 -8.65956056235493e-17 0.025
  endloop
endfacet
facet normal 0 0 1
  outer loop
    vertex 1.000000000000001 0.3535533905932737 0.025
    vertex 0.8405191816143728 0.0643606892564364 0.025
    vertex 1.039359842682194 0.0950230660162249 0.025
  endloop
endfacet
facet normal 0 -0 1
  outer loop
    vertex 0.7499999999999991 -0.2499999999999991 0.025
    vertex 0.8405191816143728 0.0643606892564364 0.025
    vertex 0.6464466094067263 9.853532780220395e-16 0.025
  endloop
endfacet
facet normal 0 0 1
  outer loop
    vertex 1.25 -0.2500000000000004 0.025
    vertex 1.158279847964723 -0.06726008833459145 0.025
    vertex 0.999999999999999 -0.3535533905932737 0.025
  endloop
endfacet
facet normal 0 -0 1
  outer loop
    vertex 0.999999999999999 -0.3535533905932737 0.025
    vertex 1.158279847964723 -0.06726008833459145 0.025
    vertex 0.9467992134109711 -0.1284380605121493 0.025
  endloop
endfacet
facet normal 0 0 1
  outer loop
    vertex 0.9467992134109711 -0.1284380605121493 0.025
    vertex 0.8405191816143728 0.0643606892564364 0.025
    vertex 0.7499999999999991 -0.2499999999999991 0.025
  endloop
endfacet
facet normal 0 0 1
  outer loop
    vertex 1.000000000000001 0.3535533905932737 0.025
    vertex 1.039359842682194 0.0950230660162249 0.025
    vertex 1.25 0.2499999999999998 0.025
  endloop
endfacet
facet normal 0 0 1
  outer loop
    vertex 0.999999999999999 -0.3535533905932737 0.025
    vertex 0.9467992134109711 -0.1284380605121493 0.025
    vertex 0.7499999999999991 -0.2499999999999991 0.025
  endloop
endfacet
facet normal 0 0 1
  outer loop
    vertex 1.353553390593274 -8.65956056235493e-17 0.025
    vertex 1.158279847964723 -0.06726008833459145 0.025
    vertex 1.25 -0.2500000000000004 0.025
  endloop
endfacet
facet normal 0 0 1
  outer loop
    vertex 0.6464466094067263 9.853532780220395e-16 0.025
    vertex 0.8405191816143728 0.0643606892564364 0.025
    vertex 0.7500000000000006 0.2500000000000006 0.025
  endloop
endfacet
facet normal 0 0 1
  outer loop
    vertex 0.9467992134109711 -0.1284380605121493 0.025
    vertex 1.158279847964723 -0.06726008833459145 0.025
    vertex 1.039359842682194 0.0950230660162249 0.025
  endloop
endfacet
facet normal 0 0 1
  outer loop
    vertex 1.039359842682194 0.0950230660162249 0.025
    vertex 0.8405191816143728 0.0643606892564364 0.025
    vertex 0.9467992134109711 -0.1284380605121493 0.025
  endloop
endfacet
facet normal -0 0 -1
  outer loop
    vertex 1.353553390593274 -8.65956056235493e-17 -0.025
    vertex 1.25 -0.2500000000000004 -0.025
    vertex 1.159480818385627 0.06436068925643591 -0.025
  endloop
endfacet
facet normal 0 0 -1
  outer loop
    vertex 0.6464466094067263 9.853532780220395e-16 -0.025
    vertex 0.7500000000000006 0.2500000000000006 -0.025
    vertex 0.8417201520352764 -0.06726008833459081 -0.025
  endloop
endfacet
facet normal 0 0 -1
  outer loop
    vertex 0.7500000000000006 0.2500000000000006 -0.025
    vertex 0.9606401573178058 0.09502306601622501 -0.025
    vertex 0.8417201520352764 -0.06726008833459081 -0.025
  endloop
endfacet
facet normal 0 0 -1
  outer loop
    vertex 0.999999999999999 -0.3535533905932737 -0.025
    vertex 0.7499999999999991 -0.2499999999999991 -0.025
    vertex 0.8417201520352764 -0.06726008833459081 -0.025
  endloop
endfacet
facet normal 0 0 -1
  outer loop
    vertex 1.000000000000001 0.3535533905932737 -0.025
    vertex 1.25 0.2499999999999998 -0.025
    vertex 1.159480818385627 0.06436068925643591 -0.025
  endloop
endfacet
facet normal 0 0 -1
  outer loop
    vertex 0.9606401573178058 0.09502306601622501 -0.025
    vertex 1.000000000000001 0.3535533905932737 -0.025
    vertex 1.159480818385627 0.06436068925643591 -0.025
  endloop
endfacet
facet normal 0 0 -1
  outer loop
    vertex 1.25 -0.2500000000000004 -0.025
    vertex 1.053200786589028 -0.1284380605121496 -0.025
    vertex 1.159480818385627 0.06436068925643591 -0.025
  endloop
endfacet
facet normal -0 0 -1
  outer loop
    vertex 1.053200786589028 -0.1284380605121496 -0.025
    vertex 0.999999999999999 -0.3535533905932737 -0.025
    vertex 0.8417201520352764 -0.06726008833459081 -0.025
  endloop
endfacet
facet normal 0 0 -1
  outer loop
    vertex 0.7500000000000006 0.2500000000000006 -0.025
    vertex 1.000000000000001 0.3535533905932737 -0.025
    vertex 0.9606401573178058 0.09502306601622501 -0.025
  endloop
endfacet
facet normal -0 0 -1
  outer loop
    vertex 1.25 -0.2500000000000004 -0.025
    vertex 0.999999999999999 -0.3535533905932737 -0.025
    vertex 1.053200786589028 -0.1284380605121496 -0.025
  endloop
endfacet
facet normal 0 -0 -1
  outer loop
    vertex 1.25 0.2499999999999998 -0.025
    vertex 1.353553390593274 -8.65956056235493e-17 -0.025
    vertex 1.159480818385627 0.06436068925643591 -0.025
  endloop
endfacet
facet normal 0 0 -1
  outer loop
    vertex 0.7499999999999991 -0.2499999999999991 -0.025
    vertex 0.6464466094067263 9.853532780220395e-16 -0.025
    vertex 0.8417201520352764 -0.06726008833459081 -0.025
  endloop
endfacet
facet normal 0 0 -1
  outer loop
    vertex 1.053200786589028 -0.1284380605121496 -0.025
    vertex 0.9606401573178058 0.09502306601622501 -0.025
    vertex 1.159480818385627 0.06436068925643591 -0.025
  endloop
endfacet
facet normal 0 -0 -1
  outer loop
    vertex 0.9606401573178058 0.09502306601622501 -0.025
    vertex 1.053200786589028 -0.1284380605121496 -0.025
    vertex 0.8417201520352764 -0.06726008833459081 -0.025
  endloop
endfacet
endsolid Created by Gmsh
