solid Created by Gmsh
facet normal 0.965926 0.258819 -0
  outer loop
    vertex 1.25 -1.224646799147353e-16 0
    vertex 1.183012701892219 0.2500000000000003 0
    vertex 1.25 -1.224646799147353e-16 0.005
  endloop
endfacet
facet normal 0.965926 -0.258819 0
  outer loop
    vertex 1.183012701892219 -0.2499999999999998 0
    vertex 1.25 -1.224646799147353e-16 0
    vertex 1.25 -1.224646799147353e-16 0.005
  endloop
endfacet
facet normal 0.965926 0.258819 0
  outer loop
    vertex 1.25 -1.224646799147353e-16 0.005
    vertex 1.183012701892219 0.2500000000000003 0
    vertex 1.183012701892219 0.2500000000000003 0.005
  endloop
endfacet
facet normal 0.965926 -0.258819 0
  outer loop
    vertex 1.183012701892219 -0.2499999999999998 0.005
    vertex 1.183012701892219 -0.2499999999999998 0
    vertex 1.25 -1.224646799147353e-16 0.005
  endloop
endfacet
facet normal 0.707107 0.707107 0
  outer loop
    vertex 1.183012701892219 0.2500000000000003 0.005
    vertex 0.9999999999999993 0.4330127018922197 0
    vertex 0.9999999999999993 0.4330127018922197 0.005
  endloop
endfacet
facet normal 0.707107 0.707107 -0
  outer loop
    vertex 1.183012701892219 0.2500000000000003 0
    vertex 0.9999999999999993 0.4330127018922197 0
    vertex 1.183012701892219 0.2500000000000003 0.005
  endloop
endfacet
facet normal 0.258819 0.965926 0
  outer loop
    vertex 0.9999999999999993 0.4330127018922197 0.005
    vertex 0.7499999999999987 0.5 0
    vertex 0.7499999999999987 0.5 0.005
  endloop
endfacet
facet normal 0.258819 0.965926 -0
  outer loop
    vertex 0.9999999999999993 0.4330127018922197 0
    vertex 0.7499999999999987 0.5 0
    vertex 0.9999999999999993 0.4330127018922197 0.005
  endloop
endfacet
facet normal -0.258819 0.965926 0
  outer loop
    vertex 0.7499999999999987 0.5 0
    vertex 0.4999999999999984 0.4330127018922184 0.005
    vertex 0.7499999999999987 0.5 0.005
  endloop
endfacet
facet normal -0.707107 0.707107 0
  outer loop
    vertex 0.4999999999999984 0.4330127018922184 0.005
    vertex 0.4999999999999984 0.4330127018922184 0
    vertex 0.3169872981077798 0.2499999999999984 0.005
  endloop
endfacet
facet normal -0.258819 0.965926 0
  outer loop
    vertex 0.7499999999999987 0.5 0
    vertex 0.4999999999999984 0.4330127018922184 0
    vertex 0.4999999999999984 0.4330127018922184 0.005
  endloop
endfacet
facet normal -0.965926 0.258819 0
  outer loop
    vertex 0.3169872981077798 0.2499999999999984 0.005
    vertex 0.25 -1.27103528959282e-15 0
    vertex 0.25 -1.27103528959282e-15 0.005
  endloop
endfacet
facet normal -0.707107 0.707107 0
  outer loop
    vertex 0.4999999999999984 0.4330127018922184 0
    vertex 0.3169872981077798 0.2499999999999984 0
    vertex 0.3169872981077798 0.2499999999999984 0.005
  endloop
endfacet
facet normal -0.965926 0.258819 0
  outer loop
    vertex 0.3169872981077798 0.2499999999999984 0.005
    vertex 0.3169872981077798 0.2499999999999984 0
    vertex 0.25 -1.27103528959282e-15 0
  endloop
endfacet
facet normal -0.965926 -0.258819 0
  outer loop
    vertex 0.25 -1.27103528959282e-15 0.005
    vertex 0.3169872981077811 -0.2500000000000008 0
    vertex 0.3169872981077811 -0.2500000000000008 0.005
  endloop
endfacet
facet normal -0.965926 -0.258819 0
  outer loop
    vertex 0.25 -1.27103528959282e-15 0
    vertex 0.3169872981077811 -0.2500000000000008 0
    vertex 0.25 -1.27103528959282e-15 0.005
  endloop
endfacet
facet normal -0.707107 -0.707107 0
  outer loop
    vertex 0.3169872981077811 -0.2500000000000008 0.005
    vertex 0.5000000000000006 -0.4330127018922196 0
    vertex 0.5000000000000006 -0.4330127018922196 0.005
  endloop
endfacet
facet normal -0.707107 -0.707107 0
  outer loop
    vertex 0.3169872981077811 -0.2500000000000008 0
    vertex 0.5000000000000006 -0.4330127018922196 0
    vertex 0.3169872981077811 -0.2500000000000008 0.005
  endloop
endfacet
facet normal -0.258819 -0.965926 -0
  outer loop
    vertex 0.5000000000000006 -0.4330127018922196 0.005
    vertex 0.5000000000000006 -0.4330127018922196 0
    vertex 0.7500000000000008 -0.5 0.005
  endloop
endfacet
facet normal 0.258819 -0.965926 0
  outer loop
    vertex 0.7500000000000008 -0.5 0.005
    vertex 0.7500000000000008 -0.5 0
    vertex 1 -0.4330127018922191 0.005
  endloop
endfacet
facet normal -0.258819 -0.965926 0
  outer loop
    vertex 0.5000000000000006 -0.4330127018922196 0
    vertex 0.7500000000000008 -0.5 0
    vertex 0.7500000000000008 -0.5 0.005
  endloop
endfacet
facet normal 0.707107 -0.707107 0
  outer loop
    vertex 1 -0.4330127018922191 0.005
    vertex 1 -0.4330127018922191 0
    vertex 1.183012701892219 -0.2499999999999998 0.005
  endloop
endfacet
facet normal 0.258819 -0.965926 0
  outer loop
    vertex 0.7500000000000008 -0.5 0
    vertex 1 -0.4330127018922191 0
    vertex 1 -0.4330127018922191 0.005
  endloop
endfacet
facet normal 0.707107 -0.707107 0
  outer loop
    vertex 1 -0.4330127018922191 0
    vertex 1.183012701892219 -0.2499999999999998 0
    vertex 1.183012701892219 -0.2499999999999998 0.005
  endloop
endfacet
facet normal 0 0 1
  outer loop
    vertex 1.183012701892219 0.2500000000000003 0.005
    vertex 1.016575057683491 0.1428571428571429 0.005
    vertex 1.25 -1.224646799147353e-16 0.005
  endloop
endfacet
facet normal 0 0 1
  outer loop
    vertex 1.25 -1.224646799147353e-16 0.005
    vertex 1.086328802731775 -0.0910439109918415 0.005
    vertex 1.183012701892219 -0.2499999999999998 0.005
  endloop
endfacet
facet normal 0 0 1
  outer loop
    vertex 1.016575057683491 0.1428571428571429 0.005
    vertex 1.086328802731775 -0.0910439109918415 0.005
    vertex 1.25 -1.224646799147353e-16 0.005
  endloop
endfacet
facet normal 0 0 1
  outer loop
    vertex 0.9999999999999993 0.4330127018922197 0.005
    vertex 1.016575057683491 0.1428571428571429 0.005
    vertex 1.183012701892219 0.2500000000000003 0.005
  endloop
endfacet
facet normal 0 0 1
  outer loop
    vertex 0.7499999999999987 0.5 0.005
    vertex 0.8601211399947096 0.2988938062904402 0.005
    vertex 0.9999999999999993 0.4330127018922197 0.005
  endloop
endfacet
facet normal 0 0 1
  outer loop
    vertex 0.9999999999999993 0.4330127018922197 0.005
    vertex 0.8601211399947096 0.2988938062904402 0.005
    vertex 1.016575057683491 0.1428571428571429 0.005
  endloop
endfacet
facet normal -0 0 1
  outer loop
    vertex 0.4999999999999984 0.4330127018922184 0.005
    vertex 0.6971687836487024 0.2805021169820361 0.005
    vertex 0.7499999999999987 0.5 0.005
  endloop
endfacet
facet normal 0 0 1
  outer loop
    vertex 0.6971687836487024 0.2805021169820361 0.005
    vertex 0.8601211399947096 0.2988938062904402 0.005
    vertex 0.7499999999999987 0.5 0.005
  endloop
endfacet
facet normal -0 0 1
  outer loop
    vertex 0.3169872981077798 0.2499999999999984 0.005
    vertex 0.5287749551350617 0.1646723119520966 0.005
    vertex 0.4999999999999984 0.4330127018922184 0.005
  endloop
endfacet
facet normal 0 0 1
  outer loop
    vertex 0.4999999999999984 0.4330127018922184 0.005
    vertex 0.5287749551350617 0.1646723119520966 0.005
    vertex 0.6971687836487024 0.2805021169820361 0.005
  endloop
endfacet
facet normal 0 0 1
  outer loop
    vertex 0.25 -1.27103528959282e-15 0.005
    vertex 0.3989405633107103 0.0869212534610781 0.005
    vertex 0.3169872981077798 0.2499999999999984 0.005
  endloop
endfacet
facet normal 0 0 1
  outer loop
    vertex 0.3169872981077798 0.2499999999999984 0.005
    vertex 0.3989405633107103 0.0869212534610781 0.005
    vertex 0.5287749551350617 0.1646723119520966 0.005
  endloop
endfacet
facet normal 0 -0 1
  outer loop
    vertex 0.3169872981077811 -0.2500000000000008 0.005
    vertex 0.4999999999999998 -0.06698729810778134 0.005
    vertex 0.25 -1.27103528959282e-15 0.005
  endloop
endfacet
facet normal 0 0 1
  outer loop
    vertex 0.4999999999999998 -0.06698729810778134 0.005
    vertex 0.3989405633107103 0.0869212534610781 0.005
    vertex 0.25 -1.27103528959282e-15 0.005
  endloop
endfacet
facet normal 0 0 1
  outer loop
    vertex 0.5000000000000006 -0.4330127018922196 0.005
    vertex 0.4999999999999998 -0.06698729810778134 0.005
    vertex 0.3169872981077811 -0.2500000000000008 0.005
  endloop
endfacet
facet normal 0 0 1
  outer loop
    vertex 0.7500000000000008 -0.5 0.005
    vertex 0.6611548700566107 -0.2586009274397496 0.005
    vertex 0.5000000000000006 -0.4330127018922196 0.005
  endloop
endfacet
facet normal 0 -0 1
  outer loop
    vertex 0.5000000000000006 -0.4330127018922196 0.005
    vertex 0.6611548700566107 -0.2586009274397496 0.005
    vertex 0.4999999999999998 -0.06698729810778134 0.005
  endloop
endfacet
facet normal 0 0 1
  outer loop
    vertex 1 -0.4330127018922191 0.005
    vertex 0.8444978830179637 -0.2693375672974064 0.005
    vertex 0.7500000000000008 -0.5 0.005
  endloop
endfacet
facet normal 0 0 1
  outer loop
    vertex 0.8444978830179637 -0.2693375672974064 0.005
    vertex 0.6611548700566107 -0.2586009274397496 0.005
    vertex 0.7500000000000008 -0.5 0.005
  endloop
endfacet
facet normal 0 0 1
  outer loop
    vertex 1.183012701892219 -0.2499999999999998 0.005
    vertex 1.002278881295495 -0.2382551562375078 0.005
    vertex 1 -0.4330127018922191 0.005
  endloop
endfacet
facet normal 0 -0 1
  outer loop
    vertex 1 -0.4330127018922191 0.005
    vertex 1.002278881295495 -0.2382551562375078 0.005
    vertex 0.8444978830179637 -0.2693375672974064 0.005
  endloop
endfacet
facet normal 0 0 1
  outer loop
    vertex 1.086328802731775 -0.0910439109918415 0.005
    vertex 1.002278881295495 -0.2382551562375078 0.005
    vertex 1.183012701892219 -0.2499999999999998 0.005
  endloop
endfacet
facet normal 0 0 1
  outer loop
    vertex 0.4999999999999998 -0.06698729810778134 0.005
    vertex 0.7112764672650883 -0.02366706990134063 0.005
    vertex 0.5287749551350617 0.1646723119520966 0.005
  endloop
endfacet
facet normal 0 0 1
  outer loop
    vertex 0.5287749551350617 0.1646723119520966 0.005
    vertex 0.3989405633107103 0.0869212534610781 0.005
    vertex 0.4999999999999998 -0.06698729810778134 0.005
  endloop
endfacet
facet normal -0 0 1
  outer loop
    vertex 0.4999999999999998 -0.06698729810778134 0.005
    vertex 0.6611548700566107 -0.2586009274397496 0.005
    vertex 0.7112764672650883 -0.02366706990134063 0.005
  endloop
endfacet
facet normal 0 0 1
  outer loop
    vertex 1.016575057683491 0.1428571428571429 0.005
    vertex 0.916303158439195 -0.05689158197502514 0.005
    vertex 1.086328802731775 -0.0910439109918415 0.005
  endloop
endfacet
facet normal -0 0 1
  outer loop
    vertex 0.8368618586413571 0.1380970697208027 0.005
    vertex 0.916303158439195 -0.05689158197502514 0.005
    vertex 1.016575057683491 0.1428571428571429 0.005
  endloop
endfacet
facet normal 0 0 1
  outer loop
    vertex 1.016575057683491 0.1428571428571429 0.005
    vertex 0.8601211399947096 0.2988938062904402 0.005
    vertex 0.8368618586413571 0.1380970697208027 0.005
  endloop
endfacet
facet normal -0 0 1
  outer loop
    vertex 0.5287749551350617 0.1646723119520966 0.005
    vertex 0.7112764672650883 -0.02366706990134063 0.005
    vertex 0.6971687836487024 0.2805021169820361 0.005
  endloop
endfacet
facet normal 0 -0 1
  outer loop
    vertex 0.7112764672650883 -0.02366706990134063 0.005
    vertex 0.8368618586413571 0.1380970697208027 0.005
    vertex 0.6971687836487024 0.2805021169820361 0.005
  endloop
endfacet
facet normal 0 -0 1
  outer loop
    vertex 0.8368618586413571 0.1380970697208027 0.005
    vertex 0.8601211399947096 0.2988938062904402 0.005
    vertex 0.6971687836487024 0.2805021169820361 0.005
  endloop
endfacet
facet normal 0 0 1
  outer loop
    vertex 1.002278881295495 -0.2382551562375078 0.005
    vertex 0.916303158439195 -0.05689158197502514 0.005
    vertex 0.8444978830179637 -0.2693375672974064 0.005
  endloop
endfacet
facet normal 0 0 1
  outer loop
    vertex 0.7112764672650883 -0.02366706990134063 0.005
    vertex 0.6611548700566107 -0.2586009274397496 0.005
    vertex 0.8444978830179637 -0.2693375672974064 0.005
  endloop
endfacet
facet normal 0 -0 1
  outer loop
    vertex 0.8444978830179637 -0.2693375672974064 0.005
    vertex 0.916303158439195 -0.05689158197502514 0.005
    vertex 0.7112764672650883 -0.02366706990134063 0.005
  endloop
endfacet
facet normal 0 0 1
  outer loop
    vertex 1.086328802731775 -0.0910439109918415 0.005
    vertex 0.916303158439195 -0.05689158197502514 0.005
    vertex 1.002278881295495 -0.2382551562375078 0.005
  endloop
endfacet
facet normal -0 0 1
  outer loop
    vertex 0.7112764672650883 -0.02366706990134063 0.005
    vertex 0.916303158439195 -0.05689158197502514 0.005
    vertex 0.8368618586413571 0.1380970697208027 0.005
  endloop
endfacet
facet normal 0 -0 -1
  outer loop
    vertex 1.183012701892219 0.2500000000000003 0
    vertex 1.25 -1.224646799147353e-16 0
    vertex 1.075995789956206 0.0703843562885612 0
  endloop
endfacet
facet normal 0 0 -1
  outer loop
    vertex 1.25 -1.224646799147353e-16 0
    vertex 1.183012701892219 -0.2499999999999998 0
    vertex 1.084728809014821 -0.0853630311349196 0
  endloop
endfacet
facet normal 0 0 -1
  outer loop
    vertex 1.075995789956206 0.0703843562885612 0
    vertex 1.25 -1.224646799147353e-16 0
    vertex 1.084728809014821 -0.0853630311349196 0
  endloop
endfacet
facet normal 0 -0 -1
  outer loop
    vertex 0.9999999999999993 0.4330127018922197 0
    vertex 1.183012701892219 0.2500000000000003 0
    vertex 0.9453237827870091 0.1934281323889154 0
  endloop
endfacet
facet normal 0 0 -1
  outer loop
    vertex 0.9453237827870091 0.1934281323889154 0
    vertex 1.183012701892219 0.2500000000000003 0
    vertex 1.075995789956206 0.0703843562885612 0
  endloop
endfacet
facet normal 0 0 -1
  outer loop
    vertex 0.7499999999999987 0.5 0
    vertex 0.9999999999999993 0.4330127018922197 0
    vertex 0.760164117464562 0.2945433905490531 0
  endloop
endfacet
facet normal 0 0 -1
  outer loop
    vertex 0.9999999999999993 0.4330127018922197 0
    vertex 0.9453237827870091 0.1934281323889154 0
    vertex 0.760164117464562 0.2945433905490531 0
  endloop
endfacet
facet normal 0 0 -1
  outer loop
    vertex 0.4999999999999984 0.4330127018922184 0
    vertex 0.7499999999999987 0.5 0
    vertex 0.760164117464562 0.2945433905490531 0
  endloop
endfacet
facet normal 0 0 -1
  outer loop
    vertex 0.3169872981077798 0.2499999999999984 0
    vertex 0.4999999999999984 0.4330127018922184 0
    vertex 0.5466259624995806 0.1934281323889147 0
  endloop
endfacet
facet normal 0 0 -1
  outer loop
    vertex 0.5466259624995806 0.1934281323889147 0
    vertex 0.4999999999999984 0.4330127018922184 0
    vertex 0.760164117464562 0.2945433905490531 0
  endloop
endfacet
facet normal 0 0 -1
  outer loop
    vertex 0.25 -1.27103528959282e-15 0
    vertex 0.3169872981077798 0.2499999999999984 0
    vertex 0.4084936490538899 0.09150635094610865 0
  endloop
endfacet
facet normal 0 0 -1
  outer loop
    vertex 0.3169872981077798 0.2499999999999984 0
    vertex 0.5466259624995806 0.1934281323889147 0
    vertex 0.4084936490538899 0.09150635094610865 0
  endloop
endfacet
facet normal 0 0 -1
  outer loop
    vertex 0.3169872981077811 -0.2500000000000008 0
    vertex 0.25 -1.27103528959282e-15 0
    vertex 0.4084936490538905 -0.09150635094611043 0
  endloop
endfacet
facet normal 0 0 -1
  outer loop
    vertex 0.4084936490538905 -0.09150635094611043 0
    vertex 0.25 -1.27103528959282e-15 0
    vertex 0.4084936490538899 0.09150635094610865 0
  endloop
endfacet
facet normal 0 0 -1
  outer loop
    vertex 0.5000000000000006 -0.4330127018922196 0
    vertex 0.3169872981077811 -0.2500000000000008 0
    vertex 0.5467014531417148 -0.1936297632095828 0
  endloop
endfacet
facet normal -0 0 -1
  outer loop
    vertex 0.5467014531417148 -0.1936297632095828 0
    vertex 0.3169872981077811 -0.2500000000000008 0
    vertex 0.4084936490538905 -0.09150635094611043 0
  endloop
endfacet
facet normal 0 0 -1
  outer loop
    vertex 0.7500000000000008 -0.5 0
    vertex 0.5000000000000006 -0.4330127018922196 0
    vertex 0.7377404735808357 -0.2957531754730551 0
  endloop
endfacet
facet normal 0 0 -1
  outer loop
    vertex 0.5000000000000006 -0.4330127018922196 0
    vertex 0.5467014531417148 -0.1936297632095828 0
    vertex 0.7377404735808357 -0.2957531754730551 0
  endloop
endfacet
facet normal -0 0 -1
  outer loop
    vertex 1 -0.4330127018922191 0
    vertex 0.7500000000000008 -0.5 0
    vertex 0.7377404735808357 -0.2957531754730551 0
  endloop
endfacet
facet normal -0 0 -1
  outer loop
    vertex 1.183012701892219 -0.2499999999999998 0
    vertex 1 -0.4330127018922191 0
    vertex 0.9453992734291428 -0.1936297632095823 0
  endloop
endfacet
facet normal 0 -0 -1
  outer loop
    vertex 0.9453992734291428 -0.1936297632095823 0
    vertex 1 -0.4330127018922191 0
    vertex 0.7377404735808357 -0.2957531754730551 0
  endloop
endfacet
facet normal 0 0 -1
  outer loop
    vertex 1.183012701892219 -0.2499999999999998 0
    vertex 0.9453992734291428 -0.1936297632095823 0
    vertex 1.084728809014821 -0.0853630311349196 0
  endloop
endfacet
facet normal -0 0 -1
  outer loop
    vertex 1.084728809014821 -0.0853630311349196 0
    vertex 0.9453992734291428 -0.1936297632095823 0
    vertex 0.9221022767071509 -0.002442200020447365 0
  endloop
endfacet
facet normal 0 -0 -1
  outer loop
    vertex 0.7471404286702867 -0.09334882306143751 0
    vertex 0.9453992734291428 -0.1936297632095823 0
    vertex 0.7377404735808357 -0.2957531754730551 0
  endloop
endfacet
facet normal 0 0 -1
  outer loop
    vertex 0.9453992734291428 -0.1936297632095823 0
    vertex 0.7471404286702867 -0.09334882306143751 0
    vertex 0.9221022767071509 -0.002442200020447365 0
  endloop
endfacet
facet normal 0 0 -1
  outer loop
    vertex 0.5669872981077807 -5.273559366969494e-16 0
    vertex 0.5466259624995806 0.1934281323889147 0
    vertex 0.7340255763854405 0.09387592860577862 0
  endloop
endfacet
facet normal 0 -0 -1
  outer loop
    vertex 0.5466259624995806 0.1934281323889147 0
    vertex 0.5669872981077807 -5.273559366969494e-16 0
    vertex 0.4084936490538899 0.09150635094610865 0
  endloop
endfacet
facet normal 0 0 -1
  outer loop
    vertex 0.7340255763854405 0.09387592860577862 0
    vertex 0.5466259624995806 0.1934281323889147 0
    vertex 0.760164117464562 0.2945433905490531 0
  endloop
endfacet
facet normal 0 0 -1
  outer loop
    vertex 0.5467014531417148 -0.1936297632095828 0
    vertex 0.4084936490538905 -0.09150635094611043 0
    vertex 0.5669872981077807 -5.273559366969494e-16 0
  endloop
endfacet
facet normal 0 0 -1
  outer loop
    vertex 0.5467014531417148 -0.1936297632095828 0
    vertex 0.5669872981077807 -5.273559366969494e-16 0
    vertex 0.7471404286702867 -0.09334882306143751 0
  endloop
endfacet
facet normal 0 0 -1
  outer loop
    vertex 0.5467014531417148 -0.1936297632095828 0
    vertex 0.7471404286702867 -0.09334882306143751 0
    vertex 0.7377404735808357 -0.2957531754730551 0
  endloop
endfacet
facet normal 0 -0 -1
  outer loop
    vertex 0.9453237827870091 0.1934281323889154 0
    vertex 1.075995789956206 0.0703843562885612 0
    vertex 0.9221022767071509 -0.002442200020447365 0
  endloop
endfacet
facet normal -0 0 -1
  outer loop
    vertex 0.9453237827870091 0.1934281323889154 0
    vertex 0.7340255763854405 0.09387592860577862 0
    vertex 0.760164117464562 0.2945433905490531 0
  endloop
endfacet
facet normal 0 0 -1
  outer loop
    vertex 0.7340255763854405 0.09387592860577862 0
    vertex 0.9453237827870091 0.1934281323889154 0
    vertex 0.9221022767071509 -0.002442200020447365 0
  endloop
endfacet
facet normal 0 -0 -1
  outer loop
    vertex 1.075995789956206 0.0703843562885612 0
    vertex 1.084728809014821 -0.0853630311349196 0
    vertex 0.9221022767071509 -0.002442200020447365 0
  endloop
endfacet
facet normal -0 0 -1
  outer loop
    vertex 0.5669872981077807 -5.273559366969494e-16 0
    vertex 0.4084936490538905 -0.09150635094611043 0
    vertex 0.4084936490538899 0.09150635094610865 0
  endloop
endfacet
facet normal 0 0 -1
  outer loop
    vertex 0.7471404286702867 -0.09334882306143751 0
    vertex 0.5669872981077807 -5.273559366969494e-16 0
    vertex 0.7340255763854405 0.09387592860577862 0
  endloop
endfacet
facet normal 0 0 -1
  outer loop
    vertex 0.7471404286702867 -0.09334882306143751 0
    vertex 0.7340255763854405 0.09387592860577862 0
    vertex 0.9221022767071509 -0.002442200020447365 0
  endloop
endfacet
facet normal 0.965926 -0.258819 0
  outer loop
    vertex -0.3169872981077806 -0.2499999999999998 0.005
    vertex -0.25 -1.224646799147353e-16 0
    vertex -0.25 -1.224646799147353e-16 0.005
  endloop
endfacet
facet normal 0.965926 0.258819 0
  outer loop
    vertex -0.25 -1.224646799147353e-16 0.005
    vertex -0.25 -1.224646799147353e-16 0
    vertex -0.3169872981077809 0.2500000000000003 0
  endloop
endfacet
facet normal 0.965926 0.258819 0
  outer loop
    vertex -0.25 -1.224646799147353e-16 0.005
    vertex -0.3169872981077809 0.2500000000000003 0
    vertex -0.3169872981077809 0.2500000000000003 0.005
  endloop
endfacet
facet normal 0.965926 -0.258819 0
  outer loop
    vertex -0.3169872981077806 -0.2499999999999998 0.005
    vertex -0.3169872981077806 -0.2499999999999998 0
    vertex -0.25 -1.224646799147353e-16 0
  endloop
endfacet
facet normal 0.707107 0.707107 -0
  outer loop
    vertex -0.3169872981077809 0.2500000000000003 0
    vertex -0.5000000000000007 0.4330127018922197 0.005
    vertex -0.3169872981077809 0.2500000000000003 0.005
  endloop
endfacet
facet normal 0.258819 0.965926 0
  outer loop
    vertex -0.5000000000000007 0.4330127018922197 0.005
    vertex -0.5000000000000007 0.4330127018922197 0
    vertex -0.7500000000000013 0.5 0.005
  endloop
endfacet
facet normal 0.707107 0.707107 0
  outer loop
    vertex -0.3169872981077809 0.2500000000000003 0
    vertex -0.5000000000000007 0.4330127018922197 0
    vertex -0.5000000000000007 0.4330127018922197 0.005
  endloop
endfacet
facet normal -0.258819 0.965926 0
  outer loop
    vertex -0.7500000000000013 0.5 0.005
    vertex -1.000000000000002 0.4330127018922184 0
    vertex -1.000000000000002 0.4330127018922184 0.005
  endloop
endfacet
facet normal 0.258819 0.965926 0
  outer loop
    vertex -0.5000000000000007 0.4330127018922197 0
    vertex -0.7500000000000013 0.5 0
    vertex -0.7500000000000013 0.5 0.005
  endloop
endfacet
facet normal -0.258819 0.965926 0
  outer loop
    vertex -0.7500000000000013 0.5 0
    vertex -1.000000000000002 0.4330127018922184 0
    vertex -0.7500000000000013 0.5 0.005
  endloop
endfacet
facet normal -0.707107 0.707107 0
  outer loop
    vertex -1.000000000000002 0.4330127018922184 0.005
    vertex -1.18301270189222 0.2499999999999984 0
    vertex -1.18301270189222 0.2499999999999984 0.005
  endloop
endfacet
facet normal -0.707107 0.707107 0
  outer loop
    vertex -1.000000000000002 0.4330127018922184 0
    vertex -1.18301270189222 0.2499999999999984 0
    vertex -1.000000000000002 0.4330127018922184 0.005
  endloop
endfacet
facet normal -0.965926 0.258819 0
  outer loop
    vertex -1.18301270189222 0.2499999999999984 0.005
    vertex -1.25 -1.27103528959282e-15 0
    vertex -1.25 -1.27103528959282e-15 0.005
  endloop
endfacet
facet normal -0.965926 0.258819 0
  outer loop
    vertex -1.18301270189222 0.2499999999999984 0
    vertex -1.25 -1.27103528959282e-15 0
    vertex -1.18301270189222 0.2499999999999984 0.005
  endloop
endfacet
facet normal -0.965926 -0.258819 0
  outer loop
    vertex -1.25 -1.27103528959282e-15 0.005
    vertex -1.183012701892219 -0.2500000000000008 0
    vertex -1.183012701892219 -0.2500000000000008 0.005
  endloop
endfacet
facet normal -0.965926 -0.258819 0
  outer loop
    vertex -1.25 -1.27103528959282e-15 0
    vertex -1.183012701892219 -0.2500000000000008 0
    vertex -1.25 -1.27103528959282e-15 0.005
  endloop
endfacet
facet normal -0.707107 -0.707107 0
  outer loop
    vertex -1.183012701892219 -0.2500000000000008 0.005
    vertex -0.9999999999999994 -0.4330127018922196 0
    vertex -0.9999999999999994 -0.4330127018922196 0.005
  endloop
endfacet
facet normal -0.707107 -0.707107 0
  outer loop
    vertex -1.183012701892219 -0.2500000000000008 0
    vertex -0.9999999999999994 -0.4330127018922196 0
    vertex -1.183012701892219 -0.2500000000000008 0.005
  endloop
endfacet
facet normal -0.258819 -0.965926 0
  outer loop
    vertex -0.9999999999999994 -0.4330127018922196 0
    vertex -0.7499999999999992 -0.5 0.005
    vertex -0.9999999999999994 -0.4330127018922196 0.005
  endloop
endfacet
facet normal 0.258819 -0.965926 0
  outer loop
    vertex -0.7499999999999992 -0.5 0.005
    vertex -0.7499999999999992 -0.5 0
    vertex -0.4999999999999996 -0.4330127018922191 0.005
  endloop
endfacet
facet normal -0.258819 -0.965926 0
  outer loop
    vertex -0.9999999999999994 -0.4330127018922196 0
    vertex -0.7499999999999992 -0.5 0
    vertex -0.7499999999999992 -0.5 0.005
  endloop
endfacet
facet normal 0.707107 -0.707107 0
  outer loop
    vertex -0.4999999999999996 -0.4330127018922191 0.005
    vertex -0.4999999999999996 -0.4330127018922191 0
    vertex -0.3169872981077806 -0.2499999999999998 0.005
  endloop
endfacet
facet normal 0.258819 -0.965926 0
  outer loop
    vertex -0.7499999999999992 -0.5 0
    vertex -0.4999999999999996 -0.4330127018922191 0
    vertex -0.4999999999999996 -0.4330127018922191 0.005
  endloop
endfacet
facet normal 0.707107 -0.707107 0
  outer loop
    vertex -0.4999999999999996 -0.4330127018922191 0
    vertex -0.3169872981077806 -0.2499999999999998 0
    vertex -0.3169872981077806 -0.2499999999999998 0.005
  endloop
endfacet
facet normal 0 0 1
  outer loop
    vertex -0.3169872981077809 0.2500000000000003 0.005
    vertex -0.4853811266214216 0.06399576603592695 0.005
    vertex -0.25 -1.224646799147353e-16 0.005
  endloop
endfacet
facet normal 0 0 1
  outer loop
    vertex -0.25 -1.224646799147353e-16 0.005
    vertex -0.4718180801155379 -0.1548808154457764 0.005
    vertex -0.3169872981077806 -0.2499999999999998 0.005
  endloop
endfacet
facet normal 0 0 1
  outer loop
    vertex -0.4853811266214216 0.06399576603592695 0.005
    vertex -0.4718180801155379 -0.1548808154457764 0.005
    vertex -0.25 -1.224646799147353e-16 0.005
  endloop
endfacet
facet normal 0 0 1
  outer loop
    vertex -0.5000000000000007 0.4330127018922197 0.005
    vertex -0.6056624327025941 0.2500000000000001 0.005
    vertex -0.3169872981077809 0.2500000000000003 0.005
  endloop
endfacet
facet normal 0 0 1
  outer loop
    vertex -0.3169872981077809 0.2500000000000003 0.005
    vertex -0.6056624327025941 0.2500000000000001 0.005
    vertex -0.4853811266214216 0.06399576603592695 0.005
  endloop
endfacet
facet normal 0 0 1
  outer loop
    vertex -0.7500000000000013 0.5 0.005
    vertex -0.6056624327025941 0.2500000000000001 0.005
    vertex -0.5000000000000007 0.4330127018922197 0.005
  endloop
endfacet
facet normal -0 0 1
  outer loop
    vertex -1.000000000000002 0.4330127018922184 0.005
    vertex -0.813397459621557 0.2788675134594809 0.005
    vertex -0.7500000000000013 0.5 0.005
  endloop
endfacet
facet normal -0 0 1
  outer loop
    vertex -0.813397459621557 0.2788675134594809 0.005
    vertex -0.6056624327025941 0.2500000000000001 0.005
    vertex -0.7500000000000013 0.5 0.005
  endloop
endfacet
facet normal -0 0 1
  outer loop
    vertex -1.18301270189222 0.2499999999999984 0.005
    vertex -0.9699308928796337 0.1184418413850316 0.005
    vertex -1.000000000000002 0.4330127018922184 0.005
  endloop
endfacet
facet normal 0 0 1
  outer loop
    vertex -1.000000000000002 0.4330127018922184 0.005
    vertex -0.9699308928796337 0.1184418413850316 0.005
    vertex -0.813397459621557 0.2788675134594809 0.005
  endloop
endfacet
facet normal 0 0 1
  outer loop
    vertex -1.25 -1.27103528959282e-15 0.005
    vertex -0.9699308928796337 0.1184418413850316 0.005
    vertex -1.18301270189222 0.2499999999999984 0.005
  endloop
endfacet
facet normal 0 -0 1
  outer loop
    vertex -1.183012701892219 -0.2500000000000008 0.005
    vertex -1.023205080756888 -0.09831776887476107 0.005
    vertex -1.25 -1.27103528959282e-15 0.005
  endloop
endfacet
facet normal 0 -0 1
  outer loop
    vertex -1.023205080756888 -0.09831776887476107 0.005
    vertex -0.9699308928796337 0.1184418413850316 0.005
    vertex -1.25 -1.27103528959282e-15 0.005
  endloop
endfacet
facet normal 0 -0 1
  outer loop
    vertex -0.9999999999999994 -0.4330127018922196 0.005
    vertex -0.9041691226719253 -0.2721854380387362 0.005
    vertex -1.183012701892219 -0.2500000000000008 0.005
  endloop
endfacet
facet normal -0 0 1
  outer loop
    vertex -1.183012701892219 -0.2500000000000008 0.005
    vertex -0.9041691226719253 -0.2721854380387362 0.005
    vertex -1.023205080756888 -0.09831776887476107 0.005
  endloop
endfacet
facet normal 0 0 1
  outer loop
    vertex -0.7499999999999992 -0.5 0.005
    vertex -0.9041691226719253 -0.2721854380387362 0.005
    vertex -0.9999999999999994 -0.4330127018922196 0.005
  endloop
endfacet
facet normal 0 0 1
  outer loop
    vertex -0.4999999999999996 -0.4330127018922191 0.005
    vertex -0.6602208109008642 -0.2503253025759412 0.005
    vertex -0.7499999999999992 -0.5 0.005
  endloop
endfacet
facet normal 0 0 1
  outer loop
    vertex -0.6602208109008642 -0.2503253025759412 0.005
    vertex -0.9041691226719253 -0.2721854380387362 0.005
    vertex -0.7499999999999992 -0.5 0.005
  endloop
endfacet
facet normal 0 0 1
  outer loop
    vertex -0.3169872981077806 -0.2499999999999998 0.005
    vertex -0.4718180801155379 -0.1548808154457764 0.005
    vertex -0.4999999999999996 -0.4330127018922191 0.005
  endloop
endfacet
facet normal 0 -0 1
  outer loop
    vertex -0.4999999999999996 -0.4330127018922191 0.005
    vertex -0.4718180801155379 -0.1548808154457764 0.005
    vertex -0.6602208109008642 -0.2503253025759412 0.005
  endloop
endfacet
facet normal -0 0 1
  outer loop
    vertex -1.023205080756888 -0.09831776887476107 0.005
    vertex -0.8085761424815825 -0.1014568548894948 0.005
    vertex -0.9699308928796337 0.1184418413850316 0.005
  endloop
endfacet
facet normal 0 0 1
  outer loop
    vertex -1.023205080756888 -0.09831776887476107 0.005
    vertex -0.9041691226719253 -0.2721854380387362 0.005
    vertex -0.8085761424815825 -0.1014568548894948 0.005
  endloop
endfacet
facet normal 0 0 1
  outer loop
    vertex -0.6056624327025941 0.2500000000000001 0.005
    vertex -0.7147684145015637 0.08775248877626853 0.005
    vertex -0.4853811266214216 0.06399576603592695 0.005
  endloop
endfacet
facet normal 0 0 1
  outer loop
    vertex -0.7147684145015637 0.08775248877626853 0.005
    vertex -0.6183192450631612 -0.05994265424242527 0.005
    vertex -0.4853811266214216 0.06399576603592695 0.005
  endloop
endfacet
facet normal -0 0 1
  outer loop
    vertex -0.6183192450631612 -0.05994265424242527 0.005
    vertex -0.4718180801155379 -0.1548808154457764 0.005
    vertex -0.4853811266214216 0.06399576603592695 0.005
  endloop
endfacet
facet normal -0 0 1
  outer loop
    vertex -0.9699308928796337 0.1184418413850316 0.005
    vertex -0.7147684145015637 0.08775248877626853 0.005
    vertex -0.813397459621557 0.2788675134594809 0.005
  endloop
endfacet
facet normal 0 0 1
  outer loop
    vertex -0.813397459621557 0.2788675134594809 0.005
    vertex -0.7147684145015637 0.08775248877626853 0.005
    vertex -0.6056624327025941 0.2500000000000001 0.005
  endloop
endfacet
facet normal 0 0 1
  outer loop
    vertex -0.8085761424815825 -0.1014568548894948 0.005
    vertex -0.9041691226719253 -0.2721854380387362 0.005
    vertex -0.6602208109008642 -0.2503253025759412 0.005
  endloop
endfacet
facet normal 0 -0 1
  outer loop
    vertex -0.6602208109008642 -0.2503253025759412 0.005
    vertex -0.6183192450631612 -0.05994265424242527 0.005
    vertex -0.8085761424815825 -0.1014568548894948 0.005
  endloop
endfacet
facet normal 0 0 1
  outer loop
    vertex -0.6602208109008642 -0.2503253025759412 0.005
    vertex -0.4718180801155379 -0.1548808154457764 0.005
    vertex -0.6183192450631612 -0.05994265424242527 0.005
  endloop
endfacet
facet normal 0 0 1
  outer loop
    vertex -0.9699308928796337 0.1184418413850316 0.005
    vertex -0.8085761424815825 -0.1014568548894948 0.005
    vertex -0.7147684145015637 0.08775248877626853 0.005
  endloop
endfacet
facet normal 0 0 1
  outer loop
    vertex -0.8085761424815825 -0.1014568548894948 0.005
    vertex -0.6183192450631612 -0.05994265424242527 0.005
    vertex -0.7147684145015637 0.08775248877626853 0.005
  endloop
endfacet
facet normal 0 -0 -1
  outer loop
    vertex -0.3169872981077809 0.2500000000000003 0
    vertex -0.25 -1.224646799147353e-16 0
    vertex -0.4420527094960322 0.005511861053223059 0
  endloop
endfacet
facet normal -0 0 -1
  outer loop
    vertex -0.25 -1.224646799147353e-16 0
    vertex -0.3169872981077806 -0.2499999999999998 0
    vertex -0.4420527094960322 0.005511861053223059 0
  endloop
endfacet
facet normal 0 -0 -1
  outer loop
    vertex -0.5000000000000007 0.4330127018922197 0
    vertex -0.3169872981077809 0.2500000000000003 0
    vertex -0.5554012916815243 0.198165961005988 0
  endloop
endfacet
facet normal 0 0 -1
  outer loop
    vertex -0.5554012916815243 0.198165961005988 0
    vertex -0.3169872981077809 0.2500000000000003 0
    vertex -0.4420527094960322 0.005511861053223059 0
  endloop
endfacet
facet normal 0 0 -1
  outer loop
    vertex -0.7500000000000013 0.5 0
    vertex -0.5000000000000007 0.4330127018922197 0
    vertex -0.7399477717957869 0.3173040928319371 0
  endloop
endfacet
facet normal 0 0 -1
  outer loop
    vertex -0.5000000000000007 0.4330127018922197 0
    vertex -0.5554012916815243 0.198165961005988 0
    vertex -0.7399477717957869 0.3173040928319371 0
  endloop
endfacet
facet normal 0 0 -1
  outer loop
    vertex -1.000000000000002 0.4330127018922184 0
    vertex -0.7500000000000013 0.5 0
    vertex -0.7399477717957869 0.3173040928319371 0
  endloop
endfacet
facet normal 0 0 -1
  outer loop
    vertex -1.18301270189222 0.2499999999999984 0
    vertex -1.000000000000002 0.4330127018922184 0
    vertex -0.9119479727478392 0.1971687836487027 0
  endloop
endfacet
facet normal 0 0 -1
  outer loop
    vertex -0.9119479727478392 0.1971687836487027 0
    vertex -1.000000000000002 0.4330127018922184 0
    vertex -0.7399477717957869 0.3173040928319371 0
  endloop
endfacet
facet normal 0 0 -1
  outer loop
    vertex -1.25 -1.27103528959282e-15 0
    vertex -1.18301270189222 0.2499999999999984 0
    vertex -1.038675134594813 -8.187894806610529e-16 0
  endloop
endfacet
facet normal 0 0 -1
  outer loop
    vertex -1.18301270189222 0.2499999999999984 0
    vertex -0.9119479727478392 0.1971687836487027 0
    vertex -1.038675134594813 -8.187894806610529e-16 0
  endloop
endfacet
facet normal 0 0 -1
  outer loop
    vertex -1.183012701892219 -0.2500000000000008 0
    vertex -1.25 -1.27103528959282e-15 0
    vertex -1.038675134594813 -8.187894806610529e-16 0
  endloop
endfacet
facet normal 0 0 -1
  outer loop
    vertex -0.9999999999999994 -0.4330127018922196 0
    vertex -1.183012701892219 -0.2500000000000008 0
    vertex -0.9119479727478383 -0.1971687836487036 0
  endloop
endfacet
facet normal -0 0 -1
  outer loop
    vertex -0.9119479727478383 -0.1971687836487036 0
    vertex -1.183012701892219 -0.2500000000000008 0
    vertex -1.038675134594813 -8.187894806610529e-16 0
  endloop
endfacet
facet normal 0 0 -1
  outer loop
    vertex -0.7499999999999992 -0.5 0
    vertex -0.9999999999999994 -0.4330127018922196 0
    vertex -0.7399477717957856 -0.3179949575707271 0
  endloop
endfacet
facet normal 0 0 -1
  outer loop
    vertex -0.9999999999999994 -0.4330127018922196 0
    vertex -0.9119479727478383 -0.1971687836487036 0
    vertex -0.7399477717957856 -0.3179949575707271 0
  endloop
endfacet
facet normal -0 0 -1
  outer loop
    vertex -0.4999999999999996 -0.4330127018922191 0
    vertex -0.7499999999999992 -0.5 0
    vertex -0.7399477717957856 -0.3179949575707271 0
  endloop
endfacet
facet normal -0 0 -1
  outer loop
    vertex -0.3169872981077806 -0.2499999999999998 0
    vertex -0.4999999999999996 -0.4330127018922191 0
    vertex -0.5554012916815239 -0.1961716062914186 0
  endloop
endfacet
facet normal 0 -0 -1
  outer loop
    vertex -0.5554012916815239 -0.1961716062914186 0
    vertex -0.4999999999999996 -0.4330127018922191 0
    vertex -0.7399477717957856 -0.3179949575707271 0
  endloop
endfacet
facet normal 0 0 -1
  outer loop
    vertex -0.3169872981077806 -0.2499999999999998 0
    vertex -0.5554012916815239 -0.1961716062914186 0
    vertex -0.4420527094960322 0.005511861053223059 0
  endloop
endfacet
facet normal 0 0 -1
  outer loop
    vertex -0.5554012916815239 -0.1961716062914186 0
    vertex -0.7223373663453536 -0.1486039516998018 0
    vertex -0.6422260108914617 -0.009284560353721164 0
  endloop
endfacet
facet normal 0 -0 -1
  outer loop
    vertex -0.7223373663453536 -0.1486039516998018 0
    vertex -0.5554012916815239 -0.1961716062914186 0
    vertex -0.7399477717957856 -0.3179949575707271 0
  endloop
endfacet
facet normal 0 0 -1
  outer loop
    vertex -0.5554012916815239 -0.1961716062914186 0
    vertex -0.6422260108914617 -0.009284560353721164 0
    vertex -0.4420527094960322 0.005511861053223059 0
  endloop
endfacet
facet normal 0 0 -1
  outer loop
    vertex -1.038675134594813 -8.187894806610529e-16 0
    vertex -0.9119479727478392 0.1971687836487027 0
    vertex -0.8273502691896257 -2.914335439641036e-16 0
  endloop
endfacet
facet normal 0 0 -1
  outer loop
    vertex -0.8273502691896257 -2.914335439641036e-16 0
    vertex -0.9119479727478392 0.1971687836487027 0
    vertex -0.7223373663453541 0.1424644085524942 0
  endloop
endfacet
facet normal 0 0 -1
  outer loop
    vertex -0.7223373663453541 0.1424644085524942 0
    vertex -0.9119479727478392 0.1971687836487027 0
    vertex -0.7399477717957869 0.3173040928319371 0
  endloop
endfacet
facet normal 0 0 -1
  outer loop
    vertex -0.9119479727478383 -0.1971687836487036 0
    vertex -1.038675134594813 -8.187894806610529e-16 0
    vertex -0.8273502691896257 -2.914335439641036e-16 0
  endloop
endfacet
facet normal 0 0 -1
  outer loop
    vertex -0.9119479727478383 -0.1971687836487036 0
    vertex -0.8273502691896257 -2.914335439641036e-16 0
    vertex -0.7223373663453536 -0.1486039516998018 0
  endloop
endfacet
facet normal 0 0 -1
  outer loop
    vertex -0.9119479727478383 -0.1971687836487036 0
    vertex -0.7223373663453536 -0.1486039516998018 0
    vertex -0.7399477717957856 -0.3179949575707271 0
  endloop
endfacet
facet normal 0 0 -1
  outer loop
    vertex -0.7223373663453541 0.1424644085524942 0
    vertex -0.5554012916815243 0.198165961005988 0
    vertex -0.6422260108914617 -0.009284560353721164 0
  endloop
endfacet
facet normal -0 0 -1
  outer loop
    vertex -0.5554012916815243 0.198165961005988 0
    vertex -0.7223373663453541 0.1424644085524942 0
    vertex -0.7399477717957869 0.3173040928319371 0
  endloop
endfacet
facet normal 0 0 -1
  outer loop
    vertex -0.6422260108914617 -0.009284560353721164 0
    vertex -0.5554012916815243 0.198165961005988 0
    vertex -0.4420527094960322 0.005511861053223059 0
  endloop
endfacet
facet normal 0 0 -1
  outer loop
    vertex -0.8273502691896257 -2.914335439641036e-16 0
    vertex -0.7223373663453541 0.1424644085524942 0
    vertex -0.6422260108914617 -0.009284560353721164 0
  endloop
endfacet
facet normal 0 0 -1
  outer loop
    vertex -0.7223373663453536 -0.1486039516998018 0
    vertex -0.8273502691896257 -2.914335439641036e-16 0
    vertex -0.6422260108914617 -0.009284560353721164 0
  endloop
endfacet
endsolid Created by Gmsh
