solid square.stl
facet normal -0.000625 0.000000 0.000000
  outer loop
    vertex -0.500000 -0.500000 0.000000
    vertex -0.500000 -0.500000 0.005000
    vertex -0.500000 -0.375000 0.000000
  endloop
endfacet
facet normal -0.000625 0.000000 0.000000
  outer loop
    vertex -0.500000 -0.375000 0.000000
    vertex -0.500000 -0.500000 0.005000
    vertex -0.500000 -0.375000 0.005000
  endloop
endfacet
facet normal -0.000625 0.000000 0.000000
  outer loop
    vertex -0.500000 0.500000 0.000000
    vertex -0.500000 0.375000 0.005000
    vertex -0.500000 0.500000 0.005000
  endloop
endfacet
facet normal -0.000625 0.000000 0.000000
  outer loop
    vertex -0.500000 0.375000 0.005000
    vertex -0.500000 0.500000 0.000000
    vertex -0.500000 0.375000 0.000000
  endloop
endfacet
facet normal -0.000625 0.000000 0.000000
  outer loop
    vertex -0.500000 -0.250000 0.000000
    vertex -0.500000 -0.375000 0.005000
    vertex -0.500000 -0.250000 0.005000
  endloop
endfacet
facet normal -0.000625 0.000000 0.000000
  outer loop
    vertex -0.500000 -0.250000 0.000000
    vertex -0.500000 -0.375000 0.000000
    vertex -0.500000 -0.375000 0.005000
  endloop
endfacet
facet normal -0.000625 -0.000000 0.000000
  outer loop
    vertex -0.500000 -0.125000 0.005000
    vertex -0.500000 -0.250000 0.000000
    vertex -0.500000 -0.250000 0.005000
  endloop
endfacet
facet normal -0.000625 0.000000 0.000000
  outer loop
    vertex -0.500000 -0.125000 0.005000
    vertex -0.500000 0.000000 0.005000
    vertex -0.500000 -0.125000 0.000000
  endloop
endfacet
facet normal -0.000625 0.000000 0.000000
  outer loop
    vertex -0.500000 -0.250000 0.000000
    vertex -0.500000 -0.125000 0.005000
    vertex -0.500000 -0.125000 0.000000
  endloop
endfacet
facet normal -0.000625 0.000000 0.000000
  outer loop
    vertex -0.500000 0.000000 0.005000
    vertex -0.500000 0.125000 0.005000
    vertex -0.500000 0.000000 0.000000
  endloop
endfacet
facet normal -0.000625 0.000000 0.000000
  outer loop
    vertex -0.500000 -0.125000 0.000000
    vertex -0.500000 0.000000 0.005000
    vertex -0.500000 0.000000 0.000000
  endloop
endfacet
facet normal -0.000625 0.000000 0.000000
  outer loop
    vertex -0.500000 0.125000 0.005000
    vertex -0.500000 0.250000 0.005000
    vertex -0.500000 0.125000 0.000000
  endloop
endfacet
facet normal -0.000625 0.000000 0.000000
  outer loop
    vertex -0.500000 0.000000 0.000000
    vertex -0.500000 0.125000 0.005000
    vertex -0.500000 0.125000 0.000000
  endloop
endfacet
facet normal -0.000625 0.000000 0.000000
  outer loop
    vertex -0.500000 0.250000 0.005000
    vertex -0.500000 0.375000 0.005000
    vertex -0.500000 0.250000 0.000000
  endloop
endfacet
facet normal -0.000625 0.000000 0.000000
  outer loop
    vertex -0.500000 0.125000 0.000000
    vertex -0.500000 0.250000 0.005000
    vertex -0.500000 0.250000 0.000000
  endloop
endfacet
facet normal -0.000625 0.000000 0.000000
  outer loop
    vertex -0.500000 0.250000 0.000000
    vertex -0.500000 0.375000 0.005000
    vertex -0.500000 0.375000 0.000000
  endloop
endfacet
facet normal 0.000625 0.000000 0.000000
  outer loop
    vertex 0.500000 -0.500000 0.005000
    vertex 0.500000 -0.500000 0.000000
    vertex 0.500000 -0.375000 0.000000
  endloop
endfacet
facet normal 0.000625 0.000000 -0.000000
  outer loop
    vertex 0.500000 -0.375000 0.000000
    vertex 0.500000 -0.375000 0.005000
    vertex 0.500000 -0.500000 0.005000
  endloop
endfacet
facet normal 0.000625 0.000000 -0.000000
  outer loop
    vertex 0.500000 0.500000 0.000000
    vertex 0.500000 0.500000 0.005000
    vertex 0.500000 0.375000 0.005000
  endloop
endfacet
facet normal 0.000625 0.000000 0.000000
  outer loop
    vertex 0.500000 0.375000 0.005000
    vertex 0.500000 0.375000 0.000000
    vertex 0.500000 0.500000 0.000000
  endloop
endfacet
facet normal 0.000625 0.000000 -0.000000
  outer loop
    vertex 0.500000 -0.250000 0.000000
    vertex 0.500000 -0.250000 0.005000
    vertex 0.500000 -0.375000 0.005000
  endloop
endfacet
facet normal 0.000625 0.000000 0.000000
  outer loop
    vertex 0.500000 -0.250000 0.000000
    vertex 0.500000 -0.375000 0.005000
    vertex 0.500000 -0.375000 0.000000
  endloop
endfacet
facet normal 0.000625 0.000000 0.000000
  outer loop
    vertex 0.500000 -0.125000 0.005000
    vertex 0.500000 -0.250000 0.005000
    vertex 0.500000 -0.250000 0.000000
  endloop
endfacet
facet normal 0.000625 -0.000000 0.000000
  outer loop
    vertex 0.500000 -0.125000 0.005000
    vertex 0.500000 -0.125000 0.000000
    vertex 0.500000 0.000000 0.005000
  endloop
endfacet
facet normal 0.000625 0.000000 0.000000
  outer loop
    vertex 0.500000 -0.250000 0.000000
    vertex 0.500000 -0.125000 0.000000
    vertex 0.500000 -0.125000 0.005000
  endloop
endfacet
facet normal 0.000625 -0.000000 0.000000
  outer loop
    vertex 0.500000 0.000000 0.005000
    vertex 0.500000 0.125000 0.000000
    vertex 0.500000 0.125000 0.005000
  endloop
endfacet
facet normal 0.000625 0.000000 0.000000
  outer loop
    vertex 0.500000 -0.125000 0.000000
    vertex 0.500000 0.000000 0.000000
    vertex 0.500000 0.000000 0.005000
  endloop
endfacet
facet normal 0.000625 0.000000 0.000000
  outer loop
    vertex 0.500000 0.000000 0.005000
    vertex 0.500000 0.000000 0.000000
    vertex 0.500000 0.125000 0.000000
  endloop
endfacet
facet normal 0.000625 -0.000000 0.000000
  outer loop
    vertex 0.500000 0.125000 0.005000
    vertex 0.500000 0.125000 0.000000
    vertex 0.500000 0.250000 0.005000
  endloop
endfacet
facet normal 0.000625 -0.000000 0.000000
  outer loop
    vertex 0.500000 0.250000 0.005000
    vertex 0.500000 0.250000 0.000000
    vertex 0.500000 0.375000 0.005000
  endloop
endfacet
facet normal 0.000625 0.000000 0.000000
  outer loop
    vertex 0.500000 0.125000 0.000000
    vertex 0.500000 0.250000 0.000000
    vertex 0.500000 0.250000 0.005000
  endloop
endfacet
facet normal 0.000625 0.000000 0.000000
  outer loop
    vertex 0.500000 0.250000 0.000000
    vertex 0.500000 0.375000 0.000000
    vertex 0.500000 0.375000 0.005000
  endloop
endfacet
facet normal 0.000000 -0.000625 0.000000
  outer loop
    vertex -0.500000 -0.500000 0.000000
    vertex -0.375000 -0.500000 0.000000
    vertex -0.500000 -0.500000 0.005000
  endloop
endfacet
facet normal 0.000000 -0.000625 0.000000
  outer loop
    vertex -0.500000 -0.500000 0.005000
    vertex -0.375000 -0.500000 0.000000
    vertex -0.375000 -0.500000 0.005000
  endloop
endfacet
facet normal 0.000000 -0.000625 0.000000
  outer loop
    vertex 0.375000 -0.500000 0.005000
    vertex 0.500000 -0.500000 0.000000
    vertex 0.500000 -0.500000 0.005000
  endloop
endfacet
facet normal 0.000000 -0.000625 0.000000
  outer loop
    vertex 0.500000 -0.500000 0.000000
    vertex 0.375000 -0.500000 0.005000
    vertex 0.375000 -0.500000 0.000000
  endloop
endfacet
facet normal 0.000000 -0.000625 -0.000000
  outer loop
    vertex -0.250000 -0.500000 0.005000
    vertex -0.375000 -0.500000 0.000000
    vertex -0.250000 -0.500000 0.000000
  endloop
endfacet
facet normal 0.000000 -0.000625 0.000000
  outer loop
    vertex -0.375000 -0.500000 0.000000
    vertex -0.250000 -0.500000 0.005000
    vertex -0.375000 -0.500000 0.005000
  endloop
endfacet
facet normal 0.000000 -0.000625 -0.000000
  outer loop
    vertex -0.125000 -0.500000 0.005000
    vertex -0.250000 -0.500000 0.000000
    vertex -0.125000 -0.500000 0.000000
  endloop
endfacet
facet normal -0.000000 -0.000625 0.000000
  outer loop
    vertex -0.125000 -0.500000 0.005000
    vertex -0.250000 -0.500000 0.005000
    vertex -0.250000 -0.500000 0.000000
  endloop
endfacet
facet normal 0.000000 -0.000625 -0.000000
  outer loop
    vertex 0.000000 -0.500000 0.005000
    vertex -0.125000 -0.500000 0.000000
    vertex 0.000000 -0.500000 0.000000
  endloop
endfacet
facet normal -0.000000 -0.000625 0.000000
  outer loop
    vertex 0.000000 -0.500000 0.005000
    vertex -0.125000 -0.500000 0.005000
    vertex -0.125000 -0.500000 0.000000
  endloop
endfacet
facet normal 0.000000 -0.000625 0.000000
  outer loop
    vertex 0.125000 -0.500000 0.000000
    vertex 0.000000 -0.500000 0.005000
    vertex 0.000000 -0.500000 0.000000
  endloop
endfacet
facet normal 0.000000 -0.000625 -0.000000
  outer loop
    vertex 0.250000 -0.500000 0.005000
    vertex 0.125000 -0.500000 0.000000
    vertex 0.250000 -0.500000 0.000000
  endloop
endfacet
facet normal -0.000000 -0.000625 -0.000000
  outer loop
    vertex 0.125000 -0.500000 0.005000
    vertex 0.000000 -0.500000 0.005000
    vertex 0.125000 -0.500000 0.000000
  endloop
endfacet
facet normal -0.000000 -0.000625 0.000000
  outer loop
    vertex 0.250000 -0.500000 0.005000
    vertex 0.125000 -0.500000 0.005000
    vertex 0.125000 -0.500000 0.000000
  endloop
endfacet
facet normal 0.000000 -0.000625 -0.000000
  outer loop
    vertex 0.375000 -0.500000 0.005000
    vertex 0.250000 -0.500000 0.000000
    vertex 0.375000 -0.500000 0.000000
  endloop
endfacet
facet normal -0.000000 -0.000625 0.000000
  outer loop
    vertex 0.375000 -0.500000 0.005000
    vertex 0.250000 -0.500000 0.005000
    vertex 0.250000 -0.500000 0.000000
  endloop
endfacet
facet normal 0.000000 0.000625 0.000000
  outer loop
    vertex -0.500000 0.500000 0.000000
    vertex -0.500000 0.500000 0.005000
    vertex -0.375000 0.500000 0.000000
  endloop
endfacet
facet normal -0.000000 0.000625 0.000000
  outer loop
    vertex -0.500000 0.500000 0.005000
    vertex -0.375000 0.500000 0.005000
    vertex -0.375000 0.500000 0.000000
  endloop
endfacet
facet normal -0.000000 0.000625 0.000000
  outer loop
    vertex 0.375000 0.500000 0.005000
    vertex 0.500000 0.500000 0.005000
    vertex 0.500000 0.500000 0.000000
  endloop
endfacet
facet normal 0.000000 0.000625 0.000000
  outer loop
    vertex 0.500000 0.500000 0.000000
    vertex 0.375000 0.500000 0.000000
    vertex 0.375000 0.500000 0.005000
  endloop
endfacet
facet normal 0.000000 0.000625 0.000000
  outer loop
    vertex -0.375000 0.500000 0.000000
    vertex -0.250000 0.500000 0.005000
    vertex -0.250000 0.500000 0.000000
  endloop
endfacet
facet normal 0.000000 0.000625 0.000000
  outer loop
    vertex -0.375000 0.500000 0.000000
    vertex -0.375000 0.500000 0.005000
    vertex -0.250000 0.500000 0.005000
  endloop
endfacet
facet normal 0.000000 0.000625 0.000000
  outer loop
    vertex -0.125000 0.500000 0.005000
    vertex -0.125000 0.500000 0.000000
    vertex -0.250000 0.500000 0.000000
  endloop
endfacet
facet normal 0.000000 0.000625 0.000000
  outer loop
    vertex -0.250000 0.500000 0.000000
    vertex -0.250000 0.500000 0.005000
    vertex -0.125000 0.500000 0.005000
  endloop
endfacet
facet normal 0.000000 0.000625 0.000000
  outer loop
    vertex -0.125000 0.500000 0.005000
    vertex 0.000000 0.500000 0.000000
    vertex -0.125000 0.500000 0.000000
  endloop
endfacet
facet normal 0.000000 0.000625 0.000000
  outer loop
    vertex 0.125000 0.500000 0.005000
    vertex 0.125000 0.500000 0.000000
    vertex 0.000000 0.500000 0.000000
  endloop
endfacet
facet normal -0.000000 0.000625 0.000000
  outer loop
    vertex -0.125000 0.500000 0.005000
    vertex 0.000000 0.500000 0.005000
    vertex 0.000000 0.500000 0.000000
  endloop
endfacet
facet normal 0.000000 0.000625 0.000000
  outer loop
    vertex 0.000000 0.500000 0.000000
    vertex 0.000000 0.500000 0.005000
    vertex 0.125000 0.500000 0.005000
  endloop
endfacet
facet normal 0.000000 0.000625 0.000000
  outer loop
    vertex 0.250000 0.500000 0.000000
    vertex 0.125000 0.500000 0.000000
    vertex 0.125000 0.500000 0.005000
  endloop
endfacet
facet normal 0.000000 0.000625 0.000000
  outer loop
    vertex 0.375000 0.500000 0.005000
    vertex 0.375000 0.500000 0.000000
    vertex 0.250000 0.500000 0.000000
  endloop
endfacet
facet normal 0.000000 0.000625 0.000000
  outer loop
    vertex 0.250000 0.500000 0.005000
    vertex 0.250000 0.500000 0.000000
    vertex 0.125000 0.500000 0.005000
  endloop
endfacet
facet normal 0.000000 0.000625 0.000000
  outer loop
    vertex 0.375000 0.500000 0.005000
    vertex 0.250000 0.500000 0.000000
    vertex 0.250000 0.500000 0.005000
  endloop
endfacet
facet normal 0.000000 0.000000 -0.014312
  outer loop
    vertex 0.387963 0.198341 0.000000
    vertex 0.268995 0.272512 0.000000
    vertex 0.396132 0.313550 0.000000
  endloop
endfacet
facet normal 0.000000 0.000000 -0.014525
  outer loop
    vertex 0.266725 -0.140717 0.000000
    vertex 0.387576 -0.071488 0.000000
    vertex 0.389614 -0.190511 0.000000
  endloop
endfacet
facet normal 0.000000 0.000000 -0.012092
  outer loop
    vertex 0.268995 0.272512 0.000000
    vertex 0.387963 0.198341 0.000000
    vertex 0.290913 0.157205 0.000000
  endloop
endfacet
facet normal -0.000000 0.000000 -0.012236
  outer loop
    vertex 0.387576 -0.071488 0.000000
    vertex 0.266725 -0.140717 0.000000
    vertex 0.290917 -0.025614 0.000000
  endloop
endfacet
facet normal 0.000000 0.000000 -0.014373
  outer loop
    vertex -0.129236 -0.139908 0.000000
    vertex -0.264900 -0.129700 0.000000
    vertex -0.178991 -0.030220 0.000000
  endloop
endfacet
facet normal 0.000000 0.000000 -0.011224
  outer loop
    vertex -0.264900 -0.129700 0.000000
    vertex -0.129236 -0.139908 0.000000
    vertex -0.192770 -0.217862 0.000000
  endloop
endfacet
facet normal 0.000000 0.000000 -0.014303
  outer loop
    vertex -0.250000 -0.500000 0.000000
    vertex -0.375000 -0.500000 0.000000
    vertex -0.296819 -0.385578 0.000000
  endloop
endfacet
facet normal 0.000000 0.000000 -0.010986
  outer loop
    vertex -0.296819 -0.385578 0.000000
    vertex -0.375000 -0.500000 0.000000
    vertex -0.408494 -0.408494 0.000000
  endloop
endfacet
facet normal 0.000000 0.000000 -0.014726
  outer loop
    vertex -0.067627 -0.387749 0.000000
    vertex -0.180327 -0.317779 0.000000
    vertex -0.067554 -0.257126 0.000000
  endloop
endfacet
facet normal 0.000000 0.000000 -0.013648
  outer loop
    vertex 0.268995 0.272512 0.000000
    vertex 0.313374 0.394182 0.000000
    vertex 0.396132 0.313550 0.000000
  endloop
endfacet
facet normal 0.000000 -0.000000 -0.012890
  outer loop
    vertex -0.311970 0.394154 0.000000
    vertex -0.250550 0.294847 0.000000
    vertex -0.385611 0.303359 0.000000
  endloop
endfacet
facet normal 0.000000 0.000000 -0.011999
  outer loop
    vertex 0.372606 0.064588 0.000000
    vertex 0.241404 0.066452 0.000000
    vertex 0.290913 0.157205 0.000000
  endloop
endfacet
facet normal 0.000000 0.000000 -0.011987
  outer loop
    vertex 0.241404 0.066452 0.000000
    vertex 0.372606 0.064588 0.000000
    vertex 0.290917 -0.025614 0.000000
  endloop
endfacet
facet normal 0.000000 0.000000 -0.011604
  outer loop
    vertex -0.385611 0.303359 0.000000
    vertex -0.250550 0.294847 0.000000
    vertex -0.305216 0.212376 0.000000
  endloop
endfacet
facet normal 0.000000 0.000000 -0.011497
  outer loop
    vertex 0.266725 -0.140717 0.000000
    vertex 0.389614 -0.190511 0.000000
    vertex 0.294407 -0.245489 0.000000
  endloop
endfacet
facet normal 0.000000 0.000000 -0.012349
  outer loop
    vertex 0.387963 0.198341 0.000000
    vertex 0.372606 0.064588 0.000000
    vertex 0.290913 0.157205 0.000000
  endloop
endfacet
facet normal 0.000000 -0.000000 -0.011574
  outer loop
    vertex -0.180327 -0.317779 0.000000
    vertex -0.067627 -0.387749 0.000000
    vertex -0.183955 -0.418221 0.000000
  endloop
endfacet
facet normal 0.000000 0.000000 -0.013227
  outer loop
    vertex 0.250000 0.500000 0.000000
    vertex 0.375000 0.500000 0.000000
    vertex 0.313374 0.394182 0.000000
  endloop
endfacet
facet normal 0.000000 0.000000 -0.016267
  outer loop
    vertex 0.125044 0.283520 0.000000
    vertex 0.187500 0.391747 0.000000
    vertex 0.268995 0.272512 0.000000
  endloop
endfacet
facet normal 0.000000 0.000000 -0.013474
  outer loop
    vertex 0.187500 0.391747 0.000000
    vertex 0.250000 0.500000 0.000000
    vertex 0.313374 0.394182 0.000000
  endloop
endfacet
facet normal 0.000000 0.000000 -0.015207
  outer loop
    vertex 0.268995 0.272512 0.000000
    vertex 0.187500 0.391747 0.000000
    vertex 0.313374 0.394182 0.000000
  endloop
endfacet
facet normal -0.000000 0.000000 -0.013525
  outer loop
    vertex 0.187500 0.391747 0.000000
    vertex 0.125044 0.283520 0.000000
    vertex 0.062544 0.391774 0.000000
  endloop
endfacet
facet normal 0.000000 0.000000 -0.013356
  outer loop
    vertex -0.500000 0.000000 0.000000
    vertex -0.500000 0.125000 0.000000
    vertex -0.393152 0.061590 0.000000
  endloop
endfacet
facet normal 0.000000 0.000000 -0.013528
  outer loop
    vertex 0.000000 0.500000 0.000000
    vertex 0.125000 0.500000 0.000000
    vertex 0.062544 0.391774 0.000000
  endloop
endfacet
facet normal 0.000000 0.000000 -0.011559
  outer loop
    vertex -0.287713 0.001831 0.000000
    vertex -0.393152 0.061590 0.000000
    vertex -0.296379 0.116372 0.000000
  endloop
endfacet
facet normal 0.000000 -0.000000 -0.013525
  outer loop
    vertex 0.125000 0.500000 0.000000
    vertex 0.187500 0.391747 0.000000
    vertex 0.062544 0.391774 0.000000
  endloop
endfacet
facet normal 0.000000 0.000000 -0.012496
  outer loop
    vertex -0.500000 0.125000 0.000000
    vertex -0.395957 0.180208 0.000000
    vertex -0.393152 0.061590 0.000000
  endloop
endfacet
facet normal 0.000000 0.000000 -0.013345
  outer loop
    vertex -0.391747 -0.062500 0.000000
    vertex -0.500000 0.000000 0.000000
    vertex -0.393152 0.061590 0.000000
  endloop
endfacet
facet normal 0.000000 0.000000 -0.012892
  outer loop
    vertex -0.394538 -0.307666 0.000000
    vertex -0.500000 -0.250000 0.000000
    vertex -0.392212 -0.186694 0.000000
  endloop
endfacet
facet normal 0.000000 0.000000 -0.013085
  outer loop
    vertex 0.125000 -0.500000 0.000000
    vertex 0.000000 -0.500000 0.000000
    vertex 0.062264 -0.395317 0.000000
  endloop
endfacet
facet normal 0.000000 0.000000 -0.013535
  outer loop
    vertex -0.062500 0.391747 0.000000
    vertex 0.000000 0.500000 0.000000
    vertex 0.062544 0.391774 0.000000
  endloop
endfacet
facet normal 0.000000 0.000000 -0.015151
  outer loop
    vertex -0.264900 -0.129700 0.000000
    vertex -0.391747 -0.062500 0.000000
    vertex -0.287713 0.001831 0.000000
  endloop
endfacet
facet normal 0.000000 0.000000 -0.012342
  outer loop
    vertex 0.184184 -0.039316 0.000000
    vertex 0.125000 0.066987 0.000000
    vertex 0.241404 0.066452 0.000000
  endloop
endfacet
facet normal 0.000000 0.000000 -0.013532
  outer loop
    vertex -0.500000 -0.125000 0.000000
    vertex -0.500000 0.000000 0.000000
    vertex -0.391747 -0.062500 0.000000
  endloop
endfacet
facet normal -0.000000 0.000000 -0.014149
  outer loop
    vertex 0.500000 -0.250000 0.000000
    vertex 0.379230 -0.313091 0.000000
    vertex 0.389614 -0.190511 0.000000
  endloop
endfacet
facet normal 0.000000 -0.000000 -0.014053
  outer loop
    vertex 0.500000 0.000000 0.000000
    vertex 0.500000 -0.125000 0.000000
    vertex 0.387576 -0.071488 0.000000
  endloop
endfacet
facet normal 0.000000 0.000000 -0.014031
  outer loop
    vertex 0.000000 -0.500000 0.000000
    vertex -0.125000 -0.500000 0.000000
    vertex -0.067627 -0.387749 0.000000
  endloop
endfacet
facet normal 0.000000 0.000000 -0.013532
  outer loop
    vertex -0.125000 0.500000 0.000000
    vertex 0.000000 0.500000 0.000000
    vertex -0.062500 0.391747 0.000000
  endloop
endfacet
facet normal -0.000000 0.000000 -0.013066
  outer loop
    vertex 0.187189 -0.395507 0.000000
    vertex 0.125000 -0.500000 0.000000
    vertex 0.062264 -0.395317 0.000000
  endloop
endfacet
facet normal 0.000000 0.000000 -0.013308
  outer loop
    vertex -0.311970 0.394154 0.000000
    vertex -0.250000 0.500000 0.000000
    vertex -0.187412 0.392148 0.000000
  endloop
endfacet
facet normal 0.000000 0.000000 -0.015785
  outer loop
    vertex -0.392212 -0.186694 0.000000
    vertex -0.391747 -0.062500 0.000000
    vertex -0.264900 -0.129700 0.000000
  endloop
endfacet
facet normal 0.000000 0.000000 -0.012890
  outer loop
    vertex -0.394538 -0.307666 0.000000
    vertex -0.392212 -0.186694 0.000000
    vertex -0.286958 -0.254120 0.000000
  endloop
endfacet
facet normal 0.000000 -0.000000 -0.013009
  outer loop
    vertex -0.187412 0.392148 0.000000
    vertex -0.123690 0.284308 0.000000
    vertex -0.250550 0.294847 0.000000
  endloop
endfacet
facet normal 0.000000 0.000000 -0.013521
  outer loop
    vertex 0.000218 0.283629 0.000000
    vertex -0.062500 0.391747 0.000000
    vertex 0.062544 0.391774 0.000000
  endloop
endfacet
facet normal 0.000000 0.000000 -0.012246
  outer loop
    vertex -0.311970 0.394154 0.000000
    vertex -0.187412 0.392148 0.000000
    vertex -0.250550 0.294847 0.000000
  endloop
endfacet
facet normal 0.000000 0.000000 -0.013506
  outer loop
    vertex 0.125044 0.283520 0.000000
    vertex 0.000218 0.283629 0.000000
    vertex 0.062544 0.391774 0.000000
  endloop
endfacet
facet normal 0.000000 0.000000 -0.013473
  outer loop
    vertex -0.500000 -0.250000 0.000000
    vertex -0.500000 -0.125000 0.000000
    vertex -0.392212 -0.186694 0.000000
  endloop
endfacet
facet normal 0.000000 -0.000000 -0.013798
  outer loop
    vertex 0.500000 -0.125000 0.000000
    vertex 0.500000 -0.250000 0.000000
    vertex 0.389614 -0.190511 0.000000
  endloop
endfacet
facet normal 0.000000 0.000000 -0.013272
  outer loop
    vertex 0.387576 -0.071488 0.000000
    vertex 0.500000 -0.125000 0.000000
    vertex 0.389614 -0.190511 0.000000
  endloop
endfacet
facet normal 0.000000 0.000000 -0.013482
  outer loop
    vertex -0.250000 0.500000 0.000000
    vertex -0.125000 0.500000 0.000000
    vertex -0.187412 0.392148 0.000000
  endloop
endfacet
facet normal 0.000000 0.000000 -0.013445
  outer loop
    vertex -0.187412 0.392148 0.000000
    vertex -0.062500 0.391747 0.000000
    vertex -0.123690 0.284308 0.000000
  endloop
endfacet
facet normal 0.000000 0.000000 -0.013415
  outer loop
    vertex -0.500000 -0.125000 0.000000
    vertex -0.391747 -0.062500 0.000000
    vertex -0.392212 -0.186694 0.000000
  endloop
endfacet
facet normal -0.000000 0.000000 -0.016368
  outer loop
    vertex 0.500000 0.000000 0.000000
    vertex 0.387576 -0.071488 0.000000
    vertex 0.372606 0.064588 0.000000
  endloop
endfacet
facet normal 0.000000 -0.000000 -0.013497
  outer loop
    vertex -0.125000 0.500000 0.000000
    vertex -0.062500 0.391747 0.000000
    vertex -0.187412 0.392148 0.000000
  endloop
endfacet
facet normal -0.000000 0.000000 -0.013000
  outer loop
    vertex -0.287713 0.001831 0.000000
    vertex -0.391747 -0.062500 0.000000
    vertex -0.393152 0.061590 0.000000
  endloop
endfacet
facet normal 0.000000 -0.000000 -0.015924
  outer loop
    vertex 0.500000 0.125000 0.000000
    vertex 0.500000 0.000000 0.000000
    vertex 0.372606 0.064588 0.000000
  endloop
endfacet
facet normal 0.000000 0.000000 -0.014069
  outer loop
    vertex 0.000000 -0.500000 0.000000
    vertex -0.067627 -0.387749 0.000000
    vertex 0.062264 -0.395317 0.000000
  endloop
endfacet
facet normal 0.000000 0.000000 -0.015882
  outer loop
    vertex 0.125072 -0.149539 0.000000
    vertex 0.266725 -0.140717 0.000000
    vertex 0.187500 -0.257772 0.000000
  endloop
endfacet
facet normal 0.000000 -0.000000 -0.016112
  outer loop
    vertex 0.387963 0.198341 0.000000
    vertex 0.500000 0.125000 0.000000
    vertex 0.372606 0.064588 0.000000
  endloop
endfacet
facet normal 0.000000 0.000000 -0.013354
  outer loop
    vertex -0.123690 0.284308 0.000000
    vertex -0.062500 0.391747 0.000000
    vertex 0.000218 0.283629 0.000000
  endloop
endfacet
facet normal 0.000000 0.000000 -0.013509
  outer loop
    vertex 0.000307 0.067167 0.000000
    vertex 0.062795 0.175414 0.000000
    vertex 0.125000 0.066987 0.000000
  endloop
endfacet
facet normal 0.000000 0.000000 -0.012995
  outer loop
    vertex 0.062795 0.175414 0.000000
    vertex 0.183931 0.173180 0.000000
    vertex 0.125000 0.066987 0.000000
  endloop
endfacet
facet normal 0.000000 0.000000 -0.012393
  outer loop
    vertex 0.125000 0.066987 0.000000
    vertex 0.183931 0.173180 0.000000
    vertex 0.241404 0.066452 0.000000
  endloop
endfacet
facet normal 0.000000 0.000000 -0.013501
  outer loop
    vertex 0.062795 0.175414 0.000000
    vertex 0.000218 0.283629 0.000000
    vertex 0.125044 0.283520 0.000000
  endloop
endfacet
facet normal 0.000000 0.000000 -0.014583
  outer loop
    vertex -0.286958 -0.254120 0.000000
    vertex -0.392212 -0.186694 0.000000
    vertex -0.264900 -0.129700 0.000000
  endloop
endfacet
facet normal 0.000000 -0.000000 -0.015096
  outer loop
    vertex 0.500000 -0.250000 0.000000
    vertex 0.500000 -0.375000 0.000000
    vertex 0.379230 -0.313091 0.000000
  endloop
endfacet
facet normal 0.000000 0.000000 -0.013231
  outer loop
    vertex -0.375000 0.500000 0.000000
    vertex -0.250000 0.500000 0.000000
    vertex -0.311970 0.394154 0.000000
  endloop
endfacet
facet normal 0.000000 0.000000 -0.011633
  outer loop
    vertex -0.393152 0.061590 0.000000
    vertex -0.395957 0.180208 0.000000
    vertex -0.296379 0.116372 0.000000
  endloop
endfacet
facet normal -0.000000 0.000000 -0.012998
  outer loop
    vertex 0.184184 -0.039316 0.000000
    vertex 0.063071 -0.041406 0.000000
    vertex 0.125000 0.066987 0.000000
  endloop
endfacet
facet normal 0.000000 0.000000 -0.015092
  outer loop
    vertex 0.125072 -0.149539 0.000000
    vertex 0.184184 -0.039316 0.000000
    vertex 0.266725 -0.140717 0.000000
  endloop
endfacet
facet normal 0.000000 0.000000 -0.015235
  outer loop
    vertex 0.183931 0.173180 0.000000
    vertex 0.125044 0.283520 0.000000
    vertex 0.268995 0.272512 0.000000
  endloop
endfacet
facet normal 0.000000 0.000000 -0.013359
  outer loop
    vertex -0.123690 0.284308 0.000000
    vertex 0.000218 0.283629 0.000000
    vertex -0.060950 0.176147 0.000000
  endloop
endfacet
facet normal 0.000000 0.000000 -0.013350
  outer loop
    vertex -0.059381 -0.042285 0.000000
    vertex 0.000307 0.067167 0.000000
    vertex 0.063071 -0.041406 0.000000
  endloop
endfacet
facet normal 0.000000 -0.000000 -0.013361
  outer loop
    vertex -0.059381 -0.042285 0.000000
    vertex 0.000615 -0.149712 0.000000
    vertex -0.129236 -0.139908 0.000000
  endloop
endfacet
facet normal 0.000000 0.000000 -0.013226
  outer loop
    vertex 0.125072 -0.149539 0.000000
    vertex 0.063071 -0.041406 0.000000
    vertex 0.184184 -0.039316 0.000000
  endloop
endfacet
facet normal 0.000000 0.000000 -0.013460
  outer loop
    vertex 0.000615 -0.149712 0.000000
    vertex 0.125072 -0.149539 0.000000
    vertex 0.062500 -0.257772 0.000000
  endloop
endfacet
facet normal 0.000000 0.000000 -0.013529
  outer loop
    vertex 0.062500 -0.257772 0.000000
    vertex 0.125072 -0.149539 0.000000
    vertex 0.187500 -0.257772 0.000000
  endloop
endfacet
facet normal 0.000000 0.000000 -0.013183
  outer loop
    vertex -0.500000 -0.375000 0.000000
    vertex -0.500000 -0.250000 0.000000
    vertex -0.394538 -0.307666 0.000000
  endloop
endfacet
facet normal 0.000000 -0.000000 -0.014005
  outer loop
    vertex 0.500000 0.250000 0.000000
    vertex 0.500000 0.125000 0.000000
    vertex 0.387963 0.198341 0.000000
  endloop
endfacet
facet normal 0.000000 0.000000 -0.013532
  outer loop
    vertex 0.125000 0.500000 0.000000
    vertex 0.250000 0.500000 0.000000
    vertex 0.187500 0.391747 0.000000
  endloop
endfacet
facet normal 0.000000 0.000000 -0.013345
  outer loop
    vertex -0.060950 0.176147 0.000000
    vertex 0.000218 0.283629 0.000000
    vertex 0.062795 0.175414 0.000000
  endloop
endfacet
facet normal 0.000000 0.000000 -0.013441
  outer loop
    vertex -0.060950 0.176147 0.000000
    vertex 0.062795 0.175414 0.000000
    vertex 0.000307 0.067167 0.000000
  endloop
endfacet
facet normal 0.000000 -0.000000 -0.012755
  outer loop
    vertex -0.060950 0.176147 0.000000
    vertex 0.000307 0.067167 0.000000
    vertex -0.116210 0.066243 0.000000
  endloop
endfacet
facet normal 0.000000 0.000000 -0.013527
  outer loop
    vertex 0.063071 -0.041406 0.000000
    vertex 0.000307 0.067167 0.000000
    vertex 0.125000 0.066987 0.000000
  endloop
endfacet
facet normal 0.000000 0.000000 -0.013005
  outer loop
    vertex -0.500000 0.125000 0.000000
    vertex -0.500000 0.250000 0.000000
    vertex -0.395957 0.180208 0.000000
  endloop
endfacet
facet normal 0.000000 0.000000 -0.013062
  outer loop
    vertex 0.250000 -0.500000 0.000000
    vertex 0.125000 -0.500000 0.000000
    vertex 0.187189 -0.395507 0.000000
  endloop
endfacet
facet normal 0.000000 0.000000 -0.013207
  outer loop
    vertex -0.059381 -0.042285 0.000000
    vertex 0.063071 -0.041406 0.000000
    vertex 0.000615 -0.149712 0.000000
  endloop
endfacet
facet normal 0.000000 -0.000000 -0.014014
  outer loop
    vertex 0.000615 -0.149712 0.000000
    vertex 0.062500 -0.257772 0.000000
    vertex -0.067554 -0.257126 0.000000
  endloop
endfacet
facet normal 0.000000 0.000000 -0.013614
  outer loop
    vertex -0.394538 -0.307666 0.000000
    vertex -0.286958 -0.254120 0.000000
    vertex -0.296819 -0.385578 0.000000
  endloop
endfacet
facet normal 0.000000 0.000000 -0.013235
  outer loop
    vertex 0.062795 0.175414 0.000000
    vertex 0.125044 0.283520 0.000000
    vertex 0.183931 0.173180 0.000000
  endloop
endfacet
facet normal 0.000000 0.000000 -0.012698
  outer loop
    vertex -0.116210 0.066243 0.000000
    vertex 0.000307 0.067167 0.000000
    vertex -0.059381 -0.042285 0.000000
  endloop
endfacet
facet normal 0.000000 0.000000 -0.013469
  outer loop
    vertex 0.000615 -0.149712 0.000000
    vertex 0.063071 -0.041406 0.000000
    vertex 0.125072 -0.149539 0.000000
  endloop
endfacet
facet normal 0.000000 0.000000 -0.014645
  outer loop
    vertex -0.296819 -0.385578 0.000000
    vertex -0.286958 -0.254120 0.000000
    vertex -0.180327 -0.317779 0.000000
  endloop
endfacet
facet normal 0.000000 0.000000 -0.014616
  outer loop
    vertex -0.129236 -0.139908 0.000000
    vertex 0.000615 -0.149712 0.000000
    vertex -0.067554 -0.257126 0.000000
  endloop
endfacet
facet normal 0.000000 0.000000 -0.011371
  outer loop
    vertex 0.379230 -0.313091 0.000000
    vertex 0.308146 -0.407074 0.000000
    vertex 0.248964 -0.325355 0.000000
  endloop
endfacet
facet normal 0.000000 0.000000 -0.013569
  outer loop
    vertex -0.264900 -0.129700 0.000000
    vertex -0.287713 0.001831 0.000000
    vertex -0.178991 -0.030220 0.000000
  endloop
endfacet
facet normal 0.000000 -0.000000 -0.009847
  outer loop
    vertex 0.294407 -0.245489 0.000000
    vertex 0.379230 -0.313091 0.000000
    vertex 0.248964 -0.325355 0.000000
  endloop
endfacet
facet normal 0.000000 -0.000000 -0.012466
  outer loop
    vertex 0.372606 0.064588 0.000000
    vertex 0.387576 -0.071488 0.000000
    vertex 0.290917 -0.025614 0.000000
  endloop
endfacet
facet normal 0.000000 0.000000 -0.011616
  outer loop
    vertex 0.375000 -0.500000 0.000000
    vertex 0.250000 -0.500000 0.000000
    vertex 0.308146 -0.407074 0.000000
  endloop
endfacet
facet normal 0.000000 0.000000 -0.014299
  outer loop
    vertex -0.500000 0.250000 0.000000
    vertex -0.500000 0.375000 0.000000
    vertex -0.385611 0.303359 0.000000
  endloop
endfacet
facet normal 0.000000 -0.000000 -0.012984
  outer loop
    vertex 0.500000 0.375000 0.000000
    vertex 0.500000 0.250000 0.000000
    vertex 0.396132 0.313550 0.000000
  endloop
endfacet
facet normal 0.000000 0.000000 -0.014846
  outer loop
    vertex -0.250550 0.294847 0.000000
    vertex -0.123690 0.284308 0.000000
    vertex -0.195643 0.173256 0.000000
  endloop
endfacet
facet normal 0.000000 0.000000 -0.014644
  outer loop
    vertex -0.060950 0.176147 0.000000
    vertex -0.116210 0.066243 0.000000
    vertex -0.195643 0.173256 0.000000
  endloop
endfacet
facet normal -0.000000 0.000000 -0.012023
  outer loop
    vertex -0.067554 -0.257126 0.000000
    vertex -0.180327 -0.317779 0.000000
    vertex -0.192770 -0.217862 0.000000
  endloop
endfacet
facet normal 0.000000 -0.000000 -0.012256
  outer loop
    vertex -0.129236 -0.139908 0.000000
    vertex -0.067554 -0.257126 0.000000
    vertex -0.192770 -0.217862 0.000000
  endloop
endfacet
facet normal 0.000000 -0.000000 -0.012295
  outer loop
    vertex -0.116210 0.066243 0.000000
    vertex -0.059381 -0.042285 0.000000
    vertex -0.178991 -0.030220 0.000000
  endloop
endfacet
facet normal 0.000000 0.000000 -0.013535
  outer loop
    vertex -0.395957 0.180208 0.000000
    vertex -0.500000 0.250000 0.000000
    vertex -0.385611 0.303359 0.000000
  endloop
endfacet
facet normal 0.000000 0.000000 -0.011913
  outer loop
    vertex 0.250000 -0.500000 0.000000
    vertex 0.187189 -0.395507 0.000000
    vertex 0.308146 -0.407074 0.000000
  endloop
endfacet
facet normal -0.000000 0.000000 -0.012486
  outer loop
    vertex 0.500000 0.250000 0.000000
    vertex 0.387963 0.198341 0.000000
    vertex 0.396132 0.313550 0.000000
  endloop
endfacet
facet normal 0.000000 0.000000 -0.011954
  outer loop
    vertex 0.266725 -0.140717 0.000000
    vertex 0.184184 -0.039316 0.000000
    vertex 0.290917 -0.025614 0.000000
  endloop
endfacet
facet normal 0.000000 0.000000 -0.011310
  outer loop
    vertex -0.067627 -0.387749 0.000000
    vertex -0.125000 -0.500000 0.000000
    vertex -0.183955 -0.418221 0.000000
  endloop
endfacet
facet normal 0.000000 -0.000000 -0.014750
  outer loop
    vertex -0.123690 0.284308 0.000000
    vertex -0.060950 0.176147 0.000000
    vertex -0.195643 0.173256 0.000000
  endloop
endfacet
facet normal 0.000000 0.000000 -0.011986
  outer loop
    vertex 0.183931 0.173180 0.000000
    vertex 0.268995 0.272512 0.000000
    vertex 0.290913 0.157205 0.000000
  endloop
endfacet
facet normal 0.000000 0.000000 -0.011438
  outer loop
    vertex -0.500000 0.500000 0.000000
    vertex -0.375000 0.500000 0.000000
    vertex -0.408494 0.408494 0.000000
  endloop
endfacet
facet normal 0.000000 -0.000000 -0.011438
  outer loop
    vertex 0.500000 -0.375000 0.000000
    vertex 0.500000 -0.500000 0.000000
    vertex 0.408494 -0.408494 0.000000
  endloop
endfacet
facet normal 0.000000 0.000000 -0.011438
  outer loop
    vertex -0.500000 0.375000 0.000000
    vertex -0.500000 0.500000 0.000000
    vertex -0.408494 0.408494 0.000000
  endloop
endfacet
facet normal 0.000000 0.000000 -0.011438
  outer loop
    vertex 0.500000 -0.500000 0.000000
    vertex 0.375000 -0.500000 0.000000
    vertex 0.408494 -0.408494 0.000000
  endloop
endfacet
facet normal 0.000000 0.000000 -0.011438
  outer loop
    vertex -0.375000 -0.500000 0.000000
    vertex -0.500000 -0.500000 0.000000
    vertex -0.408494 -0.408494 0.000000
  endloop
endfacet
facet normal 0.000000 -0.000000 -0.011438
  outer loop
    vertex 0.500000 0.500000 0.000000
    vertex 0.500000 0.375000 0.000000
    vertex 0.408494 0.408494 0.000000
  endloop
endfacet
facet normal 0.000000 0.000000 -0.011438
  outer loop
    vertex 0.375000 0.500000 0.000000
    vertex 0.500000 0.500000 0.000000
    vertex 0.408494 0.408494 0.000000
  endloop
endfacet
facet normal 0.000000 -0.000000 -0.010940
  outer loop
    vertex -0.394538 -0.307666 0.000000
    vertex -0.296819 -0.385578 0.000000
    vertex -0.408494 -0.408494 0.000000
  endloop
endfacet
facet normal 0.000000 0.000000 -0.011438
  outer loop
    vertex -0.500000 -0.500000 0.000000
    vertex -0.500000 -0.375000 0.000000
    vertex -0.408494 -0.408494 0.000000
  endloop
endfacet
facet normal 0.000000 0.000000 -0.010919
  outer loop
    vertex -0.286958 -0.254120 0.000000
    vertex -0.264900 -0.129700 0.000000
    vertex -0.192770 -0.217862 0.000000
  endloop
endfacet
facet normal -0.000000 0.000000 -0.012519
  outer loop
    vertex -0.059381 -0.042285 0.000000
    vertex -0.129236 -0.139908 0.000000
    vertex -0.178991 -0.030220 0.000000
  endloop
endfacet
facet normal 0.000000 -0.000000 -0.011175
  outer loop
    vertex -0.250550 0.294847 0.000000
    vertex -0.195643 0.173256 0.000000
    vertex -0.305216 0.212376 0.000000
  endloop
endfacet
facet normal 0.000000 0.000000 -0.011100
  outer loop
    vertex 0.389614 -0.190511 0.000000
    vertex 0.379230 -0.313091 0.000000
    vertex 0.294407 -0.245489 0.000000
  endloop
endfacet
facet normal 0.000000 0.000000 -0.011541
  outer loop
    vertex 0.187500 -0.257772 0.000000
    vertex 0.266725 -0.140717 0.000000
    vertex 0.294407 -0.245489 0.000000
  endloop
endfacet
facet normal 0.000000 0.000000 -0.010842
  outer loop
    vertex -0.395957 0.180208 0.000000
    vertex -0.385611 0.303359 0.000000
    vertex -0.305216 0.212376 0.000000
  endloop
endfacet
facet normal 0.000000 0.000000 -0.008829
  outer loop
    vertex -0.067627 -0.387749 0.000000
    vertex -0.067554 -0.257126 0.000000
    vertex 0.000000 -0.324760 0.000000
  endloop
endfacet
facet normal 0.000000 -0.000000 -0.011030
  outer loop
    vertex -0.195643 0.173256 0.000000
    vertex -0.116210 0.066243 0.000000
    vertex -0.216506 0.062500 0.000000
  endloop
endfacet
facet normal -0.000000 0.000000 -0.010174
  outer loop
    vertex -0.195643 0.173256 0.000000
    vertex -0.296379 0.116372 0.000000
    vertex -0.305216 0.212376 0.000000
  endloop
endfacet
facet normal 0.000000 0.000000 -0.011386
  outer loop
    vertex -0.250000 -0.500000 0.000000
    vertex -0.296819 -0.385578 0.000000
    vertex -0.183955 -0.418221 0.000000
  endloop
endfacet
facet normal 0.000000 0.000000 -0.009440
  outer loop
    vertex -0.116210 0.066243 0.000000
    vertex -0.178991 -0.030220 0.000000
    vertex -0.216506 0.062500 0.000000
  endloop
endfacet
facet normal 0.000000 0.000000 -0.010505
  outer loop
    vertex 0.184184 -0.039316 0.000000
    vertex 0.241404 0.066452 0.000000
    vertex 0.290917 -0.025614 0.000000
  endloop
endfacet
facet normal 0.000000 0.000000 -0.010222
  outer loop
    vertex -0.125000 -0.500000 0.000000
    vertex -0.250000 -0.500000 0.000000
    vertex -0.183955 -0.418221 0.000000
  endloop
endfacet
facet normal 0.000000 0.000000 -0.011455
  outer loop
    vertex -0.296819 -0.385578 0.000000
    vertex -0.180327 -0.317779 0.000000
    vertex -0.183955 -0.418221 0.000000
  endloop
endfacet
facet normal 0.000000 0.000000 -0.010500
  outer loop
    vertex 0.241404 0.066452 0.000000
    vertex 0.183931 0.173180 0.000000
    vertex 0.290913 0.157205 0.000000
  endloop
endfacet
facet normal 0.000000 0.000000 -0.009970
  outer loop
    vertex -0.296379 0.116372 0.000000
    vertex -0.195643 0.173256 0.000000
    vertex -0.216506 0.062500 0.000000
  endloop
endfacet
facet normal -0.000000 0.000000 -0.009102
  outer loop
    vertex 0.500000 0.375000 0.000000
    vertex 0.396132 0.313550 0.000000
    vertex 0.408494 0.408494 0.000000
  endloop
endfacet
facet normal 0.000000 0.000000 -0.009230
  outer loop
    vertex 0.375000 -0.500000 0.000000
    vertex 0.308146 -0.407074 0.000000
    vertex 0.408494 -0.408494 0.000000
  endloop
endfacet
facet normal 0.000000 0.000000 -0.010387
  outer loop
    vertex -0.385611 0.303359 0.000000
    vertex -0.500000 0.375000 0.000000
    vertex -0.408494 0.408494 0.000000
  endloop
endfacet
facet normal 0.000000 0.000000 -0.009183
  outer loop
    vertex 0.313374 0.394182 0.000000
    vertex 0.375000 0.500000 0.000000
    vertex 0.408494 0.408494 0.000000
  endloop
endfacet
facet normal 0.000000 -0.000000 -0.009313
  outer loop
    vertex -0.375000 0.500000 0.000000
    vertex -0.311970 0.394154 0.000000
    vertex -0.408494 0.408494 0.000000
  endloop
endfacet
facet normal 0.000000 0.000000 -0.009710
  outer loop
    vertex 0.379230 -0.313091 0.000000
    vertex 0.500000 -0.375000 0.000000
    vertex 0.408494 -0.408494 0.000000
  endloop
endfacet
facet normal 0.000000 0.000000 -0.009694
  outer loop
    vertex -0.500000 -0.375000 0.000000
    vertex -0.394538 -0.307666 0.000000
    vertex -0.408494 -0.408494 0.000000
  endloop
endfacet
facet normal 0.000000 0.000000 -0.009862
  outer loop
    vertex -0.180327 -0.317779 0.000000
    vertex -0.286958 -0.254120 0.000000
    vertex -0.192770 -0.217862 0.000000
  endloop
endfacet
facet normal 0.000000 0.000000 -0.008878
  outer loop
    vertex -0.178991 -0.030220 0.000000
    vertex -0.287713 0.001831 0.000000
    vertex -0.216506 0.062500 0.000000
  endloop
endfacet
facet normal 0.000000 0.000000 -0.008682
  outer loop
    vertex -0.287713 0.001831 0.000000
    vertex -0.296379 0.116372 0.000000
    vertex -0.216506 0.062500 0.000000
  endloop
endfacet
facet normal 0.000000 0.000000 -0.008438
  outer loop
    vertex 0.000000 -0.324760 0.000000
    vertex 0.062500 -0.257772 0.000000
    vertex 0.124736 -0.326080 0.000000
  endloop
endfacet
facet normal 0.000000 0.000000 -0.008538
  outer loop
    vertex 0.062500 -0.257772 0.000000
    vertex 0.187500 -0.257772 0.000000
    vertex 0.124736 -0.326080 0.000000
  endloop
endfacet
facet normal 0.000000 0.000000 -0.008752
  outer loop
    vertex -0.067554 -0.257126 0.000000
    vertex 0.062500 -0.257772 0.000000
    vertex 0.000000 -0.324760 0.000000
  endloop
endfacet
facet normal 0.000000 0.000000 -0.008719
  outer loop
    vertex 0.062264 -0.395317 0.000000
    vertex 0.000000 -0.324760 0.000000
    vertex 0.124736 -0.326080 0.000000
  endloop
endfacet
facet normal 0.000000 0.000000 -0.008694
  outer loop
    vertex 0.062264 -0.395317 0.000000
    vertex -0.067627 -0.387749 0.000000
    vertex 0.000000 -0.324760 0.000000
  endloop
endfacet
facet normal 0.000000 0.000000 -0.008661
  outer loop
    vertex 0.187189 -0.395507 0.000000
    vertex 0.062264 -0.395317 0.000000
    vertex 0.124736 -0.326080 0.000000
  endloop
endfacet
facet normal 0.000000 0.000000 -0.008996
  outer loop
    vertex -0.296379 0.116372 0.000000
    vertex -0.395957 0.180208 0.000000
    vertex -0.305216 0.212376 0.000000
  endloop
endfacet
facet normal 0.000000 0.000000 -0.009532
  outer loop
    vertex 0.308146 -0.407074 0.000000
    vertex 0.379230 -0.313091 0.000000
    vertex 0.408494 -0.408494 0.000000
  endloop
endfacet
facet normal -0.000000 0.000000 -0.009820
  outer loop
    vertex -0.311970 0.394154 0.000000
    vertex -0.385611 0.303359 0.000000
    vertex -0.408494 0.408494 0.000000
  endloop
endfacet
facet normal 0.000000 0.000000 -0.008854
  outer loop
    vertex 0.396132 0.313550 0.000000
    vertex 0.313374 0.394182 0.000000
    vertex 0.408494 0.408494 0.000000
  endloop
endfacet
facet normal 0.000000 0.000000 -0.008440
  outer loop
    vertex 0.124736 -0.326080 0.000000
    vertex 0.187500 -0.257772 0.000000
    vertex 0.248964 -0.325355 0.000000
  endloop
endfacet
facet normal 0.000000 0.000000 -0.008670
  outer loop
    vertex 0.187189 -0.395507 0.000000
    vertex 0.124736 -0.326080 0.000000
    vertex 0.248964 -0.325355 0.000000
  endloop
endfacet
facet normal 0.000000 0.000000 -0.009200
  outer loop
    vertex 0.308146 -0.407074 0.000000
    vertex 0.187189 -0.395507 0.000000
    vertex 0.248964 -0.325355 0.000000
  endloop
endfacet
facet normal 0.000000 0.000000 -0.007980
  outer loop
    vertex 0.187500 -0.257772 0.000000
    vertex 0.294407 -0.245489 0.000000
    vertex 0.248964 -0.325355 0.000000
  endloop
endfacet
facet normal 0.000000 -0.000000 0.014312
  outer loop
    vertex 0.387963 0.198341 0.005000
    vertex 0.396132 0.313550 0.005000
    vertex 0.268995 0.272512 0.005000
  endloop
endfacet
facet normal -0.000000 0.000000 0.014525
  outer loop
    vertex 0.266725 -0.140717 0.005000
    vertex 0.389614 -0.190511 0.005000
    vertex 0.387576 -0.071488 0.005000
  endloop
endfacet
facet normal 0.000000 0.000000 0.012323
  outer loop
    vertex 0.268995 0.272512 0.005000
    vertex 0.291463 0.154920 0.005000
    vertex 0.387963 0.198341 0.005000
  endloop
endfacet
facet normal 0.000000 0.000000 0.012403
  outer loop
    vertex 0.387576 -0.071488 0.005000
    vertex 0.290983 -0.024191 0.005000
    vertex 0.266725 -0.140717 0.005000
  endloop
endfacet
facet normal 0.000000 0.000000 0.014373
  outer loop
    vertex -0.129236 -0.139908 0.005000
    vertex -0.178991 -0.030220 0.005000
    vertex -0.264900 -0.129700 0.005000
  endloop
endfacet
facet normal 0.000000 0.000000 0.011224
  outer loop
    vertex -0.264900 -0.129700 0.005000
    vertex -0.192770 -0.217862 0.005000
    vertex -0.129236 -0.139908 0.005000
  endloop
endfacet
facet normal 0.000000 0.000000 0.014303
  outer loop
    vertex -0.250000 -0.500000 0.005000
    vertex -0.296819 -0.385578 0.005000
    vertex -0.375000 -0.500000 0.005000
  endloop
endfacet
facet normal 0.000000 0.000000 0.010986
  outer loop
    vertex -0.296819 -0.385578 0.005000
    vertex -0.408494 -0.408494 0.005000
    vertex -0.375000 -0.500000 0.005000
  endloop
endfacet
facet normal 0.000000 -0.000000 0.014726
  outer loop
    vertex -0.067627 -0.387749 0.005000
    vertex -0.067554 -0.257126 0.005000
    vertex -0.180327 -0.317779 0.005000
  endloop
endfacet
facet normal 0.000000 0.000000 0.013648
  outer loop
    vertex 0.268995 0.272512 0.005000
    vertex 0.396132 0.313550 0.005000
    vertex 0.313374 0.394182 0.005000
  endloop
endfacet
facet normal 0.000000 0.000000 0.012890
  outer loop
    vertex -0.311970 0.394154 0.005000
    vertex -0.385611 0.303359 0.005000
    vertex -0.250550 0.294847 0.005000
  endloop
endfacet
facet normal 0.000000 0.000000 0.011378
  outer loop
    vertex 0.371834 0.064461 0.005000
    vertex 0.291463 0.154920 0.005000
    vertex 0.244594 0.066104 0.005000
  endloop
endfacet
facet normal 0.000000 0.000000 0.011413
  outer loop
    vertex 0.244594 0.066104 0.005000
    vertex 0.290983 -0.024191 0.005000
    vertex 0.371834 0.064461 0.005000
  endloop
endfacet
facet normal 0.000000 0.000000 0.011604
  outer loop
    vertex -0.385611 0.303359 0.005000
    vertex -0.305216 0.212376 0.005000
    vertex -0.250550 0.294847 0.005000
  endloop
endfacet
facet normal 0.000000 0.000000 0.011497
  outer loop
    vertex 0.266725 -0.140717 0.005000
    vertex 0.294407 -0.245489 0.005000
    vertex 0.389614 -0.190511 0.005000
  endloop
endfacet
facet normal 0.000000 0.000000 0.012219
  outer loop
    vertex 0.387963 0.198341 0.005000
    vertex 0.291463 0.154920 0.005000
    vertex 0.371834 0.064461 0.005000
  endloop
endfacet
facet normal 0.000000 0.000000 0.011574
  outer loop
    vertex -0.180327 -0.317779 0.005000
    vertex -0.183955 -0.418221 0.005000
    vertex -0.067627 -0.387749 0.005000
  endloop
endfacet
facet normal -0.000000 0.000000 0.013227
  outer loop
    vertex 0.250000 0.500000 0.005000
    vertex 0.313374 0.394182 0.005000
    vertex 0.375000 0.500000 0.005000
  endloop
endfacet
facet normal -0.000000 0.000000 0.016267
  outer loop
    vertex 0.125044 0.283520 0.005000
    vertex 0.268995 0.272512 0.005000
    vertex 0.187500 0.391747 0.005000
  endloop
endfacet
facet normal 0.000000 0.000000 0.013474
  outer loop
    vertex 0.187500 0.391747 0.005000
    vertex 0.313374 0.394182 0.005000
    vertex 0.250000 0.500000 0.005000
  endloop
endfacet
facet normal 0.000000 -0.000000 0.015207
  outer loop
    vertex 0.268995 0.272512 0.005000
    vertex 0.313374 0.394182 0.005000
    vertex 0.187500 0.391747 0.005000
  endloop
endfacet
facet normal 0.000000 0.000000 0.013525
  outer loop
    vertex 0.187500 0.391747 0.005000
    vertex 0.062544 0.391774 0.005000
    vertex 0.125044 0.283520 0.005000
  endloop
endfacet
facet normal 0.000000 0.000000 0.013356
  outer loop
    vertex -0.500000 0.000000 0.005000
    vertex -0.393152 0.061590 0.005000
    vertex -0.500000 0.125000 0.005000
  endloop
endfacet
facet normal -0.000000 0.000000 0.013528
  outer loop
    vertex 0.000000 0.500000 0.005000
    vertex 0.062544 0.391774 0.005000
    vertex 0.125000 0.500000 0.005000
  endloop
endfacet
facet normal 0.000000 0.000000 0.011559
  outer loop
    vertex -0.287713 0.001831 0.005000
    vertex -0.296379 0.116372 0.005000
    vertex -0.393152 0.061590 0.005000
  endloop
endfacet
facet normal 0.000000 0.000000 0.013525
  outer loop
    vertex 0.125000 0.500000 0.005000
    vertex 0.062544 0.391774 0.005000
    vertex 0.187500 0.391747 0.005000
  endloop
endfacet
facet normal -0.000000 0.000000 0.012496
  outer loop
    vertex -0.500000 0.125000 0.005000
    vertex -0.393152 0.061590 0.005000
    vertex -0.395957 0.180208 0.005000
  endloop
endfacet
facet normal 0.000000 0.000000 0.013345
  outer loop
    vertex -0.391747 -0.062500 0.005000
    vertex -0.393152 0.061590 0.005000
    vertex -0.500000 0.000000 0.005000
  endloop
endfacet
facet normal 0.000000 -0.000000 0.012892
  outer loop
    vertex -0.394538 -0.307666 0.005000
    vertex -0.392212 -0.186694 0.005000
    vertex -0.500000 -0.250000 0.005000
  endloop
endfacet
facet normal 0.000000 0.000000 0.013085
  outer loop
    vertex 0.125000 -0.500000 0.005000
    vertex 0.062264 -0.395317 0.005000
    vertex 0.000000 -0.500000 0.005000
  endloop
endfacet
facet normal 0.000000 -0.000000 0.012661
  outer loop
    vertex 0.184184 -0.039316 0.005000
    vertex 0.244594 0.066104 0.005000
    vertex 0.125000 0.066987 0.005000
  endloop
endfacet
facet normal 0.000000 0.000000 0.015151
  outer loop
    vertex -0.264900 -0.129700 0.005000
    vertex -0.287713 0.001831 0.005000
    vertex -0.391747 -0.062500 0.005000
  endloop
endfacet
facet normal 0.000000 0.000000 0.013532
  outer loop
    vertex -0.500000 -0.125000 0.005000
    vertex -0.391747 -0.062500 0.005000
    vertex -0.500000 0.000000 0.005000
  endloop
endfacet
facet normal 0.000000 0.000000 0.014149
  outer loop
    vertex 0.500000 -0.250000 0.005000
    vertex 0.389614 -0.190511 0.005000
    vertex 0.379230 -0.313091 0.005000
  endloop
endfacet
facet normal 0.000000 0.000000 0.014053
  outer loop
    vertex 0.500000 0.000000 0.005000
    vertex 0.387576 -0.071488 0.005000
    vertex 0.500000 -0.125000 0.005000
  endloop
endfacet
facet normal 0.000000 0.000000 0.014031
  outer loop
    vertex 0.000000 -0.500000 0.005000
    vertex -0.067627 -0.387749 0.005000
    vertex -0.125000 -0.500000 0.005000
  endloop
endfacet
facet normal -0.000000 0.000000 0.013532
  outer loop
    vertex -0.125000 0.500000 0.005000
    vertex -0.062500 0.391747 0.005000
    vertex 0.000000 0.500000 0.005000
  endloop
endfacet
facet normal 0.000000 0.000000 0.013535
  outer loop
    vertex -0.062500 0.391747 0.005000
    vertex 0.062544 0.391774 0.005000
    vertex 0.000000 0.500000 0.005000
  endloop
endfacet
facet normal 0.000000 0.000000 0.013066
  outer loop
    vertex 0.187189 -0.395507 0.005000
    vertex 0.062264 -0.395317 0.005000
    vertex 0.125000 -0.500000 0.005000
  endloop
endfacet
facet normal -0.000000 0.000000 0.013308
  outer loop
    vertex -0.311970 0.394154 0.005000
    vertex -0.187412 0.392148 0.005000
    vertex -0.250000 0.500000 0.005000
  endloop
endfacet
facet normal 0.000000 0.000000 0.015785
  outer loop
    vertex -0.392212 -0.186694 0.005000
    vertex -0.264900 -0.129700 0.005000
    vertex -0.391747 -0.062500 0.005000
  endloop
endfacet
facet normal 0.000000 0.000000 0.012890
  outer loop
    vertex -0.394538 -0.307666 0.005000
    vertex -0.286958 -0.254120 0.005000
    vertex -0.392212 -0.186694 0.005000
  endloop
endfacet
facet normal 0.000000 0.000000 0.013009
  outer loop
    vertex -0.187412 0.392148 0.005000
    vertex -0.250550 0.294847 0.005000
    vertex -0.123690 0.284308 0.005000
  endloop
endfacet
facet normal 0.000000 0.000000 0.012246
  outer loop
    vertex -0.311970 0.394154 0.005000
    vertex -0.250550 0.294847 0.005000
    vertex -0.187412 0.392148 0.005000
  endloop
endfacet
facet normal 0.000000 0.000000 0.013506
  outer loop
    vertex 0.125044 0.283520 0.005000
    vertex 0.062544 0.391774 0.005000
    vertex 0.000218 0.283629 0.005000
  endloop
endfacet
facet normal 0.000000 0.000000 0.013473
  outer loop
    vertex -0.500000 -0.250000 0.005000
    vertex -0.392212 -0.186694 0.005000
    vertex -0.500000 -0.125000 0.005000
  endloop
endfacet
facet normal 0.000000 0.000000 0.013798
  outer loop
    vertex 0.500000 -0.125000 0.005000
    vertex 0.389614 -0.190511 0.005000
    vertex 0.500000 -0.250000 0.005000
  endloop
endfacet
facet normal 0.000000 0.000000 0.013272
  outer loop
    vertex 0.387576 -0.071488 0.005000
    vertex 0.389614 -0.190511 0.005000
    vertex 0.500000 -0.125000 0.005000
  endloop
endfacet
facet normal -0.000000 0.000000 0.013482
  outer loop
    vertex -0.250000 0.500000 0.005000
    vertex -0.187412 0.392148 0.005000
    vertex -0.125000 0.500000 0.005000
  endloop
endfacet
facet normal 0.000000 0.000000 0.013445
  outer loop
    vertex -0.187412 0.392148 0.005000
    vertex -0.123690 0.284308 0.005000
    vertex -0.062500 0.391747 0.005000
  endloop
endfacet
facet normal 0.000000 -0.000000 0.013521
  outer loop
    vertex 0.000218 0.283629 0.005000
    vertex 0.062544 0.391774 0.005000
    vertex -0.062500 0.391747 0.005000
  endloop
endfacet
facet normal -0.000000 0.000000 0.013415
  outer loop
    vertex -0.500000 -0.125000 0.005000
    vertex -0.392212 -0.186694 0.005000
    vertex -0.391747 -0.062500 0.005000
  endloop
endfacet
facet normal 0.000000 0.000000 0.016409
  outer loop
    vertex 0.500000 0.000000 0.005000
    vertex 0.371834 0.064461 0.005000
    vertex 0.387576 -0.071488 0.005000
  endloop
endfacet
facet normal 0.000000 0.000000 0.013497
  outer loop
    vertex -0.125000 0.500000 0.005000
    vertex -0.187412 0.392148 0.005000
    vertex -0.062500 0.391747 0.005000
  endloop
endfacet
facet normal 0.000000 0.000000 0.013000
  outer loop
    vertex -0.287713 0.001831 0.005000
    vertex -0.393152 0.061590 0.005000
    vertex -0.391747 -0.062500 0.005000
  endloop
endfacet
facet normal 0.000000 0.000000 0.016021
  outer loop
    vertex 0.500000 0.125000 0.005000
    vertex 0.371834 0.064461 0.005000
    vertex 0.500000 0.000000 0.005000
  endloop
endfacet
facet normal 0.000000 -0.000000 0.014069
  outer loop
    vertex 0.000000 -0.500000 0.005000
    vertex 0.062264 -0.395317 0.005000
    vertex -0.067627 -0.387749 0.005000
  endloop
endfacet
facet normal -0.000000 0.000000 0.015882
  outer loop
    vertex 0.125072 -0.149539 0.005000
    vertex 0.187500 -0.257772 0.005000
    vertex 0.266725 -0.140717 0.005000
  endloop
endfacet
facet normal 0.000000 0.000000 0.016182
  outer loop
    vertex 0.387963 0.198341 0.005000
    vertex 0.371834 0.064461 0.005000
    vertex 0.500000 0.125000 0.005000
  endloop
endfacet
facet normal -0.000000 0.000000 0.013354
  outer loop
    vertex -0.123690 0.284308 0.005000
    vertex 0.000218 0.283629 0.005000
    vertex -0.062500 0.391747 0.005000
  endloop
endfacet
facet normal -0.000000 0.000000 0.013509
  outer loop
    vertex 0.000307 0.067167 0.005000
    vertex 0.125000 0.066987 0.005000
    vertex 0.062795 0.175414 0.005000
  endloop
endfacet
facet normal 0.000000 0.000000 0.012995
  outer loop
    vertex 0.062795 0.175414 0.005000
    vertex 0.125000 0.066987 0.005000
    vertex 0.183931 0.173180 0.005000
  endloop
endfacet
facet normal -0.000000 0.000000 0.012752
  outer loop
    vertex 0.125000 0.066987 0.005000
    vertex 0.244594 0.066104 0.005000
    vertex 0.183931 0.173180 0.005000
  endloop
endfacet
facet normal 0.000000 -0.000000 0.013501
  outer loop
    vertex 0.062795 0.175414 0.005000
    vertex 0.125044 0.283520 0.005000
    vertex 0.000218 0.283629 0.005000
  endloop
endfacet
facet normal 0.000000 -0.000000 0.014583
  outer loop
    vertex -0.286958 -0.254120 0.005000
    vertex -0.264900 -0.129700 0.005000
    vertex -0.392212 -0.186694 0.005000
  endloop
endfacet
facet normal 0.000000 0.000000 0.015096
  outer loop
    vertex 0.500000 -0.250000 0.005000
    vertex 0.379230 -0.313091 0.005000
    vertex 0.500000 -0.375000 0.005000
  endloop
endfacet
facet normal -0.000000 0.000000 0.013231
  outer loop
    vertex -0.375000 0.500000 0.005000
    vertex -0.311970 0.394154 0.005000
    vertex -0.250000 0.500000 0.005000
  endloop
endfacet
facet normal 0.000000 -0.000000 0.011633
  outer loop
    vertex -0.393152 0.061590 0.005000
    vertex -0.296379 0.116372 0.005000
    vertex -0.395957 0.180208 0.005000
  endloop
endfacet
facet normal 0.000000 0.000000 0.012998
  outer loop
    vertex 0.184184 -0.039316 0.005000
    vertex 0.125000 0.066987 0.005000
    vertex 0.063071 -0.041406 0.005000
  endloop
endfacet
facet normal 0.000000 0.000000 0.015092
  outer loop
    vertex 0.125072 -0.149539 0.005000
    vertex 0.266725 -0.140717 0.005000
    vertex 0.184184 -0.039316 0.005000
  endloop
endfacet
facet normal 0.000000 -0.000000 0.015235
  outer loop
    vertex 0.183931 0.173180 0.005000
    vertex 0.268995 0.272512 0.005000
    vertex 0.125044 0.283520 0.005000
  endloop
endfacet
facet normal 0.000000 0.000000 0.013359
  outer loop
    vertex -0.123690 0.284308 0.005000
    vertex -0.060950 0.176147 0.005000
    vertex 0.000218 0.283629 0.005000
  endloop
endfacet
facet normal 0.000000 0.000000 0.013350
  outer loop
    vertex -0.059381 -0.042285 0.005000
    vertex 0.063071 -0.041406 0.005000
    vertex 0.000307 0.067167 0.005000
  endloop
endfacet
facet normal 0.000000 0.000000 0.013361
  outer loop
    vertex -0.059381 -0.042285 0.005000
    vertex -0.129236 -0.139908 0.005000
    vertex 0.000615 -0.149712 0.005000
  endloop
endfacet
facet normal 0.000000 -0.000000 0.013226
  outer loop
    vertex 0.125072 -0.149539 0.005000
    vertex 0.184184 -0.039316 0.005000
    vertex 0.063071 -0.041406 0.005000
  endloop
endfacet
facet normal -0.000000 0.000000 0.013460
  outer loop
    vertex 0.000615 -0.149712 0.005000
    vertex 0.062500 -0.257772 0.005000
    vertex 0.125072 -0.149539 0.005000
  endloop
endfacet
facet normal 0.000000 0.000000 0.013529
  outer loop
    vertex 0.062500 -0.257772 0.005000
    vertex 0.187500 -0.257772 0.005000
    vertex 0.125072 -0.149539 0.005000
  endloop
endfacet
facet normal 0.000000 0.000000 0.013183
  outer loop
    vertex -0.500000 -0.375000 0.005000
    vertex -0.394538 -0.307666 0.005000
    vertex -0.500000 -0.250000 0.005000
  endloop
endfacet
facet normal -0.000000 0.000000 0.013345
  outer loop
    vertex -0.060950 0.176147 0.005000
    vertex 0.062795 0.175414 0.005000
    vertex 0.000218 0.283629 0.005000
  endloop
endfacet
facet normal 0.000000 0.000000 0.013441
  outer loop
    vertex -0.060950 0.176147 0.005000
    vertex 0.000307 0.067167 0.005000
    vertex 0.062795 0.175414 0.005000
  endloop
endfacet
facet normal 0.000000 0.000000 0.012755
  outer loop
    vertex -0.060950 0.176147 0.005000
    vertex -0.116210 0.066243 0.005000
    vertex 0.000307 0.067167 0.005000
  endloop
endfacet
facet normal 0.000000 -0.000000 0.013527
  outer loop
    vertex 0.063071 -0.041406 0.005000
    vertex 0.125000 0.066987 0.005000
    vertex 0.000307 0.067167 0.005000
  endloop
endfacet
facet normal 0.000000 0.000000 0.013005
  outer loop
    vertex -0.500000 0.125000 0.005000
    vertex -0.395957 0.180208 0.005000
    vertex -0.500000 0.250000 0.005000
  endloop
endfacet
facet normal 0.000000 0.000000 0.014005
  outer loop
    vertex 0.500000 0.250000 0.005000
    vertex 0.387963 0.198341 0.005000
    vertex 0.500000 0.125000 0.005000
  endloop
endfacet
facet normal 0.000000 0.000000 0.013062
  outer loop
    vertex 0.250000 -0.500000 0.005000
    vertex 0.187189 -0.395507 0.005000
    vertex 0.125000 -0.500000 0.005000
  endloop
endfacet
facet normal -0.000000 0.000000 0.013532
  outer loop
    vertex 0.125000 0.500000 0.005000
    vertex 0.187500 0.391747 0.005000
    vertex 0.250000 0.500000 0.005000
  endloop
endfacet
facet normal -0.000000 0.000000 0.013207
  outer loop
    vertex -0.059381 -0.042285 0.005000
    vertex 0.000615 -0.149712 0.005000
    vertex 0.063071 -0.041406 0.005000
  endloop
endfacet
facet normal 0.000000 0.000000 0.014014
  outer loop
    vertex 0.000615 -0.149712 0.005000
    vertex -0.067554 -0.257126 0.005000
    vertex 0.062500 -0.257772 0.005000
  endloop
endfacet
facet normal -0.000000 0.000000 0.013614
  outer loop
    vertex -0.394538 -0.307666 0.005000
    vertex -0.296819 -0.385578 0.005000
    vertex -0.286958 -0.254120 0.005000
  endloop
endfacet
facet normal -0.000000 0.000000 0.013235
  outer loop
    vertex 0.062795 0.175414 0.005000
    vertex 0.183931 0.173180 0.005000
    vertex 0.125044 0.283520 0.005000
  endloop
endfacet
facet normal -0.000000 0.000000 0.012698
  outer loop
    vertex -0.116210 0.066243 0.005000
    vertex -0.059381 -0.042285 0.005000
    vertex 0.000307 0.067167 0.005000
  endloop
endfacet
facet normal 0.000000 0.000000 0.013469
  outer loop
    vertex 0.000615 -0.149712 0.005000
    vertex 0.125072 -0.149539 0.005000
    vertex 0.063071 -0.041406 0.005000
  endloop
endfacet
facet normal 0.000000 0.000000 0.014645
  outer loop
    vertex -0.296819 -0.385578 0.005000
    vertex -0.180327 -0.317779 0.005000
    vertex -0.286958 -0.254120 0.005000
  endloop
endfacet
facet normal 0.000000 0.000000 0.014616
  outer loop
    vertex -0.129236 -0.139908 0.005000
    vertex -0.067554 -0.257126 0.005000
    vertex 0.000615 -0.149712 0.005000
  endloop
endfacet
facet normal 0.000000 0.000000 0.011371
  outer loop
    vertex 0.379230 -0.313091 0.005000
    vertex 0.248964 -0.325355 0.005000
    vertex 0.308146 -0.407074 0.005000
  endloop
endfacet
facet normal 0.000000 -0.000000 0.013569
  outer loop
    vertex -0.264900 -0.129700 0.005000
    vertex -0.178991 -0.030220 0.005000
    vertex -0.287713 0.001831 0.005000
  endloop
endfacet
facet normal 0.000000 0.000000 0.009847
  outer loop
    vertex 0.294407 -0.245489 0.005000
    vertex 0.248964 -0.325355 0.005000
    vertex 0.379230 -0.313091 0.005000
  endloop
endfacet
facet normal 0.000000 0.000000 0.012387
  outer loop
    vertex 0.371834 0.064461 0.005000
    vertex 0.290983 -0.024191 0.005000
    vertex 0.387576 -0.071488 0.005000
  endloop
endfacet
facet normal 0.000000 0.000000 0.011616
  outer loop
    vertex 0.375000 -0.500000 0.005000
    vertex 0.308146 -0.407074 0.005000
    vertex 0.250000 -0.500000 0.005000
  endloop
endfacet
facet normal 0.000000 0.000000 0.014299
  outer loop
    vertex -0.500000 0.250000 0.005000
    vertex -0.385611 0.303359 0.005000
    vertex -0.500000 0.375000 0.005000
  endloop
endfacet
facet normal 0.000000 0.000000 0.012984
  outer loop
    vertex 0.500000 0.375000 0.005000
    vertex 0.396132 0.313550 0.005000
    vertex 0.500000 0.250000 0.005000
  endloop
endfacet
facet normal 0.000000 0.000000 0.014846
  outer loop
    vertex -0.250550 0.294847 0.005000
    vertex -0.195643 0.173256 0.005000
    vertex -0.123690 0.284308 0.005000
  endloop
endfacet
facet normal 0.000000 0.000000 0.014644
  outer loop
    vertex -0.060950 0.176147 0.005000
    vertex -0.195643 0.173256 0.005000
    vertex -0.116210 0.066243 0.005000
  endloop
endfacet
facet normal 0.000000 0.000000 0.012023
  outer loop
    vertex -0.067554 -0.257126 0.005000
    vertex -0.192770 -0.217862 0.005000
    vertex -0.180327 -0.317779 0.005000
  endloop
endfacet
facet normal 0.000000 0.000000 0.012256
  outer loop
    vertex -0.129236 -0.139908 0.005000
    vertex -0.192770 -0.217862 0.005000
    vertex -0.067554 -0.257126 0.005000
  endloop
endfacet
facet normal 0.000000 0.000000 0.012295
  outer loop
    vertex -0.116210 0.066243 0.005000
    vertex -0.178991 -0.030220 0.005000
    vertex -0.059381 -0.042285 0.005000
  endloop
endfacet
facet normal 0.000000 -0.000000 0.013535
  outer loop
    vertex -0.395957 0.180208 0.005000
    vertex -0.385611 0.303359 0.005000
    vertex -0.500000 0.250000 0.005000
  endloop
endfacet
facet normal 0.000000 -0.000000 0.011913
  outer loop
    vertex 0.250000 -0.500000 0.005000
    vertex 0.308146 -0.407074 0.005000
    vertex 0.187189 -0.395507 0.005000
  endloop
endfacet
facet normal 0.000000 0.000000 0.012486
  outer loop
    vertex 0.500000 0.250000 0.005000
    vertex 0.396132 0.313550 0.005000
    vertex 0.387963 0.198341 0.005000
  endloop
endfacet
facet normal 0.000000 -0.000000 0.012078
  outer loop
    vertex 0.266725 -0.140717 0.005000
    vertex 0.290983 -0.024191 0.005000
    vertex 0.184184 -0.039316 0.005000
  endloop
endfacet
facet normal 0.000000 0.000000 0.011310
  outer loop
    vertex -0.067627 -0.387749 0.005000
    vertex -0.183955 -0.418221 0.005000
    vertex -0.125000 -0.500000 0.005000
  endloop
endfacet
facet normal 0.000000 0.000000 0.014750
  outer loop
    vertex -0.123690 0.284308 0.005000
    vertex -0.195643 0.173256 0.005000
    vertex -0.060950 0.176147 0.005000
  endloop
endfacet
facet normal -0.000000 0.000000 0.012235
  outer loop
    vertex 0.183931 0.173180 0.005000
    vertex 0.291463 0.154920 0.005000
    vertex 0.268995 0.272512 0.005000
  endloop
endfacet
facet normal -0.000000 0.000000 0.011438
  outer loop
    vertex -0.500000 0.500000 0.005000
    vertex -0.408494 0.408494 0.005000
    vertex -0.375000 0.500000 0.005000
  endloop
endfacet
facet normal 0.000000 0.000000 0.011438
  outer loop
    vertex 0.500000 -0.375000 0.005000
    vertex 0.408494 -0.408494 0.005000
    vertex 0.500000 -0.500000 0.005000
  endloop
endfacet
facet normal 0.000000 0.000000 0.011438
  outer loop
    vertex -0.500000 0.375000 0.005000
    vertex -0.408494 0.408494 0.005000
    vertex -0.500000 0.500000 0.005000
  endloop
endfacet
facet normal 0.000000 0.000000 0.011438
  outer loop
    vertex 0.500000 -0.500000 0.005000
    vertex 0.408494 -0.408494 0.005000
    vertex 0.375000 -0.500000 0.005000
  endloop
endfacet
facet normal 0.000000 0.000000 0.011438
  outer loop
    vertex -0.375000 -0.500000 0.005000
    vertex -0.408494 -0.408494 0.005000
    vertex -0.500000 -0.500000 0.005000
  endloop
endfacet
facet normal 0.000000 0.000000 0.011438
  outer loop
    vertex 0.500000 0.500000 0.005000
    vertex 0.408494 0.408494 0.005000
    vertex 0.500000 0.375000 0.005000
  endloop
endfacet
facet normal -0.000000 0.000000 0.011438
  outer loop
    vertex 0.375000 0.500000 0.005000
    vertex 0.408494 0.408494 0.005000
    vertex 0.500000 0.500000 0.005000
  endloop
endfacet
facet normal 0.000000 0.000000 0.010940
  outer loop
    vertex -0.394538 -0.307666 0.005000
    vertex -0.408494 -0.408494 0.005000
    vertex -0.296819 -0.385578 0.005000
  endloop
endfacet
facet normal 0.000000 0.000000 0.011438
  outer loop
    vertex -0.500000 -0.500000 0.005000
    vertex -0.408494 -0.408494 0.005000
    vertex -0.500000 -0.375000 0.005000
  endloop
endfacet
facet normal 0.000000 0.000000 0.010919
  outer loop
    vertex -0.286958 -0.254120 0.005000
    vertex -0.192770 -0.217862 0.005000
    vertex -0.264900 -0.129700 0.005000
  endloop
endfacet
facet normal 0.000000 0.000000 0.012519
  outer loop
    vertex -0.059381 -0.042285 0.005000
    vertex -0.178991 -0.030220 0.005000
    vertex -0.129236 -0.139908 0.005000
  endloop
endfacet
facet normal 0.000000 0.000000 0.011175
  outer loop
    vertex -0.250550 0.294847 0.005000
    vertex -0.305216 0.212376 0.005000
    vertex -0.195643 0.173256 0.005000
  endloop
endfacet
facet normal 0.000000 0.000000 0.011100
  outer loop
    vertex 0.389614 -0.190511 0.005000
    vertex 0.294407 -0.245489 0.005000
    vertex 0.379230 -0.313091 0.005000
  endloop
endfacet
facet normal 0.000000 0.000000 0.011541
  outer loop
    vertex 0.187500 -0.257772 0.005000
    vertex 0.294407 -0.245489 0.005000
    vertex 0.266725 -0.140717 0.005000
  endloop
endfacet
facet normal 0.000000 0.000000 0.010842
  outer loop
    vertex -0.395957 0.180208 0.005000
    vertex -0.305216 0.212376 0.005000
    vertex -0.385611 0.303359 0.005000
  endloop
endfacet
facet normal 0.000000 0.000000 0.008829
  outer loop
    vertex -0.067627 -0.387749 0.005000
    vertex 0.000000 -0.324760 0.005000
    vertex -0.067554 -0.257126 0.005000
  endloop
endfacet
facet normal 0.000000 0.000000 0.011030
  outer loop
    vertex -0.195643 0.173256 0.005000
    vertex -0.216506 0.062500 0.005000
    vertex -0.116210 0.066243 0.005000
  endloop
endfacet
facet normal 0.000000 0.000000 0.010174
  outer loop
    vertex -0.195643 0.173256 0.005000
    vertex -0.305216 0.212376 0.005000
    vertex -0.296379 0.116372 0.005000
  endloop
endfacet
facet normal 0.000000 -0.000000 0.011386
  outer loop
    vertex -0.250000 -0.500000 0.005000
    vertex -0.183955 -0.418221 0.005000
    vertex -0.296819 -0.385578 0.005000
  endloop
endfacet
facet normal 0.000000 0.000000 0.009440
  outer loop
    vertex -0.116210 0.066243 0.005000
    vertex -0.216506 0.062500 0.005000
    vertex -0.178991 -0.030220 0.005000
  endloop
endfacet
facet normal 0.000000 0.000000 0.010345
  outer loop
    vertex 0.184184 -0.039316 0.005000
    vertex 0.290983 -0.024191 0.005000
    vertex 0.244594 0.066104 0.005000
  endloop
endfacet
facet normal 0.000000 0.000000 0.010222
  outer loop
    vertex -0.125000 -0.500000 0.005000
    vertex -0.183955 -0.418221 0.005000
    vertex -0.250000 -0.500000 0.005000
  endloop
endfacet
facet normal -0.000000 0.000000 0.011455
  outer loop
    vertex -0.296819 -0.385578 0.005000
    vertex -0.183955 -0.418221 0.005000
    vertex -0.180327 -0.317779 0.005000
  endloop
endfacet
facet normal 0.000000 -0.000000 0.010406
  outer loop
    vertex 0.244594 0.066104 0.005000
    vertex 0.291463 0.154920 0.005000
    vertex 0.183931 0.173180 0.005000
  endloop
endfacet
facet normal -0.000000 0.000000 0.009970
  outer loop
    vertex -0.296379 0.116372 0.005000
    vertex -0.216506 0.062500 0.005000
    vertex -0.195643 0.173256 0.005000
  endloop
endfacet
facet normal 0.000000 0.000000 0.009102
  outer loop
    vertex 0.500000 0.375000 0.005000
    vertex 0.408494 0.408494 0.005000
    vertex 0.396132 0.313550 0.005000
  endloop
endfacet
facet normal 0.000000 -0.000000 0.009230
  outer loop
    vertex 0.375000 -0.500000 0.005000
    vertex 0.408494 -0.408494 0.005000
    vertex 0.308146 -0.407074 0.005000
  endloop
endfacet
facet normal 0.000000 0.000000 0.010387
  outer loop
    vertex -0.385611 0.303359 0.005000
    vertex -0.408494 0.408494 0.005000
    vertex -0.500000 0.375000 0.005000
  endloop
endfacet
facet normal 0.000000 0.000000 0.009183
  outer loop
    vertex 0.313374 0.394182 0.005000
    vertex 0.408494 0.408494 0.005000
    vertex 0.375000 0.500000 0.005000
  endloop
endfacet
facet normal 0.000000 0.000000 0.009313
  outer loop
    vertex -0.375000 0.500000 0.005000
    vertex -0.408494 0.408494 0.005000
    vertex -0.311970 0.394154 0.005000
  endloop
endfacet
facet normal 0.000000 0.000000 0.009710
  outer loop
    vertex 0.379230 -0.313091 0.005000
    vertex 0.408494 -0.408494 0.005000
    vertex 0.500000 -0.375000 0.005000
  endloop
endfacet
facet normal -0.000000 0.000000 0.009694
  outer loop
    vertex -0.500000 -0.375000 0.005000
    vertex -0.408494 -0.408494 0.005000
    vertex -0.394538 -0.307666 0.005000
  endloop
endfacet
facet normal 0.000000 0.000000 0.009862
  outer loop
    vertex -0.180327 -0.317779 0.005000
    vertex -0.192770 -0.217862 0.005000
    vertex -0.286958 -0.254120 0.005000
  endloop
endfacet
facet normal 0.000000 0.000000 0.008878
  outer loop
    vertex -0.178991 -0.030220 0.005000
    vertex -0.216506 0.062500 0.005000
    vertex -0.287713 0.001831 0.005000
  endloop
endfacet
facet normal 0.000000 -0.000000 0.008682
  outer loop
    vertex -0.287713 0.001831 0.005000
    vertex -0.216506 0.062500 0.005000
    vertex -0.296379 0.116372 0.005000
  endloop
endfacet
facet normal -0.000000 0.000000 0.008438
  outer loop
    vertex 0.000000 -0.324760 0.005000
    vertex 0.124736 -0.326080 0.005000
    vertex 0.062500 -0.257772 0.005000
  endloop
endfacet
facet normal -0.000000 0.000000 0.008538
  outer loop
    vertex 0.062500 -0.257772 0.005000
    vertex 0.124736 -0.326080 0.005000
    vertex 0.187500 -0.257772 0.005000
  endloop
endfacet
facet normal 0.000000 0.000000 0.008752
  outer loop
    vertex -0.067554 -0.257126 0.005000
    vertex 0.000000 -0.324760 0.005000
    vertex 0.062500 -0.257772 0.005000
  endloop
endfacet
facet normal 0.000000 -0.000000 0.008719
  outer loop
    vertex 0.062264 -0.395317 0.005000
    vertex 0.124736 -0.326080 0.005000
    vertex 0.000000 -0.324760 0.005000
  endloop
endfacet
facet normal 0.000000 0.000000 0.008694
  outer loop
    vertex 0.062264 -0.395317 0.005000
    vertex 0.000000 -0.324760 0.005000
    vertex -0.067627 -0.387749 0.005000
  endloop
endfacet
facet normal 0.000000 0.000000 0.008661
  outer loop
    vertex 0.187189 -0.395507 0.005000
    vertex 0.124736 -0.326080 0.005000
    vertex 0.062264 -0.395317 0.005000
  endloop
endfacet
facet normal 0.000000 0.000000 0.008996
  outer loop
    vertex -0.296379 0.116372 0.005000
    vertex -0.305216 0.212376 0.005000
    vertex -0.395957 0.180208 0.005000
  endloop
endfacet
facet normal -0.000000 0.000000 0.009532
  outer loop
    vertex 0.308146 -0.407074 0.005000
    vertex 0.408494 -0.408494 0.005000
    vertex 0.379230 -0.313091 0.005000
  endloop
endfacet
facet normal 0.000000 0.000000 0.009820
  outer loop
    vertex -0.311970 0.394154 0.005000
    vertex -0.408494 0.408494 0.005000
    vertex -0.385611 0.303359 0.005000
  endloop
endfacet
facet normal 0.000000 -0.000000 0.008854
  outer loop
    vertex 0.396132 0.313550 0.005000
    vertex 0.408494 0.408494 0.005000
    vertex 0.313374 0.394182 0.005000
  endloop
endfacet
facet normal 0.000000 0.000000 0.008440
  outer loop
    vertex 0.124736 -0.326080 0.005000
    vertex 0.248964 -0.325355 0.005000
    vertex 0.187500 -0.257772 0.005000
  endloop
endfacet
facet normal 0.000000 -0.000000 0.008670
  outer loop
    vertex 0.187189 -0.395507 0.005000
    vertex 0.248964 -0.325355 0.005000
    vertex 0.124736 -0.326080 0.005000
  endloop
endfacet
facet normal 0.000000 0.000000 0.009200
  outer loop
    vertex 0.308146 -0.407074 0.005000
    vertex 0.248964 -0.325355 0.005000
    vertex 0.187189 -0.395507 0.005000
  endloop
endfacet
facet normal -0.000000 0.000000 0.007980
  outer loop
    vertex 0.187500 -0.257772 0.005000
    vertex 0.248964 -0.325355 0.005000
    vertex 0.294407 -0.245489 0.005000
  endloop
endfacet
endsolid square.stl
