solid
facet normal -1.0 0.0 0.0
 outer loop
  vertex -0.5 -0.375 0.0
  vertex -0.5 -0.5 0.0
  vertex -0.5 -0.5 0.05000000074505806
 endloop
endfacet
facet normal -1.0 0.0 0.0
 outer loop
  vertex -0.5 -0.375 0.0
  vertex -0.5 -0.5 0.05000000074505806
  vertex -0.5 -0.375 0.05000000074505806
 endloop
endfacet
facet normal -1.0 0.0 0.0
 outer loop
  vertex -0.5 0.5 0.0
  vertex -0.5 0.375 0.05000000074505806
  vertex -0.5 0.5 0.05000000074505806
 endloop
endfacet
facet normal -1.0 0.0 0.0
 outer loop
  vertex -0.5 0.5 0.0
  vertex -0.5 0.375 0.0
  vertex -0.5 0.375 0.05000000074505806
 endloop
endfacet
facet normal -1.0 0.0 0.0
 outer loop
  vertex -0.5 -0.25 0.0
  vertex -0.5 -0.375 0.05000000074505806
  vertex -0.5 -0.25 0.05000000074505806
 endloop
endfacet
facet normal -1.0 0.0 0.0
 outer loop
  vertex -0.5 -0.375 0.0
  vertex -0.5 -0.375 0.05000000074505806
  vertex -0.5 -0.25 0.0
 endloop
endfacet
facet normal -1.0 0.0 0.0
 outer loop
  vertex -0.5 -0.25 0.0
  vertex -0.5 -0.25 0.05000000074505806
  vertex -0.5 -0.125 0.05000000074505806
 endloop
endfacet
facet normal -1.0 0.0 0.0
 outer loop
  vertex -0.5 -0.125 0.05000000074505806
  vertex -0.5 1.1102230246251565e-16 0.05000000074505806
  vertex -0.5 -0.0625 0.02500000037252903
 endloop
endfacet
facet normal -1.0 0.0 0.0
 outer loop
  vertex -0.5 -0.125 0.0
  vertex -0.5 -0.25 0.0
  vertex -0.5 -0.125 0.05000000074505806
 endloop
endfacet
facet normal -1.0 0.0 0.0
 outer loop
  vertex -0.5 -0.125 0.0
  vertex -0.5 -0.125 0.05000000074505806
  vertex -0.5 -0.0625 0.02500000037252903
 endloop
endfacet
facet normal -1.0 0.0 0.0
 outer loop
  vertex -0.5 1.1102230246251565e-16 0.0
  vertex -0.5 1.1102230246251565e-16 0.05000000074505806
  vertex -0.5 0.125 0.05000000074505806
 endloop
endfacet
facet normal -1.0 0.0 -0.0
 outer loop
  vertex -0.5 1.1102230246251565e-16 0.05000000074505806
  vertex -0.5 1.1102230246251565e-16 0.0
  vertex -0.5 -0.0625 0.02500000037252903
 endloop
endfacet
facet normal -1.0 0.0 0.0
 outer loop
  vertex -0.5 0.125 0.0
  vertex -0.5 0.125 0.05000000074505806
  vertex -0.5 0.25 0.05000000074505806
 endloop
endfacet
facet normal -1.0 0.0 0.0
 outer loop
  vertex -0.5 0.125 0.0
  vertex -0.5 1.1102230246251565e-16 0.0
  vertex -0.5 0.125 0.05000000074505806
 endloop
endfacet
facet normal -1.0 0.0 0.0
 outer loop
  vertex -0.5 0.25 0.05000000074505806
  vertex -0.5 0.375 0.05000000074505806
  vertex -0.5 0.3125 0.02500000037252903
 endloop
endfacet
facet normal -1.0 0.0 0.0
 outer loop
  vertex -0.5 0.125 0.0
  vertex -0.5 0.25 0.05000000074505806
  vertex -0.5 0.25 0.0
 endloop
endfacet
facet normal -1.0 0.0 0.0
 outer loop
  vertex -0.5 0.25 0.0
  vertex -0.5 0.25 0.05000000074505806
  vertex -0.5 0.3125 0.02500000037252903
 endloop
endfacet
facet normal -1.0 0.0 -0.0
 outer loop
  vertex -0.5 0.375 0.05000000074505806
  vertex -0.5 0.375 0.0
  vertex -0.5 0.3125 0.02500000037252903
 endloop
endfacet
facet normal -1.0 0.0 0.0
 outer loop
  vertex -0.5 1.1102230246251565e-16 0.0
  vertex -0.5 -0.125 0.0
  vertex -0.5 -0.0625 0.02500000037252903
 endloop
endfacet
facet normal -1.0 0.0 0.0
 outer loop
  vertex -0.5 0.375 0.0
  vertex -0.5 0.25 0.0
  vertex -0.5 0.3125 0.02500000037252903
 endloop
endfacet
facet normal 1.0 0.0 0.0
 outer loop
  vertex 0.5 -0.5 0.0
  vertex 0.5 -0.375 0.05000000074505806
  vertex 0.5 -0.5 0.05000000074505806
 endloop
endfacet
facet normal 1.0 0.0 0.0
 outer loop
  vertex 0.5 -0.5 0.0
  vertex 0.5 -0.375 0.0
  vertex 0.5 -0.375 0.05000000074505806
 endloop
endfacet
facet normal 1.0 0.0 -0.0
 outer loop
  vertex 0.5 0.5 0.0
  vertex 0.5 0.5 0.05000000074505806
  vertex 0.5 0.375 0.05000000074505806
 endloop
endfacet
facet normal 1.0 0.0 0.0
 outer loop
  vertex 0.5 0.5 0.0
  vertex 0.5 0.375 0.05000000074505806
  vertex 0.5 0.375 0.0
 endloop
endfacet
facet normal 1.0 0.0 0.0
 outer loop
  vertex 0.5 -0.375 0.0
  vertex 0.5 -0.25 0.05000000074505806
  vertex 0.5 -0.375 0.05000000074505806
 endloop
endfacet
facet normal 1.0 0.0 0.0
 outer loop
  vertex 0.5 -0.25 0.0
  vertex 0.5 -0.125 0.05000000074505806
  vertex 0.5 -0.25 0.05000000074505806
 endloop
endfacet
facet normal 1.0 0.0 -0.0
 outer loop
  vertex 0.5 -0.25 0.0
  vertex 0.5 -0.25 0.05000000074505806
  vertex 0.5 -0.375 0.0
 endloop
endfacet
facet normal 1.0 -0.0 0.0
 outer loop
  vertex 0.5 -0.125 0.05000000074505806
  vertex 0.5 -0.0625 0.02500000037252903
  vertex 0.5 1.1102230246251565e-16 0.05000000074505806
 endloop
endfacet
facet normal 1.0 0.0 0.0
 outer loop
  vertex 0.5 -0.25 0.0
  vertex 0.5 -0.125 0.0
  vertex 0.5 -0.125 0.05000000074505806
 endloop
endfacet
facet normal 1.0 0.0 0.0
 outer loop
  vertex 0.5 -0.125 0.0
  vertex 0.5 -0.0625 0.02500000037252903
  vertex 0.5 -0.125 0.05000000074505806
 endloop
endfacet
facet normal 1.0 0.0 -0.0
 outer loop
  vertex 0.5 0.125 0.0
  vertex 0.5 0.125 0.05000000074505806
  vertex 0.5 1.1102230246251565e-16 0.05000000074505806
 endloop
endfacet
facet normal 1.0 0.0 0.0
 outer loop
  vertex 0.5 1.1102230246251565e-16 0.0
  vertex 0.5 0.125 0.0
  vertex 0.5 1.1102230246251565e-16 0.05000000074505806
 endloop
endfacet
facet normal 1.0 0.0 0.0
 outer loop
  vertex 0.5 1.1102230246251565e-16 0.05000000074505806
  vertex 0.5 -0.0625 0.02500000037252903
  vertex 0.5 1.1102230246251565e-16 0.0
 endloop
endfacet
facet normal 1.0 0.0 -0.0
 outer loop
  vertex 0.5 0.25 0.0
  vertex 0.5 0.25 0.05000000074505806
  vertex 0.5 0.125 0.05000000074505806
 endloop
endfacet
facet normal 1.0 0.0 0.0
 outer loop
  vertex 0.5 0.125 0.0
  vertex 0.5 0.25 0.0
  vertex 0.5 0.125 0.05000000074505806
 endloop
endfacet
facet normal 1.0 -0.0 0.0
 outer loop
  vertex 0.5 0.25 0.05000000074505806
  vertex 0.5 0.3125 0.02500000037252903
  vertex 0.5 0.375 0.05000000074505806
 endloop
endfacet
facet normal 1.0 0.0 0.0
 outer loop
  vertex 0.5 0.25 0.0
  vertex 0.5 0.3125 0.02500000037252903
  vertex 0.5 0.25 0.05000000074505806
 endloop
endfacet
facet normal 1.0 0.0 0.0
 outer loop
  vertex 0.5 0.375 0.05000000074505806
  vertex 0.5 0.3125 0.02500000037252903
  vertex 0.5 0.375 0.0
 endloop
endfacet
facet normal 1.0 0.0 0.0
 outer loop
  vertex 0.5 1.1102230246251565e-16 0.0
  vertex 0.5 -0.0625 0.02500000037252903
  vertex 0.5 -0.125 0.0
 endloop
endfacet
facet normal 1.0 0.0 0.0
 outer loop
  vertex 0.5 0.375 0.0
  vertex 0.5 0.3125 0.02500000037252903
  vertex 0.5 0.25 0.0
 endloop
endfacet
facet normal 0.0 -1.0 0.0
 outer loop
  vertex -0.375 -0.5 0.0
  vertex -0.5 -0.5 0.05000000074505806
  vertex -0.5 -0.5 0.0
 endloop
endfacet
facet normal 0.0 -1.0 0.0
 outer loop
  vertex -0.375 -0.5 0.0
  vertex -0.375 -0.5 0.05000000074505806
  vertex -0.5 -0.5 0.05000000074505806
 endloop
endfacet
facet normal 0.0 -1.0 0.0
 outer loop
  vertex 0.5 -0.5 0.0
  vertex 0.5 -0.5 0.05000000074505806
  vertex 0.375 -0.5 0.0
 endloop
endfacet
facet normal 0.0 -1.0 0.0
 outer loop
  vertex 0.375 -0.5 0.0
  vertex 0.5 -0.5 0.05000000074505806
  vertex 0.375 -0.5 0.05000000074505806
 endloop
endfacet
facet normal 0.0 -1.0 0.0
 outer loop
  vertex -0.25 -0.5 0.0
  vertex -0.375 -0.5 0.05000000074505806
  vertex -0.375 -0.5 0.0
 endloop
endfacet
facet normal 0.0 -1.0 0.0
 outer loop
  vertex -0.25 -0.5 0.0
  vertex -0.125 -0.5 0.0
  vertex -0.25 -0.5 0.05000000074505806
 endloop
endfacet
facet normal 0.0 -1.0 0.0
 outer loop
  vertex -0.25 -0.5 0.0
  vertex -0.25 -0.5 0.05000000074505806
  vertex -0.375 -0.5 0.05000000074505806
 endloop
endfacet
facet normal 0.0 -1.0 0.0
 outer loop
  vertex -0.125 -0.5 0.0
  vertex 1.1102230246251565e-16 -0.5 0.0
  vertex -0.0625 -0.5 0.02500000037252903
 endloop
endfacet
facet normal 0.0 -1.0 0.0
 outer loop
  vertex -0.125 -0.5 0.0
  vertex -0.125 -0.5 0.05000000074505806
  vertex -0.25 -0.5 0.05000000074505806
 endloop
endfacet
facet normal 0.0 -1.0 0.0
 outer loop
  vertex -0.125 -0.5 0.05000000074505806
  vertex -0.125 -0.5 0.0
  vertex -0.0625 -0.5 0.02500000037252903
 endloop
endfacet
facet normal 0.0 -1.0 0.0
 outer loop
  vertex 1.1102230246251565e-16 -0.5 0.0
  vertex 0.125 -0.5 0.0
  vertex 0.125 -0.5 0.05000000074505806
 endloop
endfacet
facet normal 0.0 -1.0 0.0
 outer loop
  vertex 1.1102230246251565e-16 -0.5 0.0
  vertex 0.125 -0.5 0.05000000074505806
  vertex 1.1102230246251565e-16 -0.5 0.05000000074505806
 endloop
endfacet
facet normal 0.0 -1.0 0.0
 outer loop
  vertex 1.1102230246251565e-16 -0.5 0.0
  vertex 1.1102230246251565e-16 -0.5 0.05000000074505806
  vertex -0.0625 -0.5 0.02500000037252903
 endloop
endfacet
facet normal 0.0 -1.0 0.0
 outer loop
  vertex 0.125 -0.5 0.0
  vertex 0.25 -0.5 0.0
  vertex 0.125 -0.5 0.05000000074505806
 endloop
endfacet
facet normal 0.0 -1.0 0.0
 outer loop
  vertex 0.25 -0.5 0.0
  vertex 0.375 -0.5 0.0
  vertex 0.3125 -0.5 0.02500000037252903
 endloop
endfacet
facet normal 0.0 -1.0 0.0
 outer loop
  vertex 0.25 -0.5 0.0
  vertex 0.25 -0.5 0.05000000074505806
  vertex 0.125 -0.5 0.05000000074505806
 endloop
endfacet
facet normal 0.0 -1.0 0.0
 outer loop
  vertex 0.25 -0.5 0.05000000074505806
  vertex 0.25 -0.5 0.0
  vertex 0.3125 -0.5 0.02500000037252903
 endloop
endfacet
facet normal 0.0 -1.0 0.0
 outer loop
  vertex 0.375 -0.5 0.0
  vertex 0.375 -0.5 0.05000000074505806
  vertex 0.3125 -0.5 0.02500000037252903
 endloop
endfacet
facet normal -0.0 -1.0 0.0
 outer loop
  vertex 1.1102230246251565e-16 -0.5 0.05000000074505806
  vertex -0.125 -0.5 0.05000000074505806
  vertex -0.0625 -0.5 0.02500000037252903
 endloop
endfacet
facet normal -0.0 -1.0 0.0
 outer loop
  vertex 0.375 -0.5 0.05000000074505806
  vertex 0.25 -0.5 0.05000000074505806
  vertex 0.3125 -0.5 0.02500000037252903
 endloop
endfacet
facet normal 0.0 1.0 0.0
 outer loop
  vertex -0.5 0.5 0.0
  vertex -0.5 0.5 0.05000000074505806
  vertex -0.375 0.5 0.05000000074505806
 endloop
endfacet
facet normal 0.0 1.0 -0.0
 outer loop
  vertex -0.375 0.5 0.0
  vertex -0.5 0.5 0.0
  vertex -0.375 0.5 0.05000000074505806
 endloop
endfacet
facet normal 0.0 1.0 -0.0
 outer loop
  vertex 0.5 0.5 0.0
  vertex 0.375 0.5 0.05000000074505806
  vertex 0.5 0.5 0.05000000074505806
 endloop
endfacet
facet normal 0.0 1.0 0.0
 outer loop
  vertex 0.5 0.5 0.0
  vertex 0.375 0.5 0.0
  vertex 0.375 0.5 0.05000000074505806
 endloop
endfacet
facet normal 0.0 1.0 -0.0
 outer loop
  vertex -0.25 0.5 0.0
  vertex -0.375 0.5 0.0
  vertex -0.25 0.5 0.05000000074505806
 endloop
endfacet
facet normal 0.0 1.0 0.0
 outer loop
  vertex -0.375 0.5 0.0
  vertex -0.375 0.5 0.05000000074505806
  vertex -0.25 0.5 0.05000000074505806
 endloop
endfacet
facet normal 0.0 1.0 -0.0
 outer loop
  vertex -0.125 0.5 0.0
  vertex -0.25 0.5 0.0
  vertex -0.125 0.5 0.05000000074505806
 endloop
endfacet
facet normal 0.0 1.0 0.0
 outer loop
  vertex -0.25 0.5 0.0
  vertex -0.25 0.5 0.05000000074505806
  vertex -0.125 0.5 0.05000000074505806
 endloop
endfacet
facet normal 0.0 1.0 0.0
 outer loop
  vertex -0.125 0.5 0.0
  vertex -0.0625 0.5 0.02500000037252903
  vertex 1.1102230246251565e-16 0.5 0.0
 endloop
endfacet
facet normal 0.0 1.0 0.0
 outer loop
  vertex -0.125 0.5 0.05000000074505806
  vertex -0.0625 0.5 0.02500000037252903
  vertex -0.125 0.5 0.0
 endloop
endfacet
facet normal 0.0 1.0 0.0
 outer loop
  vertex 1.1102230246251565e-16 0.5 0.0
  vertex 1.1102230246251565e-16 0.5 0.05000000074505806
  vertex 0.125 0.5 0.0
 endloop
endfacet
facet normal 0.0 1.0 -0.0
 outer loop
  vertex 1.1102230246251565e-16 0.5 0.0
  vertex -0.0625 0.5 0.02500000037252903
  vertex 1.1102230246251565e-16 0.5 0.05000000074505806
 endloop
endfacet
facet normal 0.0 1.0 0.0
 outer loop
  vertex 0.25 0.5 0.0
  vertex 0.125 0.5 0.0
  vertex 0.125 0.5 0.05000000074505806
 endloop
endfacet
facet normal 0.0 1.0 -0.0
 outer loop
  vertex 0.125 0.5 0.0
  vertex 1.1102230246251565e-16 0.5 0.05000000074505806
  vertex 0.125 0.5 0.05000000074505806
 endloop
endfacet
facet normal 0.0 1.0 0.0
 outer loop
  vertex 0.25 0.5 0.0
  vertex 0.3125 0.5 0.02500000037252903
  vertex 0.375 0.5 0.0
 endloop
endfacet
facet normal 0.0 1.0 -0.0
 outer loop
  vertex 0.25 0.5 0.0
  vertex 0.125 0.5 0.05000000074505806
  vertex 0.25 0.5 0.05000000074505806
 endloop
endfacet
facet normal 0.0 1.0 0.0
 outer loop
  vertex 0.25 0.5 0.05000000074505806
  vertex 0.3125 0.5 0.02500000037252903
  vertex 0.25 0.5 0.0
 endloop
endfacet
facet normal 0.0 1.0 -0.0
 outer loop
  vertex 0.375 0.5 0.0
  vertex 0.3125 0.5 0.02500000037252903
  vertex 0.375 0.5 0.05000000074505806
 endloop
endfacet
facet normal 0.0 1.0 0.0
 outer loop
  vertex 1.1102230246251565e-16 0.5 0.05000000074505806
  vertex -0.0625 0.5 0.02500000037252903
  vertex -0.125 0.5 0.05000000074505806
 endloop
endfacet
facet normal 0.0 1.0 0.0
 outer loop
  vertex 0.375 0.5 0.05000000074505806
  vertex 0.3125 0.5 0.02500000037252903
  vertex 0.25 0.5 0.05000000074505806
 endloop
endfacet
facet normal 0.0 0.0 -1.0
 outer loop
  vertex -0.5 -0.5 0.0
  vertex -0.5 -0.375 0.0
  vertex -0.40849363803863525 -0.40849363803863525 0.0
 endloop
endfacet
facet normal 0.0 0.0 -1.0
 outer loop
  vertex -0.375 -0.5 0.0
  vertex -0.5 -0.5 0.0
  vertex -0.40849363803863525 -0.40849363803863525 0.0
 endloop
endfacet
facet normal 0.0 0.0 -1.0
 outer loop
  vertex -0.5 0.375 0.0
  vertex -0.5 0.5 0.0
  vertex -0.40849363803863525 0.40849363803863525 0.0
 endloop
endfacet
facet normal 0.0 0.0 -1.0
 outer loop
  vertex -0.5 0.5 0.0
  vertex -0.375 0.5 0.0
  vertex -0.40849363803863525 0.40849363803863525 0.0
 endloop
endfacet
facet normal 0.0 -0.0 -1.0
 outer loop
  vertex 0.5 -0.375 0.0
  vertex 0.5 -0.5 0.0
  vertex 0.40849363803863525 -0.40849363803863525 0.0
 endloop
endfacet
facet normal 0.0 0.0 -1.0
 outer loop
  vertex 0.5 -0.5 0.0
  vertex 0.375 -0.5 0.0
  vertex 0.40849363803863525 -0.40849363803863525 0.0
 endloop
endfacet
facet normal 0.0 -0.0 -1.0
 outer loop
  vertex 0.5 0.5 0.0
  vertex 0.5 0.375 0.0
  vertex 0.4092406630516052 0.4092406630516052 0.0
 endloop
endfacet
facet normal 0.0 0.0 -1.0
 outer loop
  vertex 0.375 0.5 0.0
  vertex 0.5 0.5 0.0
  vertex 0.4092406630516052 0.4092406630516052 0.0
 endloop
endfacet
facet normal 0.0 0.0 -1.0
 outer loop
  vertex -0.5 -0.375 0.0
  vertex -0.5 -0.25 0.0
  vertex -0.3917468190193176 -0.3125 0.0
 endloop
endfacet
facet normal 0.0 0.0 -1.0
 outer loop
  vertex -0.5 -0.375 0.0
  vertex -0.3917468190193176 -0.3125 0.0
  vertex -0.40849363803863525 -0.40849363803863525 0.0
 endloop
endfacet
facet normal 0.0 0.0 -1.0
 outer loop
  vertex -0.5 -0.25 0.0
  vertex -0.5 -0.125 0.0
  vertex -0.3911101520061493 -0.1906438022851944 0.0
 endloop
endfacet
facet normal 0.0 0.0 -1.0
 outer loop
  vertex -0.3917468190193176 -0.3125 0.0
  vertex -0.5 -0.25 0.0
  vertex -0.3911101520061493 -0.1906438022851944 0.0
 endloop
endfacet
facet normal 0.0 0.0 -1.0
 outer loop
  vertex -0.5 -0.125 0.0
  vertex -0.5 1.1102230246251565e-16 0.0
  vertex -0.3917468190193176 -0.0625 0.0
 endloop
endfacet
facet normal 0.0 0.0 -1.0
 outer loop
  vertex -0.5 -0.125 0.0
  vertex -0.3917468190193176 -0.0625 0.0
  vertex -0.3911101520061493 -0.1906438022851944 0.0
 endloop
endfacet
facet normal 0.0 0.0 -1.0
 outer loop
  vertex -0.5 1.1102230246251565e-16 0.0
  vertex -0.5 0.125 0.0
  vertex -0.39195317029953003 0.06293468922376633 0.0
 endloop
endfacet
facet normal 0.0 0.0 -1.0
 outer loop
  vertex -0.3917468190193176 -0.0625 0.0
  vertex -0.5 1.1102230246251565e-16 0.0
  vertex -0.39195317029953003 0.06293468922376633 0.0
 endloop
endfacet
facet normal 0.0 0.0 -1.0
 outer loop
  vertex -0.5 0.125 0.0
  vertex -0.5 0.25 0.0
  vertex -0.39298495650291443 0.19010815024375916 0.0
 endloop
endfacet
facet normal 0.0 0.0 -1.0
 outer loop
  vertex -0.5 0.125 0.0
  vertex -0.39298495650291443 0.19010815024375916 0.0
  vertex -0.39195317029953003 0.06293468922376633 0.0
 endloop
endfacet
facet normal 0.0 0.0 -1.0
 outer loop
  vertex -0.5 0.25 0.0
  vertex -0.5 0.375 0.0
  vertex -0.39717307686805725 0.3088666498661041 0.0
 endloop
endfacet
facet normal 0.0 0.0 -1.0
 outer loop
  vertex -0.39298495650291443 0.19010815024375916 0.0
  vertex -0.5 0.25 0.0
  vertex -0.39717307686805725 0.3088666498661041 0.0
 endloop
endfacet
facet normal 0.0 0.0 -1.0
 outer loop
  vertex -0.39717307686805725 0.3088666498661041 0.0
  vertex -0.5 0.375 0.0
  vertex -0.40849363803863525 0.40849363803863525 0.0
 endloop
endfacet
facet normal 0.0 -0.0 -1.0
 outer loop
  vertex 0.5 -0.25 0.0
  vertex 0.5 -0.375 0.0
  vertex 0.3917468190193176 -0.3125 0.0
 endloop
endfacet
facet normal 0.0 0.0 -1.0
 outer loop
  vertex 0.3917468190193176 -0.3125 0.0
  vertex 0.5 -0.375 0.0
  vertex 0.40849363803863525 -0.40849363803863525 0.0
 endloop
endfacet
facet normal 0.0 -0.0 -1.0
 outer loop
  vertex 0.5 -0.125 0.0
  vertex 0.5 -0.25 0.0
  vertex 0.3917468190193176 -0.1875 0.0
 endloop
endfacet
facet normal -0.0 0.0 -1.0
 outer loop
  vertex 0.5 -0.25 0.0
  vertex 0.3917468190193176 -0.3125 0.0
  vertex 0.3917468190193176 -0.1875 0.0
 endloop
endfacet
facet normal 0.0 -0.0 -1.0
 outer loop
  vertex 0.5 1.1102230246251565e-16 0.0
  vertex 0.5 -0.125 0.0
  vertex 0.3917468190193176 -0.0625 0.0
 endloop
endfacet
facet normal 0.0 0.0 -1.0
 outer loop
  vertex 0.3917468190193176 -0.0625 0.0
  vertex 0.5 -0.125 0.0
  vertex 0.3917468190193176 -0.1875 0.0
 endloop
endfacet
facet normal 0.0 -0.0 -1.0
 outer loop
  vertex 0.5 0.125 0.0
  vertex 0.5 1.1102230246251565e-16 0.0
  vertex 0.3949142396450043 0.06265000998973846 0.0
 endloop
endfacet
facet normal -0.0 0.0 -1.0
 outer loop
  vertex 0.5 1.1102230246251565e-16 0.0
  vertex 0.3917468190193176 -0.0625 0.0
  vertex 0.3949142396450043 0.06265000998973846 0.0
 endloop
endfacet
facet normal 0.0 -0.0 -1.0
 outer loop
  vertex 0.5 0.25 0.0
  vertex 0.5 0.125 0.0
  vertex 0.38107234239578247 0.1909576952457428 0.0
 endloop
endfacet
facet normal 0.0 0.0 -1.0
 outer loop
  vertex 0.38107234239578247 0.1909576952457428 0.0
  vertex 0.5 0.125 0.0
  vertex 0.3949142396450043 0.06265000998973846 0.0
 endloop
endfacet
facet normal 0.0 -0.0 -1.0
 outer loop
  vertex 0.5 0.375 0.0
  vertex 0.5 0.25 0.0
  vertex 0.3942936062812805 0.3125 0.0
 endloop
endfacet
facet normal -0.0 0.0 -1.0
 outer loop
  vertex 0.5 0.25 0.0
  vertex 0.38107234239578247 0.1909576952457428 0.0
  vertex 0.3942936062812805 0.3125 0.0
 endloop
endfacet
facet normal -0.0 0.0 -1.0
 outer loop
  vertex 0.5 0.375 0.0
  vertex 0.3942936062812805 0.3125 0.0
  vertex 0.4092406630516052 0.4092406630516052 0.0
 endloop
endfacet
facet normal 0.0 0.0 -1.0
 outer loop
  vertex -0.25 -0.5 0.0
  vertex -0.375 -0.5 0.0
  vertex -0.2975710928440094 -0.3886338472366333 0.0
 endloop
endfacet
facet normal 0.0 0.0 -1.0
 outer loop
  vertex -0.2975710928440094 -0.3886338472366333 0.0
  vertex -0.375 -0.5 0.0
  vertex -0.40849363803863525 -0.40849363803863525 0.0
 endloop
endfacet
facet normal 0.0 0.0 -1.0
 outer loop
  vertex -0.125 -0.5 0.0
  vertex -0.25 -0.5 0.0
  vertex -0.1875 -0.4226624369621277 0.0
 endloop
endfacet
facet normal 0.0 0.0 -1.0
 outer loop
  vertex -0.25 -0.5 0.0
  vertex -0.2975710928440094 -0.3886338472366333 0.0
  vertex -0.1875 -0.4226624369621277 0.0
 endloop
endfacet
facet normal 0.0 0.0 -1.0
 outer loop
  vertex 1.1102230246251565e-16 -0.5 0.0
  vertex -0.125 -0.5 0.0
  vertex -0.06409486383199692 -0.38927507400512695 0.0
 endloop
endfacet
facet normal 0.0 0.0 -1.0
 outer loop
  vertex -0.06409486383199692 -0.38927507400512695 0.0
  vertex -0.125 -0.5 0.0
  vertex -0.1875 -0.4226624369621277 0.0
 endloop
endfacet
facet normal 0.0 0.0 -1.0
 outer loop
  vertex 0.125 -0.5 0.0
  vertex 1.1102230246251565e-16 -0.5 0.0
  vertex 0.0625 -0.41546431183815 0.0
 endloop
endfacet
facet normal 0.0 0.0 -1.0
 outer loop
  vertex 1.1102230246251565e-16 -0.5 0.0
  vertex -0.06409486383199692 -0.38927507400512695 0.0
  vertex 0.0625 -0.41546431183815 0.0
 endloop
endfacet
facet normal 0.0 0.0 -1.0
 outer loop
  vertex 0.25 -0.5 0.0
  vertex 0.125 -0.5 0.0
  vertex 0.16922597587108612 -0.3817373216152191 0.0
 endloop
endfacet
facet normal 0.0 0.0 -1.0
 outer loop
  vertex 0.16922597587108612 -0.3817373216152191 0.0
  vertex 0.125 -0.5 0.0
  vertex 0.0625 -0.41546431183815 0.0
 endloop
endfacet
facet normal 0.0 0.0 -1.0
 outer loop
  vertex 0.375 -0.5 0.0
  vertex 0.25 -0.5 0.0
  vertex 0.3066380023956299 -0.3965842127799988 0.0
 endloop
endfacet
facet normal 0.0 0.0 -1.0
 outer loop
  vertex 0.25 -0.5 0.0
  vertex 0.16922597587108612 -0.3817373216152191 0.0
  vertex 0.3066380023956299 -0.3965842127799988 0.0
 endloop
endfacet
facet normal 0.0 0.0 -1.0
 outer loop
  vertex 0.375 -0.5 0.0
  vertex 0.3066380023956299 -0.3965842127799988 0.0
  vertex 0.40849363803863525 -0.40849363803863525 0.0
 endloop
endfacet
facet normal 0.0 0.0 -1.0
 outer loop
  vertex -0.375 0.5 0.0
  vertex -0.25 0.5 0.0
  vertex -0.296657919883728 0.3905148208141327 0.0
 endloop
endfacet
facet normal 0.0 -0.0 -1.0
 outer loop
  vertex -0.375 0.5 0.0
  vertex -0.296657919883728 0.3905148208141327 0.0
  vertex -0.40849363803863525 0.40849363803863525 0.0
 endloop
endfacet
facet normal 0.0 0.0 -1.0
 outer loop
  vertex -0.25 0.5 0.0
  vertex -0.125 0.5 0.0
  vertex -0.1875 0.4226624369621277 0.0
 endloop
endfacet
facet normal 0.0 0.0 -1.0
 outer loop
  vertex -0.296657919883728 0.3905148208141327 0.0
  vertex -0.25 0.5 0.0
  vertex -0.1875 0.4226624369621277 0.0
 endloop
endfacet
facet normal 0.0 0.0 -1.0
 outer loop
  vertex -0.125 0.5 0.0
  vertex 1.1102230246251565e-16 0.5 0.0
  vertex -0.06409486383199692 0.38927507400512695 0.0
 endloop
endfacet
facet normal 0.0 -0.0 -1.0
 outer loop
  vertex -0.125 0.5 0.0
  vertex -0.06409486383199692 0.38927507400512695 0.0
  vertex -0.1875 0.4226624369621277 0.0
 endloop
endfacet
facet normal 0.0 0.0 -1.0
 outer loop
  vertex 1.1102230246251565e-16 0.5 0.0
  vertex 0.125 0.5 0.0
  vertex 0.0625 0.41546431183815 0.0
 endloop
endfacet
facet normal 0.0 0.0 -1.0
 outer loop
  vertex -0.06409486383199692 0.38927507400512695 0.0
  vertex 1.1102230246251565e-16 0.5 0.0
  vertex 0.0625 0.41546431183815 0.0
 endloop
endfacet
facet normal 0.0 0.0 -1.0
 outer loop
  vertex 0.125 0.5 0.0
  vertex 0.25 0.5 0.0
  vertex 0.17340843379497528 0.3818463087081909 0.0
 endloop
endfacet
facet normal 0.0 -0.0 -1.0
 outer loop
  vertex 0.125 0.5 0.0
  vertex 0.17340843379497528 0.3818463087081909 0.0
  vertex 0.0625 0.41546431183815 0.0
 endloop
endfacet
facet normal 0.0 0.0 -1.0
 outer loop
  vertex 0.25 0.5 0.0
  vertex 0.375 0.5 0.0
  vertex 0.3125014305114746 0.4007282853126526 0.0
 endloop
endfacet
facet normal 0.0 0.0 -1.0
 outer loop
  vertex 0.17340843379497528 0.3818463087081909 0.0
  vertex 0.25 0.5 0.0
  vertex 0.3125014305114746 0.4007282853126526 0.0
 endloop
endfacet
facet normal 0.0 0.0 -1.0
 outer loop
  vertex 0.3125014305114746 0.4007282853126526 0.0
  vertex 0.375 0.5 0.0
  vertex 0.4092406630516052 0.4092406630516052 0.0
 endloop
endfacet
facet normal 0.0 0.0 -1.0
 outer loop
  vertex -0.06409486383199692 -0.38927507400512695 0.0
  vertex -0.06749359518289566 -0.2566949725151062 0.0
  vertex 0.04492601379752159 -0.31302034854888916 0.0
 endloop
endfacet
facet normal 0.0 -0.0 -1.0
 outer loop
  vertex -0.06749359518289566 -0.2566949725151062 0.0
  vertex -0.06409486383199692 -0.38927507400512695 0.0
  vertex -0.1777653694152832 -0.32182925939559937 0.0
 endloop
endfacet
facet normal 0.0 0.0 -1.0
 outer loop
  vertex -0.06409486383199692 -0.38927507400512695 0.0
  vertex 0.04492601379752159 -0.31302034854888916 0.0
  vertex 0.0625 -0.41546431183815 0.0
 endloop
endfacet
facet normal 0.0 -0.0 -1.0
 outer loop
  vertex -0.1777653694152832 -0.32182925939559937 0.0
  vertex -0.06409486383199692 -0.38927507400512695 0.0
  vertex -0.1875 -0.4226624369621277 0.0
 endloop
endfacet
facet normal 0.0 -0.0 -1.0
 outer loop
  vertex -0.06409486383199692 0.38927507400512695 0.0
  vertex 0.04761577770113945 0.31189221143722534 0.0
  vertex -0.06679227203130722 0.2515712380409241 0.0
 endloop
endfacet
facet normal 0.0 0.0 -1.0
 outer loop
  vertex 0.04761577770113945 0.31189221143722534 0.0
  vertex -0.06409486383199692 0.38927507400512695 0.0
  vertex 0.0625 0.41546431183815 0.0
 endloop
endfacet
facet normal 0.0 0.0 -1.0
 outer loop
  vertex -0.06409486383199692 0.38927507400512695 0.0
  vertex -0.06679227203130722 0.2515712380409241 0.0
  vertex -0.17676936089992523 0.32226037979125977 0.0
 endloop
endfacet
facet normal -0.0 0.0 -1.0
 outer loop
  vertex -0.06409486383199692 0.38927507400512695 0.0
  vertex -0.17676936089992523 0.32226037979125977 0.0
  vertex -0.1875 0.4226624369621277 0.0
 endloop
endfacet
facet normal 0.0 0.0 -1.0
 outer loop
  vertex 0.3949142396450043 0.06265000998973846 0.0
  vertex 0.3917468190193176 -0.0625 0.0
  vertex 0.32418203353881836 -4.987589636584744e-05 0.0
 endloop
endfacet
facet normal 0.0 -0.0 -1.0
 outer loop
  vertex 0.3917468190193176 -0.0625 0.0
  vertex 0.3917468190193176 -0.1875 0.0
  vertex 0.32475951313972473 -0.125 0.0
 endloop
endfacet
facet normal 0.0 0.0 -1.0
 outer loop
  vertex 0.32418203353881836 -4.987589636584744e-05 0.0
  vertex 0.3917468190193176 -0.0625 0.0
  vertex 0.32475951313972473 -0.125 0.0
 endloop
endfacet
facet normal 0.0 0.0 -1.0
 outer loop
  vertex -0.3917468190193176 -0.0625 0.0
  vertex -0.39195317029953003 0.06293468922376633 0.0
  vertex -0.28352802991867065 7.244851440191269e-05 0.0
 endloop
endfacet
facet normal 0.0 0.0 -1.0
 outer loop
  vertex -0.3917468190193176 -0.0625 0.0
  vertex -0.28352802991867065 7.244851440191269e-05 0.0
  vertex -0.28349363803863525 -0.125 0.0
 endloop
endfacet
facet normal 0.0 0.0 -1.0
 outer loop
  vertex -0.3917468190193176 -0.0625 0.0
  vertex -0.28349363803863525 -0.125 0.0
  vertex -0.3911101520061493 -0.1906438022851944 0.0
 endloop
endfacet
facet normal 0.0 0.0 -1.0
 outer loop
  vertex 0.17340843379497528 0.3818463087081909 0.0
  vertex 0.15501071512699127 0.246074378490448 0.0
  vertex 0.04761577770113945 0.31189221143722534 0.0
 endloop
endfacet
facet normal 0.0 0.0 -1.0
 outer loop
  vertex 0.15501071512699127 0.246074378490448 0.0
  vertex 0.17340843379497528 0.3818463087081909 0.0
  vertex 0.27307406067848206 0.292855441570282 0.0
 endloop
endfacet
facet normal -0.0 0.0 -1.0
 outer loop
  vertex 0.17340843379497528 0.3818463087081909 0.0
  vertex 0.04761577770113945 0.31189221143722534 0.0
  vertex 0.0625 0.41546431183815 0.0
 endloop
endfacet
facet normal 0.0 0.0 -1.0
 outer loop
  vertex 0.27307406067848206 0.292855441570282 0.0
  vertex 0.17340843379497528 0.3818463087081909 0.0
  vertex 0.3125014305114746 0.4007282853126526 0.0
 endloop
endfacet
facet normal 0.0 0.0 -1.0
 outer loop
  vertex -0.39195317029953003 0.06293468922376633 0.0
  vertex -0.39298495650291443 0.19010815024375916 0.0
  vertex -0.2850499749183655 0.12834610044956207 0.0
 endloop
endfacet
facet normal 0.0 0.0 -1.0
 outer loop
  vertex -0.39298495650291443 0.19010815024375916 0.0
  vertex -0.28687533736228943 0.2624431550502777 0.0
  vertex -0.2850499749183655 0.12834610044956207 0.0
 endloop
endfacet
facet normal -0.0 0.0 -1.0
 outer loop
  vertex -0.28687533736228943 0.2624431550502777 0.0
  vertex -0.39298495650291443 0.19010815024375916 0.0
  vertex -0.39717307686805725 0.3088666498661041 0.0
 endloop
endfacet
facet normal 0.0 -0.0 -1.0
 outer loop
  vertex 0.14951905608177185 -0.25 0.0
  vertex 0.16922597587108612 -0.3817373216152191 0.0
  vertex 0.04492601379752159 -0.31302034854888916 0.0
 endloop
endfacet
facet normal 0.0 0.0 -1.0
 outer loop
  vertex 0.16922597587108612 -0.3817373216152191 0.0
  vertex 0.14951905608177185 -0.25 0.0
  vertex 0.24992665648460388 -0.29891106486320496 0.0
 endloop
endfacet
facet normal 0.0 0.0 -1.0
 outer loop
  vertex 0.04492601379752159 -0.31302034854888916 0.0
  vertex 0.16922597587108612 -0.3817373216152191 0.0
  vertex 0.0625 -0.41546431183815 0.0
 endloop
endfacet
facet normal 0.0 0.0 -1.0
 outer loop
  vertex 0.3066380023956299 -0.3965842127799988 0.0
  vertex 0.16922597587108612 -0.3817373216152191 0.0
  vertex 0.24992665648460388 -0.29891106486320496 0.0
 endloop
endfacet
facet normal 0.0 0.0 -1.0
 outer loop
  vertex 0.38107234239578247 0.1909576952457428 0.0
  vertex 0.27307406067848206 0.292855441570282 0.0
  vertex 0.3942936062812805 0.3125 0.0
 endloop
endfacet
facet normal 0.0 -0.0 -1.0
 outer loop
  vertex 0.27307406067848206 0.292855441570282 0.0
  vertex 0.38107234239578247 0.1909576952457428 0.0
  vertex 0.25522515177726746 0.17486679553985596 0.0
 endloop
endfacet
facet normal 0.0 -0.0 -1.0
 outer loop
  vertex 0.38107234239578247 0.1909576952457428 0.0
  vertex 0.3949142396450043 0.06265000998973846 0.0
  vertex 0.3248592019081116 0.11799595504999161 0.0
 endloop
endfacet
facet normal 0.0 0.0 -1.0
 outer loop
  vertex 0.25522515177726746 0.17486679553985596 0.0
  vertex 0.38107234239578247 0.1909576952457428 0.0
  vertex 0.3248592019081116 0.11799595504999161 0.0
 endloop
endfacet
facet normal 0.0 0.0 -1.0
 outer loop
  vertex -0.3917468190193176 -0.3125 0.0
  vertex -0.3911101520061493 -0.1906438022851944 0.0
  vertex -0.28671643137931824 -0.25583621859550476 0.0
 endloop
endfacet
facet normal 0.0 0.0 -1.0
 outer loop
  vertex -0.3917468190193176 -0.3125 0.0
  vertex -0.28671643137931824 -0.25583621859550476 0.0
  vertex -0.2975710928440094 -0.3886338472366333 0.0
 endloop
endfacet
facet normal 0.0 -0.0 -1.0
 outer loop
  vertex -0.3917468190193176 -0.3125 0.0
  vertex -0.2975710928440094 -0.3886338472366333 0.0
  vertex -0.40849363803863525 -0.40849363803863525 0.0
 endloop
endfacet
facet normal 0.0 -0.0 -1.0
 outer loop
  vertex 0.3917468190193176 -0.1875 0.0
  vertex 0.3917468190193176 -0.3125 0.0
  vertex 0.3246927857398987 -0.23983894288539886 0.0
 endloop
endfacet
facet normal -0.0 0.0 -1.0
 outer loop
  vertex 0.3917468190193176 -0.3125 0.0
  vertex 0.3066380023956299 -0.3965842127799988 0.0
  vertex 0.24992665648460388 -0.29891106486320496 0.0
 endloop
endfacet
facet normal 0.0 0.0 -1.0
 outer loop
  vertex 0.3066380023956299 -0.3965842127799988 0.0
  vertex 0.3917468190193176 -0.3125 0.0
  vertex 0.40849363803863525 -0.40849363803863525 0.0
 endloop
endfacet
facet normal 0.0 0.0 -1.0
 outer loop
  vertex 0.3917468190193176 -0.3125 0.0
  vertex 0.24992665648460388 -0.29891106486320496 0.0
  vertex 0.3246927857398987 -0.23983894288539886 0.0
 endloop
endfacet
facet normal 0.0 0.0 -1.0
 outer loop
  vertex -0.296657919883728 0.3905148208141327 0.0
  vertex -0.17676936089992523 0.32226037979125977 0.0
  vertex -0.28687533736228943 0.2624431550502777 0.0
 endloop
endfacet
facet normal 0.0 0.0 -1.0
 outer loop
  vertex -0.17676936089992523 0.32226037979125977 0.0
  vertex -0.296657919883728 0.3905148208141327 0.0
  vertex -0.1875 0.4226624369621277 0.0
 endloop
endfacet
facet normal 0.0 -0.0 -1.0
 outer loop
  vertex -0.296657919883728 0.3905148208141327 0.0
  vertex -0.28687533736228943 0.2624431550502777 0.0
  vertex -0.39717307686805725 0.3088666498661041 0.0
 endloop
endfacet
facet normal -0.0 0.0 -1.0
 outer loop
  vertex -0.296657919883728 0.3905148208141327 0.0
  vertex -0.39717307686805725 0.3088666498661041 0.0
  vertex -0.40849363803863525 0.40849363803863525 0.0
 endloop
endfacet
facet normal 0.0 0.0 -1.0
 outer loop
  vertex -0.28352802991867065 7.244851440191269e-05 0.0
  vertex -0.39195317029953003 0.06293468922376633 0.0
  vertex -0.2850499749183655 0.12834610044956207 0.0
 endloop
endfacet
facet normal 0.0 0.0 -1.0
 outer loop
  vertex -0.28349363803863525 -0.125 0.0
  vertex -0.28352802991867065 7.244851440191269e-05 0.0
  vertex -0.176345095038414 -0.06439124792814255 0.0
 endloop
endfacet
facet normal 0.0 0.0 -1.0
 outer loop
  vertex -0.176345095038414 -0.06439124792814255 0.0
  vertex -0.28352802991867065 7.244851440191269e-05 0.0
  vertex -0.1765764057636261 0.06403286755084991 0.0
 endloop
endfacet
facet normal -0.0 0.0 -1.0
 outer loop
  vertex -0.1765764057636261 0.06403286755084991 0.0
  vertex -0.28352802991867065 7.244851440191269e-05 0.0
  vertex -0.2850499749183655 0.12834610044956207 0.0
 endloop
endfacet
facet normal 0.0 0.0 -1.0
 outer loop
  vertex -0.28349363803863525 -0.125 0.0
  vertex -0.176345095038414 -0.06439124792814255 0.0
  vertex -0.17861154675483704 -0.19641032814979553 0.0
 endloop
endfacet
facet normal 0.0 -0.0 -1.0
 outer loop
  vertex -0.28349363803863525 -0.125 0.0
  vertex -0.17861154675483704 -0.19641032814979553 0.0
  vertex -0.28671643137931824 -0.25583621859550476 0.0
 endloop
endfacet
facet normal 0.0 0.0 -1.0
 outer loop
  vertex -0.3911101520061493 -0.1906438022851944 0.0
  vertex -0.28349363803863525 -0.125 0.0
  vertex -0.28671643137931824 -0.25583621859550476 0.0
 endloop
endfacet
facet normal 0.0 0.0 -1.0
 outer loop
  vertex -0.176345095038414 -0.06439124792814255 0.0
  vertex -0.1765764057636261 0.06403286755084991 0.0
  vertex -0.06739405542612076 -5.9730096836574376e-05 0.0
 endloop
endfacet
facet normal 0.0 0.0 -1.0
 outer loop
  vertex -0.176345095038414 -0.06439124792814255 0.0
  vertex -0.06739405542612076 -5.9730096836574376e-05 0.0
  vertex -0.0683380737900734 -0.1272284835577011 0.0
 endloop
endfacet
facet normal 0.0 -0.0 -1.0
 outer loop
  vertex -0.176345095038414 -0.06439124792814255 0.0
  vertex -0.0683380737900734 -0.1272284835577011 0.0
  vertex -0.17861154675483704 -0.19641032814979553 0.0
 endloop
endfacet
facet normal 0.0 0.0 -1.0
 outer loop
  vertex -0.06739405542612076 -5.9730096836574376e-05 0.0
  vertex -0.1765764057636261 0.06403286755084991 0.0
  vertex -0.06843883544206619 0.1272868812084198 0.0
 endloop
endfacet
facet normal 0.0 -0.0 -1.0
 outer loop
  vertex -0.1821170151233673 0.19851598143577576 0.0
  vertex -0.1765764057636261 0.06403286755084991 0.0
  vertex -0.2850499749183655 0.12834610044956207 0.0
 endloop
endfacet
facet normal 0.0 0.0 -1.0
 outer loop
  vertex -0.1765764057636261 0.06403286755084991 0.0
  vertex -0.1821170151233673 0.19851598143577576 0.0
  vertex -0.06843883544206619 0.1272868812084198 0.0
 endloop
endfacet
facet normal 0.0 0.0 -1.0
 outer loop
  vertex -0.0683380737900734 -0.1272284835577011 0.0
  vertex -0.06739405542612076 -5.9730096836574376e-05 0.0
  vertex 0.04097295552492142 -0.06288136541843414 0.0
 endloop
endfacet
facet normal 0.0 0.0 -1.0
 outer loop
  vertex 0.04097295552492142 -0.06288136541843414 0.0
  vertex -0.06739405542612076 -5.9730096836574376e-05 0.0
  vertex 0.041149262338876724 0.06242648512125015 0.0
 endloop
endfacet
facet normal -0.0 0.0 -1.0
 outer loop
  vertex 0.041149262338876724 0.06242648512125015 0.0
  vertex -0.06739405542612076 -5.9730096836574376e-05 0.0
  vertex -0.06843883544206619 0.1272868812084198 0.0
 endloop
endfacet
facet normal 0.0 0.0 -1.0
 outer loop
  vertex -0.0683380737900734 -0.1272284835577011 0.0
  vertex 0.04097295552492142 -0.06288136541843414 0.0
  vertex 0.040981896221637726 -0.18794767558574677 0.0
 endloop
endfacet
facet normal 0.0 0.0 -1.0
 outer loop
  vertex -0.0683380737900734 -0.1272284835577011 0.0
  vertex 0.040981896221637726 -0.18794767558574677 0.0
  vertex -0.06749359518289566 -0.2566949725151062 0.0
 endloop
endfacet
facet normal 0.0 -0.0 -1.0
 outer loop
  vertex -0.0683380737900734 -0.1272284835577011 0.0
  vertex -0.06749359518289566 -0.2566949725151062 0.0
  vertex -0.17861154675483704 -0.19641032814979553 0.0
 endloop
endfacet
facet normal 0.0 0.0 -1.0
 outer loop
  vertex 0.04097295552492142 -0.06288136541843414 0.0
  vertex 0.041149262338876724 0.06242648512125015 0.0
  vertex 0.14945079386234283 -7.581421232316643e-05 0.0
 endloop
endfacet
facet normal 0.0 0.0 -1.0
 outer loop
  vertex 0.04097295552492142 -0.06288136541843414 0.0
  vertex 0.14945079386234283 -7.581421232316643e-05 0.0
  vertex 0.1494588553905487 -0.12507620453834534 0.0
 endloop
endfacet
facet normal 0.0 0.0 -1.0
 outer loop
  vertex 0.04097295552492142 -0.06288136541843414 0.0
  vertex 0.1494588553905487 -0.12507620453834534 0.0
  vertex 0.040981896221637726 -0.18794767558574677 0.0
 endloop
endfacet
facet normal 0.0 0.0 -1.0
 outer loop
  vertex 0.14945079386234283 -7.581421232316643e-05 0.0
  vertex 0.041149262338876724 0.06242648512125015 0.0
  vertex 0.14862510561943054 0.12348010390996933 0.0
 endloop
endfacet
facet normal -0.0 0.0 -1.0
 outer loop
  vertex 0.14862510561943054 0.12348010390996933 0.0
  vertex 0.041149262338876724 0.06242648512125015 0.0
  vertex 0.041097451001405716 0.18723443150520325 0.0
 endloop
endfacet
facet normal 0.0 -0.0 -1.0
 outer loop
  vertex 0.041097451001405716 0.18723443150520325 0.0
  vertex 0.041149262338876724 0.06242648512125015 0.0
  vertex -0.06843883544206619 0.1272868812084198 0.0
 endloop
endfacet
facet normal 0.0 0.0 -1.0
 outer loop
  vertex 0.1494588553905487 -0.12507620453834534 0.0
  vertex 0.14945079386234283 -7.581421232316643e-05 0.0
  vertex 0.25378671288490295 -0.06249087303876877 0.0
 endloop
endfacet
facet normal 0.0 0.0 -1.0
 outer loop
  vertex 0.14945079386234283 -7.581421232316643e-05 0.0
  vertex 0.14862510561943054 0.12348010390996933 0.0
  vertex 0.2539750933647156 0.06204160675406456 0.0
 endloop
endfacet
facet normal 0.0 0.0 -1.0
 outer loop
  vertex 0.14945079386234283 -7.581421232316643e-05 0.0
  vertex 0.2539750933647156 0.06204160675406456 0.0
  vertex 0.25378671288490295 -0.06249087303876877 0.0
 endloop
endfacet
facet normal 0.0 0.0 -1.0
 outer loop
  vertex 0.040981896221637726 -0.18794767558574677 0.0
  vertex 0.1494588553905487 -0.12507620453834534 0.0
  vertex 0.14951905608177185 -0.25 0.0
 endloop
endfacet
facet normal 0.0 0.0 -1.0
 outer loop
  vertex 0.14951905608177185 -0.25 0.0
  vertex 0.1494588553905487 -0.12507620453834534 0.0
  vertex 0.2523651123046875 -0.18667925894260406 0.0
 endloop
endfacet
facet normal 0.0 0.0 -1.0
 outer loop
  vertex 0.2523651123046875 -0.18667925894260406 0.0
  vertex 0.1494588553905487 -0.12507620453834534 0.0
  vertex 0.25378671288490295 -0.06249087303876877 0.0
 endloop
endfacet
facet normal 0.0 0.0 -1.0
 outer loop
  vertex 0.14862510561943054 0.12348010390996933 0.0
  vertex 0.041097451001405716 0.18723443150520325 0.0
  vertex 0.15501071512699127 0.246074378490448 0.0
 endloop
endfacet
facet normal 0.0 0.0 -1.0
 outer loop
  vertex 0.2539750933647156 0.06204160675406456 0.0
  vertex 0.14862510561943054 0.12348010390996933 0.0
  vertex 0.25522515177726746 0.17486679553985596 0.0
 endloop
endfacet
facet normal 0.0 0.0 -1.0
 outer loop
  vertex 0.14862510561943054 0.12348010390996933 0.0
  vertex 0.15501071512699127 0.246074378490448 0.0
  vertex 0.25522515177726746 0.17486679553985596 0.0
 endloop
endfacet
facet normal -0.0 0.0 -1.0
 outer loop
  vertex 0.15501071512699127 0.246074378490448 0.0
  vertex 0.041097451001405716 0.18723443150520325 0.0
  vertex 0.04761577770113945 0.31189221143722534 0.0
 endloop
endfacet
facet normal 0.0 0.0 -1.0
 outer loop
  vertex 0.04761577770113945 0.31189221143722534 0.0
  vertex 0.041097451001405716 0.18723443150520325 0.0
  vertex -0.06679227203130722 0.2515712380409241 0.0
 endloop
endfacet
facet normal 0.0 -0.0 -1.0
 outer loop
  vertex -0.06679227203130722 0.2515712380409241 0.0
  vertex 0.041097451001405716 0.18723443150520325 0.0
  vertex -0.06843883544206619 0.1272868812084198 0.0
 endloop
endfacet
facet normal 0.0 0.0 -1.0
 outer loop
  vertex 0.25378671288490295 -0.06249087303876877 0.0
  vertex 0.2539750933647156 0.06204160675406456 0.0
  vertex 0.32418203353881836 -4.987589636584744e-05 0.0
 endloop
endfacet
facet normal 0.0 0.0 -1.0
 outer loop
  vertex 0.2539750933647156 0.06204160675406456 0.0
  vertex 0.25522515177726746 0.17486679553985596 0.0
  vertex 0.3248592019081116 0.11799595504999161 0.0
 endloop
endfacet
facet normal 0.0 0.0 -1.0
 outer loop
  vertex 0.32418203353881836 -4.987589636584744e-05 0.0
  vertex 0.2539750933647156 0.06204160675406456 0.0
  vertex 0.3248592019081116 0.11799595504999161 0.0
 endloop
endfacet
facet normal 0.0 0.0 -1.0
 outer loop
  vertex 0.15501071512699127 0.246074378490448 0.0
  vertex 0.27307406067848206 0.292855441570282 0.0
  vertex 0.25522515177726746 0.17486679553985596 0.0
 endloop
endfacet
facet normal -0.0 0.0 -1.0
 outer loop
  vertex 0.3942936062812805 0.3125 0.0
  vertex 0.27307406067848206 0.292855441570282 0.0
  vertex 0.3125014305114746 0.4007282853126526 0.0
 endloop
endfacet
facet normal 0.0 -0.0 -1.0
 outer loop
  vertex -0.17676936089992523 0.32226037979125977 0.0
  vertex -0.06679227203130722 0.2515712380409241 0.0
  vertex -0.1821170151233673 0.19851598143577576 0.0
 endloop
endfacet
facet normal 0.0 0.0 -1.0
 outer loop
  vertex -0.1821170151233673 0.19851598143577576 0.0
  vertex -0.06679227203130722 0.2515712380409241 0.0
  vertex -0.06843883544206619 0.1272868812084198 0.0
 endloop
endfacet
facet normal 0.0 0.0 -1.0
 outer loop
  vertex -0.17676936089992523 0.32226037979125977 0.0
  vertex -0.1821170151233673 0.19851598143577576 0.0
  vertex -0.28687533736228943 0.2624431550502777 0.0
 endloop
endfacet
facet normal 0.0 0.0 -1.0
 outer loop
  vertex -0.28687533736228943 0.2624431550502777 0.0
  vertex -0.1821170151233673 0.19851598143577576 0.0
  vertex -0.2850499749183655 0.12834610044956207 0.0
 endloop
endfacet
facet normal 0.0 0.0 -1.0
 outer loop
  vertex 0.040981896221637726 -0.18794767558574677 0.0
  vertex 0.14951905608177185 -0.25 0.0
  vertex 0.04492601379752159 -0.31302034854888916 0.0
 endloop
endfacet
facet normal 0.0 0.0 -1.0
 outer loop
  vertex -0.06749359518289566 -0.2566949725151062 0.0
  vertex 0.040981896221637726 -0.18794767558574677 0.0
  vertex 0.04492601379752159 -0.31302034854888916 0.0
 endloop
endfacet
facet normal 0.0 0.0 -1.0
 outer loop
  vertex 0.14951905608177185 -0.25 0.0
  vertex 0.2523651123046875 -0.18667925894260406 0.0
  vertex 0.24992665648460388 -0.29891106486320496 0.0
 endloop
endfacet
facet normal 0.0 0.0 -1.0
 outer loop
  vertex 0.2523651123046875 -0.18667925894260406 0.0
  vertex 0.25378671288490295 -0.06249087303876877 0.0
  vertex 0.32475951313972473 -0.125 0.0
 endloop
endfacet
facet normal 0.0 0.0 -1.0
 outer loop
  vertex 0.24992665648460388 -0.29891106486320496 0.0
  vertex 0.2523651123046875 -0.18667925894260406 0.0
  vertex 0.3246927857398987 -0.23983894288539886 0.0
 endloop
endfacet
facet normal 0.0 0.0 -1.0
 outer loop
  vertex 0.2523651123046875 -0.18667925894260406 0.0
  vertex 0.32475951313972473 -0.125 0.0
  vertex 0.3246927857398987 -0.23983894288539886 0.0
 endloop
endfacet
facet normal -0.0 0.0 -1.0
 outer loop
  vertex -0.06749359518289566 -0.2566949725151062 0.0
  vertex -0.1777653694152832 -0.32182925939559937 0.0
  vertex -0.17861154675483704 -0.19641032814979553 0.0
 endloop
endfacet
facet normal 0.0 -0.0 -1.0
 outer loop
  vertex -0.17861154675483704 -0.19641032814979553 0.0
  vertex -0.1777653694152832 -0.32182925939559937 0.0
  vertex -0.28671643137931824 -0.25583621859550476 0.0
 endloop
endfacet
facet normal 0.0 -0.0 -1.0
 outer loop
  vertex -0.28671643137931824 -0.25583621859550476 0.0
  vertex -0.1777653694152832 -0.32182925939559937 0.0
  vertex -0.2975710928440094 -0.3886338472366333 0.0
 endloop
endfacet
facet normal 0.0 0.0 -1.0
 outer loop
  vertex -0.2975710928440094 -0.3886338472366333 0.0
  vertex -0.1777653694152832 -0.32182925939559937 0.0
  vertex -0.1875 -0.4226624369621277 0.0
 endloop
endfacet
facet normal -0.0 0.0 -1.0
 outer loop
  vertex 0.3949142396450043 0.06265000998973846 0.0
  vertex 0.32418203353881836 -4.987589636584744e-05 0.0
  vertex 0.3248592019081116 0.11799595504999161 0.0
 endloop
endfacet
facet normal 0.0 -0.0 -1.0
 outer loop
  vertex 0.32475951313972473 -0.125 0.0
  vertex 0.3917468190193176 -0.1875 0.0
  vertex 0.3246927857398987 -0.23983894288539886 0.0
 endloop
endfacet
facet normal 0.0 0.0 -1.0
 outer loop
  vertex 0.25378671288490295 -0.06249087303876877 0.0
  vertex 0.32418203353881836 -4.987589636584744e-05 0.0
  vertex 0.32475951313972473 -0.125 0.0
 endloop
endfacet
facet normal 0.0 0.0 -1.0
 outer loop
  vertex 0.3942936062812805 0.3125 0.0
  vertex 0.3125014305114746 0.4007282853126526 0.0
  vertex 0.4092406630516052 0.4092406630516052 0.0
 endloop
endfacet
facet normal 0.0 0.0 1.0
 outer loop
  vertex -0.5 -0.5 0.05000000074505806
  vertex -0.40849363803863525 -0.40849363803863525 0.05000000074505806
  vertex -0.5 -0.375 0.05000000074505806
 endloop
endfacet
facet normal 0.0 0.0 1.0
 outer loop
  vertex -0.375 -0.5 0.05000000074505806
  vertex -0.40849363803863525 -0.40849363803863525 0.05000000074505806
  vertex -0.5 -0.5 0.05000000074505806
 endloop
endfacet
facet normal 0.0 0.0 1.0
 outer loop
  vertex -0.5 0.375 0.05000000074505806
  vertex -0.40849363803863525 0.40849363803863525 0.05000000074505806
  vertex -0.5 0.5 0.05000000074505806
 endloop
endfacet
facet normal -0.0 0.0 1.0
 outer loop
  vertex -0.5 0.5 0.05000000074505806
  vertex -0.40849363803863525 0.40849363803863525 0.05000000074505806
  vertex -0.375 0.5 0.05000000074505806
 endloop
endfacet
facet normal 0.0 0.0 1.0
 outer loop
  vertex 0.5 -0.375 0.05000000074505806
  vertex 0.40849363803863525 -0.40849363803863525 0.05000000074505806
  vertex 0.5 -0.5 0.05000000074505806
 endloop
endfacet
facet normal 0.0 0.0 1.0
 outer loop
  vertex 0.5 -0.5 0.05000000074505806
  vertex 0.40849363803863525 -0.40849363803863525 0.05000000074505806
  vertex 0.375 -0.5 0.05000000074505806
 endloop
endfacet
facet normal 0.0 0.0 1.0
 outer loop
  vertex 0.5 0.5 0.05000000074505806
  vertex 0.40849363803863525 0.40849363803863525 0.05000000074505806
  vertex 0.5 0.375 0.05000000074505806
 endloop
endfacet
facet normal -0.0 0.0 1.0
 outer loop
  vertex 0.375 0.5 0.05000000074505806
  vertex 0.40849363803863525 0.40849363803863525 0.05000000074505806
  vertex 0.5 0.5 0.05000000074505806
 endloop
endfacet
facet normal 0.0 0.0 1.0
 outer loop
  vertex -0.5 -0.375 0.05000000074505806
  vertex -0.39415350556373596 -0.3119703233242035 0.05000000074505806
  vertex -0.5 -0.25 0.05000000074505806
 endloop
endfacet
facet normal -0.0 0.0 1.0
 outer loop
  vertex -0.5 -0.375 0.05000000074505806
  vertex -0.40849363803863525 -0.40849363803863525 0.05000000074505806
  vertex -0.39415350556373596 -0.3119703233242035 0.05000000074505806
 endloop
endfacet
facet normal 0.0 0.0 1.0
 outer loop
  vertex -0.5 -0.25 0.05000000074505806
  vertex -0.3921479284763336 -0.18741172552108765 0.05000000074505806
  vertex -0.5 -0.125 0.05000000074505806
 endloop
endfacet
facet normal 0.0 -0.0 1.0
 outer loop
  vertex -0.39415350556373596 -0.3119703233242035 0.05000000074505806
  vertex -0.3921479284763336 -0.18741172552108765 0.05000000074505806
  vertex -0.5 -0.25 0.05000000074505806
 endloop
endfacet
facet normal 0.0 0.0 1.0
 outer loop
  vertex -0.5 -0.125 0.05000000074505806
  vertex -0.3917468190193176 -0.0625 0.05000000074505806
  vertex -0.5 1.1102230246251565e-16 0.05000000074505806
 endloop
endfacet
facet normal -0.0 0.0 1.0
 outer loop
  vertex -0.5 -0.125 0.05000000074505806
  vertex -0.3921479284763336 -0.18741172552108765 0.05000000074505806
  vertex -0.3917468190193176 -0.0625 0.05000000074505806
 endloop
endfacet
facet normal 0.0 0.0 1.0
 outer loop
  vertex -0.5 1.1102230246251565e-16 0.05000000074505806
  vertex -0.39184805750846863 0.06274279952049255 0.05000000074505806
  vertex -0.5 0.125 0.05000000074505806
 endloop
endfacet
facet normal 0.0 0.0 1.0
 outer loop
  vertex -0.3917468190193176 -0.0625 0.05000000074505806
  vertex -0.39184805750846863 0.06274279952049255 0.05000000074505806
  vertex -0.5 1.1102230246251565e-16 0.05000000074505806
 endloop
endfacet
facet normal 0.0 0.0 1.0
 outer loop
  vertex -0.5 0.125 0.05000000074505806
  vertex -0.392964243888855 0.19014400243759155 0.05000000074505806
  vertex -0.5 0.25 0.05000000074505806
 endloop
endfacet
facet normal -0.0 0.0 1.0
 outer loop
  vertex -0.5 0.125 0.05000000074505806
  vertex -0.39184805750846863 0.06274279952049255 0.05000000074505806
  vertex -0.392964243888855 0.19014400243759155 0.05000000074505806
 endloop
endfacet
facet normal 0.0 0.0 1.0
 outer loop
  vertex -0.5 0.25 0.05000000074505806
  vertex -0.39717307686805725 0.3088666498661041 0.05000000074505806
  vertex -0.5 0.375 0.05000000074505806
 endloop
endfacet
facet normal 0.0 0.0 1.0
 outer loop
  vertex -0.392964243888855 0.19014400243759155 0.05000000074505806
  vertex -0.39717307686805725 0.3088666498661041 0.05000000074505806
  vertex -0.5 0.25 0.05000000074505806
 endloop
endfacet
facet normal 0.0 0.0 1.0
 outer loop
  vertex -0.39717307686805725 0.3088666498661041 0.05000000074505806
  vertex -0.40849363803863525 0.40849363803863525 0.05000000074505806
  vertex -0.5 0.375 0.05000000074505806
 endloop
endfacet
facet normal 0.0 0.0 1.0
 outer loop
  vertex 0.5 -0.25 0.05000000074505806
  vertex 0.3950449228286743 -0.31531623005867004 0.05000000074505806
  vertex 0.5 -0.375 0.05000000074505806
 endloop
endfacet
facet normal 0.0 0.0 1.0
 outer loop
  vertex 0.3950449228286743 -0.31531623005867004 0.05000000074505806
  vertex 0.40849363803863525 -0.40849363803863525 0.05000000074505806
  vertex 0.5 -0.375 0.05000000074505806
 endloop
endfacet
facet normal 0.0 0.0 1.0
 outer loop
  vertex 0.5 -0.125 0.05000000074505806
  vertex 0.38385331630706787 -0.19034689664840698 0.05000000074505806
  vertex 0.5 -0.25 0.05000000074505806
 endloop
endfacet
facet normal 0.0 0.0 1.0
 outer loop
  vertex 0.38385331630706787 -0.19034689664840698 0.05000000074505806
  vertex 0.3950449228286743 -0.31531623005867004 0.05000000074505806
  vertex 0.5 -0.25 0.05000000074505806
 endloop
endfacet
facet normal 0.0 0.0 1.0
 outer loop
  vertex 0.5 1.1102230246251565e-16 0.05000000074505806
  vertex 0.3917468190193176 -0.0625 0.05000000074505806
  vertex 0.5 -0.125 0.05000000074505806
 endloop
endfacet
facet normal 0.0 0.0 1.0
 outer loop
  vertex 0.5 -0.125 0.05000000074505806
  vertex 0.3917468190193176 -0.0625 0.05000000074505806
  vertex 0.38385331630706787 -0.19034689664840698 0.05000000074505806
 endloop
endfacet
facet normal 0.0 0.0 1.0
 outer loop
  vertex 0.5 0.125 0.05000000074505806
  vertex 0.3917468190193176 0.0625 0.05000000074505806
  vertex 0.5 1.1102230246251565e-16 0.05000000074505806
 endloop
endfacet
facet normal 0.0 0.0 1.0
 outer loop
  vertex 0.3917468190193176 0.0625 0.05000000074505806
  vertex 0.3917468190193176 -0.0625 0.05000000074505806
  vertex 0.5 1.1102230246251565e-16 0.05000000074505806
 endloop
endfacet
facet normal 0.0 0.0 1.0
 outer loop
  vertex 0.5 0.25 0.05000000074505806
  vertex 0.3917468190193176 0.1875 0.05000000074505806
  vertex 0.5 0.125 0.05000000074505806
 endloop
endfacet
facet normal 0.0 0.0 1.0
 outer loop
  vertex 0.5 0.125 0.05000000074505806
  vertex 0.3917468190193176 0.1875 0.05000000074505806
  vertex 0.3917468190193176 0.0625 0.05000000074505806
 endloop
endfacet
facet normal 0.0 0.0 1.0
 outer loop
  vertex 0.5 0.375 0.05000000074505806
  vertex 0.3917468190193176 0.3125 0.05000000074505806
  vertex 0.5 0.25 0.05000000074505806
 endloop
endfacet
facet normal 0.0 0.0 1.0
 outer loop
  vertex 0.3917468190193176 0.3125 0.05000000074505806
  vertex 0.3917468190193176 0.1875 0.05000000074505806
  vertex 0.5 0.25 0.05000000074505806
 endloop
endfacet
facet normal 0.0 0.0 1.0
 outer loop
  vertex 0.5 0.375 0.05000000074505806
  vertex 0.40849363803863525 0.40849363803863525 0.05000000074505806
  vertex 0.3917468190193176 0.3125 0.05000000074505806
 endloop
endfacet
facet normal 0.0 0.0 1.0
 outer loop
  vertex -0.25 -0.5 0.05000000074505806
  vertex -0.30335870385169983 -0.3856109380722046 0.05000000074505806
  vertex -0.375 -0.5 0.05000000074505806
 endloop
endfacet
facet normal 0.0 0.0 1.0
 outer loop
  vertex -0.30335870385169983 -0.3856109380722046 0.05000000074505806
  vertex -0.40849363803863525 -0.40849363803863525 0.05000000074505806
  vertex -0.375 -0.5 0.05000000074505806
 endloop
endfacet
facet normal 0.0 0.0 1.0
 outer loop
  vertex -0.125 -0.5 0.05000000074505806
  vertex -0.1802077442407608 -0.39595699310302734 0.05000000074505806
  vertex -0.25 -0.5 0.05000000074505806
 endloop
endfacet
facet normal 0.0 0.0 1.0
 outer loop
  vertex -0.1802077442407608 -0.39595699310302734 0.05000000074505806
  vertex -0.30335870385169983 -0.3856109380722046 0.05000000074505806
  vertex -0.25 -0.5 0.05000000074505806
 endloop
endfacet
facet normal 0.0 0.0 1.0
 outer loop
  vertex 1.1102230246251565e-16 -0.5 0.05000000074505806
  vertex -0.0612846240401268 -0.3924485146999359 0.05000000074505806
  vertex -0.125 -0.5 0.05000000074505806
 endloop
endfacet
facet normal 0.0 -0.0 1.0
 outer loop
  vertex -0.125 -0.5 0.05000000074505806
  vertex -0.0612846240401268 -0.3924485146999359 0.05000000074505806
  vertex -0.1802077442407608 -0.39595699310302734 0.05000000074505806
 endloop
endfacet
facet normal 0.0 0.0 1.0
 outer loop
  vertex 0.125 -0.5 0.05000000074505806
  vertex 0.0625 -0.3917468190193176 0.05000000074505806
  vertex 1.1102230246251565e-16 -0.5 0.05000000074505806
 endloop
endfacet
facet normal 0.0 0.0 1.0
 outer loop
  vertex 0.0625 -0.3917468190193176 0.05000000074505806
  vertex -0.0612846240401268 -0.3924485146999359 0.05000000074505806
  vertex 1.1102230246251565e-16 -0.5 0.05000000074505806
 endloop
endfacet
facet normal 0.0 0.0 1.0
 outer loop
  vertex 0.25 -0.5 0.05000000074505806
  vertex 0.19273892045021057 -0.38983920216560364 0.05000000074505806
  vertex 0.125 -0.5 0.05000000074505806
 endloop
endfacet
facet normal 0.0 -0.0 1.0
 outer loop
  vertex 0.125 -0.5 0.05000000074505806
  vertex 0.19273892045021057 -0.38983920216560364 0.05000000074505806
  vertex 0.0625 -0.3917468190193176 0.05000000074505806
 endloop
endfacet
facet normal 0.0 0.0 1.0
 outer loop
  vertex 0.375 -0.5 0.05000000074505806
  vertex 0.31297993659973145 -0.39433804154396057 0.05000000074505806
  vertex 0.25 -0.5 0.05000000074505806
 endloop
endfacet
facet normal 0.0 0.0 1.0
 outer loop
  vertex 0.31297993659973145 -0.39433804154396057 0.05000000074505806
  vertex 0.19273892045021057 -0.38983920216560364 0.05000000074505806
  vertex 0.25 -0.5 0.05000000074505806
 endloop
endfacet
facet normal 0.0 -0.0 1.0
 outer loop
  vertex 0.375 -0.5 0.05000000074505806
  vertex 0.40849363803863525 -0.40849363803863525 0.05000000074505806
  vertex 0.31297993659973145 -0.39433804154396057 0.05000000074505806
 endloop
endfacet
facet normal -0.0 0.0 1.0
 outer loop
  vertex -0.375 0.5 0.05000000074505806
  vertex -0.296657919883728 0.3905148208141327 0.05000000074505806
  vertex -0.25 0.5 0.05000000074505806
 endloop
endfacet
facet normal 0.0 0.0 1.0
 outer loop
  vertex -0.375 0.5 0.05000000074505806
  vertex -0.40849363803863525 0.40849363803863525 0.05000000074505806
  vertex -0.296657919883728 0.3905148208141327 0.05000000074505806
 endloop
endfacet
facet normal -0.0 0.0 1.0
 outer loop
  vertex -0.25 0.5 0.05000000074505806
  vertex -0.1875 0.4226624369621277 0.05000000074505806
  vertex -0.125 0.5 0.05000000074505806
 endloop
endfacet
facet normal 0.0 0.0 1.0
 outer loop
  vertex -0.296657919883728 0.3905148208141327 0.05000000074505806
  vertex -0.1875 0.4226624369621277 0.05000000074505806
  vertex -0.25 0.5 0.05000000074505806
 endloop
endfacet
facet normal -0.0 0.0 1.0
 outer loop
  vertex -0.125 0.5 0.05000000074505806
  vertex -0.06409486383199692 0.38927507400512695 0.05000000074505806
  vertex 1.1102230246251565e-16 0.5 0.05000000074505806
 endloop
endfacet
facet normal 0.0 0.0 1.0
 outer loop
  vertex -0.125 0.5 0.05000000074505806
  vertex -0.1875 0.4226624369621277 0.05000000074505806
  vertex -0.06409486383199692 0.38927507400512695 0.05000000074505806
 endloop
endfacet
facet normal -0.0 0.0 1.0
 outer loop
  vertex 1.1102230246251565e-16 0.5 0.05000000074505806
  vertex 0.0625 0.41546431183815 0.05000000074505806
  vertex 0.125 0.5 0.05000000074505806
 endloop
endfacet
facet normal 0.0 0.0 1.0
 outer loop
  vertex -0.06409486383199692 0.38927507400512695 0.05000000074505806
  vertex 0.0625 0.41546431183815 0.05000000074505806
  vertex 1.1102230246251565e-16 0.5 0.05000000074505806
 endloop
endfacet
facet normal -0.0 0.0 1.0
 outer loop
  vertex 0.125 0.5 0.05000000074505806
  vertex 0.16922597587108612 0.3817373216152191 0.05000000074505806
  vertex 0.25 0.5 0.05000000074505806
 endloop
endfacet
facet normal 0.0 0.0 1.0
 outer loop
  vertex 0.125 0.5 0.05000000074505806
  vertex 0.0625 0.41546431183815 0.05000000074505806
  vertex 0.16922597587108612 0.3817373216152191 0.05000000074505806
 endloop
endfacet
facet normal -0.0 0.0 1.0
 outer loop
  vertex 0.25 0.5 0.05000000074505806
  vertex 0.3066380023956299 0.3965842127799988 0.05000000074505806
  vertex 0.375 0.5 0.05000000074505806
 endloop
endfacet
facet normal 0.0 0.0 1.0
 outer loop
  vertex 0.16922597587108612 0.3817373216152191 0.05000000074505806
  vertex 0.3066380023956299 0.3965842127799988 0.05000000074505806
  vertex 0.25 0.5 0.05000000074505806
 endloop
endfacet
facet normal 0.0 0.0 1.0
 outer loop
  vertex 0.3066380023956299 0.3965842127799988 0.05000000074505806
  vertex 0.40849363803863525 0.40849363803863525 0.05000000074505806
  vertex 0.375 0.5 0.05000000074505806
 endloop
endfacet
facet normal 0.0 0.0 1.0
 outer loop
  vertex -0.3921479284763336 -0.18741172552108765 0.05000000074505806
  vertex -0.28430837392807007 -0.1236899122595787 0.05000000074505806
  vertex -0.3917468190193176 -0.0625 0.05000000074505806
 endloop
endfacet
facet normal 0.0 -0.0 1.0
 outer loop
  vertex -0.28430837392807007 -0.1236899122595787 0.05000000074505806
  vertex -0.28360873460769653 0.00025420711608603597 0.05000000074505806
  vertex -0.3917468190193176 -0.0625 0.05000000074505806
 endloop
endfacet
facet normal 0.0 0.0 1.0
 outer loop
  vertex -0.28360873460769653 0.00025420711608603597 0.05000000074505806
  vertex -0.39184805750846863 0.06274279952049255 0.05000000074505806
  vertex -0.3917468190193176 -0.0625 0.05000000074505806
 endloop
endfacet
facet normal 0.0 0.0 1.0
 outer loop
  vertex 0.3917468190193176 0.0625 0.05000000074505806
  vertex 0.32475951313972473 -8.881784197001252e-16 0.05000000074505806
  vertex 0.3917468190193176 -0.0625 0.05000000074505806
 endloop
endfacet
facet normal 0.0 0.0 1.0
 outer loop
  vertex 0.3917468190193176 0.1875 0.05000000074505806
  vertex 0.32475951313972473 0.125 0.05000000074505806
  vertex 0.3917468190193176 0.0625 0.05000000074505806
 endloop
endfacet
facet normal 0.0 0.0 1.0
 outer loop
  vertex 0.32475951313972473 0.125 0.05000000074505806
  vertex 0.32475951313972473 -8.881784197001252e-16 0.05000000074505806
  vertex 0.3917468190193176 0.0625 0.05000000074505806
 endloop
endfacet
facet normal 0.0 0.0 1.0
 outer loop
  vertex -0.06409486383199692 0.38927507400512695 0.05000000074505806
  vertex -0.0669872984290123 0.25 0.05000000074505806
  vertex 0.04499562457203865 0.31242185831069946 0.05000000074505806
 endloop
endfacet
facet normal 0.0 -0.0 1.0
 outer loop
  vertex 0.04499562457203865 0.31242185831069946 0.05000000074505806
  vertex 0.0625 0.41546431183815 0.05000000074505806
  vertex -0.06409486383199692 0.38927507400512695 0.05000000074505806
 endloop
endfacet
facet normal 0.0 0.0 1.0
 outer loop
  vertex -0.06409486383199692 0.38927507400512695 0.05000000074505806
  vertex -0.17678594589233398 0.3221267759799957 0.05000000074505806
  vertex -0.0669872984290123 0.25 0.05000000074505806
 endloop
endfacet
facet normal 0.0 0.0 1.0
 outer loop
  vertex -0.06409486383199692 0.38927507400512695 0.05000000074505806
  vertex -0.1875 0.4226624369621277 0.05000000074505806
  vertex -0.17678594589233398 0.3221267759799957 0.05000000074505806
 endloop
endfacet
facet normal 0.0 0.0 1.0
 outer loop
  vertex 0.14158907532691956 -0.2577612102031708 0.05000000074505806
  vertex 0.00012882343435194343 -0.28464043140411377 0.05000000074505806
  vertex 0.0625 -0.3917468190193176 0.05000000074505806
 endloop
endfacet
facet normal 0.0 0.0 1.0
 outer loop
  vertex 0.0625 -0.3917468190193176 0.05000000074505806
  vertex 0.19273892045021057 -0.38983920216560364 0.05000000074505806
  vertex 0.14158907532691956 -0.2577612102031708 0.05000000074505806
 endloop
endfacet
facet normal 0.0 0.0 1.0
 outer loop
  vertex 0.0625 -0.3917468190193176 0.05000000074505806
  vertex 0.00012882343435194343 -0.28464043140411377 0.05000000074505806
  vertex -0.0612846240401268 -0.3924485146999359 0.05000000074505806
 endloop
endfacet
facet normal 0.0 0.0 1.0
 outer loop
  vertex -0.0612846240401268 -0.3924485146999359 0.05000000074505806
  vertex -0.11599459499120712 -0.295749306678772 0.05000000074505806
  vertex -0.1802077442407608 -0.39595699310302734 0.05000000074505806
 endloop
endfacet
facet normal 0.0 0.0 1.0
 outer loop
  vertex -0.11599459499120712 -0.295749306678772 0.05000000074505806
  vertex -0.21237626671791077 -0.3052157163619995 0.05000000074505806
  vertex -0.1802077442407608 -0.39595699310302734 0.05000000074505806
 endloop
endfacet
facet normal 0.0 0.0 1.0
 outer loop
  vertex -0.1802077442407608 -0.39595699310302734 0.05000000074505806
  vertex -0.21237626671791077 -0.3052157163619995 0.05000000074505806
  vertex -0.30335870385169983 -0.3856109380722046 0.05000000074505806
 endloop
endfacet
facet normal -0.0 0.0 1.0
 outer loop
  vertex -0.392964243888855 0.19014400243759155 0.05000000074505806
  vertex -0.2844943702220917 0.12769824266433716 0.05000000074505806
  vertex -0.28647351264953613 0.2644043266773224 0.05000000074505806
 endloop
endfacet
facet normal 0.0 0.0 1.0
 outer loop
  vertex -0.28647351264953613 0.2644043266773224 0.05000000074505806
  vertex -0.39717307686805725 0.3088666498661041 0.05000000074505806
  vertex -0.392964243888855 0.19014400243759155 0.05000000074505806
 endloop
endfacet
facet normal 0.0 0.0 1.0
 outer loop
  vertex -0.392964243888855 0.19014400243759155 0.05000000074505806
  vertex -0.39184805750846863 0.06274279952049255 0.05000000074505806
  vertex -0.2844943702220917 0.12769824266433716 0.05000000074505806
 endloop
endfacet
facet normal 0.0 0.0 1.0
 outer loop
  vertex 0.25709035992622375 -0.184064581990242 0.05000000074505806
  vertex 0.2759251594543457 -0.2904904782772064 0.05000000074505806
  vertex 0.38385331630706787 -0.19034689664840698 0.05000000074505806
 endloop
endfacet
facet normal 0.0 0.0 1.0
 outer loop
  vertex 0.38385331630706787 -0.19034689664840698 0.05000000074505806
  vertex 0.32475951313972473 -0.125 0.05000000074505806
  vertex 0.25709035992622375 -0.184064581990242 0.05000000074505806
 endloop
endfacet
facet normal 0.0 0.0 1.0
 outer loop
  vertex 0.3917468190193176 -0.0625 0.05000000074505806
  vertex 0.32475951313972473 -0.125 0.05000000074505806
  vertex 0.38385331630706787 -0.19034689664840698 0.05000000074505806
 endloop
endfacet
facet normal 0.0 0.0 1.0
 outer loop
  vertex 0.38385331630706787 -0.19034689664840698 0.05000000074505806
  vertex 0.2759251594543457 -0.2904904782772064 0.05000000074505806
  vertex 0.3950449228286743 -0.31531623005867004 0.05000000074505806
 endloop
endfacet
facet normal 0.0 0.0 1.0
 outer loop
  vertex 0.16922597587108612 0.3817373216152191 0.05000000074505806
  vertex 0.04499562457203865 0.31242185831069946 0.05000000074505806
  vertex 0.14951905608177185 0.25 0.05000000074505806
 endloop
endfacet
facet normal 0.0 0.0 1.0
 outer loop
  vertex 0.14951905608177185 0.25 0.05000000074505806
  vertex 0.24992665648460388 0.29891106486320496 0.05000000074505806
  vertex 0.16922597587108612 0.3817373216152191 0.05000000074505806
 endloop
endfacet
facet normal 0.0 0.0 1.0
 outer loop
  vertex 0.16922597587108612 0.3817373216152191 0.05000000074505806
  vertex 0.0625 0.41546431183815 0.05000000074505806
  vertex 0.04499562457203865 0.31242185831069946 0.05000000074505806
 endloop
endfacet
facet normal -0.0 0.0 1.0
 outer loop
  vertex 0.16922597587108612 0.3817373216152191 0.05000000074505806
  vertex 0.24992665648460388 0.29891106486320496 0.05000000074505806
  vertex 0.3066380023956299 0.3965842127799988 0.05000000074505806
 endloop
endfacet
facet normal 0.0 0.0 1.0
 outer loop
  vertex -0.39415350556373596 -0.3119703233242035 0.05000000074505806
  vertex -0.2948473393917084 -0.25055021047592163 0.05000000074505806
  vertex -0.3921479284763336 -0.18741172552108765 0.05000000074505806
 endloop
endfacet
facet normal -0.0 0.0 1.0
 outer loop
  vertex -0.39415350556373596 -0.3119703233242035 0.05000000074505806
  vertex -0.30335870385169983 -0.3856109380722046 0.05000000074505806
  vertex -0.2948473393917084 -0.25055021047592163 0.05000000074505806
 endloop
endfacet
facet normal 0.0 0.0 1.0
 outer loop
  vertex -0.39415350556373596 -0.3119703233242035 0.05000000074505806
  vertex -0.40849363803863525 -0.40849363803863525 0.05000000074505806
  vertex -0.30335870385169983 -0.3856109380722046 0.05000000074505806
 endloop
endfacet
facet normal 0.0 0.0 1.0
 outer loop
  vertex 0.31297993659973145 -0.39433804154396057 0.05000000074505806
  vertex 0.2759251594543457 -0.2904904782772064 0.05000000074505806
  vertex 0.19273892045021057 -0.38983920216560364 0.05000000074505806
 endloop
endfacet
facet normal 0.0 0.0 1.0
 outer loop
  vertex 0.3950449228286743 -0.31531623005867004 0.05000000074505806
  vertex 0.2759251594543457 -0.2904904782772064 0.05000000074505806
  vertex 0.31297993659973145 -0.39433804154396057 0.05000000074505806
 endloop
endfacet
facet normal -0.0 0.0 1.0
 outer loop
  vertex 0.31297993659973145 -0.39433804154396057 0.05000000074505806
  vertex 0.40849363803863525 -0.40849363803863525 0.05000000074505806
  vertex 0.3950449228286743 -0.31531623005867004 0.05000000074505806
 endloop
endfacet
facet normal 0.0 0.0 1.0
 outer loop
  vertex 0.3917468190193176 0.3125 0.05000000074505806
  vertex 0.32469314336776733 0.23983891308307648 0.05000000074505806
  vertex 0.3917468190193176 0.1875 0.05000000074505806
 endloop
endfacet
facet normal 0.0 0.0 1.0
 outer loop
  vertex 0.3066380023956299 0.3965842127799988 0.05000000074505806
  vertex 0.24992665648460388 0.29891106486320496 0.05000000074505806
  vertex 0.3917468190193176 0.3125 0.05000000074505806
 endloop
endfacet
facet normal 0.0 -0.0 1.0
 outer loop
  vertex 0.3917468190193176 0.3125 0.05000000074505806
  vertex 0.40849363803863525 0.40849363803863525 0.05000000074505806
  vertex 0.3066380023956299 0.3965842127799988 0.05000000074505806
 endloop
endfacet
facet normal -0.0 0.0 1.0
 outer loop
  vertex 0.24992665648460388 0.29891106486320496 0.05000000074505806
  vertex 0.32469314336776733 0.23983891308307648 0.05000000074505806
  vertex 0.3917468190193176 0.3125 0.05000000074505806
 endloop
endfacet
facet normal 0.0 0.0 1.0
 outer loop
  vertex -0.296657919883728 0.3905148208141327 0.05000000074505806
  vertex -0.28647351264953613 0.2644043266773224 0.05000000074505806
  vertex -0.17678594589233398 0.3221267759799957 0.05000000074505806
 endloop
endfacet
facet normal 0.0 0.0 1.0
 outer loop
  vertex -0.17678594589233398 0.3221267759799957 0.05000000074505806
  vertex -0.1875 0.4226624369621277 0.05000000074505806
  vertex -0.296657919883728 0.3905148208141327 0.05000000074505806
 endloop
endfacet
facet normal 0.0 0.0 1.0
 outer loop
  vertex -0.296657919883728 0.3905148208141327 0.05000000074505806
  vertex -0.39717307686805725 0.3088666498661041 0.05000000074505806
  vertex -0.28647351264953613 0.2644043266773224 0.05000000074505806
 endloop
endfacet
facet normal 0.0 0.0 1.0
 outer loop
  vertex -0.296657919883728 0.3905148208141327 0.05000000074505806
  vertex -0.40849363803863525 0.40849363803863525 0.05000000074505806
  vertex -0.39717307686805725 0.3088666498661041 0.05000000074505806
 endloop
endfacet
facet normal -0.0 0.0 1.0
 outer loop
  vertex -0.3921479284763336 -0.18741172552108765 0.05000000074505806
  vertex -0.2948473393917084 -0.25055021047592163 0.05000000074505806
  vertex -0.28430837392807007 -0.1236899122595787 0.05000000074505806
 endloop
endfacet
facet normal 0.0 0.0 1.0
 outer loop
  vertex -0.28430837392807007 -0.1236899122595787 0.05000000074505806
  vertex -0.1761433333158493 -0.06094391271471977 0.05000000074505806
  vertex -0.28360873460769653 0.00025420711608603597 0.05000000074505806
 endloop
endfacet
facet normal -0.0 0.0 1.0
 outer loop
  vertex -0.28430837392807007 -0.1236899122595787 0.05000000074505806
  vertex -0.17320069670677185 -0.19555404782295227 0.05000000074505806
  vertex -0.1761433333158493 -0.06094391271471977 0.05000000074505806
 endloop
endfacet
facet normal 0.0 0.0 1.0
 outer loop
  vertex -0.2948473393917084 -0.25055021047592163 0.05000000074505806
  vertex -0.17320069670677185 -0.19555404782295227 0.05000000074505806
  vertex -0.28430837392807007 -0.1236899122595787 0.05000000074505806
 endloop
endfacet
facet normal 0.0 0.0 1.0
 outer loop
  vertex -0.1761433333158493 -0.06094391271471977 0.05000000074505806
  vertex -0.17653551697731018 0.06467357277870178 0.05000000074505806
  vertex -0.28360873460769653 0.00025420711608603597 0.05000000074505806
 endloop
endfacet
facet normal 0.0 0.0 1.0
 outer loop
  vertex -0.17653551697731018 0.06467357277870178 0.05000000074505806
  vertex -0.2844943702220917 0.12769824266433716 0.05000000074505806
  vertex -0.28360873460769653 0.00025420711608603597 0.05000000074505806
 endloop
endfacet
facet normal 0.0 0.0 1.0
 outer loop
  vertex -0.2844943702220917 0.12769824266433716 0.05000000074505806
  vertex -0.39184805750846863 0.06274279952049255 0.05000000074505806
  vertex -0.28360873460769653 0.00025420711608603597 0.05000000074505806
 endloop
endfacet
facet normal 0.0 -0.0 1.0
 outer loop
  vertex -0.1761433333158493 -0.06094391271471977 0.05000000074505806
  vertex -0.06712079793214798 0.0002265342336613685 0.05000000074505806
  vertex -0.17653551697731018 0.06467357277870178 0.05000000074505806
 endloop
endfacet
facet normal -0.0 0.0 1.0
 outer loop
  vertex -0.1761433333158493 -0.06094391271471977 0.05000000074505806
  vertex -0.06623492389917374 -0.11622292548418045 0.05000000074505806
  vertex -0.06712079793214798 0.0002265342336613685 0.05000000074505806
 endloop
endfacet
facet normal 0.0 0.0 1.0
 outer loop
  vertex -0.1761433333158493 -0.06094391271471977 0.05000000074505806
  vertex -0.17320069670677185 -0.19555404782295227 0.05000000074505806
  vertex -0.06623492389917374 -0.11622292548418045 0.05000000074505806
 endloop
endfacet
facet normal 0.0 0.0 1.0
 outer loop
  vertex -0.06712079793214798 0.0002265342336613685 0.05000000074505806
  vertex -0.06834190338850021 0.12734587490558624 0.05000000074505806
  vertex -0.17653551697731018 0.06467357277870178 0.05000000074505806
 endloop
endfacet
facet normal 0.0 -0.0 1.0
 outer loop
  vertex -0.17653551697731018 0.06467357277870178 0.05000000074505806
  vertex -0.06834190338850021 0.12734587490558624 0.05000000074505806
  vertex -0.1821170151233673 0.19851598143577576 0.05000000074505806
 endloop
endfacet
facet normal 0.0 0.0 1.0
 outer loop
  vertex -0.1821170151233673 0.19851598143577576 0.05000000074505806
  vertex -0.2844943702220917 0.12769824266433716 0.05000000074505806
  vertex -0.17653551697731018 0.06467357277870178 0.05000000074505806
 endloop
endfacet
facet normal 0.0 -0.0 1.0
 outer loop
  vertex -0.06623492389917374 -0.11622292548418045 0.05000000074505806
  vertex 0.04229412600398064 -0.05939707159996033 0.05000000074505806
  vertex -0.06712079793214798 0.0002265342336613685 0.05000000074505806
 endloop
endfacet
facet normal 0.0 0.0 1.0
 outer loop
  vertex 0.04229412600398064 -0.05939707159996033 0.05000000074505806
  vertex 0.041415002197027206 0.06305491179227829 0.05000000074505806
  vertex -0.06712079793214798 0.0002265342336613685 0.05000000074505806
 endloop
endfacet
facet normal 0.0 0.0 1.0
 outer loop
  vertex 0.041415002197027206 0.06305491179227829 0.05000000074505806
  vertex -0.06834190338850021 0.12734587490558624 0.05000000074505806
  vertex -0.06712079793214798 0.0002265342336613685 0.05000000074505806
 endloop
endfacet
facet normal -0.0 0.0 1.0
 outer loop
  vertex -0.06623492389917374 -0.11622292548418045 0.05000000074505806
  vertex 0.03789106383919716 -0.17669445276260376 0.05000000074505806
  vertex 0.04229412600398064 -0.05939707159996033 0.05000000074505806
 endloop
endfacet
facet normal -0.0 0.0 1.0
 outer loop
  vertex -0.17320069670677185 -0.19555404782295227 0.05000000074505806
  vertex -0.0625 -0.21650634706020355 0.05000000074505806
  vertex -0.06623492389917374 -0.11622292548418045 0.05000000074505806
 endloop
endfacet
facet normal 0.0 0.0 1.0
 outer loop
  vertex -0.06623492389917374 -0.11622292548418045 0.05000000074505806
  vertex -0.0625 -0.21650634706020355 0.05000000074505806
  vertex 0.03789106383919716 -0.17669445276260376 0.05000000074505806
 endloop
endfacet
facet normal 0.0 -0.0 1.0
 outer loop
  vertex 0.04229412600398064 -0.05939707159996033 0.05000000074505806
  vertex 0.14971528947353363 0.0006096395081840456 0.05000000074505806
  vertex 0.041415002197027206 0.06305491179227829 0.05000000074505806
 endloop
endfacet
facet normal -0.0 0.0 1.0
 outer loop
  vertex 0.04229412600398064 -0.05939707159996033 0.05000000074505806
  vertex 0.15064823627471924 -0.12277891486883163 0.05000000074505806
  vertex 0.14971528947353363 0.0006096395081840456 0.05000000074505806
 endloop
endfacet
facet normal 0.0 0.0 1.0
 outer loop
  vertex 0.04229412600398064 -0.05939707159996033 0.05000000074505806
  vertex 0.03789106383919716 -0.17669445276260376 0.05000000074505806
  vertex 0.15064823627471924 -0.12277891486883163 0.05000000074505806
 endloop
endfacet
facet normal 0.0 0.0 1.0
 outer loop
  vertex 0.14971528947353363 0.0006096395081840456 0.05000000074505806
  vertex 0.1495400220155716 0.1250707358121872 0.05000000074505806
  vertex 0.041415002197027206 0.06305491179227829 0.05000000074505806
 endloop
endfacet
facet normal 0.0 0.0 1.0
 outer loop
  vertex 0.1495400220155716 0.1250707358121872 0.05000000074505806
  vertex 0.04129422828555107 0.18760427832603455 0.05000000074505806
  vertex 0.041415002197027206 0.06305491179227829 0.05000000074505806
 endloop
endfacet
facet normal 0.0 0.0 1.0
 outer loop
  vertex 0.04129422828555107 0.18760427832603455 0.05000000074505806
  vertex -0.06834190338850021 0.12734587490558624 0.05000000074505806
  vertex 0.041415002197027206 0.06305491179227829 0.05000000074505806
 endloop
endfacet
facet normal 0.0 -0.0 1.0
 outer loop
  vertex 0.15064823627471924 -0.12277891486883163 0.05000000074505806
  vertex 0.2577722370624542 -0.0625 0.05000000074505806
  vertex 0.14971528947353363 0.0006096395081840456 0.05000000074505806
 endloop
endfacet
facet normal 0.0 -0.0 1.0
 outer loop
  vertex 0.14971528947353363 0.0006096395081840456 0.05000000074505806
  vertex 0.2577722370624542 0.0625 0.05000000074505806
  vertex 0.1495400220155716 0.1250707358121872 0.05000000074505806
 endloop
endfacet
facet normal 0.0 -0.0 1.0
 outer loop
  vertex 0.2577722370624542 -0.0625 0.05000000074505806
  vertex 0.2577722370624542 0.0625 0.05000000074505806
  vertex 0.14971528947353363 0.0006096395081840456 0.05000000074505806
 endloop
endfacet
facet normal -0.0 0.0 1.0
 outer loop
  vertex 0.15064823627471924 -0.12277891486883163 0.05000000074505806
  vertex 0.25709035992622375 -0.184064581990242 0.05000000074505806
  vertex 0.2577722370624542 -0.0625 0.05000000074505806
 endloop
endfacet
facet normal 0.0 0.0 1.0
 outer loop
  vertex 0.15064823627471924 -0.12277891486883163 0.05000000074505806
  vertex 0.14158907532691956 -0.2577612102031708 0.05000000074505806
  vertex 0.25709035992622375 -0.184064581990242 0.05000000074505806
 endloop
endfacet
facet normal 0.0 0.0 1.0
 outer loop
  vertex 0.15064823627471924 -0.12277891486883163 0.05000000074505806
  vertex 0.03789106383919716 -0.17669445276260376 0.05000000074505806
  vertex 0.14158907532691956 -0.2577612102031708 0.05000000074505806
 endloop
endfacet
facet normal 0.0 0.0 1.0
 outer loop
  vertex 0.1495400220155716 0.1250707358121872 0.05000000074505806
  vertex 0.14951905608177185 0.25 0.05000000074505806
  vertex 0.04129422828555107 0.18760427832603455 0.05000000074505806
 endloop
endfacet
facet normal 0.0 -0.0 1.0
 outer loop
  vertex 0.1495400220155716 0.1250707358121872 0.05000000074505806
  vertex 0.25237005949020386 0.1866789162158966 0.05000000074505806
  vertex 0.14951905608177185 0.25 0.05000000074505806
 endloop
endfacet
facet normal -0.0 0.0 1.0
 outer loop
  vertex 0.1495400220155716 0.1250707358121872 0.05000000074505806
  vertex 0.2577722370624542 0.0625 0.05000000074505806
  vertex 0.25237005949020386 0.1866789162158966 0.05000000074505806
 endloop
endfacet
facet normal 0.0 0.0 1.0
 outer loop
  vertex 0.14951905608177185 0.25 0.05000000074505806
  vertex 0.04499562457203865 0.31242185831069946 0.05000000074505806
  vertex 0.04129422828555107 0.18760427832603455 0.05000000074505806
 endloop
endfacet
facet normal 0.0 0.0 1.0
 outer loop
  vertex 0.04499562457203865 0.31242185831069946 0.05000000074505806
  vertex -0.0669872984290123 0.25 0.05000000074505806
  vertex 0.04129422828555107 0.18760427832603455 0.05000000074505806
 endloop
endfacet
facet normal 0.0 0.0 1.0
 outer loop
  vertex -0.0669872984290123 0.25 0.05000000074505806
  vertex -0.06834190338850021 0.12734587490558624 0.05000000074505806
  vertex 0.04129422828555107 0.18760427832603455 0.05000000074505806
 endloop
endfacet
facet normal 0.0 0.0 1.0
 outer loop
  vertex 0.25709035992622375 -0.184064581990242 0.05000000074505806
  vertex 0.32475951313972473 -0.125 0.05000000074505806
  vertex 0.2577722370624542 -0.0625 0.05000000074505806
 endloop
endfacet
facet normal 0.0 0.0 1.0
 outer loop
  vertex 0.2577722370624542 -0.0625 0.05000000074505806
  vertex 0.32475951313972473 -8.881784197001252e-16 0.05000000074505806
  vertex 0.2577722370624542 0.0625 0.05000000074505806
 endloop
endfacet
facet normal 0.0 -0.0 1.0
 outer loop
  vertex 0.32475951313972473 -0.125 0.05000000074505806
  vertex 0.32475951313972473 -8.881784197001252e-16 0.05000000074505806
  vertex 0.2577722370624542 -0.0625 0.05000000074505806
 endloop
endfacet
facet normal 0.0 0.0 1.0
 outer loop
  vertex 0.25237005949020386 0.1866789162158966 0.05000000074505806
  vertex 0.24992665648460388 0.29891106486320496 0.05000000074505806
  vertex 0.14951905608177185 0.25 0.05000000074505806
 endloop
endfacet
facet normal 0.0 -0.0 1.0
 outer loop
  vertex 0.2577722370624542 0.0625 0.05000000074505806
  vertex 0.32475951313972473 0.125 0.05000000074505806
  vertex 0.25237005949020386 0.1866789162158966 0.05000000074505806
 endloop
endfacet
facet normal 0.0 -0.0 1.0
 outer loop
  vertex 0.25237005949020386 0.1866789162158966 0.05000000074505806
  vertex 0.32469314336776733 0.23983891308307648 0.05000000074505806
  vertex 0.24992665648460388 0.29891106486320496 0.05000000074505806
 endloop
endfacet
facet normal 0.0 0.0 1.0
 outer loop
  vertex 0.32475951313972473 0.125 0.05000000074505806
  vertex 0.32469314336776733 0.23983891308307648 0.05000000074505806
  vertex 0.25237005949020386 0.1866789162158966 0.05000000074505806
 endloop
endfacet
facet normal -0.0 0.0 1.0
 outer loop
  vertex 0.14158907532691956 -0.2577612102031708 0.05000000074505806
  vertex 0.2759251594543457 -0.2904904782772064 0.05000000074505806
  vertex 0.25709035992622375 -0.184064581990242 0.05000000074505806
 endloop
endfacet
facet normal 0.0 0.0 1.0
 outer loop
  vertex 0.14158907532691956 -0.2577612102031708 0.05000000074505806
  vertex 0.03789106383919716 -0.17669445276260376 0.05000000074505806
  vertex 0.00012882343435194343 -0.28464043140411377 0.05000000074505806
 endloop
endfacet
facet normal 0.0 -0.0 1.0
 outer loop
  vertex 0.19273892045021057 -0.38983920216560364 0.05000000074505806
  vertex 0.2759251594543457 -0.2904904782772064 0.05000000074505806
  vertex 0.14158907532691956 -0.2577612102031708 0.05000000074505806
 endloop
endfacet
facet normal 0.0 0.0 1.0
 outer loop
  vertex -0.17678594589233398 0.3221267759799957 0.05000000074505806
  vertex -0.1821170151233673 0.19851598143577576 0.05000000074505806
  vertex -0.0669872984290123 0.25 0.05000000074505806
 endloop
endfacet
facet normal -0.0 0.0 1.0
 outer loop
  vertex -0.1821170151233673 0.19851598143577576 0.05000000074505806
  vertex -0.06834190338850021 0.12734587490558624 0.05000000074505806
  vertex -0.0669872984290123 0.25 0.05000000074505806
 endloop
endfacet
facet normal 0.0 0.0 1.0
 outer loop
  vertex -0.17678594589233398 0.3221267759799957 0.05000000074505806
  vertex -0.28647351264953613 0.2644043266773224 0.05000000074505806
  vertex -0.1821170151233673 0.19851598143577576 0.05000000074505806
 endloop
endfacet
facet normal 0.0 0.0 1.0
 outer loop
  vertex -0.28647351264953613 0.2644043266773224 0.05000000074505806
  vertex -0.2844943702220917 0.12769824266433716 0.05000000074505806
  vertex -0.1821170151233673 0.19851598143577576 0.05000000074505806
 endloop
endfacet
facet normal -0.0 0.0 1.0
 outer loop
  vertex 0.2577722370624542 0.0625 0.05000000074505806
  vertex 0.32475951313972473 -8.881784197001252e-16 0.05000000074505806
  vertex 0.32475951313972473 0.125 0.05000000074505806
 endloop
endfacet
facet normal 0.0 0.0 1.0
 outer loop
  vertex -0.30335870385169983 -0.3856109380722046 0.05000000074505806
  vertex -0.21237626671791077 -0.3052157163619995 0.05000000074505806
  vertex -0.2948473393917084 -0.25055021047592163 0.05000000074505806
 endloop
endfacet
facet normal -0.0 0.0 1.0
 outer loop
  vertex -0.2948473393917084 -0.25055021047592163 0.05000000074505806
  vertex -0.21237626671791077 -0.3052157163619995 0.05000000074505806
  vertex -0.17320069670677185 -0.19555404782295227 0.05000000074505806
 endloop
endfacet
facet normal 0.0 0.0 1.0
 outer loop
  vertex 0.3917468190193176 -0.0625 0.05000000074505806
  vertex 0.32475951313972473 -8.881784197001252e-16 0.05000000074505806
  vertex 0.32475951313972473 -0.125 0.05000000074505806
 endloop
endfacet
facet normal 0.0 0.0 1.0
 outer loop
  vertex 0.00012882343435194343 -0.28464043140411377 0.05000000074505806
  vertex -0.11599459499120712 -0.295749306678772 0.05000000074505806
  vertex -0.0612846240401268 -0.3924485146999359 0.05000000074505806
 endloop
endfacet
facet normal 0.0 0.0 1.0
 outer loop
  vertex 0.00012882343435194343 -0.28464043140411377 0.05000000074505806
  vertex -0.0625 -0.21650634706020355 0.05000000074505806
  vertex -0.11599459499120712 -0.295749306678772 0.05000000074505806
 endloop
endfacet
facet normal 0.0 0.0 1.0
 outer loop
  vertex 0.03789106383919716 -0.17669445276260376 0.05000000074505806
  vertex -0.0625 -0.21650634706020355 0.05000000074505806
  vertex 0.00012882343435194343 -0.28464043140411377 0.05000000074505806
 endloop
endfacet
facet normal 0.0 -0.0 1.0
 outer loop
  vertex -0.11599459499120712 -0.295749306678772 0.05000000074505806
  vertex -0.0625 -0.21650634706020355 0.05000000074505806
  vertex -0.17320069670677185 -0.19555404782295227 0.05000000074505806
 endloop
endfacet
facet normal 0.0 0.0 1.0
 outer loop
  vertex -0.17320069670677185 -0.19555404782295227 0.05000000074505806
  vertex -0.21237626671791077 -0.3052157163619995 0.05000000074505806
  vertex -0.11599459499120712 -0.295749306678772 0.05000000074505806
 endloop
endfacet
facet normal 0.0 0.0 1.0
 outer loop
  vertex 0.3917468190193176 0.1875 0.05000000074505806
  vertex 0.32469314336776733 0.23983891308307648 0.05000000074505806
  vertex 0.32475951313972473 0.125 0.05000000074505806
 endloop
endfacet
endsolid
