ply
format ascii 1.0
comment Created by meshio v5.3.4, 2022-06-15T13:52:52.522154
element vertex 8
property float x
property float y
property float z
element face 12
property list uchar int vertex_indices
end_header
-0.425087 -0.61804301 -0.475788
-0.425087 0.61804301 -0.475788
-0.425087 -0.61804301 0.475788
-0.425087 0.61804301 0.475788
0.425087 -0.61804301 -0.475788
0.425087 0.61804301 -0.475788
0.425087 -0.61804301 0.475788
0.425087 0.61804301 0.475788
3 0 1 2
3 3 1 2
3 4 5 6
3 7 5 6
3 0 4 2
3 6 4 2
3 1 5 3
3 7 5 3
3 0 4 1
3 5 4 1
3 2 6 3
3 7 6 3
