solid cube_5.stl
facet normal 1.428366 0.000000 0.000000
  outer loop
    vertex -0.350050 -0.379703 -0.940449
    vertex -0.350050 0.379703 -0.940449
    vertex -0.350050 -0.379703 0.940449
  endloop
endfacet
facet normal -1.428366 -0.000000 -0.000000
  outer loop
    vertex -0.350050 0.379703 0.940449
    vertex -0.350050 0.379703 -0.940449
    vertex -0.350050 -0.379703 0.940449
  endloop
endfacet
facet normal 1.428366 0.000000 0.000000
  outer loop
    vertex 0.350050 -0.379703 -0.940449
    vertex 0.350050 0.379703 -0.940449
    vertex 0.350050 -0.379703 0.940449
  endloop
endfacet
facet normal -1.428366 -0.000000 -0.000000
  outer loop
    vertex 0.350050 0.379703 0.940449
    vertex 0.350050 0.379703 -0.940449
    vertex 0.350050 -0.379703 0.940449
  endloop
endfacet
facet normal 0.000000 -1.316818 0.000000
  outer loop
    vertex -0.350050 -0.379703 -0.940449
    vertex 0.350050 -0.379703 -0.940449
    vertex -0.350050 -0.379703 0.940449
  endloop
endfacet
facet normal 0.000000 1.316818 0.000000
  outer loop
    vertex 0.350050 -0.379703 0.940449
    vertex 0.350050 -0.379703 -0.940449
    vertex -0.350050 -0.379703 0.940449
  endloop
endfacet
facet normal 0.000000 -1.316818 0.000000
  outer loop
    vertex -0.350050 0.379703 -0.940449
    vertex 0.350050 0.379703 -0.940449
    vertex -0.350050 0.379703 0.940449
  endloop
endfacet
facet normal 0.000000 1.316818 0.000000
  outer loop
    vertex 0.350050 0.379703 0.940449
    vertex 0.350050 0.379703 -0.940449
    vertex -0.350050 0.379703 0.940449
  endloop
endfacet
facet normal 0.000000 0.000000 0.531661
  outer loop
    vertex -0.350050 -0.379703 -0.940449
    vertex 0.350050 -0.379703 -0.940449
    vertex -0.350050 0.379703 -0.940449
  endloop
endfacet
facet normal -0.000000 -0.000000 -0.531661
  outer loop
    vertex 0.350050 0.379703 -0.940449
    vertex 0.350050 -0.379703 -0.940449
    vertex -0.350050 0.379703 -0.940449
  endloop
endfacet
facet normal 0.000000 0.000000 0.531661
  outer loop
    vertex -0.350050 -0.379703 0.940449
    vertex 0.350050 -0.379703 0.940449
    vertex -0.350050 0.379703 0.940449
  endloop
endfacet
facet normal -0.000000 -0.000000 -0.531661
  outer loop
    vertex 0.350050 0.379703 0.940449
    vertex 0.350050 -0.379703 0.940449
    vertex -0.350050 0.379703 0.940449
  endloop
endfacet
endsolid cube_5.stl
