solid cube.stl
facet normal 4.768914 0.000000 0.000000
  outer loop
    vertex -0.104846 -0.178720 -6.670946
    vertex -0.104846 0.178720 -6.670946
    vertex -0.104846 -0.178720 6.670946
  endloop
endfacet
facet normal -4.768914 -0.000000 -0.000000
  outer loop
    vertex -0.104846 0.178720 6.670946
    vertex -0.104846 0.178720 -6.670946
    vertex -0.104846 -0.178720 6.670946
  endloop
endfacet
facet normal 4.768914 0.000000 0.000000
  outer loop
    vertex 0.104846 -0.178720 -6.670946
    vertex 0.104846 0.178720 -6.670946
    vertex 0.104846 -0.178720 6.670946
  endloop
endfacet
facet normal -4.768914 -0.000000 -0.000000
  outer loop
    vertex 0.104846 0.178720 6.670946
    vertex 0.104846 0.178720 -6.670946
    vertex 0.104846 -0.178720 6.670946
  endloop
endfacet
facet normal 0.000000 -2.797679 0.000000
  outer loop
    vertex -0.104846 -0.178720 -6.670946
    vertex 0.104846 -0.178720 -6.670946
    vertex -0.104846 -0.178720 6.670946
  endloop
endfacet
facet normal 0.000000 2.797679 0.000000
  outer loop
    vertex 0.104846 -0.178720 6.670946
    vertex 0.104846 -0.178720 -6.670946
    vertex -0.104846 -0.178720 6.670946
  endloop
endfacet
facet normal 0.000000 -2.797679 0.000000
  outer loop
    vertex -0.104846 0.178720 -6.670946
    vertex 0.104846 0.178720 -6.670946
    vertex -0.104846 0.178720 6.670946
  endloop
endfacet
facet normal 0.000000 2.797679 0.000000
  outer loop
    vertex 0.104846 0.178720 6.670946
    vertex 0.104846 0.178720 -6.670946
    vertex -0.104846 0.178720 6.670946
  endloop
endfacet
facet normal 0.000000 0.000000 0.074952
  outer loop
    vertex -0.104846 -0.178720 -6.670946
    vertex 0.104846 -0.178720 -6.670946
    vertex -0.104846 0.178720 -6.670946
  endloop
endfacet
facet normal -0.000000 -0.000000 -0.074952
  outer loop
    vertex 0.104846 0.178720 -6.670946
    vertex 0.104846 -0.178720 -6.670946
    vertex -0.104846 0.178720 -6.670946
  endloop
endfacet
facet normal 0.000000 0.000000 0.074952
  outer loop
    vertex -0.104846 -0.178720 6.670946
    vertex 0.104846 -0.178720 6.670946
    vertex -0.104846 0.178720 6.670946
  endloop
endfacet
facet normal -0.000000 -0.000000 -0.074952
  outer loop
    vertex 0.104846 0.178720 6.670946
    vertex 0.104846 -0.178720 6.670946
    vertex -0.104846 0.178720 6.670946
  endloop
endfacet
endsolid cube.stl
