solid cube_2.stl
facet normal 20.635544 0.000000 0.000000
  outer loop
    vertex -0.024230 -0.292070 -17.663198
    vertex -0.024230 0.292070 -17.663198
    vertex -0.024230 -0.292070 17.663198
  endloop
endfacet
facet normal -20.635544 -0.000000 -0.000000
  outer loop
    vertex -0.024230 0.292070 17.663198
    vertex -0.024230 0.292070 -17.663198
    vertex -0.024230 -0.292070 17.663198
  endloop
endfacet
facet normal 20.635544 0.000000 0.000000
  outer loop
    vertex 0.024230 -0.292070 -17.663198
    vertex 0.024230 0.292070 -17.663198
    vertex 0.024230 -0.292070 17.663198
  endloop
endfacet
facet normal -20.635544 -0.000000 -0.000000
  outer loop
    vertex 0.024230 0.292070 17.663198
    vertex 0.024230 0.292070 -17.663198
    vertex 0.024230 -0.292070 17.663198
  endloop
endfacet
facet normal 0.000000 -1.711920 0.000000
  outer loop
    vertex -0.024230 -0.292070 -17.663198
    vertex 0.024230 -0.292070 -17.663198
    vertex -0.024230 -0.292070 17.663198
  endloop
endfacet
facet normal 0.000000 1.711920 0.000000
  outer loop
    vertex 0.024230 -0.292070 17.663198
    vertex 0.024230 -0.292070 -17.663198
    vertex -0.024230 -0.292070 17.663198
  endloop
endfacet
facet normal 0.000000 -1.711920 0.000000
  outer loop
    vertex -0.024230 0.292070 -17.663198
    vertex 0.024230 0.292070 -17.663198
    vertex -0.024230 0.292070 17.663198
  endloop
endfacet
facet normal 0.000000 1.711920 0.000000
  outer loop
    vertex 0.024230 0.292070 17.663198
    vertex 0.024230 0.292070 -17.663198
    vertex -0.024230 0.292070 17.663198
  endloop
endfacet
facet normal 0.000000 0.000000 0.028307
  outer loop
    vertex -0.024230 -0.292070 -17.663198
    vertex 0.024230 -0.292070 -17.663198
    vertex -0.024230 0.292070 -17.663198
  endloop
endfacet
facet normal -0.000000 -0.000000 -0.028307
  outer loop
    vertex 0.024230 0.292070 -17.663198
    vertex 0.024230 -0.292070 -17.663198
    vertex -0.024230 0.292070 -17.663198
  endloop
endfacet
facet normal 0.000000 0.000000 0.028307
  outer loop
    vertex -0.024230 -0.292070 17.663198
    vertex 0.024230 -0.292070 17.663198
    vertex -0.024230 0.292070 17.663198
  endloop
endfacet
facet normal -0.000000 -0.000000 -0.028307
  outer loop
    vertex 0.024230 0.292070 17.663198
    vertex 0.024230 -0.292070 17.663198
    vertex -0.024230 0.292070 17.663198
  endloop
endfacet
endsolid cube_2.stl
