solid cube.stl
facet normal 0.350780 0.000000 0.000000
  outer loop
    vertex -1.425395 -1.271985 -0.068943
    vertex -1.425395 1.271985 -0.068943
    vertex -1.425395 -1.271985 0.068943
  endloop
endfacet
facet normal -0.350780 -0.000000 -0.000000
  outer loop
    vertex -1.425395 1.271985 0.068943
    vertex -1.425395 1.271985 -0.068943
    vertex -1.425395 -1.271985 0.068943
  endloop
endfacet
facet normal 0.350780 0.000000 0.000000
  outer loop
    vertex 1.425395 -1.271985 -0.068943
    vertex 1.425395 1.271985 -0.068943
    vertex 1.425395 -1.271985 0.068943
  endloop
endfacet
facet normal -0.350780 -0.000000 -0.000000
  outer loop
    vertex 1.425395 1.271985 0.068943
    vertex 1.425395 1.271985 -0.068943
    vertex 1.425395 -1.271985 0.068943
  endloop
endfacet
facet normal 0.000000 -0.393086 0.000000
  outer loop
    vertex -1.425395 -1.271985 -0.068943
    vertex 1.425395 -1.271985 -0.068943
    vertex -1.425395 -1.271985 0.068943
  endloop
endfacet
facet normal 0.000000 0.393086 0.000000
  outer loop
    vertex 1.425395 -1.271985 0.068943
    vertex 1.425395 -1.271985 -0.068943
    vertex -1.425395 -1.271985 0.068943
  endloop
endfacet
facet normal 0.000000 -0.393086 0.000000
  outer loop
    vertex -1.425395 1.271985 -0.068943
    vertex 1.425395 1.271985 -0.068943
    vertex -1.425395 1.271985 0.068943
  endloop
endfacet
facet normal 0.000000 0.393086 0.000000
  outer loop
    vertex 1.425395 1.271985 0.068943
    vertex 1.425395 1.271985 -0.068943
    vertex -1.425395 1.271985 0.068943
  endloop
endfacet
facet normal 0.000000 0.000000 7.252329
  outer loop
    vertex -1.425395 -1.271985 -0.068943
    vertex 1.425395 -1.271985 -0.068943
    vertex -1.425395 1.271985 -0.068943
  endloop
endfacet
facet normal -0.000000 -0.000000 -7.252329
  outer loop
    vertex 1.425395 1.271985 -0.068943
    vertex 1.425395 -1.271985 -0.068943
    vertex -1.425395 1.271985 -0.068943
  endloop
endfacet
facet normal 0.000000 0.000000 7.252329
  outer loop
    vertex -1.425395 -1.271985 0.068943
    vertex 1.425395 -1.271985 0.068943
    vertex -1.425395 1.271985 0.068943
  endloop
endfacet
facet normal -0.000000 -0.000000 -7.252329
  outer loop
    vertex 1.425395 1.271985 0.068943
    vertex 1.425395 -1.271985 0.068943
    vertex -1.425395 1.271985 0.068943
  endloop
endfacet
endsolid cube.stl
