solid cube_8.stl
facet normal 1.427522 0.000000 0.000000
  outer loop
    vertex -0.350257 -0.231465 -1.541835
    vertex -0.350257 0.231465 -1.541835
    vertex -0.350257 -0.231465 1.541835
  endloop
endfacet
facet normal -1.427522 -0.000000 -0.000000
  outer loop
    vertex -0.350257 0.231465 1.541835
    vertex -0.350257 0.231465 -1.541835
    vertex -0.350257 -0.231465 1.541835
  endloop
endfacet
facet normal 1.427522 0.000000 0.000000
  outer loop
    vertex 0.350257 -0.231465 -1.541835
    vertex 0.350257 0.231465 -1.541835
    vertex 0.350257 -0.231465 1.541835
  endloop
endfacet
facet normal -1.427522 -0.000000 -0.000000
  outer loop
    vertex 0.350257 0.231465 1.541835
    vertex 0.350257 0.231465 -1.541835
    vertex 0.350257 -0.231465 1.541835
  endloop
endfacet
facet normal 0.000000 -2.160156 0.000000
  outer loop
    vertex -0.350257 -0.231465 -1.541835
    vertex 0.350257 -0.231465 -1.541835
    vertex -0.350257 -0.231465 1.541835
  endloop
endfacet
facet normal 0.000000 2.160156 0.000000
  outer loop
    vertex 0.350257 -0.231465 1.541835
    vertex 0.350257 -0.231465 -1.541835
    vertex -0.350257 -0.231465 1.541835
  endloop
endfacet
facet normal 0.000000 -2.160156 0.000000
  outer loop
    vertex -0.350257 0.231465 -1.541835
    vertex 0.350257 0.231465 -1.541835
    vertex -0.350257 0.231465 1.541835
  endloop
endfacet
facet normal 0.000000 2.160156 0.000000
  outer loop
    vertex 0.350257 0.231465 1.541835
    vertex 0.350257 0.231465 -1.541835
    vertex -0.350257 0.231465 1.541835
  endloop
endfacet
facet normal 0.000000 0.000000 0.324289
  outer loop
    vertex -0.350257 -0.231465 -1.541835
    vertex 0.350257 -0.231465 -1.541835
    vertex -0.350257 0.231465 -1.541835
  endloop
endfacet
facet normal -0.000000 -0.000000 -0.324289
  outer loop
    vertex 0.350257 0.231465 -1.541835
    vertex 0.350257 -0.231465 -1.541835
    vertex -0.350257 0.231465 -1.541835
  endloop
endfacet
facet normal 0.000000 0.000000 0.324289
  outer loop
    vertex -0.350257 -0.231465 1.541835
    vertex 0.350257 -0.231465 1.541835
    vertex -0.350257 0.231465 1.541835
  endloop
endfacet
facet normal -0.000000 -0.000000 -0.324289
  outer loop
    vertex 0.350257 0.231465 1.541835
    vertex 0.350257 -0.231465 1.541835
    vertex -0.350257 0.231465 1.541835
  endloop
endfacet
endsolid cube_8.stl
