solid cube.stl
facet normal 0.986385 0.000000 0.000000
  outer loop
    vertex -0.506901 -0.601795 -0.409768
    vertex -0.506901 0.601795 -0.409768
    vertex -0.506901 -0.601795 0.409768
  endloop
endfacet
facet normal -0.986385 -0.000000 -0.000000
  outer loop
    vertex -0.506901 0.601795 0.409768
    vertex -0.506901 0.601795 -0.409768
    vertex -0.506901 -0.601795 0.409768
  endloop
endfacet
facet normal 0.986385 0.000000 0.000000
  outer loop
    vertex 0.506901 -0.601795 -0.409768
    vertex 0.506901 0.601795 -0.409768
    vertex 0.506901 -0.601795 0.409768
  endloop
endfacet
facet normal -0.986385 -0.000000 -0.000000
  outer loop
    vertex 0.506901 0.601795 0.409768
    vertex 0.506901 0.601795 -0.409768
    vertex 0.506901 -0.601795 0.409768
  endloop
endfacet
facet normal 0.000000 -0.830848 0.000000
  outer loop
    vertex -0.506901 -0.601795 -0.409768
    vertex 0.506901 -0.601795 -0.409768
    vertex -0.506901 -0.601795 0.409768
  endloop
endfacet
facet normal 0.000000 0.830848 0.000000
  outer loop
    vertex 0.506901 -0.601795 0.409768
    vertex 0.506901 -0.601795 -0.409768
    vertex -0.506901 -0.601795 0.409768
  endloop
endfacet
facet normal 0.000000 -0.830848 0.000000
  outer loop
    vertex -0.506901 0.601795 -0.409768
    vertex 0.506901 0.601795 -0.409768
    vertex -0.506901 0.601795 0.409768
  endloop
endfacet
facet normal 0.000000 0.830848 0.000000
  outer loop
    vertex 0.506901 0.601795 0.409768
    vertex 0.506901 0.601795 -0.409768
    vertex -0.506901 0.601795 0.409768
  endloop
endfacet
facet normal 0.000000 0.000000 1.220202
  outer loop
    vertex -0.506901 -0.601795 -0.409768
    vertex 0.506901 -0.601795 -0.409768
    vertex -0.506901 0.601795 -0.409768
  endloop
endfacet
facet normal -0.000000 -0.000000 -1.220202
  outer loop
    vertex 0.506901 0.601795 -0.409768
    vertex 0.506901 -0.601795 -0.409768
    vertex -0.506901 0.601795 -0.409768
  endloop
endfacet
facet normal 0.000000 0.000000 1.220202
  outer loop
    vertex -0.506901 -0.601795 0.409768
    vertex 0.506901 -0.601795 0.409768
    vertex -0.506901 0.601795 0.409768
  endloop
endfacet
facet normal -0.000000 -0.000000 -1.220202
  outer loop
    vertex 0.506901 0.601795 0.409768
    vertex 0.506901 -0.601795 0.409768
    vertex -0.506901 0.601795 0.409768
  endloop
endfacet
endsolid cube.stl
