solid cube.stl
facet normal 1.394953 0.000000 0.000000
  outer loop
    vertex -0.358435 -0.450900 -0.773428
    vertex -0.358435 0.450900 -0.773428
    vertex -0.358435 -0.450900 0.773428
  endloop
endfacet
facet normal -1.394953 -0.000000 -0.000000
  outer loop
    vertex -0.358435 0.450900 0.773428
    vertex -0.358435 0.450900 -0.773428
    vertex -0.358435 -0.450900 0.773428
  endloop
endfacet
facet normal 1.394953 0.000000 0.000000
  outer loop
    vertex 0.358435 -0.450900 -0.773428
    vertex 0.358435 0.450900 -0.773428
    vertex 0.358435 -0.450900 0.773428
  endloop
endfacet
facet normal -1.394953 -0.000000 -0.000000
  outer loop
    vertex 0.358435 0.450900 0.773428
    vertex 0.358435 0.450900 -0.773428
    vertex 0.358435 -0.450900 0.773428
  endloop
endfacet
facet normal 0.000000 -1.108894 0.000000
  outer loop
    vertex -0.358435 -0.450900 -0.773428
    vertex 0.358435 -0.450900 -0.773428
    vertex -0.358435 -0.450900 0.773428
  endloop
endfacet
facet normal 0.000000 1.108894 0.000000
  outer loop
    vertex 0.358435 -0.450900 0.773428
    vertex 0.358435 -0.450900 -0.773428
    vertex -0.358435 -0.450900 0.773428
  endloop
endfacet
facet normal 0.000000 -1.108894 0.000000
  outer loop
    vertex -0.358435 0.450900 -0.773428
    vertex 0.358435 0.450900 -0.773428
    vertex -0.358435 0.450900 0.773428
  endloop
endfacet
facet normal 0.000000 1.108894 0.000000
  outer loop
    vertex 0.358435 0.450900 0.773428
    vertex 0.358435 0.450900 -0.773428
    vertex -0.358435 0.450900 0.773428
  endloop
endfacet
facet normal 0.000000 0.000000 0.646473
  outer loop
    vertex -0.358435 -0.450900 -0.773428
    vertex 0.358435 -0.450900 -0.773428
    vertex -0.358435 0.450900 -0.773428
  endloop
endfacet
facet normal -0.000000 -0.000000 -0.646473
  outer loop
    vertex 0.358435 0.450900 -0.773428
    vertex 0.358435 -0.450900 -0.773428
    vertex -0.358435 0.450900 -0.773428
  endloop
endfacet
facet normal 0.000000 0.000000 0.646473
  outer loop
    vertex -0.358435 -0.450900 0.773428
    vertex 0.358435 -0.450900 0.773428
    vertex -0.358435 0.450900 0.773428
  endloop
endfacet
facet normal -0.000000 -0.000000 -0.646473
  outer loop
    vertex 0.358435 0.450900 0.773428
    vertex 0.358435 -0.450900 0.773428
    vertex -0.358435 0.450900 0.773428
  endloop
endfacet
endsolid cube.stl
