solid
facet normal 0.9997255206108093 0.023427460342645645 -0.00024575437419116497
 outer loop
  vertex -0.34467047452926636 -0.3398173451423645 -1.5843560695648193
  vertex -0.3608434200286865 0.35024285316467285 -1.5930966138839722
  vertex -0.34353750944137573 -0.35460764169692993 1.614589810371399
 endloop
endfacet
facet normal -0.9999833106994629 0.0011945314472541213 0.005657531786710024
 outer loop
  vertex -0.3425881266593933 0.3434574007987976 1.6350061893463135
  vertex -0.3608434200286865 0.35024285316467285 -1.5930966138839722
  vertex -0.34353750944137573 -0.35460764169692993 1.614589810371399
 endloop
endfacet
facet normal 0.9999843239784241 -0.0005861970712430775 -0.00557665154337883
 outer loop
  vertex 0.34544867277145386 -0.34184253215789795 -1.6487419605255127
  vertex 0.3462107181549072 0.349173903465271 -1.584731936454773
  vertex 0.3637213110923767 -0.3520812392234802 1.628915548324585
 endloop
endfacet
facet normal -0.9999388456344604 -0.010600621812045574 0.0031353107187896967
 outer loop
  vertex 0.35636091232299805 0.35677799582481384 1.6781606674194336
  vertex 0.3462107181549072 0.349173903465271 -1.584731936454773
  vertex 0.3637213110923767 -0.3520812392234802 1.628915548324585
 endloop
endfacet
facet normal -0.0033657371532171965 -0.9999836683273315 -0.004622222855687141
 outer loop
  vertex -0.34467047452926636 -0.3398173451423645 -1.5843560695648193
  vertex 0.34544867277145386 -0.34184253215789795 -1.6487419605255127
  vertex -0.34353750944137573 -0.35460764169692993 1.614589810371399
 endloop
endfacet
facet normal -0.0036357466597110033 0.9999884963035583 0.003144020913168788
 outer loop
  vertex 0.3637213110923767 -0.3520812392234802 1.628915548324585
  vertex 0.34544867277145386 -0.34184253215789795 -1.6487419605255127
  vertex -0.34353750944137573 -0.35460764169692993 1.614589810371399
 endloop
endfacet
facet normal -0.0014870630111545324 -0.9999966621398926 -0.002093577291816473
 outer loop
  vertex -0.3608434200286865 0.35024285316467285 -1.5930966138839722
  vertex 0.3462107181549072 0.349173903465271 -1.584731936454773
  vertex -0.3425881266593933 0.3434574007987976 1.6350061893463135
 endloop
endfacet
facet normal -0.018914347514510155 0.9998185038566589 -0.002271214034408331
 outer loop
  vertex 0.35636091232299805 0.35677799582481384 1.6781606674194336
  vertex 0.3462107181549072 0.349173903465271 -1.584731936454773
  vertex -0.3425881266593933 0.3434574007987976 1.6350061893463135
 endloop
endfacet
facet normal 0.09292622655630112 0.014788064174354076 0.9955631494522095
 outer loop
  vertex -0.34467047452926636 -0.3398173451423645 -1.5843560695648193
  vertex 0.34544867277145386 -0.34184253215789795 -1.6487419605255127
  vertex -0.3608434200286865 0.35024285316467285 -1.5930966138839722
 endloop
endfacet
facet normal 0.01191848423331976 0.09221722930669785 -0.995667576789856
 outer loop
  vertex 0.3462107181549072 0.349173903465271 -1.584731936454773
  vertex 0.34544867277145386 -0.34184253215789795 -1.6487419605255127
  vertex -0.3608434200286865 0.35024285316467285 -1.5930966138839722
 endloop
endfacet
facet normal -0.020138239488005638 -0.02920130454003811 0.9993706941604614
 outer loop
  vertex -0.34353750944137573 -0.35460764169692993 1.614589810371399
  vertex 0.3637213110923767 -0.3520812392234802 1.628915548324585
  vertex -0.3425881266593933 0.3434574007987976 1.6350061893463135
 endloop
endfacet
facet normal 0.060149047523736954 0.06979996711015701 -0.9957460165023804
 outer loop
  vertex 0.35636091232299805 0.35677799582481384 1.6781606674194336
  vertex 0.3637213110923767 -0.3520812392234802 1.628915548324585
  vertex -0.3425881266593933 0.3434574007987976 1.6350061893463135
 endloop
endfacet
endsolid
