solid newmesh.stl
facet normal -126086202840391090319478751232.000000 -1702448327039003375612121317376.000000 -55730800263460871725043941376.000000
  outer loop
    vertex 1127309192986624.000000 -178971522105344.000000 0.000000
    vertex 0.000000 -71890739658752.000000 -720631289085952.000000
    vertex -236385067859968.000000 0.000000 -2381927659077632.000000
  endloop
endfacet
facet normal 2266820838816257630273603108864.000000 1821656119755105855499139022848.000000 -243714685088894509018389676032.000000
  outer loop
    vertex -703139162357760.000000 1172959058198528.000000 2044067546398720.000000
    vertex 0.000000 -71890739658752.000000 -720631289085952.000000
    vertex -236385067859968.000000 0.000000 -2381927659077632.000000
  endloop
endfacet
facet normal 3586030614093776447785056337920.000000 7147478930571509025931637293056.000000 -1516021689784960832524443975680.000000
  outer loop
    vertex -703139162357760.000000 1172959058198528.000000 2044067546398720.000000
    vertex 1127309192986624.000000 -178971522105344.000000 0.000000
    vertex -236385067859968.000000 0.000000 -2381927659077632.000000
  endloop
endfacet
facet normal 1193123950226446356763591573504.000000 3623374332661672342991730114560.000000 -1328037956075254647059745079296.000000
  outer loop
    vertex -703139162357760.000000 1172959058198528.000000 2044067546398720.000000
    vertex 1127309192986624.000000 -178971522105344.000000 0.000000
    vertex 0.000000 -71890739658752.000000 -720631289085952.000000
  endloop
endfacet
endsolid newmesh.stl
